M48
;Layer_Color=9474304
;FILE_FORMAT=4:4
METRIC,LZ
;TYPE=PLATED
T1F00S00C0.3000
T2F00S00C0.6000
T4F00S00C1.1000
T5F00S00C3.0000
;TYPE=NON_PLATED
T6F00S00C0.6000
%
T01
X-00231Y-00115
X-00230501Y-00064501
X-00197001Y-00076001
X-00197501Y-00096001
X-001765Y-0011025
X-00197001Y-00148001
X-00104Y-00157
X-00092
X-000825Y-001565
X-00093Y-00146
X-00077Y-00134
Y-00122
Y-0011
X-00073Y-00086
X-000825Y-000875
X-00093Y-00098
X-00119Y-00089
X-00134Y-00075
X-00133999Y-00036999
X-001765Y-0003975
X-00088Y-00059
X-000645Y-00044634
Y-00033634
X-000535
Y-00044634
Y-00055634
X-000425
X-000315
Y-00044634
X-000205
Y-00033634
X-000315
X-000425
Y-00044634
X-00035694Y-00078579
X-00027Y-00078
X-0000844Y-00076472
X-00007991Y-0006801
X0Y-00084
X-00011001Y-00090001
Y-00109001
X-00045001Y-00123001
X-00055Y-00123
Y-00136
Y-00147
X-00045
X-00046438Y-0015675
X-00037Y-00157
X-00038Y-00139
X-00029Y-00146
X-00057Y-00157
X00004999Y-00160999
X00025Y-00135
X0003Y-00101
X00041999Y-00095999
X0005Y-00101
X00066Y-00128
X00085999Y-00128999
X00106Y-00139
X00099Y-00151
X00097333Y-00107954
X00086Y-00083
X00098084Y-00064916
X00098865Y-00053843
X00114Y-00056
X00117Y-00086
X00149Y-00077
X00151Y-00064
X00142Y-00038
X00132Y-00039
X00075902Y-00033343
X00075Y-00046096
X00067Y-00048
X00063Y-00056
X00054Y-00058
X00018Y-00050967
X00010051Y-00053048
X00008866Y-00061134
X00008598Y-00081937
X00007Y-00092
X00005Y-00114
X000538Y-001552
X00142499Y-00124001
X00142999Y-00103001
X00163Y-00096
X00177Y-00155
X002361Y-00116
Y-00063
X0022589Y-00038999
X00208Y-0004
X00162Y-00026001
X00142Y-00022
X00165Y00016002
X00164999Y00026001
X00163Y00054999
X0018Y00064
X00172Y00078
X00177Y00099
X00194Y00098
X00214Y00097
X00182Y00125
X00121
X00106Y00145
X00084
X00065
X000495Y00129
X0006Y00111
X00079
X00098
X00104Y00039
X00082
X00088Y00029
X00048Y0003
X00049Y00042
X00061Y00046
X00037Y00063
X00016998Y00063998
X00017Y00109
X00002498Y00170502
X00054001Y00179999
X00096499Y00198501
X00105Y00192
X001765Y0018975
X00132Y00048
X00193Y00015
X00226Y00002
X00074001Y-00024501
X00062Y-00029936
X00050501Y-00028999
X00051001Y-00008999
Y00010001
X00002Y00017
X00001Y00006
X-00007866Y00004597
X-000205Y-00022634
X-000315
Y-00011634
X-000425
X-000535
Y-00022634
X-000645
X-000425
X-00054443Y0001389
X-000586Y00020795
X-00067157Y00026843
X-00062Y00033048
X-00051017Y00032904
X-00043048Y00034
X-00041Y00044
X-0005Y00045
X-00057Y00049
X-00056048Y00057952
X-00059Y00079383
X-0007Y000765
X-00068Y00097
X-00063Y00116
X-00055Y00128
X-000435Y001065
X-00023Y00115
X-00003Y00123
Y00074
X-00032Y00079468
X-00098915Y00086001
X-00111519Y00086
X-00122093Y00059289
X-00136Y00058
X-00143Y00049
X-00147Y00041
X-0015Y00024
X-00149249Y-00006
X-00133Y-00017
X-00165Y-00024
X-00184Y-00023
X-00178Y00039
X-00209Y00029
X-00229Y00038
X-00218195Y00062243
X-00223372Y00109523
X-00223Y0013
Y00151
X-00159999Y001625
X-00147Y00161
X-0014525Y001345
Y001225
X-0013325
Y001345
X-00105759Y00138241
X-00063999Y00162749
Y00209249
X-00084Y00209
X-00103
X-00122
X-00141
X-0016
X-00179
X-001765Y0010025
X-00181Y00086
X-00145Y00067
X-00097765Y00056235
X-00098381Y00041
X-00095Y00029
X-00085
X-00071001Y00012001
X-00098Y00007952
X-00089Y-00007
X-00088967Y-00016
X-00019Y00172
X-00013Y00178
X-0001085Y0016585
T02
X0003656Y0008219
Y0009469
X-0001516Y000334
X-0002766
X-0007964Y000934
X-0009214
X-00097Y001205
Y00133
Y001455
T04
X0021Y001153
Y001407
T05
X-0022Y-00195
X0022
Y00195
X-0022
T06
X00028898Y00163904
X-00028902
M30
