G04*
G04 #@! TF.GenerationSoftware,Altium Limited,Altium Designer,22.7.1 (60)*
G04*
G04 Layer_Color=8388736*
%FSLAX44Y44*%
%MOMM*%
G71*
G04*
G04 #@! TF.SameCoordinates,4EDC8D64-7802-4C18-8A36-DA98FD6AFE69*
G04*
G04*
G04 #@! TF.FilePolarity,Negative*
G04*
G01*
G75*
G04:AMPARAMS|DCode=20|XSize=0.2425mm|YSize=0.9853mm|CornerRadius=0.1212mm|HoleSize=0mm|Usage=FLASHONLY|Rotation=90.000|XOffset=0mm|YOffset=0mm|HoleType=Round|Shape=RoundedRectangle|*
%AMROUNDEDRECTD20*
21,1,0.2425,0.7428,0,0,90.0*
21,1,0.0000,0.9853,0,0,90.0*
1,1,0.2425,0.3714,0.0000*
1,1,0.2425,0.3714,0.0000*
1,1,0.2425,-0.3714,0.0000*
1,1,0.2425,-0.3714,0.0000*
%
%ADD20ROUNDEDRECTD20*%
G04:AMPARAMS|DCode=21|XSize=0.9853mm|YSize=0.2425mm|CornerRadius=0.1212mm|HoleSize=0mm|Usage=FLASHONLY|Rotation=90.000|XOffset=0mm|YOffset=0mm|HoleType=Round|Shape=RoundedRectangle|*
%AMROUNDEDRECTD21*
21,1,0.9853,0.0000,0,0,90.0*
21,1,0.7428,0.2425,0,0,90.0*
1,1,0.2425,0.0000,0.3714*
1,1,0.2425,0.0000,-0.3714*
1,1,0.2425,0.0000,-0.3714*
1,1,0.2425,0.0000,0.3714*
%
%ADD21ROUNDEDRECTD21*%
%ADD22R,0.2425X0.9853*%
%ADD49R,5.5000X5.5000*%
%ADD50R,1.7032X0.8532*%
%ADD51R,1.4224X1.4224*%
%ADD52R,1.4524X1.6524*%
%ADD53R,1.6032X1.4032*%
%ADD54R,1.6524X1.4524*%
%ADD55R,1.0032X0.8032*%
%ADD56R,1.4224X1.4224*%
%ADD57R,1.7032X1.6032*%
%ADD58R,0.8032X1.3032*%
%ADD59R,1.1032X1.1532*%
%ADD60R,1.4032X1.6032*%
%ADD61R,0.8032X1.4032*%
G04:AMPARAMS|DCode=62|XSize=0.8032mm|YSize=1.3032mm|CornerRadius=0.2516mm|HoleSize=0mm|Usage=FLASHONLY|Rotation=90.000|XOffset=0mm|YOffset=0mm|HoleType=Round|Shape=RoundedRectangle|*
%AMROUNDEDRECTD62*
21,1,0.8032,0.8000,0,0,90.0*
21,1,0.3000,1.3032,0,0,90.0*
1,1,0.5032,0.4000,0.1500*
1,1,0.5032,0.4000,-0.1500*
1,1,0.5032,-0.4000,-0.1500*
1,1,0.5032,-0.4000,0.1500*
%
%ADD62ROUNDEDRECTD62*%
G04:AMPARAMS|DCode=63|XSize=0.8032mm|YSize=1.3032mm|CornerRadius=0.2516mm|HoleSize=0mm|Usage=FLASHONLY|Rotation=0.000|XOffset=0mm|YOffset=0mm|HoleType=Round|Shape=RoundedRectangle|*
%AMROUNDEDRECTD63*
21,1,0.8032,0.8000,0,0,0.0*
21,1,0.3000,1.3032,0,0,0.0*
1,1,0.5032,0.1500,-0.4000*
1,1,0.5032,-0.1500,-0.4000*
1,1,0.5032,-0.1500,0.4000*
1,1,0.5032,0.1500,0.4000*
%
%ADD63ROUNDEDRECTD63*%
%ADD64R,1.1032X1.2032*%
%ADD65R,1.2032X1.1032*%
%ADD66R,1.3032X0.8032*%
%ADD67R,1.7032X2.8032*%
%ADD68O,0.4832X0.9532*%
%ADD69O,0.9532X0.4832*%
%ADD70R,3.0032X3.0032*%
%ADD71R,0.5032X1.3532*%
%ADD72R,0.8032X1.3532*%
%ADD73R,1.2532X1.1532*%
%ADD74R,1.3524X1.3524*%
%ADD75R,0.8032X1.0032*%
%ADD76R,1.1016X1.1016*%
%ADD77C,1.1016*%
%ADD78C,3.0000*%
%ADD79C,0.2032*%
%ADD80R,1.1016X1.1016*%
%ADD81C,0.8532*%
%ADD82O,1.2532X2.3032*%
%ADD83O,1.2032X2.2032*%
%ADD84C,1.8032*%
%ADD85R,1.8032X1.8032*%
%ADD86C,0.8632*%
%ADD87C,0.8032*%
D20*
X-77134Y-61134D02*
D03*
Y-56134D02*
D03*
Y-51134D02*
D03*
Y-46134D02*
D03*
Y-41134D02*
D03*
Y-36134D02*
D03*
Y-31134D02*
D03*
Y-26134D02*
D03*
Y-21134D02*
D03*
Y-16134D02*
D03*
Y-11134D02*
D03*
Y-6134D02*
D03*
X-7866D02*
D03*
Y-11134D02*
D03*
Y-16134D02*
D03*
Y-21134D02*
D03*
Y-26134D02*
D03*
Y-36134D02*
D03*
Y-41134D02*
D03*
Y-46134D02*
D03*
Y-51134D02*
D03*
Y-56134D02*
D03*
Y-61134D02*
D03*
Y-31134D02*
D03*
D21*
X-65000Y1000D02*
D03*
X-60000D02*
D03*
X-55000D02*
D03*
X-50000D02*
D03*
X-45000D02*
D03*
X-40000D02*
D03*
X-35000D02*
D03*
X-30000D02*
D03*
X-25000D02*
D03*
X-20000D02*
D03*
X-15000D02*
D03*
Y-68268D02*
D03*
X-20000D02*
D03*
X-25000D02*
D03*
X-30000D02*
D03*
X-35000D02*
D03*
X-40000D02*
D03*
X-45000D02*
D03*
X-50000D02*
D03*
X-55000D02*
D03*
X-60000D02*
D03*
X-65000D02*
D03*
X-70000Y1000D02*
D03*
D22*
Y-68268D02*
D03*
D49*
X-42500Y-33634D02*
D03*
D50*
X-164308Y28000D02*
D03*
Y40700D02*
D03*
Y53400D02*
D03*
Y66100D02*
D03*
X-110308D02*
D03*
Y53400D02*
D03*
Y40700D02*
D03*
Y28000D02*
D03*
D51*
X4999Y-126999D02*
D03*
Y-146999D02*
D03*
X156999Y-175999D02*
D03*
Y-155999D02*
D03*
X-159999Y175999D02*
D03*
Y195999D02*
D03*
X85999Y-94999D02*
D03*
Y-114999D02*
D03*
X-86999Y44999D02*
D03*
Y64999D02*
D03*
X-184309Y9001D02*
D03*
Y-10999D02*
D03*
X-165309Y9001D02*
D03*
Y-10999D02*
D03*
X109001Y-44001D02*
D03*
Y-24001D02*
D03*
X-83999Y175999D02*
D03*
Y195999D02*
D03*
X60001Y77999D02*
D03*
Y97999D02*
D03*
X79001Y77999D02*
D03*
Y97999D02*
D03*
X83999Y179001D02*
D03*
Y159001D02*
D03*
X64999Y179001D02*
D03*
Y159001D02*
D03*
X-140999Y175999D02*
D03*
Y195999D02*
D03*
X-121999D02*
D03*
Y175999D02*
D03*
X-14001Y-126999D02*
D03*
Y-146999D02*
D03*
X194001Y63999D02*
D03*
Y83999D02*
D03*
X-178999Y175999D02*
D03*
Y195999D02*
D03*
X-67999Y44999D02*
D03*
Y64999D02*
D03*
X41999Y-61999D02*
D03*
Y-81999D02*
D03*
X98001Y97999D02*
D03*
Y77999D02*
D03*
X158999Y78001D02*
D03*
Y98001D02*
D03*
D52*
X44501Y-114999D02*
D03*
X25501D02*
D03*
X66000Y-151000D02*
D03*
X85000D02*
D03*
X-229501Y-9001D02*
D03*
X-210501D02*
D03*
X-190499Y109001D02*
D03*
X-209499D02*
D03*
X-166501Y85999D02*
D03*
X-147501D02*
D03*
X-190499Y151001D02*
D03*
X-209499D02*
D03*
X-190499Y130001D02*
D03*
X-209499D02*
D03*
X17499Y30999D02*
D03*
X36499D02*
D03*
X-230501Y-96001D02*
D03*
X-211501D02*
D03*
X-230501Y-128001D02*
D03*
X-211501D02*
D03*
X-131499Y5001D02*
D03*
X-112499D02*
D03*
X17501Y-28999D02*
D03*
X36501D02*
D03*
X109499Y-124001D02*
D03*
X128499D02*
D03*
X-119499Y-16999D02*
D03*
X-100499D02*
D03*
X35499Y128999D02*
D03*
X16499D02*
D03*
X64499Y-69001D02*
D03*
X83499D02*
D03*
X-40499Y129001D02*
D03*
X-21499D02*
D03*
X132501Y-3999D02*
D03*
X151501D02*
D03*
X118499Y-153001D02*
D03*
X137499D02*
D03*
D53*
X-103000Y195000D02*
D03*
Y177000D02*
D03*
D54*
X-192000Y52000D02*
D03*
Y71000D02*
D03*
X21999Y-62499D02*
D03*
Y-81499D02*
D03*
X88001Y-24501D02*
D03*
Y-43501D02*
D03*
X135999Y118501D02*
D03*
Y137501D02*
D03*
X158001Y137499D02*
D03*
Y118499D02*
D03*
X66000Y-114000D02*
D03*
Y-95000D02*
D03*
X-63999Y195499D02*
D03*
Y176499D02*
D03*
X235001Y83499D02*
D03*
X213999Y83501D02*
D03*
Y64501D02*
D03*
X235001Y64499D02*
D03*
X109001Y15499D02*
D03*
Y-3501D02*
D03*
X88001Y15499D02*
D03*
Y-3501D02*
D03*
X106001Y178499D02*
D03*
Y159499D02*
D03*
D55*
X-229435Y28219D02*
D03*
X-209235Y18719D02*
D03*
Y37719D02*
D03*
X-229435Y62219D02*
D03*
X-209235Y52719D02*
D03*
Y71719D02*
D03*
D56*
X36999Y50999D02*
D03*
X16999D02*
D03*
X-211001Y-76001D02*
D03*
X-231001D02*
D03*
X128999Y-103001D02*
D03*
X108999D02*
D03*
X37001Y-8999D02*
D03*
X17001D02*
D03*
X37001Y10001D02*
D03*
X17001D02*
D03*
X152001Y16001D02*
D03*
X132001D02*
D03*
X-41999Y67001D02*
D03*
X-21999D02*
D03*
X-231001Y-148001D02*
D03*
X-211001D02*
D03*
X-99999Y-55999D02*
D03*
X-119999D02*
D03*
X-99999Y-74999D02*
D03*
X-119999D02*
D03*
X-99999Y-36999D02*
D03*
X-119999D02*
D03*
X-45001Y-109001D02*
D03*
X-25001D02*
D03*
X-45001Y-90001D02*
D03*
X-25001D02*
D03*
X117001Y-67999D02*
D03*
X137001D02*
D03*
X132001Y35001D02*
D03*
X152001D02*
D03*
D57*
X236100Y-77000D02*
D03*
X162440D02*
D03*
X236100Y-130000D02*
D03*
X162440D02*
D03*
D58*
X132500Y-25000D02*
D03*
X151500D02*
D03*
Y-49000D02*
D03*
X142000D02*
D03*
X132500D02*
D03*
D59*
X156000Y162000D02*
D03*
X124500Y162000D02*
D03*
D60*
X61000Y58000D02*
D03*
X79000D02*
D03*
X99000D02*
D03*
X117000D02*
D03*
X83000Y199000D02*
D03*
X65000D02*
D03*
D61*
X134500Y206000D02*
D03*
X144000Y181000D02*
D03*
X125000D02*
D03*
D62*
X-57000Y106500D02*
D03*
Y97000D02*
D03*
Y87500D02*
D03*
X-33000D02*
D03*
Y97000D02*
D03*
Y106500D02*
D03*
D63*
X-3000Y85000D02*
D03*
X6500D02*
D03*
X-12500D02*
D03*
Y109000D02*
D03*
X6500D02*
D03*
X-3000D02*
D03*
D64*
X-65500Y-98000D02*
D03*
X-82500D02*
D03*
X-65500Y-146000D02*
D03*
X-82500D02*
D03*
D65*
X-66000Y-130500D02*
D03*
Y-113500D02*
D03*
D66*
X116000Y78500D02*
D03*
Y97500D02*
D03*
X140000D02*
D03*
Y88000D02*
D03*
Y78500D02*
D03*
D67*
X17976Y-206254D02*
D03*
X-33024D02*
D03*
D68*
X-151750Y148750D02*
D03*
X-141750D02*
D03*
X-146750D02*
D03*
X-136750D02*
D03*
Y108250D02*
D03*
X-131750D02*
D03*
X-146750D02*
D03*
X-151750D02*
D03*
X-141750D02*
D03*
X-126750Y148750D02*
D03*
X-131750D02*
D03*
X-126750Y108250D02*
D03*
D69*
X-159500Y141000D02*
D03*
Y131000D02*
D03*
Y126000D02*
D03*
Y136000D02*
D03*
Y121000D02*
D03*
Y116000D02*
D03*
X-119000Y141000D02*
D03*
Y131000D02*
D03*
Y126000D02*
D03*
Y136000D02*
D03*
Y121000D02*
D03*
Y116000D02*
D03*
D70*
X-139250Y128500D02*
D03*
D71*
X17498Y153154D02*
D03*
X12498D02*
D03*
X7498D02*
D03*
X-17502D02*
D03*
X-12502D02*
D03*
X-7502D02*
D03*
X2498D02*
D03*
X-2502D02*
D03*
D72*
X-24002D02*
D03*
X23998D02*
D03*
X-32002D02*
D03*
X31998D02*
D03*
D73*
X182000Y142750D02*
D03*
Y111250D02*
D03*
D74*
X208110Y-24999D02*
D03*
X225890D02*
D03*
X225890Y15001D02*
D03*
X208110D02*
D03*
D75*
X35000Y-135000D02*
D03*
X25500Y-155200D02*
D03*
X44500D02*
D03*
D76*
X-97000Y120500D02*
D03*
X36560Y94690D02*
D03*
D77*
X-97000Y133000D02*
D03*
Y145500D02*
D03*
X36560Y82190D02*
D03*
X-27660Y33400D02*
D03*
X-92140Y93400D02*
D03*
D78*
X-213000Y-43000D02*
D03*
X189000Y38000D02*
D03*
X-17000Y202000D02*
D03*
X-150000Y-158000D02*
D03*
D79*
X220000Y195000D02*
D03*
X-220000D02*
D03*
X220000Y-195000D02*
D03*
X-220000D02*
D03*
D80*
X-15160Y33400D02*
D03*
X-79640Y93400D02*
D03*
D81*
X28898Y163904D02*
D03*
X-28902D02*
D03*
D82*
X-43202Y158904D02*
D03*
X43200D02*
D03*
D83*
X-43202Y200704D02*
D03*
X43198D02*
D03*
D84*
X210000Y115300D02*
D03*
D85*
Y140700D02*
D03*
D86*
X-64500Y-44634D02*
D03*
Y-22634D02*
D03*
Y-33634D02*
D03*
X-20500Y-44634D02*
D03*
Y-22634D02*
D03*
Y-33634D02*
D03*
X-31500Y-55634D02*
D03*
Y-44634D02*
D03*
Y-11634D02*
D03*
Y-22634D02*
D03*
Y-33634D02*
D03*
X-53500Y-55634D02*
D03*
Y-44634D02*
D03*
Y-11634D02*
D03*
Y-22634D02*
D03*
Y-33634D02*
D03*
X-42500Y-55634D02*
D03*
Y-44634D02*
D03*
Y-11634D02*
D03*
Y-22634D02*
D03*
Y-33634D02*
D03*
D87*
X-145250Y134500D02*
D03*
Y122500D02*
D03*
X-133250Y134500D02*
D03*
Y122500D02*
D03*
M02*
