G04*
G04 #@! TF.GenerationSoftware,Altium Limited,Altium Designer,22.7.1 (60)*
G04*
G04 Layer_Color=16711935*
%FSLAX44Y44*%
%MOMM*%
G71*
G04*
G04 #@! TF.SameCoordinates,4EDC8D64-7802-4C18-8A36-DA98FD6AFE69*
G04*
G04*
G04 #@! TF.FilePolarity,Negative*
G04*
G01*
G75*
%ADD76R,1.1016X1.1016*%
%ADD77C,1.1016*%
%ADD78C,3.0000*%
%ADD79C,0.2032*%
%ADD80R,1.1016X1.1016*%
%ADD81C,0.8532*%
%ADD82O,1.2532X2.3032*%
%ADD83O,1.2032X2.2032*%
%ADD84C,1.8032*%
%ADD85R,1.8032X1.8032*%
%ADD86C,0.8632*%
%ADD87C,0.8032*%
%ADD115R,1.3000X1.5500*%
%ADD117R,1.7032X1.1032*%
D76*
X-97000Y120500D02*
D03*
X36560Y94690D02*
D03*
D77*
X-97000Y133000D02*
D03*
Y145500D02*
D03*
X36560Y82190D02*
D03*
X-27660Y33400D02*
D03*
X-92140Y93400D02*
D03*
D78*
X-213000Y-43000D02*
D03*
X189000Y38000D02*
D03*
X-17000Y202000D02*
D03*
X-150000Y-158000D02*
D03*
D79*
X220000Y195000D02*
D03*
X-220000D02*
D03*
X220000Y-195000D02*
D03*
X-220000D02*
D03*
D80*
X-15160Y33400D02*
D03*
X-79640Y93400D02*
D03*
D81*
X28898Y163904D02*
D03*
X-28902D02*
D03*
D82*
X-43202Y158904D02*
D03*
X43200D02*
D03*
D83*
X-43202Y200704D02*
D03*
X43198D02*
D03*
D84*
X210000Y115300D02*
D03*
D85*
Y140700D02*
D03*
D86*
X-64500Y-44634D02*
D03*
Y-22634D02*
D03*
Y-33634D02*
D03*
X-20500Y-44634D02*
D03*
Y-22634D02*
D03*
Y-33634D02*
D03*
X-31500Y-55634D02*
D03*
Y-44634D02*
D03*
Y-11634D02*
D03*
Y-22634D02*
D03*
Y-33634D02*
D03*
X-53500Y-55634D02*
D03*
Y-44634D02*
D03*
Y-11634D02*
D03*
Y-22634D02*
D03*
Y-33634D02*
D03*
X-42500Y-55634D02*
D03*
Y-44634D02*
D03*
Y-11634D02*
D03*
Y-22634D02*
D03*
Y-33634D02*
D03*
D87*
X-145250Y134500D02*
D03*
Y122500D02*
D03*
X-133250Y134500D02*
D03*
Y122500D02*
D03*
D115*
X-117500Y-39750D02*
D03*
Y39750D02*
D03*
X-162500Y-39750D02*
D03*
Y39750D02*
D03*
X117500Y189750D02*
D03*
Y110250D02*
D03*
X162500Y189750D02*
D03*
Y110250D02*
D03*
X117500Y-110250D02*
D03*
Y-189750D02*
D03*
X162500Y-110250D02*
D03*
Y-189750D02*
D03*
X-162500Y179750D02*
D03*
Y100250D02*
D03*
X-117500Y179750D02*
D03*
Y100250D02*
D03*
X162500Y-39750D02*
D03*
Y39750D02*
D03*
X117500Y-39750D02*
D03*
Y39750D02*
D03*
X-162500Y-110250D02*
D03*
Y-189750D02*
D03*
X-117500Y-110250D02*
D03*
Y-189750D02*
D03*
D117*
X-24500Y-156500D02*
D03*
Y-123500D02*
D03*
X24500Y-156500D02*
D03*
Y-123500D02*
D03*
M02*
