G04*
G04 #@! TF.GenerationSoftware,Altium Limited,Altium Designer,22.7.1 (60)*
G04*
G04 Layer_Color=32896*
%FSLAX44Y44*%
%MOMM*%
G71*
G04*
G04 #@! TF.SameCoordinates,4EDC8D64-7802-4C18-8A36-DA98FD6AFE69*
G04*
G04*
G04 #@! TF.FilePolarity,Positive*
G04*
G01*
G75*
%ADD10C,0.2500*%
%ADD11C,0.2000*%
%ADD14C,0.1270*%
G36*
X-210965Y113922D02*
X-211795D01*
Y114026D01*
X-210965D01*
Y113922D01*
D02*
G37*
G36*
X-210862Y111849D02*
X-212417D01*
Y111952D01*
X-210862D01*
Y111849D01*
D02*
G37*
G36*
X-224339Y110708D02*
X-224235D01*
Y110604D01*
X-224028D01*
Y110501D01*
X-223717D01*
Y110397D01*
X-223613D01*
Y110501D01*
X-223406D01*
Y110397D01*
X-222992D01*
Y110190D01*
X-222888D01*
Y110294D01*
X-222680D01*
Y110190D01*
X-222473D01*
Y110086D01*
X-222369D01*
Y109983D01*
X-222266D01*
Y110294D01*
X-222162D01*
Y110190D01*
X-222058D01*
Y110086D01*
X-222162D01*
Y109879D01*
X-222058D01*
Y109983D01*
X-221955D01*
Y109879D01*
X-221851D01*
Y109671D01*
X-221747D01*
Y109568D01*
X-221644D01*
Y109464D01*
X-221540D01*
Y109568D01*
X-221644D01*
Y109671D01*
X-221540D01*
Y109775D01*
X-221644D01*
Y109879D01*
X-221436D01*
Y109568D01*
X-221333D01*
Y109464D01*
X-221436D01*
Y109360D01*
X-221333D01*
Y109257D01*
X-221229D01*
Y109360D01*
X-221125D01*
Y109257D01*
X-221022D01*
Y109153D01*
X-220918D01*
Y108946D01*
X-220814D01*
Y109049D01*
X-220711D01*
Y108946D01*
X-220607D01*
Y108842D01*
X-220503D01*
Y108427D01*
X-220400D01*
Y108531D01*
X-220296D01*
Y108324D01*
X-220400D01*
Y108220D01*
X-220192D01*
Y108116D01*
X-219985D01*
Y108013D01*
X-219674D01*
Y107805D01*
X-219778D01*
Y107598D01*
X-219881D01*
Y107494D01*
X-219674D01*
Y107287D01*
X-219466D01*
Y107183D01*
X-219674D01*
Y107080D01*
X-219570D01*
Y106976D01*
X-219156D01*
Y106872D01*
X-219363D01*
Y106665D01*
X-219466D01*
Y106561D01*
X-219259D01*
Y106458D01*
X-219156D01*
Y106250D01*
X-218948D01*
Y105939D01*
X-219156D01*
Y105732D01*
X-219052D01*
Y105421D01*
X-218948D01*
Y105213D01*
X-218845D01*
Y104799D01*
X-218741D01*
Y104695D01*
X-218533D01*
Y104280D01*
X-218637D01*
Y104591D01*
X-218845D01*
Y104384D01*
X-218741D01*
Y104177D01*
X-218845D01*
Y103969D01*
X-218741D01*
Y101896D01*
X-218845D01*
Y101377D01*
X-218741D01*
Y101170D01*
X-218637D01*
Y101067D01*
X-218845D01*
Y100756D01*
X-218948D01*
Y100237D01*
X-219052D01*
Y100133D01*
X-219156D01*
Y99926D01*
X-218948D01*
Y99822D01*
X-219052D01*
Y99719D01*
X-219259D01*
Y99511D01*
X-219363D01*
Y99304D01*
X-219259D01*
Y99200D01*
X-219363D01*
Y98993D01*
X-219259D01*
Y98682D01*
X-219363D01*
Y98475D01*
X-219466D01*
Y98682D01*
X-219570D01*
Y98578D01*
X-219674D01*
Y98475D01*
X-219778D01*
Y98371D01*
X-219881D01*
Y98267D01*
X-219778D01*
Y98060D01*
X-219881D01*
Y97956D01*
X-220089D01*
Y97749D01*
X-220296D01*
Y97645D01*
X-220400D01*
Y97542D01*
X-220503D01*
Y97438D01*
X-220296D01*
Y97334D01*
X-220400D01*
Y97231D01*
X-220503D01*
Y97127D01*
X-220607D01*
Y97231D01*
X-220711D01*
Y97127D01*
X-220607D01*
Y96919D01*
X-220918D01*
Y96608D01*
X-220814D01*
Y96505D01*
X-221022D01*
Y96608D01*
X-221229D01*
Y96401D01*
X-221540D01*
Y96194D01*
X-221644D01*
Y96090D01*
X-221747D01*
Y96298D01*
X-221851D01*
Y95986D01*
X-221955D01*
Y96090D01*
X-222058D01*
Y95883D01*
X-222473D01*
Y95779D01*
X-222577D01*
Y95572D01*
X-222680D01*
Y95675D01*
X-222784D01*
Y95572D01*
X-222888D01*
Y95675D01*
X-222992D01*
Y95364D01*
X-223095D01*
Y95468D01*
X-223199D01*
Y95572D01*
X-223302D01*
Y95468D01*
X-223406D01*
Y95364D01*
X-223717D01*
Y95261D01*
X-223925D01*
Y95364D01*
X-224028D01*
Y95261D01*
X-224443D01*
Y95157D01*
X-224339D01*
Y95053D01*
X-224754D01*
Y95157D01*
X-224961D01*
Y95053D01*
X-225791D01*
Y95157D01*
X-225894D01*
Y95053D01*
X-226102D01*
Y95157D01*
X-225998D01*
Y95261D01*
X-226516D01*
Y95364D01*
X-226620D01*
Y95157D01*
X-226827D01*
Y95261D01*
X-226724D01*
Y95364D01*
X-227035D01*
Y95572D01*
X-227138D01*
Y95468D01*
X-227346D01*
Y99615D01*
X-227242D01*
Y99408D01*
X-227138D01*
Y99304D01*
X-227035D01*
Y99408D01*
X-226931D01*
Y99304D01*
X-226827D01*
Y99408D01*
X-226724D01*
Y99511D01*
X-226102D01*
Y99408D01*
X-226620D01*
Y99304D01*
X-226413D01*
Y99200D01*
X-226309D01*
Y99304D01*
X-226102D01*
Y99200D01*
X-224339D01*
Y99304D01*
X-224443D01*
Y99408D01*
X-224339D01*
Y99511D01*
X-223821D01*
Y99408D01*
X-224235D01*
Y99304D01*
X-223717D01*
Y99408D01*
X-223613D01*
Y99304D01*
X-223510D01*
Y99408D01*
X-223406D01*
Y99511D01*
X-223302D01*
Y99408D01*
X-223199D01*
Y99615D01*
X-222992D01*
Y99719D01*
X-222888D01*
Y99822D01*
X-222680D01*
Y99926D01*
X-222577D01*
Y99719D01*
X-222473D01*
Y99926D01*
X-222577D01*
Y100030D01*
X-222369D01*
Y100133D01*
X-222162D01*
Y100030D01*
X-222058D01*
Y100237D01*
X-222162D01*
Y100341D01*
X-222058D01*
Y100444D01*
X-221955D01*
Y100341D01*
X-221747D01*
Y100444D01*
X-221851D01*
Y100548D01*
X-221747D01*
Y100859D01*
X-221644D01*
Y100756D01*
X-221540D01*
Y100963D01*
X-221436D01*
Y101481D01*
X-221333D01*
Y101377D01*
X-221229D01*
Y101481D01*
X-221333D01*
Y101688D01*
X-221229D01*
Y102000D01*
X-221125D01*
Y102518D01*
X-221229D01*
Y102622D01*
X-221333D01*
Y102933D01*
X-221229D01*
Y102725D01*
X-221125D01*
Y103140D01*
X-221229D01*
Y103347D01*
X-221022D01*
Y103451D01*
X-221229D01*
Y103555D01*
X-221022D01*
Y103658D01*
X-221125D01*
Y103866D01*
X-221229D01*
Y104177D01*
X-221333D01*
Y104488D01*
X-221436D01*
Y104695D01*
X-221540D01*
Y104799D01*
X-221436D01*
Y104902D01*
X-221644D01*
Y105006D01*
X-221747D01*
Y105110D01*
X-221955D01*
Y105213D01*
X-221851D01*
Y105317D01*
X-221955D01*
Y105421D01*
X-222058D01*
Y105628D01*
X-221955D01*
Y105732D01*
X-222058D01*
Y105836D01*
X-222266D01*
Y105732D01*
X-222369D01*
Y105836D01*
X-222577D01*
Y105939D01*
X-222369D01*
Y106043D01*
X-222577D01*
Y106146D01*
X-222680D01*
Y106043D01*
X-222784D01*
Y106146D01*
X-222992D01*
Y106043D01*
X-223095D01*
Y106250D01*
X-223199D01*
Y106354D01*
X-223406D01*
Y106458D01*
X-223717D01*
Y106561D01*
X-223821D01*
Y106665D01*
X-223925D01*
Y106354D01*
X-224028D01*
Y106458D01*
X-224132D01*
Y106561D01*
X-224235D01*
Y106458D01*
X-224339D01*
Y106561D01*
X-224443D01*
Y106665D01*
X-226102D01*
Y106561D01*
X-225894D01*
Y106458D01*
X-226205D01*
Y106354D01*
X-226309D01*
Y106561D01*
X-226724D01*
Y106458D01*
X-226827D01*
Y106561D01*
X-226931D01*
Y106458D01*
X-227035D01*
Y106354D01*
X-227346D01*
Y110397D01*
X-227035D01*
Y110501D01*
X-226620D01*
Y110604D01*
X-226102D01*
Y110708D01*
X-225998D01*
Y110604D01*
X-225894D01*
Y110708D01*
X-225791D01*
Y110812D01*
X-225687D01*
Y110915D01*
X-225272D01*
Y110812D01*
X-225169D01*
Y110708D01*
X-225065D01*
Y110812D01*
X-224961D01*
Y110915D01*
X-224754D01*
Y110812D01*
X-224547D01*
Y110915D01*
X-224339D01*
Y110708D01*
D02*
G37*
G36*
X-208995Y106146D02*
X-209099D01*
Y106043D01*
X-209203D01*
Y105732D01*
X-209307D01*
Y105628D01*
X-209514D01*
Y105732D01*
X-209618D01*
Y105628D01*
X-209514D01*
Y105421D01*
X-209618D01*
Y105317D01*
X-209721D01*
Y105213D01*
X-209825D01*
Y105317D01*
X-209928D01*
Y105213D01*
X-209825D01*
Y105110D01*
X-209928D01*
Y104902D01*
X-209825D01*
Y104591D01*
X-209928D01*
Y104799D01*
X-210136D01*
Y104384D01*
X-210240D01*
Y104488D01*
X-210343D01*
Y104280D01*
X-210240D01*
Y104177D01*
X-210136D01*
Y104073D01*
X-210240D01*
Y103969D01*
X-210343D01*
Y103762D01*
X-210447D01*
Y103658D01*
X-210343D01*
Y103451D01*
X-210447D01*
Y102311D01*
X-210343D01*
Y102207D01*
X-210447D01*
Y102103D01*
X-210343D01*
Y101688D01*
X-210240D01*
Y101377D01*
X-210136D01*
Y101274D01*
X-210032D01*
Y101170D01*
X-210136D01*
Y100963D01*
X-210032D01*
Y101067D01*
X-209928D01*
Y100859D01*
X-209825D01*
Y100652D01*
X-209618D01*
Y100548D01*
X-209721D01*
Y100341D01*
X-209618D01*
Y100444D01*
X-209514D01*
Y100341D01*
X-209410D01*
Y100237D01*
X-209307D01*
Y100030D01*
X-209203D01*
Y100237D01*
X-209099D01*
Y99926D01*
X-208995D01*
Y99822D01*
X-209099D01*
Y99719D01*
X-208995D01*
Y95675D01*
X-209099D01*
Y95779D01*
X-209307D01*
Y95883D01*
X-209203D01*
Y95986D01*
X-209410D01*
Y95883D01*
X-209618D01*
Y95986D01*
X-209721D01*
Y96090D01*
X-209825D01*
Y96194D01*
X-210032D01*
Y96298D01*
X-210136D01*
Y96194D01*
X-210032D01*
Y96090D01*
X-210240D01*
Y96194D01*
X-210343D01*
Y96298D01*
X-210240D01*
Y96712D01*
X-210343D01*
Y96505D01*
X-210447D01*
Y96712D01*
X-210551D01*
Y97023D01*
X-210654D01*
Y96919D01*
X-210862D01*
Y96712D01*
X-210965D01*
Y96816D01*
X-211069D01*
Y97023D01*
X-210965D01*
Y97127D01*
X-211069D01*
Y97231D01*
X-211173D01*
Y97334D01*
X-211276D01*
Y97438D01*
X-211380D01*
Y97334D01*
X-211484D01*
Y97542D01*
X-211173D01*
Y97749D01*
X-211276D01*
Y97645D01*
X-211484D01*
Y97853D01*
X-211380D01*
Y97956D01*
X-211587D01*
Y98060D01*
X-211691D01*
Y98164D01*
X-211795D01*
Y98267D01*
X-211898D01*
Y98371D01*
X-211795D01*
Y98475D01*
X-212106D01*
Y98578D01*
X-212002D01*
Y98786D01*
X-211898D01*
Y98889D01*
X-212002D01*
Y98993D01*
X-212106D01*
Y99097D01*
X-212209D01*
Y99200D01*
X-212313D01*
Y99408D01*
X-212209D01*
Y99511D01*
X-212313D01*
Y99615D01*
X-212209D01*
Y99719D01*
X-212417D01*
Y100030D01*
X-212520D01*
Y100133D01*
X-212417D01*
Y100237D01*
X-212520D01*
Y100341D01*
X-212624D01*
Y100652D01*
X-212831D01*
Y100756D01*
X-212624D01*
Y100859D01*
X-212831D01*
Y100963D01*
X-212728D01*
Y101067D01*
X-212624D01*
Y101170D01*
X-212728D01*
Y101274D01*
X-212624D01*
Y101377D01*
X-212728D01*
Y101688D01*
X-212831D01*
Y101792D01*
X-212728D01*
Y101896D01*
X-212831D01*
Y103969D01*
X-212728D01*
Y104073D01*
X-212831D01*
Y104177D01*
X-212728D01*
Y104695D01*
X-212624D01*
Y104799D01*
X-212728D01*
Y104902D01*
X-212831D01*
Y105213D01*
X-212624D01*
Y105421D01*
X-212520D01*
Y105628D01*
X-212417D01*
Y105836D01*
X-212520D01*
Y105939D01*
X-212417D01*
Y106250D01*
X-212520D01*
Y106458D01*
X-212313D01*
Y106250D01*
X-212209D01*
Y106458D01*
X-212313D01*
Y106561D01*
X-212520D01*
Y106665D01*
X-212417D01*
Y106769D01*
X-212313D01*
Y106665D01*
X-212209D01*
Y106561D01*
X-212106D01*
Y106665D01*
X-212209D01*
Y106872D01*
X-212106D01*
Y107080D01*
X-212002D01*
Y106976D01*
X-211898D01*
Y107080D01*
X-212002D01*
Y107183D01*
X-211898D01*
Y107287D01*
X-212106D01*
Y107391D01*
X-211898D01*
Y107598D01*
X-211795D01*
Y107702D01*
X-211691D01*
Y108013D01*
X-211587D01*
Y108116D01*
X-211484D01*
Y108220D01*
X-211380D01*
Y108116D01*
X-211276D01*
Y108324D01*
X-211380D01*
Y108427D01*
X-211276D01*
Y108531D01*
X-211069D01*
Y108738D01*
X-210965D01*
Y108946D01*
X-210758D01*
Y108842D01*
X-210654D01*
Y108946D01*
X-210758D01*
Y109049D01*
X-210654D01*
Y109153D01*
X-210758D01*
Y109257D01*
X-210654D01*
Y109464D01*
X-210551D01*
Y109257D01*
X-210447D01*
Y109360D01*
X-210343D01*
Y109257D01*
X-210240D01*
Y109360D01*
X-210343D01*
Y109464D01*
X-210240D01*
Y109568D01*
X-209825D01*
Y109671D01*
X-209928D01*
Y109775D01*
X-209721D01*
Y109879D01*
X-209618D01*
Y109983D01*
X-208995D01*
Y106146D01*
D02*
G37*
G36*
X-221747Y94120D02*
X-221644D01*
Y94017D01*
X-221747D01*
Y93913D01*
X-221436D01*
Y93809D01*
X-221540D01*
Y93706D01*
X-221333D01*
Y93809D01*
X-221229D01*
Y93706D01*
X-221125D01*
Y93809D01*
X-221229D01*
Y93913D01*
X-220918D01*
Y93809D01*
X-221022D01*
Y93602D01*
X-220814D01*
Y93498D01*
X-220607D01*
Y93395D01*
X-220503D01*
Y93291D01*
X-220607D01*
Y93084D01*
X-220503D01*
Y92980D01*
X-220296D01*
Y92876D01*
X-220192D01*
Y92980D01*
X-220089D01*
Y92876D01*
X-219985D01*
Y92773D01*
X-219881D01*
Y92669D01*
X-219674D01*
Y92565D01*
X-219881D01*
Y92462D01*
X-219674D01*
Y92358D01*
X-219778D01*
Y92254D01*
X-219570D01*
Y92150D01*
X-219466D01*
Y92047D01*
X-219674D01*
Y91943D01*
X-219466D01*
Y91736D01*
X-219363D01*
Y91632D01*
X-219466D01*
Y91529D01*
X-219363D01*
Y91217D01*
X-219259D01*
Y91321D01*
X-219156D01*
Y91114D01*
X-218948D01*
Y90906D01*
X-219156D01*
Y90803D01*
X-219052D01*
Y90699D01*
X-219156D01*
Y90595D01*
X-218948D01*
Y90284D01*
X-219052D01*
Y90181D01*
X-218948D01*
Y90077D01*
X-218845D01*
Y89662D01*
X-218741D01*
Y89455D01*
X-218845D01*
Y89351D01*
X-218637D01*
Y89559D01*
X-218533D01*
Y89248D01*
X-218741D01*
Y86552D01*
X-218637D01*
Y86448D01*
X-218741D01*
Y86034D01*
X-218637D01*
Y85930D01*
X-218533D01*
Y85826D01*
X-218741D01*
Y85930D01*
X-218845D01*
Y85826D01*
X-218741D01*
Y85723D01*
X-218533D01*
Y85515D01*
X-218637D01*
Y85619D01*
X-218741D01*
Y85412D01*
X-218845D01*
Y85101D01*
X-218948D01*
Y84997D01*
X-218845D01*
Y84893D01*
X-218948D01*
Y84790D01*
X-219052D01*
Y84582D01*
X-218948D01*
Y84479D01*
X-219052D01*
Y84168D01*
X-219156D01*
Y83546D01*
X-219363D01*
Y83442D01*
X-219259D01*
Y83235D01*
X-219466D01*
Y83131D01*
X-219363D01*
Y82924D01*
X-219570D01*
Y82820D01*
X-219259D01*
Y82716D01*
X-219363D01*
Y82509D01*
X-219466D01*
Y82612D01*
X-219570D01*
Y82509D01*
X-219674D01*
Y82612D01*
X-219778D01*
Y82405D01*
X-219674D01*
Y82302D01*
X-219881D01*
Y82198D01*
X-219778D01*
Y82094D01*
X-219674D01*
Y81990D01*
X-219881D01*
Y81783D01*
X-219985D01*
Y81887D01*
X-220089D01*
Y81576D01*
X-220192D01*
Y81472D01*
X-220400D01*
Y81265D01*
X-220503D01*
Y81161D01*
X-220607D01*
Y81057D01*
X-220503D01*
Y80850D01*
X-220711D01*
Y80643D01*
X-220814D01*
Y80850D01*
X-220918D01*
Y80643D01*
X-221022D01*
Y80539D01*
X-221125D01*
Y80435D01*
X-221229D01*
Y80332D01*
X-221125D01*
Y80228D01*
X-221229D01*
Y80124D01*
X-221436D01*
Y80228D01*
X-221540D01*
Y80435D01*
X-221644D01*
Y80643D01*
X-221747D01*
Y80746D01*
X-221851D01*
Y80954D01*
X-221955D01*
Y81161D01*
X-222058D01*
Y81057D01*
X-222162D01*
Y81161D01*
X-222266D01*
Y81265D01*
X-222369D01*
Y81368D01*
X-222577D01*
Y81472D01*
X-222369D01*
Y81679D01*
X-222680D01*
Y81783D01*
X-222784D01*
Y81887D01*
X-222888D01*
Y82302D01*
X-222784D01*
Y82198D01*
X-222680D01*
Y82509D01*
X-222577D01*
Y82405D01*
X-222473D01*
Y82509D01*
X-222577D01*
Y82716D01*
X-222162D01*
Y83027D01*
X-222058D01*
Y83131D01*
X-221955D01*
Y83338D01*
X-222058D01*
Y83442D01*
X-221955D01*
Y83546D01*
X-221851D01*
Y83442D01*
X-221747D01*
Y83857D01*
X-221644D01*
Y83960D01*
X-221540D01*
Y84064D01*
X-221644D01*
Y84168D01*
X-221540D01*
Y84271D01*
X-221436D01*
Y84375D01*
X-221540D01*
Y84582D01*
X-221436D01*
Y84479D01*
X-221333D01*
Y84582D01*
X-221436D01*
Y84893D01*
X-221333D01*
Y85204D01*
X-221229D01*
Y85308D01*
X-221125D01*
Y85412D01*
X-221229D01*
Y85515D01*
X-221125D01*
Y85826D01*
X-221022D01*
Y86552D01*
X-221125D01*
Y86656D01*
X-221022D01*
Y88833D01*
X-221125D01*
Y88729D01*
X-221229D01*
Y89144D01*
X-221333D01*
Y89248D01*
X-221125D01*
Y89144D01*
X-221022D01*
Y89455D01*
X-221229D01*
Y89351D01*
X-221333D01*
Y89559D01*
X-221125D01*
Y89766D01*
X-221333D01*
Y89973D01*
X-221436D01*
Y90077D01*
X-221540D01*
Y90284D01*
X-221644D01*
Y90492D01*
X-221747D01*
Y90595D01*
X-222162D01*
Y90492D01*
X-222266D01*
Y90699D01*
X-222577D01*
Y90595D01*
X-222680D01*
Y90699D01*
X-222784D01*
Y90595D01*
X-222992D01*
Y90699D01*
X-223095D01*
Y90595D01*
X-222992D01*
Y90492D01*
X-223095D01*
Y90388D01*
X-223406D01*
Y90284D01*
X-223302D01*
Y90181D01*
X-223406D01*
Y89973D01*
X-223510D01*
Y90077D01*
X-223613D01*
Y89870D01*
X-223510D01*
Y89766D01*
X-223717D01*
Y89559D01*
X-223510D01*
Y89455D01*
X-223613D01*
Y89248D01*
X-223717D01*
Y88833D01*
X-223821D01*
Y88004D01*
X-223717D01*
Y87692D01*
X-223821D01*
Y87900D01*
X-223925D01*
Y87692D01*
X-224028D01*
Y87589D01*
X-223925D01*
Y87381D01*
X-224028D01*
Y86345D01*
X-224132D01*
Y85308D01*
X-224235D01*
Y84997D01*
X-224339D01*
Y84271D01*
X-224443D01*
Y83857D01*
X-224547D01*
Y83753D01*
X-224443D01*
Y83649D01*
X-224650D01*
Y83546D01*
X-224547D01*
Y83442D01*
X-224650D01*
Y83235D01*
X-224754D01*
Y83027D01*
X-224650D01*
Y83131D01*
X-224547D01*
Y82924D01*
X-224754D01*
Y82820D01*
X-224961D01*
Y82716D01*
X-224858D01*
Y82509D01*
X-224961D01*
Y82612D01*
X-225065D01*
Y82094D01*
X-225169D01*
Y81990D01*
X-225272D01*
Y82094D01*
X-225480D01*
Y81679D01*
X-225583D01*
Y81576D01*
X-225687D01*
Y81472D01*
X-225791D01*
Y81576D01*
X-225894D01*
Y81265D01*
X-226102D01*
Y81161D01*
X-226205D01*
Y81265D01*
X-226309D01*
Y81161D01*
X-226205D01*
Y81057D01*
X-226620D01*
Y80954D01*
X-227035D01*
Y80850D01*
X-227138D01*
Y80954D01*
X-227242D01*
Y80850D01*
X-227346D01*
Y84479D01*
X-227138D01*
Y84582D01*
X-227346D01*
Y84686D01*
X-227242D01*
Y84790D01*
X-227035D01*
Y84997D01*
X-227242D01*
Y85204D01*
X-227138D01*
Y85101D01*
X-227035D01*
Y85204D01*
X-227138D01*
Y85308D01*
X-226931D01*
Y85619D01*
X-226827D01*
Y86137D01*
X-226931D01*
Y86345D01*
X-226827D01*
Y86241D01*
X-226724D01*
Y86656D01*
X-226620D01*
Y86863D01*
X-226827D01*
Y86552D01*
X-226931D01*
Y87071D01*
X-226620D01*
Y87381D01*
X-226724D01*
Y87485D01*
X-226620D01*
Y88004D01*
X-226516D01*
Y88626D01*
X-226413D01*
Y88729D01*
X-226516D01*
Y88833D01*
X-226620D01*
Y88729D01*
X-226724D01*
Y88937D01*
X-226620D01*
Y89766D01*
X-226413D01*
Y89662D01*
X-226516D01*
Y88937D01*
X-226413D01*
Y89559D01*
X-226309D01*
Y89766D01*
X-226413D01*
Y89870D01*
X-226516D01*
Y89973D01*
X-226309D01*
Y90181D01*
X-226516D01*
Y90284D01*
X-226413D01*
Y90388D01*
X-226309D01*
Y90595D01*
X-226205D01*
Y91114D01*
X-226102D01*
Y91217D01*
X-225998D01*
Y91321D01*
X-226102D01*
Y91425D01*
X-226205D01*
Y91529D01*
X-225998D01*
Y91840D01*
X-225894D01*
Y91943D01*
X-225791D01*
Y92254D01*
X-225687D01*
Y92150D01*
X-225583D01*
Y92254D01*
X-225687D01*
Y92462D01*
X-225480D01*
Y92565D01*
X-225583D01*
Y92669D01*
X-225480D01*
Y92876D01*
X-225376D01*
Y92980D01*
X-225272D01*
Y93187D01*
X-225169D01*
Y93084D01*
X-225065D01*
Y93187D01*
X-224961D01*
Y93291D01*
X-224754D01*
Y93395D01*
X-224961D01*
Y93498D01*
X-224754D01*
Y93602D01*
X-224650D01*
Y93706D01*
X-224339D01*
Y93809D01*
X-224235D01*
Y93706D01*
X-224132D01*
Y93809D01*
X-224028D01*
Y93913D01*
X-223821D01*
Y94017D01*
X-223406D01*
Y94120D01*
X-223302D01*
Y94017D01*
X-223199D01*
Y94120D01*
X-223095D01*
Y94224D01*
X-222266D01*
Y94120D01*
X-222577D01*
Y94017D01*
X-221955D01*
Y93913D01*
X-221851D01*
Y94120D01*
X-221955D01*
Y94224D01*
X-221747D01*
Y94120D01*
D02*
G37*
G36*
X-211069Y93809D02*
X-210862D01*
Y93706D01*
X-210758D01*
Y93602D01*
X-210654D01*
Y93706D01*
X-210551D01*
Y93602D01*
X-210447D01*
Y93498D01*
X-210343D01*
Y93395D01*
X-210136D01*
Y93291D01*
X-210032D01*
Y93084D01*
X-210136D01*
Y93187D01*
X-210240D01*
Y93084D01*
X-210136D01*
Y92980D01*
X-210032D01*
Y92876D01*
X-209928D01*
Y92980D01*
X-209721D01*
Y92876D01*
X-209618D01*
Y92773D01*
X-209514D01*
Y92669D01*
X-209618D01*
Y92565D01*
X-209307D01*
Y92358D01*
X-209099D01*
Y92150D01*
X-209203D01*
Y92254D01*
X-209307D01*
Y92150D01*
X-209203D01*
Y91943D01*
X-209307D01*
Y91840D01*
X-209514D01*
Y91632D01*
X-209618D01*
Y91529D01*
X-209721D01*
Y91425D01*
X-209618D01*
Y91217D01*
X-209721D01*
Y91010D01*
X-209928D01*
Y90906D01*
X-209825D01*
Y90803D01*
X-209928D01*
Y90699D01*
X-210032D01*
Y90388D01*
X-210136D01*
Y90284D01*
X-210240D01*
Y90181D01*
X-210136D01*
Y90077D01*
X-210343D01*
Y89973D01*
X-210240D01*
Y89766D01*
X-210343D01*
Y89455D01*
X-210240D01*
Y89351D01*
X-210136D01*
Y89144D01*
X-210240D01*
Y88937D01*
X-210343D01*
Y89040D01*
X-210447D01*
Y88626D01*
X-210551D01*
Y88211D01*
X-210654D01*
Y87692D01*
X-210551D01*
Y87485D01*
X-210654D01*
Y86552D01*
X-210551D01*
Y87174D01*
X-210447D01*
Y86448D01*
X-210551D01*
Y86034D01*
X-210654D01*
Y85930D01*
X-210551D01*
Y85515D01*
X-210447D01*
Y85412D01*
X-210343D01*
Y85619D01*
X-210240D01*
Y85308D01*
X-210136D01*
Y85204D01*
X-210240D01*
Y85101D01*
X-210136D01*
Y84997D01*
X-210343D01*
Y84893D01*
X-210240D01*
Y84686D01*
X-210032D01*
Y84479D01*
X-209928D01*
Y84375D01*
X-209825D01*
Y84479D01*
X-209721D01*
Y84375D01*
X-209618D01*
Y84271D01*
X-208995D01*
Y80850D01*
X-209825D01*
Y81057D01*
X-210136D01*
Y80954D01*
X-210343D01*
Y81057D01*
X-210447D01*
Y80954D01*
X-210654D01*
Y81057D01*
X-210551D01*
Y81161D01*
X-210447D01*
Y81265D01*
X-210862D01*
Y81472D01*
X-211069D01*
Y81576D01*
X-210965D01*
Y81679D01*
X-211069D01*
Y81783D01*
X-211173D01*
Y81679D01*
X-211276D01*
Y81783D01*
X-211587D01*
Y81887D01*
X-211380D01*
Y82094D01*
X-211587D01*
Y82302D01*
X-211691D01*
Y82405D01*
X-211898D01*
Y82509D01*
X-212002D01*
Y82612D01*
X-212209D01*
Y82820D01*
X-212106D01*
Y82716D01*
X-212002D01*
Y82820D01*
X-212106D01*
Y82924D01*
X-212002D01*
Y83027D01*
X-212106D01*
Y83131D01*
X-212209D01*
Y83235D01*
X-212313D01*
Y83338D01*
X-212520D01*
Y83546D01*
X-212417D01*
Y83442D01*
X-212209D01*
Y83546D01*
X-212417D01*
Y84064D01*
X-212520D01*
Y84168D01*
X-212417D01*
Y84271D01*
X-212624D01*
Y83960D01*
X-212728D01*
Y84375D01*
X-212624D01*
Y84582D01*
X-212520D01*
Y84686D01*
X-212624D01*
Y84790D01*
X-212728D01*
Y84582D01*
X-212831D01*
Y84893D01*
X-212728D01*
Y84997D01*
X-212624D01*
Y85101D01*
X-212728D01*
Y85723D01*
X-212831D01*
Y85826D01*
X-212935D01*
Y85930D01*
X-212831D01*
Y86137D01*
X-212728D01*
Y86241D01*
X-212831D01*
Y88315D01*
X-212728D01*
Y88418D01*
X-212831D01*
Y88626D01*
X-212728D01*
Y88729D01*
X-212831D01*
Y88833D01*
X-212728D01*
Y89144D01*
X-212624D01*
Y89248D01*
X-212728D01*
Y89351D01*
X-212624D01*
Y89455D01*
X-212935D01*
Y89559D01*
X-212728D01*
Y89662D01*
X-212831D01*
Y89766D01*
X-212728D01*
Y89870D01*
X-212624D01*
Y90284D01*
X-212520D01*
Y90492D01*
X-212417D01*
Y90595D01*
X-212520D01*
Y90699D01*
X-212417D01*
Y91010D01*
X-212313D01*
Y91217D01*
X-212209D01*
Y91321D01*
X-212313D01*
Y91425D01*
X-212106D01*
Y91529D01*
X-212209D01*
Y91632D01*
X-212106D01*
Y91736D01*
X-212002D01*
Y91840D01*
X-211898D01*
Y91943D01*
X-212002D01*
Y92150D01*
X-211898D01*
Y92254D01*
X-212002D01*
Y92358D01*
X-211898D01*
Y92462D01*
X-211795D01*
Y92669D01*
X-211691D01*
Y92462D01*
X-211587D01*
Y92669D01*
X-211691D01*
Y92773D01*
X-211587D01*
Y92980D01*
X-211691D01*
Y93084D01*
X-211484D01*
Y92876D01*
X-211380D01*
Y92980D01*
X-211276D01*
Y93084D01*
X-211484D01*
Y93187D01*
X-211380D01*
Y93291D01*
X-211276D01*
Y93395D01*
X-211173D01*
Y93291D01*
X-211069D01*
Y93395D01*
X-211173D01*
Y93498D01*
X-210965D01*
Y93602D01*
X-211069D01*
Y93706D01*
X-211173D01*
Y93913D01*
X-211069D01*
Y93809D01*
D02*
G37*
G36*
X-221333Y79088D02*
X-221229D01*
Y78880D01*
X-220918D01*
Y78777D01*
X-220814D01*
Y78880D01*
X-220711D01*
Y78777D01*
X-220607D01*
Y78673D01*
X-220503D01*
Y78569D01*
X-220296D01*
Y78466D01*
X-220192D01*
Y78362D01*
X-220089D01*
Y78466D01*
X-219985D01*
Y78362D01*
X-219881D01*
Y78155D01*
X-219985D01*
Y78258D01*
X-220192D01*
Y78155D01*
X-219985D01*
Y77843D01*
X-219881D01*
Y77740D01*
X-219778D01*
Y77533D01*
X-219570D01*
Y77429D01*
X-219466D01*
Y77533D01*
X-219363D01*
Y77325D01*
X-219466D01*
Y77221D01*
X-219570D01*
Y77118D01*
X-219466D01*
Y76911D01*
X-219363D01*
Y76807D01*
X-219259D01*
Y76703D01*
X-219363D01*
Y76599D01*
X-219156D01*
Y76496D01*
X-219052D01*
Y76599D01*
X-218948D01*
Y76288D01*
X-219052D01*
Y76081D01*
X-219156D01*
Y75874D01*
X-219052D01*
Y75666D01*
X-218948D01*
Y75459D01*
X-218845D01*
Y75044D01*
X-218637D01*
Y74941D01*
X-218845D01*
Y74837D01*
X-218637D01*
Y74733D01*
X-218741D01*
Y74630D01*
X-218533D01*
Y74526D01*
X-218637D01*
Y74422D01*
X-218741D01*
Y74008D01*
X-218845D01*
Y73904D01*
X-218741D01*
Y71623D01*
X-218845D01*
Y71416D01*
X-218741D01*
Y71208D01*
X-218533D01*
Y70897D01*
X-218637D01*
Y71001D01*
X-218741D01*
Y71105D01*
X-218845D01*
Y71001D01*
X-218741D01*
Y70897D01*
X-218637D01*
Y70586D01*
X-218741D01*
Y70690D01*
X-218845D01*
Y70275D01*
X-218741D01*
Y69964D01*
X-218845D01*
Y70172D01*
X-218948D01*
Y69653D01*
X-219052D01*
Y69550D01*
X-219156D01*
Y69446D01*
X-218845D01*
Y69342D01*
X-218948D01*
Y69135D01*
X-219052D01*
Y69239D01*
X-219156D01*
Y68927D01*
X-219052D01*
Y68824D01*
X-219259D01*
Y68927D01*
X-219363D01*
Y68824D01*
X-219259D01*
Y68617D01*
X-219363D01*
Y68720D01*
X-219466D01*
Y68513D01*
X-219363D01*
Y68409D01*
X-219466D01*
Y68098D01*
X-219674D01*
Y67994D01*
X-219570D01*
Y67787D01*
X-219778D01*
Y67684D01*
X-219881D01*
Y67372D01*
X-219778D01*
Y67269D01*
X-219881D01*
Y67165D01*
X-219985D01*
Y66958D01*
X-220089D01*
Y66854D01*
X-220192D01*
Y66647D01*
X-220296D01*
Y66750D01*
X-220400D01*
Y66543D01*
X-220503D01*
Y66439D01*
X-220400D01*
Y66336D01*
X-220503D01*
Y66232D01*
X-220607D01*
Y66336D01*
X-220711D01*
Y66232D01*
X-220814D01*
Y66025D01*
X-220918D01*
Y65921D01*
X-220814D01*
Y65817D01*
X-221125D01*
Y65714D01*
X-221022D01*
Y65610D01*
X-221125D01*
Y65506D01*
X-221436D01*
Y65610D01*
X-221540D01*
Y65714D01*
X-221644D01*
Y65817D01*
X-221747D01*
Y66025D01*
X-221851D01*
Y66439D01*
X-222058D01*
Y66336D01*
X-222162D01*
Y66439D01*
X-222266D01*
Y66543D01*
X-222162D01*
Y66647D01*
X-222266D01*
Y66854D01*
X-222369D01*
Y66958D01*
X-222473D01*
Y67061D01*
X-222680D01*
Y67269D01*
X-222888D01*
Y67372D01*
X-222784D01*
Y67580D01*
X-222577D01*
Y67684D01*
X-222473D01*
Y68098D01*
X-222369D01*
Y67994D01*
X-222266D01*
Y68098D01*
X-222369D01*
Y68202D01*
X-222266D01*
Y68409D01*
X-222058D01*
Y68513D01*
X-221955D01*
Y68617D01*
X-221851D01*
Y68720D01*
X-221747D01*
Y68927D01*
X-221851D01*
Y69135D01*
X-221644D01*
Y69239D01*
X-221540D01*
Y69342D01*
X-221644D01*
Y69446D01*
X-221540D01*
Y69550D01*
X-221436D01*
Y69653D01*
X-221540D01*
Y69757D01*
X-221436D01*
Y70068D01*
X-221644D01*
Y70172D01*
X-221540D01*
Y70379D01*
X-221436D01*
Y70275D01*
X-221333D01*
Y70379D01*
X-221229D01*
Y70794D01*
X-221125D01*
Y71001D01*
X-221022D01*
Y71105D01*
X-221125D01*
Y71208D01*
X-221022D01*
Y71416D01*
X-221125D01*
Y71519D01*
X-221022D01*
Y71623D01*
X-221125D01*
Y71727D01*
X-221229D01*
Y71934D01*
X-221022D01*
Y74319D01*
X-221125D01*
Y74215D01*
X-221229D01*
Y74422D01*
X-221125D01*
Y74526D01*
X-221022D01*
Y74630D01*
X-221125D01*
Y74837D01*
X-221229D01*
Y75044D01*
X-221125D01*
Y75148D01*
X-221229D01*
Y75252D01*
X-221333D01*
Y75355D01*
X-221436D01*
Y75563D01*
X-221644D01*
Y75666D01*
X-221747D01*
Y75770D01*
X-221644D01*
Y75874D01*
X-221747D01*
Y75977D01*
X-221851D01*
Y75770D01*
X-221955D01*
Y75874D01*
X-222058D01*
Y75977D01*
X-222784D01*
Y75874D01*
X-222888D01*
Y75977D01*
X-222992D01*
Y75770D01*
X-223095D01*
Y75666D01*
X-223199D01*
Y75770D01*
X-223302D01*
Y75666D01*
X-223199D01*
Y75563D01*
X-223302D01*
Y75459D01*
X-223406D01*
Y75563D01*
X-223510D01*
Y75355D01*
X-223613D01*
Y75252D01*
X-223510D01*
Y75148D01*
X-223717D01*
Y75044D01*
X-223613D01*
Y74837D01*
X-223717D01*
Y74630D01*
X-223613D01*
Y74733D01*
X-223510D01*
Y74526D01*
X-223717D01*
Y74319D01*
X-223821D01*
Y74111D01*
X-223613D01*
Y74008D01*
X-223821D01*
Y73593D01*
X-223925D01*
Y72971D01*
X-224028D01*
Y72867D01*
X-223925D01*
Y72764D01*
X-224028D01*
Y72660D01*
X-223925D01*
Y72453D01*
X-223821D01*
Y72349D01*
X-224028D01*
Y71934D01*
X-224132D01*
Y71416D01*
X-224028D01*
Y71519D01*
X-223925D01*
Y71727D01*
X-224028D01*
Y71830D01*
X-223821D01*
Y71416D01*
X-223925D01*
Y71208D01*
X-224028D01*
Y71312D01*
X-224132D01*
Y70690D01*
X-224235D01*
Y69964D01*
X-224339D01*
Y69757D01*
X-224443D01*
Y69653D01*
X-224339D01*
Y69446D01*
X-224443D01*
Y69239D01*
X-224547D01*
Y69135D01*
X-224443D01*
Y68927D01*
X-224547D01*
Y68824D01*
X-224650D01*
Y68720D01*
X-224754D01*
Y68617D01*
X-224650D01*
Y68409D01*
X-224754D01*
Y68098D01*
X-224858D01*
Y67994D01*
X-224961D01*
Y67787D01*
X-225065D01*
Y67891D01*
X-225169D01*
Y67580D01*
X-225065D01*
Y67476D01*
X-225272D01*
Y67269D01*
X-225376D01*
Y67372D01*
X-225480D01*
Y67269D01*
X-225583D01*
Y67165D01*
X-225480D01*
Y67061D01*
X-225791D01*
Y66854D01*
X-225687D01*
Y66750D01*
X-225791D01*
Y66647D01*
X-226102D01*
Y66439D01*
X-226413D01*
Y66543D01*
X-226516D01*
Y66439D01*
X-226413D01*
Y66336D01*
X-226620D01*
Y66025D01*
X-226724D01*
Y66336D01*
X-226931D01*
Y66232D01*
X-227346D01*
Y69757D01*
X-227242D01*
Y69964D01*
X-227138D01*
Y70068D01*
X-227035D01*
Y70275D01*
X-227138D01*
Y70379D01*
X-227035D01*
Y70586D01*
X-226931D01*
Y70690D01*
X-226827D01*
Y70794D01*
X-226931D01*
Y70897D01*
X-226827D01*
Y71105D01*
X-226724D01*
Y71208D01*
X-226827D01*
Y71416D01*
X-226931D01*
Y71519D01*
X-226827D01*
Y71623D01*
X-226724D01*
Y71727D01*
X-226620D01*
Y71934D01*
X-226724D01*
Y72141D01*
X-226827D01*
Y72038D01*
X-226931D01*
Y72349D01*
X-226724D01*
Y72867D01*
X-226620D01*
Y73178D01*
X-226516D01*
Y73800D01*
X-226413D01*
Y74008D01*
X-226516D01*
Y74111D01*
X-226413D01*
Y74215D01*
X-226724D01*
Y74319D01*
X-226620D01*
Y74733D01*
X-226516D01*
Y74319D01*
X-226413D01*
Y74733D01*
X-226309D01*
Y74941D01*
X-226516D01*
Y74837D01*
X-226620D01*
Y75148D01*
X-226516D01*
Y75044D01*
X-226413D01*
Y75148D01*
X-226309D01*
Y75252D01*
X-226413D01*
Y75355D01*
X-226309D01*
Y75459D01*
X-226413D01*
Y75563D01*
X-226309D01*
Y75666D01*
X-226205D01*
Y76288D01*
X-226102D01*
Y76703D01*
X-225998D01*
Y77014D01*
X-226102D01*
Y77325D01*
X-225998D01*
Y77118D01*
X-225894D01*
Y77221D01*
X-225791D01*
Y77325D01*
X-225894D01*
Y77429D01*
X-225791D01*
Y77533D01*
X-225583D01*
Y77636D01*
X-225791D01*
Y77740D01*
X-225583D01*
Y77843D01*
X-225480D01*
Y78051D01*
X-225272D01*
Y78155D01*
X-225376D01*
Y78362D01*
X-225272D01*
Y78466D01*
X-225169D01*
Y78362D01*
X-225065D01*
Y78466D01*
X-225169D01*
Y78569D01*
X-225065D01*
Y78673D01*
X-224961D01*
Y78569D01*
X-224858D01*
Y78673D01*
X-224961D01*
Y78777D01*
X-224754D01*
Y78880D01*
X-224650D01*
Y78777D01*
X-224547D01*
Y78984D01*
X-224443D01*
Y79088D01*
X-224132D01*
Y79191D01*
X-224028D01*
Y79088D01*
X-223925D01*
Y79191D01*
X-224028D01*
Y79295D01*
X-223302D01*
Y79399D01*
X-223199D01*
Y79295D01*
X-222992D01*
Y79399D01*
X-222473D01*
Y79295D01*
X-222369D01*
Y79399D01*
X-222266D01*
Y79295D01*
X-221747D01*
Y79088D01*
X-221644D01*
Y79191D01*
X-221436D01*
Y79295D01*
X-221540D01*
Y79399D01*
X-221333D01*
Y79088D01*
D02*
G37*
G36*
X-210758Y79191D02*
X-210654D01*
Y79088D01*
X-210551D01*
Y78984D01*
X-210654D01*
Y78880D01*
X-210447D01*
Y78673D01*
X-210343D01*
Y78777D01*
X-210240D01*
Y78569D01*
X-210032D01*
Y78466D01*
X-209928D01*
Y78362D01*
X-209825D01*
Y78258D01*
X-209721D01*
Y78155D01*
X-209618D01*
Y78051D01*
X-209514D01*
Y77947D01*
X-209410D01*
Y77740D01*
X-209203D01*
Y77636D01*
X-209307D01*
Y77533D01*
X-209203D01*
Y77429D01*
X-209307D01*
Y77325D01*
X-209410D01*
Y77221D01*
X-209307D01*
Y77118D01*
X-209203D01*
Y76911D01*
X-209307D01*
Y77014D01*
X-209410D01*
Y76911D01*
X-209514D01*
Y76703D01*
X-209721D01*
Y76599D01*
X-209618D01*
Y76496D01*
X-209721D01*
Y76392D01*
X-209825D01*
Y76496D01*
X-209928D01*
Y76288D01*
X-209825D01*
Y76185D01*
X-210032D01*
Y76081D01*
X-209928D01*
Y75874D01*
X-210136D01*
Y75770D01*
X-210032D01*
Y75563D01*
X-210136D01*
Y75666D01*
X-210240D01*
Y75563D01*
X-210136D01*
Y75355D01*
X-210240D01*
Y75148D01*
X-210343D01*
Y75044D01*
X-210136D01*
Y74837D01*
X-210343D01*
Y74941D01*
X-210447D01*
Y74837D01*
X-210343D01*
Y74733D01*
X-210136D01*
Y74630D01*
X-210447D01*
Y74111D01*
X-210551D01*
Y73178D01*
X-210654D01*
Y72971D01*
X-210447D01*
Y73178D01*
X-210343D01*
Y72867D01*
X-210551D01*
Y72764D01*
X-210654D01*
Y71830D01*
X-210551D01*
Y71727D01*
X-210343D01*
Y71519D01*
X-210551D01*
Y71312D01*
X-210654D01*
Y71208D01*
X-210551D01*
Y70897D01*
X-210447D01*
Y70690D01*
X-210343D01*
Y70897D01*
X-210240D01*
Y70586D01*
X-210343D01*
Y70379D01*
X-210136D01*
Y70275D01*
X-210032D01*
Y70172D01*
X-209928D01*
Y70068D01*
X-210032D01*
Y69964D01*
X-209928D01*
Y69861D01*
X-209721D01*
Y69653D01*
X-209825D01*
Y69757D01*
X-209928D01*
Y69550D01*
X-209618D01*
Y69653D01*
X-209410D01*
Y69550D01*
X-209203D01*
Y69653D01*
X-209307D01*
Y69757D01*
X-209099D01*
Y69550D01*
X-208995D01*
Y66128D01*
X-209410D01*
Y66232D01*
X-209618D01*
Y66128D01*
X-209825D01*
Y66336D01*
X-209928D01*
Y66232D01*
X-210136D01*
Y66336D01*
X-210240D01*
Y66439D01*
X-210343D01*
Y66543D01*
X-210551D01*
Y66647D01*
X-210758D01*
Y66854D01*
X-210965D01*
Y66750D01*
X-211069D01*
Y66854D01*
X-211380D01*
Y66958D01*
X-211173D01*
Y67165D01*
X-211276D01*
Y67269D01*
X-211380D01*
Y67372D01*
X-211484D01*
Y67269D01*
X-211587D01*
Y67580D01*
X-211691D01*
Y67684D01*
X-211795D01*
Y67787D01*
X-211898D01*
Y68098D01*
X-212002D01*
Y68306D01*
X-212209D01*
Y68202D01*
X-212106D01*
Y67891D01*
X-212209D01*
Y68098D01*
X-212313D01*
Y68409D01*
X-212002D01*
Y68513D01*
X-212106D01*
Y68617D01*
X-212209D01*
Y68513D01*
X-212417D01*
Y68720D01*
X-212313D01*
Y68824D01*
X-212209D01*
Y68927D01*
X-212417D01*
Y68824D01*
X-212520D01*
Y68927D01*
X-212624D01*
Y69135D01*
X-212520D01*
Y69031D01*
X-212417D01*
Y69135D01*
X-212313D01*
Y69239D01*
X-212520D01*
Y69550D01*
X-212417D01*
Y69653D01*
X-212624D01*
Y69757D01*
X-212520D01*
Y69861D01*
X-212624D01*
Y70172D01*
X-212728D01*
Y70379D01*
X-212831D01*
Y70483D01*
X-212728D01*
Y70690D01*
X-212624D01*
Y70794D01*
X-212728D01*
Y70897D01*
X-212935D01*
Y71105D01*
X-212831D01*
Y71001D01*
X-212728D01*
Y71208D01*
X-212831D01*
Y74008D01*
X-212728D01*
Y74422D01*
X-212624D01*
Y74526D01*
X-212728D01*
Y74630D01*
X-212624D01*
Y74733D01*
X-212728D01*
Y74941D01*
X-212624D01*
Y75044D01*
X-212831D01*
Y75355D01*
X-212728D01*
Y75148D01*
X-212624D01*
Y75252D01*
X-212520D01*
Y75355D01*
X-212624D01*
Y75666D01*
X-212520D01*
Y75770D01*
X-212417D01*
Y75874D01*
X-212520D01*
Y75977D01*
X-212417D01*
Y76185D01*
X-212313D01*
Y76703D01*
X-212209D01*
Y76807D01*
X-212106D01*
Y76911D01*
X-212209D01*
Y77014D01*
X-212106D01*
Y77118D01*
X-211898D01*
Y77221D01*
X-212002D01*
Y77325D01*
X-211898D01*
Y77429D01*
X-212209D01*
Y77533D01*
X-211898D01*
Y77740D01*
X-211795D01*
Y77636D01*
X-211691D01*
Y77740D01*
X-211795D01*
Y77947D01*
X-211691D01*
Y77843D01*
X-211587D01*
Y77947D01*
X-211691D01*
Y78051D01*
X-211587D01*
Y78362D01*
X-211484D01*
Y78258D01*
X-211380D01*
Y78362D01*
X-211276D01*
Y78466D01*
X-211380D01*
Y78673D01*
X-211276D01*
Y78569D01*
X-211173D01*
Y78673D01*
X-211069D01*
Y78777D01*
X-210965D01*
Y78880D01*
X-210862D01*
Y78984D01*
X-210965D01*
Y79191D01*
X-210862D01*
Y79295D01*
X-210758D01*
Y79191D01*
D02*
G37*
G36*
X-225687Y64884D02*
X-225791D01*
Y64781D01*
X-224443D01*
Y53688D01*
X-224339D01*
Y53584D01*
X-224235D01*
Y53688D01*
X-224132D01*
Y53791D01*
X-224028D01*
Y53688D01*
X-223925D01*
Y53584D01*
X-223613D01*
Y53688D01*
X-223510D01*
Y53584D01*
X-223406D01*
Y53688D01*
X-223302D01*
Y53895D01*
X-222992D01*
Y53998D01*
X-222888D01*
Y54102D01*
X-222784D01*
Y53998D01*
X-222577D01*
Y54310D01*
X-222473D01*
Y54206D01*
X-222369D01*
Y54517D01*
X-222266D01*
Y54413D01*
X-222058D01*
Y54517D01*
X-222162D01*
Y54620D01*
X-221955D01*
Y54828D01*
X-221851D01*
Y54932D01*
X-221747D01*
Y55035D01*
X-221851D01*
Y55139D01*
X-221747D01*
Y55346D01*
X-221644D01*
Y55450D01*
X-221540D01*
Y55346D01*
X-221436D01*
Y55450D01*
X-221540D01*
Y55657D01*
X-221644D01*
Y56072D01*
X-221540D01*
Y55761D01*
X-221436D01*
Y55657D01*
X-221333D01*
Y55761D01*
X-221436D01*
Y56072D01*
X-221229D01*
Y56176D01*
X-221333D01*
Y56279D01*
X-221229D01*
Y56383D01*
X-221436D01*
Y56487D01*
X-221229D01*
Y56798D01*
X-221125D01*
Y56901D01*
X-221333D01*
Y57212D01*
X-221229D01*
Y57005D01*
X-221125D01*
Y57938D01*
X-221229D01*
Y58042D01*
X-221125D01*
Y58145D01*
X-221229D01*
Y58249D01*
X-221125D01*
Y58560D01*
X-221229D01*
Y59078D01*
X-221333D01*
Y59182D01*
X-221229D01*
Y59286D01*
X-221436D01*
Y59390D01*
X-221644D01*
Y59597D01*
X-221747D01*
Y59804D01*
X-221644D01*
Y59701D01*
X-221540D01*
Y59908D01*
X-221644D01*
Y60012D01*
X-221747D01*
Y60115D01*
X-221644D01*
Y60219D01*
X-221851D01*
Y60530D01*
X-222058D01*
Y60634D01*
X-222162D01*
Y60530D01*
X-222266D01*
Y60737D01*
X-222162D01*
Y60841D01*
X-222266D01*
Y60945D01*
X-222369D01*
Y61256D01*
X-222473D01*
Y61359D01*
X-222577D01*
Y61256D01*
X-222680D01*
Y61359D01*
X-222784D01*
Y61567D01*
X-222888D01*
Y61670D01*
X-222784D01*
Y61981D01*
X-222577D01*
Y62396D01*
X-222473D01*
Y62500D01*
X-222577D01*
Y62604D01*
X-222473D01*
Y62707D01*
X-222369D01*
Y62811D01*
X-222266D01*
Y62915D01*
X-222162D01*
Y63122D01*
X-222058D01*
Y63329D01*
X-222162D01*
Y63537D01*
X-222058D01*
Y63640D01*
X-221955D01*
Y63847D01*
X-221851D01*
Y63744D01*
X-221747D01*
Y63847D01*
X-221851D01*
Y64055D01*
X-221644D01*
Y64159D01*
X-221747D01*
Y64262D01*
X-221333D01*
Y64159D01*
X-221229D01*
Y64055D01*
X-221333D01*
Y63847D01*
X-221229D01*
Y63951D01*
X-221022D01*
Y63847D01*
X-221125D01*
Y63744D01*
X-220814D01*
Y63640D01*
X-220711D01*
Y63537D01*
X-220814D01*
Y63433D01*
X-220711D01*
Y63329D01*
X-220607D01*
Y63433D01*
X-220503D01*
Y63329D01*
X-220400D01*
Y63225D01*
X-220503D01*
Y63122D01*
X-220296D01*
Y63018D01*
X-220400D01*
Y62915D01*
X-220089D01*
Y62811D01*
X-220192D01*
Y62707D01*
X-219985D01*
Y62604D01*
X-219881D01*
Y62500D01*
X-219674D01*
Y62396D01*
X-219778D01*
Y62292D01*
X-219570D01*
Y62189D01*
X-219674D01*
Y62085D01*
X-219570D01*
Y61981D01*
X-219674D01*
Y61878D01*
X-219259D01*
Y61774D01*
X-219466D01*
Y61463D01*
X-219363D01*
Y61359D01*
X-219259D01*
Y61048D01*
X-219156D01*
Y60737D01*
X-218948D01*
Y60634D01*
X-219052D01*
Y60530D01*
X-219156D01*
Y60323D01*
X-218948D01*
Y59908D01*
X-218845D01*
Y59701D01*
X-218948D01*
Y59597D01*
X-218845D01*
Y59493D01*
X-218741D01*
Y59390D01*
X-218533D01*
Y58871D01*
X-218637D01*
Y59078D01*
X-218741D01*
Y59182D01*
X-218845D01*
Y58975D01*
X-218741D01*
Y58767D01*
X-218845D01*
Y58664D01*
X-218741D01*
Y56279D01*
X-218845D01*
Y56072D01*
X-218741D01*
Y56176D01*
X-218637D01*
Y56383D01*
X-218533D01*
Y55761D01*
X-218637D01*
Y55968D01*
X-218845D01*
Y55865D01*
X-218741D01*
Y55657D01*
X-218845D01*
Y55554D01*
X-218948D01*
Y55450D01*
X-218845D01*
Y55243D01*
X-218948D01*
Y54932D01*
X-219052D01*
Y54724D01*
X-219156D01*
Y54620D01*
X-219052D01*
Y54517D01*
X-219156D01*
Y54310D01*
X-218948D01*
Y54206D01*
X-219156D01*
Y54102D01*
X-219363D01*
Y53998D01*
X-219259D01*
Y53895D01*
X-219363D01*
Y53791D01*
X-219466D01*
Y53688D01*
X-219363D01*
Y53480D01*
X-219466D01*
Y53169D01*
X-219570D01*
Y53376D01*
X-219674D01*
Y53169D01*
X-219570D01*
Y53066D01*
X-219674D01*
Y52858D01*
X-219778D01*
Y53066D01*
X-219881D01*
Y52754D01*
X-219985D01*
Y52547D01*
X-219881D01*
Y52443D01*
X-219985D01*
Y52340D01*
X-220089D01*
Y52132D01*
X-220192D01*
Y52029D01*
X-220296D01*
Y51925D01*
X-220607D01*
Y51821D01*
X-220400D01*
Y51718D01*
X-220503D01*
Y51614D01*
X-220607D01*
Y51718D01*
X-220814D01*
Y51303D01*
X-220918D01*
Y51199D01*
X-221022D01*
Y51303D01*
X-221125D01*
Y51199D01*
X-221229D01*
Y51096D01*
X-221333D01*
Y50888D01*
X-221540D01*
Y50785D01*
X-221851D01*
Y50577D01*
X-222162D01*
Y50474D01*
X-222369D01*
Y50577D01*
X-222473D01*
Y50474D01*
X-222577D01*
Y50370D01*
X-222680D01*
Y50266D01*
X-222784D01*
Y50370D01*
X-222888D01*
Y50266D01*
X-222784D01*
Y50163D01*
X-223095D01*
Y50266D01*
X-223199D01*
Y50163D01*
X-223302D01*
Y50059D01*
X-223613D01*
Y49955D01*
X-223717D01*
Y50059D01*
X-223925D01*
Y49955D01*
X-224339D01*
Y49852D01*
X-224547D01*
Y49955D01*
X-224650D01*
Y49852D01*
X-224754D01*
Y49748D01*
X-224858D01*
Y49852D01*
X-225583D01*
Y49644D01*
X-225687D01*
Y49748D01*
X-225791D01*
Y49852D01*
X-225894D01*
Y49955D01*
X-226413D01*
Y50059D01*
X-226931D01*
Y50163D01*
X-227138D01*
Y50266D01*
X-227242D01*
Y50163D01*
X-227346D01*
Y53688D01*
X-227138D01*
Y53791D01*
X-227035D01*
Y53584D01*
X-226931D01*
Y53791D01*
X-226516D01*
Y53584D01*
X-226309D01*
Y53688D01*
X-226413D01*
Y53791D01*
X-226516D01*
Y53998D01*
X-226309D01*
Y54102D01*
X-226516D01*
Y54206D01*
X-226413D01*
Y60323D01*
X-226309D01*
Y60426D01*
X-226413D01*
Y60530D01*
X-226309D01*
Y60634D01*
X-226516D01*
Y60841D01*
X-226620D01*
Y60945D01*
X-227035D01*
Y60841D01*
X-226931D01*
Y60737D01*
X-227138D01*
Y60841D01*
X-227242D01*
Y60737D01*
X-227346D01*
Y64573D01*
X-227449D01*
Y60737D01*
X-227553D01*
Y64677D01*
X-227242D01*
Y64470D01*
X-227138D01*
Y64573D01*
X-226931D01*
Y64677D01*
X-227242D01*
Y64781D01*
X-226724D01*
Y64677D01*
X-226620D01*
Y64781D01*
X-226724D01*
Y64884D01*
X-226413D01*
Y64781D01*
X-226516D01*
Y64573D01*
X-226413D01*
Y64677D01*
X-225894D01*
Y64781D01*
X-225998D01*
Y64988D01*
X-225687D01*
Y64884D01*
D02*
G37*
G36*
X-209307Y64262D02*
X-209203D01*
Y64159D01*
X-208995D01*
Y60737D01*
X-209099D01*
Y60841D01*
X-209203D01*
Y60737D01*
X-209099D01*
Y60634D01*
X-209203D01*
Y60530D01*
X-209307D01*
Y60634D01*
X-209514D01*
Y60323D01*
X-209618D01*
Y60426D01*
X-209825D01*
Y60323D01*
X-209928D01*
Y60219D01*
X-210032D01*
Y60115D01*
X-209928D01*
Y60012D01*
X-209825D01*
Y59804D01*
X-209928D01*
Y59908D01*
X-210032D01*
Y60012D01*
X-210240D01*
Y59908D01*
X-210343D01*
Y59804D01*
X-210240D01*
Y59701D01*
X-210343D01*
Y59597D01*
X-210240D01*
Y59493D01*
X-210343D01*
Y59390D01*
X-210447D01*
Y59182D01*
X-210551D01*
Y58975D01*
X-210654D01*
Y59078D01*
X-210758D01*
Y58975D01*
X-210654D01*
Y58871D01*
X-210758D01*
Y58767D01*
X-210447D01*
Y58664D01*
X-210654D01*
Y58560D01*
X-210551D01*
Y58145D01*
X-210654D01*
Y57938D01*
X-210758D01*
Y58145D01*
X-210862D01*
Y56176D01*
X-210654D01*
Y56383D01*
X-210551D01*
Y55968D01*
X-210447D01*
Y55657D01*
X-210551D01*
Y55865D01*
X-210654D01*
Y55968D01*
X-210758D01*
Y55865D01*
X-210654D01*
Y55657D01*
X-210551D01*
Y55450D01*
X-210447D01*
Y55243D01*
X-210343D01*
Y55139D01*
X-210240D01*
Y54620D01*
X-210136D01*
Y54724D01*
X-210032D01*
Y54620D01*
X-209928D01*
Y54517D01*
X-209825D01*
Y54310D01*
X-209721D01*
Y54102D01*
X-209618D01*
Y54206D01*
X-209410D01*
Y54102D01*
X-209514D01*
Y53998D01*
X-209307D01*
Y53895D01*
X-209203D01*
Y53998D01*
X-209099D01*
Y54102D01*
X-209203D01*
Y54206D01*
X-208995D01*
Y54102D01*
X-208892D01*
Y53998D01*
X-208995D01*
Y50370D01*
X-209099D01*
Y50577D01*
X-209514D01*
Y50474D01*
X-209721D01*
Y50577D01*
X-209618D01*
Y50681D01*
X-209721D01*
Y50785D01*
X-209618D01*
Y50888D01*
X-209721D01*
Y50992D01*
X-209825D01*
Y50888D01*
X-210032D01*
Y50992D01*
X-210240D01*
Y51199D01*
X-210343D01*
Y51303D01*
X-210447D01*
Y51199D01*
X-210551D01*
Y51303D01*
X-210654D01*
Y51510D01*
X-210862D01*
Y51614D01*
X-210965D01*
Y51718D01*
X-211069D01*
Y51821D01*
X-211173D01*
Y51925D01*
X-211276D01*
Y51821D01*
X-211380D01*
Y52029D01*
X-211276D01*
Y52132D01*
X-211173D01*
Y52236D01*
X-211276D01*
Y52340D01*
X-211380D01*
Y52443D01*
X-211484D01*
Y52340D01*
X-211587D01*
Y52236D01*
X-211691D01*
Y52443D01*
X-211587D01*
Y52754D01*
X-211795D01*
Y53066D01*
X-212106D01*
Y53169D01*
X-212002D01*
Y53376D01*
X-212106D01*
Y53584D01*
X-212209D01*
Y53791D01*
X-212520D01*
Y53895D01*
X-212209D01*
Y53998D01*
X-212520D01*
Y54206D01*
X-212417D01*
Y54102D01*
X-212313D01*
Y54206D01*
X-212417D01*
Y54413D01*
X-212520D01*
Y54724D01*
X-212624D01*
Y54932D01*
X-212728D01*
Y54828D01*
X-212831D01*
Y55035D01*
X-212624D01*
Y55139D01*
X-212728D01*
Y55243D01*
X-212624D01*
Y55346D01*
X-212728D01*
Y55450D01*
X-212831D01*
Y55554D01*
X-212935D01*
Y56176D01*
X-212831D01*
Y56279D01*
X-212728D01*
Y56383D01*
X-212831D01*
Y58457D01*
X-212728D01*
Y58560D01*
X-212831D01*
Y58664D01*
X-212728D01*
Y59078D01*
X-212624D01*
Y59182D01*
X-212728D01*
Y59493D01*
X-212831D01*
Y60012D01*
X-212728D01*
Y59701D01*
X-212624D01*
Y59804D01*
X-212520D01*
Y60115D01*
X-212417D01*
Y60323D01*
X-212520D01*
Y60426D01*
X-212417D01*
Y60634D01*
X-212313D01*
Y60841D01*
X-212520D01*
Y60945D01*
X-212417D01*
Y61048D01*
X-212313D01*
Y61152D01*
X-212209D01*
Y61256D01*
X-212106D01*
Y61463D01*
X-212209D01*
Y61670D01*
X-212106D01*
Y61567D01*
X-211898D01*
Y61774D01*
X-211691D01*
Y61878D01*
X-211795D01*
Y62085D01*
X-211587D01*
Y62189D01*
X-211691D01*
Y62292D01*
X-211587D01*
Y62396D01*
X-211691D01*
Y62604D01*
X-211587D01*
Y62500D01*
X-211484D01*
Y62604D01*
X-211276D01*
Y62811D01*
X-211173D01*
Y62915D01*
X-211069D01*
Y63018D01*
X-210862D01*
Y63122D01*
X-210965D01*
Y63225D01*
X-210758D01*
Y63329D01*
X-210447D01*
Y63433D01*
X-210343D01*
Y63537D01*
X-210240D01*
Y63744D01*
X-210136D01*
Y63847D01*
X-210032D01*
Y63640D01*
X-209928D01*
Y63951D01*
X-209618D01*
Y64055D01*
X-209514D01*
Y63951D01*
X-209410D01*
Y64262D01*
X-209514D01*
Y64366D01*
X-209307D01*
Y64262D01*
D02*
G37*
G36*
X-209099Y49333D02*
X-209203D01*
Y49644D01*
X-209307D01*
Y49333D01*
X-209203D01*
Y49229D01*
X-209307D01*
Y48608D01*
X-209203D01*
Y48296D01*
X-209307D01*
Y47260D01*
X-209203D01*
Y46845D01*
X-209307D01*
Y46741D01*
X-209203D01*
Y46638D01*
X-208892D01*
Y46534D01*
X-208995D01*
Y46430D01*
X-209099D01*
Y46223D01*
X-208995D01*
Y40314D01*
X-212417D01*
Y43735D01*
X-209928D01*
Y43839D01*
X-209825D01*
Y43735D01*
X-209721D01*
Y43631D01*
X-209618D01*
Y43735D01*
X-209721D01*
Y43839D01*
X-209618D01*
Y43942D01*
X-209514D01*
Y43631D01*
X-209410D01*
Y43839D01*
X-209307D01*
Y43631D01*
X-209203D01*
Y43839D01*
X-209099D01*
Y44357D01*
X-209203D01*
Y43942D01*
X-209307D01*
Y44046D01*
X-209410D01*
Y44149D01*
X-209618D01*
Y44253D01*
X-209410D01*
Y44357D01*
X-209721D01*
Y44461D01*
X-209825D01*
Y44564D01*
X-209928D01*
Y44357D01*
X-210032D01*
Y44564D01*
X-210136D01*
Y44668D01*
X-210343D01*
Y44771D01*
X-210551D01*
Y44668D01*
X-210758D01*
Y44771D01*
X-210862D01*
Y45186D01*
X-210965D01*
Y45083D01*
X-211069D01*
Y45186D01*
X-211173D01*
Y44979D01*
X-211276D01*
Y45083D01*
X-211380D01*
Y45186D01*
X-211276D01*
Y45394D01*
X-211484D01*
Y45497D01*
X-211587D01*
Y45601D01*
X-211691D01*
Y45705D01*
X-211795D01*
Y45808D01*
X-211898D01*
Y45705D01*
X-212002D01*
Y45808D01*
X-212106D01*
Y46016D01*
X-212002D01*
Y45912D01*
X-211898D01*
Y46016D01*
X-212002D01*
Y46119D01*
X-211898D01*
Y46223D01*
X-212106D01*
Y46327D01*
X-212209D01*
Y46430D01*
X-212106D01*
Y46534D01*
X-212313D01*
Y46949D01*
X-212520D01*
Y47156D01*
X-212417D01*
Y47260D01*
X-212624D01*
Y47363D01*
X-212520D01*
Y47467D01*
X-212624D01*
Y47674D01*
X-212728D01*
Y47882D01*
X-212624D01*
Y48089D01*
X-212728D01*
Y48193D01*
X-212831D01*
Y47985D01*
X-212935D01*
Y48296D01*
X-212728D01*
Y48400D01*
X-212831D01*
Y48504D01*
X-212728D01*
Y48608D01*
X-212831D01*
Y49022D01*
X-212728D01*
Y49229D01*
X-212831D01*
Y49333D01*
X-212728D01*
Y49541D01*
X-212831D01*
Y49437D01*
X-212935D01*
Y49333D01*
X-213039D01*
Y49541D01*
X-212935D01*
Y49748D01*
X-212831D01*
Y49644D01*
X-212728D01*
Y49748D01*
X-209099D01*
Y49333D01*
D02*
G37*
G36*
X-227242Y45186D02*
X-227035D01*
Y44979D01*
X-226931D01*
Y45290D01*
X-226724D01*
Y45186D01*
X-226827D01*
Y45083D01*
X-226724D01*
Y44875D01*
X-226827D01*
Y44771D01*
X-226620D01*
Y44875D01*
X-226413D01*
Y44771D01*
X-226309D01*
Y44668D01*
X-226205D01*
Y44564D01*
X-226102D01*
Y44461D01*
X-225791D01*
Y44564D01*
X-225687D01*
Y44461D01*
X-225583D01*
Y44564D01*
X-225480D01*
Y44461D01*
X-225376D01*
Y44357D01*
X-225272D01*
Y44253D01*
X-225065D01*
Y44149D01*
X-224858D01*
Y44253D01*
X-224754D01*
Y44149D01*
X-224028D01*
Y44046D01*
X-223925D01*
Y44357D01*
X-223821D01*
Y44046D01*
X-219052D01*
Y40314D01*
X-218948D01*
Y44357D01*
X-218845D01*
Y40210D01*
X-219156D01*
Y40314D01*
X-227346D01*
Y45497D01*
X-227242D01*
Y45186D01*
D02*
G37*
G36*
X-224339Y38240D02*
X-223821D01*
Y38136D01*
X-223302D01*
Y38033D01*
X-223199D01*
Y37929D01*
X-223095D01*
Y38033D01*
X-222888D01*
Y37929D01*
X-222680D01*
Y37825D01*
X-222577D01*
Y37722D01*
X-222369D01*
Y37825D01*
X-222266D01*
Y37618D01*
X-222058D01*
Y37825D01*
X-221851D01*
Y37722D01*
X-221955D01*
Y37618D01*
X-221851D01*
Y37514D01*
X-221747D01*
Y37411D01*
X-221644D01*
Y37307D01*
X-221540D01*
Y37411D01*
X-221436D01*
Y37618D01*
X-221333D01*
Y37307D01*
X-221436D01*
Y37203D01*
X-221125D01*
Y37100D01*
X-221022D01*
Y36996D01*
X-220814D01*
Y36892D01*
X-220918D01*
Y36789D01*
X-220503D01*
Y36685D01*
X-220607D01*
Y36478D01*
X-220192D01*
Y36374D01*
X-220089D01*
Y36063D01*
X-219881D01*
Y35752D01*
X-219674D01*
Y35545D01*
X-219363D01*
Y35441D01*
X-219570D01*
Y35234D01*
X-219363D01*
Y34922D01*
X-219259D01*
Y34819D01*
X-219156D01*
Y34715D01*
X-219052D01*
Y34611D01*
X-219156D01*
Y34508D01*
X-219052D01*
Y34404D01*
X-219156D01*
Y34197D01*
X-219052D01*
Y34093D01*
X-218948D01*
Y33989D01*
X-219052D01*
Y33886D01*
X-218845D01*
Y33575D01*
X-218741D01*
Y33471D01*
X-218637D01*
Y33367D01*
X-218533D01*
Y33160D01*
X-218741D01*
Y33264D01*
X-218845D01*
Y33160D01*
X-218741D01*
Y32538D01*
X-218637D01*
Y32434D01*
X-218741D01*
Y31398D01*
X-218845D01*
Y31294D01*
X-218741D01*
Y30983D01*
X-218637D01*
Y31190D01*
X-218533D01*
Y30776D01*
X-218741D01*
Y30568D01*
X-218845D01*
Y30154D01*
X-218948D01*
Y30257D01*
X-219052D01*
Y30154D01*
X-218948D01*
Y29946D01*
X-219156D01*
Y29532D01*
X-219259D01*
Y29428D01*
X-219363D01*
Y29117D01*
X-219466D01*
Y29013D01*
X-219570D01*
Y28909D01*
X-219674D01*
Y28702D01*
X-219778D01*
Y28598D01*
X-219674D01*
Y28391D01*
X-219778D01*
Y28287D01*
X-219881D01*
Y28184D01*
X-219985D01*
Y28287D01*
X-220089D01*
Y27873D01*
X-220192D01*
Y27769D01*
X-220296D01*
Y27976D01*
X-220400D01*
Y27873D01*
X-220503D01*
Y27769D01*
X-220607D01*
Y27665D01*
X-220503D01*
Y27458D01*
X-220607D01*
Y27562D01*
X-220814D01*
Y27458D01*
X-220607D01*
Y27147D01*
X-220503D01*
Y27043D01*
X-220711D01*
Y27147D01*
X-220814D01*
Y27043D01*
X-220711D01*
Y26940D01*
X-214076D01*
Y23000D01*
X-227346D01*
Y27147D01*
X-227035D01*
Y27043D01*
X-226931D01*
Y26940D01*
X-226827D01*
Y27043D01*
X-226724D01*
Y27147D01*
X-226620D01*
Y26836D01*
X-226413D01*
Y26940D01*
X-226309D01*
Y26836D01*
X-224028D01*
Y26940D01*
X-223717D01*
Y27043D01*
X-223613D01*
Y27251D01*
X-223510D01*
Y27043D01*
X-223302D01*
Y27147D01*
X-223199D01*
Y27251D01*
X-222992D01*
Y27354D01*
X-222888D01*
Y27458D01*
X-222680D01*
Y27562D01*
X-222473D01*
Y27458D01*
X-222369D01*
Y27562D01*
X-222266D01*
Y27665D01*
X-222369D01*
Y27769D01*
X-222266D01*
Y27873D01*
X-222058D01*
Y28080D01*
X-221851D01*
Y28184D01*
X-221747D01*
Y28391D01*
X-221540D01*
Y28495D01*
X-221644D01*
Y28702D01*
X-221540D01*
Y28806D01*
X-221644D01*
Y28909D01*
X-221436D01*
Y28806D01*
X-221333D01*
Y29013D01*
X-221436D01*
Y29220D01*
X-221333D01*
Y29428D01*
X-221125D01*
Y29532D01*
X-221229D01*
Y29739D01*
X-221125D01*
Y29946D01*
X-221229D01*
Y29843D01*
X-221333D01*
Y30050D01*
X-221125D01*
Y30257D01*
X-221022D01*
Y30568D01*
X-221125D01*
Y30672D01*
X-221022D01*
Y30776D01*
X-221125D01*
Y30983D01*
X-221022D01*
Y31087D01*
X-221125D01*
Y31398D01*
X-221229D01*
Y31812D01*
X-221333D01*
Y31916D01*
X-221229D01*
Y32020D01*
X-221333D01*
Y32123D01*
X-221436D01*
Y32434D01*
X-221644D01*
Y32538D01*
X-221747D01*
Y32849D01*
X-221955D01*
Y33056D01*
X-222162D01*
Y33160D01*
X-222266D01*
Y33264D01*
X-222369D01*
Y33575D01*
X-222473D01*
Y33678D01*
X-222888D01*
Y33782D01*
X-222784D01*
Y33886D01*
X-223199D01*
Y33989D01*
X-223302D01*
Y33782D01*
X-223406D01*
Y33886D01*
X-223510D01*
Y34093D01*
X-223613D01*
Y34197D01*
X-223717D01*
Y34093D01*
X-224028D01*
Y34300D01*
X-224132D01*
Y34197D01*
X-224443D01*
Y34093D01*
X-224235D01*
Y33989D01*
X-224547D01*
Y34197D01*
X-224650D01*
Y34093D01*
X-224858D01*
Y34197D01*
X-224961D01*
Y34300D01*
X-225583D01*
Y34093D01*
X-225687D01*
Y34197D01*
X-225894D01*
Y34300D01*
X-225998D01*
Y34197D01*
X-225894D01*
Y34093D01*
X-225998D01*
Y33989D01*
X-226102D01*
Y34197D01*
X-226413D01*
Y34300D01*
X-226516D01*
Y34093D01*
X-226827D01*
Y33989D01*
X-227035D01*
Y34093D01*
X-227138D01*
Y33782D01*
X-227242D01*
Y33989D01*
X-227346D01*
Y38136D01*
X-227138D01*
Y38033D01*
X-226827D01*
Y38240D01*
X-226620D01*
Y38136D01*
X-226516D01*
Y38240D01*
X-226309D01*
Y38344D01*
X-226102D01*
Y38240D01*
X-225998D01*
Y38344D01*
X-224650D01*
Y38240D01*
X-224547D01*
Y38344D01*
X-224339D01*
Y38240D01*
D02*
G37*
G36*
X-208995Y33471D02*
X-209203D01*
Y33575D01*
X-209307D01*
Y33471D01*
X-209410D01*
Y33264D01*
X-209514D01*
Y32953D01*
X-209618D01*
Y32849D01*
X-209825D01*
Y32953D01*
X-209928D01*
Y32849D01*
X-209825D01*
Y32642D01*
X-210032D01*
Y32538D01*
X-209928D01*
Y32331D01*
X-210136D01*
Y32020D01*
X-210240D01*
Y31916D01*
X-210343D01*
Y31087D01*
X-210447D01*
Y30983D01*
X-210240D01*
Y30257D01*
X-210343D01*
Y30879D01*
X-210447D01*
Y30050D01*
X-210343D01*
Y29946D01*
X-210136D01*
Y29635D01*
X-210240D01*
Y29843D01*
X-210343D01*
Y29635D01*
X-210240D01*
Y29532D01*
X-210343D01*
Y29428D01*
X-210240D01*
Y29220D01*
X-210343D01*
Y29117D01*
X-210240D01*
Y28806D01*
X-210136D01*
Y28702D01*
X-210032D01*
Y28806D01*
X-209825D01*
Y28702D01*
X-209928D01*
Y28495D01*
X-209825D01*
Y28391D01*
X-209928D01*
Y28287D01*
X-209825D01*
Y28080D01*
X-209721D01*
Y27976D01*
X-209618D01*
Y28184D01*
X-209514D01*
Y28287D01*
X-209410D01*
Y28080D01*
X-209514D01*
Y27873D01*
X-209618D01*
Y27769D01*
X-209410D01*
Y27873D01*
X-209099D01*
Y27769D01*
X-209203D01*
Y27665D01*
X-209099D01*
Y27354D01*
X-208995D01*
Y23000D01*
X-212417D01*
Y26732D01*
X-210654D01*
Y26836D01*
X-211069D01*
Y26940D01*
X-210654D01*
Y27147D01*
X-210758D01*
Y27251D01*
X-210654D01*
Y27354D01*
X-210758D01*
Y27562D01*
X-210862D01*
Y27354D01*
X-211069D01*
Y27665D01*
X-211173D01*
Y27873D01*
X-211380D01*
Y27976D01*
X-211484D01*
Y28080D01*
X-211587D01*
Y28184D01*
X-211691D01*
Y28391D01*
X-211795D01*
Y28495D01*
X-211691D01*
Y28598D01*
X-211795D01*
Y28702D01*
X-212002D01*
Y28909D01*
X-212106D01*
Y29013D01*
X-212002D01*
Y29220D01*
X-212106D01*
Y29324D01*
X-212209D01*
Y29532D01*
X-212417D01*
Y29946D01*
X-212520D01*
Y30050D01*
X-212624D01*
Y29946D01*
X-212728D01*
Y30154D01*
X-212624D01*
Y30257D01*
X-212520D01*
Y30361D01*
X-212624D01*
Y30464D01*
X-212728D01*
Y30672D01*
X-212624D01*
Y30879D01*
X-212728D01*
Y31501D01*
X-212831D01*
Y32953D01*
X-212728D01*
Y33056D01*
X-212831D01*
Y33160D01*
X-212728D01*
Y33575D01*
X-212624D01*
Y33782D01*
X-212831D01*
Y33886D01*
X-212728D01*
Y33989D01*
X-212624D01*
Y34093D01*
X-212520D01*
Y34197D01*
X-212624D01*
Y34300D01*
X-212520D01*
Y34508D01*
X-212313D01*
Y34819D01*
X-212520D01*
Y35130D01*
X-212417D01*
Y34922D01*
X-212313D01*
Y35130D01*
X-212209D01*
Y35234D01*
X-212002D01*
Y35337D01*
X-211898D01*
Y35441D01*
X-212002D01*
Y35648D01*
X-212106D01*
Y35752D01*
X-211898D01*
Y35856D01*
X-211795D01*
Y35752D01*
X-211691D01*
Y35856D01*
X-211795D01*
Y35959D01*
X-211484D01*
Y36063D01*
X-211587D01*
Y36270D01*
X-211484D01*
Y36167D01*
X-211380D01*
Y36270D01*
X-211484D01*
Y36374D01*
X-211380D01*
Y36478D01*
X-211276D01*
Y36581D01*
X-211173D01*
Y36478D01*
X-211069D01*
Y36685D01*
X-210965D01*
Y36581D01*
X-210862D01*
Y36789D01*
X-210965D01*
Y36892D01*
X-210758D01*
Y36789D01*
X-210654D01*
Y36996D01*
X-210758D01*
Y37307D01*
X-210551D01*
Y37203D01*
X-210343D01*
Y37307D01*
X-210240D01*
Y37411D01*
X-210032D01*
Y37514D01*
X-209928D01*
Y37618D01*
X-209825D01*
Y37514D01*
X-209721D01*
Y37722D01*
X-209825D01*
Y37825D01*
X-209618D01*
Y37722D01*
X-209514D01*
Y37618D01*
X-209410D01*
Y37825D01*
X-209099D01*
Y37929D01*
X-208995D01*
Y33471D01*
D02*
G37*
G36*
X-221955Y21860D02*
X-221540D01*
Y21756D01*
X-221851D01*
Y21549D01*
X-221747D01*
Y21652D01*
X-221644D01*
Y21549D01*
X-221333D01*
Y21445D01*
X-221125D01*
Y21652D01*
X-221022D01*
Y21549D01*
X-220814D01*
Y21445D01*
X-221022D01*
Y21341D01*
X-220814D01*
Y21134D01*
X-220918D01*
Y21030D01*
X-220607D01*
Y21134D01*
X-220503D01*
Y21030D01*
X-220400D01*
Y20926D01*
X-220607D01*
Y20823D01*
X-220400D01*
Y20615D01*
X-220296D01*
Y20823D01*
X-220192D01*
Y20719D01*
X-220089D01*
Y20615D01*
X-219985D01*
Y20201D01*
X-219778D01*
Y20097D01*
X-219674D01*
Y19993D01*
X-219570D01*
Y19890D01*
X-219674D01*
Y19786D01*
X-219466D01*
Y19682D01*
X-219363D01*
Y19579D01*
X-219570D01*
Y19475D01*
X-219363D01*
Y19268D01*
X-219466D01*
Y19164D01*
X-219363D01*
Y19060D01*
X-219156D01*
Y18957D01*
X-219259D01*
Y18853D01*
X-219156D01*
Y18749D01*
X-219052D01*
Y18646D01*
X-219156D01*
Y18438D01*
X-219052D01*
Y17920D01*
X-218948D01*
Y17816D01*
X-218845D01*
Y17194D01*
X-218533D01*
Y17091D01*
X-218741D01*
Y15847D01*
X-218637D01*
Y15743D01*
X-218741D01*
Y13980D01*
X-218845D01*
Y13877D01*
X-218741D01*
Y13669D01*
X-218637D01*
Y13773D01*
X-218533D01*
Y13462D01*
X-218637D01*
Y13358D01*
X-218845D01*
Y13255D01*
X-218741D01*
Y13151D01*
X-218845D01*
Y12633D01*
X-218948D01*
Y12425D01*
X-219052D01*
Y12322D01*
X-218948D01*
Y12218D01*
X-219052D01*
Y12114D01*
X-218845D01*
Y11803D01*
X-218948D01*
Y12011D01*
X-219052D01*
Y11803D01*
X-218948D01*
Y11285D01*
X-219052D01*
Y11596D01*
X-219156D01*
Y11285D01*
X-219363D01*
Y11181D01*
X-219259D01*
Y11078D01*
X-219363D01*
Y10870D01*
X-219466D01*
Y10663D01*
X-219570D01*
Y10559D01*
X-219466D01*
Y10455D01*
X-219570D01*
Y10144D01*
X-219674D01*
Y10041D01*
X-219778D01*
Y9937D01*
X-219881D01*
Y9833D01*
X-219674D01*
Y9730D01*
X-219881D01*
Y9522D01*
X-219985D01*
Y9419D01*
X-220192D01*
Y9315D01*
X-220089D01*
Y9108D01*
X-220192D01*
Y9211D01*
X-220296D01*
Y9108D01*
X-220192D01*
Y9004D01*
X-220296D01*
Y8900D01*
X-220503D01*
Y8589D01*
X-220607D01*
Y8797D01*
X-220711D01*
Y8693D01*
X-220814D01*
Y8486D01*
X-220711D01*
Y8382D01*
X-220814D01*
Y8278D01*
X-220918D01*
Y8175D01*
X-221022D01*
Y8278D01*
X-221125D01*
Y8175D01*
X-221022D01*
Y8071D01*
X-221125D01*
Y7967D01*
X-221229D01*
Y7864D01*
X-221436D01*
Y7967D01*
X-221333D01*
Y8071D01*
X-221540D01*
Y8175D01*
X-221644D01*
Y8278D01*
X-221747D01*
Y8693D01*
X-221851D01*
Y8797D01*
X-221955D01*
Y8589D01*
X-222058D01*
Y8693D01*
X-222162D01*
Y8589D01*
X-222266D01*
Y8693D01*
X-222369D01*
Y8797D01*
X-222266D01*
Y8900D01*
X-222162D01*
Y8797D01*
X-222058D01*
Y9004D01*
X-222162D01*
Y9108D01*
X-222266D01*
Y9211D01*
X-222577D01*
Y9315D01*
X-222369D01*
Y9419D01*
X-222680D01*
Y9626D01*
X-222784D01*
Y9730D01*
X-222992D01*
Y9937D01*
X-222888D01*
Y10041D01*
X-222784D01*
Y10144D01*
X-222680D01*
Y10248D01*
X-222577D01*
Y10144D01*
X-222473D01*
Y10248D01*
X-222577D01*
Y10352D01*
X-222473D01*
Y10455D01*
X-222369D01*
Y10352D01*
X-222266D01*
Y10870D01*
X-222162D01*
Y10974D01*
X-222058D01*
Y10870D01*
X-221955D01*
Y10974D01*
X-221851D01*
Y11078D01*
X-221955D01*
Y11181D01*
X-221851D01*
Y11388D01*
X-221644D01*
Y11492D01*
X-221851D01*
Y11596D01*
X-221644D01*
Y11907D01*
X-221540D01*
Y11803D01*
X-221436D01*
Y11907D01*
X-221540D01*
Y12011D01*
X-221436D01*
Y12425D01*
X-221333D01*
Y12840D01*
X-221229D01*
Y13047D01*
X-221125D01*
Y13151D01*
X-221229D01*
Y13255D01*
X-221333D01*
Y13669D01*
X-221229D01*
Y13358D01*
X-221125D01*
Y13669D01*
X-221022D01*
Y13877D01*
X-221125D01*
Y13773D01*
X-221229D01*
Y14291D01*
X-221125D01*
Y14188D01*
X-221022D01*
Y16676D01*
X-221125D01*
Y16365D01*
X-221229D01*
Y16780D01*
X-221125D01*
Y16883D01*
X-221022D01*
Y16987D01*
X-221125D01*
Y17505D01*
X-221229D01*
Y17402D01*
X-221436D01*
Y17505D01*
X-221333D01*
Y17609D01*
X-221436D01*
Y17816D01*
X-221540D01*
Y18024D01*
X-221747D01*
Y18127D01*
X-221644D01*
Y18335D01*
X-221747D01*
Y18231D01*
X-221851D01*
Y18335D01*
X-222473D01*
Y18438D01*
X-222784D01*
Y18335D01*
X-222888D01*
Y18231D01*
X-223095D01*
Y18127D01*
X-223199D01*
Y17920D01*
X-223406D01*
Y18024D01*
X-223510D01*
Y17920D01*
X-223406D01*
Y17816D01*
X-223510D01*
Y17505D01*
X-223613D01*
Y17194D01*
X-223717D01*
Y16987D01*
X-223613D01*
Y17091D01*
X-223510D01*
Y16883D01*
X-223717D01*
Y16572D01*
X-223821D01*
Y15950D01*
X-223925D01*
Y15847D01*
X-223821D01*
Y15743D01*
X-223925D01*
Y15432D01*
X-224028D01*
Y15224D01*
X-223925D01*
Y15017D01*
X-224028D01*
Y14913D01*
X-223925D01*
Y14810D01*
X-224028D01*
Y14291D01*
X-224132D01*
Y14188D01*
X-223821D01*
Y13980D01*
X-223925D01*
Y14084D01*
X-224028D01*
Y13877D01*
X-224132D01*
Y13773D01*
X-223925D01*
Y13669D01*
X-224132D01*
Y13358D01*
X-224235D01*
Y12736D01*
X-224339D01*
Y12633D01*
X-224235D01*
Y12425D01*
X-224339D01*
Y12011D01*
X-224443D01*
Y11907D01*
X-224235D01*
Y11803D01*
X-224339D01*
Y11700D01*
X-224235D01*
Y11596D01*
X-224547D01*
Y11492D01*
X-224443D01*
Y11285D01*
X-224650D01*
Y11181D01*
X-224547D01*
Y11078D01*
X-224650D01*
Y10974D01*
X-224754D01*
Y10767D01*
X-224650D01*
Y10663D01*
X-224754D01*
Y10559D01*
X-224547D01*
Y10455D01*
X-224650D01*
Y10248D01*
X-224754D01*
Y10455D01*
X-224858D01*
Y10559D01*
X-224961D01*
Y10455D01*
X-224858D01*
Y10352D01*
X-224961D01*
Y10144D01*
X-225065D01*
Y10041D01*
X-225169D01*
Y9937D01*
X-225272D01*
Y9833D01*
X-225376D01*
Y9626D01*
X-225272D01*
Y9522D01*
X-225376D01*
Y9419D01*
X-225480D01*
Y9315D01*
X-225583D01*
Y9522D01*
X-225687D01*
Y9419D01*
X-225791D01*
Y9211D01*
X-225894D01*
Y9108D01*
X-225998D01*
Y8900D01*
X-226102D01*
Y9108D01*
X-226205D01*
Y9004D01*
X-226309D01*
Y8900D01*
X-226205D01*
Y8797D01*
X-226413D01*
Y8589D01*
X-226516D01*
Y8693D01*
X-226724D01*
Y8797D01*
X-226827D01*
Y8693D01*
X-227035D01*
Y8589D01*
X-227346D01*
Y12218D01*
X-227242D01*
Y12322D01*
X-227138D01*
Y12425D01*
X-227035D01*
Y12529D01*
X-227138D01*
Y12736D01*
X-226931D01*
Y13047D01*
X-226827D01*
Y13151D01*
X-226931D01*
Y13358D01*
X-226827D01*
Y13462D01*
X-226724D01*
Y13566D01*
X-226827D01*
Y13773D01*
X-226724D01*
Y13877D01*
X-226827D01*
Y13980D01*
X-226724D01*
Y14084D01*
X-226620D01*
Y14188D01*
X-226724D01*
Y14395D01*
X-226620D01*
Y14913D01*
X-226827D01*
Y15121D01*
X-226620D01*
Y15639D01*
X-226516D01*
Y15743D01*
X-226620D01*
Y15847D01*
X-226516D01*
Y16261D01*
X-226413D01*
Y16468D01*
X-226516D01*
Y16572D01*
X-226413D01*
Y17194D01*
X-226309D01*
Y17298D01*
X-226413D01*
Y17402D01*
X-226309D01*
Y17816D01*
X-226413D01*
Y17713D01*
X-226516D01*
Y18127D01*
X-226413D01*
Y17920D01*
X-226309D01*
Y18335D01*
X-226205D01*
Y18542D01*
X-226102D01*
Y18646D01*
X-226205D01*
Y18749D01*
X-226102D01*
Y18853D01*
X-225998D01*
Y18957D01*
X-226102D01*
Y19060D01*
X-226205D01*
Y19268D01*
X-226102D01*
Y19164D01*
X-225894D01*
Y19371D01*
X-225998D01*
Y19475D01*
X-226102D01*
Y19786D01*
X-225998D01*
Y19579D01*
X-225894D01*
Y19475D01*
X-225791D01*
Y19579D01*
X-225894D01*
Y19786D01*
X-225791D01*
Y19682D01*
X-225687D01*
Y19786D01*
X-225791D01*
Y19890D01*
X-225687D01*
Y20305D01*
X-225480D01*
Y20408D01*
X-225272D01*
Y20512D01*
X-225480D01*
Y20615D01*
X-225376D01*
Y20719D01*
X-225272D01*
Y20823D01*
X-225169D01*
Y20926D01*
X-225065D01*
Y20823D01*
X-224961D01*
Y20926D01*
X-225065D01*
Y21030D01*
X-224650D01*
Y21134D01*
X-224547D01*
Y21341D01*
X-224650D01*
Y21549D01*
X-224547D01*
Y21652D01*
X-224235D01*
Y21549D01*
X-224132D01*
Y21445D01*
X-224028D01*
Y21652D01*
X-223717D01*
Y21756D01*
X-223613D01*
Y21860D01*
X-223510D01*
Y21963D01*
X-223406D01*
Y21860D01*
X-223302D01*
Y21756D01*
X-222992D01*
Y21652D01*
X-222888D01*
Y21756D01*
X-222784D01*
Y21652D01*
X-222680D01*
Y21756D01*
X-222473D01*
Y21652D01*
X-222162D01*
Y21756D01*
X-222266D01*
Y21963D01*
X-221955D01*
Y21860D01*
D02*
G37*
G36*
X-210551Y21341D02*
X-210447D01*
Y21134D01*
X-210343D01*
Y20926D01*
X-210240D01*
Y21030D01*
X-210136D01*
Y20823D01*
X-209928D01*
Y20615D01*
X-209721D01*
Y20408D01*
X-209514D01*
Y20201D01*
X-209307D01*
Y19993D01*
X-209099D01*
Y20201D01*
X-208995D01*
Y19890D01*
X-209203D01*
Y19579D01*
X-209307D01*
Y19475D01*
X-209410D01*
Y19268D01*
X-209514D01*
Y19371D01*
X-209618D01*
Y19268D01*
X-209721D01*
Y19060D01*
X-209618D01*
Y18957D01*
X-209514D01*
Y18749D01*
X-209618D01*
Y18853D01*
X-209721D01*
Y18957D01*
X-209825D01*
Y18853D01*
X-209928D01*
Y18646D01*
X-210032D01*
Y18335D01*
X-209928D01*
Y18231D01*
X-210136D01*
Y18127D01*
X-210032D01*
Y18024D01*
X-210136D01*
Y17920D01*
X-210240D01*
Y17816D01*
X-210136D01*
Y17713D01*
X-210240D01*
Y17609D01*
X-210343D01*
Y17505D01*
X-210240D01*
Y17402D01*
X-210343D01*
Y17298D01*
X-210136D01*
Y17194D01*
X-210343D01*
Y16883D01*
X-210447D01*
Y16572D01*
X-210551D01*
Y15536D01*
X-210654D01*
Y15224D01*
X-210343D01*
Y15121D01*
X-210447D01*
Y14499D01*
X-210551D01*
Y14913D01*
X-210654D01*
Y13980D01*
X-210551D01*
Y13877D01*
X-210654D01*
Y13773D01*
X-210551D01*
Y13669D01*
X-210654D01*
Y13566D01*
X-210551D01*
Y13358D01*
X-210447D01*
Y13255D01*
X-210551D01*
Y13151D01*
X-210447D01*
Y13047D01*
X-210343D01*
Y13358D01*
X-210240D01*
Y12944D01*
X-210343D01*
Y12736D01*
X-210447D01*
Y12633D01*
X-210240D01*
Y12529D01*
X-210136D01*
Y12425D01*
X-210032D01*
Y12322D01*
X-209928D01*
Y12114D01*
X-209721D01*
Y12011D01*
X-209618D01*
Y11907D01*
X-209514D01*
Y12011D01*
X-209410D01*
Y11907D01*
X-209099D01*
Y12011D01*
X-208995D01*
Y8486D01*
X-209203D01*
Y8589D01*
X-209410D01*
Y8486D01*
X-209514D01*
Y8589D01*
X-209721D01*
Y8693D01*
X-209825D01*
Y8589D01*
X-209928D01*
Y8693D01*
X-210136D01*
Y8797D01*
X-210240D01*
Y8900D01*
X-210447D01*
Y9004D01*
X-210551D01*
Y9108D01*
X-210862D01*
Y9315D01*
X-210965D01*
Y9211D01*
X-211173D01*
Y9315D01*
X-211069D01*
Y9419D01*
X-211173D01*
Y9522D01*
X-211484D01*
Y9626D01*
X-211587D01*
Y9730D01*
X-211691D01*
Y9626D01*
X-211795D01*
Y9833D01*
X-211587D01*
Y9937D01*
X-211691D01*
Y10041D01*
X-211795D01*
Y10144D01*
X-211898D01*
Y10352D01*
X-212002D01*
Y10559D01*
X-212106D01*
Y10663D01*
X-212209D01*
Y10559D01*
X-212313D01*
Y10767D01*
X-212002D01*
Y10870D01*
X-212209D01*
Y10974D01*
X-212520D01*
Y11078D01*
X-212209D01*
Y11388D01*
X-212313D01*
Y11596D01*
X-212417D01*
Y11700D01*
X-212520D01*
Y12011D01*
X-212624D01*
Y12218D01*
X-212520D01*
Y12322D01*
X-212624D01*
Y12633D01*
X-212728D01*
Y12736D01*
X-212624D01*
Y12840D01*
X-212728D01*
Y12944D01*
X-212624D01*
Y13047D01*
X-212728D01*
Y13255D01*
X-212831D01*
Y13358D01*
X-212728D01*
Y13462D01*
X-212831D01*
Y16365D01*
X-212728D01*
Y16572D01*
X-212831D01*
Y16676D01*
X-212728D01*
Y16780D01*
X-212624D01*
Y16987D01*
X-212728D01*
Y17298D01*
X-212624D01*
Y17505D01*
X-212728D01*
Y17609D01*
X-212624D01*
Y18024D01*
X-212520D01*
Y18127D01*
X-212417D01*
Y18335D01*
X-212313D01*
Y18438D01*
X-212417D01*
Y18542D01*
X-212313D01*
Y18957D01*
X-212209D01*
Y19060D01*
X-212313D01*
Y19164D01*
X-212106D01*
Y19682D01*
X-212002D01*
Y19579D01*
X-211898D01*
Y19682D01*
X-212002D01*
Y19890D01*
X-211898D01*
Y20201D01*
X-211795D01*
Y20305D01*
X-211691D01*
Y20512D01*
X-211795D01*
Y20719D01*
X-211691D01*
Y20615D01*
X-211587D01*
Y20719D01*
X-211484D01*
Y20615D01*
X-211380D01*
Y20719D01*
X-211484D01*
Y20926D01*
X-211276D01*
Y21134D01*
X-211173D01*
Y21237D01*
X-211069D01*
Y21445D01*
X-210965D01*
Y21341D01*
X-210862D01*
Y21445D01*
X-210551D01*
Y21341D01*
D02*
G37*
G36*
X-225998Y7034D02*
X-224443D01*
Y-3955D01*
X-224235D01*
Y-4163D01*
X-223925D01*
Y-4059D01*
X-223510D01*
Y-3955D01*
X-223302D01*
Y-4059D01*
X-223199D01*
Y-3955D01*
X-222992D01*
Y-3852D01*
X-222888D01*
Y-3644D01*
X-222784D01*
Y-3748D01*
X-222577D01*
Y-3437D01*
X-222473D01*
Y-3333D01*
X-222369D01*
Y-3437D01*
X-222266D01*
Y-3126D01*
X-222162D01*
Y-3230D01*
X-222058D01*
Y-2919D01*
X-221955D01*
Y-2711D01*
X-221851D01*
Y-2504D01*
X-221644D01*
Y-2296D01*
X-221540D01*
Y-2400D01*
X-221436D01*
Y-2089D01*
X-221644D01*
Y-1674D01*
X-221540D01*
Y-1985D01*
X-221333D01*
Y-1778D01*
X-221436D01*
Y-1571D01*
X-221333D01*
Y-1674D01*
X-221229D01*
Y-1571D01*
X-221333D01*
Y-1363D01*
X-221436D01*
Y-1156D01*
X-221333D01*
Y-1260D01*
X-221125D01*
Y-1156D01*
X-221229D01*
Y-1052D01*
X-221125D01*
Y-949D01*
X-221229D01*
Y-845D01*
X-221125D01*
Y-741D01*
X-221333D01*
Y-638D01*
X-221125D01*
Y710D01*
X-221229D01*
Y814D01*
X-221125D01*
Y917D01*
X-221229D01*
Y1229D01*
X-221333D01*
Y1332D01*
X-221229D01*
Y1540D01*
X-221333D01*
Y1643D01*
X-221540D01*
Y1540D01*
X-221644D01*
Y1954D01*
X-221540D01*
Y1747D01*
X-221436D01*
Y1954D01*
X-221540D01*
Y2058D01*
X-221436D01*
Y2162D01*
X-221644D01*
Y2369D01*
X-221540D01*
Y2473D01*
X-221851D01*
Y2680D01*
X-221955D01*
Y2784D01*
X-221851D01*
Y2991D01*
X-221955D01*
Y2887D01*
X-222266D01*
Y2991D01*
X-222058D01*
Y3198D01*
X-222162D01*
Y3406D01*
X-222266D01*
Y3198D01*
X-222369D01*
Y3406D01*
X-222473D01*
Y3198D01*
X-222577D01*
Y3302D01*
X-222680D01*
Y3406D01*
X-222577D01*
Y3613D01*
X-222784D01*
Y3924D01*
X-222888D01*
Y4028D01*
X-223095D01*
Y4131D01*
X-222784D01*
Y4028D01*
X-222680D01*
Y4235D01*
X-222784D01*
Y4339D01*
X-222577D01*
Y4650D01*
X-222473D01*
Y4753D01*
X-222577D01*
Y4857D01*
X-222369D01*
Y4961D01*
X-222473D01*
Y5064D01*
X-222369D01*
Y5272D01*
X-222058D01*
Y5479D01*
X-222162D01*
Y5583D01*
X-222266D01*
Y5790D01*
X-221955D01*
Y6101D01*
X-221851D01*
Y5997D01*
X-221747D01*
Y6101D01*
X-221851D01*
Y6412D01*
X-221747D01*
Y6309D01*
X-221644D01*
Y6412D01*
X-221540D01*
Y6309D01*
X-221436D01*
Y6516D01*
X-221333D01*
Y6412D01*
X-221229D01*
Y6205D01*
X-221022D01*
Y6101D01*
X-221125D01*
Y5997D01*
X-220814D01*
Y5894D01*
X-220918D01*
Y5790D01*
X-220814D01*
Y5687D01*
X-220711D01*
Y5583D01*
X-220400D01*
Y5479D01*
X-220607D01*
Y5375D01*
X-220192D01*
Y4961D01*
X-219985D01*
Y4753D01*
X-219674D01*
Y4650D01*
X-219881D01*
Y4442D01*
X-219778D01*
Y4546D01*
X-219674D01*
Y4235D01*
X-219778D01*
Y4131D01*
X-219570D01*
Y4028D01*
X-219466D01*
Y3613D01*
X-219259D01*
Y3406D01*
X-219363D01*
Y3302D01*
X-219259D01*
Y3198D01*
X-219156D01*
Y3095D01*
X-219259D01*
Y2991D01*
X-219156D01*
Y2887D01*
X-219052D01*
Y2576D01*
X-218948D01*
Y1954D01*
X-218845D01*
Y1850D01*
X-218741D01*
Y1747D01*
X-218845D01*
Y1229D01*
X-218741D01*
Y-534D01*
X-218637D01*
Y-638D01*
X-218741D01*
Y-1571D01*
X-218845D01*
Y-1778D01*
X-218741D01*
Y-1674D01*
X-218637D01*
Y-1778D01*
X-218533D01*
Y-1985D01*
X-218637D01*
Y-1882D01*
X-218741D01*
Y-2089D01*
X-218845D01*
Y-2193D01*
X-218948D01*
Y-2296D01*
X-218845D01*
Y-2400D01*
X-218948D01*
Y-2607D01*
X-219052D01*
Y-2711D01*
X-218948D01*
Y-2815D01*
X-219052D01*
Y-3333D01*
X-218948D01*
Y-3644D01*
X-219052D01*
Y-3437D01*
X-219156D01*
Y-3541D01*
X-219259D01*
Y-3644D01*
X-219156D01*
Y-3748D01*
X-219259D01*
Y-3955D01*
X-219363D01*
Y-4059D01*
X-219466D01*
Y-4163D01*
X-219363D01*
Y-4266D01*
X-219466D01*
Y-4577D01*
X-219570D01*
Y-4785D01*
X-219674D01*
Y-4681D01*
X-219778D01*
Y-4992D01*
X-219674D01*
Y-5096D01*
X-219985D01*
Y-5199D01*
X-220089D01*
Y-5303D01*
X-219985D01*
Y-5407D01*
X-220089D01*
Y-5614D01*
X-220192D01*
Y-5718D01*
X-220400D01*
Y-5925D01*
X-220503D01*
Y-6132D01*
X-220711D01*
Y-6029D01*
X-220814D01*
Y-6132D01*
X-220711D01*
Y-6340D01*
X-220814D01*
Y-6547D01*
X-220918D01*
Y-6443D01*
X-221022D01*
Y-6547D01*
X-221333D01*
Y-6858D01*
X-221229D01*
Y-6962D01*
X-221436D01*
Y-6858D01*
X-221644D01*
Y-6962D01*
X-221747D01*
Y-6858D01*
X-221955D01*
Y-7065D01*
X-222058D01*
Y-7169D01*
X-222162D01*
Y-7273D01*
X-222369D01*
Y-7376D01*
X-222680D01*
Y-7480D01*
X-227346D01*
Y-4163D01*
X-227242D01*
Y-4059D01*
X-227138D01*
Y-4163D01*
X-227035D01*
Y-4059D01*
X-227138D01*
Y-3955D01*
X-226931D01*
Y-4059D01*
X-226724D01*
Y-4163D01*
X-226516D01*
Y-4059D01*
X-226620D01*
Y-3955D01*
X-226516D01*
Y-3852D01*
X-226413D01*
Y2576D01*
X-226516D01*
Y3198D01*
X-227138D01*
Y3095D01*
X-227035D01*
Y2991D01*
X-227242D01*
Y3095D01*
X-227346D01*
Y6723D01*
X-227035D01*
Y6827D01*
X-226931D01*
Y7034D01*
X-226724D01*
Y6931D01*
X-226516D01*
Y6827D01*
X-226413D01*
Y6931D01*
X-226102D01*
Y7034D01*
X-226205D01*
Y7138D01*
X-225998D01*
Y7034D01*
D02*
G37*
G36*
X-208995Y2991D02*
X-209099D01*
Y2887D01*
X-209203D01*
Y2784D01*
X-209307D01*
Y2887D01*
X-209514D01*
Y2784D01*
X-209410D01*
Y2680D01*
X-209618D01*
Y2784D01*
X-209721D01*
Y2473D01*
X-209825D01*
Y2576D01*
X-209928D01*
Y2473D01*
X-210032D01*
Y2265D01*
X-210136D01*
Y2162D01*
X-210032D01*
Y2058D01*
X-210240D01*
Y1747D01*
X-210447D01*
Y1436D01*
X-210551D01*
Y1229D01*
X-210654D01*
Y1125D01*
X-210758D01*
Y1021D01*
X-210551D01*
Y917D01*
X-210654D01*
Y814D01*
X-210758D01*
Y606D01*
X-210862D01*
Y503D01*
X-210758D01*
Y399D01*
X-210862D01*
Y-1260D01*
X-210758D01*
Y-1571D01*
X-210551D01*
Y-1778D01*
X-210447D01*
Y-1985D01*
X-210551D01*
Y-1882D01*
X-210654D01*
Y-1778D01*
X-210758D01*
Y-1985D01*
X-210654D01*
Y-2193D01*
X-210551D01*
Y-2296D01*
X-210447D01*
Y-2607D01*
X-210032D01*
Y-2815D01*
X-210136D01*
Y-2711D01*
X-210240D01*
Y-2919D01*
X-210343D01*
Y-3022D01*
X-210240D01*
Y-3126D01*
X-210136D01*
Y-2919D01*
X-210032D01*
Y-3230D01*
X-209928D01*
Y-3437D01*
X-209721D01*
Y-3541D01*
X-209618D01*
Y-3644D01*
X-209410D01*
Y-3748D01*
X-209307D01*
Y-3852D01*
X-209203D01*
Y-3748D01*
X-208995D01*
Y-3852D01*
X-209099D01*
Y-3955D01*
X-208995D01*
Y-7273D01*
X-209203D01*
Y-7169D01*
X-209307D01*
Y-7065D01*
X-209514D01*
Y-6962D01*
X-209825D01*
Y-6754D01*
X-209928D01*
Y-6651D01*
X-210032D01*
Y-6754D01*
X-209928D01*
Y-6858D01*
X-210032D01*
Y-6962D01*
X-210240D01*
Y-6858D01*
X-210136D01*
Y-6547D01*
X-210240D01*
Y-6443D01*
X-210447D01*
Y-6340D01*
X-210551D01*
Y-6443D01*
X-210654D01*
Y-6236D01*
X-210551D01*
Y-6132D01*
X-210654D01*
Y-6029D01*
X-210862D01*
Y-5821D01*
X-211069D01*
Y-5614D01*
X-211173D01*
Y-5510D01*
X-211276D01*
Y-5614D01*
X-211380D01*
Y-5510D01*
X-211484D01*
Y-5199D01*
X-211691D01*
Y-5303D01*
X-211795D01*
Y-5096D01*
X-211691D01*
Y-4888D01*
X-211795D01*
Y-4785D01*
X-211898D01*
Y-4266D01*
X-212106D01*
Y-4163D01*
X-212209D01*
Y-3955D01*
X-212313D01*
Y-3748D01*
X-212209D01*
Y-3644D01*
X-212313D01*
Y-3541D01*
X-212417D01*
Y-3333D01*
X-212313D01*
Y-3230D01*
X-212520D01*
Y-2919D01*
X-212624D01*
Y-3230D01*
X-212728D01*
Y-2919D01*
X-212831D01*
Y-2815D01*
X-212624D01*
Y-2711D01*
X-212520D01*
Y-2607D01*
X-212728D01*
Y-2400D01*
X-212831D01*
Y-2193D01*
X-212728D01*
Y-1674D01*
X-212831D01*
Y-1985D01*
X-212935D01*
Y-1674D01*
X-213039D01*
Y-1467D01*
X-212935D01*
Y-1571D01*
X-212728D01*
Y-1467D01*
X-212831D01*
Y-1260D01*
X-212728D01*
Y-1156D01*
X-212831D01*
Y710D01*
X-212728D01*
Y917D01*
X-212831D01*
Y1021D01*
X-212728D01*
Y1229D01*
X-212624D01*
Y1332D01*
X-212728D01*
Y1747D01*
X-212831D01*
Y2369D01*
X-212728D01*
Y2680D01*
X-212624D01*
Y2369D01*
X-212417D01*
Y2473D01*
X-212520D01*
Y2680D01*
X-212417D01*
Y2887D01*
X-212520D01*
Y2991D01*
X-212313D01*
Y3302D01*
X-212417D01*
Y3613D01*
X-212313D01*
Y3406D01*
X-212209D01*
Y3509D01*
X-212106D01*
Y3613D01*
X-211898D01*
Y3717D01*
X-212209D01*
Y3613D01*
X-212313D01*
Y3820D01*
X-212209D01*
Y4028D01*
X-212106D01*
Y3820D01*
X-212002D01*
Y3924D01*
X-211898D01*
Y4028D01*
X-211795D01*
Y4131D01*
X-211898D01*
Y4235D01*
X-211691D01*
Y4339D01*
X-211587D01*
Y4442D01*
X-211484D01*
Y4546D01*
X-211587D01*
Y4753D01*
X-211484D01*
Y4857D01*
X-211276D01*
Y5064D01*
X-211173D01*
Y5168D01*
X-211069D01*
Y5064D01*
X-210965D01*
Y5168D01*
X-210862D01*
Y5375D01*
X-210758D01*
Y5479D01*
X-210654D01*
Y5375D01*
X-210551D01*
Y5479D01*
X-210654D01*
Y5687D01*
X-210551D01*
Y5790D01*
X-210447D01*
Y5687D01*
X-210343D01*
Y5790D01*
X-210447D01*
Y5894D01*
X-210240D01*
Y5790D01*
X-210136D01*
Y5894D01*
X-210032D01*
Y5997D01*
X-210136D01*
Y6101D01*
X-209928D01*
Y5997D01*
X-209825D01*
Y6101D01*
X-209928D01*
Y6205D01*
X-209721D01*
Y6101D01*
X-209618D01*
Y6205D01*
X-209721D01*
Y6309D01*
X-209410D01*
Y6516D01*
X-209307D01*
Y6619D01*
X-209203D01*
Y6516D01*
X-209099D01*
Y6619D01*
X-208995D01*
Y2991D01*
D02*
G37*
G36*
X-141403Y184606D02*
X-146181D01*
X-146007Y184408D01*
X-145841Y184194D01*
X-145524Y183766D01*
X-145373Y183552D01*
X-145230Y183338D01*
X-145096Y183132D01*
X-144977Y182934D01*
X-144858Y182751D01*
X-144755Y182577D01*
X-144668Y182426D01*
X-144596Y182300D01*
X-144533Y182197D01*
X-144493Y182110D01*
X-144478Y182086D01*
X-144462Y182062D01*
X-144454Y182054D01*
Y182046D01*
X-144303Y181761D01*
X-144168Y181476D01*
X-144042Y181190D01*
X-143915Y180913D01*
X-143804Y180643D01*
X-143709Y180382D01*
X-143614Y180136D01*
X-143526Y179906D01*
X-143455Y179692D01*
X-143392Y179494D01*
X-143336Y179328D01*
X-143289Y179177D01*
X-143257Y179058D01*
X-143241Y179011D01*
X-143233Y178971D01*
X-143217Y178939D01*
Y178916D01*
X-143209Y178908D01*
Y178900D01*
X-143138Y178599D01*
X-143067Y178314D01*
X-143011Y178044D01*
X-142964Y177782D01*
X-142916Y177537D01*
X-142885Y177307D01*
X-142853Y177101D01*
X-142829Y176903D01*
X-142805Y176728D01*
X-142797Y176578D01*
X-142782Y176443D01*
X-142774Y176332D01*
Y176245D01*
X-142766Y176182D01*
Y176142D01*
Y176126D01*
X-143994D01*
X-144018Y176396D01*
X-144042Y176657D01*
X-144073Y176911D01*
X-144105Y177157D01*
X-144145Y177394D01*
X-144184Y177608D01*
X-144224Y177822D01*
X-144263Y178012D01*
X-144295Y178187D01*
X-144335Y178337D01*
X-144367Y178472D01*
X-144398Y178591D01*
X-144422Y178686D01*
X-144438Y178749D01*
X-144454Y178789D01*
Y178805D01*
X-144549Y179130D01*
X-144660Y179447D01*
X-144771Y179764D01*
X-144882Y180065D01*
X-145000Y180358D01*
X-145119Y180636D01*
X-145238Y180897D01*
X-145349Y181143D01*
X-145452Y181364D01*
X-145547Y181571D01*
X-145634Y181745D01*
X-145714Y181896D01*
X-145777Y182014D01*
X-145801Y182070D01*
X-145825Y182110D01*
X-145841Y182141D01*
X-145856Y182165D01*
X-145864Y182173D01*
Y182181D01*
X-146039Y182482D01*
X-146205Y182767D01*
X-146379Y183037D01*
X-146546Y183290D01*
X-146704Y183520D01*
X-146855Y183742D01*
X-146998Y183940D01*
X-147140Y184122D01*
X-147259Y184281D01*
X-147378Y184424D01*
X-147473Y184542D01*
X-147560Y184638D01*
X-147624Y184717D01*
X-147679Y184772D01*
X-147711Y184812D01*
X-147719Y184820D01*
Y185755D01*
X-141403D01*
Y184606D01*
D02*
G37*
G36*
X-135721Y186024D02*
X-135380Y185985D01*
X-135229Y185961D01*
X-135079Y185937D01*
X-134944Y185905D01*
X-134817Y185874D01*
X-134698Y185842D01*
X-134595Y185810D01*
X-134500Y185787D01*
X-134429Y185763D01*
X-134366Y185739D01*
X-134326Y185723D01*
X-134294Y185715D01*
X-134286Y185707D01*
X-134136Y185644D01*
X-134001Y185573D01*
X-133874Y185493D01*
X-133755Y185414D01*
X-133644Y185335D01*
X-133541Y185248D01*
X-133454Y185168D01*
X-133367Y185089D01*
X-133296Y185018D01*
X-133232Y184946D01*
X-133177Y184883D01*
X-133137Y184836D01*
X-133105Y184788D01*
X-133082Y184756D01*
X-133066Y184733D01*
X-133058Y184725D01*
X-132987Y184606D01*
X-132923Y184479D01*
X-132868Y184360D01*
X-132820Y184241D01*
X-132749Y184004D01*
X-132701Y183797D01*
X-132677Y183702D01*
X-132670Y183615D01*
X-132662Y183536D01*
X-132654Y183472D01*
X-132646Y183417D01*
Y183377D01*
Y183354D01*
Y183346D01*
X-132654Y183219D01*
X-132662Y183100D01*
X-132701Y182870D01*
X-132757Y182664D01*
X-132820Y182482D01*
X-132852Y182403D01*
X-132876Y182331D01*
X-132907Y182276D01*
X-132931Y182220D01*
X-132955Y182181D01*
X-132971Y182149D01*
X-132987Y182133D01*
Y182125D01*
X-133058Y182030D01*
X-133129Y181935D01*
X-133296Y181761D01*
X-133462Y181602D01*
X-133636Y181476D01*
X-133787Y181364D01*
X-133850Y181325D01*
X-133914Y181285D01*
X-133961Y181262D01*
X-133993Y181238D01*
X-134017Y181230D01*
X-134025Y181222D01*
X-134136Y181166D01*
X-134262Y181111D01*
X-134397Y181063D01*
X-134548Y181008D01*
X-134857Y180905D01*
X-135174Y180810D01*
X-135316Y180770D01*
X-135459Y180731D01*
X-135586Y180699D01*
X-135689Y180667D01*
X-135784Y180643D01*
X-135855Y180627D01*
X-135895Y180620D01*
X-135911Y180612D01*
X-136157Y180556D01*
X-136370Y180501D01*
X-136569Y180453D01*
X-136751Y180406D01*
X-136909Y180358D01*
X-137052Y180319D01*
X-137179Y180287D01*
X-137290Y180255D01*
X-137377Y180231D01*
X-137456Y180200D01*
X-137520Y180184D01*
X-137575Y180168D01*
X-137607Y180152D01*
X-137638Y180144D01*
X-137646Y180136D01*
X-137654D01*
X-137765Y180089D01*
X-137868Y180049D01*
X-138050Y179954D01*
X-138201Y179859D01*
X-138320Y179764D01*
X-138415Y179685D01*
X-138486Y179621D01*
X-138518Y179582D01*
X-138534Y179573D01*
Y179566D01*
X-138621Y179431D01*
X-138692Y179296D01*
X-138740Y179161D01*
X-138772Y179035D01*
X-138787Y178932D01*
X-138803Y178844D01*
Y178813D01*
Y178789D01*
Y178773D01*
Y178765D01*
X-138795Y178599D01*
X-138764Y178440D01*
X-138716Y178298D01*
X-138669Y178179D01*
X-138613Y178076D01*
X-138574Y177997D01*
X-138550Y177965D01*
X-138542Y177941D01*
X-138526Y177933D01*
Y177925D01*
X-138407Y177790D01*
X-138280Y177672D01*
X-138138Y177569D01*
X-137995Y177481D01*
X-137876Y177410D01*
X-137821Y177386D01*
X-137773Y177362D01*
X-137733Y177347D01*
X-137702Y177331D01*
X-137686Y177323D01*
X-137678D01*
X-137464Y177252D01*
X-137234Y177196D01*
X-137020Y177164D01*
X-136814Y177133D01*
X-136727Y177125D01*
X-136640Y177117D01*
X-136569D01*
X-136505Y177109D01*
X-136378D01*
X-136077Y177125D01*
X-135792Y177157D01*
X-135665Y177172D01*
X-135538Y177196D01*
X-135427Y177228D01*
X-135316Y177252D01*
X-135221Y177275D01*
X-135134Y177307D01*
X-135063Y177331D01*
X-135000Y177347D01*
X-134944Y177370D01*
X-134912Y177378D01*
X-134888Y177394D01*
X-134881D01*
X-134762Y177450D01*
X-134651Y177513D01*
X-134540Y177577D01*
X-134445Y177640D01*
X-134358Y177703D01*
X-134278Y177767D01*
X-134144Y177885D01*
X-134033Y177989D01*
X-133961Y178076D01*
X-133930Y178107D01*
X-133914Y178131D01*
X-133906Y178147D01*
X-133898Y178155D01*
X-133787Y178345D01*
X-133700Y178543D01*
X-133636Y178749D01*
X-133581Y178939D01*
X-133557Y179027D01*
X-133541Y179106D01*
X-133533Y179185D01*
X-133518Y179249D01*
X-133510Y179296D01*
Y179336D01*
X-133502Y179360D01*
Y179368D01*
X-132281Y179265D01*
X-132289Y179082D01*
X-132313Y178908D01*
X-132337Y178734D01*
X-132376Y178575D01*
X-132416Y178424D01*
X-132464Y178274D01*
X-132511Y178139D01*
X-132559Y178020D01*
X-132606Y177901D01*
X-132654Y177806D01*
X-132693Y177719D01*
X-132733Y177640D01*
X-132765Y177584D01*
X-132788Y177537D01*
X-132804Y177513D01*
X-132812Y177505D01*
X-132915Y177362D01*
X-133018Y177236D01*
X-133129Y177109D01*
X-133248Y176998D01*
X-133359Y176895D01*
X-133478Y176792D01*
X-133597Y176713D01*
X-133708Y176633D01*
X-133811Y176562D01*
X-133906Y176507D01*
X-133993Y176451D01*
X-134064Y176411D01*
X-134128Y176380D01*
X-134175Y176356D01*
X-134207Y176348D01*
X-134215Y176340D01*
X-134389Y176277D01*
X-134572Y176213D01*
X-134936Y176118D01*
X-135309Y176055D01*
X-135491Y176031D01*
X-135657Y176007D01*
X-135824Y175991D01*
X-135966Y175984D01*
X-136101Y175968D01*
X-136212D01*
X-136307Y175960D01*
X-136434D01*
X-136624Y175968D01*
X-136814Y175976D01*
X-136996Y175991D01*
X-137171Y176023D01*
X-137329Y176047D01*
X-137488Y176079D01*
X-137631Y176118D01*
X-137765Y176150D01*
X-137884Y176190D01*
X-137995Y176221D01*
X-138090Y176253D01*
X-138169Y176285D01*
X-138225Y176308D01*
X-138272Y176324D01*
X-138304Y176332D01*
X-138312Y176340D01*
X-138463Y176411D01*
X-138605Y176499D01*
X-138740Y176578D01*
X-138867Y176665D01*
X-138986Y176752D01*
X-139089Y176847D01*
X-139184Y176927D01*
X-139271Y177014D01*
X-139342Y177093D01*
X-139414Y177164D01*
X-139469Y177236D01*
X-139517Y177291D01*
X-139548Y177339D01*
X-139572Y177370D01*
X-139588Y177394D01*
X-139596Y177402D01*
X-139675Y177529D01*
X-139746Y177664D01*
X-139802Y177790D01*
X-139857Y177925D01*
X-139905Y178044D01*
X-139937Y178171D01*
X-139968Y178282D01*
X-139992Y178393D01*
X-140008Y178496D01*
X-140024Y178583D01*
X-140032Y178670D01*
X-140040Y178734D01*
X-140048Y178789D01*
Y178836D01*
Y178860D01*
Y178868D01*
X-140040Y179011D01*
X-140032Y179153D01*
X-139984Y179415D01*
X-139952Y179534D01*
X-139921Y179653D01*
X-139881Y179756D01*
X-139841Y179859D01*
X-139802Y179946D01*
X-139762Y180025D01*
X-139731Y180089D01*
X-139699Y180152D01*
X-139675Y180192D01*
X-139651Y180231D01*
X-139643Y180247D01*
X-139635Y180255D01*
X-139556Y180366D01*
X-139469Y180469D01*
X-139271Y180667D01*
X-139065Y180834D01*
X-138859Y180984D01*
X-138764Y181040D01*
X-138677Y181095D01*
X-138589Y181143D01*
X-138526Y181182D01*
X-138463Y181214D01*
X-138423Y181238D01*
X-138391Y181246D01*
X-138383Y181254D01*
X-138265Y181301D01*
X-138122Y181357D01*
X-137963Y181404D01*
X-137797Y181460D01*
X-137623Y181515D01*
X-137440Y181563D01*
X-137084Y181658D01*
X-136909Y181705D01*
X-136751Y181745D01*
X-136600Y181784D01*
X-136474Y181808D01*
X-136370Y181840D01*
X-136291Y181856D01*
X-136259Y181864D01*
X-136236Y181872D01*
X-136220D01*
X-135935Y181935D01*
X-135681Y182006D01*
X-135451Y182070D01*
X-135245Y182133D01*
X-135071Y182189D01*
X-134904Y182252D01*
X-134770Y182308D01*
X-134651Y182355D01*
X-134548Y182403D01*
X-134468Y182442D01*
X-134397Y182482D01*
X-134350Y182514D01*
X-134310Y182537D01*
X-134278Y182553D01*
X-134270Y182569D01*
X-134262D01*
X-134199Y182633D01*
X-134144Y182704D01*
X-134049Y182847D01*
X-133985Y182989D01*
X-133938Y183132D01*
X-133914Y183251D01*
X-133898Y183298D01*
Y183346D01*
X-133890Y183385D01*
Y183409D01*
Y183425D01*
Y183433D01*
X-133898Y183544D01*
X-133914Y183647D01*
X-133938Y183750D01*
X-133977Y183845D01*
X-134056Y184027D01*
X-134159Y184178D01*
X-134255Y184297D01*
X-134294Y184344D01*
X-134342Y184384D01*
X-134373Y184424D01*
X-134397Y184447D01*
X-134413Y184455D01*
X-134421Y184463D01*
X-134532Y184542D01*
X-134651Y184606D01*
X-134778Y184669D01*
X-134912Y184717D01*
X-135198Y184796D01*
X-135483Y184844D01*
X-135610Y184859D01*
X-135737Y184875D01*
X-135847Y184883D01*
X-135942Y184891D01*
X-136022Y184899D01*
X-136133D01*
X-136339Y184891D01*
X-136529Y184875D01*
X-136711Y184851D01*
X-136878Y184828D01*
X-137028Y184788D01*
X-137163Y184748D01*
X-137290Y184709D01*
X-137409Y184661D01*
X-137504Y184614D01*
X-137591Y184574D01*
X-137670Y184534D01*
X-137726Y184495D01*
X-137773Y184471D01*
X-137813Y184447D01*
X-137829Y184431D01*
X-137837Y184424D01*
X-137940Y184328D01*
X-138035Y184225D01*
X-138114Y184122D01*
X-138185Y184004D01*
X-138249Y183892D01*
X-138304Y183774D01*
X-138391Y183552D01*
X-138431Y183441D01*
X-138455Y183346D01*
X-138478Y183259D01*
X-138494Y183179D01*
X-138502Y183116D01*
X-138510Y183068D01*
X-138518Y183037D01*
Y183029D01*
X-139754Y183124D01*
X-139746Y183282D01*
X-139723Y183433D01*
X-139659Y183726D01*
X-139628Y183861D01*
X-139588Y183988D01*
X-139540Y184099D01*
X-139501Y184209D01*
X-139453Y184305D01*
X-139414Y184392D01*
X-139374Y184471D01*
X-139342Y184534D01*
X-139311Y184582D01*
X-139287Y184622D01*
X-139279Y184645D01*
X-139271Y184653D01*
X-139184Y184780D01*
X-139089Y184891D01*
X-138883Y185105D01*
X-138780Y185192D01*
X-138669Y185279D01*
X-138566Y185359D01*
X-138470Y185422D01*
X-138368Y185485D01*
X-138280Y185541D01*
X-138201Y185581D01*
X-138130Y185620D01*
X-138074Y185644D01*
X-138035Y185668D01*
X-138003Y185684D01*
X-137995D01*
X-137837Y185747D01*
X-137670Y185802D01*
X-137345Y185890D01*
X-137020Y185953D01*
X-136870Y185977D01*
X-136727Y185993D01*
X-136592Y186008D01*
X-136466Y186024D01*
X-136355Y186032D01*
X-136259D01*
X-136180Y186040D01*
X-136077D01*
X-135721Y186024D01*
D02*
G37*
G36*
X-32125Y-99505D02*
X-32053Y-99624D01*
X-31895Y-99854D01*
X-31712Y-100076D01*
X-31538Y-100274D01*
X-31459Y-100369D01*
X-31380Y-100448D01*
X-31308Y-100520D01*
X-31245Y-100575D01*
X-31197Y-100630D01*
X-31158Y-100662D01*
X-31134Y-100686D01*
X-31126Y-100694D01*
X-30833Y-100940D01*
X-30532Y-101153D01*
X-30238Y-101352D01*
X-30104Y-101439D01*
X-29969Y-101518D01*
X-29842Y-101589D01*
X-29731Y-101653D01*
X-29628Y-101708D01*
X-29541Y-101748D01*
X-29470Y-101787D01*
X-29422Y-101811D01*
X-29383Y-101827D01*
X-29375Y-101835D01*
Y-103000D01*
X-29589Y-102913D01*
X-29802Y-102818D01*
X-30017Y-102715D01*
X-30207Y-102612D01*
X-30294Y-102564D01*
X-30373Y-102524D01*
X-30444Y-102485D01*
X-30508Y-102445D01*
X-30555Y-102421D01*
X-30595Y-102398D01*
X-30619Y-102390D01*
X-30627Y-102382D01*
X-30880Y-102223D01*
X-31102Y-102073D01*
X-31300Y-101930D01*
X-31388Y-101867D01*
X-31459Y-101811D01*
X-31530Y-101756D01*
X-31593Y-101700D01*
X-31649Y-101661D01*
X-31689Y-101621D01*
X-31720Y-101589D01*
X-31744Y-101566D01*
X-31760Y-101558D01*
X-31768Y-101550D01*
Y-109181D01*
X-32964D01*
Y-99386D01*
X-32188D01*
X-32125Y-99505D01*
D02*
G37*
G36*
X-2391Y-109181D02*
X-8485D01*
Y-108032D01*
X-3682D01*
Y-99426D01*
X-2391D01*
Y-109181D01*
D02*
G37*
G36*
X-10046D02*
X-17329D01*
Y-108032D01*
X-11338D01*
Y-104712D01*
X-16734D01*
Y-103563D01*
X-11338D01*
Y-100575D01*
X-17099D01*
Y-99426D01*
X-10046D01*
Y-109181D01*
D02*
G37*
G36*
X-19112D02*
X-22623D01*
X-22948Y-109173D01*
X-23241Y-109157D01*
X-23383Y-109142D01*
X-23510Y-109134D01*
X-23629Y-109118D01*
X-23740Y-109102D01*
X-23843Y-109086D01*
X-23930Y-109070D01*
X-24009Y-109062D01*
X-24073Y-109046D01*
X-24120Y-109039D01*
X-24160Y-109031D01*
X-24184Y-109023D01*
X-24192D01*
X-24437Y-108951D01*
X-24659Y-108872D01*
X-24857Y-108793D01*
X-24953Y-108753D01*
X-25032Y-108714D01*
X-25103Y-108674D01*
X-25166Y-108642D01*
X-25222Y-108611D01*
X-25269Y-108587D01*
X-25309Y-108563D01*
X-25333Y-108547D01*
X-25349Y-108531D01*
X-25357D01*
X-25531Y-108397D01*
X-25698Y-108254D01*
X-25848Y-108111D01*
X-25983Y-107969D01*
X-26094Y-107842D01*
X-26133Y-107787D01*
X-26173Y-107739D01*
X-26205Y-107699D01*
X-26228Y-107668D01*
X-26236Y-107652D01*
X-26244Y-107644D01*
X-26387Y-107422D01*
X-26522Y-107184D01*
X-26633Y-106946D01*
X-26728Y-106725D01*
X-26767Y-106622D01*
X-26807Y-106526D01*
X-26839Y-106439D01*
X-26862Y-106368D01*
X-26886Y-106305D01*
X-26902Y-106265D01*
X-26910Y-106233D01*
Y-106225D01*
X-26997Y-105892D01*
X-27061Y-105552D01*
X-27108Y-105227D01*
X-27124Y-105068D01*
X-27140Y-104918D01*
X-27148Y-104775D01*
X-27156Y-104648D01*
X-27164Y-104537D01*
X-27171Y-104442D01*
Y-104363D01*
Y-104300D01*
Y-104268D01*
Y-104252D01*
X-27164Y-104014D01*
X-27156Y-103777D01*
X-27140Y-103555D01*
X-27108Y-103341D01*
X-27084Y-103143D01*
X-27053Y-102952D01*
X-27013Y-102770D01*
X-26981Y-102604D01*
X-26942Y-102461D01*
X-26910Y-102326D01*
X-26870Y-102215D01*
X-26847Y-102120D01*
X-26823Y-102041D01*
X-26799Y-101986D01*
X-26791Y-101946D01*
X-26783Y-101938D01*
X-26704Y-101756D01*
X-26625Y-101573D01*
X-26537Y-101407D01*
X-26442Y-101249D01*
X-26347Y-101098D01*
X-26252Y-100963D01*
X-26157Y-100836D01*
X-26070Y-100718D01*
X-25983Y-100615D01*
X-25896Y-100527D01*
X-25824Y-100448D01*
X-25761Y-100385D01*
X-25705Y-100329D01*
X-25666Y-100298D01*
X-25642Y-100274D01*
X-25634Y-100266D01*
X-25404Y-100091D01*
X-25159Y-99941D01*
X-24921Y-99822D01*
X-24691Y-99727D01*
X-24588Y-99687D01*
X-24501Y-99656D01*
X-24414Y-99624D01*
X-24342Y-99608D01*
X-24279Y-99592D01*
X-24239Y-99576D01*
X-24208Y-99569D01*
X-24200D01*
X-24081Y-99545D01*
X-23954Y-99521D01*
X-23677Y-99489D01*
X-23391Y-99458D01*
X-23106Y-99442D01*
X-22979Y-99434D01*
X-22750D01*
X-22654Y-99426D01*
X-19112D01*
Y-109181D01*
D02*
G37*
G36*
X134832Y-104087D02*
X135030Y-104110D01*
X135228Y-104142D01*
X135410Y-104182D01*
X135576Y-104229D01*
X135743Y-104293D01*
X135886Y-104348D01*
X136020Y-104412D01*
X136139Y-104475D01*
X136250Y-104530D01*
X136345Y-104586D01*
X136417Y-104641D01*
X136480Y-104681D01*
X136519Y-104713D01*
X136551Y-104736D01*
X136559Y-104744D01*
X136702Y-104871D01*
X136821Y-105014D01*
X136940Y-105164D01*
X137043Y-105315D01*
X137130Y-105473D01*
X137217Y-105624D01*
X137288Y-105775D01*
X137344Y-105925D01*
X137399Y-106068D01*
X137439Y-106195D01*
X137478Y-106306D01*
X137502Y-106409D01*
X137526Y-106488D01*
X137542Y-106551D01*
X137550Y-106591D01*
Y-106607D01*
X136353Y-106821D01*
X136321Y-106662D01*
X136290Y-106512D01*
X136250Y-106369D01*
X136202Y-106242D01*
X136155Y-106123D01*
X136107Y-106020D01*
X136060Y-105917D01*
X136004Y-105830D01*
X135957Y-105759D01*
X135909Y-105687D01*
X135870Y-105632D01*
X135830Y-105584D01*
X135806Y-105553D01*
X135782Y-105529D01*
X135767Y-105513D01*
X135759Y-105505D01*
X135672Y-105426D01*
X135576Y-105355D01*
X135473Y-105299D01*
X135378Y-105252D01*
X135180Y-105172D01*
X134998Y-105117D01*
X134911Y-105101D01*
X134832Y-105085D01*
X134760Y-105077D01*
X134705Y-105069D01*
X134657Y-105061D01*
X134586D01*
X134459Y-105069D01*
X134332Y-105077D01*
X134110Y-105133D01*
X133912Y-105196D01*
X133825Y-105236D01*
X133746Y-105275D01*
X133674Y-105323D01*
X133611Y-105363D01*
X133564Y-105394D01*
X133516Y-105426D01*
X133484Y-105458D01*
X133461Y-105481D01*
X133445Y-105489D01*
X133437Y-105497D01*
X133357Y-105584D01*
X133286Y-105672D01*
X133231Y-105759D01*
X133175Y-105854D01*
X133128Y-105941D01*
X133096Y-106036D01*
X133041Y-106210D01*
X133009Y-106361D01*
X133001Y-106425D01*
X132993Y-106480D01*
X132985Y-106528D01*
Y-106559D01*
Y-106583D01*
Y-106591D01*
X132993Y-106741D01*
X133009Y-106876D01*
X133041Y-107011D01*
X133080Y-107130D01*
X133128Y-107241D01*
X133183Y-107344D01*
X133239Y-107431D01*
X133294Y-107510D01*
X133350Y-107589D01*
X133405Y-107645D01*
X133461Y-107700D01*
X133508Y-107740D01*
X133548Y-107780D01*
X133579Y-107803D01*
X133595Y-107811D01*
X133603Y-107819D01*
X133722Y-107891D01*
X133841Y-107946D01*
X133960Y-108001D01*
X134079Y-108049D01*
X134309Y-108120D01*
X134522Y-108168D01*
X134618Y-108184D01*
X134705Y-108192D01*
X134784Y-108200D01*
X134855Y-108208D01*
X134911Y-108216D01*
X135045D01*
X135109Y-108208D01*
X135156Y-108200D01*
X135180D01*
X135307Y-109254D01*
X135125Y-109214D01*
X134966Y-109182D01*
X134824Y-109158D01*
X134697Y-109143D01*
X134602Y-109135D01*
X134530Y-109127D01*
X134467D01*
X134316Y-109135D01*
X134166Y-109151D01*
X134031Y-109174D01*
X133904Y-109214D01*
X133778Y-109254D01*
X133667Y-109293D01*
X133564Y-109349D01*
X133469Y-109396D01*
X133381Y-109444D01*
X133310Y-109491D01*
X133247Y-109539D01*
X133191Y-109579D01*
X133152Y-109618D01*
X133120Y-109642D01*
X133104Y-109658D01*
X133096Y-109666D01*
X133001Y-109769D01*
X132914Y-109880D01*
X132842Y-109991D01*
X132779Y-110102D01*
X132724Y-110212D01*
X132684Y-110331D01*
X132644Y-110434D01*
X132620Y-110545D01*
X132597Y-110640D01*
X132581Y-110736D01*
X132565Y-110815D01*
X132557Y-110886D01*
X132549Y-110942D01*
Y-110981D01*
Y-111013D01*
Y-111021D01*
X132557Y-111179D01*
X132573Y-111330D01*
X132605Y-111473D01*
X132644Y-111615D01*
X132684Y-111742D01*
X132732Y-111861D01*
X132787Y-111972D01*
X132842Y-112067D01*
X132898Y-112162D01*
X132953Y-112241D01*
X133001Y-112305D01*
X133041Y-112368D01*
X133080Y-112408D01*
X133112Y-112447D01*
X133128Y-112463D01*
X133136Y-112471D01*
X133247Y-112574D01*
X133365Y-112661D01*
X133484Y-112740D01*
X133603Y-112804D01*
X133722Y-112859D01*
X133841Y-112907D01*
X133952Y-112947D01*
X134063Y-112978D01*
X134166Y-113002D01*
X134261Y-113018D01*
X134348Y-113034D01*
X134419Y-113042D01*
X134483D01*
X134522Y-113050D01*
X134562D01*
X134697Y-113042D01*
X134824Y-113034D01*
X135054Y-112978D01*
X135260Y-112907D01*
X135355Y-112867D01*
X135442Y-112828D01*
X135513Y-112788D01*
X135584Y-112748D01*
X135640Y-112709D01*
X135687Y-112677D01*
X135727Y-112645D01*
X135751Y-112622D01*
X135767Y-112614D01*
X135775Y-112606D01*
X135862Y-112511D01*
X135949Y-112416D01*
X136020Y-112305D01*
X136092Y-112186D01*
X136210Y-111940D01*
X136306Y-111702D01*
X136345Y-111583D01*
X136377Y-111481D01*
X136409Y-111385D01*
X136432Y-111298D01*
X136448Y-111227D01*
X136464Y-111179D01*
X136472Y-111140D01*
Y-111132D01*
X137669Y-111290D01*
X137637Y-111512D01*
X137589Y-111726D01*
X137534Y-111924D01*
X137471Y-112114D01*
X137391Y-112289D01*
X137312Y-112455D01*
X137225Y-112606D01*
X137138Y-112740D01*
X137058Y-112867D01*
X136979Y-112970D01*
X136900Y-113065D01*
X136837Y-113137D01*
X136781Y-113200D01*
X136741Y-113240D01*
X136710Y-113272D01*
X136702Y-113279D01*
X136535Y-113414D01*
X136369Y-113533D01*
X136187Y-113628D01*
X136012Y-113715D01*
X135830Y-113794D01*
X135656Y-113858D01*
X135481Y-113905D01*
X135315Y-113945D01*
X135164Y-113977D01*
X135022Y-114001D01*
X134895Y-114016D01*
X134784Y-114024D01*
X134697Y-114032D01*
X134626Y-114040D01*
X134570D01*
X134309Y-114032D01*
X134063Y-114001D01*
X133825Y-113961D01*
X133603Y-113897D01*
X133397Y-113834D01*
X133199Y-113763D01*
X133025Y-113676D01*
X132858Y-113596D01*
X132716Y-113517D01*
X132589Y-113430D01*
X132478Y-113359D01*
X132383Y-113287D01*
X132311Y-113232D01*
X132256Y-113192D01*
X132224Y-113160D01*
X132216Y-113153D01*
X132050Y-112978D01*
X131907Y-112804D01*
X131781Y-112622D01*
X131678Y-112439D01*
X131582Y-112257D01*
X131511Y-112075D01*
X131448Y-111901D01*
X131400Y-111734D01*
X131361Y-111583D01*
X131329Y-111441D01*
X131313Y-111314D01*
X131297Y-111203D01*
X131289Y-111116D01*
X131281Y-111045D01*
Y-111005D01*
Y-110989D01*
X131289Y-110815D01*
X131305Y-110648D01*
X131329Y-110498D01*
X131353Y-110347D01*
X131392Y-110205D01*
X131432Y-110078D01*
X131479Y-109959D01*
X131519Y-109848D01*
X131566Y-109753D01*
X131614Y-109666D01*
X131654Y-109594D01*
X131685Y-109531D01*
X131717Y-109483D01*
X131741Y-109452D01*
X131757Y-109428D01*
X131765Y-109420D01*
X131860Y-109309D01*
X131955Y-109198D01*
X132066Y-109111D01*
X132177Y-109024D01*
X132288Y-108945D01*
X132399Y-108881D01*
X132510Y-108818D01*
X132613Y-108762D01*
X132716Y-108723D01*
X132803Y-108683D01*
X132890Y-108651D01*
X132961Y-108628D01*
X133025Y-108612D01*
X133064Y-108596D01*
X133096Y-108588D01*
X133104D01*
X132866Y-108469D01*
X132668Y-108334D01*
X132494Y-108200D01*
X132351Y-108065D01*
X132240Y-107954D01*
X132161Y-107859D01*
X132129Y-107819D01*
X132113Y-107795D01*
X132098Y-107780D01*
Y-107772D01*
X132034Y-107669D01*
X131987Y-107573D01*
X131899Y-107367D01*
X131836Y-107177D01*
X131796Y-106995D01*
X131788Y-106916D01*
X131773Y-106845D01*
X131765Y-106781D01*
Y-106718D01*
X131757Y-106678D01*
Y-106646D01*
Y-106623D01*
Y-106615D01*
Y-106488D01*
X131773Y-106369D01*
X131812Y-106139D01*
X131868Y-105925D01*
X131931Y-105735D01*
X131971Y-105656D01*
X132002Y-105584D01*
X132034Y-105521D01*
X132058Y-105465D01*
X132082Y-105418D01*
X132098Y-105386D01*
X132105Y-105371D01*
X132113Y-105363D01*
X132256Y-105149D01*
X132422Y-104966D01*
X132597Y-104808D01*
X132763Y-104673D01*
X132914Y-104570D01*
X132977Y-104522D01*
X133033Y-104491D01*
X133080Y-104459D01*
X133112Y-104443D01*
X133136Y-104427D01*
X133144D01*
X133270Y-104364D01*
X133397Y-104309D01*
X133659Y-104229D01*
X133904Y-104166D01*
X134134Y-104118D01*
X134237Y-104110D01*
X134332Y-104095D01*
X134411Y-104087D01*
X134483D01*
X134538Y-104079D01*
X134618D01*
X134832Y-104087D01*
D02*
G37*
G36*
X143279Y-103976D02*
X143620Y-104015D01*
X143771Y-104039D01*
X143921Y-104063D01*
X144056Y-104095D01*
X144183Y-104126D01*
X144302Y-104158D01*
X144405Y-104190D01*
X144500Y-104213D01*
X144571Y-104237D01*
X144635Y-104261D01*
X144674Y-104277D01*
X144706Y-104285D01*
X144714Y-104293D01*
X144864Y-104356D01*
X144999Y-104427D01*
X145126Y-104507D01*
X145245Y-104586D01*
X145356Y-104665D01*
X145459Y-104752D01*
X145546Y-104832D01*
X145633Y-104911D01*
X145704Y-104982D01*
X145768Y-105054D01*
X145823Y-105117D01*
X145863Y-105164D01*
X145895Y-105212D01*
X145918Y-105244D01*
X145934Y-105267D01*
X145942Y-105275D01*
X146013Y-105394D01*
X146077Y-105521D01*
X146132Y-105640D01*
X146180Y-105759D01*
X146251Y-105997D01*
X146299Y-106203D01*
X146322Y-106298D01*
X146330Y-106385D01*
X146338Y-106464D01*
X146346Y-106528D01*
X146354Y-106583D01*
Y-106623D01*
Y-106646D01*
Y-106654D01*
X146346Y-106781D01*
X146338Y-106900D01*
X146299Y-107130D01*
X146243Y-107336D01*
X146180Y-107518D01*
X146148Y-107597D01*
X146124Y-107669D01*
X146093Y-107724D01*
X146069Y-107780D01*
X146045Y-107819D01*
X146029Y-107851D01*
X146013Y-107867D01*
Y-107875D01*
X145942Y-107970D01*
X145871Y-108065D01*
X145704Y-108239D01*
X145538Y-108398D01*
X145364Y-108525D01*
X145213Y-108636D01*
X145150Y-108675D01*
X145086Y-108715D01*
X145039Y-108738D01*
X145007Y-108762D01*
X144983Y-108770D01*
X144975Y-108778D01*
X144864Y-108834D01*
X144738Y-108889D01*
X144603Y-108937D01*
X144452Y-108992D01*
X144143Y-109095D01*
X143826Y-109190D01*
X143684Y-109230D01*
X143541Y-109270D01*
X143414Y-109301D01*
X143311Y-109333D01*
X143216Y-109357D01*
X143145Y-109373D01*
X143105Y-109380D01*
X143089Y-109388D01*
X142844Y-109444D01*
X142630Y-109499D01*
X142431Y-109547D01*
X142249Y-109594D01*
X142091Y-109642D01*
X141948Y-109682D01*
X141821Y-109713D01*
X141710Y-109745D01*
X141623Y-109769D01*
X141544Y-109800D01*
X141481Y-109816D01*
X141425Y-109832D01*
X141393Y-109848D01*
X141362Y-109856D01*
X141354Y-109864D01*
X141346D01*
X141235Y-109911D01*
X141132Y-109951D01*
X140949Y-110046D01*
X140799Y-110141D01*
X140680Y-110236D01*
X140585Y-110316D01*
X140514Y-110379D01*
X140482Y-110419D01*
X140466Y-110427D01*
Y-110434D01*
X140379Y-110569D01*
X140308Y-110704D01*
X140260Y-110839D01*
X140228Y-110965D01*
X140212Y-111068D01*
X140197Y-111156D01*
Y-111187D01*
Y-111211D01*
Y-111227D01*
Y-111235D01*
X140205Y-111401D01*
X140236Y-111560D01*
X140284Y-111702D01*
X140331Y-111821D01*
X140387Y-111924D01*
X140427Y-112003D01*
X140450Y-112035D01*
X140458Y-112059D01*
X140474Y-112067D01*
Y-112075D01*
X140593Y-112210D01*
X140720Y-112328D01*
X140862Y-112431D01*
X141005Y-112519D01*
X141124Y-112590D01*
X141179Y-112614D01*
X141227Y-112638D01*
X141266Y-112653D01*
X141298Y-112669D01*
X141314Y-112677D01*
X141322D01*
X141536Y-112748D01*
X141766Y-112804D01*
X141980Y-112836D01*
X142186Y-112867D01*
X142273Y-112875D01*
X142360Y-112883D01*
X142431D01*
X142495Y-112891D01*
X142622D01*
X142923Y-112875D01*
X143208Y-112844D01*
X143335Y-112828D01*
X143462Y-112804D01*
X143573Y-112772D01*
X143684Y-112748D01*
X143779Y-112725D01*
X143866Y-112693D01*
X143937Y-112669D01*
X144001Y-112653D01*
X144056Y-112630D01*
X144088Y-112622D01*
X144111Y-112606D01*
X144119D01*
X144238Y-112550D01*
X144349Y-112487D01*
X144460Y-112423D01*
X144555Y-112360D01*
X144642Y-112297D01*
X144722Y-112233D01*
X144856Y-112114D01*
X144967Y-112011D01*
X145039Y-111924D01*
X145070Y-111893D01*
X145086Y-111869D01*
X145094Y-111853D01*
X145102Y-111845D01*
X145213Y-111655D01*
X145300Y-111457D01*
X145364Y-111251D01*
X145419Y-111060D01*
X145443Y-110973D01*
X145459Y-110894D01*
X145467Y-110815D01*
X145483Y-110751D01*
X145490Y-110704D01*
Y-110664D01*
X145498Y-110640D01*
Y-110632D01*
X146719Y-110736D01*
X146711Y-110918D01*
X146687Y-111092D01*
X146663Y-111266D01*
X146624Y-111425D01*
X146584Y-111576D01*
X146537Y-111726D01*
X146489Y-111861D01*
X146441Y-111980D01*
X146394Y-112099D01*
X146346Y-112194D01*
X146307Y-112281D01*
X146267Y-112360D01*
X146235Y-112416D01*
X146212Y-112463D01*
X146196Y-112487D01*
X146188Y-112495D01*
X146085Y-112638D01*
X145982Y-112764D01*
X145871Y-112891D01*
X145752Y-113002D01*
X145641Y-113105D01*
X145522Y-113208D01*
X145403Y-113287D01*
X145292Y-113367D01*
X145189Y-113438D01*
X145094Y-113493D01*
X145007Y-113549D01*
X144936Y-113588D01*
X144872Y-113620D01*
X144825Y-113644D01*
X144793Y-113652D01*
X144785Y-113660D01*
X144611Y-113723D01*
X144429Y-113787D01*
X144064Y-113882D01*
X143692Y-113945D01*
X143509Y-113969D01*
X143343Y-113993D01*
X143176Y-114009D01*
X143034Y-114016D01*
X142899Y-114032D01*
X142788D01*
X142693Y-114040D01*
X142566D01*
X142376Y-114032D01*
X142186Y-114024D01*
X142003Y-114009D01*
X141829Y-113977D01*
X141671Y-113953D01*
X141512Y-113921D01*
X141369Y-113882D01*
X141235Y-113850D01*
X141116Y-113810D01*
X141005Y-113779D01*
X140910Y-113747D01*
X140831Y-113715D01*
X140775Y-113692D01*
X140728Y-113676D01*
X140696Y-113668D01*
X140688Y-113660D01*
X140537Y-113588D01*
X140395Y-113501D01*
X140260Y-113422D01*
X140133Y-113335D01*
X140014Y-113248D01*
X139911Y-113153D01*
X139816Y-113073D01*
X139729Y-112986D01*
X139658Y-112907D01*
X139586Y-112836D01*
X139531Y-112764D01*
X139483Y-112709D01*
X139452Y-112661D01*
X139428Y-112630D01*
X139412Y-112606D01*
X139404Y-112598D01*
X139325Y-112471D01*
X139254Y-112336D01*
X139198Y-112210D01*
X139143Y-112075D01*
X139095Y-111956D01*
X139063Y-111829D01*
X139032Y-111718D01*
X139008Y-111607D01*
X138992Y-111504D01*
X138976Y-111417D01*
X138968Y-111330D01*
X138960Y-111266D01*
X138953Y-111211D01*
Y-111164D01*
Y-111140D01*
Y-111132D01*
X138960Y-110989D01*
X138968Y-110847D01*
X139016Y-110585D01*
X139048Y-110466D01*
X139079Y-110347D01*
X139119Y-110244D01*
X139158Y-110141D01*
X139198Y-110054D01*
X139238Y-109975D01*
X139269Y-109911D01*
X139301Y-109848D01*
X139325Y-109808D01*
X139349Y-109769D01*
X139357Y-109753D01*
X139365Y-109745D01*
X139444Y-109634D01*
X139531Y-109531D01*
X139729Y-109333D01*
X139935Y-109166D01*
X140141Y-109016D01*
X140236Y-108960D01*
X140323Y-108905D01*
X140411Y-108857D01*
X140474Y-108818D01*
X140537Y-108786D01*
X140577Y-108762D01*
X140609Y-108754D01*
X140617Y-108746D01*
X140736Y-108699D01*
X140878Y-108643D01*
X141037Y-108596D01*
X141203Y-108540D01*
X141377Y-108485D01*
X141560Y-108437D01*
X141916Y-108342D01*
X142091Y-108295D01*
X142249Y-108255D01*
X142400Y-108216D01*
X142527Y-108192D01*
X142630Y-108160D01*
X142709Y-108144D01*
X142740Y-108136D01*
X142764Y-108128D01*
X142780D01*
X143065Y-108065D01*
X143319Y-107994D01*
X143549Y-107930D01*
X143755Y-107867D01*
X143929Y-107811D01*
X144096Y-107748D01*
X144230Y-107692D01*
X144349Y-107645D01*
X144452Y-107597D01*
X144531Y-107558D01*
X144603Y-107518D01*
X144650Y-107486D01*
X144690Y-107463D01*
X144722Y-107447D01*
X144730Y-107431D01*
X144738D01*
X144801Y-107367D01*
X144856Y-107296D01*
X144951Y-107154D01*
X145015Y-107011D01*
X145063Y-106868D01*
X145086Y-106749D01*
X145102Y-106702D01*
Y-106654D01*
X145110Y-106615D01*
Y-106591D01*
Y-106575D01*
Y-106567D01*
X145102Y-106456D01*
X145086Y-106353D01*
X145063Y-106250D01*
X145023Y-106155D01*
X144944Y-105973D01*
X144841Y-105822D01*
X144746Y-105703D01*
X144706Y-105656D01*
X144658Y-105616D01*
X144627Y-105576D01*
X144603Y-105553D01*
X144587Y-105545D01*
X144579Y-105537D01*
X144468Y-105458D01*
X144349Y-105394D01*
X144222Y-105331D01*
X144088Y-105283D01*
X143802Y-105204D01*
X143517Y-105156D01*
X143390Y-105141D01*
X143264Y-105125D01*
X143153Y-105117D01*
X143057Y-105109D01*
X142978Y-105101D01*
X142867D01*
X142661Y-105109D01*
X142471Y-105125D01*
X142289Y-105149D01*
X142122Y-105172D01*
X141972Y-105212D01*
X141837Y-105252D01*
X141710Y-105291D01*
X141591Y-105339D01*
X141496Y-105386D01*
X141409Y-105426D01*
X141330Y-105465D01*
X141274Y-105505D01*
X141227Y-105529D01*
X141187Y-105553D01*
X141171Y-105569D01*
X141164Y-105576D01*
X141060Y-105672D01*
X140965Y-105775D01*
X140886Y-105878D01*
X140815Y-105997D01*
X140751Y-106108D01*
X140696Y-106226D01*
X140609Y-106448D01*
X140569Y-106559D01*
X140545Y-106654D01*
X140522Y-106741D01*
X140506Y-106821D01*
X140498Y-106884D01*
X140490Y-106932D01*
X140482Y-106963D01*
Y-106971D01*
X139246Y-106876D01*
X139254Y-106718D01*
X139277Y-106567D01*
X139341Y-106274D01*
X139373Y-106139D01*
X139412Y-106012D01*
X139460Y-105901D01*
X139499Y-105791D01*
X139547Y-105695D01*
X139586Y-105608D01*
X139626Y-105529D01*
X139658Y-105465D01*
X139690Y-105418D01*
X139713Y-105378D01*
X139721Y-105355D01*
X139729Y-105347D01*
X139816Y-105220D01*
X139911Y-105109D01*
X140117Y-104895D01*
X140220Y-104808D01*
X140331Y-104721D01*
X140434Y-104641D01*
X140529Y-104578D01*
X140632Y-104515D01*
X140720Y-104459D01*
X140799Y-104419D01*
X140870Y-104380D01*
X140926Y-104356D01*
X140965Y-104332D01*
X140997Y-104317D01*
X141005D01*
X141164Y-104253D01*
X141330Y-104198D01*
X141655Y-104110D01*
X141980Y-104047D01*
X142130Y-104023D01*
X142273Y-104007D01*
X142408Y-103991D01*
X142535Y-103976D01*
X142645Y-103968D01*
X142740D01*
X142820Y-103960D01*
X142923D01*
X143279Y-103976D01*
D02*
G37*
G36*
X145287Y195024D02*
X145628Y194985D01*
X145779Y194961D01*
X145929Y194937D01*
X146064Y194905D01*
X146191Y194874D01*
X146310Y194842D01*
X146413Y194810D01*
X146508Y194787D01*
X146579Y194763D01*
X146643Y194739D01*
X146682Y194723D01*
X146714Y194715D01*
X146722Y194707D01*
X146872Y194644D01*
X147007Y194573D01*
X147134Y194493D01*
X147253Y194414D01*
X147364Y194335D01*
X147467Y194248D01*
X147554Y194168D01*
X147641Y194089D01*
X147712Y194018D01*
X147776Y193947D01*
X147831Y193883D01*
X147871Y193836D01*
X147902Y193788D01*
X147926Y193756D01*
X147942Y193733D01*
X147950Y193725D01*
X148021Y193606D01*
X148085Y193479D01*
X148140Y193360D01*
X148188Y193241D01*
X148259Y193004D01*
X148307Y192798D01*
X148330Y192702D01*
X148338Y192615D01*
X148346Y192536D01*
X148354Y192472D01*
X148362Y192417D01*
Y192377D01*
Y192354D01*
Y192346D01*
X148354Y192219D01*
X148346Y192100D01*
X148307Y191870D01*
X148251Y191664D01*
X148188Y191482D01*
X148156Y191403D01*
X148132Y191331D01*
X148101Y191276D01*
X148077Y191220D01*
X148053Y191181D01*
X148037Y191149D01*
X148021Y191133D01*
Y191125D01*
X147950Y191030D01*
X147879Y190935D01*
X147712Y190761D01*
X147546Y190602D01*
X147372Y190476D01*
X147221Y190364D01*
X147158Y190325D01*
X147094Y190285D01*
X147047Y190261D01*
X147015Y190238D01*
X146991Y190230D01*
X146983Y190222D01*
X146872Y190166D01*
X146746Y190111D01*
X146611Y190063D01*
X146460Y190008D01*
X146151Y189905D01*
X145834Y189810D01*
X145691Y189770D01*
X145549Y189731D01*
X145422Y189699D01*
X145319Y189667D01*
X145224Y189643D01*
X145153Y189627D01*
X145113Y189620D01*
X145097Y189612D01*
X144852Y189556D01*
X144637Y189501D01*
X144439Y189453D01*
X144257Y189406D01*
X144099Y189358D01*
X143956Y189319D01*
X143829Y189287D01*
X143718Y189255D01*
X143631Y189231D01*
X143552Y189200D01*
X143488Y189184D01*
X143433Y189168D01*
X143401Y189152D01*
X143370Y189144D01*
X143362Y189136D01*
X143354D01*
X143243Y189089D01*
X143140Y189049D01*
X142957Y188954D01*
X142807Y188859D01*
X142688Y188764D01*
X142593Y188685D01*
X142522Y188621D01*
X142490Y188582D01*
X142474Y188573D01*
Y188566D01*
X142387Y188431D01*
X142316Y188296D01*
X142268Y188161D01*
X142236Y188035D01*
X142220Y187932D01*
X142205Y187845D01*
Y187813D01*
Y187789D01*
Y187773D01*
Y187765D01*
X142212Y187599D01*
X142244Y187440D01*
X142292Y187298D01*
X142339Y187179D01*
X142395Y187076D01*
X142434Y186996D01*
X142458Y186965D01*
X142466Y186941D01*
X142482Y186933D01*
Y186925D01*
X142601Y186791D01*
X142728Y186672D01*
X142870Y186569D01*
X143013Y186481D01*
X143132Y186410D01*
X143187Y186386D01*
X143235Y186362D01*
X143274Y186347D01*
X143306Y186331D01*
X143322Y186323D01*
X143330D01*
X143544Y186252D01*
X143774Y186196D01*
X143988Y186164D01*
X144194Y186133D01*
X144281Y186125D01*
X144368Y186117D01*
X144439D01*
X144503Y186109D01*
X144630D01*
X144931Y186125D01*
X145216Y186157D01*
X145343Y186172D01*
X145470Y186196D01*
X145581Y186228D01*
X145691Y186252D01*
X145787Y186275D01*
X145874Y186307D01*
X145945Y186331D01*
X146009Y186347D01*
X146064Y186370D01*
X146096Y186378D01*
X146119Y186394D01*
X146127D01*
X146246Y186450D01*
X146357Y186513D01*
X146468Y186576D01*
X146563Y186640D01*
X146650Y186703D01*
X146730Y186767D01*
X146864Y186886D01*
X146975Y186989D01*
X147047Y187076D01*
X147078Y187107D01*
X147094Y187131D01*
X147102Y187147D01*
X147110Y187155D01*
X147221Y187345D01*
X147308Y187543D01*
X147372Y187749D01*
X147427Y187940D01*
X147451Y188027D01*
X147467Y188106D01*
X147475Y188185D01*
X147490Y188249D01*
X147498Y188296D01*
Y188336D01*
X147506Y188360D01*
Y188368D01*
X148727Y188265D01*
X148719Y188082D01*
X148695Y187908D01*
X148671Y187733D01*
X148632Y187575D01*
X148592Y187424D01*
X148544Y187274D01*
X148497Y187139D01*
X148449Y187020D01*
X148402Y186901D01*
X148354Y186806D01*
X148315Y186719D01*
X148275Y186640D01*
X148243Y186584D01*
X148219Y186537D01*
X148204Y186513D01*
X148196Y186505D01*
X148093Y186362D01*
X147990Y186236D01*
X147879Y186109D01*
X147760Y185998D01*
X147649Y185895D01*
X147530Y185792D01*
X147411Y185713D01*
X147300Y185633D01*
X147197Y185562D01*
X147102Y185507D01*
X147015Y185451D01*
X146944Y185411D01*
X146880Y185380D01*
X146833Y185356D01*
X146801Y185348D01*
X146793Y185340D01*
X146619Y185277D01*
X146436Y185213D01*
X146072Y185118D01*
X145699Y185055D01*
X145517Y185031D01*
X145351Y185007D01*
X145184Y184991D01*
X145042Y184984D01*
X144907Y184968D01*
X144796D01*
X144701Y184960D01*
X144574D01*
X144384Y184968D01*
X144194Y184976D01*
X144011Y184991D01*
X143837Y185023D01*
X143679Y185047D01*
X143520Y185079D01*
X143377Y185118D01*
X143243Y185150D01*
X143124Y185190D01*
X143013Y185221D01*
X142918Y185253D01*
X142839Y185285D01*
X142783Y185308D01*
X142736Y185324D01*
X142704Y185332D01*
X142696Y185340D01*
X142545Y185411D01*
X142403Y185499D01*
X142268Y185578D01*
X142141Y185665D01*
X142022Y185752D01*
X141919Y185847D01*
X141824Y185927D01*
X141737Y186014D01*
X141666Y186093D01*
X141594Y186164D01*
X141539Y186236D01*
X141491Y186291D01*
X141460Y186339D01*
X141436Y186370D01*
X141420Y186394D01*
X141412Y186402D01*
X141333Y186529D01*
X141262Y186664D01*
X141206Y186791D01*
X141151Y186925D01*
X141103Y187044D01*
X141071Y187171D01*
X141040Y187282D01*
X141016Y187393D01*
X141000Y187496D01*
X140984Y187583D01*
X140976Y187670D01*
X140968Y187733D01*
X140960Y187789D01*
Y187836D01*
Y187860D01*
Y187868D01*
X140968Y188011D01*
X140976Y188153D01*
X141024Y188415D01*
X141055Y188534D01*
X141087Y188653D01*
X141127Y188756D01*
X141166Y188859D01*
X141206Y188946D01*
X141246Y189025D01*
X141277Y189089D01*
X141309Y189152D01*
X141333Y189192D01*
X141357Y189231D01*
X141364Y189247D01*
X141372Y189255D01*
X141452Y189366D01*
X141539Y189469D01*
X141737Y189667D01*
X141943Y189834D01*
X142149Y189984D01*
X142244Y190040D01*
X142331Y190095D01*
X142418Y190143D01*
X142482Y190182D01*
X142545Y190214D01*
X142585Y190238D01*
X142617Y190246D01*
X142625Y190254D01*
X142744Y190301D01*
X142886Y190357D01*
X143045Y190404D01*
X143211Y190460D01*
X143385Y190515D01*
X143568Y190563D01*
X143924Y190658D01*
X144099Y190705D01*
X144257Y190745D01*
X144408Y190785D01*
X144535Y190808D01*
X144637Y190840D01*
X144717Y190856D01*
X144748Y190864D01*
X144772Y190872D01*
X144788D01*
X145073Y190935D01*
X145327Y191007D01*
X145557Y191070D01*
X145763Y191133D01*
X145937Y191189D01*
X146104Y191252D01*
X146238Y191308D01*
X146357Y191355D01*
X146460Y191403D01*
X146539Y191442D01*
X146611Y191482D01*
X146658Y191514D01*
X146698Y191537D01*
X146730Y191553D01*
X146738Y191569D01*
X146746D01*
X146809Y191632D01*
X146864Y191704D01*
X146959Y191847D01*
X147023Y191989D01*
X147070Y192132D01*
X147094Y192251D01*
X147110Y192298D01*
Y192346D01*
X147118Y192385D01*
Y192409D01*
Y192425D01*
Y192433D01*
X147110Y192544D01*
X147094Y192647D01*
X147070Y192750D01*
X147031Y192845D01*
X146952Y193027D01*
X146848Y193178D01*
X146753Y193297D01*
X146714Y193344D01*
X146666Y193384D01*
X146635Y193424D01*
X146611Y193447D01*
X146595Y193455D01*
X146587Y193463D01*
X146476Y193542D01*
X146357Y193606D01*
X146230Y193669D01*
X146096Y193717D01*
X145810Y193796D01*
X145525Y193843D01*
X145398Y193859D01*
X145272Y193875D01*
X145161Y193883D01*
X145065Y193891D01*
X144986Y193899D01*
X144875D01*
X144669Y193891D01*
X144479Y193875D01*
X144297Y193852D01*
X144130Y193828D01*
X143980Y193788D01*
X143845Y193748D01*
X143718Y193709D01*
X143599Y193661D01*
X143504Y193614D01*
X143417Y193574D01*
X143338Y193535D01*
X143282Y193495D01*
X143235Y193471D01*
X143195Y193447D01*
X143179Y193431D01*
X143171Y193424D01*
X143068Y193328D01*
X142973Y193225D01*
X142894Y193122D01*
X142823Y193004D01*
X142759Y192893D01*
X142704Y192774D01*
X142617Y192552D01*
X142577Y192441D01*
X142553Y192346D01*
X142529Y192259D01*
X142514Y192179D01*
X142506Y192116D01*
X142498Y192068D01*
X142490Y192037D01*
Y192029D01*
X141254Y192124D01*
X141262Y192282D01*
X141285Y192433D01*
X141349Y192726D01*
X141380Y192861D01*
X141420Y192988D01*
X141468Y193099D01*
X141507Y193209D01*
X141555Y193305D01*
X141594Y193392D01*
X141634Y193471D01*
X141666Y193535D01*
X141697Y193582D01*
X141721Y193622D01*
X141729Y193645D01*
X141737Y193653D01*
X141824Y193780D01*
X141919Y193891D01*
X142125Y194105D01*
X142228Y194192D01*
X142339Y194279D01*
X142442Y194359D01*
X142537Y194422D01*
X142640Y194485D01*
X142728Y194541D01*
X142807Y194580D01*
X142878Y194620D01*
X142934Y194644D01*
X142973Y194668D01*
X143005Y194684D01*
X143013D01*
X143171Y194747D01*
X143338Y194802D01*
X143663Y194890D01*
X143988Y194953D01*
X144138Y194977D01*
X144281Y194993D01*
X144416Y195009D01*
X144542Y195024D01*
X144653Y195032D01*
X144748D01*
X144828Y195040D01*
X144931D01*
X145287Y195024D01*
D02*
G37*
G36*
X136736Y194913D02*
X136958Y194890D01*
X137164Y194858D01*
X137355Y194810D01*
X137537Y194755D01*
X137703Y194692D01*
X137862Y194628D01*
X137997Y194557D01*
X138123Y194485D01*
X138226Y194422D01*
X138321Y194359D01*
X138393Y194303D01*
X138456Y194263D01*
X138504Y194224D01*
X138527Y194200D01*
X138535Y194192D01*
X138670Y194050D01*
X138789Y193907D01*
X138884Y193756D01*
X138971Y193606D01*
X139051Y193455D01*
X139114Y193305D01*
X139161Y193162D01*
X139201Y193027D01*
X139233Y192893D01*
X139256Y192774D01*
X139272Y192671D01*
X139280Y192576D01*
X139288Y192504D01*
X139296Y192449D01*
Y192417D01*
Y192401D01*
X139288Y192274D01*
X139280Y192148D01*
X139241Y191918D01*
X139185Y191712D01*
X139153Y191617D01*
X139114Y191530D01*
X139082Y191458D01*
X139051Y191387D01*
X139019Y191331D01*
X138995Y191276D01*
X138971Y191244D01*
X138955Y191213D01*
X138940Y191197D01*
Y191189D01*
X138868Y191094D01*
X138789Y191007D01*
X138615Y190856D01*
X138432Y190721D01*
X138250Y190610D01*
X138084Y190523D01*
X138012Y190491D01*
X137957Y190460D01*
X137901Y190444D01*
X137862Y190428D01*
X137838Y190412D01*
X137830D01*
X137997Y190364D01*
X138147Y190309D01*
X138290Y190246D01*
X138424Y190174D01*
X138543Y190103D01*
X138662Y190032D01*
X138765Y189953D01*
X138852Y189881D01*
X138940Y189810D01*
X139011Y189746D01*
X139066Y189691D01*
X139122Y189636D01*
X139161Y189596D01*
X139185Y189564D01*
X139201Y189540D01*
X139209Y189532D01*
X139296Y189406D01*
X139368Y189279D01*
X139431Y189144D01*
X139486Y189009D01*
X139534Y188883D01*
X139573Y188748D01*
X139629Y188494D01*
X139653Y188383D01*
X139669Y188272D01*
X139677Y188177D01*
X139684Y188098D01*
X139692Y188035D01*
Y187979D01*
Y187948D01*
Y187940D01*
X139684Y187702D01*
X139653Y187480D01*
X139613Y187266D01*
X139558Y187068D01*
X139486Y186878D01*
X139415Y186703D01*
X139336Y186545D01*
X139249Y186394D01*
X139169Y186259D01*
X139090Y186148D01*
X139019Y186045D01*
X138947Y185958D01*
X138892Y185895D01*
X138852Y185847D01*
X138821Y185816D01*
X138813Y185808D01*
X138638Y185657D01*
X138456Y185530D01*
X138266Y185411D01*
X138076Y185316D01*
X137878Y185237D01*
X137687Y185166D01*
X137497Y185110D01*
X137315Y185063D01*
X137141Y185031D01*
X136982Y185007D01*
X136847Y184984D01*
X136721Y184976D01*
X136625Y184968D01*
X136546Y184960D01*
X136483D01*
X136221Y184968D01*
X135968Y185000D01*
X135738Y185039D01*
X135516Y185095D01*
X135310Y185158D01*
X135120Y185229D01*
X134945Y185308D01*
X134787Y185388D01*
X134644Y185467D01*
X134517Y185538D01*
X134407Y185610D01*
X134319Y185673D01*
X134248Y185728D01*
X134200Y185768D01*
X134169Y185800D01*
X134161Y185808D01*
X134002Y185974D01*
X133868Y186141D01*
X133749Y186315D01*
X133646Y186497D01*
X133559Y186672D01*
X133487Y186846D01*
X133432Y187012D01*
X133384Y187179D01*
X133345Y187329D01*
X133321Y187464D01*
X133297Y187591D01*
X133289Y187702D01*
X133281Y187789D01*
X133273Y187852D01*
Y187892D01*
Y187908D01*
X133281Y188074D01*
X133297Y188233D01*
X133313Y188383D01*
X133345Y188534D01*
X133384Y188669D01*
X133424Y188795D01*
X133463Y188914D01*
X133503Y189025D01*
X133551Y189120D01*
X133590Y189207D01*
X133630Y189287D01*
X133670Y189342D01*
X133701Y189398D01*
X133717Y189429D01*
X133733Y189453D01*
X133741Y189461D01*
X133836Y189580D01*
X133931Y189691D01*
X134042Y189794D01*
X134153Y189889D01*
X134264Y189976D01*
X134375Y190047D01*
X134597Y190182D01*
X134700Y190238D01*
X134795Y190285D01*
X134882Y190325D01*
X134953Y190357D01*
X135017Y190380D01*
X135064Y190396D01*
X135096Y190412D01*
X135104D01*
X134969Y190468D01*
X134850Y190523D01*
X134739Y190586D01*
X134628Y190650D01*
X134533Y190713D01*
X134446Y190777D01*
X134367Y190840D01*
X134296Y190896D01*
X134232Y190959D01*
X134177Y191007D01*
X134129Y191054D01*
X134090Y191101D01*
X134066Y191133D01*
X134042Y191157D01*
X134026Y191173D01*
Y191181D01*
X133963Y191276D01*
X133907Y191379D01*
X133820Y191577D01*
X133757Y191783D01*
X133717Y191965D01*
X133701Y192052D01*
X133685Y192124D01*
X133678Y192195D01*
Y192259D01*
X133670Y192306D01*
Y192338D01*
Y192362D01*
Y192369D01*
X133678Y192568D01*
X133701Y192750D01*
X133741Y192932D01*
X133788Y193099D01*
X133852Y193257D01*
X133915Y193408D01*
X133987Y193542D01*
X134058Y193669D01*
X134137Y193788D01*
X134208Y193883D01*
X134272Y193970D01*
X134327Y194042D01*
X134383Y194097D01*
X134422Y194145D01*
X134446Y194168D01*
X134454Y194176D01*
X134605Y194311D01*
X134763Y194422D01*
X134930Y194525D01*
X135104Y194604D01*
X135270Y194676D01*
X135445Y194739D01*
X135611Y194787D01*
X135770Y194826D01*
X135920Y194858D01*
X136063Y194882D01*
X136190Y194897D01*
X136293Y194913D01*
X136380D01*
X136451Y194921D01*
X136507D01*
X136736Y194913D01*
D02*
G37*
G36*
X135515Y44905D02*
X135776Y44874D01*
X136030Y44818D01*
X136267Y44747D01*
X136481Y44660D01*
X136687Y44565D01*
X136870Y44462D01*
X137036Y44359D01*
X137187Y44256D01*
X137313Y44153D01*
X137424Y44057D01*
X137520Y43970D01*
X137591Y43899D01*
X137646Y43843D01*
X137678Y43812D01*
X137686Y43796D01*
X137781Y43669D01*
X137868Y43542D01*
X138027Y43249D01*
X138169Y42940D01*
X138288Y42615D01*
X138383Y42274D01*
X138470Y41934D01*
X138542Y41593D01*
X138597Y41260D01*
X138637Y40943D01*
X138669Y40650D01*
X138685Y40515D01*
X138692Y40388D01*
X138700Y40262D01*
X138708Y40151D01*
X138716Y40047D01*
Y39960D01*
Y39881D01*
X138724Y39818D01*
Y39762D01*
Y39723D01*
Y39699D01*
Y39691D01*
Y39461D01*
X138716Y39231D01*
X138700Y39017D01*
X138685Y38803D01*
X138661Y38605D01*
X138637Y38415D01*
X138605Y38233D01*
X138574Y38050D01*
X138502Y37726D01*
X138423Y37424D01*
X138344Y37155D01*
X138249Y36925D01*
X138161Y36711D01*
X138082Y36537D01*
X138003Y36386D01*
X137932Y36267D01*
X137868Y36172D01*
X137821Y36109D01*
X137789Y36069D01*
X137781Y36053D01*
X137599Y35863D01*
X137409Y35689D01*
X137203Y35546D01*
X137004Y35419D01*
X136798Y35316D01*
X136592Y35229D01*
X136394Y35158D01*
X136204Y35094D01*
X136030Y35055D01*
X135863Y35015D01*
X135713Y34992D01*
X135586Y34976D01*
X135483Y34968D01*
X135404Y34960D01*
X135340D01*
X135174Y34968D01*
X135023Y34976D01*
X134722Y35023D01*
X134587Y35055D01*
X134461Y35087D01*
X134334Y35126D01*
X134223Y35166D01*
X134128Y35206D01*
X134033Y35245D01*
X133961Y35277D01*
X133890Y35308D01*
X133842Y35332D01*
X133803Y35356D01*
X133779Y35364D01*
X133771Y35372D01*
X133644Y35451D01*
X133525Y35546D01*
X133303Y35736D01*
X133121Y35935D01*
X133034Y36038D01*
X132963Y36133D01*
X132899Y36220D01*
X132836Y36307D01*
X132788Y36378D01*
X132749Y36450D01*
X132717Y36505D01*
X132693Y36545D01*
X132685Y36569D01*
X132677Y36576D01*
X132606Y36727D01*
X132543Y36878D01*
X132495Y37028D01*
X132448Y37179D01*
X132376Y37464D01*
X132353Y37599D01*
X132329Y37734D01*
X132313Y37845D01*
X132305Y37955D01*
X132289Y38050D01*
Y38130D01*
X132281Y38201D01*
Y38249D01*
Y38280D01*
Y38288D01*
X132289Y38542D01*
X132321Y38788D01*
X132360Y39017D01*
X132416Y39239D01*
X132479Y39437D01*
X132551Y39627D01*
X132622Y39802D01*
X132701Y39952D01*
X132781Y40095D01*
X132860Y40222D01*
X132931Y40325D01*
X132994Y40412D01*
X133050Y40483D01*
X133090Y40531D01*
X133121Y40563D01*
X133129Y40571D01*
X133288Y40729D01*
X133454Y40864D01*
X133629Y40983D01*
X133803Y41086D01*
X133977Y41173D01*
X134144Y41244D01*
X134310Y41300D01*
X134461Y41347D01*
X134611Y41387D01*
X134746Y41411D01*
X134865Y41434D01*
X134968Y41442D01*
X135047Y41450D01*
X135110Y41458D01*
X135166D01*
X135420Y41442D01*
X135665Y41411D01*
X135887Y41355D01*
X135990Y41323D01*
X136085Y41300D01*
X136172Y41268D01*
X136244Y41236D01*
X136315Y41213D01*
X136370Y41181D01*
X136418Y41165D01*
X136450Y41149D01*
X136474Y41133D01*
X136481D01*
X136592Y41070D01*
X136703Y40999D01*
X136909Y40848D01*
X137092Y40690D01*
X137242Y40531D01*
X137306Y40452D01*
X137369Y40380D01*
X137416Y40325D01*
X137456Y40269D01*
X137488Y40222D01*
X137512Y40190D01*
X137528Y40166D01*
X137535Y40159D01*
X137528Y40428D01*
X137520Y40674D01*
X137504Y40911D01*
X137480Y41125D01*
X137456Y41323D01*
X137424Y41514D01*
X137393Y41680D01*
X137369Y41831D01*
X137337Y41965D01*
X137306Y42084D01*
X137282Y42179D01*
X137250Y42267D01*
X137234Y42330D01*
X137218Y42369D01*
X137203Y42401D01*
Y42409D01*
X137139Y42552D01*
X137068Y42687D01*
X136996Y42813D01*
X136925Y42932D01*
X136846Y43043D01*
X136775Y43138D01*
X136703Y43225D01*
X136632Y43313D01*
X136561Y43384D01*
X136505Y43439D01*
X136450Y43495D01*
X136402Y43534D01*
X136362Y43574D01*
X136331Y43598D01*
X136315Y43606D01*
X136307Y43614D01*
X136141Y43725D01*
X135966Y43804D01*
X135800Y43859D01*
X135641Y43899D01*
X135507Y43923D01*
X135443Y43931D01*
X135396D01*
X135356Y43939D01*
X135301D01*
X135166Y43931D01*
X135047Y43915D01*
X134928Y43891D01*
X134809Y43859D01*
X134611Y43772D01*
X134516Y43733D01*
X134437Y43685D01*
X134358Y43630D01*
X134294Y43590D01*
X134239Y43542D01*
X134191Y43503D01*
X134151Y43471D01*
X134128Y43447D01*
X134112Y43431D01*
X134104Y43424D01*
X134049Y43360D01*
X134001Y43289D01*
X133906Y43130D01*
X133827Y42964D01*
X133763Y42797D01*
X133716Y42639D01*
X133692Y42576D01*
X133676Y42520D01*
X133660Y42473D01*
X133652Y42433D01*
X133644Y42409D01*
Y42401D01*
X132456Y42496D01*
X132487Y42702D01*
X132535Y42901D01*
X132590Y43083D01*
X132654Y43249D01*
X132725Y43408D01*
X132804Y43558D01*
X132876Y43693D01*
X132955Y43812D01*
X133034Y43915D01*
X133105Y44010D01*
X133169Y44089D01*
X133224Y44153D01*
X133272Y44208D01*
X133312Y44240D01*
X133335Y44264D01*
X133343Y44271D01*
X133486Y44382D01*
X133636Y44485D01*
X133787Y44573D01*
X133946Y44644D01*
X134104Y44707D01*
X134262Y44763D01*
X134413Y44802D01*
X134564Y44842D01*
X134698Y44866D01*
X134825Y44890D01*
X134944Y44905D01*
X135039Y44913D01*
X135118D01*
X135182Y44921D01*
X135229D01*
X135515Y44905D01*
D02*
G37*
G36*
X144279Y45024D02*
X144620Y44985D01*
X144771Y44961D01*
X144921Y44937D01*
X145056Y44905D01*
X145183Y44874D01*
X145302Y44842D01*
X145405Y44810D01*
X145500Y44787D01*
X145571Y44763D01*
X145634Y44739D01*
X145674Y44723D01*
X145706Y44715D01*
X145714Y44707D01*
X145864Y44644D01*
X145999Y44573D01*
X146126Y44493D01*
X146245Y44414D01*
X146356Y44335D01*
X146459Y44248D01*
X146546Y44168D01*
X146633Y44089D01*
X146704Y44018D01*
X146768Y43946D01*
X146823Y43883D01*
X146863Y43836D01*
X146895Y43788D01*
X146918Y43756D01*
X146934Y43733D01*
X146942Y43725D01*
X147013Y43606D01*
X147077Y43479D01*
X147132Y43360D01*
X147180Y43241D01*
X147251Y43004D01*
X147299Y42797D01*
X147323Y42702D01*
X147330Y42615D01*
X147338Y42536D01*
X147346Y42473D01*
X147354Y42417D01*
Y42377D01*
Y42354D01*
Y42346D01*
X147346Y42219D01*
X147338Y42100D01*
X147299Y41870D01*
X147243Y41664D01*
X147180Y41482D01*
X147148Y41403D01*
X147124Y41331D01*
X147093Y41276D01*
X147069Y41220D01*
X147045Y41181D01*
X147029Y41149D01*
X147013Y41133D01*
Y41125D01*
X146942Y41030D01*
X146871Y40935D01*
X146704Y40761D01*
X146538Y40602D01*
X146364Y40476D01*
X146213Y40364D01*
X146150Y40325D01*
X146086Y40285D01*
X146039Y40262D01*
X146007Y40238D01*
X145983Y40230D01*
X145975Y40222D01*
X145864Y40166D01*
X145738Y40111D01*
X145603Y40063D01*
X145452Y40008D01*
X145143Y39905D01*
X144826Y39810D01*
X144684Y39770D01*
X144541Y39731D01*
X144414Y39699D01*
X144311Y39667D01*
X144216Y39643D01*
X144145Y39627D01*
X144105Y39620D01*
X144089Y39612D01*
X143843Y39556D01*
X143630Y39501D01*
X143431Y39453D01*
X143249Y39406D01*
X143091Y39358D01*
X142948Y39318D01*
X142821Y39287D01*
X142710Y39255D01*
X142623Y39231D01*
X142544Y39200D01*
X142480Y39184D01*
X142425Y39168D01*
X142393Y39152D01*
X142362Y39144D01*
X142354Y39136D01*
X142346D01*
X142235Y39089D01*
X142132Y39049D01*
X141950Y38954D01*
X141799Y38859D01*
X141680Y38764D01*
X141585Y38684D01*
X141514Y38621D01*
X141482Y38582D01*
X141466Y38574D01*
Y38566D01*
X141379Y38431D01*
X141308Y38296D01*
X141260Y38161D01*
X141228Y38035D01*
X141213Y37932D01*
X141197Y37845D01*
Y37813D01*
Y37789D01*
Y37773D01*
Y37765D01*
X141205Y37599D01*
X141236Y37440D01*
X141284Y37298D01*
X141331Y37179D01*
X141387Y37076D01*
X141426Y36997D01*
X141450Y36965D01*
X141458Y36941D01*
X141474Y36933D01*
Y36925D01*
X141593Y36790D01*
X141720Y36672D01*
X141862Y36569D01*
X142005Y36481D01*
X142124Y36410D01*
X142179Y36386D01*
X142227Y36363D01*
X142267Y36347D01*
X142298Y36331D01*
X142314Y36323D01*
X142322D01*
X142536Y36252D01*
X142766Y36196D01*
X142980Y36164D01*
X143186Y36133D01*
X143273Y36125D01*
X143360Y36117D01*
X143431D01*
X143495Y36109D01*
X143622D01*
X143923Y36125D01*
X144208Y36156D01*
X144335Y36172D01*
X144462Y36196D01*
X144573Y36228D01*
X144684Y36252D01*
X144779Y36275D01*
X144866Y36307D01*
X144937Y36331D01*
X145000Y36347D01*
X145056Y36370D01*
X145088Y36378D01*
X145112Y36394D01*
X145119D01*
X145238Y36450D01*
X145349Y36513D01*
X145460Y36576D01*
X145555Y36640D01*
X145642Y36703D01*
X145722Y36767D01*
X145856Y36885D01*
X145967Y36989D01*
X146039Y37076D01*
X146070Y37107D01*
X146086Y37131D01*
X146094Y37147D01*
X146102Y37155D01*
X146213Y37345D01*
X146300Y37543D01*
X146364Y37749D01*
X146419Y37940D01*
X146443Y38027D01*
X146459Y38106D01*
X146467Y38185D01*
X146482Y38249D01*
X146490Y38296D01*
Y38336D01*
X146498Y38360D01*
Y38368D01*
X147719Y38265D01*
X147711Y38082D01*
X147687Y37908D01*
X147663Y37734D01*
X147624Y37575D01*
X147584Y37424D01*
X147536Y37274D01*
X147489Y37139D01*
X147441Y37020D01*
X147394Y36901D01*
X147346Y36806D01*
X147307Y36719D01*
X147267Y36640D01*
X147235Y36584D01*
X147212Y36537D01*
X147196Y36513D01*
X147188Y36505D01*
X147085Y36363D01*
X146982Y36236D01*
X146871Y36109D01*
X146752Y35998D01*
X146641Y35895D01*
X146522Y35792D01*
X146403Y35713D01*
X146292Y35633D01*
X146189Y35562D01*
X146094Y35507D01*
X146007Y35451D01*
X145936Y35412D01*
X145872Y35380D01*
X145825Y35356D01*
X145793Y35348D01*
X145785Y35340D01*
X145611Y35277D01*
X145428Y35213D01*
X145064Y35118D01*
X144691Y35055D01*
X144509Y35031D01*
X144343Y35007D01*
X144176Y34992D01*
X144034Y34984D01*
X143899Y34968D01*
X143788D01*
X143693Y34960D01*
X143566D01*
X143376Y34968D01*
X143186Y34976D01*
X143004Y34992D01*
X142829Y35023D01*
X142671Y35047D01*
X142512Y35079D01*
X142369Y35118D01*
X142235Y35150D01*
X142116Y35190D01*
X142005Y35221D01*
X141910Y35253D01*
X141831Y35285D01*
X141775Y35308D01*
X141728Y35324D01*
X141696Y35332D01*
X141688Y35340D01*
X141537Y35412D01*
X141395Y35499D01*
X141260Y35578D01*
X141133Y35665D01*
X141014Y35752D01*
X140911Y35847D01*
X140816Y35927D01*
X140729Y36014D01*
X140658Y36093D01*
X140586Y36164D01*
X140531Y36236D01*
X140483Y36291D01*
X140452Y36339D01*
X140428Y36370D01*
X140412Y36394D01*
X140404Y36402D01*
X140325Y36529D01*
X140254Y36664D01*
X140198Y36790D01*
X140143Y36925D01*
X140095Y37044D01*
X140063Y37171D01*
X140032Y37282D01*
X140008Y37393D01*
X139992Y37496D01*
X139976Y37583D01*
X139968Y37670D01*
X139960Y37734D01*
X139952Y37789D01*
Y37836D01*
Y37860D01*
Y37868D01*
X139960Y38011D01*
X139968Y38154D01*
X140016Y38415D01*
X140048Y38534D01*
X140079Y38653D01*
X140119Y38756D01*
X140159Y38859D01*
X140198Y38946D01*
X140238Y39025D01*
X140269Y39089D01*
X140301Y39152D01*
X140325Y39192D01*
X140349Y39231D01*
X140357Y39247D01*
X140365Y39255D01*
X140444Y39366D01*
X140531Y39469D01*
X140729Y39667D01*
X140935Y39834D01*
X141141Y39984D01*
X141236Y40040D01*
X141323Y40095D01*
X141411Y40143D01*
X141474Y40182D01*
X141537Y40214D01*
X141577Y40238D01*
X141609Y40246D01*
X141617Y40254D01*
X141735Y40301D01*
X141878Y40357D01*
X142037Y40404D01*
X142203Y40460D01*
X142377Y40515D01*
X142560Y40563D01*
X142916Y40658D01*
X143091Y40705D01*
X143249Y40745D01*
X143400Y40785D01*
X143526Y40808D01*
X143630Y40840D01*
X143709Y40856D01*
X143741Y40864D01*
X143764Y40872D01*
X143780D01*
X144065Y40935D01*
X144319Y41006D01*
X144549Y41070D01*
X144755Y41133D01*
X144929Y41189D01*
X145096Y41252D01*
X145230Y41308D01*
X145349Y41355D01*
X145452Y41403D01*
X145532Y41442D01*
X145603Y41482D01*
X145650Y41514D01*
X145690Y41537D01*
X145722Y41553D01*
X145730Y41569D01*
X145738D01*
X145801Y41632D01*
X145856Y41704D01*
X145951Y41846D01*
X146015Y41989D01*
X146062Y42132D01*
X146086Y42251D01*
X146102Y42298D01*
Y42346D01*
X146110Y42385D01*
Y42409D01*
Y42425D01*
Y42433D01*
X146102Y42544D01*
X146086Y42647D01*
X146062Y42750D01*
X146023Y42845D01*
X145944Y43027D01*
X145841Y43178D01*
X145745Y43297D01*
X145706Y43344D01*
X145658Y43384D01*
X145627Y43424D01*
X145603Y43447D01*
X145587Y43455D01*
X145579Y43463D01*
X145468Y43542D01*
X145349Y43606D01*
X145222Y43669D01*
X145088Y43717D01*
X144802Y43796D01*
X144517Y43843D01*
X144390Y43859D01*
X144263Y43875D01*
X144153Y43883D01*
X144058Y43891D01*
X143978Y43899D01*
X143867D01*
X143661Y43891D01*
X143471Y43875D01*
X143289Y43851D01*
X143122Y43828D01*
X142972Y43788D01*
X142837Y43748D01*
X142710Y43709D01*
X142591Y43661D01*
X142496Y43614D01*
X142409Y43574D01*
X142330Y43534D01*
X142274Y43495D01*
X142227Y43471D01*
X142187Y43447D01*
X142171Y43431D01*
X142163Y43424D01*
X142060Y43328D01*
X141965Y43225D01*
X141886Y43122D01*
X141815Y43004D01*
X141751Y42892D01*
X141696Y42774D01*
X141609Y42552D01*
X141569Y42441D01*
X141545Y42346D01*
X141522Y42259D01*
X141506Y42179D01*
X141498Y42116D01*
X141490Y42068D01*
X141482Y42037D01*
Y42029D01*
X140246Y42124D01*
X140254Y42282D01*
X140277Y42433D01*
X140341Y42726D01*
X140372Y42861D01*
X140412Y42988D01*
X140460Y43099D01*
X140499Y43210D01*
X140547Y43305D01*
X140586Y43392D01*
X140626Y43471D01*
X140658Y43534D01*
X140689Y43582D01*
X140713Y43622D01*
X140721Y43645D01*
X140729Y43653D01*
X140816Y43780D01*
X140911Y43891D01*
X141117Y44105D01*
X141220Y44192D01*
X141331Y44279D01*
X141434Y44359D01*
X141530Y44422D01*
X141632Y44485D01*
X141720Y44541D01*
X141799Y44580D01*
X141870Y44620D01*
X141926Y44644D01*
X141965Y44668D01*
X141997Y44684D01*
X142005D01*
X142163Y44747D01*
X142330Y44802D01*
X142655Y44890D01*
X142980Y44953D01*
X143130Y44977D01*
X143273Y44993D01*
X143408Y45009D01*
X143534Y45024D01*
X143645Y45032D01*
X143741D01*
X143820Y45040D01*
X143923D01*
X144279Y45024D01*
D02*
G37*
G36*
X-141502Y39739D02*
X-142627Y39596D01*
X-142730Y39746D01*
X-142849Y39881D01*
X-142968Y40000D01*
X-143087Y40095D01*
X-143190Y40174D01*
X-143269Y40230D01*
X-143301Y40254D01*
X-143324Y40269D01*
X-143340Y40277D01*
X-143348D01*
X-143531Y40364D01*
X-143713Y40436D01*
X-143887Y40483D01*
X-144053Y40515D01*
X-144196Y40531D01*
X-144252Y40539D01*
X-144307Y40547D01*
X-144402D01*
X-144577Y40539D01*
X-144735Y40523D01*
X-144886Y40491D01*
X-145036Y40452D01*
X-145163Y40412D01*
X-145290Y40357D01*
X-145401Y40309D01*
X-145504Y40254D01*
X-145599Y40198D01*
X-145678Y40143D01*
X-145749Y40087D01*
X-145805Y40047D01*
X-145852Y40008D01*
X-145884Y39976D01*
X-145900Y39960D01*
X-145908Y39952D01*
X-146011Y39834D01*
X-146098Y39715D01*
X-146177Y39580D01*
X-146241Y39445D01*
X-146296Y39311D01*
X-146344Y39176D01*
X-146383Y39049D01*
X-146415Y38914D01*
X-146439Y38795D01*
X-146455Y38684D01*
X-146471Y38582D01*
X-146479Y38502D01*
X-146486Y38431D01*
Y38375D01*
Y38344D01*
Y38328D01*
X-146479Y38130D01*
X-146463Y37947D01*
X-146431Y37765D01*
X-146391Y37599D01*
X-146344Y37448D01*
X-146296Y37306D01*
X-146241Y37171D01*
X-146185Y37060D01*
X-146130Y36949D01*
X-146074Y36854D01*
X-146027Y36775D01*
X-145979Y36711D01*
X-145940Y36664D01*
X-145908Y36624D01*
X-145892Y36600D01*
X-145884Y36592D01*
X-145773Y36481D01*
X-145654Y36378D01*
X-145527Y36291D01*
X-145401Y36220D01*
X-145282Y36156D01*
X-145163Y36101D01*
X-145044Y36061D01*
X-144925Y36022D01*
X-144822Y35998D01*
X-144727Y35974D01*
X-144640Y35966D01*
X-144561Y35950D01*
X-144505D01*
X-144458Y35942D01*
X-144418D01*
X-144283Y35950D01*
X-144157Y35966D01*
X-144038Y35982D01*
X-143919Y36014D01*
X-143713Y36085D01*
X-143618Y36133D01*
X-143531Y36172D01*
X-143459Y36212D01*
X-143388Y36260D01*
X-143332Y36299D01*
X-143277Y36331D01*
X-143245Y36363D01*
X-143214Y36386D01*
X-143198Y36394D01*
X-143190Y36402D01*
X-143103Y36497D01*
X-143015Y36592D01*
X-142944Y36703D01*
X-142873Y36814D01*
X-142762Y37044D01*
X-142683Y37266D01*
X-142643Y37369D01*
X-142619Y37464D01*
X-142595Y37551D01*
X-142579Y37631D01*
X-142564Y37694D01*
X-142556Y37741D01*
X-142548Y37773D01*
Y37781D01*
X-141288Y37678D01*
X-141320Y37456D01*
X-141367Y37242D01*
X-141423Y37036D01*
X-141486Y36846D01*
X-141565Y36672D01*
X-141644Y36505D01*
X-141724Y36363D01*
X-141811Y36228D01*
X-141898Y36101D01*
X-141977Y35998D01*
X-142049Y35911D01*
X-142112Y35832D01*
X-142167Y35776D01*
X-142207Y35728D01*
X-142239Y35705D01*
X-142247Y35697D01*
X-142413Y35570D01*
X-142579Y35451D01*
X-142762Y35356D01*
X-142944Y35269D01*
X-143126Y35198D01*
X-143301Y35142D01*
X-143475Y35094D01*
X-143649Y35055D01*
X-143808Y35023D01*
X-143951Y34999D01*
X-144085Y34984D01*
X-144196Y34968D01*
X-144291D01*
X-144363Y34960D01*
X-144418D01*
X-144711Y34976D01*
X-144997Y35007D01*
X-145258Y35071D01*
X-145504Y35142D01*
X-145734Y35237D01*
X-145940Y35332D01*
X-146138Y35443D01*
X-146304Y35554D01*
X-146463Y35657D01*
X-146597Y35768D01*
X-146708Y35863D01*
X-146803Y35958D01*
X-146883Y36030D01*
X-146938Y36093D01*
X-146970Y36125D01*
X-146978Y36141D01*
X-147113Y36323D01*
X-147231Y36513D01*
X-147334Y36711D01*
X-147430Y36909D01*
X-147501Y37099D01*
X-147564Y37290D01*
X-147620Y37472D01*
X-147659Y37646D01*
X-147691Y37813D01*
X-147715Y37963D01*
X-147731Y38098D01*
X-147746Y38209D01*
Y38304D01*
X-147754Y38375D01*
Y38415D01*
Y38431D01*
X-147746Y38684D01*
X-147715Y38930D01*
X-147675Y39160D01*
X-147620Y39374D01*
X-147548Y39580D01*
X-147477Y39770D01*
X-147398Y39937D01*
X-147319Y40095D01*
X-147231Y40238D01*
X-147152Y40357D01*
X-147081Y40468D01*
X-147009Y40555D01*
X-146954Y40626D01*
X-146914Y40674D01*
X-146883Y40705D01*
X-146875Y40713D01*
X-146708Y40872D01*
X-146526Y41006D01*
X-146352Y41125D01*
X-146170Y41228D01*
X-145987Y41315D01*
X-145805Y41387D01*
X-145631Y41442D01*
X-145464Y41490D01*
X-145314Y41529D01*
X-145171Y41553D01*
X-145044Y41577D01*
X-144933Y41585D01*
X-144846Y41593D01*
X-144775Y41601D01*
X-144719D01*
X-144537Y41593D01*
X-144363Y41577D01*
X-144188Y41545D01*
X-144022Y41506D01*
X-143863Y41458D01*
X-143713Y41411D01*
X-143570Y41355D01*
X-143435Y41300D01*
X-143309Y41236D01*
X-143206Y41181D01*
X-143103Y41133D01*
X-143023Y41086D01*
X-142960Y41046D01*
X-142912Y41014D01*
X-142881Y40999D01*
X-142873Y40991D01*
X-143404Y43614D01*
X-147295D01*
Y44755D01*
X-142445D01*
X-141502Y39739D01*
D02*
G37*
G36*
X-135685Y45024D02*
X-135344Y44985D01*
X-135194Y44961D01*
X-135043Y44937D01*
X-134908Y44905D01*
X-134782Y44874D01*
X-134663Y44842D01*
X-134560Y44810D01*
X-134465Y44787D01*
X-134393Y44763D01*
X-134330Y44739D01*
X-134290Y44723D01*
X-134258Y44715D01*
X-134251Y44707D01*
X-134100Y44644D01*
X-133965Y44573D01*
X-133839Y44493D01*
X-133720Y44414D01*
X-133609Y44335D01*
X-133506Y44248D01*
X-133419Y44168D01*
X-133331Y44089D01*
X-133260Y44018D01*
X-133197Y43946D01*
X-133141Y43883D01*
X-133102Y43836D01*
X-133070Y43788D01*
X-133046Y43756D01*
X-133030Y43733D01*
X-133022Y43725D01*
X-132951Y43606D01*
X-132887Y43479D01*
X-132832Y43360D01*
X-132785Y43241D01*
X-132713Y43004D01*
X-132666Y42797D01*
X-132642Y42702D01*
X-132634Y42615D01*
X-132626Y42536D01*
X-132618Y42473D01*
X-132610Y42417D01*
Y42377D01*
Y42354D01*
Y42346D01*
X-132618Y42219D01*
X-132626Y42100D01*
X-132666Y41870D01*
X-132721Y41664D01*
X-132785Y41482D01*
X-132816Y41403D01*
X-132840Y41331D01*
X-132872Y41276D01*
X-132895Y41220D01*
X-132919Y41181D01*
X-132935Y41149D01*
X-132951Y41133D01*
Y41125D01*
X-133022Y41030D01*
X-133094Y40935D01*
X-133260Y40761D01*
X-133426Y40602D01*
X-133601Y40476D01*
X-133751Y40364D01*
X-133815Y40325D01*
X-133878Y40285D01*
X-133926Y40262D01*
X-133957Y40238D01*
X-133981Y40230D01*
X-133989Y40222D01*
X-134100Y40166D01*
X-134227Y40111D01*
X-134361Y40063D01*
X-134512Y40008D01*
X-134821Y39905D01*
X-135138Y39810D01*
X-135281Y39770D01*
X-135423Y39731D01*
X-135550Y39699D01*
X-135653Y39667D01*
X-135748Y39643D01*
X-135820Y39627D01*
X-135859Y39620D01*
X-135875Y39612D01*
X-136121Y39556D01*
X-136335Y39501D01*
X-136533Y39453D01*
X-136715Y39406D01*
X-136874Y39358D01*
X-137016Y39318D01*
X-137143Y39287D01*
X-137254Y39255D01*
X-137341Y39231D01*
X-137421Y39200D01*
X-137484Y39184D01*
X-137539Y39168D01*
X-137571Y39152D01*
X-137603Y39144D01*
X-137611Y39136D01*
X-137619D01*
X-137730Y39089D01*
X-137833Y39049D01*
X-138015Y38954D01*
X-138165Y38859D01*
X-138284Y38764D01*
X-138379Y38684D01*
X-138451Y38621D01*
X-138482Y38582D01*
X-138498Y38574D01*
Y38566D01*
X-138585Y38431D01*
X-138657Y38296D01*
X-138704Y38161D01*
X-138736Y38035D01*
X-138752Y37932D01*
X-138768Y37845D01*
Y37813D01*
Y37789D01*
Y37773D01*
Y37765D01*
X-138760Y37599D01*
X-138728Y37440D01*
X-138680Y37298D01*
X-138633Y37179D01*
X-138577Y37076D01*
X-138538Y36997D01*
X-138514Y36965D01*
X-138506Y36941D01*
X-138490Y36933D01*
Y36925D01*
X-138371Y36790D01*
X-138245Y36672D01*
X-138102Y36569D01*
X-137959Y36481D01*
X-137840Y36410D01*
X-137785Y36386D01*
X-137738Y36363D01*
X-137698Y36347D01*
X-137666Y36331D01*
X-137650Y36323D01*
X-137642D01*
X-137428Y36252D01*
X-137199Y36196D01*
X-136985Y36164D01*
X-136779Y36133D01*
X-136691Y36125D01*
X-136604Y36117D01*
X-136533D01*
X-136469Y36109D01*
X-136343D01*
X-136042Y36125D01*
X-135756Y36156D01*
X-135630Y36172D01*
X-135503Y36196D01*
X-135392Y36228D01*
X-135281Y36252D01*
X-135186Y36275D01*
X-135098Y36307D01*
X-135027Y36331D01*
X-134964Y36347D01*
X-134908Y36370D01*
X-134877Y36378D01*
X-134853Y36394D01*
X-134845D01*
X-134726Y36450D01*
X-134615Y36513D01*
X-134504Y36576D01*
X-134409Y36640D01*
X-134322Y36703D01*
X-134243Y36767D01*
X-134108Y36885D01*
X-133997Y36989D01*
X-133926Y37076D01*
X-133894Y37107D01*
X-133878Y37131D01*
X-133870Y37147D01*
X-133862Y37155D01*
X-133751Y37345D01*
X-133664Y37543D01*
X-133601Y37749D01*
X-133545Y37940D01*
X-133521Y38027D01*
X-133506Y38106D01*
X-133498Y38185D01*
X-133482Y38249D01*
X-133474Y38296D01*
Y38336D01*
X-133466Y38360D01*
Y38368D01*
X-132246Y38265D01*
X-132254Y38082D01*
X-132277Y37908D01*
X-132301Y37734D01*
X-132341Y37575D01*
X-132380Y37424D01*
X-132428Y37274D01*
X-132475Y37139D01*
X-132523Y37020D01*
X-132570Y36901D01*
X-132618Y36806D01*
X-132658Y36719D01*
X-132697Y36640D01*
X-132729Y36584D01*
X-132753Y36537D01*
X-132769Y36513D01*
X-132776Y36505D01*
X-132880Y36363D01*
X-132983Y36236D01*
X-133094Y36109D01*
X-133212Y35998D01*
X-133323Y35895D01*
X-133442Y35792D01*
X-133561Y35713D01*
X-133672Y35633D01*
X-133775Y35562D01*
X-133870Y35507D01*
X-133957Y35451D01*
X-134029Y35412D01*
X-134092Y35380D01*
X-134140Y35356D01*
X-134171Y35348D01*
X-134179Y35340D01*
X-134354Y35277D01*
X-134536Y35213D01*
X-134900Y35118D01*
X-135273Y35055D01*
X-135455Y35031D01*
X-135622Y35007D01*
X-135788Y34992D01*
X-135931Y34984D01*
X-136065Y34968D01*
X-136176D01*
X-136271Y34960D01*
X-136398D01*
X-136588Y34968D01*
X-136779Y34976D01*
X-136961Y34992D01*
X-137135Y35023D01*
X-137294Y35047D01*
X-137452Y35079D01*
X-137595Y35118D01*
X-137730Y35150D01*
X-137848Y35190D01*
X-137959Y35221D01*
X-138055Y35253D01*
X-138134Y35285D01*
X-138189Y35308D01*
X-138237Y35324D01*
X-138268Y35332D01*
X-138276Y35340D01*
X-138427Y35412D01*
X-138570Y35499D01*
X-138704Y35578D01*
X-138831Y35665D01*
X-138950Y35752D01*
X-139053Y35847D01*
X-139148Y35927D01*
X-139235Y36014D01*
X-139307Y36093D01*
X-139378Y36164D01*
X-139433Y36236D01*
X-139481Y36291D01*
X-139513Y36339D01*
X-139536Y36370D01*
X-139552Y36394D01*
X-139560Y36402D01*
X-139639Y36529D01*
X-139711Y36664D01*
X-139766Y36790D01*
X-139822Y36925D01*
X-139869Y37044D01*
X-139901Y37171D01*
X-139933Y37282D01*
X-139956Y37393D01*
X-139972Y37496D01*
X-139988Y37583D01*
X-139996Y37670D01*
X-140004Y37734D01*
X-140012Y37789D01*
Y37836D01*
Y37860D01*
Y37868D01*
X-140004Y38011D01*
X-139996Y38154D01*
X-139949Y38415D01*
X-139917Y38534D01*
X-139885Y38653D01*
X-139846Y38756D01*
X-139806Y38859D01*
X-139766Y38946D01*
X-139727Y39025D01*
X-139695Y39089D01*
X-139663Y39152D01*
X-139639Y39192D01*
X-139616Y39231D01*
X-139608Y39247D01*
X-139600Y39255D01*
X-139521Y39366D01*
X-139433Y39469D01*
X-139235Y39667D01*
X-139029Y39834D01*
X-138823Y39984D01*
X-138728Y40040D01*
X-138641Y40095D01*
X-138554Y40143D01*
X-138490Y40182D01*
X-138427Y40214D01*
X-138387Y40238D01*
X-138356Y40246D01*
X-138348Y40254D01*
X-138229Y40301D01*
X-138086Y40357D01*
X-137928Y40404D01*
X-137761Y40460D01*
X-137587Y40515D01*
X-137405Y40563D01*
X-137048Y40658D01*
X-136874Y40705D01*
X-136715Y40745D01*
X-136565Y40785D01*
X-136438Y40808D01*
X-136335Y40840D01*
X-136256Y40856D01*
X-136224Y40864D01*
X-136200Y40872D01*
X-136184D01*
X-135899Y40935D01*
X-135645Y41006D01*
X-135415Y41070D01*
X-135210Y41133D01*
X-135035Y41189D01*
X-134869Y41252D01*
X-134734Y41308D01*
X-134615Y41355D01*
X-134512Y41403D01*
X-134433Y41442D01*
X-134361Y41482D01*
X-134314Y41514D01*
X-134274Y41537D01*
X-134243Y41553D01*
X-134235Y41569D01*
X-134227D01*
X-134163Y41632D01*
X-134108Y41704D01*
X-134013Y41846D01*
X-133949Y41989D01*
X-133902Y42132D01*
X-133878Y42251D01*
X-133862Y42298D01*
Y42346D01*
X-133854Y42385D01*
Y42409D01*
Y42425D01*
Y42433D01*
X-133862Y42544D01*
X-133878Y42647D01*
X-133902Y42750D01*
X-133941Y42845D01*
X-134021Y43027D01*
X-134124Y43178D01*
X-134219Y43297D01*
X-134258Y43344D01*
X-134306Y43384D01*
X-134338Y43424D01*
X-134361Y43447D01*
X-134377Y43455D01*
X-134385Y43463D01*
X-134496Y43542D01*
X-134615Y43606D01*
X-134742Y43669D01*
X-134877Y43717D01*
X-135162Y43796D01*
X-135447Y43843D01*
X-135574Y43859D01*
X-135701Y43875D01*
X-135812Y43883D01*
X-135907Y43891D01*
X-135986Y43899D01*
X-136097D01*
X-136303Y43891D01*
X-136493Y43875D01*
X-136676Y43851D01*
X-136842Y43828D01*
X-136993Y43788D01*
X-137127Y43748D01*
X-137254Y43709D01*
X-137373Y43661D01*
X-137468Y43614D01*
X-137555Y43574D01*
X-137634Y43534D01*
X-137690Y43495D01*
X-137738Y43471D01*
X-137777Y43447D01*
X-137793Y43431D01*
X-137801Y43424D01*
X-137904Y43328D01*
X-137999Y43225D01*
X-138078Y43122D01*
X-138150Y43004D01*
X-138213Y42892D01*
X-138268Y42774D01*
X-138356Y42552D01*
X-138395Y42441D01*
X-138419Y42346D01*
X-138443Y42259D01*
X-138459Y42179D01*
X-138467Y42116D01*
X-138475Y42068D01*
X-138482Y42037D01*
Y42029D01*
X-139719Y42124D01*
X-139711Y42282D01*
X-139687Y42433D01*
X-139624Y42726D01*
X-139592Y42861D01*
X-139552Y42988D01*
X-139505Y43099D01*
X-139465Y43210D01*
X-139417Y43305D01*
X-139378Y43392D01*
X-139338Y43471D01*
X-139307Y43534D01*
X-139275Y43582D01*
X-139251Y43622D01*
X-139243Y43645D01*
X-139235Y43653D01*
X-139148Y43780D01*
X-139053Y43891D01*
X-138847Y44105D01*
X-138744Y44192D01*
X-138633Y44279D01*
X-138530Y44359D01*
X-138435Y44422D01*
X-138332Y44485D01*
X-138245Y44541D01*
X-138165Y44580D01*
X-138094Y44620D01*
X-138039Y44644D01*
X-137999Y44668D01*
X-137967Y44684D01*
X-137959D01*
X-137801Y44747D01*
X-137634Y44802D01*
X-137310Y44890D01*
X-136985Y44953D01*
X-136834Y44977D01*
X-136691Y44993D01*
X-136557Y45009D01*
X-136430Y45024D01*
X-136319Y45032D01*
X-136224D01*
X-136145Y45040D01*
X-136042D01*
X-135685Y45024D01*
D02*
G37*
G36*
X-140955Y-109434D02*
Y-110536D01*
X-145187D01*
Y-112874D01*
X-146383D01*
Y-110536D01*
X-147699D01*
Y-109434D01*
X-146383D01*
Y-103118D01*
X-145409D01*
X-140955Y-109434D01*
D02*
G37*
G36*
X-135740Y-102976D02*
X-135400Y-103015D01*
X-135249Y-103039D01*
X-135098Y-103063D01*
X-134964Y-103095D01*
X-134837Y-103126D01*
X-134718Y-103158D01*
X-134615Y-103190D01*
X-134520Y-103213D01*
X-134449Y-103237D01*
X-134385Y-103261D01*
X-134346Y-103277D01*
X-134314Y-103285D01*
X-134306Y-103293D01*
X-134156Y-103356D01*
X-134021Y-103427D01*
X-133894Y-103507D01*
X-133775Y-103586D01*
X-133664Y-103665D01*
X-133561Y-103752D01*
X-133474Y-103832D01*
X-133387Y-103911D01*
X-133315Y-103982D01*
X-133252Y-104053D01*
X-133197Y-104117D01*
X-133157Y-104164D01*
X-133125Y-104212D01*
X-133102Y-104244D01*
X-133086Y-104267D01*
X-133078Y-104275D01*
X-133006Y-104394D01*
X-132943Y-104521D01*
X-132887Y-104640D01*
X-132840Y-104759D01*
X-132769Y-104997D01*
X-132721Y-105203D01*
X-132697Y-105298D01*
X-132689Y-105385D01*
X-132681Y-105464D01*
X-132674Y-105527D01*
X-132666Y-105583D01*
Y-105623D01*
Y-105646D01*
Y-105654D01*
X-132674Y-105781D01*
X-132681Y-105900D01*
X-132721Y-106130D01*
X-132776Y-106336D01*
X-132840Y-106518D01*
X-132872Y-106597D01*
X-132895Y-106669D01*
X-132927Y-106724D01*
X-132951Y-106780D01*
X-132975Y-106819D01*
X-132991Y-106851D01*
X-133006Y-106867D01*
Y-106875D01*
X-133078Y-106970D01*
X-133149Y-107065D01*
X-133315Y-107239D01*
X-133482Y-107398D01*
X-133656Y-107524D01*
X-133807Y-107635D01*
X-133870Y-107675D01*
X-133934Y-107715D01*
X-133981Y-107739D01*
X-134013Y-107762D01*
X-134037Y-107770D01*
X-134045Y-107778D01*
X-134156Y-107834D01*
X-134282Y-107889D01*
X-134417Y-107937D01*
X-134567Y-107992D01*
X-134877Y-108095D01*
X-135194Y-108190D01*
X-135336Y-108230D01*
X-135479Y-108270D01*
X-135606Y-108301D01*
X-135709Y-108333D01*
X-135804Y-108357D01*
X-135875Y-108372D01*
X-135915Y-108380D01*
X-135931Y-108388D01*
X-136176Y-108444D01*
X-136390Y-108499D01*
X-136588Y-108547D01*
X-136771Y-108594D01*
X-136929Y-108642D01*
X-137072Y-108681D01*
X-137199Y-108713D01*
X-137310Y-108745D01*
X-137397Y-108769D01*
X-137476Y-108800D01*
X-137539Y-108816D01*
X-137595Y-108832D01*
X-137626Y-108848D01*
X-137658Y-108856D01*
X-137666Y-108864D01*
X-137674D01*
X-137785Y-108911D01*
X-137888Y-108951D01*
X-138070Y-109046D01*
X-138221Y-109141D01*
X-138340Y-109236D01*
X-138435Y-109316D01*
X-138506Y-109379D01*
X-138538Y-109419D01*
X-138554Y-109426D01*
Y-109434D01*
X-138641Y-109569D01*
X-138712Y-109704D01*
X-138760Y-109839D01*
X-138792Y-109965D01*
X-138807Y-110068D01*
X-138823Y-110156D01*
Y-110187D01*
Y-110211D01*
Y-110227D01*
Y-110235D01*
X-138815Y-110401D01*
X-138784Y-110560D01*
X-138736Y-110702D01*
X-138688Y-110821D01*
X-138633Y-110924D01*
X-138593Y-111004D01*
X-138570Y-111035D01*
X-138562Y-111059D01*
X-138546Y-111067D01*
Y-111075D01*
X-138427Y-111210D01*
X-138300Y-111328D01*
X-138158Y-111432D01*
X-138015Y-111519D01*
X-137896Y-111590D01*
X-137840Y-111614D01*
X-137793Y-111637D01*
X-137753Y-111653D01*
X-137722Y-111669D01*
X-137706Y-111677D01*
X-137698D01*
X-137484Y-111748D01*
X-137254Y-111804D01*
X-137040Y-111836D01*
X-136834Y-111867D01*
X-136747Y-111875D01*
X-136660Y-111883D01*
X-136588D01*
X-136525Y-111891D01*
X-136398D01*
X-136097Y-111875D01*
X-135812Y-111844D01*
X-135685Y-111828D01*
X-135558Y-111804D01*
X-135447Y-111772D01*
X-135336Y-111748D01*
X-135241Y-111725D01*
X-135154Y-111693D01*
X-135083Y-111669D01*
X-135019Y-111653D01*
X-134964Y-111630D01*
X-134932Y-111622D01*
X-134908Y-111606D01*
X-134900D01*
X-134782Y-111550D01*
X-134671Y-111487D01*
X-134560Y-111424D01*
X-134465Y-111360D01*
X-134377Y-111297D01*
X-134298Y-111233D01*
X-134163Y-111115D01*
X-134052Y-111011D01*
X-133981Y-110924D01*
X-133949Y-110893D01*
X-133934Y-110869D01*
X-133926Y-110853D01*
X-133918Y-110845D01*
X-133807Y-110655D01*
X-133720Y-110457D01*
X-133656Y-110251D01*
X-133601Y-110061D01*
X-133577Y-109973D01*
X-133561Y-109894D01*
X-133553Y-109815D01*
X-133537Y-109751D01*
X-133529Y-109704D01*
Y-109664D01*
X-133521Y-109640D01*
Y-109633D01*
X-132301Y-109735D01*
X-132309Y-109918D01*
X-132333Y-110092D01*
X-132357Y-110267D01*
X-132396Y-110425D01*
X-132436Y-110576D01*
X-132483Y-110726D01*
X-132531Y-110861D01*
X-132578Y-110980D01*
X-132626Y-111099D01*
X-132674Y-111194D01*
X-132713Y-111281D01*
X-132753Y-111360D01*
X-132785Y-111416D01*
X-132808Y-111463D01*
X-132824Y-111487D01*
X-132832Y-111495D01*
X-132935Y-111637D01*
X-133038Y-111764D01*
X-133149Y-111891D01*
X-133268Y-112002D01*
X-133379Y-112105D01*
X-133498Y-112208D01*
X-133617Y-112287D01*
X-133728Y-112367D01*
X-133830Y-112438D01*
X-133926Y-112493D01*
X-134013Y-112549D01*
X-134084Y-112589D01*
X-134148Y-112620D01*
X-134195Y-112644D01*
X-134227Y-112652D01*
X-134235Y-112660D01*
X-134409Y-112723D01*
X-134591Y-112787D01*
X-134956Y-112882D01*
X-135328Y-112945D01*
X-135511Y-112969D01*
X-135677Y-112993D01*
X-135843Y-113008D01*
X-135986Y-113016D01*
X-136121Y-113032D01*
X-136232D01*
X-136327Y-113040D01*
X-136454D01*
X-136644Y-113032D01*
X-136834Y-113024D01*
X-137016Y-113008D01*
X-137191Y-112977D01*
X-137349Y-112953D01*
X-137508Y-112921D01*
X-137650Y-112882D01*
X-137785Y-112850D01*
X-137904Y-112810D01*
X-138015Y-112779D01*
X-138110Y-112747D01*
X-138189Y-112715D01*
X-138245Y-112691D01*
X-138292Y-112676D01*
X-138324Y-112668D01*
X-138332Y-112660D01*
X-138482Y-112589D01*
X-138625Y-112501D01*
X-138760Y-112422D01*
X-138887Y-112335D01*
X-139005Y-112248D01*
X-139108Y-112153D01*
X-139204Y-112073D01*
X-139291Y-111986D01*
X-139362Y-111907D01*
X-139433Y-111836D01*
X-139489Y-111764D01*
X-139536Y-111709D01*
X-139568Y-111661D01*
X-139592Y-111630D01*
X-139608Y-111606D01*
X-139616Y-111598D01*
X-139695Y-111471D01*
X-139766Y-111336D01*
X-139822Y-111210D01*
X-139877Y-111075D01*
X-139925Y-110956D01*
X-139956Y-110829D01*
X-139988Y-110718D01*
X-140012Y-110607D01*
X-140028Y-110504D01*
X-140044Y-110417D01*
X-140051Y-110330D01*
X-140059Y-110267D01*
X-140067Y-110211D01*
Y-110163D01*
Y-110140D01*
Y-110132D01*
X-140059Y-109989D01*
X-140051Y-109846D01*
X-140004Y-109585D01*
X-139972Y-109466D01*
X-139941Y-109347D01*
X-139901Y-109244D01*
X-139861Y-109141D01*
X-139822Y-109054D01*
X-139782Y-108975D01*
X-139750Y-108911D01*
X-139719Y-108848D01*
X-139695Y-108808D01*
X-139671Y-108769D01*
X-139663Y-108753D01*
X-139655Y-108745D01*
X-139576Y-108634D01*
X-139489Y-108531D01*
X-139291Y-108333D01*
X-139085Y-108166D01*
X-138879Y-108016D01*
X-138784Y-107960D01*
X-138696Y-107905D01*
X-138609Y-107857D01*
X-138546Y-107818D01*
X-138482Y-107786D01*
X-138443Y-107762D01*
X-138411Y-107754D01*
X-138403Y-107746D01*
X-138284Y-107699D01*
X-138142Y-107643D01*
X-137983Y-107596D01*
X-137817Y-107540D01*
X-137642Y-107485D01*
X-137460Y-107437D01*
X-137104Y-107342D01*
X-136929Y-107295D01*
X-136771Y-107255D01*
X-136620Y-107215D01*
X-136493Y-107192D01*
X-136390Y-107160D01*
X-136311Y-107144D01*
X-136279Y-107136D01*
X-136256Y-107128D01*
X-136240D01*
X-135954Y-107065D01*
X-135701Y-106994D01*
X-135471Y-106930D01*
X-135265Y-106867D01*
X-135091Y-106811D01*
X-134924Y-106748D01*
X-134789Y-106692D01*
X-134671Y-106645D01*
X-134567Y-106597D01*
X-134488Y-106558D01*
X-134417Y-106518D01*
X-134369Y-106486D01*
X-134330Y-106463D01*
X-134298Y-106447D01*
X-134290Y-106431D01*
X-134282D01*
X-134219Y-106368D01*
X-134163Y-106296D01*
X-134068Y-106153D01*
X-134005Y-106011D01*
X-133957Y-105868D01*
X-133934Y-105749D01*
X-133918Y-105702D01*
Y-105654D01*
X-133910Y-105615D01*
Y-105591D01*
Y-105575D01*
Y-105567D01*
X-133918Y-105456D01*
X-133934Y-105353D01*
X-133957Y-105250D01*
X-133997Y-105155D01*
X-134076Y-104973D01*
X-134179Y-104822D01*
X-134274Y-104703D01*
X-134314Y-104656D01*
X-134361Y-104616D01*
X-134393Y-104577D01*
X-134417Y-104553D01*
X-134433Y-104545D01*
X-134441Y-104537D01*
X-134552Y-104458D01*
X-134671Y-104394D01*
X-134797Y-104331D01*
X-134932Y-104283D01*
X-135217Y-104204D01*
X-135503Y-104157D01*
X-135630Y-104141D01*
X-135756Y-104125D01*
X-135867Y-104117D01*
X-135962Y-104109D01*
X-136042Y-104101D01*
X-136152D01*
X-136359Y-104109D01*
X-136549Y-104125D01*
X-136731Y-104149D01*
X-136897Y-104172D01*
X-137048Y-104212D01*
X-137183Y-104252D01*
X-137310Y-104291D01*
X-137428Y-104339D01*
X-137523Y-104386D01*
X-137611Y-104426D01*
X-137690Y-104466D01*
X-137745Y-104505D01*
X-137793Y-104529D01*
X-137833Y-104553D01*
X-137848Y-104569D01*
X-137856Y-104577D01*
X-137959Y-104672D01*
X-138055Y-104775D01*
X-138134Y-104878D01*
X-138205Y-104997D01*
X-138268Y-105107D01*
X-138324Y-105226D01*
X-138411Y-105448D01*
X-138451Y-105559D01*
X-138475Y-105654D01*
X-138498Y-105741D01*
X-138514Y-105821D01*
X-138522Y-105884D01*
X-138530Y-105932D01*
X-138538Y-105963D01*
Y-105971D01*
X-139774Y-105876D01*
X-139766Y-105718D01*
X-139742Y-105567D01*
X-139679Y-105274D01*
X-139647Y-105139D01*
X-139608Y-105012D01*
X-139560Y-104901D01*
X-139521Y-104790D01*
X-139473Y-104695D01*
X-139433Y-104608D01*
X-139394Y-104529D01*
X-139362Y-104466D01*
X-139330Y-104418D01*
X-139307Y-104378D01*
X-139299Y-104355D01*
X-139291Y-104347D01*
X-139204Y-104220D01*
X-139108Y-104109D01*
X-138902Y-103895D01*
X-138799Y-103808D01*
X-138688Y-103721D01*
X-138585Y-103641D01*
X-138490Y-103578D01*
X-138387Y-103515D01*
X-138300Y-103459D01*
X-138221Y-103420D01*
X-138150Y-103380D01*
X-138094Y-103356D01*
X-138055Y-103332D01*
X-138023Y-103316D01*
X-138015D01*
X-137856Y-103253D01*
X-137690Y-103198D01*
X-137365Y-103110D01*
X-137040Y-103047D01*
X-136889Y-103023D01*
X-136747Y-103007D01*
X-136612Y-102992D01*
X-136485Y-102976D01*
X-136374Y-102968D01*
X-136279D01*
X-136200Y-102960D01*
X-136097D01*
X-135740Y-102976D01*
D02*
G37*
%LPC*%
G36*
X-225272Y110812D02*
X-225376D01*
Y110708D01*
X-225480D01*
Y110812D01*
X-225583D01*
Y110708D01*
X-225480D01*
Y110604D01*
X-225272D01*
Y110812D01*
D02*
G37*
G36*
X-224754D02*
X-224858D01*
Y110708D01*
X-224754D01*
Y110604D01*
X-224443D01*
Y110708D01*
X-224754D01*
Y110812D01*
D02*
G37*
G36*
X-222473Y110086D02*
X-222577D01*
Y109983D01*
X-222473D01*
Y110086D01*
D02*
G37*
G36*
X-220607Y108842D02*
X-220814D01*
Y108738D01*
X-220607D01*
Y108842D01*
D02*
G37*
G36*
X-219985Y108013D02*
X-220089D01*
Y107909D01*
X-219985D01*
Y108013D01*
D02*
G37*
G36*
X-219881Y107805D02*
X-219985D01*
Y107702D01*
X-219881D01*
Y107805D01*
D02*
G37*
G36*
X-224028Y106665D02*
X-224132D01*
Y106561D01*
X-224028D01*
Y106665D01*
D02*
G37*
G36*
X-226205D02*
X-226309D01*
Y106561D01*
X-226205D01*
Y106665D01*
D02*
G37*
G36*
X-223302Y106561D02*
X-223406D01*
Y106458D01*
X-223302D01*
Y106561D01*
D02*
G37*
G36*
X-221747Y105421D02*
X-221851D01*
Y105317D01*
X-221747D01*
Y105213D01*
X-221644D01*
Y105317D01*
X-221747D01*
Y105421D01*
D02*
G37*
G36*
X-221540Y105110D02*
X-221644D01*
Y105006D01*
X-221540D01*
Y105110D01*
D02*
G37*
G36*
X-221022Y102622D02*
X-221125D01*
Y102518D01*
X-221022D01*
Y102622D01*
D02*
G37*
G36*
X-219363Y98889D02*
X-219466D01*
Y98786D01*
X-219363D01*
Y98889D01*
D02*
G37*
G36*
X-221333Y96608D02*
X-221436D01*
Y96505D01*
X-221333D01*
Y96608D01*
D02*
G37*
G36*
X-211380Y108013D02*
X-211484D01*
Y107909D01*
X-211380D01*
Y108013D01*
D02*
G37*
G36*
X-209618Y105628D02*
X-209721D01*
Y105525D01*
X-209618D01*
Y105628D01*
D02*
G37*
G36*
X-212624Y105110D02*
X-212728D01*
Y105006D01*
X-212624D01*
Y105110D01*
D02*
G37*
G36*
X-212106Y99304D02*
X-212209D01*
Y99200D01*
X-212106D01*
Y99304D01*
D02*
G37*
G36*
X-210965Y97438D02*
X-211069D01*
Y97334D01*
X-210965D01*
Y97438D01*
D02*
G37*
G36*
X-210032Y96505D02*
X-210136D01*
Y96401D01*
X-210032D01*
Y96505D01*
D02*
G37*
G36*
X-222680Y94120D02*
X-222992D01*
Y94017D01*
X-222680D01*
Y94120D01*
D02*
G37*
G36*
X-221333Y90284D02*
X-221436D01*
Y90181D01*
X-221333D01*
Y90284D01*
D02*
G37*
G36*
X-221022Y89040D02*
X-221125D01*
Y88937D01*
X-221022D01*
Y89040D01*
D02*
G37*
G36*
X-219570Y82820D02*
X-219674D01*
Y82716D01*
X-219570D01*
Y82820D01*
D02*
G37*
G36*
X-222473Y81887D02*
X-222577D01*
Y81783D01*
X-222473D01*
Y81887D01*
D02*
G37*
G36*
X-225687Y81783D02*
X-225791D01*
Y81679D01*
X-225687D01*
Y81783D01*
D02*
G37*
G36*
X-225998Y81472D02*
X-226102D01*
Y81368D01*
X-225998D01*
Y81472D01*
D02*
G37*
G36*
X-222058Y81368D02*
X-222162D01*
Y81265D01*
X-222058D01*
Y81368D01*
D02*
G37*
G36*
X-220607Y81057D02*
X-220711D01*
Y80954D01*
X-220607D01*
Y81057D01*
D02*
G37*
G36*
X-221747D02*
X-221851D01*
Y80954D01*
X-221747D01*
Y81057D01*
D02*
G37*
G36*
X-221436Y80539D02*
X-221540D01*
Y80435D01*
X-221436D01*
Y80332D01*
X-221333D01*
Y80435D01*
X-221436D01*
Y80539D01*
D02*
G37*
G36*
X-209721Y92876D02*
X-209825D01*
Y92773D01*
X-209721D01*
Y92876D01*
D02*
G37*
G36*
X-209410Y92462D02*
X-209514D01*
Y92358D01*
X-209410D01*
Y92462D01*
D02*
G37*
G36*
X-210343Y89351D02*
X-210447D01*
Y89144D01*
X-210343D01*
Y89351D01*
D02*
G37*
G36*
Y85308D02*
X-210447D01*
Y85204D01*
X-210343D01*
Y85308D01*
D02*
G37*
G36*
X-212106Y83338D02*
X-212209D01*
Y83235D01*
X-212106D01*
Y83338D01*
D02*
G37*
G36*
X-211795Y82612D02*
X-211898D01*
Y82509D01*
X-211795D01*
Y82612D01*
D02*
G37*
G36*
X-211587Y82509D02*
X-211691D01*
Y82405D01*
X-211587D01*
Y82509D01*
D02*
G37*
G36*
X-210654Y81472D02*
X-210758D01*
Y81368D01*
X-210654D01*
Y81472D01*
D02*
G37*
G36*
X-220503Y78569D02*
X-220607D01*
Y78466D01*
X-220503D01*
Y78569D01*
D02*
G37*
G36*
X-220296Y78466D02*
X-220400D01*
Y78258D01*
X-220296D01*
Y78466D01*
D02*
G37*
G36*
X-219156Y76496D02*
X-219259D01*
Y76288D01*
X-219156D01*
Y76496D01*
D02*
G37*
G36*
X-221022Y71830D02*
X-221125D01*
Y71727D01*
X-221022D01*
Y71830D01*
D02*
G37*
G36*
X-218741Y70897D02*
X-218845D01*
Y70794D01*
X-218741D01*
Y70897D01*
D02*
G37*
G36*
X-221333Y70172D02*
X-221436D01*
Y70068D01*
X-221333D01*
Y70172D01*
D02*
G37*
G36*
X-221644Y66128D02*
X-221747D01*
Y66025D01*
X-221644D01*
Y65921D01*
X-221540D01*
Y66025D01*
X-221644D01*
Y66128D01*
D02*
G37*
G36*
X-221436Y65817D02*
X-221540D01*
Y65714D01*
X-221436D01*
Y65817D01*
D02*
G37*
G36*
X-221229Y65714D02*
X-221333D01*
Y65610D01*
X-221229D01*
Y65714D01*
D02*
G37*
G36*
X-209928Y78362D02*
X-210032D01*
Y78258D01*
X-209928D01*
Y78362D01*
D02*
G37*
G36*
X-209825Y78155D02*
X-209928D01*
Y78051D01*
X-209825D01*
Y78155D01*
D02*
G37*
G36*
X-210136Y70275D02*
X-210343D01*
Y70172D01*
X-210136D01*
Y70275D01*
D02*
G37*
G36*
X-211691Y67891D02*
X-211795D01*
Y67787D01*
X-211691D01*
Y67891D01*
D02*
G37*
G36*
X-210032Y66439D02*
X-210136D01*
Y66336D01*
X-210032D01*
Y66439D01*
D02*
G37*
G36*
X-226724Y64677D02*
X-226827D01*
Y64573D01*
X-226724D01*
Y64677D01*
D02*
G37*
G36*
X-221436Y64159D02*
X-221540D01*
Y64055D01*
X-221436D01*
Y64159D01*
D02*
G37*
G36*
X-219363Y61359D02*
X-219466D01*
Y61256D01*
X-219363D01*
Y61359D01*
D02*
G37*
G36*
X-222162Y61152D02*
X-222266D01*
Y61048D01*
X-222162D01*
Y61152D01*
D02*
G37*
G36*
X-226309Y60841D02*
X-226413D01*
Y60737D01*
X-226309D01*
Y60841D01*
D02*
G37*
G36*
X-221955Y60737D02*
X-222058D01*
Y60634D01*
X-221955D01*
Y60737D01*
D02*
G37*
G36*
X-221436Y59597D02*
X-221540D01*
Y59493D01*
X-221436D01*
Y59597D01*
D02*
G37*
G36*
X-226620Y53688D02*
X-226724D01*
Y53584D01*
X-226620D01*
Y53688D01*
D02*
G37*
G36*
X-220192Y52340D02*
X-220296D01*
Y52236D01*
X-220192D01*
Y52340D01*
D02*
G37*
G36*
X-220918Y51510D02*
X-221022D01*
Y51407D01*
X-220918D01*
Y51510D01*
D02*
G37*
G36*
X-225687Y49955D02*
X-225791D01*
Y49852D01*
X-225687D01*
Y49955D01*
D02*
G37*
G36*
X-209203Y64159D02*
X-209307D01*
Y64055D01*
X-209203D01*
Y64159D01*
D02*
G37*
G36*
X-211276Y62500D02*
X-211380D01*
Y62396D01*
X-211276D01*
Y62500D01*
D02*
G37*
G36*
X-211380Y62396D02*
X-211484D01*
Y62292D01*
X-211380D01*
Y62396D01*
D02*
G37*
G36*
X-210654Y58560D02*
X-210758D01*
Y58249D01*
X-210654D01*
Y58560D01*
D02*
G37*
G36*
X-212728Y56072D02*
X-212831D01*
Y55554D01*
X-212624D01*
Y55657D01*
X-212728D01*
Y56072D01*
D02*
G37*
G36*
X-212417Y54828D02*
X-212520D01*
Y54724D01*
X-212417D01*
Y54828D01*
D02*
G37*
G36*
X-209928Y54413D02*
X-210032D01*
Y54310D01*
X-209928D01*
Y54413D01*
D02*
G37*
G36*
X-212209Y54310D02*
X-212313D01*
Y54206D01*
X-212209D01*
Y54310D01*
D02*
G37*
G36*
X-211898Y53480D02*
X-212002D01*
Y53376D01*
X-211898D01*
Y53480D01*
D02*
G37*
G36*
X-211587Y52962D02*
X-211691D01*
Y52858D01*
X-211587D01*
Y52962D01*
D02*
G37*
G36*
X-210965Y52029D02*
X-211069D01*
Y51925D01*
X-210965D01*
Y52029D01*
D02*
G37*
G36*
X-210862Y51821D02*
X-210965D01*
Y51718D01*
X-210862D01*
Y51821D01*
D02*
G37*
G36*
X-210551Y51614D02*
X-210654D01*
Y51510D01*
X-210551D01*
Y51407D01*
X-210447D01*
Y51510D01*
X-210551D01*
Y51614D01*
D02*
G37*
G36*
X-210136Y51303D02*
X-210240D01*
Y51199D01*
X-210136D01*
Y51096D01*
X-210032D01*
Y51199D01*
X-210136D01*
Y51303D01*
D02*
G37*
G36*
X-209410Y50785D02*
X-209514D01*
Y50681D01*
X-209410D01*
Y50785D01*
D02*
G37*
G36*
X-209307Y48608D02*
X-209410D01*
Y48400D01*
X-209307D01*
Y48608D01*
D02*
G37*
G36*
X-211691Y46016D02*
X-211795D01*
Y45912D01*
X-211691D01*
Y45808D01*
X-211587D01*
Y45912D01*
X-211691D01*
Y46016D01*
D02*
G37*
G36*
X-211380Y45601D02*
X-211484D01*
Y45497D01*
X-211380D01*
Y45601D01*
D02*
G37*
G36*
X-211173Y45497D02*
X-211276D01*
Y45394D01*
X-211173D01*
Y45497D01*
D02*
G37*
G36*
X-210654Y45083D02*
X-210758D01*
Y44771D01*
X-210654D01*
Y45083D01*
D02*
G37*
G36*
X-221851Y37514D02*
X-221955D01*
Y37411D01*
X-221851D01*
Y37514D01*
D02*
G37*
G36*
X-220296Y36374D02*
X-220400D01*
Y36270D01*
X-220296D01*
Y36167D01*
X-220192D01*
Y36270D01*
X-220296D01*
Y36374D01*
D02*
G37*
G36*
X-224754Y34300D02*
X-224858D01*
Y34197D01*
X-224754D01*
Y34300D01*
D02*
G37*
G36*
X-222162Y33471D02*
X-222266D01*
Y33367D01*
X-222162D01*
Y33471D01*
D02*
G37*
G36*
X-209825Y37411D02*
X-209928D01*
Y37307D01*
X-209825D01*
Y37411D01*
D02*
G37*
G36*
X-210551Y37203D02*
X-210654D01*
Y37100D01*
X-210551D01*
Y37203D01*
D02*
G37*
G36*
X-212417Y30154D02*
X-212520D01*
Y30050D01*
X-212417D01*
Y30154D01*
D02*
G37*
G36*
X-211380Y28287D02*
X-211484D01*
Y28184D01*
X-211380D01*
Y28080D01*
X-211276D01*
Y28184D01*
X-211380D01*
Y28287D01*
D02*
G37*
G36*
X-210965Y27873D02*
X-211069D01*
Y27769D01*
X-210965D01*
Y27873D01*
D02*
G37*
G36*
X-210447Y27458D02*
X-210654D01*
Y27354D01*
X-210551D01*
Y27251D01*
X-210343D01*
Y27354D01*
X-210447D01*
Y27458D01*
D02*
G37*
G36*
Y27147D02*
X-210551D01*
Y26940D01*
X-210447D01*
Y27147D01*
D02*
G37*
G36*
X-224339Y21549D02*
X-224443D01*
Y21445D01*
X-224339D01*
Y21341D01*
X-224235D01*
Y21445D01*
X-224339D01*
Y21549D01*
D02*
G37*
G36*
X-220089Y20615D02*
X-220192D01*
Y20512D01*
X-220089D01*
Y20615D01*
D02*
G37*
G36*
X-221436Y18127D02*
X-221540D01*
Y18024D01*
X-221436D01*
Y18127D01*
D02*
G37*
G36*
X-223302D02*
X-223406D01*
Y18024D01*
X-223302D01*
Y18127D01*
D02*
G37*
G36*
X-221229Y17713D02*
X-221333D01*
Y17609D01*
X-221229D01*
Y17713D01*
D02*
G37*
G36*
X-218741Y13566D02*
X-218845D01*
Y13462D01*
X-218741D01*
Y13566D01*
D02*
G37*
G36*
X-222680Y9833D02*
X-222784D01*
Y9730D01*
X-222680D01*
Y9833D01*
D02*
G37*
G36*
X-220400Y9108D02*
X-220503D01*
Y9004D01*
X-220400D01*
Y9108D01*
D02*
G37*
G36*
X-221436Y8278D02*
X-221540D01*
Y8175D01*
X-221436D01*
Y8278D01*
D02*
G37*
G36*
X-210551Y21341D02*
X-210654D01*
Y21237D01*
X-210551D01*
Y21341D01*
D02*
G37*
G36*
X-211276Y20823D02*
X-211380D01*
Y20719D01*
X-211276D01*
Y20823D01*
D02*
G37*
G36*
X-210551Y15121D02*
X-210654D01*
Y15017D01*
X-210551D01*
Y15121D01*
D02*
G37*
G36*
X-211898Y10663D02*
X-212002D01*
Y10559D01*
X-211898D01*
Y10663D01*
D02*
G37*
G36*
X-211380Y9833D02*
X-211484D01*
Y9626D01*
X-211276D01*
Y9730D01*
X-211380D01*
Y9833D01*
D02*
G37*
G36*
X-220296Y5272D02*
X-220400D01*
Y5168D01*
X-220296D01*
Y5272D01*
D02*
G37*
G36*
X-222162Y5168D02*
X-222266D01*
Y5064D01*
X-222162D01*
Y5168D01*
D02*
G37*
G36*
X-219985Y4753D02*
X-220089D01*
Y4650D01*
X-219985D01*
Y4753D01*
D02*
G37*
G36*
X-226309Y3198D02*
X-226413D01*
Y2991D01*
X-226309D01*
Y3198D01*
D02*
G37*
G36*
Y2887D02*
X-226413D01*
Y2784D01*
X-226309D01*
Y2887D01*
D02*
G37*
G36*
Y2680D02*
X-226413D01*
Y2576D01*
X-226309D01*
Y2680D01*
D02*
G37*
G36*
X-221644Y-2607D02*
X-221747D01*
Y-2711D01*
X-221644D01*
Y-2607D01*
D02*
G37*
G36*
X-221747Y-2815D02*
X-221851D01*
Y-2919D01*
X-221747D01*
Y-2815D01*
D02*
G37*
G36*
X-226309Y-3955D02*
X-226413D01*
Y-4163D01*
X-226309D01*
Y-3955D01*
D02*
G37*
G36*
X-219570Y-4370D02*
X-219674D01*
Y-4474D01*
X-219570D01*
Y-4370D01*
D02*
G37*
G36*
X-220192Y-5407D02*
X-220296D01*
Y-5510D01*
X-220192D01*
Y-5407D01*
D02*
G37*
G36*
X-220814Y-6132D02*
X-220918D01*
Y-6236D01*
X-220814D01*
Y-6132D01*
D02*
G37*
G36*
X-220918Y-6236D02*
X-221022D01*
Y-6340D01*
X-220918D01*
Y-6236D01*
D02*
G37*
G36*
X-221436Y-6651D02*
X-221540D01*
Y-6754D01*
X-221436D01*
Y-6651D01*
D02*
G37*
G36*
X-211276Y4753D02*
X-211380D01*
Y4650D01*
X-211276D01*
Y4753D01*
D02*
G37*
G36*
X-212624Y2265D02*
X-212728D01*
Y1954D01*
X-212624D01*
Y2265D01*
D02*
G37*
G36*
X-210551Y1643D02*
X-210654D01*
Y1540D01*
X-210551D01*
Y1643D01*
D02*
G37*
G36*
X-212624Y-2296D02*
X-212728D01*
Y-2400D01*
X-212624D01*
Y-2296D01*
D02*
G37*
G36*
X-211587Y-4785D02*
X-211691D01*
Y-4888D01*
X-211587D01*
Y-4785D01*
D02*
G37*
G36*
X-20404Y-100575D02*
X-22654D01*
X-22852Y-100583D01*
X-23027Y-100591D01*
X-23193Y-100607D01*
X-23344Y-100623D01*
X-23479Y-100638D01*
X-23605Y-100662D01*
X-23708Y-100678D01*
X-23804Y-100694D01*
X-23891Y-100718D01*
X-23962Y-100733D01*
X-24017Y-100749D01*
X-24057Y-100765D01*
X-24089Y-100773D01*
X-24105Y-100781D01*
X-24113D01*
X-24247Y-100836D01*
X-24374Y-100908D01*
X-24493Y-100987D01*
X-24604Y-101066D01*
X-24818Y-101249D01*
X-24905Y-101344D01*
X-24992Y-101439D01*
X-25071Y-101526D01*
X-25135Y-101605D01*
X-25198Y-101684D01*
X-25246Y-101748D01*
X-25285Y-101803D01*
X-25309Y-101843D01*
X-25325Y-101875D01*
X-25333Y-101882D01*
X-25420Y-102041D01*
X-25499Y-102223D01*
X-25571Y-102406D01*
X-25626Y-102596D01*
X-25674Y-102794D01*
X-25713Y-102992D01*
X-25753Y-103182D01*
X-25777Y-103364D01*
X-25800Y-103547D01*
X-25816Y-103705D01*
X-25824Y-103856D01*
X-25832Y-103983D01*
X-25840Y-104086D01*
Y-104165D01*
Y-104197D01*
Y-104220D01*
Y-104228D01*
Y-104236D01*
Y-104442D01*
X-25832Y-104632D01*
X-25816Y-104815D01*
X-25800Y-104997D01*
X-25777Y-105163D01*
X-25761Y-105314D01*
X-25737Y-105457D01*
X-25713Y-105591D01*
X-25682Y-105702D01*
X-25658Y-105813D01*
X-25642Y-105900D01*
X-25618Y-105972D01*
X-25602Y-106035D01*
X-25587Y-106075D01*
X-25579Y-106106D01*
Y-106114D01*
X-25476Y-106392D01*
X-25420Y-106518D01*
X-25357Y-106637D01*
X-25301Y-106748D01*
X-25238Y-106843D01*
X-25182Y-106938D01*
X-25127Y-107026D01*
X-25071Y-107097D01*
X-25024Y-107160D01*
X-24976Y-107224D01*
X-24945Y-107263D01*
X-24913Y-107303D01*
X-24889Y-107327D01*
X-24873Y-107343D01*
X-24865Y-107351D01*
X-24739Y-107462D01*
X-24596Y-107565D01*
X-24445Y-107652D01*
X-24311Y-107723D01*
X-24184Y-107787D01*
X-24128Y-107802D01*
X-24081Y-107826D01*
X-24049Y-107842D01*
X-24017Y-107850D01*
X-24002Y-107858D01*
X-23994D01*
X-23891Y-107889D01*
X-23772Y-107913D01*
X-23526Y-107961D01*
X-23273Y-107992D01*
X-23035Y-108008D01*
X-22916Y-108016D01*
X-22813Y-108024D01*
X-22718D01*
X-22638Y-108032D01*
X-20404D01*
Y-100575D01*
D02*
G37*
G36*
X136546Y193939D02*
X136483D01*
X136356Y193931D01*
X136237Y193923D01*
X136126Y193899D01*
X136023Y193867D01*
X135833Y193796D01*
X135667Y193717D01*
X135595Y193669D01*
X135532Y193630D01*
X135484Y193590D01*
X135437Y193558D01*
X135405Y193526D01*
X135381Y193503D01*
X135365Y193495D01*
X135358Y193487D01*
X135278Y193400D01*
X135207Y193313D01*
X135144Y193218D01*
X135088Y193122D01*
X135049Y193027D01*
X135009Y192940D01*
X134953Y192766D01*
X134922Y192607D01*
X134914Y192544D01*
X134906Y192488D01*
X134898Y192441D01*
Y192409D01*
Y192385D01*
Y192377D01*
X134906Y192259D01*
X134914Y192148D01*
X134969Y191942D01*
X135041Y191759D01*
X135120Y191609D01*
X135159Y191537D01*
X135199Y191482D01*
X135239Y191427D01*
X135270Y191387D01*
X135302Y191355D01*
X135326Y191331D01*
X135334Y191315D01*
X135342Y191308D01*
X135429Y191228D01*
X135516Y191165D01*
X135611Y191110D01*
X135706Y191054D01*
X135889Y190975D01*
X136071Y190927D01*
X136229Y190896D01*
X136301Y190888D01*
X136356Y190880D01*
X136404Y190872D01*
X136475D01*
X136602Y190880D01*
X136728Y190888D01*
X136958Y190943D01*
X137156Y191007D01*
X137244Y191046D01*
X137323Y191094D01*
X137394Y191133D01*
X137458Y191173D01*
X137505Y191205D01*
X137553Y191236D01*
X137584Y191268D01*
X137608Y191292D01*
X137624Y191300D01*
X137632Y191308D01*
X137711Y191395D01*
X137775Y191482D01*
X137830Y191577D01*
X137886Y191672D01*
X137965Y191862D01*
X138012Y192045D01*
X138028Y192124D01*
X138044Y192203D01*
X138052Y192267D01*
X138060Y192330D01*
X138068Y192377D01*
Y192409D01*
Y192433D01*
Y192441D01*
X138060Y192552D01*
X138052Y192663D01*
X137997Y192861D01*
X137925Y193043D01*
X137846Y193194D01*
X137806Y193265D01*
X137767Y193321D01*
X137727Y193376D01*
X137695Y193416D01*
X137664Y193447D01*
X137640Y193471D01*
X137632Y193487D01*
X137624Y193495D01*
X137537Y193574D01*
X137442Y193645D01*
X137355Y193701D01*
X137252Y193748D01*
X137061Y193828D01*
X136887Y193883D01*
X136800Y193899D01*
X136728Y193915D01*
X136657Y193923D01*
X136594Y193931D01*
X136546Y193939D01*
D02*
G37*
G36*
X136594Y189897D02*
X136515D01*
X136356Y189889D01*
X136206Y189873D01*
X136063Y189841D01*
X135928Y189810D01*
X135801Y189762D01*
X135682Y189715D01*
X135571Y189667D01*
X135476Y189612D01*
X135381Y189556D01*
X135302Y189509D01*
X135239Y189461D01*
X135183Y189414D01*
X135136Y189382D01*
X135104Y189350D01*
X135088Y189334D01*
X135080Y189326D01*
X134977Y189215D01*
X134890Y189104D01*
X134811Y188986D01*
X134747Y188867D01*
X134692Y188748D01*
X134644Y188629D01*
X134605Y188510D01*
X134573Y188399D01*
X134549Y188296D01*
X134533Y188201D01*
X134517Y188114D01*
X134510Y188035D01*
X134502Y187979D01*
Y187932D01*
Y187900D01*
Y187892D01*
X134510Y187733D01*
X134525Y187591D01*
X134557Y187448D01*
X134589Y187313D01*
X134628Y187195D01*
X134676Y187076D01*
X134732Y186973D01*
X134779Y186870D01*
X134834Y186782D01*
X134890Y186711D01*
X134937Y186648D01*
X134977Y186592D01*
X135009Y186545D01*
X135041Y186513D01*
X135056Y186497D01*
X135064Y186489D01*
X135175Y186394D01*
X135286Y186307D01*
X135397Y186236D01*
X135516Y186172D01*
X135635Y186117D01*
X135754Y186077D01*
X135865Y186038D01*
X135976Y186014D01*
X136079Y185990D01*
X136174Y185974D01*
X136261Y185958D01*
X136332Y185950D01*
X136396Y185942D01*
X136475D01*
X136681Y185950D01*
X136871Y185982D01*
X137045Y186022D01*
X137204Y186077D01*
X137331Y186125D01*
X137386Y186141D01*
X137426Y186164D01*
X137465Y186180D01*
X137489Y186196D01*
X137505Y186204D01*
X137513D01*
X137680Y186315D01*
X137822Y186426D01*
X137949Y186553D01*
X138044Y186672D01*
X138123Y186775D01*
X138179Y186862D01*
X138202Y186894D01*
X138218Y186917D01*
X138226Y186933D01*
Y186941D01*
X138306Y187123D01*
X138361Y187298D01*
X138409Y187472D01*
X138432Y187623D01*
X138448Y187749D01*
X138456Y187805D01*
Y187852D01*
X138464Y187892D01*
Y187916D01*
Y187932D01*
Y187940D01*
X138456Y188090D01*
X138440Y188241D01*
X138417Y188375D01*
X138377Y188510D01*
X138337Y188629D01*
X138290Y188748D01*
X138242Y188851D01*
X138187Y188946D01*
X138139Y189033D01*
X138092Y189112D01*
X138044Y189176D01*
X138004Y189231D01*
X137965Y189279D01*
X137941Y189310D01*
X137925Y189326D01*
X137917Y189334D01*
X137806Y189437D01*
X137695Y189517D01*
X137584Y189596D01*
X137465Y189659D01*
X137347Y189715D01*
X137228Y189762D01*
X137117Y189794D01*
X137006Y189826D01*
X136903Y189849D01*
X136816Y189865D01*
X136728Y189881D01*
X136657Y189889D01*
X136594Y189897D01*
D02*
G37*
G36*
X135491Y40404D02*
X135412D01*
X135261Y40396D01*
X135118Y40380D01*
X134976Y40349D01*
X134849Y40309D01*
X134730Y40269D01*
X134619Y40222D01*
X134516Y40166D01*
X134421Y40111D01*
X134334Y40055D01*
X134262Y40000D01*
X134199Y39952D01*
X134144Y39913D01*
X134104Y39873D01*
X134072Y39841D01*
X134056Y39826D01*
X134049Y39818D01*
X133953Y39707D01*
X133874Y39580D01*
X133795Y39453D01*
X133739Y39318D01*
X133684Y39184D01*
X133644Y39057D01*
X133573Y38795D01*
X133557Y38677D01*
X133541Y38566D01*
X133525Y38470D01*
X133518Y38383D01*
X133510Y38312D01*
Y38265D01*
Y38225D01*
Y38217D01*
X133518Y38027D01*
X133533Y37845D01*
X133557Y37670D01*
X133597Y37512D01*
X133636Y37361D01*
X133684Y37226D01*
X133731Y37099D01*
X133779Y36989D01*
X133834Y36885D01*
X133882Y36798D01*
X133930Y36727D01*
X133969Y36664D01*
X134009Y36616D01*
X134033Y36584D01*
X134049Y36561D01*
X134056Y36553D01*
X134159Y36442D01*
X134270Y36355D01*
X134381Y36267D01*
X134492Y36204D01*
X134603Y36141D01*
X134706Y36093D01*
X134817Y36053D01*
X134912Y36022D01*
X135007Y35990D01*
X135094Y35974D01*
X135174Y35958D01*
X135237Y35950D01*
X135293D01*
X135332Y35942D01*
X135364D01*
X135554Y35958D01*
X135737Y35990D01*
X135911Y36038D01*
X136053Y36093D01*
X136180Y36141D01*
X136228Y36164D01*
X136275Y36188D01*
X136307Y36212D01*
X136331Y36220D01*
X136347Y36236D01*
X136355D01*
X136521Y36355D01*
X136664Y36497D01*
X136791Y36632D01*
X136894Y36775D01*
X136973Y36901D01*
X137012Y36949D01*
X137036Y36997D01*
X137060Y37036D01*
X137068Y37068D01*
X137084Y37084D01*
Y37092D01*
X137171Y37306D01*
X137234Y37520D01*
X137282Y37718D01*
X137313Y37908D01*
X137321Y37987D01*
X137329Y38058D01*
X137337Y38130D01*
Y38185D01*
X137345Y38225D01*
Y38256D01*
Y38280D01*
Y38288D01*
X137337Y38463D01*
X137321Y38621D01*
X137290Y38780D01*
X137258Y38922D01*
X137218Y39065D01*
X137171Y39184D01*
X137115Y39303D01*
X137060Y39406D01*
X137012Y39501D01*
X136957Y39580D01*
X136909Y39651D01*
X136870Y39715D01*
X136838Y39754D01*
X136806Y39794D01*
X136791Y39810D01*
X136783Y39818D01*
X136672Y39921D01*
X136561Y40008D01*
X136450Y40087D01*
X136331Y40159D01*
X136212Y40214D01*
X136101Y40262D01*
X135990Y40301D01*
X135887Y40333D01*
X135784Y40357D01*
X135697Y40373D01*
X135618Y40388D01*
X135546Y40396D01*
X135491Y40404D01*
D02*
G37*
G36*
X-145187Y-105036D02*
Y-109434D01*
X-142128D01*
X-145187Y-105036D01*
D02*
G37*
%LPD*%
D10*
X-116250Y-54000D02*
G03*
X-116250Y-54000I-1250J0D01*
G01*
X118750Y204000D02*
G03*
X118750Y204000I-1250J0D01*
G01*
Y-96000D02*
G03*
X118750Y-96000I-1250J0D01*
G01*
X-116250Y86000D02*
G03*
X-116250Y86000I-1250J0D01*
G01*
X118750Y54000D02*
G03*
X118750Y54000I-1250J0D01*
G01*
X-116250Y-204000D02*
G03*
X-116250Y-204000I-1250J0D01*
G01*
D11*
X-110000Y-28250D02*
Y28250D01*
X-152250Y30000D02*
X-127750D01*
X-170000Y-28250D02*
Y28250D01*
X-152250Y-30000D02*
X-127750D01*
X110000Y121750D02*
Y178250D01*
X127750Y120000D02*
X152250D01*
X170000Y121750D02*
Y178250D01*
X127750Y180000D02*
X152250D01*
X110000Y-178250D02*
Y-121750D01*
X127750Y-180000D02*
X152250D01*
X170000Y-178250D02*
Y-121750D01*
X127750Y-120000D02*
X152250D01*
X-152250Y110000D02*
X-127750D01*
X-170000Y111750D02*
Y168250D01*
X-152250Y170000D02*
X-127750D01*
X-110000Y111750D02*
Y168250D01*
X127750Y30000D02*
X152250D01*
X170000Y-28250D02*
Y28250D01*
X127750Y-30000D02*
X152250D01*
X110000Y-28250D02*
Y28250D01*
X-152250Y-180000D02*
X-127750D01*
X-170000Y-178250D02*
Y-121750D01*
X-152250Y-120000D02*
X-127750D01*
X-110000Y-178250D02*
Y-121750D01*
D14*
X17205Y-140000D02*
G03*
X17205Y-140000I-17205J0D01*
G01*
X-25000Y-116632D02*
Y-115000D01*
X25000Y-116632D02*
Y-115000D01*
Y-165000D02*
Y-163368D01*
X25000Y-148890D02*
Y-131110D01*
X-25000Y-115000D02*
X25000D01*
X-16000Y-165000D02*
X25000D01*
X-17635Y-163365D02*
X-16000Y-165000D01*
X-25000Y-148890D02*
Y-131110D01*
M02*
