G04*
G04 #@! TF.GenerationSoftware,Altium Limited,Altium Designer,22.10.1 (41)*
G04*
G04 Layer_Color=32896*
%FSLAX44Y44*%
%MOMM*%
G71*
G04*
G04 #@! TF.SameCoordinates,6FA54AF5-B1EA-40D0-AA23-297218595CE5*
G04*
G04*
G04 #@! TF.FilePolarity,Positive*
G04*
G01*
G75*
%ADD10C,0.2500*%
%ADD11C,0.2000*%
%ADD14C,0.1270*%
G36*
X-210965Y113922D02*
X-211795D01*
Y114026D01*
X-210965D01*
Y113922D01*
D02*
G37*
G36*
X-210862Y111849D02*
X-212417D01*
Y111952D01*
X-210862D01*
Y111849D01*
D02*
G37*
G36*
X-224339Y110708D02*
X-224235D01*
Y110604D01*
X-224028D01*
Y110501D01*
X-223717D01*
Y110397D01*
X-223613D01*
Y110501D01*
X-223406D01*
Y110397D01*
X-222992D01*
Y110190D01*
X-222888D01*
Y110294D01*
X-222680D01*
Y110190D01*
X-222473D01*
Y110086D01*
X-222369D01*
Y109983D01*
X-222266D01*
Y110294D01*
X-222162D01*
Y110190D01*
X-222058D01*
Y110086D01*
X-222162D01*
Y109879D01*
X-222058D01*
Y109983D01*
X-221955D01*
Y109879D01*
X-221851D01*
Y109671D01*
X-221747D01*
Y109568D01*
X-221644D01*
Y109464D01*
X-221540D01*
Y109568D01*
X-221644D01*
Y109671D01*
X-221540D01*
Y109775D01*
X-221644D01*
Y109879D01*
X-221436D01*
Y109568D01*
X-221333D01*
Y109464D01*
X-221436D01*
Y109360D01*
X-221333D01*
Y109257D01*
X-221229D01*
Y109360D01*
X-221125D01*
Y109257D01*
X-221022D01*
Y109153D01*
X-220918D01*
Y108946D01*
X-220814D01*
Y109049D01*
X-220711D01*
Y108946D01*
X-220607D01*
Y108842D01*
X-220503D01*
Y108427D01*
X-220400D01*
Y108531D01*
X-220296D01*
Y108324D01*
X-220400D01*
Y108220D01*
X-220192D01*
Y108116D01*
X-219985D01*
Y108013D01*
X-219674D01*
Y107805D01*
X-219778D01*
Y107598D01*
X-219881D01*
Y107494D01*
X-219674D01*
Y107287D01*
X-219466D01*
Y107183D01*
X-219674D01*
Y107080D01*
X-219570D01*
Y106976D01*
X-219156D01*
Y106872D01*
X-219363D01*
Y106665D01*
X-219466D01*
Y106561D01*
X-219259D01*
Y106458D01*
X-219156D01*
Y106250D01*
X-218948D01*
Y105939D01*
X-219156D01*
Y105732D01*
X-219052D01*
Y105421D01*
X-218948D01*
Y105213D01*
X-218845D01*
Y104799D01*
X-218741D01*
Y104695D01*
X-218533D01*
Y104280D01*
X-218637D01*
Y104591D01*
X-218845D01*
Y104384D01*
X-218741D01*
Y104177D01*
X-218845D01*
Y103969D01*
X-218741D01*
Y101896D01*
X-218845D01*
Y101377D01*
X-218741D01*
Y101170D01*
X-218637D01*
Y101067D01*
X-218845D01*
Y100756D01*
X-218948D01*
Y100237D01*
X-219052D01*
Y100133D01*
X-219156D01*
Y99926D01*
X-218948D01*
Y99822D01*
X-219052D01*
Y99719D01*
X-219259D01*
Y99511D01*
X-219363D01*
Y99304D01*
X-219259D01*
Y99200D01*
X-219363D01*
Y98993D01*
X-219259D01*
Y98682D01*
X-219363D01*
Y98475D01*
X-219466D01*
Y98682D01*
X-219570D01*
Y98578D01*
X-219674D01*
Y98475D01*
X-219778D01*
Y98371D01*
X-219881D01*
Y98267D01*
X-219778D01*
Y98060D01*
X-219881D01*
Y97956D01*
X-220089D01*
Y97749D01*
X-220296D01*
Y97645D01*
X-220400D01*
Y97542D01*
X-220503D01*
Y97438D01*
X-220296D01*
Y97334D01*
X-220400D01*
Y97231D01*
X-220503D01*
Y97127D01*
X-220607D01*
Y97231D01*
X-220711D01*
Y97127D01*
X-220607D01*
Y96919D01*
X-220918D01*
Y96608D01*
X-220814D01*
Y96505D01*
X-221022D01*
Y96608D01*
X-221229D01*
Y96401D01*
X-221540D01*
Y96194D01*
X-221644D01*
Y96090D01*
X-221747D01*
Y96298D01*
X-221851D01*
Y95986D01*
X-221955D01*
Y96090D01*
X-222058D01*
Y95883D01*
X-222473D01*
Y95779D01*
X-222577D01*
Y95572D01*
X-222680D01*
Y95675D01*
X-222784D01*
Y95572D01*
X-222888D01*
Y95675D01*
X-222992D01*
Y95364D01*
X-223095D01*
Y95468D01*
X-223199D01*
Y95572D01*
X-223302D01*
Y95468D01*
X-223406D01*
Y95364D01*
X-223717D01*
Y95261D01*
X-223925D01*
Y95364D01*
X-224028D01*
Y95261D01*
X-224443D01*
Y95157D01*
X-224339D01*
Y95053D01*
X-224754D01*
Y95157D01*
X-224961D01*
Y95053D01*
X-225791D01*
Y95157D01*
X-225894D01*
Y95053D01*
X-226102D01*
Y95157D01*
X-225998D01*
Y95261D01*
X-226516D01*
Y95364D01*
X-226620D01*
Y95157D01*
X-226827D01*
Y95261D01*
X-226724D01*
Y95364D01*
X-227035D01*
Y95572D01*
X-227138D01*
Y95468D01*
X-227346D01*
Y99615D01*
X-227242D01*
Y99408D01*
X-227138D01*
Y99304D01*
X-227035D01*
Y99408D01*
X-226931D01*
Y99304D01*
X-226827D01*
Y99408D01*
X-226724D01*
Y99511D01*
X-226102D01*
Y99408D01*
X-226620D01*
Y99304D01*
X-226413D01*
Y99200D01*
X-226309D01*
Y99304D01*
X-226102D01*
Y99200D01*
X-224339D01*
Y99304D01*
X-224443D01*
Y99408D01*
X-224339D01*
Y99511D01*
X-223821D01*
Y99408D01*
X-224235D01*
Y99304D01*
X-223717D01*
Y99408D01*
X-223613D01*
Y99304D01*
X-223510D01*
Y99408D01*
X-223406D01*
Y99511D01*
X-223302D01*
Y99408D01*
X-223199D01*
Y99615D01*
X-222992D01*
Y99719D01*
X-222888D01*
Y99822D01*
X-222680D01*
Y99926D01*
X-222577D01*
Y99719D01*
X-222473D01*
Y99926D01*
X-222577D01*
Y100030D01*
X-222369D01*
Y100133D01*
X-222162D01*
Y100030D01*
X-222058D01*
Y100237D01*
X-222162D01*
Y100341D01*
X-222058D01*
Y100444D01*
X-221955D01*
Y100341D01*
X-221747D01*
Y100444D01*
X-221851D01*
Y100548D01*
X-221747D01*
Y100859D01*
X-221644D01*
Y100756D01*
X-221540D01*
Y100963D01*
X-221436D01*
Y101481D01*
X-221333D01*
Y101377D01*
X-221229D01*
Y101481D01*
X-221333D01*
Y101688D01*
X-221229D01*
Y102000D01*
X-221125D01*
Y102518D01*
X-221229D01*
Y102622D01*
X-221333D01*
Y102933D01*
X-221229D01*
Y102725D01*
X-221125D01*
Y103140D01*
X-221229D01*
Y103347D01*
X-221022D01*
Y103451D01*
X-221229D01*
Y103555D01*
X-221022D01*
Y103658D01*
X-221125D01*
Y103866D01*
X-221229D01*
Y104177D01*
X-221333D01*
Y104488D01*
X-221436D01*
Y104695D01*
X-221540D01*
Y104799D01*
X-221436D01*
Y104902D01*
X-221644D01*
Y105006D01*
X-221747D01*
Y105110D01*
X-221955D01*
Y105213D01*
X-221851D01*
Y105317D01*
X-221955D01*
Y105421D01*
X-222058D01*
Y105628D01*
X-221955D01*
Y105732D01*
X-222058D01*
Y105836D01*
X-222266D01*
Y105732D01*
X-222369D01*
Y105836D01*
X-222577D01*
Y105939D01*
X-222369D01*
Y106043D01*
X-222577D01*
Y106146D01*
X-222680D01*
Y106043D01*
X-222784D01*
Y106146D01*
X-222992D01*
Y106043D01*
X-223095D01*
Y106250D01*
X-223199D01*
Y106354D01*
X-223406D01*
Y106458D01*
X-223717D01*
Y106561D01*
X-223821D01*
Y106665D01*
X-223925D01*
Y106354D01*
X-224028D01*
Y106458D01*
X-224132D01*
Y106561D01*
X-224235D01*
Y106458D01*
X-224339D01*
Y106561D01*
X-224443D01*
Y106665D01*
X-226102D01*
Y106561D01*
X-225894D01*
Y106458D01*
X-226205D01*
Y106354D01*
X-226309D01*
Y106561D01*
X-226724D01*
Y106458D01*
X-226827D01*
Y106561D01*
X-226931D01*
Y106458D01*
X-227035D01*
Y106354D01*
X-227346D01*
Y110397D01*
X-227035D01*
Y110501D01*
X-226620D01*
Y110604D01*
X-226102D01*
Y110708D01*
X-225998D01*
Y110604D01*
X-225894D01*
Y110708D01*
X-225791D01*
Y110812D01*
X-225687D01*
Y110915D01*
X-225272D01*
Y110812D01*
X-225169D01*
Y110708D01*
X-225065D01*
Y110812D01*
X-224961D01*
Y110915D01*
X-224754D01*
Y110812D01*
X-224547D01*
Y110915D01*
X-224339D01*
Y110708D01*
D02*
G37*
G36*
X-208995Y106146D02*
X-209099D01*
Y106043D01*
X-209203D01*
Y105732D01*
X-209307D01*
Y105628D01*
X-209514D01*
Y105732D01*
X-209618D01*
Y105628D01*
X-209514D01*
Y105421D01*
X-209618D01*
Y105317D01*
X-209721D01*
Y105213D01*
X-209825D01*
Y105317D01*
X-209928D01*
Y105213D01*
X-209825D01*
Y105110D01*
X-209928D01*
Y104902D01*
X-209825D01*
Y104591D01*
X-209928D01*
Y104799D01*
X-210136D01*
Y104384D01*
X-210240D01*
Y104488D01*
X-210343D01*
Y104280D01*
X-210240D01*
Y104177D01*
X-210136D01*
Y104073D01*
X-210240D01*
Y103969D01*
X-210343D01*
Y103762D01*
X-210447D01*
Y103658D01*
X-210343D01*
Y103451D01*
X-210447D01*
Y102311D01*
X-210343D01*
Y102207D01*
X-210447D01*
Y102103D01*
X-210343D01*
Y101688D01*
X-210240D01*
Y101377D01*
X-210136D01*
Y101274D01*
X-210032D01*
Y101170D01*
X-210136D01*
Y100963D01*
X-210032D01*
Y101067D01*
X-209928D01*
Y100859D01*
X-209825D01*
Y100652D01*
X-209618D01*
Y100548D01*
X-209721D01*
Y100341D01*
X-209618D01*
Y100444D01*
X-209514D01*
Y100341D01*
X-209410D01*
Y100237D01*
X-209307D01*
Y100030D01*
X-209203D01*
Y100237D01*
X-209099D01*
Y99926D01*
X-208995D01*
Y99822D01*
X-209099D01*
Y99719D01*
X-208995D01*
Y95675D01*
X-209099D01*
Y95779D01*
X-209307D01*
Y95883D01*
X-209203D01*
Y95986D01*
X-209410D01*
Y95883D01*
X-209618D01*
Y95986D01*
X-209721D01*
Y96090D01*
X-209825D01*
Y96194D01*
X-210032D01*
Y96298D01*
X-210136D01*
Y96194D01*
X-210032D01*
Y96090D01*
X-210240D01*
Y96194D01*
X-210343D01*
Y96298D01*
X-210240D01*
Y96712D01*
X-210343D01*
Y96505D01*
X-210447D01*
Y96712D01*
X-210551D01*
Y97023D01*
X-210654D01*
Y96919D01*
X-210862D01*
Y96712D01*
X-210965D01*
Y96816D01*
X-211069D01*
Y97023D01*
X-210965D01*
Y97127D01*
X-211069D01*
Y97231D01*
X-211173D01*
Y97334D01*
X-211276D01*
Y97438D01*
X-211380D01*
Y97334D01*
X-211484D01*
Y97542D01*
X-211173D01*
Y97749D01*
X-211276D01*
Y97645D01*
X-211484D01*
Y97853D01*
X-211380D01*
Y97956D01*
X-211587D01*
Y98060D01*
X-211691D01*
Y98164D01*
X-211795D01*
Y98267D01*
X-211898D01*
Y98371D01*
X-211795D01*
Y98475D01*
X-212106D01*
Y98578D01*
X-212002D01*
Y98786D01*
X-211898D01*
Y98889D01*
X-212002D01*
Y98993D01*
X-212106D01*
Y99097D01*
X-212209D01*
Y99200D01*
X-212313D01*
Y99408D01*
X-212209D01*
Y99511D01*
X-212313D01*
Y99615D01*
X-212209D01*
Y99719D01*
X-212417D01*
Y100030D01*
X-212520D01*
Y100133D01*
X-212417D01*
Y100237D01*
X-212520D01*
Y100341D01*
X-212624D01*
Y100652D01*
X-212831D01*
Y100756D01*
X-212624D01*
Y100859D01*
X-212831D01*
Y100963D01*
X-212728D01*
Y101067D01*
X-212624D01*
Y101170D01*
X-212728D01*
Y101274D01*
X-212624D01*
Y101377D01*
X-212728D01*
Y101688D01*
X-212831D01*
Y101792D01*
X-212728D01*
Y101896D01*
X-212831D01*
Y103969D01*
X-212728D01*
Y104073D01*
X-212831D01*
Y104177D01*
X-212728D01*
Y104695D01*
X-212624D01*
Y104799D01*
X-212728D01*
Y104902D01*
X-212831D01*
Y105213D01*
X-212624D01*
Y105421D01*
X-212520D01*
Y105628D01*
X-212417D01*
Y105836D01*
X-212520D01*
Y105939D01*
X-212417D01*
Y106250D01*
X-212520D01*
Y106458D01*
X-212313D01*
Y106250D01*
X-212209D01*
Y106458D01*
X-212313D01*
Y106561D01*
X-212520D01*
Y106665D01*
X-212417D01*
Y106769D01*
X-212313D01*
Y106665D01*
X-212209D01*
Y106561D01*
X-212106D01*
Y106665D01*
X-212209D01*
Y106872D01*
X-212106D01*
Y107080D01*
X-212002D01*
Y106976D01*
X-211898D01*
Y107080D01*
X-212002D01*
Y107183D01*
X-211898D01*
Y107287D01*
X-212106D01*
Y107391D01*
X-211898D01*
Y107598D01*
X-211795D01*
Y107702D01*
X-211691D01*
Y108013D01*
X-211587D01*
Y108116D01*
X-211484D01*
Y108220D01*
X-211380D01*
Y108116D01*
X-211276D01*
Y108324D01*
X-211380D01*
Y108427D01*
X-211276D01*
Y108531D01*
X-211069D01*
Y108738D01*
X-210965D01*
Y108946D01*
X-210758D01*
Y108842D01*
X-210654D01*
Y108946D01*
X-210758D01*
Y109049D01*
X-210654D01*
Y109153D01*
X-210758D01*
Y109257D01*
X-210654D01*
Y109464D01*
X-210551D01*
Y109257D01*
X-210447D01*
Y109360D01*
X-210343D01*
Y109257D01*
X-210240D01*
Y109360D01*
X-210343D01*
Y109464D01*
X-210240D01*
Y109568D01*
X-209825D01*
Y109671D01*
X-209928D01*
Y109775D01*
X-209721D01*
Y109879D01*
X-209618D01*
Y109983D01*
X-208995D01*
Y106146D01*
D02*
G37*
G36*
X-221747Y94120D02*
X-221644D01*
Y94017D01*
X-221747D01*
Y93913D01*
X-221436D01*
Y93809D01*
X-221540D01*
Y93706D01*
X-221333D01*
Y93809D01*
X-221229D01*
Y93706D01*
X-221125D01*
Y93809D01*
X-221229D01*
Y93913D01*
X-220918D01*
Y93809D01*
X-221022D01*
Y93602D01*
X-220814D01*
Y93498D01*
X-220607D01*
Y93395D01*
X-220503D01*
Y93291D01*
X-220607D01*
Y93084D01*
X-220503D01*
Y92980D01*
X-220296D01*
Y92876D01*
X-220192D01*
Y92980D01*
X-220089D01*
Y92876D01*
X-219985D01*
Y92773D01*
X-219881D01*
Y92669D01*
X-219674D01*
Y92565D01*
X-219881D01*
Y92462D01*
X-219674D01*
Y92358D01*
X-219778D01*
Y92254D01*
X-219570D01*
Y92150D01*
X-219466D01*
Y92047D01*
X-219674D01*
Y91943D01*
X-219466D01*
Y91736D01*
X-219363D01*
Y91632D01*
X-219466D01*
Y91529D01*
X-219363D01*
Y91217D01*
X-219259D01*
Y91321D01*
X-219156D01*
Y91114D01*
X-218948D01*
Y90906D01*
X-219156D01*
Y90803D01*
X-219052D01*
Y90699D01*
X-219156D01*
Y90595D01*
X-218948D01*
Y90284D01*
X-219052D01*
Y90181D01*
X-218948D01*
Y90077D01*
X-218845D01*
Y89662D01*
X-218741D01*
Y89455D01*
X-218845D01*
Y89351D01*
X-218637D01*
Y89559D01*
X-218533D01*
Y89248D01*
X-218741D01*
Y86552D01*
X-218637D01*
Y86448D01*
X-218741D01*
Y86034D01*
X-218637D01*
Y85930D01*
X-218533D01*
Y85826D01*
X-218741D01*
Y85930D01*
X-218845D01*
Y85826D01*
X-218741D01*
Y85723D01*
X-218533D01*
Y85515D01*
X-218637D01*
Y85619D01*
X-218741D01*
Y85412D01*
X-218845D01*
Y85101D01*
X-218948D01*
Y84997D01*
X-218845D01*
Y84893D01*
X-218948D01*
Y84790D01*
X-219052D01*
Y84582D01*
X-218948D01*
Y84479D01*
X-219052D01*
Y84168D01*
X-219156D01*
Y83546D01*
X-219363D01*
Y83442D01*
X-219259D01*
Y83235D01*
X-219466D01*
Y83131D01*
X-219363D01*
Y82924D01*
X-219570D01*
Y82820D01*
X-219259D01*
Y82716D01*
X-219363D01*
Y82509D01*
X-219466D01*
Y82612D01*
X-219570D01*
Y82509D01*
X-219674D01*
Y82612D01*
X-219778D01*
Y82405D01*
X-219674D01*
Y82302D01*
X-219881D01*
Y82198D01*
X-219778D01*
Y82094D01*
X-219674D01*
Y81990D01*
X-219881D01*
Y81783D01*
X-219985D01*
Y81887D01*
X-220089D01*
Y81576D01*
X-220192D01*
Y81472D01*
X-220400D01*
Y81265D01*
X-220503D01*
Y81161D01*
X-220607D01*
Y81057D01*
X-220503D01*
Y80850D01*
X-220711D01*
Y80643D01*
X-220814D01*
Y80850D01*
X-220918D01*
Y80643D01*
X-221022D01*
Y80539D01*
X-221125D01*
Y80435D01*
X-221229D01*
Y80332D01*
X-221125D01*
Y80228D01*
X-221229D01*
Y80124D01*
X-221436D01*
Y80228D01*
X-221540D01*
Y80435D01*
X-221644D01*
Y80643D01*
X-221747D01*
Y80746D01*
X-221851D01*
Y80954D01*
X-221955D01*
Y81161D01*
X-222058D01*
Y81057D01*
X-222162D01*
Y81161D01*
X-222266D01*
Y81265D01*
X-222369D01*
Y81368D01*
X-222577D01*
Y81472D01*
X-222369D01*
Y81679D01*
X-222680D01*
Y81783D01*
X-222784D01*
Y81887D01*
X-222888D01*
Y82302D01*
X-222784D01*
Y82198D01*
X-222680D01*
Y82509D01*
X-222577D01*
Y82405D01*
X-222473D01*
Y82509D01*
X-222577D01*
Y82716D01*
X-222162D01*
Y83027D01*
X-222058D01*
Y83131D01*
X-221955D01*
Y83338D01*
X-222058D01*
Y83442D01*
X-221955D01*
Y83546D01*
X-221851D01*
Y83442D01*
X-221747D01*
Y83857D01*
X-221644D01*
Y83960D01*
X-221540D01*
Y84064D01*
X-221644D01*
Y84168D01*
X-221540D01*
Y84271D01*
X-221436D01*
Y84375D01*
X-221540D01*
Y84582D01*
X-221436D01*
Y84479D01*
X-221333D01*
Y84582D01*
X-221436D01*
Y84893D01*
X-221333D01*
Y85204D01*
X-221229D01*
Y85308D01*
X-221125D01*
Y85412D01*
X-221229D01*
Y85515D01*
X-221125D01*
Y85826D01*
X-221022D01*
Y86552D01*
X-221125D01*
Y86656D01*
X-221022D01*
Y88833D01*
X-221125D01*
Y88729D01*
X-221229D01*
Y89144D01*
X-221333D01*
Y89248D01*
X-221125D01*
Y89144D01*
X-221022D01*
Y89455D01*
X-221229D01*
Y89351D01*
X-221333D01*
Y89559D01*
X-221125D01*
Y89766D01*
X-221333D01*
Y89973D01*
X-221436D01*
Y90077D01*
X-221540D01*
Y90284D01*
X-221644D01*
Y90492D01*
X-221747D01*
Y90595D01*
X-222162D01*
Y90492D01*
X-222266D01*
Y90699D01*
X-222577D01*
Y90595D01*
X-222680D01*
Y90699D01*
X-222784D01*
Y90595D01*
X-222992D01*
Y90699D01*
X-223095D01*
Y90595D01*
X-222992D01*
Y90492D01*
X-223095D01*
Y90388D01*
X-223406D01*
Y90284D01*
X-223302D01*
Y90181D01*
X-223406D01*
Y89973D01*
X-223510D01*
Y90077D01*
X-223613D01*
Y89870D01*
X-223510D01*
Y89766D01*
X-223717D01*
Y89559D01*
X-223510D01*
Y89455D01*
X-223613D01*
Y89248D01*
X-223717D01*
Y88833D01*
X-223821D01*
Y88004D01*
X-223717D01*
Y87692D01*
X-223821D01*
Y87900D01*
X-223925D01*
Y87692D01*
X-224028D01*
Y87589D01*
X-223925D01*
Y87381D01*
X-224028D01*
Y86345D01*
X-224132D01*
Y85308D01*
X-224235D01*
Y84997D01*
X-224339D01*
Y84271D01*
X-224443D01*
Y83857D01*
X-224547D01*
Y83753D01*
X-224443D01*
Y83649D01*
X-224650D01*
Y83546D01*
X-224547D01*
Y83442D01*
X-224650D01*
Y83235D01*
X-224754D01*
Y83027D01*
X-224650D01*
Y83131D01*
X-224547D01*
Y82924D01*
X-224754D01*
Y82820D01*
X-224961D01*
Y82716D01*
X-224858D01*
Y82509D01*
X-224961D01*
Y82612D01*
X-225065D01*
Y82094D01*
X-225169D01*
Y81990D01*
X-225272D01*
Y82094D01*
X-225480D01*
Y81679D01*
X-225583D01*
Y81576D01*
X-225687D01*
Y81472D01*
X-225791D01*
Y81576D01*
X-225894D01*
Y81265D01*
X-226102D01*
Y81161D01*
X-226205D01*
Y81265D01*
X-226309D01*
Y81161D01*
X-226205D01*
Y81057D01*
X-226620D01*
Y80954D01*
X-227035D01*
Y80850D01*
X-227138D01*
Y80954D01*
X-227242D01*
Y80850D01*
X-227346D01*
Y84479D01*
X-227138D01*
Y84582D01*
X-227346D01*
Y84686D01*
X-227242D01*
Y84790D01*
X-227035D01*
Y84997D01*
X-227242D01*
Y85204D01*
X-227138D01*
Y85101D01*
X-227035D01*
Y85204D01*
X-227138D01*
Y85308D01*
X-226931D01*
Y85619D01*
X-226827D01*
Y86137D01*
X-226931D01*
Y86345D01*
X-226827D01*
Y86241D01*
X-226724D01*
Y86656D01*
X-226620D01*
Y86863D01*
X-226827D01*
Y86552D01*
X-226931D01*
Y87071D01*
X-226620D01*
Y87381D01*
X-226724D01*
Y87485D01*
X-226620D01*
Y88004D01*
X-226516D01*
Y88626D01*
X-226413D01*
Y88729D01*
X-226516D01*
Y88833D01*
X-226620D01*
Y88729D01*
X-226724D01*
Y88937D01*
X-226620D01*
Y89766D01*
X-226413D01*
Y89662D01*
X-226516D01*
Y88937D01*
X-226413D01*
Y89559D01*
X-226309D01*
Y89766D01*
X-226413D01*
Y89870D01*
X-226516D01*
Y89973D01*
X-226309D01*
Y90181D01*
X-226516D01*
Y90284D01*
X-226413D01*
Y90388D01*
X-226309D01*
Y90595D01*
X-226205D01*
Y91114D01*
X-226102D01*
Y91217D01*
X-225998D01*
Y91321D01*
X-226102D01*
Y91425D01*
X-226205D01*
Y91529D01*
X-225998D01*
Y91840D01*
X-225894D01*
Y91943D01*
X-225791D01*
Y92254D01*
X-225687D01*
Y92150D01*
X-225583D01*
Y92254D01*
X-225687D01*
Y92462D01*
X-225480D01*
Y92565D01*
X-225583D01*
Y92669D01*
X-225480D01*
Y92876D01*
X-225376D01*
Y92980D01*
X-225272D01*
Y93187D01*
X-225169D01*
Y93084D01*
X-225065D01*
Y93187D01*
X-224961D01*
Y93291D01*
X-224754D01*
Y93395D01*
X-224961D01*
Y93498D01*
X-224754D01*
Y93602D01*
X-224650D01*
Y93706D01*
X-224339D01*
Y93809D01*
X-224235D01*
Y93706D01*
X-224132D01*
Y93809D01*
X-224028D01*
Y93913D01*
X-223821D01*
Y94017D01*
X-223406D01*
Y94120D01*
X-223302D01*
Y94017D01*
X-223199D01*
Y94120D01*
X-223095D01*
Y94224D01*
X-222266D01*
Y94120D01*
X-222577D01*
Y94017D01*
X-221955D01*
Y93913D01*
X-221851D01*
Y94120D01*
X-221955D01*
Y94224D01*
X-221747D01*
Y94120D01*
D02*
G37*
G36*
X-211069Y93809D02*
X-210862D01*
Y93706D01*
X-210758D01*
Y93602D01*
X-210654D01*
Y93706D01*
X-210551D01*
Y93602D01*
X-210447D01*
Y93498D01*
X-210343D01*
Y93395D01*
X-210136D01*
Y93291D01*
X-210032D01*
Y93084D01*
X-210136D01*
Y93187D01*
X-210240D01*
Y93084D01*
X-210136D01*
Y92980D01*
X-210032D01*
Y92876D01*
X-209928D01*
Y92980D01*
X-209721D01*
Y92876D01*
X-209618D01*
Y92773D01*
X-209514D01*
Y92669D01*
X-209618D01*
Y92565D01*
X-209307D01*
Y92358D01*
X-209099D01*
Y92150D01*
X-209203D01*
Y92254D01*
X-209307D01*
Y92150D01*
X-209203D01*
Y91943D01*
X-209307D01*
Y91840D01*
X-209514D01*
Y91632D01*
X-209618D01*
Y91529D01*
X-209721D01*
Y91425D01*
X-209618D01*
Y91217D01*
X-209721D01*
Y91010D01*
X-209928D01*
Y90906D01*
X-209825D01*
Y90803D01*
X-209928D01*
Y90699D01*
X-210032D01*
Y90388D01*
X-210136D01*
Y90284D01*
X-210240D01*
Y90181D01*
X-210136D01*
Y90077D01*
X-210343D01*
Y89973D01*
X-210240D01*
Y89766D01*
X-210343D01*
Y89455D01*
X-210240D01*
Y89351D01*
X-210136D01*
Y89144D01*
X-210240D01*
Y88937D01*
X-210343D01*
Y89040D01*
X-210447D01*
Y88626D01*
X-210551D01*
Y88211D01*
X-210654D01*
Y87692D01*
X-210551D01*
Y87485D01*
X-210654D01*
Y86552D01*
X-210551D01*
Y87174D01*
X-210447D01*
Y86448D01*
X-210551D01*
Y86034D01*
X-210654D01*
Y85930D01*
X-210551D01*
Y85515D01*
X-210447D01*
Y85412D01*
X-210343D01*
Y85619D01*
X-210240D01*
Y85308D01*
X-210136D01*
Y85204D01*
X-210240D01*
Y85101D01*
X-210136D01*
Y84997D01*
X-210343D01*
Y84893D01*
X-210240D01*
Y84686D01*
X-210032D01*
Y84479D01*
X-209928D01*
Y84375D01*
X-209825D01*
Y84479D01*
X-209721D01*
Y84375D01*
X-209618D01*
Y84271D01*
X-208995D01*
Y80850D01*
X-209825D01*
Y81057D01*
X-210136D01*
Y80954D01*
X-210343D01*
Y81057D01*
X-210447D01*
Y80954D01*
X-210654D01*
Y81057D01*
X-210551D01*
Y81161D01*
X-210447D01*
Y81265D01*
X-210862D01*
Y81472D01*
X-211069D01*
Y81576D01*
X-210965D01*
Y81679D01*
X-211069D01*
Y81783D01*
X-211173D01*
Y81679D01*
X-211276D01*
Y81783D01*
X-211587D01*
Y81887D01*
X-211380D01*
Y82094D01*
X-211587D01*
Y82302D01*
X-211691D01*
Y82405D01*
X-211898D01*
Y82509D01*
X-212002D01*
Y82612D01*
X-212209D01*
Y82820D01*
X-212106D01*
Y82716D01*
X-212002D01*
Y82820D01*
X-212106D01*
Y82924D01*
X-212002D01*
Y83027D01*
X-212106D01*
Y83131D01*
X-212209D01*
Y83235D01*
X-212313D01*
Y83338D01*
X-212520D01*
Y83546D01*
X-212417D01*
Y83442D01*
X-212209D01*
Y83546D01*
X-212417D01*
Y84064D01*
X-212520D01*
Y84168D01*
X-212417D01*
Y84271D01*
X-212624D01*
Y83960D01*
X-212728D01*
Y84375D01*
X-212624D01*
Y84582D01*
X-212520D01*
Y84686D01*
X-212624D01*
Y84790D01*
X-212728D01*
Y84582D01*
X-212831D01*
Y84893D01*
X-212728D01*
Y84997D01*
X-212624D01*
Y85101D01*
X-212728D01*
Y85723D01*
X-212831D01*
Y85826D01*
X-212935D01*
Y85930D01*
X-212831D01*
Y86137D01*
X-212728D01*
Y86241D01*
X-212831D01*
Y88315D01*
X-212728D01*
Y88418D01*
X-212831D01*
Y88626D01*
X-212728D01*
Y88729D01*
X-212831D01*
Y88833D01*
X-212728D01*
Y89144D01*
X-212624D01*
Y89248D01*
X-212728D01*
Y89351D01*
X-212624D01*
Y89455D01*
X-212935D01*
Y89559D01*
X-212728D01*
Y89662D01*
X-212831D01*
Y89766D01*
X-212728D01*
Y89870D01*
X-212624D01*
Y90284D01*
X-212520D01*
Y90492D01*
X-212417D01*
Y90595D01*
X-212520D01*
Y90699D01*
X-212417D01*
Y91010D01*
X-212313D01*
Y91217D01*
X-212209D01*
Y91321D01*
X-212313D01*
Y91425D01*
X-212106D01*
Y91529D01*
X-212209D01*
Y91632D01*
X-212106D01*
Y91736D01*
X-212002D01*
Y91840D01*
X-211898D01*
Y91943D01*
X-212002D01*
Y92150D01*
X-211898D01*
Y92254D01*
X-212002D01*
Y92358D01*
X-211898D01*
Y92462D01*
X-211795D01*
Y92669D01*
X-211691D01*
Y92462D01*
X-211587D01*
Y92669D01*
X-211691D01*
Y92773D01*
X-211587D01*
Y92980D01*
X-211691D01*
Y93084D01*
X-211484D01*
Y92876D01*
X-211380D01*
Y92980D01*
X-211276D01*
Y93084D01*
X-211484D01*
Y93187D01*
X-211380D01*
Y93291D01*
X-211276D01*
Y93395D01*
X-211173D01*
Y93291D01*
X-211069D01*
Y93395D01*
X-211173D01*
Y93498D01*
X-210965D01*
Y93602D01*
X-211069D01*
Y93706D01*
X-211173D01*
Y93913D01*
X-211069D01*
Y93809D01*
D02*
G37*
G36*
X-221333Y79088D02*
X-221229D01*
Y78880D01*
X-220918D01*
Y78777D01*
X-220814D01*
Y78880D01*
X-220711D01*
Y78777D01*
X-220607D01*
Y78673D01*
X-220503D01*
Y78569D01*
X-220296D01*
Y78466D01*
X-220192D01*
Y78362D01*
X-220089D01*
Y78466D01*
X-219985D01*
Y78362D01*
X-219881D01*
Y78155D01*
X-219985D01*
Y78258D01*
X-220192D01*
Y78155D01*
X-219985D01*
Y77843D01*
X-219881D01*
Y77740D01*
X-219778D01*
Y77533D01*
X-219570D01*
Y77429D01*
X-219466D01*
Y77533D01*
X-219363D01*
Y77325D01*
X-219466D01*
Y77221D01*
X-219570D01*
Y77118D01*
X-219466D01*
Y76911D01*
X-219363D01*
Y76807D01*
X-219259D01*
Y76703D01*
X-219363D01*
Y76599D01*
X-219156D01*
Y76496D01*
X-219052D01*
Y76599D01*
X-218948D01*
Y76288D01*
X-219052D01*
Y76081D01*
X-219156D01*
Y75874D01*
X-219052D01*
Y75666D01*
X-218948D01*
Y75459D01*
X-218845D01*
Y75044D01*
X-218637D01*
Y74941D01*
X-218845D01*
Y74837D01*
X-218637D01*
Y74733D01*
X-218741D01*
Y74630D01*
X-218533D01*
Y74526D01*
X-218637D01*
Y74422D01*
X-218741D01*
Y74008D01*
X-218845D01*
Y73904D01*
X-218741D01*
Y71623D01*
X-218845D01*
Y71416D01*
X-218741D01*
Y71208D01*
X-218533D01*
Y70897D01*
X-218637D01*
Y71001D01*
X-218741D01*
Y71105D01*
X-218845D01*
Y71001D01*
X-218741D01*
Y70897D01*
X-218637D01*
Y70586D01*
X-218741D01*
Y70690D01*
X-218845D01*
Y70275D01*
X-218741D01*
Y69964D01*
X-218845D01*
Y70172D01*
X-218948D01*
Y69653D01*
X-219052D01*
Y69550D01*
X-219156D01*
Y69446D01*
X-218845D01*
Y69342D01*
X-218948D01*
Y69135D01*
X-219052D01*
Y69239D01*
X-219156D01*
Y68927D01*
X-219052D01*
Y68824D01*
X-219259D01*
Y68927D01*
X-219363D01*
Y68824D01*
X-219259D01*
Y68617D01*
X-219363D01*
Y68720D01*
X-219466D01*
Y68513D01*
X-219363D01*
Y68409D01*
X-219466D01*
Y68098D01*
X-219674D01*
Y67994D01*
X-219570D01*
Y67787D01*
X-219778D01*
Y67684D01*
X-219881D01*
Y67372D01*
X-219778D01*
Y67269D01*
X-219881D01*
Y67165D01*
X-219985D01*
Y66958D01*
X-220089D01*
Y66854D01*
X-220192D01*
Y66647D01*
X-220296D01*
Y66750D01*
X-220400D01*
Y66543D01*
X-220503D01*
Y66439D01*
X-220400D01*
Y66336D01*
X-220503D01*
Y66232D01*
X-220607D01*
Y66336D01*
X-220711D01*
Y66232D01*
X-220814D01*
Y66025D01*
X-220918D01*
Y65921D01*
X-220814D01*
Y65817D01*
X-221125D01*
Y65714D01*
X-221022D01*
Y65610D01*
X-221125D01*
Y65506D01*
X-221436D01*
Y65610D01*
X-221540D01*
Y65714D01*
X-221644D01*
Y65817D01*
X-221747D01*
Y66025D01*
X-221851D01*
Y66439D01*
X-222058D01*
Y66336D01*
X-222162D01*
Y66439D01*
X-222266D01*
Y66543D01*
X-222162D01*
Y66647D01*
X-222266D01*
Y66854D01*
X-222369D01*
Y66958D01*
X-222473D01*
Y67061D01*
X-222680D01*
Y67269D01*
X-222888D01*
Y67372D01*
X-222784D01*
Y67580D01*
X-222577D01*
Y67684D01*
X-222473D01*
Y68098D01*
X-222369D01*
Y67994D01*
X-222266D01*
Y68098D01*
X-222369D01*
Y68202D01*
X-222266D01*
Y68409D01*
X-222058D01*
Y68513D01*
X-221955D01*
Y68617D01*
X-221851D01*
Y68720D01*
X-221747D01*
Y68927D01*
X-221851D01*
Y69135D01*
X-221644D01*
Y69239D01*
X-221540D01*
Y69342D01*
X-221644D01*
Y69446D01*
X-221540D01*
Y69550D01*
X-221436D01*
Y69653D01*
X-221540D01*
Y69757D01*
X-221436D01*
Y70068D01*
X-221644D01*
Y70172D01*
X-221540D01*
Y70379D01*
X-221436D01*
Y70275D01*
X-221333D01*
Y70379D01*
X-221229D01*
Y70794D01*
X-221125D01*
Y71001D01*
X-221022D01*
Y71105D01*
X-221125D01*
Y71208D01*
X-221022D01*
Y71416D01*
X-221125D01*
Y71519D01*
X-221022D01*
Y71623D01*
X-221125D01*
Y71727D01*
X-221229D01*
Y71934D01*
X-221022D01*
Y74319D01*
X-221125D01*
Y74215D01*
X-221229D01*
Y74422D01*
X-221125D01*
Y74526D01*
X-221022D01*
Y74630D01*
X-221125D01*
Y74837D01*
X-221229D01*
Y75044D01*
X-221125D01*
Y75148D01*
X-221229D01*
Y75252D01*
X-221333D01*
Y75355D01*
X-221436D01*
Y75563D01*
X-221644D01*
Y75666D01*
X-221747D01*
Y75770D01*
X-221644D01*
Y75874D01*
X-221747D01*
Y75977D01*
X-221851D01*
Y75770D01*
X-221955D01*
Y75874D01*
X-222058D01*
Y75977D01*
X-222784D01*
Y75874D01*
X-222888D01*
Y75977D01*
X-222992D01*
Y75770D01*
X-223095D01*
Y75666D01*
X-223199D01*
Y75770D01*
X-223302D01*
Y75666D01*
X-223199D01*
Y75563D01*
X-223302D01*
Y75459D01*
X-223406D01*
Y75563D01*
X-223510D01*
Y75355D01*
X-223613D01*
Y75252D01*
X-223510D01*
Y75148D01*
X-223717D01*
Y75044D01*
X-223613D01*
Y74837D01*
X-223717D01*
Y74630D01*
X-223613D01*
Y74733D01*
X-223510D01*
Y74526D01*
X-223717D01*
Y74319D01*
X-223821D01*
Y74111D01*
X-223613D01*
Y74008D01*
X-223821D01*
Y73593D01*
X-223925D01*
Y72971D01*
X-224028D01*
Y72867D01*
X-223925D01*
Y72764D01*
X-224028D01*
Y72660D01*
X-223925D01*
Y72453D01*
X-223821D01*
Y72349D01*
X-224028D01*
Y71934D01*
X-224132D01*
Y71416D01*
X-224028D01*
Y71519D01*
X-223925D01*
Y71727D01*
X-224028D01*
Y71830D01*
X-223821D01*
Y71416D01*
X-223925D01*
Y71208D01*
X-224028D01*
Y71312D01*
X-224132D01*
Y70690D01*
X-224235D01*
Y69964D01*
X-224339D01*
Y69757D01*
X-224443D01*
Y69653D01*
X-224339D01*
Y69446D01*
X-224443D01*
Y69239D01*
X-224547D01*
Y69135D01*
X-224443D01*
Y68927D01*
X-224547D01*
Y68824D01*
X-224650D01*
Y68720D01*
X-224754D01*
Y68617D01*
X-224650D01*
Y68409D01*
X-224754D01*
Y68098D01*
X-224858D01*
Y67994D01*
X-224961D01*
Y67787D01*
X-225065D01*
Y67891D01*
X-225169D01*
Y67580D01*
X-225065D01*
Y67476D01*
X-225272D01*
Y67269D01*
X-225376D01*
Y67372D01*
X-225480D01*
Y67269D01*
X-225583D01*
Y67165D01*
X-225480D01*
Y67061D01*
X-225791D01*
Y66854D01*
X-225687D01*
Y66750D01*
X-225791D01*
Y66647D01*
X-226102D01*
Y66439D01*
X-226413D01*
Y66543D01*
X-226516D01*
Y66439D01*
X-226413D01*
Y66336D01*
X-226620D01*
Y66025D01*
X-226724D01*
Y66336D01*
X-226931D01*
Y66232D01*
X-227346D01*
Y69757D01*
X-227242D01*
Y69964D01*
X-227138D01*
Y70068D01*
X-227035D01*
Y70275D01*
X-227138D01*
Y70379D01*
X-227035D01*
Y70586D01*
X-226931D01*
Y70690D01*
X-226827D01*
Y70794D01*
X-226931D01*
Y70897D01*
X-226827D01*
Y71105D01*
X-226724D01*
Y71208D01*
X-226827D01*
Y71416D01*
X-226931D01*
Y71519D01*
X-226827D01*
Y71623D01*
X-226724D01*
Y71727D01*
X-226620D01*
Y71934D01*
X-226724D01*
Y72141D01*
X-226827D01*
Y72038D01*
X-226931D01*
Y72349D01*
X-226724D01*
Y72867D01*
X-226620D01*
Y73178D01*
X-226516D01*
Y73800D01*
X-226413D01*
Y74008D01*
X-226516D01*
Y74111D01*
X-226413D01*
Y74215D01*
X-226724D01*
Y74319D01*
X-226620D01*
Y74733D01*
X-226516D01*
Y74319D01*
X-226413D01*
Y74733D01*
X-226309D01*
Y74941D01*
X-226516D01*
Y74837D01*
X-226620D01*
Y75148D01*
X-226516D01*
Y75044D01*
X-226413D01*
Y75148D01*
X-226309D01*
Y75252D01*
X-226413D01*
Y75355D01*
X-226309D01*
Y75459D01*
X-226413D01*
Y75563D01*
X-226309D01*
Y75666D01*
X-226205D01*
Y76288D01*
X-226102D01*
Y76703D01*
X-225998D01*
Y77014D01*
X-226102D01*
Y77325D01*
X-225998D01*
Y77118D01*
X-225894D01*
Y77221D01*
X-225791D01*
Y77325D01*
X-225894D01*
Y77429D01*
X-225791D01*
Y77533D01*
X-225583D01*
Y77636D01*
X-225791D01*
Y77740D01*
X-225583D01*
Y77843D01*
X-225480D01*
Y78051D01*
X-225272D01*
Y78155D01*
X-225376D01*
Y78362D01*
X-225272D01*
Y78466D01*
X-225169D01*
Y78362D01*
X-225065D01*
Y78466D01*
X-225169D01*
Y78569D01*
X-225065D01*
Y78673D01*
X-224961D01*
Y78569D01*
X-224858D01*
Y78673D01*
X-224961D01*
Y78777D01*
X-224754D01*
Y78880D01*
X-224650D01*
Y78777D01*
X-224547D01*
Y78984D01*
X-224443D01*
Y79088D01*
X-224132D01*
Y79191D01*
X-224028D01*
Y79088D01*
X-223925D01*
Y79191D01*
X-224028D01*
Y79295D01*
X-223302D01*
Y79399D01*
X-223199D01*
Y79295D01*
X-222992D01*
Y79399D01*
X-222473D01*
Y79295D01*
X-222369D01*
Y79399D01*
X-222266D01*
Y79295D01*
X-221747D01*
Y79088D01*
X-221644D01*
Y79191D01*
X-221436D01*
Y79295D01*
X-221540D01*
Y79399D01*
X-221333D01*
Y79088D01*
D02*
G37*
G36*
X-210758Y79191D02*
X-210654D01*
Y79088D01*
X-210551D01*
Y78984D01*
X-210654D01*
Y78880D01*
X-210447D01*
Y78673D01*
X-210343D01*
Y78777D01*
X-210240D01*
Y78569D01*
X-210032D01*
Y78466D01*
X-209928D01*
Y78362D01*
X-209825D01*
Y78258D01*
X-209721D01*
Y78155D01*
X-209618D01*
Y78051D01*
X-209514D01*
Y77947D01*
X-209410D01*
Y77740D01*
X-209203D01*
Y77636D01*
X-209307D01*
Y77533D01*
X-209203D01*
Y77429D01*
X-209307D01*
Y77325D01*
X-209410D01*
Y77221D01*
X-209307D01*
Y77118D01*
X-209203D01*
Y76911D01*
X-209307D01*
Y77014D01*
X-209410D01*
Y76911D01*
X-209514D01*
Y76703D01*
X-209721D01*
Y76599D01*
X-209618D01*
Y76496D01*
X-209721D01*
Y76392D01*
X-209825D01*
Y76496D01*
X-209928D01*
Y76288D01*
X-209825D01*
Y76185D01*
X-210032D01*
Y76081D01*
X-209928D01*
Y75874D01*
X-210136D01*
Y75770D01*
X-210032D01*
Y75563D01*
X-210136D01*
Y75666D01*
X-210240D01*
Y75563D01*
X-210136D01*
Y75355D01*
X-210240D01*
Y75148D01*
X-210343D01*
Y75044D01*
X-210136D01*
Y74837D01*
X-210343D01*
Y74941D01*
X-210447D01*
Y74837D01*
X-210343D01*
Y74733D01*
X-210136D01*
Y74630D01*
X-210447D01*
Y74111D01*
X-210551D01*
Y73178D01*
X-210654D01*
Y72971D01*
X-210447D01*
Y73178D01*
X-210343D01*
Y72867D01*
X-210551D01*
Y72764D01*
X-210654D01*
Y71830D01*
X-210551D01*
Y71727D01*
X-210343D01*
Y71519D01*
X-210551D01*
Y71312D01*
X-210654D01*
Y71208D01*
X-210551D01*
Y70897D01*
X-210447D01*
Y70690D01*
X-210343D01*
Y70897D01*
X-210240D01*
Y70586D01*
X-210343D01*
Y70379D01*
X-210136D01*
Y70275D01*
X-210032D01*
Y70172D01*
X-209928D01*
Y70068D01*
X-210032D01*
Y69964D01*
X-209928D01*
Y69861D01*
X-209721D01*
Y69653D01*
X-209825D01*
Y69757D01*
X-209928D01*
Y69550D01*
X-209618D01*
Y69653D01*
X-209410D01*
Y69550D01*
X-209203D01*
Y69653D01*
X-209307D01*
Y69757D01*
X-209099D01*
Y69550D01*
X-208995D01*
Y66128D01*
X-209410D01*
Y66232D01*
X-209618D01*
Y66128D01*
X-209825D01*
Y66336D01*
X-209928D01*
Y66232D01*
X-210136D01*
Y66336D01*
X-210240D01*
Y66439D01*
X-210343D01*
Y66543D01*
X-210551D01*
Y66647D01*
X-210758D01*
Y66854D01*
X-210965D01*
Y66750D01*
X-211069D01*
Y66854D01*
X-211380D01*
Y66958D01*
X-211173D01*
Y67165D01*
X-211276D01*
Y67269D01*
X-211380D01*
Y67372D01*
X-211484D01*
Y67269D01*
X-211587D01*
Y67580D01*
X-211691D01*
Y67684D01*
X-211795D01*
Y67787D01*
X-211898D01*
Y68098D01*
X-212002D01*
Y68306D01*
X-212209D01*
Y68202D01*
X-212106D01*
Y67891D01*
X-212209D01*
Y68098D01*
X-212313D01*
Y68409D01*
X-212002D01*
Y68513D01*
X-212106D01*
Y68617D01*
X-212209D01*
Y68513D01*
X-212417D01*
Y68720D01*
X-212313D01*
Y68824D01*
X-212209D01*
Y68927D01*
X-212417D01*
Y68824D01*
X-212520D01*
Y68927D01*
X-212624D01*
Y69135D01*
X-212520D01*
Y69031D01*
X-212417D01*
Y69135D01*
X-212313D01*
Y69239D01*
X-212520D01*
Y69550D01*
X-212417D01*
Y69653D01*
X-212624D01*
Y69757D01*
X-212520D01*
Y69861D01*
X-212624D01*
Y70172D01*
X-212728D01*
Y70379D01*
X-212831D01*
Y70483D01*
X-212728D01*
Y70690D01*
X-212624D01*
Y70794D01*
X-212728D01*
Y70897D01*
X-212935D01*
Y71105D01*
X-212831D01*
Y71001D01*
X-212728D01*
Y71208D01*
X-212831D01*
Y74008D01*
X-212728D01*
Y74422D01*
X-212624D01*
Y74526D01*
X-212728D01*
Y74630D01*
X-212624D01*
Y74733D01*
X-212728D01*
Y74941D01*
X-212624D01*
Y75044D01*
X-212831D01*
Y75355D01*
X-212728D01*
Y75148D01*
X-212624D01*
Y75252D01*
X-212520D01*
Y75355D01*
X-212624D01*
Y75666D01*
X-212520D01*
Y75770D01*
X-212417D01*
Y75874D01*
X-212520D01*
Y75977D01*
X-212417D01*
Y76185D01*
X-212313D01*
Y76703D01*
X-212209D01*
Y76807D01*
X-212106D01*
Y76911D01*
X-212209D01*
Y77014D01*
X-212106D01*
Y77118D01*
X-211898D01*
Y77221D01*
X-212002D01*
Y77325D01*
X-211898D01*
Y77429D01*
X-212209D01*
Y77533D01*
X-211898D01*
Y77740D01*
X-211795D01*
Y77636D01*
X-211691D01*
Y77740D01*
X-211795D01*
Y77947D01*
X-211691D01*
Y77843D01*
X-211587D01*
Y77947D01*
X-211691D01*
Y78051D01*
X-211587D01*
Y78362D01*
X-211484D01*
Y78258D01*
X-211380D01*
Y78362D01*
X-211276D01*
Y78466D01*
X-211380D01*
Y78673D01*
X-211276D01*
Y78569D01*
X-211173D01*
Y78673D01*
X-211069D01*
Y78777D01*
X-210965D01*
Y78880D01*
X-210862D01*
Y78984D01*
X-210965D01*
Y79191D01*
X-210862D01*
Y79295D01*
X-210758D01*
Y79191D01*
D02*
G37*
G36*
X-225687Y64884D02*
X-225791D01*
Y64781D01*
X-224443D01*
Y53688D01*
X-224339D01*
Y53584D01*
X-224235D01*
Y53688D01*
X-224132D01*
Y53791D01*
X-224028D01*
Y53688D01*
X-223925D01*
Y53584D01*
X-223613D01*
Y53688D01*
X-223510D01*
Y53584D01*
X-223406D01*
Y53688D01*
X-223302D01*
Y53895D01*
X-222992D01*
Y53998D01*
X-222888D01*
Y54102D01*
X-222784D01*
Y53998D01*
X-222577D01*
Y54310D01*
X-222473D01*
Y54206D01*
X-222369D01*
Y54517D01*
X-222266D01*
Y54413D01*
X-222058D01*
Y54517D01*
X-222162D01*
Y54620D01*
X-221955D01*
Y54828D01*
X-221851D01*
Y54932D01*
X-221747D01*
Y55035D01*
X-221851D01*
Y55139D01*
X-221747D01*
Y55346D01*
X-221644D01*
Y55450D01*
X-221540D01*
Y55346D01*
X-221436D01*
Y55450D01*
X-221540D01*
Y55657D01*
X-221644D01*
Y56072D01*
X-221540D01*
Y55761D01*
X-221436D01*
Y55657D01*
X-221333D01*
Y55761D01*
X-221436D01*
Y56072D01*
X-221229D01*
Y56176D01*
X-221333D01*
Y56279D01*
X-221229D01*
Y56383D01*
X-221436D01*
Y56487D01*
X-221229D01*
Y56798D01*
X-221125D01*
Y56901D01*
X-221333D01*
Y57212D01*
X-221229D01*
Y57005D01*
X-221125D01*
Y57938D01*
X-221229D01*
Y58042D01*
X-221125D01*
Y58145D01*
X-221229D01*
Y58249D01*
X-221125D01*
Y58560D01*
X-221229D01*
Y59078D01*
X-221333D01*
Y59182D01*
X-221229D01*
Y59286D01*
X-221436D01*
Y59390D01*
X-221644D01*
Y59597D01*
X-221747D01*
Y59804D01*
X-221644D01*
Y59701D01*
X-221540D01*
Y59908D01*
X-221644D01*
Y60012D01*
X-221747D01*
Y60115D01*
X-221644D01*
Y60219D01*
X-221851D01*
Y60530D01*
X-222058D01*
Y60634D01*
X-222162D01*
Y60530D01*
X-222266D01*
Y60737D01*
X-222162D01*
Y60841D01*
X-222266D01*
Y60945D01*
X-222369D01*
Y61256D01*
X-222473D01*
Y61359D01*
X-222577D01*
Y61256D01*
X-222680D01*
Y61359D01*
X-222784D01*
Y61567D01*
X-222888D01*
Y61670D01*
X-222784D01*
Y61981D01*
X-222577D01*
Y62396D01*
X-222473D01*
Y62500D01*
X-222577D01*
Y62604D01*
X-222473D01*
Y62707D01*
X-222369D01*
Y62811D01*
X-222266D01*
Y62915D01*
X-222162D01*
Y63122D01*
X-222058D01*
Y63329D01*
X-222162D01*
Y63537D01*
X-222058D01*
Y63640D01*
X-221955D01*
Y63847D01*
X-221851D01*
Y63744D01*
X-221747D01*
Y63847D01*
X-221851D01*
Y64055D01*
X-221644D01*
Y64159D01*
X-221747D01*
Y64262D01*
X-221333D01*
Y64159D01*
X-221229D01*
Y64055D01*
X-221333D01*
Y63847D01*
X-221229D01*
Y63951D01*
X-221022D01*
Y63847D01*
X-221125D01*
Y63744D01*
X-220814D01*
Y63640D01*
X-220711D01*
Y63537D01*
X-220814D01*
Y63433D01*
X-220711D01*
Y63329D01*
X-220607D01*
Y63433D01*
X-220503D01*
Y63329D01*
X-220400D01*
Y63225D01*
X-220503D01*
Y63122D01*
X-220296D01*
Y63018D01*
X-220400D01*
Y62915D01*
X-220089D01*
Y62811D01*
X-220192D01*
Y62707D01*
X-219985D01*
Y62604D01*
X-219881D01*
Y62500D01*
X-219674D01*
Y62396D01*
X-219778D01*
Y62292D01*
X-219570D01*
Y62189D01*
X-219674D01*
Y62085D01*
X-219570D01*
Y61981D01*
X-219674D01*
Y61878D01*
X-219259D01*
Y61774D01*
X-219466D01*
Y61463D01*
X-219363D01*
Y61359D01*
X-219259D01*
Y61048D01*
X-219156D01*
Y60737D01*
X-218948D01*
Y60634D01*
X-219052D01*
Y60530D01*
X-219156D01*
Y60323D01*
X-218948D01*
Y59908D01*
X-218845D01*
Y59701D01*
X-218948D01*
Y59597D01*
X-218845D01*
Y59493D01*
X-218741D01*
Y59390D01*
X-218533D01*
Y58871D01*
X-218637D01*
Y59078D01*
X-218741D01*
Y59182D01*
X-218845D01*
Y58975D01*
X-218741D01*
Y58767D01*
X-218845D01*
Y58664D01*
X-218741D01*
Y56279D01*
X-218845D01*
Y56072D01*
X-218741D01*
Y56176D01*
X-218637D01*
Y56383D01*
X-218533D01*
Y55761D01*
X-218637D01*
Y55968D01*
X-218845D01*
Y55865D01*
X-218741D01*
Y55657D01*
X-218845D01*
Y55554D01*
X-218948D01*
Y55450D01*
X-218845D01*
Y55243D01*
X-218948D01*
Y54932D01*
X-219052D01*
Y54724D01*
X-219156D01*
Y54620D01*
X-219052D01*
Y54517D01*
X-219156D01*
Y54310D01*
X-218948D01*
Y54206D01*
X-219156D01*
Y54102D01*
X-219363D01*
Y53998D01*
X-219259D01*
Y53895D01*
X-219363D01*
Y53791D01*
X-219466D01*
Y53688D01*
X-219363D01*
Y53480D01*
X-219466D01*
Y53169D01*
X-219570D01*
Y53376D01*
X-219674D01*
Y53169D01*
X-219570D01*
Y53066D01*
X-219674D01*
Y52858D01*
X-219778D01*
Y53066D01*
X-219881D01*
Y52754D01*
X-219985D01*
Y52547D01*
X-219881D01*
Y52443D01*
X-219985D01*
Y52340D01*
X-220089D01*
Y52132D01*
X-220192D01*
Y52029D01*
X-220296D01*
Y51925D01*
X-220607D01*
Y51821D01*
X-220400D01*
Y51718D01*
X-220503D01*
Y51614D01*
X-220607D01*
Y51718D01*
X-220814D01*
Y51303D01*
X-220918D01*
Y51199D01*
X-221022D01*
Y51303D01*
X-221125D01*
Y51199D01*
X-221229D01*
Y51096D01*
X-221333D01*
Y50888D01*
X-221540D01*
Y50785D01*
X-221851D01*
Y50577D01*
X-222162D01*
Y50474D01*
X-222369D01*
Y50577D01*
X-222473D01*
Y50474D01*
X-222577D01*
Y50370D01*
X-222680D01*
Y50266D01*
X-222784D01*
Y50370D01*
X-222888D01*
Y50266D01*
X-222784D01*
Y50163D01*
X-223095D01*
Y50266D01*
X-223199D01*
Y50163D01*
X-223302D01*
Y50059D01*
X-223613D01*
Y49955D01*
X-223717D01*
Y50059D01*
X-223925D01*
Y49955D01*
X-224339D01*
Y49852D01*
X-224547D01*
Y49955D01*
X-224650D01*
Y49852D01*
X-224754D01*
Y49748D01*
X-224858D01*
Y49852D01*
X-225583D01*
Y49644D01*
X-225687D01*
Y49748D01*
X-225791D01*
Y49852D01*
X-225894D01*
Y49955D01*
X-226413D01*
Y50059D01*
X-226931D01*
Y50163D01*
X-227138D01*
Y50266D01*
X-227242D01*
Y50163D01*
X-227346D01*
Y53688D01*
X-227138D01*
Y53791D01*
X-227035D01*
Y53584D01*
X-226931D01*
Y53791D01*
X-226516D01*
Y53584D01*
X-226309D01*
Y53688D01*
X-226413D01*
Y53791D01*
X-226516D01*
Y53998D01*
X-226309D01*
Y54102D01*
X-226516D01*
Y54206D01*
X-226413D01*
Y60323D01*
X-226309D01*
Y60426D01*
X-226413D01*
Y60530D01*
X-226309D01*
Y60634D01*
X-226516D01*
Y60841D01*
X-226620D01*
Y60945D01*
X-227035D01*
Y60841D01*
X-226931D01*
Y60737D01*
X-227138D01*
Y60841D01*
X-227242D01*
Y60737D01*
X-227346D01*
Y64573D01*
X-227449D01*
Y60737D01*
X-227553D01*
Y64677D01*
X-227242D01*
Y64470D01*
X-227138D01*
Y64573D01*
X-226931D01*
Y64677D01*
X-227242D01*
Y64781D01*
X-226724D01*
Y64677D01*
X-226620D01*
Y64781D01*
X-226724D01*
Y64884D01*
X-226413D01*
Y64781D01*
X-226516D01*
Y64573D01*
X-226413D01*
Y64677D01*
X-225894D01*
Y64781D01*
X-225998D01*
Y64988D01*
X-225687D01*
Y64884D01*
D02*
G37*
G36*
X-209307Y64262D02*
X-209203D01*
Y64159D01*
X-208995D01*
Y60737D01*
X-209099D01*
Y60841D01*
X-209203D01*
Y60737D01*
X-209099D01*
Y60634D01*
X-209203D01*
Y60530D01*
X-209307D01*
Y60634D01*
X-209514D01*
Y60323D01*
X-209618D01*
Y60426D01*
X-209825D01*
Y60323D01*
X-209928D01*
Y60219D01*
X-210032D01*
Y60115D01*
X-209928D01*
Y60012D01*
X-209825D01*
Y59804D01*
X-209928D01*
Y59908D01*
X-210032D01*
Y60012D01*
X-210240D01*
Y59908D01*
X-210343D01*
Y59804D01*
X-210240D01*
Y59701D01*
X-210343D01*
Y59597D01*
X-210240D01*
Y59493D01*
X-210343D01*
Y59390D01*
X-210447D01*
Y59182D01*
X-210551D01*
Y58975D01*
X-210654D01*
Y59078D01*
X-210758D01*
Y58975D01*
X-210654D01*
Y58871D01*
X-210758D01*
Y58767D01*
X-210447D01*
Y58664D01*
X-210654D01*
Y58560D01*
X-210551D01*
Y58145D01*
X-210654D01*
Y57938D01*
X-210758D01*
Y58145D01*
X-210862D01*
Y56176D01*
X-210654D01*
Y56383D01*
X-210551D01*
Y55968D01*
X-210447D01*
Y55657D01*
X-210551D01*
Y55865D01*
X-210654D01*
Y55968D01*
X-210758D01*
Y55865D01*
X-210654D01*
Y55657D01*
X-210551D01*
Y55450D01*
X-210447D01*
Y55243D01*
X-210343D01*
Y55139D01*
X-210240D01*
Y54620D01*
X-210136D01*
Y54724D01*
X-210032D01*
Y54620D01*
X-209928D01*
Y54517D01*
X-209825D01*
Y54310D01*
X-209721D01*
Y54102D01*
X-209618D01*
Y54206D01*
X-209410D01*
Y54102D01*
X-209514D01*
Y53998D01*
X-209307D01*
Y53895D01*
X-209203D01*
Y53998D01*
X-209099D01*
Y54102D01*
X-209203D01*
Y54206D01*
X-208995D01*
Y54102D01*
X-208892D01*
Y53998D01*
X-208995D01*
Y50370D01*
X-209099D01*
Y50577D01*
X-209514D01*
Y50474D01*
X-209721D01*
Y50577D01*
X-209618D01*
Y50681D01*
X-209721D01*
Y50785D01*
X-209618D01*
Y50888D01*
X-209721D01*
Y50992D01*
X-209825D01*
Y50888D01*
X-210032D01*
Y50992D01*
X-210240D01*
Y51199D01*
X-210343D01*
Y51303D01*
X-210447D01*
Y51199D01*
X-210551D01*
Y51303D01*
X-210654D01*
Y51510D01*
X-210862D01*
Y51614D01*
X-210965D01*
Y51718D01*
X-211069D01*
Y51821D01*
X-211173D01*
Y51925D01*
X-211276D01*
Y51821D01*
X-211380D01*
Y52029D01*
X-211276D01*
Y52132D01*
X-211173D01*
Y52236D01*
X-211276D01*
Y52340D01*
X-211380D01*
Y52443D01*
X-211484D01*
Y52340D01*
X-211587D01*
Y52236D01*
X-211691D01*
Y52443D01*
X-211587D01*
Y52754D01*
X-211795D01*
Y53066D01*
X-212106D01*
Y53169D01*
X-212002D01*
Y53376D01*
X-212106D01*
Y53584D01*
X-212209D01*
Y53791D01*
X-212520D01*
Y53895D01*
X-212209D01*
Y53998D01*
X-212520D01*
Y54206D01*
X-212417D01*
Y54102D01*
X-212313D01*
Y54206D01*
X-212417D01*
Y54413D01*
X-212520D01*
Y54724D01*
X-212624D01*
Y54932D01*
X-212728D01*
Y54828D01*
X-212831D01*
Y55035D01*
X-212624D01*
Y55139D01*
X-212728D01*
Y55243D01*
X-212624D01*
Y55346D01*
X-212728D01*
Y55450D01*
X-212831D01*
Y55554D01*
X-212935D01*
Y56176D01*
X-212831D01*
Y56279D01*
X-212728D01*
Y56383D01*
X-212831D01*
Y58457D01*
X-212728D01*
Y58560D01*
X-212831D01*
Y58664D01*
X-212728D01*
Y59078D01*
X-212624D01*
Y59182D01*
X-212728D01*
Y59493D01*
X-212831D01*
Y60012D01*
X-212728D01*
Y59701D01*
X-212624D01*
Y59804D01*
X-212520D01*
Y60115D01*
X-212417D01*
Y60323D01*
X-212520D01*
Y60426D01*
X-212417D01*
Y60634D01*
X-212313D01*
Y60841D01*
X-212520D01*
Y60945D01*
X-212417D01*
Y61048D01*
X-212313D01*
Y61152D01*
X-212209D01*
Y61256D01*
X-212106D01*
Y61463D01*
X-212209D01*
Y61670D01*
X-212106D01*
Y61567D01*
X-211898D01*
Y61774D01*
X-211691D01*
Y61878D01*
X-211795D01*
Y62085D01*
X-211587D01*
Y62189D01*
X-211691D01*
Y62292D01*
X-211587D01*
Y62396D01*
X-211691D01*
Y62604D01*
X-211587D01*
Y62500D01*
X-211484D01*
Y62604D01*
X-211276D01*
Y62811D01*
X-211173D01*
Y62915D01*
X-211069D01*
Y63018D01*
X-210862D01*
Y63122D01*
X-210965D01*
Y63225D01*
X-210758D01*
Y63329D01*
X-210447D01*
Y63433D01*
X-210343D01*
Y63537D01*
X-210240D01*
Y63744D01*
X-210136D01*
Y63847D01*
X-210032D01*
Y63640D01*
X-209928D01*
Y63951D01*
X-209618D01*
Y64055D01*
X-209514D01*
Y63951D01*
X-209410D01*
Y64262D01*
X-209514D01*
Y64366D01*
X-209307D01*
Y64262D01*
D02*
G37*
G36*
X-209099Y49333D02*
X-209203D01*
Y49644D01*
X-209307D01*
Y49333D01*
X-209203D01*
Y49229D01*
X-209307D01*
Y48608D01*
X-209203D01*
Y48296D01*
X-209307D01*
Y47260D01*
X-209203D01*
Y46845D01*
X-209307D01*
Y46741D01*
X-209203D01*
Y46638D01*
X-208892D01*
Y46534D01*
X-208995D01*
Y46430D01*
X-209099D01*
Y46223D01*
X-208995D01*
Y40314D01*
X-212417D01*
Y43735D01*
X-209928D01*
Y43839D01*
X-209825D01*
Y43735D01*
X-209721D01*
Y43631D01*
X-209618D01*
Y43735D01*
X-209721D01*
Y43839D01*
X-209618D01*
Y43942D01*
X-209514D01*
Y43631D01*
X-209410D01*
Y43839D01*
X-209307D01*
Y43631D01*
X-209203D01*
Y43839D01*
X-209099D01*
Y44357D01*
X-209203D01*
Y43942D01*
X-209307D01*
Y44046D01*
X-209410D01*
Y44149D01*
X-209618D01*
Y44253D01*
X-209410D01*
Y44357D01*
X-209721D01*
Y44461D01*
X-209825D01*
Y44564D01*
X-209928D01*
Y44357D01*
X-210032D01*
Y44564D01*
X-210136D01*
Y44668D01*
X-210343D01*
Y44771D01*
X-210551D01*
Y44668D01*
X-210758D01*
Y44771D01*
X-210862D01*
Y45186D01*
X-210965D01*
Y45083D01*
X-211069D01*
Y45186D01*
X-211173D01*
Y44979D01*
X-211276D01*
Y45083D01*
X-211380D01*
Y45186D01*
X-211276D01*
Y45394D01*
X-211484D01*
Y45497D01*
X-211587D01*
Y45601D01*
X-211691D01*
Y45705D01*
X-211795D01*
Y45808D01*
X-211898D01*
Y45705D01*
X-212002D01*
Y45808D01*
X-212106D01*
Y46016D01*
X-212002D01*
Y45912D01*
X-211898D01*
Y46016D01*
X-212002D01*
Y46119D01*
X-211898D01*
Y46223D01*
X-212106D01*
Y46327D01*
X-212209D01*
Y46430D01*
X-212106D01*
Y46534D01*
X-212313D01*
Y46949D01*
X-212520D01*
Y47156D01*
X-212417D01*
Y47260D01*
X-212624D01*
Y47363D01*
X-212520D01*
Y47467D01*
X-212624D01*
Y47674D01*
X-212728D01*
Y47882D01*
X-212624D01*
Y48089D01*
X-212728D01*
Y48193D01*
X-212831D01*
Y47985D01*
X-212935D01*
Y48296D01*
X-212728D01*
Y48400D01*
X-212831D01*
Y48504D01*
X-212728D01*
Y48608D01*
X-212831D01*
Y49022D01*
X-212728D01*
Y49229D01*
X-212831D01*
Y49333D01*
X-212728D01*
Y49541D01*
X-212831D01*
Y49437D01*
X-212935D01*
Y49333D01*
X-213039D01*
Y49541D01*
X-212935D01*
Y49748D01*
X-212831D01*
Y49644D01*
X-212728D01*
Y49748D01*
X-209099D01*
Y49333D01*
D02*
G37*
G36*
X-227242Y45186D02*
X-227035D01*
Y44979D01*
X-226931D01*
Y45290D01*
X-226724D01*
Y45186D01*
X-226827D01*
Y45083D01*
X-226724D01*
Y44875D01*
X-226827D01*
Y44771D01*
X-226620D01*
Y44875D01*
X-226413D01*
Y44771D01*
X-226309D01*
Y44668D01*
X-226205D01*
Y44564D01*
X-226102D01*
Y44461D01*
X-225791D01*
Y44564D01*
X-225687D01*
Y44461D01*
X-225583D01*
Y44564D01*
X-225480D01*
Y44461D01*
X-225376D01*
Y44357D01*
X-225272D01*
Y44253D01*
X-225065D01*
Y44149D01*
X-224858D01*
Y44253D01*
X-224754D01*
Y44149D01*
X-224028D01*
Y44046D01*
X-223925D01*
Y44357D01*
X-223821D01*
Y44046D01*
X-219052D01*
Y40314D01*
X-218948D01*
Y44357D01*
X-218845D01*
Y40210D01*
X-219156D01*
Y40314D01*
X-227346D01*
Y45497D01*
X-227242D01*
Y45186D01*
D02*
G37*
G36*
X-224339Y38240D02*
X-223821D01*
Y38136D01*
X-223302D01*
Y38033D01*
X-223199D01*
Y37929D01*
X-223095D01*
Y38033D01*
X-222888D01*
Y37929D01*
X-222680D01*
Y37825D01*
X-222577D01*
Y37722D01*
X-222369D01*
Y37825D01*
X-222266D01*
Y37618D01*
X-222058D01*
Y37825D01*
X-221851D01*
Y37722D01*
X-221955D01*
Y37618D01*
X-221851D01*
Y37514D01*
X-221747D01*
Y37411D01*
X-221644D01*
Y37307D01*
X-221540D01*
Y37411D01*
X-221436D01*
Y37618D01*
X-221333D01*
Y37307D01*
X-221436D01*
Y37203D01*
X-221125D01*
Y37100D01*
X-221022D01*
Y36996D01*
X-220814D01*
Y36892D01*
X-220918D01*
Y36789D01*
X-220503D01*
Y36685D01*
X-220607D01*
Y36478D01*
X-220192D01*
Y36374D01*
X-220089D01*
Y36063D01*
X-219881D01*
Y35752D01*
X-219674D01*
Y35545D01*
X-219363D01*
Y35441D01*
X-219570D01*
Y35234D01*
X-219363D01*
Y34922D01*
X-219259D01*
Y34819D01*
X-219156D01*
Y34715D01*
X-219052D01*
Y34611D01*
X-219156D01*
Y34508D01*
X-219052D01*
Y34404D01*
X-219156D01*
Y34197D01*
X-219052D01*
Y34093D01*
X-218948D01*
Y33989D01*
X-219052D01*
Y33886D01*
X-218845D01*
Y33575D01*
X-218741D01*
Y33471D01*
X-218637D01*
Y33367D01*
X-218533D01*
Y33160D01*
X-218741D01*
Y33264D01*
X-218845D01*
Y33160D01*
X-218741D01*
Y32538D01*
X-218637D01*
Y32434D01*
X-218741D01*
Y31398D01*
X-218845D01*
Y31294D01*
X-218741D01*
Y30983D01*
X-218637D01*
Y31190D01*
X-218533D01*
Y30776D01*
X-218741D01*
Y30568D01*
X-218845D01*
Y30154D01*
X-218948D01*
Y30257D01*
X-219052D01*
Y30154D01*
X-218948D01*
Y29946D01*
X-219156D01*
Y29532D01*
X-219259D01*
Y29428D01*
X-219363D01*
Y29117D01*
X-219466D01*
Y29013D01*
X-219570D01*
Y28909D01*
X-219674D01*
Y28702D01*
X-219778D01*
Y28598D01*
X-219674D01*
Y28391D01*
X-219778D01*
Y28287D01*
X-219881D01*
Y28184D01*
X-219985D01*
Y28287D01*
X-220089D01*
Y27873D01*
X-220192D01*
Y27769D01*
X-220296D01*
Y27976D01*
X-220400D01*
Y27873D01*
X-220503D01*
Y27769D01*
X-220607D01*
Y27665D01*
X-220503D01*
Y27458D01*
X-220607D01*
Y27562D01*
X-220814D01*
Y27458D01*
X-220607D01*
Y27147D01*
X-220503D01*
Y27043D01*
X-220711D01*
Y27147D01*
X-220814D01*
Y27043D01*
X-220711D01*
Y26940D01*
X-214076D01*
Y23000D01*
X-227346D01*
Y27147D01*
X-227035D01*
Y27043D01*
X-226931D01*
Y26940D01*
X-226827D01*
Y27043D01*
X-226724D01*
Y27147D01*
X-226620D01*
Y26836D01*
X-226413D01*
Y26940D01*
X-226309D01*
Y26836D01*
X-224028D01*
Y26940D01*
X-223717D01*
Y27043D01*
X-223613D01*
Y27251D01*
X-223510D01*
Y27043D01*
X-223302D01*
Y27147D01*
X-223199D01*
Y27251D01*
X-222992D01*
Y27354D01*
X-222888D01*
Y27458D01*
X-222680D01*
Y27562D01*
X-222473D01*
Y27458D01*
X-222369D01*
Y27562D01*
X-222266D01*
Y27665D01*
X-222369D01*
Y27769D01*
X-222266D01*
Y27873D01*
X-222058D01*
Y28080D01*
X-221851D01*
Y28184D01*
X-221747D01*
Y28391D01*
X-221540D01*
Y28495D01*
X-221644D01*
Y28702D01*
X-221540D01*
Y28806D01*
X-221644D01*
Y28909D01*
X-221436D01*
Y28806D01*
X-221333D01*
Y29013D01*
X-221436D01*
Y29220D01*
X-221333D01*
Y29428D01*
X-221125D01*
Y29532D01*
X-221229D01*
Y29739D01*
X-221125D01*
Y29946D01*
X-221229D01*
Y29843D01*
X-221333D01*
Y30050D01*
X-221125D01*
Y30257D01*
X-221022D01*
Y30568D01*
X-221125D01*
Y30672D01*
X-221022D01*
Y30776D01*
X-221125D01*
Y30983D01*
X-221022D01*
Y31087D01*
X-221125D01*
Y31398D01*
X-221229D01*
Y31812D01*
X-221333D01*
Y31916D01*
X-221229D01*
Y32020D01*
X-221333D01*
Y32123D01*
X-221436D01*
Y32434D01*
X-221644D01*
Y32538D01*
X-221747D01*
Y32849D01*
X-221955D01*
Y33056D01*
X-222162D01*
Y33160D01*
X-222266D01*
Y33264D01*
X-222369D01*
Y33575D01*
X-222473D01*
Y33678D01*
X-222888D01*
Y33782D01*
X-222784D01*
Y33886D01*
X-223199D01*
Y33989D01*
X-223302D01*
Y33782D01*
X-223406D01*
Y33886D01*
X-223510D01*
Y34093D01*
X-223613D01*
Y34197D01*
X-223717D01*
Y34093D01*
X-224028D01*
Y34300D01*
X-224132D01*
Y34197D01*
X-224443D01*
Y34093D01*
X-224235D01*
Y33989D01*
X-224547D01*
Y34197D01*
X-224650D01*
Y34093D01*
X-224858D01*
Y34197D01*
X-224961D01*
Y34300D01*
X-225583D01*
Y34093D01*
X-225687D01*
Y34197D01*
X-225894D01*
Y34300D01*
X-225998D01*
Y34197D01*
X-225894D01*
Y34093D01*
X-225998D01*
Y33989D01*
X-226102D01*
Y34197D01*
X-226413D01*
Y34300D01*
X-226516D01*
Y34093D01*
X-226827D01*
Y33989D01*
X-227035D01*
Y34093D01*
X-227138D01*
Y33782D01*
X-227242D01*
Y33989D01*
X-227346D01*
Y38136D01*
X-227138D01*
Y38033D01*
X-226827D01*
Y38240D01*
X-226620D01*
Y38136D01*
X-226516D01*
Y38240D01*
X-226309D01*
Y38344D01*
X-226102D01*
Y38240D01*
X-225998D01*
Y38344D01*
X-224650D01*
Y38240D01*
X-224547D01*
Y38344D01*
X-224339D01*
Y38240D01*
D02*
G37*
G36*
X-208995Y33471D02*
X-209203D01*
Y33575D01*
X-209307D01*
Y33471D01*
X-209410D01*
Y33264D01*
X-209514D01*
Y32953D01*
X-209618D01*
Y32849D01*
X-209825D01*
Y32953D01*
X-209928D01*
Y32849D01*
X-209825D01*
Y32642D01*
X-210032D01*
Y32538D01*
X-209928D01*
Y32331D01*
X-210136D01*
Y32020D01*
X-210240D01*
Y31916D01*
X-210343D01*
Y31087D01*
X-210447D01*
Y30983D01*
X-210240D01*
Y30257D01*
X-210343D01*
Y30879D01*
X-210447D01*
Y30050D01*
X-210343D01*
Y29946D01*
X-210136D01*
Y29635D01*
X-210240D01*
Y29843D01*
X-210343D01*
Y29635D01*
X-210240D01*
Y29532D01*
X-210343D01*
Y29428D01*
X-210240D01*
Y29220D01*
X-210343D01*
Y29117D01*
X-210240D01*
Y28806D01*
X-210136D01*
Y28702D01*
X-210032D01*
Y28806D01*
X-209825D01*
Y28702D01*
X-209928D01*
Y28495D01*
X-209825D01*
Y28391D01*
X-209928D01*
Y28287D01*
X-209825D01*
Y28080D01*
X-209721D01*
Y27976D01*
X-209618D01*
Y28184D01*
X-209514D01*
Y28287D01*
X-209410D01*
Y28080D01*
X-209514D01*
Y27873D01*
X-209618D01*
Y27769D01*
X-209410D01*
Y27873D01*
X-209099D01*
Y27769D01*
X-209203D01*
Y27665D01*
X-209099D01*
Y27354D01*
X-208995D01*
Y23000D01*
X-212417D01*
Y26732D01*
X-210654D01*
Y26836D01*
X-211069D01*
Y26940D01*
X-210654D01*
Y27147D01*
X-210758D01*
Y27251D01*
X-210654D01*
Y27354D01*
X-210758D01*
Y27562D01*
X-210862D01*
Y27354D01*
X-211069D01*
Y27665D01*
X-211173D01*
Y27873D01*
X-211380D01*
Y27976D01*
X-211484D01*
Y28080D01*
X-211587D01*
Y28184D01*
X-211691D01*
Y28391D01*
X-211795D01*
Y28495D01*
X-211691D01*
Y28598D01*
X-211795D01*
Y28702D01*
X-212002D01*
Y28909D01*
X-212106D01*
Y29013D01*
X-212002D01*
Y29220D01*
X-212106D01*
Y29324D01*
X-212209D01*
Y29532D01*
X-212417D01*
Y29946D01*
X-212520D01*
Y30050D01*
X-212624D01*
Y29946D01*
X-212728D01*
Y30154D01*
X-212624D01*
Y30257D01*
X-212520D01*
Y30361D01*
X-212624D01*
Y30464D01*
X-212728D01*
Y30672D01*
X-212624D01*
Y30879D01*
X-212728D01*
Y31501D01*
X-212831D01*
Y32953D01*
X-212728D01*
Y33056D01*
X-212831D01*
Y33160D01*
X-212728D01*
Y33575D01*
X-212624D01*
Y33782D01*
X-212831D01*
Y33886D01*
X-212728D01*
Y33989D01*
X-212624D01*
Y34093D01*
X-212520D01*
Y34197D01*
X-212624D01*
Y34300D01*
X-212520D01*
Y34508D01*
X-212313D01*
Y34819D01*
X-212520D01*
Y35130D01*
X-212417D01*
Y34922D01*
X-212313D01*
Y35130D01*
X-212209D01*
Y35234D01*
X-212002D01*
Y35337D01*
X-211898D01*
Y35441D01*
X-212002D01*
Y35648D01*
X-212106D01*
Y35752D01*
X-211898D01*
Y35856D01*
X-211795D01*
Y35752D01*
X-211691D01*
Y35856D01*
X-211795D01*
Y35959D01*
X-211484D01*
Y36063D01*
X-211587D01*
Y36270D01*
X-211484D01*
Y36167D01*
X-211380D01*
Y36270D01*
X-211484D01*
Y36374D01*
X-211380D01*
Y36478D01*
X-211276D01*
Y36581D01*
X-211173D01*
Y36478D01*
X-211069D01*
Y36685D01*
X-210965D01*
Y36581D01*
X-210862D01*
Y36789D01*
X-210965D01*
Y36892D01*
X-210758D01*
Y36789D01*
X-210654D01*
Y36996D01*
X-210758D01*
Y37307D01*
X-210551D01*
Y37203D01*
X-210343D01*
Y37307D01*
X-210240D01*
Y37411D01*
X-210032D01*
Y37514D01*
X-209928D01*
Y37618D01*
X-209825D01*
Y37514D01*
X-209721D01*
Y37722D01*
X-209825D01*
Y37825D01*
X-209618D01*
Y37722D01*
X-209514D01*
Y37618D01*
X-209410D01*
Y37825D01*
X-209099D01*
Y37929D01*
X-208995D01*
Y33471D01*
D02*
G37*
G36*
X-221955Y21860D02*
X-221540D01*
Y21756D01*
X-221851D01*
Y21549D01*
X-221747D01*
Y21652D01*
X-221644D01*
Y21549D01*
X-221333D01*
Y21445D01*
X-221125D01*
Y21652D01*
X-221022D01*
Y21549D01*
X-220814D01*
Y21445D01*
X-221022D01*
Y21341D01*
X-220814D01*
Y21134D01*
X-220918D01*
Y21030D01*
X-220607D01*
Y21134D01*
X-220503D01*
Y21030D01*
X-220400D01*
Y20926D01*
X-220607D01*
Y20823D01*
X-220400D01*
Y20615D01*
X-220296D01*
Y20823D01*
X-220192D01*
Y20719D01*
X-220089D01*
Y20615D01*
X-219985D01*
Y20201D01*
X-219778D01*
Y20097D01*
X-219674D01*
Y19993D01*
X-219570D01*
Y19890D01*
X-219674D01*
Y19786D01*
X-219466D01*
Y19682D01*
X-219363D01*
Y19579D01*
X-219570D01*
Y19475D01*
X-219363D01*
Y19268D01*
X-219466D01*
Y19164D01*
X-219363D01*
Y19060D01*
X-219156D01*
Y18957D01*
X-219259D01*
Y18853D01*
X-219156D01*
Y18749D01*
X-219052D01*
Y18646D01*
X-219156D01*
Y18438D01*
X-219052D01*
Y17920D01*
X-218948D01*
Y17816D01*
X-218845D01*
Y17194D01*
X-218533D01*
Y17091D01*
X-218741D01*
Y15847D01*
X-218637D01*
Y15743D01*
X-218741D01*
Y13980D01*
X-218845D01*
Y13877D01*
X-218741D01*
Y13669D01*
X-218637D01*
Y13773D01*
X-218533D01*
Y13462D01*
X-218637D01*
Y13358D01*
X-218845D01*
Y13255D01*
X-218741D01*
Y13151D01*
X-218845D01*
Y12633D01*
X-218948D01*
Y12425D01*
X-219052D01*
Y12322D01*
X-218948D01*
Y12218D01*
X-219052D01*
Y12114D01*
X-218845D01*
Y11803D01*
X-218948D01*
Y12011D01*
X-219052D01*
Y11803D01*
X-218948D01*
Y11285D01*
X-219052D01*
Y11596D01*
X-219156D01*
Y11285D01*
X-219363D01*
Y11181D01*
X-219259D01*
Y11078D01*
X-219363D01*
Y10870D01*
X-219466D01*
Y10663D01*
X-219570D01*
Y10559D01*
X-219466D01*
Y10455D01*
X-219570D01*
Y10144D01*
X-219674D01*
Y10041D01*
X-219778D01*
Y9937D01*
X-219881D01*
Y9833D01*
X-219674D01*
Y9730D01*
X-219881D01*
Y9522D01*
X-219985D01*
Y9419D01*
X-220192D01*
Y9315D01*
X-220089D01*
Y9108D01*
X-220192D01*
Y9211D01*
X-220296D01*
Y9108D01*
X-220192D01*
Y9004D01*
X-220296D01*
Y8900D01*
X-220503D01*
Y8589D01*
X-220607D01*
Y8797D01*
X-220711D01*
Y8693D01*
X-220814D01*
Y8486D01*
X-220711D01*
Y8382D01*
X-220814D01*
Y8278D01*
X-220918D01*
Y8175D01*
X-221022D01*
Y8278D01*
X-221125D01*
Y8175D01*
X-221022D01*
Y8071D01*
X-221125D01*
Y7967D01*
X-221229D01*
Y7864D01*
X-221436D01*
Y7967D01*
X-221333D01*
Y8071D01*
X-221540D01*
Y8175D01*
X-221644D01*
Y8278D01*
X-221747D01*
Y8693D01*
X-221851D01*
Y8797D01*
X-221955D01*
Y8589D01*
X-222058D01*
Y8693D01*
X-222162D01*
Y8589D01*
X-222266D01*
Y8693D01*
X-222369D01*
Y8797D01*
X-222266D01*
Y8900D01*
X-222162D01*
Y8797D01*
X-222058D01*
Y9004D01*
X-222162D01*
Y9108D01*
X-222266D01*
Y9211D01*
X-222577D01*
Y9315D01*
X-222369D01*
Y9419D01*
X-222680D01*
Y9626D01*
X-222784D01*
Y9730D01*
X-222992D01*
Y9937D01*
X-222888D01*
Y10041D01*
X-222784D01*
Y10144D01*
X-222680D01*
Y10248D01*
X-222577D01*
Y10144D01*
X-222473D01*
Y10248D01*
X-222577D01*
Y10352D01*
X-222473D01*
Y10455D01*
X-222369D01*
Y10352D01*
X-222266D01*
Y10870D01*
X-222162D01*
Y10974D01*
X-222058D01*
Y10870D01*
X-221955D01*
Y10974D01*
X-221851D01*
Y11078D01*
X-221955D01*
Y11181D01*
X-221851D01*
Y11388D01*
X-221644D01*
Y11492D01*
X-221851D01*
Y11596D01*
X-221644D01*
Y11907D01*
X-221540D01*
Y11803D01*
X-221436D01*
Y11907D01*
X-221540D01*
Y12011D01*
X-221436D01*
Y12425D01*
X-221333D01*
Y12840D01*
X-221229D01*
Y13047D01*
X-221125D01*
Y13151D01*
X-221229D01*
Y13255D01*
X-221333D01*
Y13669D01*
X-221229D01*
Y13358D01*
X-221125D01*
Y13669D01*
X-221022D01*
Y13877D01*
X-221125D01*
Y13773D01*
X-221229D01*
Y14291D01*
X-221125D01*
Y14188D01*
X-221022D01*
Y16676D01*
X-221125D01*
Y16365D01*
X-221229D01*
Y16780D01*
X-221125D01*
Y16883D01*
X-221022D01*
Y16987D01*
X-221125D01*
Y17505D01*
X-221229D01*
Y17402D01*
X-221436D01*
Y17505D01*
X-221333D01*
Y17609D01*
X-221436D01*
Y17816D01*
X-221540D01*
Y18024D01*
X-221747D01*
Y18127D01*
X-221644D01*
Y18335D01*
X-221747D01*
Y18231D01*
X-221851D01*
Y18335D01*
X-222473D01*
Y18438D01*
X-222784D01*
Y18335D01*
X-222888D01*
Y18231D01*
X-223095D01*
Y18127D01*
X-223199D01*
Y17920D01*
X-223406D01*
Y18024D01*
X-223510D01*
Y17920D01*
X-223406D01*
Y17816D01*
X-223510D01*
Y17505D01*
X-223613D01*
Y17194D01*
X-223717D01*
Y16987D01*
X-223613D01*
Y17091D01*
X-223510D01*
Y16883D01*
X-223717D01*
Y16572D01*
X-223821D01*
Y15950D01*
X-223925D01*
Y15847D01*
X-223821D01*
Y15743D01*
X-223925D01*
Y15432D01*
X-224028D01*
Y15224D01*
X-223925D01*
Y15017D01*
X-224028D01*
Y14913D01*
X-223925D01*
Y14810D01*
X-224028D01*
Y14291D01*
X-224132D01*
Y14188D01*
X-223821D01*
Y13980D01*
X-223925D01*
Y14084D01*
X-224028D01*
Y13877D01*
X-224132D01*
Y13773D01*
X-223925D01*
Y13669D01*
X-224132D01*
Y13358D01*
X-224235D01*
Y12736D01*
X-224339D01*
Y12633D01*
X-224235D01*
Y12425D01*
X-224339D01*
Y12011D01*
X-224443D01*
Y11907D01*
X-224235D01*
Y11803D01*
X-224339D01*
Y11700D01*
X-224235D01*
Y11596D01*
X-224547D01*
Y11492D01*
X-224443D01*
Y11285D01*
X-224650D01*
Y11181D01*
X-224547D01*
Y11078D01*
X-224650D01*
Y10974D01*
X-224754D01*
Y10767D01*
X-224650D01*
Y10663D01*
X-224754D01*
Y10559D01*
X-224547D01*
Y10455D01*
X-224650D01*
Y10248D01*
X-224754D01*
Y10455D01*
X-224858D01*
Y10559D01*
X-224961D01*
Y10455D01*
X-224858D01*
Y10352D01*
X-224961D01*
Y10144D01*
X-225065D01*
Y10041D01*
X-225169D01*
Y9937D01*
X-225272D01*
Y9833D01*
X-225376D01*
Y9626D01*
X-225272D01*
Y9522D01*
X-225376D01*
Y9419D01*
X-225480D01*
Y9315D01*
X-225583D01*
Y9522D01*
X-225687D01*
Y9419D01*
X-225791D01*
Y9211D01*
X-225894D01*
Y9108D01*
X-225998D01*
Y8900D01*
X-226102D01*
Y9108D01*
X-226205D01*
Y9004D01*
X-226309D01*
Y8900D01*
X-226205D01*
Y8797D01*
X-226413D01*
Y8589D01*
X-226516D01*
Y8693D01*
X-226724D01*
Y8797D01*
X-226827D01*
Y8693D01*
X-227035D01*
Y8589D01*
X-227346D01*
Y12218D01*
X-227242D01*
Y12322D01*
X-227138D01*
Y12425D01*
X-227035D01*
Y12529D01*
X-227138D01*
Y12736D01*
X-226931D01*
Y13047D01*
X-226827D01*
Y13151D01*
X-226931D01*
Y13358D01*
X-226827D01*
Y13462D01*
X-226724D01*
Y13566D01*
X-226827D01*
Y13773D01*
X-226724D01*
Y13877D01*
X-226827D01*
Y13980D01*
X-226724D01*
Y14084D01*
X-226620D01*
Y14188D01*
X-226724D01*
Y14395D01*
X-226620D01*
Y14913D01*
X-226827D01*
Y15121D01*
X-226620D01*
Y15639D01*
X-226516D01*
Y15743D01*
X-226620D01*
Y15847D01*
X-226516D01*
Y16261D01*
X-226413D01*
Y16468D01*
X-226516D01*
Y16572D01*
X-226413D01*
Y17194D01*
X-226309D01*
Y17298D01*
X-226413D01*
Y17402D01*
X-226309D01*
Y17816D01*
X-226413D01*
Y17713D01*
X-226516D01*
Y18127D01*
X-226413D01*
Y17920D01*
X-226309D01*
Y18335D01*
X-226205D01*
Y18542D01*
X-226102D01*
Y18646D01*
X-226205D01*
Y18749D01*
X-226102D01*
Y18853D01*
X-225998D01*
Y18957D01*
X-226102D01*
Y19060D01*
X-226205D01*
Y19268D01*
X-226102D01*
Y19164D01*
X-225894D01*
Y19371D01*
X-225998D01*
Y19475D01*
X-226102D01*
Y19786D01*
X-225998D01*
Y19579D01*
X-225894D01*
Y19475D01*
X-225791D01*
Y19579D01*
X-225894D01*
Y19786D01*
X-225791D01*
Y19682D01*
X-225687D01*
Y19786D01*
X-225791D01*
Y19890D01*
X-225687D01*
Y20305D01*
X-225480D01*
Y20408D01*
X-225272D01*
Y20512D01*
X-225480D01*
Y20615D01*
X-225376D01*
Y20719D01*
X-225272D01*
Y20823D01*
X-225169D01*
Y20926D01*
X-225065D01*
Y20823D01*
X-224961D01*
Y20926D01*
X-225065D01*
Y21030D01*
X-224650D01*
Y21134D01*
X-224547D01*
Y21341D01*
X-224650D01*
Y21549D01*
X-224547D01*
Y21652D01*
X-224235D01*
Y21549D01*
X-224132D01*
Y21445D01*
X-224028D01*
Y21652D01*
X-223717D01*
Y21756D01*
X-223613D01*
Y21860D01*
X-223510D01*
Y21963D01*
X-223406D01*
Y21860D01*
X-223302D01*
Y21756D01*
X-222992D01*
Y21652D01*
X-222888D01*
Y21756D01*
X-222784D01*
Y21652D01*
X-222680D01*
Y21756D01*
X-222473D01*
Y21652D01*
X-222162D01*
Y21756D01*
X-222266D01*
Y21963D01*
X-221955D01*
Y21860D01*
D02*
G37*
G36*
X-210551Y21341D02*
X-210447D01*
Y21134D01*
X-210343D01*
Y20926D01*
X-210240D01*
Y21030D01*
X-210136D01*
Y20823D01*
X-209928D01*
Y20615D01*
X-209721D01*
Y20408D01*
X-209514D01*
Y20201D01*
X-209307D01*
Y19993D01*
X-209099D01*
Y20201D01*
X-208995D01*
Y19890D01*
X-209203D01*
Y19579D01*
X-209307D01*
Y19475D01*
X-209410D01*
Y19268D01*
X-209514D01*
Y19371D01*
X-209618D01*
Y19268D01*
X-209721D01*
Y19060D01*
X-209618D01*
Y18957D01*
X-209514D01*
Y18749D01*
X-209618D01*
Y18853D01*
X-209721D01*
Y18957D01*
X-209825D01*
Y18853D01*
X-209928D01*
Y18646D01*
X-210032D01*
Y18335D01*
X-209928D01*
Y18231D01*
X-210136D01*
Y18127D01*
X-210032D01*
Y18024D01*
X-210136D01*
Y17920D01*
X-210240D01*
Y17816D01*
X-210136D01*
Y17713D01*
X-210240D01*
Y17609D01*
X-210343D01*
Y17505D01*
X-210240D01*
Y17402D01*
X-210343D01*
Y17298D01*
X-210136D01*
Y17194D01*
X-210343D01*
Y16883D01*
X-210447D01*
Y16572D01*
X-210551D01*
Y15536D01*
X-210654D01*
Y15224D01*
X-210343D01*
Y15121D01*
X-210447D01*
Y14499D01*
X-210551D01*
Y14913D01*
X-210654D01*
Y13980D01*
X-210551D01*
Y13877D01*
X-210654D01*
Y13773D01*
X-210551D01*
Y13669D01*
X-210654D01*
Y13566D01*
X-210551D01*
Y13358D01*
X-210447D01*
Y13255D01*
X-210551D01*
Y13151D01*
X-210447D01*
Y13047D01*
X-210343D01*
Y13358D01*
X-210240D01*
Y12944D01*
X-210343D01*
Y12736D01*
X-210447D01*
Y12633D01*
X-210240D01*
Y12529D01*
X-210136D01*
Y12425D01*
X-210032D01*
Y12322D01*
X-209928D01*
Y12114D01*
X-209721D01*
Y12011D01*
X-209618D01*
Y11907D01*
X-209514D01*
Y12011D01*
X-209410D01*
Y11907D01*
X-209099D01*
Y12011D01*
X-208995D01*
Y8486D01*
X-209203D01*
Y8589D01*
X-209410D01*
Y8486D01*
X-209514D01*
Y8589D01*
X-209721D01*
Y8693D01*
X-209825D01*
Y8589D01*
X-209928D01*
Y8693D01*
X-210136D01*
Y8797D01*
X-210240D01*
Y8900D01*
X-210447D01*
Y9004D01*
X-210551D01*
Y9108D01*
X-210862D01*
Y9315D01*
X-210965D01*
Y9211D01*
X-211173D01*
Y9315D01*
X-211069D01*
Y9419D01*
X-211173D01*
Y9522D01*
X-211484D01*
Y9626D01*
X-211587D01*
Y9730D01*
X-211691D01*
Y9626D01*
X-211795D01*
Y9833D01*
X-211587D01*
Y9937D01*
X-211691D01*
Y10041D01*
X-211795D01*
Y10144D01*
X-211898D01*
Y10352D01*
X-212002D01*
Y10559D01*
X-212106D01*
Y10663D01*
X-212209D01*
Y10559D01*
X-212313D01*
Y10767D01*
X-212002D01*
Y10870D01*
X-212209D01*
Y10974D01*
X-212520D01*
Y11078D01*
X-212209D01*
Y11388D01*
X-212313D01*
Y11596D01*
X-212417D01*
Y11700D01*
X-212520D01*
Y12011D01*
X-212624D01*
Y12218D01*
X-212520D01*
Y12322D01*
X-212624D01*
Y12633D01*
X-212728D01*
Y12736D01*
X-212624D01*
Y12840D01*
X-212728D01*
Y12944D01*
X-212624D01*
Y13047D01*
X-212728D01*
Y13255D01*
X-212831D01*
Y13358D01*
X-212728D01*
Y13462D01*
X-212831D01*
Y16365D01*
X-212728D01*
Y16572D01*
X-212831D01*
Y16676D01*
X-212728D01*
Y16780D01*
X-212624D01*
Y16987D01*
X-212728D01*
Y17298D01*
X-212624D01*
Y17505D01*
X-212728D01*
Y17609D01*
X-212624D01*
Y18024D01*
X-212520D01*
Y18127D01*
X-212417D01*
Y18335D01*
X-212313D01*
Y18438D01*
X-212417D01*
Y18542D01*
X-212313D01*
Y18957D01*
X-212209D01*
Y19060D01*
X-212313D01*
Y19164D01*
X-212106D01*
Y19682D01*
X-212002D01*
Y19579D01*
X-211898D01*
Y19682D01*
X-212002D01*
Y19890D01*
X-211898D01*
Y20201D01*
X-211795D01*
Y20305D01*
X-211691D01*
Y20512D01*
X-211795D01*
Y20719D01*
X-211691D01*
Y20615D01*
X-211587D01*
Y20719D01*
X-211484D01*
Y20615D01*
X-211380D01*
Y20719D01*
X-211484D01*
Y20926D01*
X-211276D01*
Y21134D01*
X-211173D01*
Y21237D01*
X-211069D01*
Y21445D01*
X-210965D01*
Y21341D01*
X-210862D01*
Y21445D01*
X-210551D01*
Y21341D01*
D02*
G37*
G36*
X-225998Y7034D02*
X-224443D01*
Y-3955D01*
X-224235D01*
Y-4163D01*
X-223925D01*
Y-4059D01*
X-223510D01*
Y-3955D01*
X-223302D01*
Y-4059D01*
X-223199D01*
Y-3955D01*
X-222992D01*
Y-3852D01*
X-222888D01*
Y-3644D01*
X-222784D01*
Y-3748D01*
X-222577D01*
Y-3437D01*
X-222473D01*
Y-3333D01*
X-222369D01*
Y-3437D01*
X-222266D01*
Y-3126D01*
X-222162D01*
Y-3230D01*
X-222058D01*
Y-2919D01*
X-221955D01*
Y-2711D01*
X-221851D01*
Y-2504D01*
X-221644D01*
Y-2296D01*
X-221540D01*
Y-2400D01*
X-221436D01*
Y-2089D01*
X-221644D01*
Y-1674D01*
X-221540D01*
Y-1985D01*
X-221333D01*
Y-1778D01*
X-221436D01*
Y-1571D01*
X-221333D01*
Y-1674D01*
X-221229D01*
Y-1571D01*
X-221333D01*
Y-1363D01*
X-221436D01*
Y-1156D01*
X-221333D01*
Y-1260D01*
X-221125D01*
Y-1156D01*
X-221229D01*
Y-1052D01*
X-221125D01*
Y-949D01*
X-221229D01*
Y-845D01*
X-221125D01*
Y-741D01*
X-221333D01*
Y-638D01*
X-221125D01*
Y710D01*
X-221229D01*
Y814D01*
X-221125D01*
Y917D01*
X-221229D01*
Y1229D01*
X-221333D01*
Y1332D01*
X-221229D01*
Y1540D01*
X-221333D01*
Y1643D01*
X-221540D01*
Y1540D01*
X-221644D01*
Y1954D01*
X-221540D01*
Y1747D01*
X-221436D01*
Y1954D01*
X-221540D01*
Y2058D01*
X-221436D01*
Y2162D01*
X-221644D01*
Y2369D01*
X-221540D01*
Y2473D01*
X-221851D01*
Y2680D01*
X-221955D01*
Y2784D01*
X-221851D01*
Y2991D01*
X-221955D01*
Y2887D01*
X-222266D01*
Y2991D01*
X-222058D01*
Y3198D01*
X-222162D01*
Y3406D01*
X-222266D01*
Y3198D01*
X-222369D01*
Y3406D01*
X-222473D01*
Y3198D01*
X-222577D01*
Y3302D01*
X-222680D01*
Y3406D01*
X-222577D01*
Y3613D01*
X-222784D01*
Y3924D01*
X-222888D01*
Y4028D01*
X-223095D01*
Y4131D01*
X-222784D01*
Y4028D01*
X-222680D01*
Y4235D01*
X-222784D01*
Y4339D01*
X-222577D01*
Y4650D01*
X-222473D01*
Y4753D01*
X-222577D01*
Y4857D01*
X-222369D01*
Y4961D01*
X-222473D01*
Y5064D01*
X-222369D01*
Y5272D01*
X-222058D01*
Y5479D01*
X-222162D01*
Y5583D01*
X-222266D01*
Y5790D01*
X-221955D01*
Y6101D01*
X-221851D01*
Y5997D01*
X-221747D01*
Y6101D01*
X-221851D01*
Y6412D01*
X-221747D01*
Y6309D01*
X-221644D01*
Y6412D01*
X-221540D01*
Y6309D01*
X-221436D01*
Y6516D01*
X-221333D01*
Y6412D01*
X-221229D01*
Y6205D01*
X-221022D01*
Y6101D01*
X-221125D01*
Y5997D01*
X-220814D01*
Y5894D01*
X-220918D01*
Y5790D01*
X-220814D01*
Y5687D01*
X-220711D01*
Y5583D01*
X-220400D01*
Y5479D01*
X-220607D01*
Y5375D01*
X-220192D01*
Y4961D01*
X-219985D01*
Y4753D01*
X-219674D01*
Y4650D01*
X-219881D01*
Y4442D01*
X-219778D01*
Y4546D01*
X-219674D01*
Y4235D01*
X-219778D01*
Y4131D01*
X-219570D01*
Y4028D01*
X-219466D01*
Y3613D01*
X-219259D01*
Y3406D01*
X-219363D01*
Y3302D01*
X-219259D01*
Y3198D01*
X-219156D01*
Y3095D01*
X-219259D01*
Y2991D01*
X-219156D01*
Y2887D01*
X-219052D01*
Y2576D01*
X-218948D01*
Y1954D01*
X-218845D01*
Y1850D01*
X-218741D01*
Y1747D01*
X-218845D01*
Y1229D01*
X-218741D01*
Y-534D01*
X-218637D01*
Y-638D01*
X-218741D01*
Y-1571D01*
X-218845D01*
Y-1778D01*
X-218741D01*
Y-1674D01*
X-218637D01*
Y-1778D01*
X-218533D01*
Y-1985D01*
X-218637D01*
Y-1882D01*
X-218741D01*
Y-2089D01*
X-218845D01*
Y-2193D01*
X-218948D01*
Y-2296D01*
X-218845D01*
Y-2400D01*
X-218948D01*
Y-2607D01*
X-219052D01*
Y-2711D01*
X-218948D01*
Y-2815D01*
X-219052D01*
Y-3333D01*
X-218948D01*
Y-3644D01*
X-219052D01*
Y-3437D01*
X-219156D01*
Y-3541D01*
X-219259D01*
Y-3644D01*
X-219156D01*
Y-3748D01*
X-219259D01*
Y-3955D01*
X-219363D01*
Y-4059D01*
X-219466D01*
Y-4163D01*
X-219363D01*
Y-4266D01*
X-219466D01*
Y-4577D01*
X-219570D01*
Y-4785D01*
X-219674D01*
Y-4681D01*
X-219778D01*
Y-4992D01*
X-219674D01*
Y-5096D01*
X-219985D01*
Y-5199D01*
X-220089D01*
Y-5303D01*
X-219985D01*
Y-5407D01*
X-220089D01*
Y-5614D01*
X-220192D01*
Y-5718D01*
X-220400D01*
Y-5925D01*
X-220503D01*
Y-6132D01*
X-220711D01*
Y-6029D01*
X-220814D01*
Y-6132D01*
X-220711D01*
Y-6340D01*
X-220814D01*
Y-6547D01*
X-220918D01*
Y-6443D01*
X-221022D01*
Y-6547D01*
X-221333D01*
Y-6858D01*
X-221229D01*
Y-6962D01*
X-221436D01*
Y-6858D01*
X-221644D01*
Y-6962D01*
X-221747D01*
Y-6858D01*
X-221955D01*
Y-7065D01*
X-222058D01*
Y-7169D01*
X-222162D01*
Y-7273D01*
X-222369D01*
Y-7376D01*
X-222680D01*
Y-7480D01*
X-227346D01*
Y-4163D01*
X-227242D01*
Y-4059D01*
X-227138D01*
Y-4163D01*
X-227035D01*
Y-4059D01*
X-227138D01*
Y-3955D01*
X-226931D01*
Y-4059D01*
X-226724D01*
Y-4163D01*
X-226516D01*
Y-4059D01*
X-226620D01*
Y-3955D01*
X-226516D01*
Y-3852D01*
X-226413D01*
Y2576D01*
X-226516D01*
Y3198D01*
X-227138D01*
Y3095D01*
X-227035D01*
Y2991D01*
X-227242D01*
Y3095D01*
X-227346D01*
Y6723D01*
X-227035D01*
Y6827D01*
X-226931D01*
Y7034D01*
X-226724D01*
Y6931D01*
X-226516D01*
Y6827D01*
X-226413D01*
Y6931D01*
X-226102D01*
Y7034D01*
X-226205D01*
Y7138D01*
X-225998D01*
Y7034D01*
D02*
G37*
G36*
X-208995Y2991D02*
X-209099D01*
Y2887D01*
X-209203D01*
Y2784D01*
X-209307D01*
Y2887D01*
X-209514D01*
Y2784D01*
X-209410D01*
Y2680D01*
X-209618D01*
Y2784D01*
X-209721D01*
Y2473D01*
X-209825D01*
Y2576D01*
X-209928D01*
Y2473D01*
X-210032D01*
Y2265D01*
X-210136D01*
Y2162D01*
X-210032D01*
Y2058D01*
X-210240D01*
Y1747D01*
X-210447D01*
Y1436D01*
X-210551D01*
Y1229D01*
X-210654D01*
Y1125D01*
X-210758D01*
Y1021D01*
X-210551D01*
Y917D01*
X-210654D01*
Y814D01*
X-210758D01*
Y606D01*
X-210862D01*
Y503D01*
X-210758D01*
Y399D01*
X-210862D01*
Y-1260D01*
X-210758D01*
Y-1571D01*
X-210551D01*
Y-1778D01*
X-210447D01*
Y-1985D01*
X-210551D01*
Y-1882D01*
X-210654D01*
Y-1778D01*
X-210758D01*
Y-1985D01*
X-210654D01*
Y-2193D01*
X-210551D01*
Y-2296D01*
X-210447D01*
Y-2607D01*
X-210032D01*
Y-2815D01*
X-210136D01*
Y-2711D01*
X-210240D01*
Y-2919D01*
X-210343D01*
Y-3022D01*
X-210240D01*
Y-3126D01*
X-210136D01*
Y-2919D01*
X-210032D01*
Y-3230D01*
X-209928D01*
Y-3437D01*
X-209721D01*
Y-3541D01*
X-209618D01*
Y-3644D01*
X-209410D01*
Y-3748D01*
X-209307D01*
Y-3852D01*
X-209203D01*
Y-3748D01*
X-208995D01*
Y-3852D01*
X-209099D01*
Y-3955D01*
X-208995D01*
Y-7273D01*
X-209203D01*
Y-7169D01*
X-209307D01*
Y-7065D01*
X-209514D01*
Y-6962D01*
X-209825D01*
Y-6754D01*
X-209928D01*
Y-6651D01*
X-210032D01*
Y-6754D01*
X-209928D01*
Y-6858D01*
X-210032D01*
Y-6962D01*
X-210240D01*
Y-6858D01*
X-210136D01*
Y-6547D01*
X-210240D01*
Y-6443D01*
X-210447D01*
Y-6340D01*
X-210551D01*
Y-6443D01*
X-210654D01*
Y-6236D01*
X-210551D01*
Y-6132D01*
X-210654D01*
Y-6029D01*
X-210862D01*
Y-5821D01*
X-211069D01*
Y-5614D01*
X-211173D01*
Y-5510D01*
X-211276D01*
Y-5614D01*
X-211380D01*
Y-5510D01*
X-211484D01*
Y-5199D01*
X-211691D01*
Y-5303D01*
X-211795D01*
Y-5096D01*
X-211691D01*
Y-4888D01*
X-211795D01*
Y-4785D01*
X-211898D01*
Y-4266D01*
X-212106D01*
Y-4163D01*
X-212209D01*
Y-3955D01*
X-212313D01*
Y-3748D01*
X-212209D01*
Y-3644D01*
X-212313D01*
Y-3541D01*
X-212417D01*
Y-3333D01*
X-212313D01*
Y-3230D01*
X-212520D01*
Y-2919D01*
X-212624D01*
Y-3230D01*
X-212728D01*
Y-2919D01*
X-212831D01*
Y-2815D01*
X-212624D01*
Y-2711D01*
X-212520D01*
Y-2607D01*
X-212728D01*
Y-2400D01*
X-212831D01*
Y-2193D01*
X-212728D01*
Y-1674D01*
X-212831D01*
Y-1985D01*
X-212935D01*
Y-1674D01*
X-213039D01*
Y-1467D01*
X-212935D01*
Y-1571D01*
X-212728D01*
Y-1467D01*
X-212831D01*
Y-1260D01*
X-212728D01*
Y-1156D01*
X-212831D01*
Y710D01*
X-212728D01*
Y917D01*
X-212831D01*
Y1021D01*
X-212728D01*
Y1229D01*
X-212624D01*
Y1332D01*
X-212728D01*
Y1747D01*
X-212831D01*
Y2369D01*
X-212728D01*
Y2680D01*
X-212624D01*
Y2369D01*
X-212417D01*
Y2473D01*
X-212520D01*
Y2680D01*
X-212417D01*
Y2887D01*
X-212520D01*
Y2991D01*
X-212313D01*
Y3302D01*
X-212417D01*
Y3613D01*
X-212313D01*
Y3406D01*
X-212209D01*
Y3509D01*
X-212106D01*
Y3613D01*
X-211898D01*
Y3717D01*
X-212209D01*
Y3613D01*
X-212313D01*
Y3820D01*
X-212209D01*
Y4028D01*
X-212106D01*
Y3820D01*
X-212002D01*
Y3924D01*
X-211898D01*
Y4028D01*
X-211795D01*
Y4131D01*
X-211898D01*
Y4235D01*
X-211691D01*
Y4339D01*
X-211587D01*
Y4442D01*
X-211484D01*
Y4546D01*
X-211587D01*
Y4753D01*
X-211484D01*
Y4857D01*
X-211276D01*
Y5064D01*
X-211173D01*
Y5168D01*
X-211069D01*
Y5064D01*
X-210965D01*
Y5168D01*
X-210862D01*
Y5375D01*
X-210758D01*
Y5479D01*
X-210654D01*
Y5375D01*
X-210551D01*
Y5479D01*
X-210654D01*
Y5687D01*
X-210551D01*
Y5790D01*
X-210447D01*
Y5687D01*
X-210343D01*
Y5790D01*
X-210447D01*
Y5894D01*
X-210240D01*
Y5790D01*
X-210136D01*
Y5894D01*
X-210032D01*
Y5997D01*
X-210136D01*
Y6101D01*
X-209928D01*
Y5997D01*
X-209825D01*
Y6101D01*
X-209928D01*
Y6205D01*
X-209721D01*
Y6101D01*
X-209618D01*
Y6205D01*
X-209721D01*
Y6309D01*
X-209410D01*
Y6516D01*
X-209307D01*
Y6619D01*
X-209203D01*
Y6516D01*
X-209099D01*
Y6619D01*
X-208995D01*
Y2991D01*
D02*
G37*
G36*
X-141400Y184593D02*
X-146176D01*
X-146007Y184392D01*
X-145838Y184181D01*
X-145521Y183747D01*
X-145225Y183325D01*
X-145088Y183113D01*
X-144961Y182923D01*
X-144855Y182733D01*
X-144750Y182564D01*
X-144665Y182416D01*
X-144580Y182289D01*
X-144528Y182183D01*
X-144485Y182099D01*
X-144454Y182057D01*
X-144443Y182036D01*
X-144158Y181465D01*
X-143915Y180905D01*
X-143799Y180641D01*
X-143703Y180377D01*
X-143608Y180123D01*
X-143524Y179890D01*
X-143450Y179679D01*
X-143386Y179489D01*
X-143334Y179309D01*
X-143291Y179161D01*
X-143249Y179045D01*
X-143228Y178961D01*
X-143217Y178908D01*
X-143207Y178887D01*
X-143133Y178591D01*
X-143059Y178306D01*
X-143006Y178031D01*
X-142953Y177767D01*
X-142911Y177524D01*
X-142879Y177291D01*
X-142848Y177090D01*
X-142826Y176890D01*
X-142805Y176721D01*
X-142795Y176562D01*
X-142784Y176435D01*
X-142774Y176319D01*
X-142763Y176234D01*
Y176171D01*
Y176129D01*
Y176118D01*
X-143989D01*
X-144031Y176647D01*
X-144063Y176900D01*
X-144105Y177143D01*
X-144137Y177376D01*
X-144179Y177598D01*
X-144211Y177809D01*
X-144253Y177999D01*
X-144285Y178168D01*
X-144327Y178327D01*
X-144359Y178464D01*
X-144390Y178580D01*
X-144411Y178665D01*
X-144433Y178739D01*
X-144443Y178781D01*
Y178792D01*
X-144644Y179436D01*
X-144760Y179753D01*
X-144876Y180060D01*
X-144993Y180345D01*
X-145109Y180630D01*
X-145225Y180894D01*
X-145331Y181137D01*
X-145436Y181359D01*
X-145532Y181560D01*
X-145627Y181740D01*
X-145701Y181888D01*
X-145764Y182014D01*
X-145806Y182099D01*
X-145838Y182152D01*
X-145849Y182173D01*
X-146018Y182469D01*
X-146197Y182754D01*
X-146366Y183029D01*
X-146525Y183272D01*
X-146683Y183504D01*
X-146842Y183726D01*
X-146990Y183927D01*
X-147127Y184107D01*
X-147254Y184265D01*
X-147360Y184402D01*
X-147465Y184519D01*
X-147550Y184624D01*
X-147613Y184698D01*
X-147666Y184762D01*
X-147698Y184793D01*
X-147708Y184804D01*
Y185744D01*
X-141400D01*
Y184593D01*
D02*
G37*
G36*
X-135726Y186030D02*
X-135388Y185987D01*
X-135092Y185935D01*
X-134955Y185903D01*
X-134828Y185871D01*
X-134712Y185839D01*
X-134606Y185808D01*
X-134511Y185776D01*
X-134437Y185755D01*
X-134384Y185734D01*
X-134331Y185713D01*
X-134310Y185702D01*
X-134299D01*
X-134014Y185565D01*
X-133771Y185406D01*
X-133560Y185248D01*
X-133391Y185089D01*
X-133253Y184941D01*
X-133148Y184825D01*
X-133116Y184783D01*
X-133095Y184751D01*
X-133074Y184730D01*
Y184719D01*
X-132936Y184476D01*
X-132831Y184233D01*
X-132767Y184011D01*
X-132715Y183800D01*
X-132683Y183610D01*
X-132672Y183536D01*
Y183472D01*
X-132662Y183420D01*
Y183377D01*
Y183356D01*
Y183346D01*
X-132672Y183103D01*
X-132715Y182870D01*
X-132767Y182659D01*
X-132831Y182479D01*
X-132894Y182331D01*
X-132947Y182215D01*
X-132968Y182173D01*
X-132989Y182141D01*
X-133000Y182131D01*
Y182120D01*
X-133137Y181930D01*
X-133306Y181750D01*
X-133475Y181602D01*
X-133655Y181465D01*
X-133803Y181359D01*
X-133930Y181285D01*
X-133982Y181264D01*
X-134014Y181243D01*
X-134035Y181222D01*
X-134046D01*
X-134151Y181169D01*
X-134278Y181116D01*
X-134416Y181063D01*
X-134564Y181011D01*
X-134870Y180905D01*
X-135187Y180810D01*
X-135335Y180767D01*
X-135462Y180725D01*
X-135589Y180694D01*
X-135705Y180662D01*
X-135789Y180641D01*
X-135863Y180620D01*
X-135906Y180609D01*
X-135916D01*
X-136159Y180556D01*
X-136381Y180493D01*
X-136571Y180450D01*
X-136751Y180398D01*
X-136909Y180355D01*
X-137057Y180324D01*
X-137174Y180282D01*
X-137290Y180250D01*
X-137374Y180229D01*
X-137459Y180197D01*
X-137522Y180176D01*
X-137564Y180165D01*
X-137607Y180155D01*
X-137628Y180144D01*
X-137649Y180133D01*
X-137860Y180039D01*
X-138040Y179943D01*
X-138198Y179848D01*
X-138315Y179764D01*
X-138410Y179679D01*
X-138473Y179616D01*
X-138515Y179573D01*
X-138526Y179563D01*
X-138621Y179436D01*
X-138685Y179299D01*
X-138737Y179161D01*
X-138769Y179035D01*
X-138790Y178929D01*
X-138801Y178834D01*
Y178781D01*
Y178771D01*
Y178760D01*
X-138790Y178601D01*
X-138758Y178443D01*
X-138706Y178306D01*
X-138663Y178179D01*
X-138610Y178073D01*
X-138558Y177989D01*
X-138526Y177946D01*
X-138515Y177925D01*
X-138399Y177788D01*
X-138272Y177672D01*
X-138125Y177566D01*
X-137987Y177481D01*
X-137860Y177418D01*
X-137765Y177365D01*
X-137723Y177344D01*
X-137691Y177334D01*
X-137681Y177323D01*
X-137670D01*
X-137459Y177249D01*
X-137237Y177196D01*
X-137015Y177164D01*
X-136814Y177143D01*
X-136645Y177122D01*
X-136571D01*
X-136508Y177112D01*
X-136381D01*
X-136075Y177122D01*
X-135800Y177154D01*
X-135536Y177207D01*
X-135314Y177260D01*
X-135219Y177281D01*
X-135134Y177302D01*
X-135060Y177334D01*
X-134997Y177355D01*
X-134944Y177376D01*
X-134912Y177386D01*
X-134891Y177397D01*
X-134881D01*
X-134648Y177513D01*
X-134447Y177640D01*
X-134278Y177756D01*
X-134141Y177883D01*
X-134035Y177989D01*
X-133961Y178073D01*
X-133909Y178126D01*
X-133898Y178147D01*
X-133792Y178337D01*
X-133708Y178538D01*
X-133644Y178739D01*
X-133591Y178929D01*
X-133549Y179109D01*
X-133539Y179172D01*
X-133528Y179235D01*
X-133518Y179288D01*
X-133507Y179331D01*
Y179352D01*
Y179362D01*
X-132292Y179256D01*
X-132302Y179077D01*
X-132324Y178897D01*
X-132387Y178570D01*
X-132471Y178263D01*
X-132514Y178126D01*
X-132566Y178010D01*
X-132609Y177894D01*
X-132662Y177788D01*
X-132704Y177703D01*
X-132746Y177629D01*
X-132778Y177566D01*
X-132799Y177524D01*
X-132810Y177502D01*
X-132820Y177492D01*
X-133021Y177217D01*
X-133253Y176985D01*
X-133486Y176784D01*
X-133708Y176625D01*
X-133909Y176499D01*
X-133993Y176456D01*
X-134067Y176414D01*
X-134130Y176383D01*
X-134173Y176361D01*
X-134204Y176340D01*
X-134215D01*
X-134574Y176213D01*
X-134944Y176118D01*
X-135314Y176055D01*
X-135662Y176013D01*
X-135832Y175991D01*
X-135979Y175981D01*
X-136106Y175970D01*
X-136222D01*
X-136318Y175960D01*
X-136444D01*
X-136825Y175981D01*
X-137174Y176023D01*
X-137491Y176076D01*
X-137638Y176118D01*
X-137765Y176150D01*
X-137892Y176182D01*
X-137998Y176224D01*
X-138093Y176256D01*
X-138167Y176277D01*
X-138230Y176308D01*
X-138272Y176319D01*
X-138304Y176340D01*
X-138315D01*
X-138610Y176499D01*
X-138864Y176668D01*
X-139086Y176847D01*
X-139266Y177017D01*
X-139414Y177175D01*
X-139509Y177291D01*
X-139551Y177344D01*
X-139572Y177376D01*
X-139593Y177397D01*
Y177407D01*
X-139678Y177534D01*
X-139741Y177672D01*
X-139857Y177925D01*
X-139942Y178168D01*
X-139995Y178390D01*
X-140026Y178591D01*
X-140037Y178665D01*
Y178739D01*
X-140048Y178792D01*
Y178834D01*
Y178855D01*
Y178866D01*
X-140026Y179151D01*
X-139984Y179415D01*
X-139921Y179648D01*
X-139847Y179848D01*
X-139762Y180017D01*
X-139731Y180091D01*
X-139699Y180144D01*
X-139678Y180186D01*
X-139657Y180218D01*
X-139635Y180239D01*
Y180250D01*
X-139551Y180355D01*
X-139466Y180461D01*
X-139266Y180662D01*
X-139065Y180831D01*
X-138854Y180968D01*
X-138674Y181084D01*
X-138589Y181137D01*
X-138515Y181169D01*
X-138463Y181201D01*
X-138420Y181222D01*
X-138389Y181243D01*
X-138378D01*
X-138262Y181296D01*
X-138114Y181349D01*
X-137966Y181402D01*
X-137797Y181454D01*
X-137438Y181549D01*
X-137078Y181644D01*
X-136909Y181697D01*
X-136751Y181729D01*
X-136603Y181771D01*
X-136476Y181793D01*
X-136370Y181824D01*
X-136297Y181845D01*
X-136244Y181856D01*
X-136222D01*
X-135937Y181919D01*
X-135684Y181993D01*
X-135462Y182057D01*
X-135250Y182120D01*
X-135071Y182183D01*
X-134912Y182236D01*
X-134775Y182289D01*
X-134659Y182342D01*
X-134564Y182395D01*
X-134479Y182437D01*
X-134416Y182469D01*
X-134363Y182500D01*
X-134321Y182532D01*
X-134299Y182553D01*
X-134278Y182564D01*
X-134151Y182701D01*
X-134067Y182838D01*
X-134004Y182987D01*
X-133951Y183124D01*
X-133930Y183240D01*
X-133919Y183335D01*
X-133909Y183399D01*
Y183409D01*
Y183420D01*
X-133919Y183536D01*
X-133930Y183642D01*
X-133993Y183832D01*
X-134078Y184011D01*
X-134173Y184159D01*
X-134268Y184286D01*
X-134352Y184381D01*
X-134416Y184434D01*
X-134426Y184455D01*
X-134437D01*
X-134543Y184529D01*
X-134669Y184603D01*
X-134933Y184709D01*
X-135208Y184783D01*
X-135493Y184836D01*
X-135620Y184857D01*
X-135747Y184867D01*
X-135853Y184878D01*
X-135948D01*
X-136032Y184888D01*
X-136339D01*
X-136529Y184867D01*
X-136709Y184846D01*
X-136878Y184814D01*
X-137026Y184783D01*
X-137163Y184741D01*
X-137290Y184698D01*
X-137406Y184656D01*
X-137501Y184603D01*
X-137586Y184561D01*
X-137660Y184519D01*
X-137723Y184487D01*
X-137765Y184455D01*
X-137808Y184434D01*
X-137818Y184424D01*
X-137829Y184413D01*
X-137934Y184318D01*
X-138029Y184223D01*
X-138177Y184001D01*
X-138304Y183768D01*
X-138389Y183547D01*
X-138452Y183346D01*
X-138473Y183261D01*
X-138494Y183177D01*
X-138505Y183113D01*
Y183071D01*
X-138515Y183039D01*
Y183029D01*
X-139752Y183124D01*
X-139720Y183441D01*
X-139657Y183726D01*
X-139583Y183990D01*
X-139498Y184212D01*
X-139445Y184307D01*
X-139414Y184402D01*
X-139371Y184476D01*
X-139340Y184540D01*
X-139308Y184593D01*
X-139287Y184624D01*
X-139276Y184645D01*
X-139266Y184656D01*
X-139086Y184899D01*
X-138885Y185100D01*
X-138674Y185279D01*
X-138463Y185427D01*
X-138283Y185533D01*
X-138198Y185575D01*
X-138135Y185618D01*
X-138082Y185649D01*
X-138029Y185660D01*
X-138008Y185681D01*
X-137998D01*
X-137681Y185797D01*
X-137353Y185892D01*
X-137026Y185956D01*
X-136730Y185998D01*
X-136592Y186008D01*
X-136476Y186019D01*
X-136360Y186030D01*
X-136265Y186040D01*
X-136085D01*
X-135726Y186030D01*
D02*
G37*
G36*
X-32058Y-99635D02*
X-31900Y-99867D01*
X-31720Y-100089D01*
X-31541Y-100279D01*
X-31382Y-100459D01*
X-31308Y-100522D01*
X-31255Y-100585D01*
X-31203Y-100638D01*
X-31160Y-100670D01*
X-31139Y-100691D01*
X-31129Y-100702D01*
X-30843Y-100945D01*
X-30537Y-101156D01*
X-30241Y-101357D01*
X-29966Y-101526D01*
X-29850Y-101589D01*
X-29734Y-101653D01*
X-29628Y-101716D01*
X-29544Y-101758D01*
X-29470Y-101790D01*
X-29417Y-101822D01*
X-29385Y-101832D01*
X-29375Y-101843D01*
Y-102995D01*
X-29586Y-102910D01*
X-29808Y-102815D01*
X-30019Y-102709D01*
X-30209Y-102614D01*
X-30378Y-102519D01*
X-30452Y-102487D01*
X-30516Y-102445D01*
X-30569Y-102424D01*
X-30600Y-102403D01*
X-30621Y-102382D01*
X-30632D01*
X-30886Y-102223D01*
X-31107Y-102075D01*
X-31308Y-101938D01*
X-31467Y-101811D01*
X-31604Y-101706D01*
X-31699Y-101632D01*
X-31752Y-101579D01*
X-31773Y-101558D01*
Y-109176D01*
X-32967D01*
Y-99391D01*
X-32196D01*
X-32058Y-99635D01*
D02*
G37*
G36*
X-2388Y-109176D02*
X-8485D01*
Y-108024D01*
X-3677D01*
Y-99423D01*
X-2388D01*
Y-109176D01*
D02*
G37*
G36*
X-10049D02*
X-17329D01*
Y-108024D01*
X-11338D01*
Y-104706D01*
X-16737D01*
Y-103555D01*
X-11338D01*
Y-100575D01*
X-17107D01*
Y-99423D01*
X-10049D01*
Y-109176D01*
D02*
G37*
G36*
X-19104D02*
X-22623D01*
X-22940Y-109165D01*
X-23235Y-109155D01*
X-23500Y-109123D01*
X-23732Y-109092D01*
X-23827Y-109081D01*
X-23912Y-109070D01*
X-23996Y-109049D01*
X-24060Y-109039D01*
X-24113Y-109028D01*
X-24144D01*
X-24165Y-109017D01*
X-24176D01*
X-24419Y-108944D01*
X-24651Y-108870D01*
X-24852Y-108785D01*
X-25021Y-108711D01*
X-25159Y-108637D01*
X-25264Y-108584D01*
X-25328Y-108542D01*
X-25338Y-108531D01*
X-25349D01*
X-25528Y-108394D01*
X-25698Y-108257D01*
X-25845Y-108109D01*
X-25972Y-107961D01*
X-26088Y-107834D01*
X-26162Y-107739D01*
X-26194Y-107697D01*
X-26215Y-107665D01*
X-26236Y-107654D01*
Y-107644D01*
X-26384Y-107422D01*
X-26511Y-107190D01*
X-26627Y-106946D01*
X-26722Y-106725D01*
X-26796Y-106524D01*
X-26828Y-106439D01*
X-26860Y-106365D01*
X-26870Y-106313D01*
X-26892Y-106270D01*
X-26902Y-106238D01*
Y-106228D01*
X-26987Y-105890D01*
X-27050Y-105552D01*
X-27103Y-105224D01*
X-27134Y-104918D01*
X-27145Y-104780D01*
X-27156Y-104654D01*
Y-104537D01*
X-27166Y-104442D01*
Y-104358D01*
Y-104305D01*
Y-104263D01*
Y-104252D01*
X-27145Y-103777D01*
X-27134Y-103555D01*
X-27103Y-103343D01*
X-27071Y-103143D01*
X-27039Y-102952D01*
X-27008Y-102773D01*
X-26976Y-102604D01*
X-26934Y-102456D01*
X-26902Y-102329D01*
X-26870Y-102213D01*
X-26839Y-102118D01*
X-26807Y-102044D01*
X-26796Y-101980D01*
X-26775Y-101949D01*
Y-101938D01*
X-26617Y-101579D01*
X-26437Y-101251D01*
X-26342Y-101103D01*
X-26247Y-100966D01*
X-26152Y-100839D01*
X-26057Y-100723D01*
X-25972Y-100617D01*
X-25888Y-100533D01*
X-25814Y-100448D01*
X-25750Y-100385D01*
X-25698Y-100332D01*
X-25655Y-100300D01*
X-25634Y-100279D01*
X-25624Y-100268D01*
X-25391Y-100089D01*
X-25148Y-99941D01*
X-24916Y-99825D01*
X-24694Y-99730D01*
X-24493Y-99656D01*
X-24408Y-99635D01*
X-24334Y-99613D01*
X-24282Y-99592D01*
X-24239Y-99582D01*
X-24208Y-99571D01*
X-24197D01*
X-24081Y-99550D01*
X-23954Y-99518D01*
X-23669Y-99487D01*
X-23383Y-99455D01*
X-23098Y-99444D01*
X-22971Y-99434D01*
X-22845D01*
X-22739Y-99423D01*
X-19104D01*
Y-109176D01*
D02*
G37*
G36*
X134842Y-104102D02*
X135043Y-104124D01*
X135233Y-104155D01*
X135423Y-104198D01*
X135592Y-104250D01*
X135751Y-104303D01*
X135899Y-104367D01*
X136026Y-104419D01*
X136152Y-104483D01*
X136258Y-104546D01*
X136343Y-104599D01*
X136427Y-104652D01*
X136480Y-104694D01*
X136533Y-104726D01*
X136554Y-104747D01*
X136564Y-104758D01*
X136702Y-104884D01*
X136829Y-105032D01*
X136945Y-105180D01*
X137051Y-105328D01*
X137146Y-105487D01*
X137220Y-105635D01*
X137357Y-105941D01*
X137410Y-106078D01*
X137452Y-106205D01*
X137484Y-106321D01*
X137515Y-106417D01*
X137537Y-106501D01*
X137547Y-106565D01*
X137558Y-106607D01*
Y-106617D01*
X136364Y-106829D01*
X136300Y-106522D01*
X136216Y-106258D01*
X136121Y-106026D01*
X136015Y-105846D01*
X135931Y-105698D01*
X135846Y-105603D01*
X135793Y-105540D01*
X135772Y-105518D01*
X135582Y-105371D01*
X135392Y-105265D01*
X135191Y-105180D01*
X135011Y-105127D01*
X134842Y-105096D01*
X134779Y-105085D01*
X134715D01*
X134663Y-105075D01*
X134599D01*
X134346Y-105096D01*
X134124Y-105138D01*
X133923Y-105212D01*
X133754Y-105286D01*
X133627Y-105371D01*
X133532Y-105444D01*
X133469Y-105487D01*
X133447Y-105508D01*
X133363Y-105592D01*
X133299Y-105677D01*
X133183Y-105867D01*
X133099Y-106047D01*
X133046Y-106216D01*
X133014Y-106374D01*
X133004Y-106490D01*
X132993Y-106543D01*
Y-106575D01*
Y-106596D01*
Y-106607D01*
X133004Y-106755D01*
X133025Y-106892D01*
X133046Y-107029D01*
X133088Y-107146D01*
X133194Y-107357D01*
X133299Y-107526D01*
X133416Y-107663D01*
X133521Y-107759D01*
X133564Y-107790D01*
X133585Y-107811D01*
X133606Y-107832D01*
X133616D01*
X133849Y-107970D01*
X134092Y-108065D01*
X134324Y-108139D01*
X134536Y-108181D01*
X134715Y-108213D01*
X134789Y-108223D01*
X134863D01*
X134916Y-108234D01*
X135054D01*
X135117Y-108223D01*
X135170Y-108213D01*
X135191D01*
X135318Y-109259D01*
X135138Y-109217D01*
X134969Y-109185D01*
X134832Y-109164D01*
X134705Y-109143D01*
X134610D01*
X134536Y-109132D01*
X134472D01*
X134324Y-109143D01*
X134176Y-109153D01*
X133912Y-109217D01*
X133680Y-109301D01*
X133479Y-109396D01*
X133321Y-109502D01*
X133257Y-109544D01*
X133204Y-109586D01*
X133162Y-109618D01*
X133130Y-109650D01*
X133120Y-109660D01*
X133109Y-109671D01*
X133014Y-109777D01*
X132930Y-109882D01*
X132856Y-109988D01*
X132792Y-110104D01*
X132697Y-110326D01*
X132623Y-110548D01*
X132591Y-110738D01*
X132581Y-110812D01*
X132570Y-110886D01*
X132560Y-110939D01*
Y-110992D01*
Y-111013D01*
Y-111024D01*
X132570Y-111182D01*
X132581Y-111330D01*
X132655Y-111615D01*
X132739Y-111858D01*
X132845Y-112070D01*
X132908Y-112165D01*
X132961Y-112239D01*
X133004Y-112313D01*
X133046Y-112365D01*
X133088Y-112408D01*
X133120Y-112439D01*
X133130Y-112460D01*
X133141Y-112471D01*
X133257Y-112577D01*
X133373Y-112661D01*
X133490Y-112735D01*
X133606Y-112809D01*
X133849Y-112915D01*
X134081Y-112978D01*
X134271Y-113020D01*
X134367Y-113031D01*
X134430Y-113042D01*
X134493Y-113052D01*
X134578D01*
X134832Y-113031D01*
X135075Y-112978D01*
X135275Y-112915D01*
X135455Y-112830D01*
X135603Y-112746D01*
X135709Y-112682D01*
X135740Y-112651D01*
X135772Y-112630D01*
X135782Y-112608D01*
X135793D01*
X135878Y-112513D01*
X135962Y-112418D01*
X136110Y-112196D01*
X136226Y-111953D01*
X136321Y-111710D01*
X136395Y-111488D01*
X136417Y-111393D01*
X136438Y-111309D01*
X136459Y-111235D01*
X136469Y-111182D01*
X136480Y-111150D01*
Y-111140D01*
X137674Y-111298D01*
X137642Y-111520D01*
X137600Y-111731D01*
X137537Y-111932D01*
X137473Y-112122D01*
X137399Y-112302D01*
X137315Y-112460D01*
X137230Y-112619D01*
X137146Y-112746D01*
X137061Y-112873D01*
X136987Y-112978D01*
X136913Y-113073D01*
X136850Y-113147D01*
X136786Y-113211D01*
X136744Y-113253D01*
X136723Y-113274D01*
X136712Y-113285D01*
X136554Y-113422D01*
X136374Y-113538D01*
X136205Y-113633D01*
X136026Y-113729D01*
X135846Y-113802D01*
X135666Y-113855D01*
X135497Y-113908D01*
X135328Y-113950D01*
X135170Y-113982D01*
X135032Y-114003D01*
X134906Y-114024D01*
X134789Y-114035D01*
X134705D01*
X134631Y-114045D01*
X134578D01*
X134314Y-114035D01*
X134071Y-114003D01*
X133838Y-113961D01*
X133616Y-113908D01*
X133405Y-113845D01*
X133215Y-113771D01*
X133035Y-113686D01*
X132877Y-113602D01*
X132729Y-113528D01*
X132602Y-113443D01*
X132486Y-113369D01*
X132401Y-113306D01*
X132327Y-113253D01*
X132275Y-113211D01*
X132243Y-113179D01*
X132232Y-113168D01*
X132063Y-112999D01*
X131926Y-112820D01*
X131799Y-112640D01*
X131693Y-112450D01*
X131598Y-112270D01*
X131524Y-112091D01*
X131461Y-111922D01*
X131408Y-111753D01*
X131366Y-111594D01*
X131345Y-111457D01*
X131323Y-111330D01*
X131302Y-111214D01*
Y-111129D01*
X131292Y-111055D01*
Y-111013D01*
Y-111002D01*
Y-110833D01*
X131313Y-110664D01*
X131366Y-110358D01*
X131450Y-110094D01*
X131493Y-109977D01*
X131535Y-109872D01*
X131577Y-109766D01*
X131619Y-109682D01*
X131662Y-109608D01*
X131704Y-109555D01*
X131736Y-109502D01*
X131757Y-109470D01*
X131767Y-109449D01*
X131778Y-109438D01*
X131968Y-109217D01*
X132190Y-109037D01*
X132412Y-108900D01*
X132623Y-108783D01*
X132824Y-108699D01*
X132908Y-108667D01*
X132972Y-108646D01*
X133035Y-108625D01*
X133077Y-108614D01*
X133109Y-108604D01*
X133120D01*
X132887Y-108477D01*
X132687Y-108350D01*
X132507Y-108213D01*
X132370Y-108076D01*
X132253Y-107959D01*
X132179Y-107864D01*
X132127Y-107801D01*
X132116Y-107790D01*
Y-107780D01*
X132000Y-107579D01*
X131915Y-107378D01*
X131852Y-107188D01*
X131810Y-107008D01*
X131788Y-106860D01*
X131767Y-106734D01*
Y-106691D01*
Y-106660D01*
Y-106638D01*
Y-106628D01*
X131778Y-106385D01*
X131820Y-106152D01*
X131883Y-105941D01*
X131947Y-105751D01*
X132010Y-105592D01*
X132042Y-105529D01*
X132074Y-105476D01*
X132095Y-105434D01*
X132116Y-105392D01*
X132127Y-105381D01*
Y-105371D01*
X132275Y-105159D01*
X132444Y-104979D01*
X132613Y-104821D01*
X132782Y-104684D01*
X132930Y-104578D01*
X133046Y-104504D01*
X133099Y-104472D01*
X133130Y-104451D01*
X133152Y-104441D01*
X133162D01*
X133416Y-104324D01*
X133669Y-104240D01*
X133923Y-104176D01*
X134145Y-104134D01*
X134346Y-104113D01*
X134419Y-104102D01*
X134493Y-104092D01*
X134631D01*
X134842Y-104102D01*
D02*
G37*
G36*
X143274Y-103965D02*
X143612Y-104007D01*
X143908Y-104060D01*
X144045Y-104092D01*
X144172Y-104124D01*
X144289Y-104155D01*
X144394Y-104187D01*
X144489Y-104219D01*
X144563Y-104240D01*
X144616Y-104261D01*
X144669Y-104282D01*
X144690Y-104293D01*
X144701D01*
X144986Y-104430D01*
X145229Y-104588D01*
X145440Y-104747D01*
X145609Y-104906D01*
X145747Y-105054D01*
X145852Y-105170D01*
X145884Y-105212D01*
X145905Y-105244D01*
X145926Y-105265D01*
Y-105275D01*
X146064Y-105518D01*
X146169Y-105761D01*
X146233Y-105983D01*
X146285Y-106195D01*
X146317Y-106385D01*
X146328Y-106459D01*
Y-106522D01*
X146338Y-106575D01*
Y-106617D01*
Y-106638D01*
Y-106649D01*
X146328Y-106892D01*
X146285Y-107125D01*
X146233Y-107336D01*
X146169Y-107515D01*
X146106Y-107663D01*
X146053Y-107780D01*
X146032Y-107822D01*
X146011Y-107854D01*
X146000Y-107864D01*
Y-107875D01*
X145863Y-108065D01*
X145694Y-108244D01*
X145525Y-108392D01*
X145345Y-108530D01*
X145197Y-108636D01*
X145070Y-108709D01*
X145018Y-108731D01*
X144986Y-108752D01*
X144965Y-108773D01*
X144954D01*
X144848Y-108826D01*
X144722Y-108878D01*
X144584Y-108931D01*
X144436Y-108984D01*
X144130Y-109090D01*
X143813Y-109185D01*
X143665Y-109227D01*
X143538Y-109270D01*
X143412Y-109301D01*
X143295Y-109333D01*
X143211Y-109354D01*
X143137Y-109375D01*
X143095Y-109386D01*
X143084D01*
X142841Y-109438D01*
X142619Y-109502D01*
X142429Y-109544D01*
X142249Y-109597D01*
X142091Y-109639D01*
X141943Y-109671D01*
X141826Y-109713D01*
X141710Y-109745D01*
X141626Y-109766D01*
X141541Y-109798D01*
X141478Y-109819D01*
X141436Y-109830D01*
X141393Y-109840D01*
X141372Y-109851D01*
X141351Y-109861D01*
X141140Y-109956D01*
X140960Y-110051D01*
X140802Y-110147D01*
X140685Y-110231D01*
X140590Y-110316D01*
X140527Y-110379D01*
X140485Y-110421D01*
X140474Y-110432D01*
X140379Y-110559D01*
X140316Y-110696D01*
X140263Y-110833D01*
X140231Y-110960D01*
X140210Y-111066D01*
X140199Y-111161D01*
Y-111214D01*
Y-111224D01*
Y-111235D01*
X140210Y-111393D01*
X140242Y-111552D01*
X140294Y-111689D01*
X140337Y-111816D01*
X140389Y-111922D01*
X140442Y-112006D01*
X140474Y-112048D01*
X140485Y-112070D01*
X140601Y-112207D01*
X140728Y-112323D01*
X140876Y-112429D01*
X141013Y-112513D01*
X141140Y-112577D01*
X141235Y-112630D01*
X141277Y-112651D01*
X141309Y-112661D01*
X141319Y-112672D01*
X141330D01*
X141541Y-112746D01*
X141763Y-112799D01*
X141985Y-112830D01*
X142186Y-112851D01*
X142355Y-112873D01*
X142429D01*
X142492Y-112883D01*
X142619D01*
X142925Y-112873D01*
X143200Y-112841D01*
X143464Y-112788D01*
X143686Y-112735D01*
X143781Y-112714D01*
X143866Y-112693D01*
X143940Y-112661D01*
X144003Y-112640D01*
X144056Y-112619D01*
X144088Y-112608D01*
X144109Y-112598D01*
X144119D01*
X144352Y-112482D01*
X144553Y-112355D01*
X144722Y-112239D01*
X144859Y-112112D01*
X144965Y-112006D01*
X145039Y-111922D01*
X145091Y-111869D01*
X145102Y-111848D01*
X145208Y-111657D01*
X145292Y-111457D01*
X145356Y-111256D01*
X145408Y-111066D01*
X145451Y-110886D01*
X145461Y-110823D01*
X145472Y-110759D01*
X145483Y-110707D01*
X145493Y-110664D01*
Y-110643D01*
Y-110632D01*
X146708Y-110738D01*
X146698Y-110918D01*
X146677Y-111097D01*
X146613Y-111425D01*
X146529Y-111731D01*
X146486Y-111869D01*
X146433Y-111985D01*
X146391Y-112101D01*
X146338Y-112207D01*
X146296Y-112291D01*
X146254Y-112365D01*
X146222Y-112429D01*
X146201Y-112471D01*
X146190Y-112492D01*
X146180Y-112503D01*
X145979Y-112778D01*
X145747Y-113010D01*
X145514Y-113211D01*
X145292Y-113369D01*
X145091Y-113496D01*
X145007Y-113538D01*
X144933Y-113581D01*
X144870Y-113612D01*
X144827Y-113633D01*
X144796Y-113654D01*
X144785D01*
X144426Y-113781D01*
X144056Y-113876D01*
X143686Y-113940D01*
X143337Y-113982D01*
X143168Y-114003D01*
X143020Y-114014D01*
X142894Y-114024D01*
X142778D01*
X142682Y-114035D01*
X142556D01*
X142175Y-114014D01*
X141826Y-113972D01*
X141510Y-113919D01*
X141362Y-113876D01*
X141235Y-113845D01*
X141108Y-113813D01*
X141002Y-113771D01*
X140907Y-113739D01*
X140833Y-113718D01*
X140770Y-113686D01*
X140728Y-113676D01*
X140696Y-113654D01*
X140685D01*
X140389Y-113496D01*
X140136Y-113327D01*
X139914Y-113147D01*
X139734Y-112978D01*
X139586Y-112820D01*
X139491Y-112704D01*
X139449Y-112651D01*
X139428Y-112619D01*
X139407Y-112598D01*
Y-112587D01*
X139322Y-112460D01*
X139259Y-112323D01*
X139143Y-112070D01*
X139058Y-111826D01*
X139005Y-111605D01*
X138974Y-111404D01*
X138963Y-111330D01*
Y-111256D01*
X138953Y-111203D01*
Y-111161D01*
Y-111140D01*
Y-111129D01*
X138974Y-110844D01*
X139016Y-110580D01*
X139079Y-110347D01*
X139153Y-110147D01*
X139238Y-109977D01*
X139269Y-109903D01*
X139301Y-109851D01*
X139322Y-109808D01*
X139343Y-109777D01*
X139365Y-109755D01*
Y-109745D01*
X139449Y-109639D01*
X139534Y-109534D01*
X139734Y-109333D01*
X139935Y-109164D01*
X140147Y-109026D01*
X140326Y-108910D01*
X140411Y-108857D01*
X140485Y-108826D01*
X140537Y-108794D01*
X140580Y-108773D01*
X140611Y-108752D01*
X140622D01*
X140738Y-108699D01*
X140886Y-108646D01*
X141034Y-108593D01*
X141203Y-108540D01*
X141562Y-108445D01*
X141922Y-108350D01*
X142091Y-108297D01*
X142249Y-108266D01*
X142397Y-108223D01*
X142524Y-108202D01*
X142630Y-108170D01*
X142704Y-108149D01*
X142756Y-108139D01*
X142778D01*
X143063Y-108076D01*
X143316Y-108001D01*
X143538Y-107938D01*
X143750Y-107875D01*
X143929Y-107811D01*
X144088Y-107759D01*
X144225Y-107706D01*
X144341Y-107653D01*
X144436Y-107600D01*
X144521Y-107558D01*
X144584Y-107526D01*
X144637Y-107494D01*
X144679Y-107463D01*
X144701Y-107442D01*
X144722Y-107431D01*
X144848Y-107294D01*
X144933Y-107156D01*
X144996Y-107008D01*
X145049Y-106871D01*
X145070Y-106755D01*
X145081Y-106660D01*
X145091Y-106596D01*
Y-106586D01*
Y-106575D01*
X145081Y-106459D01*
X145070Y-106353D01*
X145007Y-106163D01*
X144923Y-105983D01*
X144827Y-105835D01*
X144732Y-105709D01*
X144648Y-105613D01*
X144584Y-105561D01*
X144574Y-105540D01*
X144563D01*
X144458Y-105465D01*
X144331Y-105392D01*
X144067Y-105286D01*
X143792Y-105212D01*
X143507Y-105159D01*
X143380Y-105138D01*
X143253Y-105127D01*
X143147Y-105117D01*
X143052D01*
X142968Y-105106D01*
X142661D01*
X142471Y-105127D01*
X142291Y-105149D01*
X142122Y-105180D01*
X141974Y-105212D01*
X141837Y-105254D01*
X141710Y-105296D01*
X141594Y-105339D01*
X141499Y-105392D01*
X141414Y-105434D01*
X141341Y-105476D01*
X141277Y-105508D01*
X141235Y-105540D01*
X141193Y-105561D01*
X141182Y-105571D01*
X141171Y-105582D01*
X141066Y-105677D01*
X140971Y-105772D01*
X140823Y-105994D01*
X140696Y-106226D01*
X140611Y-106448D01*
X140548Y-106649D01*
X140527Y-106734D01*
X140506Y-106818D01*
X140495Y-106881D01*
Y-106924D01*
X140485Y-106955D01*
Y-106966D01*
X139248Y-106871D01*
X139280Y-106554D01*
X139343Y-106269D01*
X139417Y-106004D01*
X139502Y-105782D01*
X139555Y-105687D01*
X139586Y-105592D01*
X139629Y-105518D01*
X139660Y-105455D01*
X139692Y-105402D01*
X139713Y-105371D01*
X139724Y-105349D01*
X139734Y-105339D01*
X139914Y-105096D01*
X140115Y-104895D01*
X140326Y-104715D01*
X140537Y-104567D01*
X140717Y-104462D01*
X140802Y-104419D01*
X140865Y-104377D01*
X140918Y-104346D01*
X140971Y-104335D01*
X140992Y-104314D01*
X141002D01*
X141319Y-104198D01*
X141647Y-104102D01*
X141974Y-104039D01*
X142270Y-103997D01*
X142408Y-103986D01*
X142524Y-103976D01*
X142640Y-103965D01*
X142735Y-103955D01*
X142915D01*
X143274Y-103965D01*
D02*
G37*
G36*
X145285Y195030D02*
X145623Y194987D01*
X145919Y194935D01*
X146056Y194903D01*
X146183Y194871D01*
X146299Y194839D01*
X146405Y194808D01*
X146500Y194776D01*
X146574Y194755D01*
X146627Y194734D01*
X146679Y194713D01*
X146701Y194702D01*
X146711D01*
X146996Y194565D01*
X147240Y194406D01*
X147451Y194248D01*
X147620Y194089D01*
X147757Y193941D01*
X147863Y193825D01*
X147895Y193783D01*
X147916Y193751D01*
X147937Y193730D01*
Y193719D01*
X148074Y193476D01*
X148180Y193233D01*
X148243Y193011D01*
X148296Y192800D01*
X148328Y192610D01*
X148338Y192536D01*
Y192472D01*
X148349Y192420D01*
Y192377D01*
Y192356D01*
Y192346D01*
X148338Y192103D01*
X148296Y191870D01*
X148243Y191659D01*
X148180Y191479D01*
X148117Y191331D01*
X148064Y191215D01*
X148042Y191173D01*
X148021Y191141D01*
X148011Y191131D01*
Y191120D01*
X147873Y190930D01*
X147704Y190750D01*
X147535Y190602D01*
X147356Y190465D01*
X147208Y190359D01*
X147081Y190285D01*
X147028Y190264D01*
X146996Y190243D01*
X146975Y190222D01*
X146965D01*
X146859Y190169D01*
X146732Y190116D01*
X146595Y190063D01*
X146447Y190011D01*
X146141Y189905D01*
X145824Y189810D01*
X145676Y189767D01*
X145549Y189725D01*
X145422Y189694D01*
X145306Y189662D01*
X145221Y189641D01*
X145147Y189620D01*
X145105Y189609D01*
X145094D01*
X144852Y189556D01*
X144630Y189493D01*
X144439Y189450D01*
X144260Y189398D01*
X144101Y189356D01*
X143953Y189324D01*
X143837Y189282D01*
X143721Y189250D01*
X143636Y189229D01*
X143552Y189197D01*
X143488Y189176D01*
X143446Y189165D01*
X143404Y189155D01*
X143383Y189144D01*
X143362Y189134D01*
X143150Y189039D01*
X142971Y188943D01*
X142812Y188848D01*
X142696Y188764D01*
X142601Y188679D01*
X142537Y188616D01*
X142495Y188573D01*
X142485Y188563D01*
X142389Y188436D01*
X142326Y188299D01*
X142273Y188161D01*
X142241Y188035D01*
X142220Y187929D01*
X142210Y187834D01*
Y187781D01*
Y187771D01*
Y187760D01*
X142220Y187601D01*
X142252Y187443D01*
X142305Y187306D01*
X142347Y187179D01*
X142400Y187073D01*
X142453Y186989D01*
X142485Y186946D01*
X142495Y186925D01*
X142611Y186788D01*
X142738Y186672D01*
X142886Y186566D01*
X143024Y186481D01*
X143150Y186418D01*
X143245Y186365D01*
X143288Y186344D01*
X143319Y186334D01*
X143330Y186323D01*
X143341D01*
X143552Y186249D01*
X143774Y186196D01*
X143996Y186164D01*
X144196Y186143D01*
X144365Y186122D01*
X144439D01*
X144503Y186112D01*
X144630D01*
X144936Y186122D01*
X145211Y186154D01*
X145475Y186207D01*
X145697Y186259D01*
X145792Y186281D01*
X145876Y186302D01*
X145950Y186334D01*
X146014Y186355D01*
X146067Y186376D01*
X146098Y186386D01*
X146119Y186397D01*
X146130D01*
X146362Y186513D01*
X146563Y186640D01*
X146732Y186756D01*
X146870Y186883D01*
X146975Y186989D01*
X147049Y187073D01*
X147102Y187126D01*
X147113Y187147D01*
X147218Y187337D01*
X147303Y187538D01*
X147366Y187739D01*
X147419Y187929D01*
X147461Y188109D01*
X147472Y188172D01*
X147483Y188235D01*
X147493Y188288D01*
X147504Y188330D01*
Y188352D01*
Y188362D01*
X148719Y188256D01*
X148708Y188077D01*
X148687Y187897D01*
X148624Y187570D01*
X148539Y187263D01*
X148497Y187126D01*
X148444Y187010D01*
X148402Y186894D01*
X148349Y186788D01*
X148307Y186703D01*
X148264Y186629D01*
X148233Y186566D01*
X148212Y186524D01*
X148201Y186502D01*
X148190Y186492D01*
X147990Y186217D01*
X147757Y185985D01*
X147525Y185784D01*
X147303Y185625D01*
X147102Y185499D01*
X147018Y185456D01*
X146944Y185414D01*
X146880Y185382D01*
X146838Y185361D01*
X146806Y185340D01*
X146796D01*
X146436Y185213D01*
X146067Y185118D01*
X145697Y185055D01*
X145348Y185013D01*
X145179Y184991D01*
X145031Y184981D01*
X144904Y184970D01*
X144788D01*
X144693Y184960D01*
X144566D01*
X144186Y184981D01*
X143837Y185023D01*
X143520Y185076D01*
X143372Y185118D01*
X143245Y185150D01*
X143119Y185182D01*
X143013Y185224D01*
X142918Y185256D01*
X142844Y185277D01*
X142780Y185308D01*
X142738Y185319D01*
X142706Y185340D01*
X142696D01*
X142400Y185499D01*
X142147Y185668D01*
X141925Y185847D01*
X141745Y186017D01*
X141597Y186175D01*
X141502Y186291D01*
X141460Y186344D01*
X141439Y186376D01*
X141417Y186397D01*
Y186407D01*
X141333Y186534D01*
X141269Y186672D01*
X141153Y186925D01*
X141069Y187168D01*
X141016Y187390D01*
X140984Y187591D01*
X140974Y187665D01*
Y187739D01*
X140963Y187792D01*
Y187834D01*
Y187855D01*
Y187866D01*
X140984Y188151D01*
X141026Y188415D01*
X141090Y188647D01*
X141164Y188848D01*
X141248Y189017D01*
X141280Y189091D01*
X141312Y189144D01*
X141333Y189186D01*
X141354Y189218D01*
X141375Y189239D01*
Y189250D01*
X141460Y189356D01*
X141544Y189461D01*
X141745Y189662D01*
X141946Y189831D01*
X142157Y189968D01*
X142337Y190084D01*
X142421Y190137D01*
X142495Y190169D01*
X142548Y190201D01*
X142590Y190222D01*
X142622Y190243D01*
X142633D01*
X142749Y190296D01*
X142897Y190349D01*
X143045Y190401D01*
X143214Y190454D01*
X143573Y190550D01*
X143932Y190645D01*
X144101Y190697D01*
X144260Y190729D01*
X144408Y190771D01*
X144535Y190793D01*
X144640Y190824D01*
X144714Y190845D01*
X144767Y190856D01*
X144788D01*
X145073Y190919D01*
X145327Y190993D01*
X145549Y191057D01*
X145760Y191120D01*
X145940Y191183D01*
X146098Y191236D01*
X146236Y191289D01*
X146352Y191342D01*
X146447Y191395D01*
X146531Y191437D01*
X146595Y191469D01*
X146648Y191500D01*
X146690Y191532D01*
X146711Y191553D01*
X146732Y191564D01*
X146859Y191701D01*
X146944Y191839D01*
X147007Y191987D01*
X147060Y192124D01*
X147081Y192240D01*
X147092Y192335D01*
X147102Y192399D01*
Y192409D01*
Y192420D01*
X147092Y192536D01*
X147081Y192642D01*
X147018Y192832D01*
X146933Y193011D01*
X146838Y193159D01*
X146743Y193286D01*
X146658Y193381D01*
X146595Y193434D01*
X146584Y193455D01*
X146574D01*
X146468Y193529D01*
X146341Y193603D01*
X146077Y193709D01*
X145802Y193783D01*
X145517Y193836D01*
X145390Y193857D01*
X145264Y193867D01*
X145158Y193878D01*
X145063D01*
X144978Y193888D01*
X144672D01*
X144482Y193867D01*
X144302Y193846D01*
X144133Y193815D01*
X143985Y193783D01*
X143848Y193741D01*
X143721Y193698D01*
X143605Y193656D01*
X143510Y193603D01*
X143425Y193561D01*
X143351Y193519D01*
X143288Y193487D01*
X143245Y193455D01*
X143203Y193434D01*
X143193Y193424D01*
X143182Y193413D01*
X143076Y193318D01*
X142981Y193223D01*
X142833Y193001D01*
X142706Y192768D01*
X142622Y192547D01*
X142558Y192346D01*
X142537Y192261D01*
X142516Y192177D01*
X142506Y192113D01*
Y192071D01*
X142495Y192039D01*
Y192029D01*
X141259Y192124D01*
X141291Y192441D01*
X141354Y192726D01*
X141428Y192990D01*
X141512Y193212D01*
X141565Y193307D01*
X141597Y193402D01*
X141639Y193476D01*
X141671Y193540D01*
X141703Y193593D01*
X141724Y193624D01*
X141734Y193645D01*
X141745Y193656D01*
X141925Y193899D01*
X142125Y194100D01*
X142337Y194279D01*
X142548Y194427D01*
X142728Y194533D01*
X142812Y194575D01*
X142875Y194618D01*
X142928Y194649D01*
X142981Y194660D01*
X143002Y194681D01*
X143013D01*
X143330Y194797D01*
X143657Y194892D01*
X143985Y194956D01*
X144281Y194998D01*
X144418Y195009D01*
X144535Y195019D01*
X144651Y195030D01*
X144746Y195040D01*
X144925D01*
X145285Y195030D01*
D02*
G37*
G36*
X136758Y194892D02*
X136980Y194871D01*
X137180Y194839D01*
X137381Y194787D01*
X137561Y194734D01*
X137719Y194670D01*
X137878Y194607D01*
X138015Y194544D01*
X138142Y194470D01*
X138247Y194406D01*
X138343Y194343D01*
X138417Y194290D01*
X138480Y194237D01*
X138522Y194205D01*
X138543Y194184D01*
X138554Y194174D01*
X138691Y194036D01*
X138807Y193888D01*
X138903Y193741D01*
X138998Y193593D01*
X139072Y193434D01*
X139124Y193286D01*
X139177Y193149D01*
X139220Y193011D01*
X139251Y192874D01*
X139272Y192758D01*
X139293Y192652D01*
X139304Y192568D01*
Y192494D01*
X139315Y192430D01*
Y192399D01*
Y192388D01*
X139304Y192134D01*
X139262Y191902D01*
X139198Y191691D01*
X139135Y191511D01*
X139072Y191374D01*
X139008Y191268D01*
X138987Y191226D01*
X138966Y191194D01*
X138955Y191183D01*
Y191173D01*
X138807Y190993D01*
X138628Y190845D01*
X138448Y190708D01*
X138269Y190602D01*
X138110Y190518D01*
X138036Y190476D01*
X137973Y190454D01*
X137930Y190433D01*
X137888Y190412D01*
X137867Y190401D01*
X137857D01*
X138174Y190296D01*
X138448Y190169D01*
X138681Y190021D01*
X138871Y189873D01*
X138955Y189810D01*
X139029Y189736D01*
X139093Y189683D01*
X139135Y189630D01*
X139177Y189588D01*
X139209Y189556D01*
X139220Y189535D01*
X139230Y189524D01*
X139315Y189398D01*
X139389Y189271D01*
X139505Y189007D01*
X139589Y188743D01*
X139642Y188500D01*
X139663Y188383D01*
X139684Y188278D01*
X139695Y188183D01*
Y188098D01*
X139706Y188035D01*
Y187982D01*
Y187950D01*
Y187940D01*
X139695Y187707D01*
X139663Y187485D01*
X139621Y187263D01*
X139568Y187062D01*
X139505Y186883D01*
X139431Y186703D01*
X139346Y186545D01*
X139262Y186397D01*
X139188Y186259D01*
X139103Y186143D01*
X139029Y186048D01*
X138966Y185964D01*
X138913Y185890D01*
X138871Y185847D01*
X138839Y185816D01*
X138829Y185805D01*
X138659Y185657D01*
X138469Y185530D01*
X138279Y185414D01*
X138089Y185319D01*
X137888Y185235D01*
X137698Y185171D01*
X137508Y185108D01*
X137328Y185065D01*
X137159Y185034D01*
X137001Y185002D01*
X136853Y184981D01*
X136736Y184970D01*
X136631D01*
X136557Y184960D01*
X136493D01*
X136229Y184970D01*
X135976Y184991D01*
X135743Y185034D01*
X135521Y185097D01*
X135321Y185161D01*
X135130Y185224D01*
X134951Y185308D01*
X134792Y185382D01*
X134655Y185456D01*
X134528Y185541D01*
X134422Y185604D01*
X134327Y185678D01*
X134264Y185731D01*
X134211Y185773D01*
X134179Y185795D01*
X134169Y185805D01*
X134010Y185964D01*
X133873Y186143D01*
X133757Y186312D01*
X133651Y186492D01*
X133567Y186672D01*
X133493Y186841D01*
X133440Y187010D01*
X133387Y187179D01*
X133355Y187327D01*
X133323Y187464D01*
X133313Y187591D01*
X133292Y187696D01*
Y187792D01*
X133281Y187855D01*
Y187897D01*
Y187908D01*
Y188077D01*
X133302Y188235D01*
X133355Y188531D01*
X133429Y188795D01*
X133514Y189017D01*
X133567Y189112D01*
X133609Y189197D01*
X133651Y189271D01*
X133683Y189334D01*
X133715Y189387D01*
X133736Y189419D01*
X133746Y189440D01*
X133757Y189450D01*
X133947Y189683D01*
X134169Y189873D01*
X134391Y190042D01*
X134613Y190169D01*
X134813Y190275D01*
X134898Y190317D01*
X134972Y190349D01*
X135035Y190370D01*
X135077Y190391D01*
X135109Y190401D01*
X135120D01*
X134866Y190518D01*
X134644Y190634D01*
X134465Y190771D01*
X134306Y190888D01*
X134190Y191004D01*
X134105Y191088D01*
X134063Y191152D01*
X134042Y191162D01*
Y191173D01*
X133926Y191374D01*
X133831Y191574D01*
X133767Y191775D01*
X133725Y191955D01*
X133704Y192113D01*
X133693Y192187D01*
X133683Y192240D01*
Y192293D01*
Y192325D01*
Y192346D01*
Y192356D01*
X133693Y192547D01*
X133715Y192737D01*
X133757Y192916D01*
X133810Y193085D01*
X133862Y193244D01*
X133926Y193392D01*
X134000Y193529D01*
X134074Y193656D01*
X134148Y193762D01*
X134222Y193867D01*
X134285Y193952D01*
X134338Y194026D01*
X134391Y194079D01*
X134433Y194121D01*
X134454Y194142D01*
X134465Y194153D01*
X134613Y194290D01*
X134782Y194396D01*
X134940Y194501D01*
X135120Y194586D01*
X135289Y194660D01*
X135458Y194723D01*
X135627Y194765D01*
X135786Y194808D01*
X135944Y194839D01*
X136081Y194860D01*
X136208Y194882D01*
X136314Y194892D01*
X136398Y194903D01*
X136525D01*
X136758Y194892D01*
D02*
G37*
G36*
X135515Y44892D02*
X135779Y44850D01*
X136032Y44797D01*
X136265Y44723D01*
X136487Y44639D01*
X136687Y44543D01*
X136878Y44448D01*
X137047Y44343D01*
X137195Y44237D01*
X137321Y44142D01*
X137438Y44047D01*
X137522Y43962D01*
X137596Y43888D01*
X137649Y43836D01*
X137681Y43793D01*
X137691Y43783D01*
X137871Y43529D01*
X138040Y43244D01*
X138177Y42927D01*
X138294Y42599D01*
X138399Y42261D01*
X138484Y41923D01*
X138547Y41585D01*
X138610Y41247D01*
X138653Y40930D01*
X138685Y40634D01*
X138706Y40370D01*
X138716Y40137D01*
X138727Y40032D01*
Y39947D01*
X138737Y39863D01*
Y39799D01*
Y39746D01*
Y39704D01*
Y39683D01*
Y39672D01*
X138727Y39218D01*
X138695Y38795D01*
X138653Y38405D01*
X138589Y38045D01*
X138515Y37718D01*
X138441Y37422D01*
X138357Y37158D01*
X138262Y36925D01*
X138177Y36714D01*
X138093Y36534D01*
X138019Y36386D01*
X137945Y36270D01*
X137881Y36175D01*
X137839Y36112D01*
X137808Y36069D01*
X137797Y36059D01*
X137617Y35868D01*
X137416Y35700D01*
X137226Y35552D01*
X137015Y35425D01*
X136814Y35319D01*
X136614Y35224D01*
X136413Y35161D01*
X136222Y35097D01*
X136043Y35055D01*
X135884Y35023D01*
X135737Y34992D01*
X135610Y34981D01*
X135504Y34970D01*
X135420Y34960D01*
X135356D01*
X135039Y34981D01*
X134743Y35023D01*
X134468Y35087D01*
X134236Y35171D01*
X134141Y35203D01*
X134046Y35245D01*
X133972Y35277D01*
X133909Y35308D01*
X133856Y35330D01*
X133813Y35351D01*
X133792Y35372D01*
X133782D01*
X133539Y35541D01*
X133317Y35742D01*
X133127Y35942D01*
X132979Y36133D01*
X132852Y36312D01*
X132810Y36386D01*
X132767Y36450D01*
X132736Y36502D01*
X132715Y36545D01*
X132693Y36566D01*
Y36576D01*
X132556Y36883D01*
X132461Y37179D01*
X132387Y37464D01*
X132345Y37728D01*
X132324Y37845D01*
X132313Y37961D01*
X132302Y38056D01*
Y38130D01*
X132292Y38204D01*
Y38246D01*
Y38278D01*
Y38288D01*
X132302Y38542D01*
X132324Y38785D01*
X132366Y39017D01*
X132419Y39229D01*
X132493Y39429D01*
X132556Y39620D01*
X132640Y39789D01*
X132715Y39947D01*
X132788Y40085D01*
X132873Y40211D01*
X132936Y40317D01*
X133000Y40402D01*
X133063Y40476D01*
X133105Y40518D01*
X133127Y40549D01*
X133137Y40560D01*
X133296Y40718D01*
X133465Y40856D01*
X133634Y40972D01*
X133813Y41078D01*
X133982Y41162D01*
X134151Y41236D01*
X134321Y41289D01*
X134468Y41342D01*
X134616Y41374D01*
X134754Y41405D01*
X134870Y41416D01*
X134976Y41437D01*
X135060D01*
X135124Y41448D01*
X135176D01*
X135430Y41437D01*
X135673Y41395D01*
X135895Y41342D01*
X136096Y41289D01*
X136265Y41226D01*
X136328Y41194D01*
X136392Y41173D01*
X136434Y41152D01*
X136466Y41131D01*
X136487Y41120D01*
X136497D01*
X136719Y40983D01*
X136920Y40835D01*
X137100Y40676D01*
X137258Y40518D01*
X137374Y40370D01*
X137469Y40254D01*
X137501Y40211D01*
X137522Y40180D01*
X137543Y40159D01*
X137533Y40412D01*
X137522Y40666D01*
X137512Y40898D01*
X137491Y41109D01*
X137459Y41310D01*
X137427Y41500D01*
X137406Y41670D01*
X137374Y41817D01*
X137343Y41944D01*
X137311Y42060D01*
X137279Y42166D01*
X137258Y42240D01*
X137237Y42304D01*
X137216Y42356D01*
X137205Y42377D01*
Y42388D01*
X137068Y42663D01*
X136931Y42906D01*
X136783Y43117D01*
X136635Y43286D01*
X136508Y43424D01*
X136413Y43519D01*
X136370Y43550D01*
X136339Y43571D01*
X136328Y43593D01*
X136318D01*
X136149Y43698D01*
X135979Y43783D01*
X135810Y43836D01*
X135652Y43878D01*
X135515Y43899D01*
X135398Y43920D01*
X135303D01*
X135176Y43910D01*
X135050Y43899D01*
X134817Y43836D01*
X134606Y43762D01*
X134437Y43667D01*
X134289Y43571D01*
X134183Y43487D01*
X134151Y43455D01*
X134120Y43424D01*
X134109Y43413D01*
X134099Y43402D01*
X133993Y43265D01*
X133909Y43106D01*
X133824Y42937D01*
X133760Y42768D01*
X133708Y42621D01*
X133676Y42494D01*
X133665Y42441D01*
X133655Y42409D01*
X133644Y42388D01*
Y42377D01*
X132450Y42473D01*
X132482Y42684D01*
X132535Y42874D01*
X132588Y43054D01*
X132651Y43223D01*
X132725Y43381D01*
X132799Y43529D01*
X132873Y43667D01*
X132947Y43783D01*
X133021Y43888D01*
X133095Y43983D01*
X133158Y44068D01*
X133222Y44131D01*
X133264Y44184D01*
X133306Y44216D01*
X133327Y44237D01*
X133338Y44248D01*
X133486Y44364D01*
X133634Y44459D01*
X133782Y44554D01*
X133940Y44628D01*
X134109Y44692D01*
X134257Y44744D01*
X134564Y44818D01*
X134701Y44850D01*
X134828Y44871D01*
X134944Y44882D01*
X135039Y44892D01*
X135113Y44903D01*
X135229D01*
X135515Y44892D01*
D02*
G37*
G36*
X144274Y45030D02*
X144612Y44987D01*
X144908Y44935D01*
X145045Y44903D01*
X145172Y44871D01*
X145288Y44839D01*
X145394Y44808D01*
X145489Y44776D01*
X145563Y44755D01*
X145616Y44734D01*
X145669Y44713D01*
X145690Y44702D01*
X145701D01*
X145986Y44565D01*
X146229Y44406D01*
X146440Y44248D01*
X146609Y44089D01*
X146747Y43941D01*
X146852Y43825D01*
X146884Y43783D01*
X146905Y43751D01*
X146926Y43730D01*
Y43719D01*
X147064Y43476D01*
X147169Y43233D01*
X147233Y43011D01*
X147285Y42800D01*
X147317Y42610D01*
X147328Y42536D01*
Y42473D01*
X147338Y42420D01*
Y42377D01*
Y42356D01*
Y42346D01*
X147328Y42103D01*
X147285Y41870D01*
X147233Y41659D01*
X147169Y41479D01*
X147106Y41331D01*
X147053Y41215D01*
X147032Y41173D01*
X147011Y41141D01*
X147000Y41131D01*
Y41120D01*
X146863Y40930D01*
X146694Y40750D01*
X146525Y40602D01*
X146345Y40465D01*
X146197Y40359D01*
X146070Y40285D01*
X146018Y40264D01*
X145986Y40243D01*
X145965Y40222D01*
X145954D01*
X145849Y40169D01*
X145722Y40116D01*
X145584Y40063D01*
X145436Y40011D01*
X145130Y39905D01*
X144813Y39810D01*
X144665Y39767D01*
X144538Y39725D01*
X144411Y39694D01*
X144295Y39662D01*
X144211Y39641D01*
X144137Y39620D01*
X144094Y39609D01*
X144084D01*
X143841Y39556D01*
X143619Y39493D01*
X143429Y39451D01*
X143249Y39398D01*
X143091Y39355D01*
X142943Y39324D01*
X142826Y39281D01*
X142710Y39250D01*
X142626Y39229D01*
X142541Y39197D01*
X142478Y39176D01*
X142436Y39165D01*
X142393Y39155D01*
X142372Y39144D01*
X142351Y39134D01*
X142140Y39039D01*
X141960Y38943D01*
X141802Y38848D01*
X141685Y38764D01*
X141590Y38679D01*
X141527Y38616D01*
X141485Y38574D01*
X141474Y38563D01*
X141379Y38436D01*
X141315Y38299D01*
X141263Y38161D01*
X141231Y38035D01*
X141210Y37929D01*
X141199Y37834D01*
Y37781D01*
Y37771D01*
Y37760D01*
X141210Y37601D01*
X141242Y37443D01*
X141294Y37306D01*
X141337Y37179D01*
X141390Y37073D01*
X141442Y36989D01*
X141474Y36946D01*
X141485Y36925D01*
X141601Y36788D01*
X141728Y36672D01*
X141875Y36566D01*
X142013Y36481D01*
X142140Y36418D01*
X142235Y36365D01*
X142277Y36344D01*
X142309Y36333D01*
X142319Y36323D01*
X142330D01*
X142541Y36249D01*
X142763Y36196D01*
X142985Y36164D01*
X143186Y36143D01*
X143355Y36122D01*
X143429D01*
X143492Y36112D01*
X143619D01*
X143925Y36122D01*
X144200Y36154D01*
X144464Y36207D01*
X144686Y36260D01*
X144781Y36281D01*
X144866Y36302D01*
X144940Y36333D01*
X145003Y36355D01*
X145056Y36376D01*
X145088Y36386D01*
X145109Y36397D01*
X145119D01*
X145352Y36513D01*
X145553Y36640D01*
X145722Y36756D01*
X145859Y36883D01*
X145965Y36989D01*
X146039Y37073D01*
X146091Y37126D01*
X146102Y37147D01*
X146208Y37337D01*
X146292Y37538D01*
X146356Y37739D01*
X146409Y37929D01*
X146451Y38109D01*
X146461Y38172D01*
X146472Y38235D01*
X146482Y38288D01*
X146493Y38331D01*
Y38352D01*
Y38362D01*
X147708Y38256D01*
X147698Y38077D01*
X147676Y37897D01*
X147613Y37570D01*
X147529Y37263D01*
X147486Y37126D01*
X147434Y37010D01*
X147391Y36893D01*
X147338Y36788D01*
X147296Y36703D01*
X147254Y36629D01*
X147222Y36566D01*
X147201Y36524D01*
X147190Y36502D01*
X147180Y36492D01*
X146979Y36217D01*
X146747Y35985D01*
X146514Y35784D01*
X146292Y35626D01*
X146091Y35499D01*
X146007Y35456D01*
X145933Y35414D01*
X145870Y35382D01*
X145827Y35361D01*
X145796Y35340D01*
X145785D01*
X145426Y35213D01*
X145056Y35118D01*
X144686Y35055D01*
X144338Y35013D01*
X144168Y34992D01*
X144021Y34981D01*
X143894Y34970D01*
X143778D01*
X143682Y34960D01*
X143556D01*
X143175Y34981D01*
X142826Y35023D01*
X142509Y35076D01*
X142362Y35118D01*
X142235Y35150D01*
X142108Y35182D01*
X142002Y35224D01*
X141907Y35256D01*
X141833Y35277D01*
X141770Y35308D01*
X141728Y35319D01*
X141696Y35340D01*
X141685D01*
X141390Y35499D01*
X141136Y35668D01*
X140914Y35847D01*
X140734Y36016D01*
X140586Y36175D01*
X140491Y36291D01*
X140449Y36344D01*
X140428Y36376D01*
X140407Y36397D01*
Y36407D01*
X140322Y36534D01*
X140259Y36672D01*
X140143Y36925D01*
X140058Y37168D01*
X140005Y37390D01*
X139974Y37591D01*
X139963Y37665D01*
Y37739D01*
X139952Y37792D01*
Y37834D01*
Y37855D01*
Y37866D01*
X139974Y38151D01*
X140016Y38415D01*
X140079Y38647D01*
X140153Y38848D01*
X140238Y39017D01*
X140269Y39091D01*
X140301Y39144D01*
X140322Y39186D01*
X140343Y39218D01*
X140365Y39239D01*
Y39250D01*
X140449Y39355D01*
X140534Y39461D01*
X140734Y39662D01*
X140935Y39831D01*
X141146Y39968D01*
X141326Y40085D01*
X141411Y40137D01*
X141485Y40169D01*
X141537Y40201D01*
X141580Y40222D01*
X141611Y40243D01*
X141622D01*
X141738Y40296D01*
X141886Y40349D01*
X142034Y40402D01*
X142203Y40454D01*
X142562Y40549D01*
X142922Y40644D01*
X143091Y40697D01*
X143249Y40729D01*
X143397Y40771D01*
X143524Y40792D01*
X143630Y40824D01*
X143703Y40845D01*
X143756Y40856D01*
X143778D01*
X144063Y40919D01*
X144316Y40993D01*
X144538Y41057D01*
X144750Y41120D01*
X144929Y41183D01*
X145088Y41236D01*
X145225Y41289D01*
X145341Y41342D01*
X145436Y41395D01*
X145521Y41437D01*
X145584Y41469D01*
X145637Y41500D01*
X145679Y41532D01*
X145701Y41553D01*
X145722Y41564D01*
X145849Y41701D01*
X145933Y41838D01*
X145996Y41986D01*
X146049Y42124D01*
X146070Y42240D01*
X146081Y42335D01*
X146091Y42399D01*
Y42409D01*
Y42420D01*
X146081Y42536D01*
X146070Y42642D01*
X146007Y42832D01*
X145922Y43011D01*
X145827Y43159D01*
X145732Y43286D01*
X145648Y43381D01*
X145584Y43434D01*
X145574Y43455D01*
X145563D01*
X145457Y43529D01*
X145331Y43603D01*
X145067Y43709D01*
X144792Y43783D01*
X144507Y43836D01*
X144380Y43857D01*
X144253Y43867D01*
X144147Y43878D01*
X144052D01*
X143968Y43888D01*
X143661D01*
X143471Y43867D01*
X143291Y43846D01*
X143122Y43815D01*
X142974Y43783D01*
X142837Y43741D01*
X142710Y43698D01*
X142594Y43656D01*
X142499Y43603D01*
X142414Y43561D01*
X142340Y43519D01*
X142277Y43487D01*
X142235Y43455D01*
X142192Y43434D01*
X142182Y43424D01*
X142171Y43413D01*
X142066Y43318D01*
X141971Y43223D01*
X141823Y43001D01*
X141696Y42768D01*
X141611Y42547D01*
X141548Y42346D01*
X141527Y42261D01*
X141506Y42177D01*
X141495Y42113D01*
Y42071D01*
X141485Y42039D01*
Y42029D01*
X140248Y42124D01*
X140280Y42441D01*
X140343Y42726D01*
X140417Y42990D01*
X140502Y43212D01*
X140555Y43307D01*
X140586Y43402D01*
X140629Y43476D01*
X140660Y43540D01*
X140692Y43593D01*
X140713Y43624D01*
X140724Y43645D01*
X140734Y43656D01*
X140914Y43899D01*
X141115Y44100D01*
X141326Y44279D01*
X141537Y44427D01*
X141717Y44533D01*
X141802Y44575D01*
X141865Y44618D01*
X141918Y44649D01*
X141971Y44660D01*
X141992Y44681D01*
X142002D01*
X142319Y44797D01*
X142647Y44892D01*
X142974Y44956D01*
X143270Y44998D01*
X143408Y45009D01*
X143524Y45019D01*
X143640Y45030D01*
X143735Y45040D01*
X143915D01*
X144274Y45030D01*
D02*
G37*
G36*
X-141500Y39736D02*
X-142620Y39577D01*
X-142726Y39725D01*
X-142842Y39863D01*
X-142969Y39979D01*
X-143075Y40085D01*
X-143181Y40159D01*
X-143265Y40222D01*
X-143318Y40254D01*
X-143339Y40264D01*
X-143519Y40359D01*
X-143698Y40423D01*
X-143878Y40476D01*
X-144047Y40507D01*
X-144184Y40528D01*
X-144300Y40539D01*
X-144396D01*
X-144565Y40528D01*
X-144723Y40518D01*
X-144882Y40486D01*
X-145019Y40444D01*
X-145283Y40349D01*
X-145389Y40296D01*
X-145494Y40243D01*
X-145590Y40180D01*
X-145664Y40127D01*
X-145738Y40074D01*
X-145790Y40032D01*
X-145833Y39989D01*
X-145875Y39958D01*
X-145885Y39947D01*
X-145896Y39937D01*
X-146002Y39820D01*
X-146086Y39694D01*
X-146171Y39567D01*
X-146234Y39440D01*
X-146340Y39165D01*
X-146403Y38912D01*
X-146424Y38785D01*
X-146446Y38679D01*
X-146456Y38574D01*
X-146467Y38489D01*
X-146477Y38415D01*
Y38362D01*
Y38331D01*
Y38320D01*
X-146467Y38119D01*
X-146456Y37940D01*
X-146424Y37760D01*
X-146382Y37591D01*
X-146340Y37443D01*
X-146287Y37295D01*
X-146234Y37168D01*
X-146181Y37052D01*
X-146118Y36946D01*
X-146065Y36851D01*
X-146012Y36777D01*
X-145970Y36703D01*
X-145928Y36650D01*
X-145896Y36619D01*
X-145885Y36598D01*
X-145875Y36587D01*
X-145759Y36471D01*
X-145642Y36376D01*
X-145526Y36291D01*
X-145399Y36217D01*
X-145273Y36154D01*
X-145156Y36101D01*
X-144924Y36027D01*
X-144723Y35974D01*
X-144639Y35964D01*
X-144565Y35953D01*
X-144501Y35942D01*
X-144417D01*
X-144279Y35953D01*
X-144153Y35964D01*
X-143920Y36016D01*
X-143709Y36090D01*
X-143529Y36175D01*
X-143381Y36249D01*
X-143276Y36323D01*
X-143233Y36355D01*
X-143202Y36376D01*
X-143191Y36397D01*
X-143181D01*
X-143096Y36492D01*
X-143011Y36587D01*
X-142874Y36798D01*
X-142758Y37031D01*
X-142673Y37253D01*
X-142620Y37453D01*
X-142589Y37549D01*
X-142578Y37623D01*
X-142568Y37686D01*
X-142557Y37728D01*
X-142547Y37760D01*
Y37771D01*
X-141289Y37675D01*
X-141321Y37453D01*
X-141363Y37232D01*
X-141416Y37031D01*
X-141490Y36841D01*
X-141564Y36672D01*
X-141638Y36502D01*
X-141722Y36355D01*
X-141807Y36228D01*
X-141891Y36101D01*
X-141965Y35995D01*
X-142039Y35911D01*
X-142113Y35837D01*
X-142166Y35773D01*
X-142208Y35731D01*
X-142229Y35710D01*
X-142240Y35700D01*
X-142409Y35573D01*
X-142578Y35456D01*
X-142758Y35361D01*
X-142937Y35277D01*
X-143117Y35203D01*
X-143297Y35140D01*
X-143476Y35087D01*
X-143645Y35055D01*
X-143804Y35023D01*
X-143952Y35002D01*
X-144079Y34981D01*
X-144195Y34970D01*
X-144290Y34960D01*
X-144417D01*
X-144713Y34970D01*
X-144987Y35013D01*
X-145252Y35066D01*
X-145494Y35150D01*
X-145727Y35234D01*
X-145938Y35330D01*
X-146129Y35446D01*
X-146298Y35552D01*
X-146456Y35657D01*
X-146593Y35773D01*
X-146710Y35868D01*
X-146805Y35964D01*
X-146879Y36038D01*
X-146932Y36090D01*
X-146963Y36133D01*
X-146974Y36143D01*
X-147111Y36323D01*
X-147227Y36513D01*
X-147333Y36714D01*
X-147418Y36904D01*
X-147492Y37094D01*
X-147555Y37284D01*
X-147608Y37475D01*
X-147650Y37644D01*
X-147682Y37813D01*
X-147703Y37961D01*
X-147724Y38087D01*
X-147735Y38204D01*
X-147745Y38299D01*
Y38362D01*
Y38415D01*
Y38426D01*
X-147735Y38679D01*
X-147703Y38922D01*
X-147661Y39155D01*
X-147608Y39366D01*
X-147544Y39577D01*
X-147460Y39757D01*
X-147386Y39937D01*
X-147301Y40095D01*
X-147217Y40233D01*
X-147143Y40349D01*
X-147069Y40465D01*
X-146995Y40549D01*
X-146942Y40613D01*
X-146900Y40666D01*
X-146868Y40697D01*
X-146858Y40708D01*
X-146688Y40866D01*
X-146509Y41004D01*
X-146329Y41120D01*
X-146150Y41226D01*
X-145970Y41310D01*
X-145790Y41384D01*
X-145621Y41437D01*
X-145452Y41490D01*
X-145304Y41522D01*
X-145156Y41553D01*
X-145030Y41564D01*
X-144924Y41585D01*
X-144839D01*
X-144765Y41596D01*
X-144713D01*
X-144533Y41585D01*
X-144353Y41574D01*
X-144184Y41543D01*
X-144015Y41500D01*
X-143709Y41405D01*
X-143561Y41342D01*
X-143434Y41289D01*
X-143307Y41236D01*
X-143202Y41173D01*
X-143106Y41120D01*
X-143022Y41078D01*
X-142959Y41035D01*
X-142916Y41014D01*
X-142885Y40993D01*
X-142874Y40983D01*
X-143392Y43603D01*
X-147291D01*
Y44744D01*
X-142441D01*
X-141500Y39736D01*
D02*
G37*
G36*
X-135689Y45030D02*
X-135351Y44987D01*
X-135055Y44935D01*
X-134918Y44903D01*
X-134791Y44871D01*
X-134675Y44839D01*
X-134569Y44808D01*
X-134474Y44776D01*
X-134400Y44755D01*
X-134347Y44734D01*
X-134294Y44713D01*
X-134273Y44702D01*
X-134262D01*
X-133977Y44565D01*
X-133734Y44406D01*
X-133523Y44248D01*
X-133354Y44089D01*
X-133216Y43941D01*
X-133111Y43825D01*
X-133079Y43783D01*
X-133058Y43751D01*
X-133037Y43730D01*
Y43719D01*
X-132899Y43476D01*
X-132794Y43233D01*
X-132730Y43011D01*
X-132677Y42800D01*
X-132646Y42610D01*
X-132635Y42536D01*
Y42473D01*
X-132625Y42420D01*
Y42377D01*
Y42356D01*
Y42346D01*
X-132635Y42103D01*
X-132677Y41870D01*
X-132730Y41659D01*
X-132794Y41479D01*
X-132857Y41331D01*
X-132910Y41215D01*
X-132931Y41173D01*
X-132952Y41141D01*
X-132963Y41131D01*
Y41120D01*
X-133100Y40930D01*
X-133269Y40750D01*
X-133438Y40602D01*
X-133618Y40465D01*
X-133766Y40359D01*
X-133893Y40285D01*
X-133946Y40264D01*
X-133977Y40243D01*
X-133998Y40222D01*
X-134009D01*
X-134115Y40169D01*
X-134241Y40116D01*
X-134379Y40063D01*
X-134527Y40011D01*
X-134833Y39905D01*
X-135150Y39810D01*
X-135298Y39767D01*
X-135425Y39725D01*
X-135552Y39694D01*
X-135668Y39662D01*
X-135752Y39641D01*
X-135826Y39620D01*
X-135869Y39609D01*
X-135879D01*
X-136122Y39556D01*
X-136344Y39493D01*
X-136534Y39451D01*
X-136714Y39398D01*
X-136872Y39355D01*
X-137020Y39324D01*
X-137136Y39281D01*
X-137253Y39250D01*
X-137337Y39229D01*
X-137422Y39197D01*
X-137485Y39176D01*
X-137528Y39165D01*
X-137570Y39155D01*
X-137591Y39144D01*
X-137612Y39134D01*
X-137823Y39039D01*
X-138003Y38943D01*
X-138161Y38848D01*
X-138278Y38764D01*
X-138373Y38679D01*
X-138436Y38616D01*
X-138478Y38574D01*
X-138489Y38563D01*
X-138584Y38436D01*
X-138647Y38299D01*
X-138700Y38161D01*
X-138732Y38035D01*
X-138753Y37929D01*
X-138764Y37834D01*
Y37781D01*
Y37771D01*
Y37760D01*
X-138753Y37601D01*
X-138722Y37443D01*
X-138669Y37306D01*
X-138626Y37179D01*
X-138574Y37073D01*
X-138521Y36989D01*
X-138489Y36946D01*
X-138478Y36925D01*
X-138362Y36788D01*
X-138235Y36672D01*
X-138088Y36566D01*
X-137950Y36481D01*
X-137823Y36418D01*
X-137728Y36365D01*
X-137686Y36344D01*
X-137654Y36333D01*
X-137644Y36323D01*
X-137633D01*
X-137422Y36249D01*
X-137200Y36196D01*
X-136978Y36164D01*
X-136777Y36143D01*
X-136608Y36122D01*
X-136534D01*
X-136471Y36112D01*
X-136344D01*
X-136038Y36122D01*
X-135763Y36154D01*
X-135499Y36207D01*
X-135277Y36260D01*
X-135182Y36281D01*
X-135097Y36302D01*
X-135023Y36333D01*
X-134960Y36355D01*
X-134907Y36376D01*
X-134875Y36386D01*
X-134854Y36397D01*
X-134844D01*
X-134611Y36513D01*
X-134410Y36640D01*
X-134241Y36756D01*
X-134104Y36883D01*
X-133998Y36989D01*
X-133924Y37073D01*
X-133871Y37126D01*
X-133861Y37147D01*
X-133755Y37337D01*
X-133671Y37538D01*
X-133607Y37739D01*
X-133554Y37929D01*
X-133512Y38109D01*
X-133502Y38172D01*
X-133491Y38235D01*
X-133481Y38288D01*
X-133470Y38331D01*
Y38352D01*
Y38362D01*
X-132255Y38256D01*
X-132265Y38077D01*
X-132287Y37897D01*
X-132350Y37570D01*
X-132435Y37263D01*
X-132477Y37126D01*
X-132530Y37010D01*
X-132572Y36893D01*
X-132625Y36788D01*
X-132667Y36703D01*
X-132709Y36629D01*
X-132741Y36566D01*
X-132762Y36524D01*
X-132773Y36502D01*
X-132783Y36492D01*
X-132984Y36217D01*
X-133216Y35985D01*
X-133449Y35784D01*
X-133671Y35626D01*
X-133871Y35499D01*
X-133956Y35456D01*
X-134030Y35414D01*
X-134093Y35382D01*
X-134136Y35361D01*
X-134167Y35340D01*
X-134178D01*
X-134537Y35213D01*
X-134907Y35118D01*
X-135277Y35055D01*
X-135625Y35013D01*
X-135795Y34992D01*
X-135942Y34981D01*
X-136069Y34970D01*
X-136186D01*
X-136281Y34960D01*
X-136407D01*
X-136788Y34981D01*
X-137136Y35023D01*
X-137453Y35076D01*
X-137601Y35118D01*
X-137728Y35150D01*
X-137855Y35182D01*
X-137961Y35224D01*
X-138056Y35256D01*
X-138130Y35277D01*
X-138193Y35308D01*
X-138235Y35319D01*
X-138267Y35340D01*
X-138278D01*
X-138574Y35499D01*
X-138827Y35668D01*
X-139049Y35847D01*
X-139229Y36016D01*
X-139377Y36175D01*
X-139472Y36291D01*
X-139514Y36344D01*
X-139535Y36376D01*
X-139556Y36397D01*
Y36407D01*
X-139641Y36534D01*
X-139704Y36672D01*
X-139820Y36925D01*
X-139905Y37168D01*
X-139958Y37390D01*
X-139989Y37591D01*
X-140000Y37665D01*
Y37739D01*
X-140011Y37792D01*
Y37834D01*
Y37855D01*
Y37866D01*
X-139989Y38151D01*
X-139947Y38415D01*
X-139884Y38647D01*
X-139810Y38848D01*
X-139725Y39017D01*
X-139694Y39091D01*
X-139662Y39144D01*
X-139641Y39186D01*
X-139620Y39218D01*
X-139599Y39239D01*
Y39250D01*
X-139514Y39355D01*
X-139429Y39461D01*
X-139229Y39662D01*
X-139028Y39831D01*
X-138817Y39968D01*
X-138637Y40085D01*
X-138552Y40137D01*
X-138478Y40169D01*
X-138426Y40201D01*
X-138383Y40222D01*
X-138352Y40243D01*
X-138341D01*
X-138225Y40296D01*
X-138077Y40349D01*
X-137929Y40402D01*
X-137760Y40454D01*
X-137401Y40549D01*
X-137041Y40644D01*
X-136872Y40697D01*
X-136714Y40729D01*
X-136566Y40771D01*
X-136439Y40792D01*
X-136334Y40824D01*
X-136259Y40845D01*
X-136207Y40856D01*
X-136186D01*
X-135900Y40919D01*
X-135647Y40993D01*
X-135425Y41057D01*
X-135213Y41120D01*
X-135034Y41183D01*
X-134875Y41236D01*
X-134738Y41289D01*
X-134622Y41342D01*
X-134527Y41395D01*
X-134442Y41437D01*
X-134379Y41469D01*
X-134326Y41500D01*
X-134284Y41532D01*
X-134262Y41553D01*
X-134241Y41564D01*
X-134115Y41701D01*
X-134030Y41838D01*
X-133967Y41986D01*
X-133914Y42124D01*
X-133893Y42240D01*
X-133882Y42335D01*
X-133871Y42399D01*
Y42409D01*
Y42420D01*
X-133882Y42536D01*
X-133893Y42642D01*
X-133956Y42832D01*
X-134040Y43011D01*
X-134136Y43159D01*
X-134231Y43286D01*
X-134315Y43381D01*
X-134379Y43434D01*
X-134389Y43455D01*
X-134400D01*
X-134506Y43529D01*
X-134632Y43603D01*
X-134896Y43709D01*
X-135171Y43783D01*
X-135456Y43836D01*
X-135583Y43857D01*
X-135710Y43867D01*
X-135816Y43878D01*
X-135911D01*
X-135995Y43888D01*
X-136302D01*
X-136492Y43867D01*
X-136672Y43846D01*
X-136841Y43815D01*
X-136989Y43783D01*
X-137126Y43741D01*
X-137253Y43698D01*
X-137369Y43656D01*
X-137464Y43603D01*
X-137549Y43561D01*
X-137623Y43519D01*
X-137686Y43487D01*
X-137728Y43455D01*
X-137771Y43434D01*
X-137781Y43424D01*
X-137792Y43413D01*
X-137897Y43318D01*
X-137992Y43223D01*
X-138140Y43001D01*
X-138267Y42768D01*
X-138352Y42547D01*
X-138415Y42346D01*
X-138436Y42261D01*
X-138457Y42177D01*
X-138468Y42113D01*
Y42071D01*
X-138478Y42039D01*
Y42029D01*
X-139715Y42124D01*
X-139683Y42441D01*
X-139620Y42726D01*
X-139546Y42990D01*
X-139461Y43212D01*
X-139408Y43307D01*
X-139377Y43402D01*
X-139334Y43476D01*
X-139303Y43540D01*
X-139271Y43593D01*
X-139250Y43624D01*
X-139239Y43645D01*
X-139229Y43656D01*
X-139049Y43899D01*
X-138848Y44100D01*
X-138637Y44279D01*
X-138426Y44427D01*
X-138246Y44533D01*
X-138161Y44575D01*
X-138098Y44618D01*
X-138045Y44649D01*
X-137992Y44660D01*
X-137971Y44681D01*
X-137961D01*
X-137644Y44797D01*
X-137316Y44892D01*
X-136989Y44956D01*
X-136693Y44998D01*
X-136555Y45009D01*
X-136439Y45019D01*
X-136323Y45030D01*
X-136228Y45040D01*
X-136048D01*
X-135689Y45030D01*
D02*
G37*
G36*
X-140930Y-109448D02*
Y-110547D01*
X-145177D01*
Y-112882D01*
X-146371D01*
Y-110547D01*
X-147692D01*
Y-109448D01*
X-146371D01*
Y-103129D01*
X-145389D01*
X-140930Y-109448D01*
D02*
G37*
G36*
X-135742Y-102970D02*
X-135404Y-103013D01*
X-135108Y-103066D01*
X-134970Y-103097D01*
X-134844Y-103129D01*
X-134727Y-103161D01*
X-134622Y-103192D01*
X-134527Y-103224D01*
X-134453Y-103245D01*
X-134400Y-103266D01*
X-134347Y-103287D01*
X-134326Y-103298D01*
X-134315D01*
X-134030Y-103435D01*
X-133787Y-103594D01*
X-133576Y-103752D01*
X-133407Y-103911D01*
X-133269Y-104059D01*
X-133163Y-104175D01*
X-133132Y-104217D01*
X-133111Y-104249D01*
X-133090Y-104270D01*
Y-104281D01*
X-132952Y-104524D01*
X-132846Y-104767D01*
X-132783Y-104989D01*
X-132730Y-105200D01*
X-132699Y-105390D01*
X-132688Y-105464D01*
Y-105527D01*
X-132677Y-105580D01*
Y-105623D01*
Y-105644D01*
Y-105654D01*
X-132688Y-105897D01*
X-132730Y-106130D01*
X-132783Y-106341D01*
X-132846Y-106521D01*
X-132910Y-106669D01*
X-132963Y-106785D01*
X-132984Y-106827D01*
X-133005Y-106859D01*
X-133016Y-106869D01*
Y-106880D01*
X-133153Y-107070D01*
X-133322Y-107250D01*
X-133491Y-107398D01*
X-133671Y-107535D01*
X-133819Y-107641D01*
X-133946Y-107715D01*
X-133998Y-107736D01*
X-134030Y-107757D01*
X-134051Y-107778D01*
X-134062D01*
X-134167Y-107831D01*
X-134294Y-107884D01*
X-134431Y-107937D01*
X-134579Y-107989D01*
X-134886Y-108095D01*
X-135203Y-108190D01*
X-135351Y-108232D01*
X-135478Y-108275D01*
X-135604Y-108306D01*
X-135721Y-108338D01*
X-135805Y-108359D01*
X-135879Y-108380D01*
X-135921Y-108391D01*
X-135932D01*
X-136175Y-108444D01*
X-136397Y-108507D01*
X-136587Y-108549D01*
X-136767Y-108602D01*
X-136925Y-108645D01*
X-137073Y-108676D01*
X-137189Y-108719D01*
X-137306Y-108750D01*
X-137390Y-108771D01*
X-137475Y-108803D01*
X-137538Y-108824D01*
X-137580Y-108835D01*
X-137623Y-108845D01*
X-137644Y-108856D01*
X-137665Y-108867D01*
X-137876Y-108962D01*
X-138056Y-109057D01*
X-138214Y-109152D01*
X-138330Y-109236D01*
X-138426Y-109321D01*
X-138489Y-109384D01*
X-138531Y-109426D01*
X-138542Y-109437D01*
X-138637Y-109564D01*
X-138700Y-109701D01*
X-138753Y-109839D01*
X-138785Y-109965D01*
X-138806Y-110071D01*
X-138817Y-110166D01*
Y-110219D01*
Y-110230D01*
Y-110240D01*
X-138806Y-110399D01*
X-138774Y-110557D01*
X-138722Y-110694D01*
X-138679Y-110821D01*
X-138626Y-110927D01*
X-138574Y-111011D01*
X-138542Y-111054D01*
X-138531Y-111075D01*
X-138415Y-111212D01*
X-138288Y-111328D01*
X-138140Y-111434D01*
X-138003Y-111519D01*
X-137876Y-111582D01*
X-137781Y-111635D01*
X-137739Y-111656D01*
X-137707Y-111667D01*
X-137697Y-111677D01*
X-137686D01*
X-137475Y-111751D01*
X-137253Y-111804D01*
X-137031Y-111836D01*
X-136830Y-111857D01*
X-136661Y-111878D01*
X-136587D01*
X-136524Y-111888D01*
X-136397D01*
X-136090Y-111878D01*
X-135816Y-111846D01*
X-135552Y-111793D01*
X-135330Y-111741D01*
X-135235Y-111719D01*
X-135150Y-111698D01*
X-135076Y-111667D01*
X-135013Y-111645D01*
X-134960Y-111624D01*
X-134928Y-111614D01*
X-134907Y-111603D01*
X-134896D01*
X-134664Y-111487D01*
X-134463Y-111360D01*
X-134294Y-111244D01*
X-134157Y-111117D01*
X-134051Y-111011D01*
X-133977Y-110927D01*
X-133924Y-110874D01*
X-133914Y-110853D01*
X-133808Y-110663D01*
X-133724Y-110462D01*
X-133660Y-110261D01*
X-133607Y-110071D01*
X-133565Y-109891D01*
X-133554Y-109828D01*
X-133544Y-109765D01*
X-133533Y-109712D01*
X-133523Y-109670D01*
Y-109648D01*
Y-109638D01*
X-132308Y-109743D01*
X-132318Y-109923D01*
X-132339Y-110103D01*
X-132403Y-110430D01*
X-132487Y-110737D01*
X-132530Y-110874D01*
X-132582Y-110990D01*
X-132625Y-111107D01*
X-132677Y-111212D01*
X-132720Y-111297D01*
X-132762Y-111371D01*
X-132794Y-111434D01*
X-132815Y-111476D01*
X-132825Y-111497D01*
X-132836Y-111508D01*
X-133037Y-111783D01*
X-133269Y-112015D01*
X-133502Y-112216D01*
X-133724Y-112374D01*
X-133924Y-112501D01*
X-134009Y-112544D01*
X-134083Y-112586D01*
X-134146Y-112618D01*
X-134188Y-112639D01*
X-134220Y-112660D01*
X-134231D01*
X-134590Y-112787D01*
X-134960Y-112882D01*
X-135330Y-112945D01*
X-135678Y-112987D01*
X-135847Y-113008D01*
X-135995Y-113019D01*
X-136122Y-113030D01*
X-136238D01*
X-136334Y-113040D01*
X-136460D01*
X-136841Y-113019D01*
X-137189Y-112977D01*
X-137506Y-112924D01*
X-137654Y-112882D01*
X-137781Y-112850D01*
X-137908Y-112818D01*
X-138013Y-112776D01*
X-138109Y-112744D01*
X-138183Y-112723D01*
X-138246Y-112691D01*
X-138288Y-112681D01*
X-138320Y-112660D01*
X-138330D01*
X-138626Y-112501D01*
X-138880Y-112332D01*
X-139102Y-112153D01*
X-139282Y-111983D01*
X-139429Y-111825D01*
X-139524Y-111709D01*
X-139567Y-111656D01*
X-139588Y-111624D01*
X-139609Y-111603D01*
Y-111593D01*
X-139694Y-111466D01*
X-139757Y-111328D01*
X-139873Y-111075D01*
X-139958Y-110832D01*
X-140011Y-110610D01*
X-140042Y-110409D01*
X-140053Y-110335D01*
Y-110261D01*
X-140063Y-110208D01*
Y-110166D01*
Y-110145D01*
Y-110134D01*
X-140042Y-109849D01*
X-140000Y-109585D01*
X-139937Y-109353D01*
X-139863Y-109152D01*
X-139778Y-108983D01*
X-139746Y-108909D01*
X-139715Y-108856D01*
X-139694Y-108814D01*
X-139672Y-108782D01*
X-139651Y-108761D01*
Y-108750D01*
X-139567Y-108645D01*
X-139482Y-108539D01*
X-139282Y-108338D01*
X-139081Y-108169D01*
X-138869Y-108032D01*
X-138690Y-107915D01*
X-138605Y-107863D01*
X-138531Y-107831D01*
X-138478Y-107799D01*
X-138436Y-107778D01*
X-138405Y-107757D01*
X-138394D01*
X-138278Y-107704D01*
X-138130Y-107651D01*
X-137982Y-107598D01*
X-137813Y-107546D01*
X-137453Y-107451D01*
X-137094Y-107355D01*
X-136925Y-107303D01*
X-136767Y-107271D01*
X-136619Y-107229D01*
X-136492Y-107207D01*
X-136386Y-107176D01*
X-136312Y-107155D01*
X-136259Y-107144D01*
X-136238D01*
X-135953Y-107081D01*
X-135700Y-107007D01*
X-135478Y-106943D01*
X-135266Y-106880D01*
X-135087Y-106817D01*
X-134928Y-106764D01*
X-134791Y-106711D01*
X-134675Y-106658D01*
X-134579Y-106605D01*
X-134495Y-106563D01*
X-134431Y-106531D01*
X-134379Y-106500D01*
X-134336Y-106468D01*
X-134315Y-106447D01*
X-134294Y-106436D01*
X-134167Y-106299D01*
X-134083Y-106161D01*
X-134019Y-106013D01*
X-133967Y-105876D01*
X-133946Y-105760D01*
X-133935Y-105665D01*
X-133924Y-105601D01*
Y-105591D01*
Y-105580D01*
X-133935Y-105464D01*
X-133946Y-105358D01*
X-134009Y-105168D01*
X-134093Y-104989D01*
X-134188Y-104841D01*
X-134284Y-104714D01*
X-134368Y-104619D01*
X-134431Y-104566D01*
X-134442Y-104545D01*
X-134453D01*
X-134558Y-104471D01*
X-134685Y-104397D01*
X-134949Y-104291D01*
X-135224Y-104217D01*
X-135509Y-104164D01*
X-135636Y-104143D01*
X-135763Y-104133D01*
X-135869Y-104122D01*
X-135964D01*
X-136048Y-104112D01*
X-136355D01*
X-136545Y-104133D01*
X-136724Y-104154D01*
X-136894Y-104185D01*
X-137041Y-104217D01*
X-137179Y-104260D01*
X-137306Y-104302D01*
X-137422Y-104344D01*
X-137517Y-104397D01*
X-137601Y-104439D01*
X-137675Y-104481D01*
X-137739Y-104513D01*
X-137781Y-104545D01*
X-137823Y-104566D01*
X-137834Y-104577D01*
X-137844Y-104587D01*
X-137950Y-104682D01*
X-138045Y-104777D01*
X-138193Y-104999D01*
X-138320Y-105232D01*
X-138405Y-105454D01*
X-138468Y-105654D01*
X-138489Y-105739D01*
X-138510Y-105823D01*
X-138521Y-105887D01*
Y-105929D01*
X-138531Y-105961D01*
Y-105971D01*
X-139768Y-105876D01*
X-139736Y-105559D01*
X-139672Y-105274D01*
X-139599Y-105010D01*
X-139514Y-104788D01*
X-139461Y-104693D01*
X-139429Y-104598D01*
X-139387Y-104524D01*
X-139355Y-104460D01*
X-139324Y-104407D01*
X-139303Y-104376D01*
X-139292Y-104355D01*
X-139282Y-104344D01*
X-139102Y-104101D01*
X-138901Y-103900D01*
X-138690Y-103721D01*
X-138478Y-103573D01*
X-138299Y-103467D01*
X-138214Y-103425D01*
X-138151Y-103383D01*
X-138098Y-103351D01*
X-138045Y-103340D01*
X-138024Y-103319D01*
X-138013D01*
X-137697Y-103203D01*
X-137369Y-103108D01*
X-137041Y-103044D01*
X-136746Y-103002D01*
X-136608Y-102992D01*
X-136492Y-102981D01*
X-136376Y-102970D01*
X-136281Y-102960D01*
X-136101D01*
X-135742Y-102970D01*
D02*
G37*
%LPC*%
G36*
X-225272Y110812D02*
X-225376D01*
Y110708D01*
X-225480D01*
Y110812D01*
X-225583D01*
Y110708D01*
X-225480D01*
Y110604D01*
X-225272D01*
Y110812D01*
D02*
G37*
G36*
X-224754D02*
X-224858D01*
Y110708D01*
X-224754D01*
Y110604D01*
X-224443D01*
Y110708D01*
X-224754D01*
Y110812D01*
D02*
G37*
G36*
X-222473Y110086D02*
X-222577D01*
Y109983D01*
X-222473D01*
Y110086D01*
D02*
G37*
G36*
X-220607Y108842D02*
X-220814D01*
Y108738D01*
X-220607D01*
Y108842D01*
D02*
G37*
G36*
X-219985Y108013D02*
X-220089D01*
Y107909D01*
X-219985D01*
Y108013D01*
D02*
G37*
G36*
X-219881Y107805D02*
X-219985D01*
Y107702D01*
X-219881D01*
Y107805D01*
D02*
G37*
G36*
X-224028Y106665D02*
X-224132D01*
Y106561D01*
X-224028D01*
Y106665D01*
D02*
G37*
G36*
X-226205D02*
X-226309D01*
Y106561D01*
X-226205D01*
Y106665D01*
D02*
G37*
G36*
X-223302Y106561D02*
X-223406D01*
Y106458D01*
X-223302D01*
Y106561D01*
D02*
G37*
G36*
X-221747Y105421D02*
X-221851D01*
Y105317D01*
X-221747D01*
Y105213D01*
X-221644D01*
Y105317D01*
X-221747D01*
Y105421D01*
D02*
G37*
G36*
X-221540Y105110D02*
X-221644D01*
Y105006D01*
X-221540D01*
Y105110D01*
D02*
G37*
G36*
X-221022Y102622D02*
X-221125D01*
Y102518D01*
X-221022D01*
Y102622D01*
D02*
G37*
G36*
X-219363Y98889D02*
X-219466D01*
Y98786D01*
X-219363D01*
Y98889D01*
D02*
G37*
G36*
X-221333Y96608D02*
X-221436D01*
Y96505D01*
X-221333D01*
Y96608D01*
D02*
G37*
G36*
X-211380Y108013D02*
X-211484D01*
Y107909D01*
X-211380D01*
Y108013D01*
D02*
G37*
G36*
X-209618Y105628D02*
X-209721D01*
Y105525D01*
X-209618D01*
Y105628D01*
D02*
G37*
G36*
X-212624Y105110D02*
X-212728D01*
Y105006D01*
X-212624D01*
Y105110D01*
D02*
G37*
G36*
X-212106Y99304D02*
X-212209D01*
Y99200D01*
X-212106D01*
Y99304D01*
D02*
G37*
G36*
X-210965Y97438D02*
X-211069D01*
Y97334D01*
X-210965D01*
Y97438D01*
D02*
G37*
G36*
X-210032Y96505D02*
X-210136D01*
Y96401D01*
X-210032D01*
Y96505D01*
D02*
G37*
G36*
X-222680Y94120D02*
X-222992D01*
Y94017D01*
X-222680D01*
Y94120D01*
D02*
G37*
G36*
X-221333Y90284D02*
X-221436D01*
Y90181D01*
X-221333D01*
Y90284D01*
D02*
G37*
G36*
X-221022Y89040D02*
X-221125D01*
Y88937D01*
X-221022D01*
Y89040D01*
D02*
G37*
G36*
X-219570Y82820D02*
X-219674D01*
Y82716D01*
X-219570D01*
Y82820D01*
D02*
G37*
G36*
X-222473Y81887D02*
X-222577D01*
Y81783D01*
X-222473D01*
Y81887D01*
D02*
G37*
G36*
X-225687Y81783D02*
X-225791D01*
Y81679D01*
X-225687D01*
Y81783D01*
D02*
G37*
G36*
X-225998Y81472D02*
X-226102D01*
Y81368D01*
X-225998D01*
Y81472D01*
D02*
G37*
G36*
X-222058Y81368D02*
X-222162D01*
Y81265D01*
X-222058D01*
Y81368D01*
D02*
G37*
G36*
X-220607Y81057D02*
X-220711D01*
Y80954D01*
X-220607D01*
Y81057D01*
D02*
G37*
G36*
X-221747D02*
X-221851D01*
Y80954D01*
X-221747D01*
Y81057D01*
D02*
G37*
G36*
X-221436Y80539D02*
X-221540D01*
Y80435D01*
X-221436D01*
Y80332D01*
X-221333D01*
Y80435D01*
X-221436D01*
Y80539D01*
D02*
G37*
G36*
X-209721Y92876D02*
X-209825D01*
Y92773D01*
X-209721D01*
Y92876D01*
D02*
G37*
G36*
X-209410Y92462D02*
X-209514D01*
Y92358D01*
X-209410D01*
Y92462D01*
D02*
G37*
G36*
X-210343Y89351D02*
X-210447D01*
Y89144D01*
X-210343D01*
Y89351D01*
D02*
G37*
G36*
Y85308D02*
X-210447D01*
Y85204D01*
X-210343D01*
Y85308D01*
D02*
G37*
G36*
X-212106Y83338D02*
X-212209D01*
Y83235D01*
X-212106D01*
Y83338D01*
D02*
G37*
G36*
X-211795Y82612D02*
X-211898D01*
Y82509D01*
X-211795D01*
Y82612D01*
D02*
G37*
G36*
X-211587Y82509D02*
X-211691D01*
Y82405D01*
X-211587D01*
Y82509D01*
D02*
G37*
G36*
X-210654Y81472D02*
X-210758D01*
Y81368D01*
X-210654D01*
Y81472D01*
D02*
G37*
G36*
X-220503Y78569D02*
X-220607D01*
Y78466D01*
X-220503D01*
Y78569D01*
D02*
G37*
G36*
X-220296Y78466D02*
X-220400D01*
Y78258D01*
X-220296D01*
Y78466D01*
D02*
G37*
G36*
X-219156Y76496D02*
X-219259D01*
Y76288D01*
X-219156D01*
Y76496D01*
D02*
G37*
G36*
X-221022Y71830D02*
X-221125D01*
Y71727D01*
X-221022D01*
Y71830D01*
D02*
G37*
G36*
X-218741Y70897D02*
X-218845D01*
Y70794D01*
X-218741D01*
Y70897D01*
D02*
G37*
G36*
X-221333Y70172D02*
X-221436D01*
Y70068D01*
X-221333D01*
Y70172D01*
D02*
G37*
G36*
X-221644Y66128D02*
X-221747D01*
Y66025D01*
X-221644D01*
Y65921D01*
X-221540D01*
Y66025D01*
X-221644D01*
Y66128D01*
D02*
G37*
G36*
X-221436Y65817D02*
X-221540D01*
Y65714D01*
X-221436D01*
Y65817D01*
D02*
G37*
G36*
X-221229Y65714D02*
X-221333D01*
Y65610D01*
X-221229D01*
Y65714D01*
D02*
G37*
G36*
X-209928Y78362D02*
X-210032D01*
Y78258D01*
X-209928D01*
Y78362D01*
D02*
G37*
G36*
X-209825Y78155D02*
X-209928D01*
Y78051D01*
X-209825D01*
Y78155D01*
D02*
G37*
G36*
X-210136Y70275D02*
X-210343D01*
Y70172D01*
X-210136D01*
Y70275D01*
D02*
G37*
G36*
X-211691Y67891D02*
X-211795D01*
Y67787D01*
X-211691D01*
Y67891D01*
D02*
G37*
G36*
X-210032Y66439D02*
X-210136D01*
Y66336D01*
X-210032D01*
Y66439D01*
D02*
G37*
G36*
X-226724Y64677D02*
X-226827D01*
Y64573D01*
X-226724D01*
Y64677D01*
D02*
G37*
G36*
X-221436Y64159D02*
X-221540D01*
Y64055D01*
X-221436D01*
Y64159D01*
D02*
G37*
G36*
X-219363Y61359D02*
X-219466D01*
Y61256D01*
X-219363D01*
Y61359D01*
D02*
G37*
G36*
X-222162Y61152D02*
X-222266D01*
Y61048D01*
X-222162D01*
Y61152D01*
D02*
G37*
G36*
X-226309Y60841D02*
X-226413D01*
Y60737D01*
X-226309D01*
Y60841D01*
D02*
G37*
G36*
X-221955Y60737D02*
X-222058D01*
Y60634D01*
X-221955D01*
Y60737D01*
D02*
G37*
G36*
X-221436Y59597D02*
X-221540D01*
Y59493D01*
X-221436D01*
Y59597D01*
D02*
G37*
G36*
X-226620Y53688D02*
X-226724D01*
Y53584D01*
X-226620D01*
Y53688D01*
D02*
G37*
G36*
X-220192Y52340D02*
X-220296D01*
Y52236D01*
X-220192D01*
Y52340D01*
D02*
G37*
G36*
X-220918Y51510D02*
X-221022D01*
Y51407D01*
X-220918D01*
Y51510D01*
D02*
G37*
G36*
X-225687Y49955D02*
X-225791D01*
Y49852D01*
X-225687D01*
Y49955D01*
D02*
G37*
G36*
X-209203Y64159D02*
X-209307D01*
Y64055D01*
X-209203D01*
Y64159D01*
D02*
G37*
G36*
X-211276Y62500D02*
X-211380D01*
Y62396D01*
X-211276D01*
Y62500D01*
D02*
G37*
G36*
X-211380Y62396D02*
X-211484D01*
Y62292D01*
X-211380D01*
Y62396D01*
D02*
G37*
G36*
X-210654Y58560D02*
X-210758D01*
Y58249D01*
X-210654D01*
Y58560D01*
D02*
G37*
G36*
X-212728Y56072D02*
X-212831D01*
Y55554D01*
X-212624D01*
Y55657D01*
X-212728D01*
Y56072D01*
D02*
G37*
G36*
X-212417Y54828D02*
X-212520D01*
Y54724D01*
X-212417D01*
Y54828D01*
D02*
G37*
G36*
X-209928Y54413D02*
X-210032D01*
Y54310D01*
X-209928D01*
Y54413D01*
D02*
G37*
G36*
X-212209Y54310D02*
X-212313D01*
Y54206D01*
X-212209D01*
Y54310D01*
D02*
G37*
G36*
X-211898Y53480D02*
X-212002D01*
Y53376D01*
X-211898D01*
Y53480D01*
D02*
G37*
G36*
X-211587Y52962D02*
X-211691D01*
Y52858D01*
X-211587D01*
Y52962D01*
D02*
G37*
G36*
X-210965Y52029D02*
X-211069D01*
Y51925D01*
X-210965D01*
Y52029D01*
D02*
G37*
G36*
X-210862Y51821D02*
X-210965D01*
Y51718D01*
X-210862D01*
Y51821D01*
D02*
G37*
G36*
X-210551Y51614D02*
X-210654D01*
Y51510D01*
X-210551D01*
Y51407D01*
X-210447D01*
Y51510D01*
X-210551D01*
Y51614D01*
D02*
G37*
G36*
X-210136Y51303D02*
X-210240D01*
Y51199D01*
X-210136D01*
Y51096D01*
X-210032D01*
Y51199D01*
X-210136D01*
Y51303D01*
D02*
G37*
G36*
X-209410Y50785D02*
X-209514D01*
Y50681D01*
X-209410D01*
Y50785D01*
D02*
G37*
G36*
X-209307Y48608D02*
X-209410D01*
Y48400D01*
X-209307D01*
Y48608D01*
D02*
G37*
G36*
X-211691Y46016D02*
X-211795D01*
Y45912D01*
X-211691D01*
Y45808D01*
X-211587D01*
Y45912D01*
X-211691D01*
Y46016D01*
D02*
G37*
G36*
X-211380Y45601D02*
X-211484D01*
Y45497D01*
X-211380D01*
Y45601D01*
D02*
G37*
G36*
X-211173Y45497D02*
X-211276D01*
Y45394D01*
X-211173D01*
Y45497D01*
D02*
G37*
G36*
X-210654Y45083D02*
X-210758D01*
Y44771D01*
X-210654D01*
Y45083D01*
D02*
G37*
G36*
X-221851Y37514D02*
X-221955D01*
Y37411D01*
X-221851D01*
Y37514D01*
D02*
G37*
G36*
X-220296Y36374D02*
X-220400D01*
Y36270D01*
X-220296D01*
Y36167D01*
X-220192D01*
Y36270D01*
X-220296D01*
Y36374D01*
D02*
G37*
G36*
X-224754Y34300D02*
X-224858D01*
Y34197D01*
X-224754D01*
Y34300D01*
D02*
G37*
G36*
X-222162Y33471D02*
X-222266D01*
Y33367D01*
X-222162D01*
Y33471D01*
D02*
G37*
G36*
X-209825Y37411D02*
X-209928D01*
Y37307D01*
X-209825D01*
Y37411D01*
D02*
G37*
G36*
X-210551Y37203D02*
X-210654D01*
Y37100D01*
X-210551D01*
Y37203D01*
D02*
G37*
G36*
X-212417Y30154D02*
X-212520D01*
Y30050D01*
X-212417D01*
Y30154D01*
D02*
G37*
G36*
X-211380Y28287D02*
X-211484D01*
Y28184D01*
X-211380D01*
Y28080D01*
X-211276D01*
Y28184D01*
X-211380D01*
Y28287D01*
D02*
G37*
G36*
X-210965Y27873D02*
X-211069D01*
Y27769D01*
X-210965D01*
Y27873D01*
D02*
G37*
G36*
X-210447Y27458D02*
X-210654D01*
Y27354D01*
X-210551D01*
Y27251D01*
X-210343D01*
Y27354D01*
X-210447D01*
Y27458D01*
D02*
G37*
G36*
Y27147D02*
X-210551D01*
Y26940D01*
X-210447D01*
Y27147D01*
D02*
G37*
G36*
X-224339Y21549D02*
X-224443D01*
Y21445D01*
X-224339D01*
Y21341D01*
X-224235D01*
Y21445D01*
X-224339D01*
Y21549D01*
D02*
G37*
G36*
X-220089Y20615D02*
X-220192D01*
Y20512D01*
X-220089D01*
Y20615D01*
D02*
G37*
G36*
X-221436Y18127D02*
X-221540D01*
Y18024D01*
X-221436D01*
Y18127D01*
D02*
G37*
G36*
X-223302D02*
X-223406D01*
Y18024D01*
X-223302D01*
Y18127D01*
D02*
G37*
G36*
X-221229Y17713D02*
X-221333D01*
Y17609D01*
X-221229D01*
Y17713D01*
D02*
G37*
G36*
X-218741Y13566D02*
X-218845D01*
Y13462D01*
X-218741D01*
Y13566D01*
D02*
G37*
G36*
X-222680Y9833D02*
X-222784D01*
Y9730D01*
X-222680D01*
Y9833D01*
D02*
G37*
G36*
X-220400Y9108D02*
X-220503D01*
Y9004D01*
X-220400D01*
Y9108D01*
D02*
G37*
G36*
X-221436Y8278D02*
X-221540D01*
Y8175D01*
X-221436D01*
Y8278D01*
D02*
G37*
G36*
X-210551Y21341D02*
X-210654D01*
Y21237D01*
X-210551D01*
Y21341D01*
D02*
G37*
G36*
X-211276Y20823D02*
X-211380D01*
Y20719D01*
X-211276D01*
Y20823D01*
D02*
G37*
G36*
X-210551Y15121D02*
X-210654D01*
Y15017D01*
X-210551D01*
Y15121D01*
D02*
G37*
G36*
X-211898Y10663D02*
X-212002D01*
Y10559D01*
X-211898D01*
Y10663D01*
D02*
G37*
G36*
X-211380Y9833D02*
X-211484D01*
Y9626D01*
X-211276D01*
Y9730D01*
X-211380D01*
Y9833D01*
D02*
G37*
G36*
X-220296Y5272D02*
X-220400D01*
Y5168D01*
X-220296D01*
Y5272D01*
D02*
G37*
G36*
X-222162Y5168D02*
X-222266D01*
Y5064D01*
X-222162D01*
Y5168D01*
D02*
G37*
G36*
X-219985Y4753D02*
X-220089D01*
Y4650D01*
X-219985D01*
Y4753D01*
D02*
G37*
G36*
X-226309Y3198D02*
X-226413D01*
Y2991D01*
X-226309D01*
Y3198D01*
D02*
G37*
G36*
Y2887D02*
X-226413D01*
Y2784D01*
X-226309D01*
Y2887D01*
D02*
G37*
G36*
Y2680D02*
X-226413D01*
Y2576D01*
X-226309D01*
Y2680D01*
D02*
G37*
G36*
X-221644Y-2607D02*
X-221747D01*
Y-2711D01*
X-221644D01*
Y-2607D01*
D02*
G37*
G36*
X-221747Y-2815D02*
X-221851D01*
Y-2919D01*
X-221747D01*
Y-2815D01*
D02*
G37*
G36*
X-226309Y-3955D02*
X-226413D01*
Y-4163D01*
X-226309D01*
Y-3955D01*
D02*
G37*
G36*
X-219570Y-4370D02*
X-219674D01*
Y-4474D01*
X-219570D01*
Y-4370D01*
D02*
G37*
G36*
X-220192Y-5407D02*
X-220296D01*
Y-5510D01*
X-220192D01*
Y-5407D01*
D02*
G37*
G36*
X-220814Y-6132D02*
X-220918D01*
Y-6236D01*
X-220814D01*
Y-6132D01*
D02*
G37*
G36*
X-220918Y-6236D02*
X-221022D01*
Y-6340D01*
X-220918D01*
Y-6236D01*
D02*
G37*
G36*
X-221436Y-6651D02*
X-221540D01*
Y-6754D01*
X-221436D01*
Y-6651D01*
D02*
G37*
G36*
X-211276Y4753D02*
X-211380D01*
Y4650D01*
X-211276D01*
Y4753D01*
D02*
G37*
G36*
X-212624Y2265D02*
X-212728D01*
Y1954D01*
X-212624D01*
Y2265D01*
D02*
G37*
G36*
X-210551Y1643D02*
X-210654D01*
Y1540D01*
X-210551D01*
Y1643D01*
D02*
G37*
G36*
X-212624Y-2296D02*
X-212728D01*
Y-2400D01*
X-212624D01*
Y-2296D01*
D02*
G37*
G36*
X-211587Y-4785D02*
X-211691D01*
Y-4888D01*
X-211587D01*
Y-4785D01*
D02*
G37*
G36*
X-20393Y-100575D02*
X-22644D01*
X-22834Y-100585D01*
X-23014Y-100596D01*
X-23183Y-100607D01*
X-23331Y-100617D01*
X-23468Y-100638D01*
X-23595Y-100660D01*
X-23700Y-100670D01*
X-23795Y-100691D01*
X-23880Y-100712D01*
X-23944Y-100733D01*
X-24007Y-100744D01*
X-24049Y-100755D01*
X-24081Y-100765D01*
X-24091Y-100776D01*
X-24102D01*
X-24239Y-100839D01*
X-24366Y-100903D01*
X-24599Y-101072D01*
X-24810Y-101251D01*
X-24990Y-101441D01*
X-25127Y-101610D01*
X-25190Y-101684D01*
X-25233Y-101748D01*
X-25275Y-101811D01*
X-25306Y-101854D01*
X-25317Y-101875D01*
X-25328Y-101885D01*
X-25412Y-102044D01*
X-25497Y-102223D01*
X-25624Y-102593D01*
X-25708Y-102984D01*
X-25771Y-103364D01*
X-25793Y-103544D01*
X-25814Y-103703D01*
X-25824Y-103850D01*
Y-103977D01*
X-25835Y-104083D01*
Y-104167D01*
Y-104210D01*
Y-104231D01*
X-25824Y-104632D01*
X-25793Y-104992D01*
X-25771Y-105161D01*
X-25750Y-105309D01*
X-25729Y-105457D01*
X-25708Y-105583D01*
X-25676Y-105700D01*
X-25655Y-105805D01*
X-25634Y-105900D01*
X-25613Y-105974D01*
X-25592Y-106038D01*
X-25581Y-106080D01*
X-25571Y-106101D01*
Y-106112D01*
X-25465Y-106386D01*
X-25349Y-106629D01*
X-25233Y-106841D01*
X-25127Y-107020D01*
X-25021Y-107158D01*
X-24937Y-107263D01*
X-24884Y-107327D01*
X-24873Y-107337D01*
X-24863Y-107348D01*
X-24736Y-107464D01*
X-24588Y-107570D01*
X-24440Y-107654D01*
X-24303Y-107728D01*
X-24176Y-107781D01*
X-24081Y-107823D01*
X-24039Y-107834D01*
X-24007Y-107845D01*
X-23996Y-107855D01*
X-23986D01*
X-23764Y-107908D01*
X-23521Y-107950D01*
X-23267Y-107982D01*
X-23024Y-108003D01*
X-22813Y-108014D01*
X-22718D01*
X-22633Y-108024D01*
X-20393D01*
Y-100575D01*
D02*
G37*
G36*
X136567Y193920D02*
X136377D01*
X136261Y193899D01*
X136039Y193846D01*
X135838Y193772D01*
X135680Y193698D01*
X135542Y193614D01*
X135447Y193540D01*
X135384Y193487D01*
X135363Y193476D01*
Y193466D01*
X135278Y193381D01*
X135215Y193286D01*
X135099Y193106D01*
X135014Y192916D01*
X134961Y192747D01*
X134930Y192589D01*
X134919Y192472D01*
X134909Y192420D01*
Y192388D01*
Y192367D01*
Y192356D01*
X134930Y192134D01*
X134982Y191934D01*
X135046Y191744D01*
X135130Y191595D01*
X135215Y191469D01*
X135278Y191374D01*
X135331Y191321D01*
X135352Y191300D01*
X135532Y191152D01*
X135722Y191046D01*
X135912Y190972D01*
X136092Y190919D01*
X136250Y190888D01*
X136314Y190877D01*
X136377D01*
X136430Y190866D01*
X136493D01*
X136747Y190888D01*
X136980Y190930D01*
X137180Y191004D01*
X137339Y191088D01*
X137476Y191162D01*
X137571Y191236D01*
X137635Y191278D01*
X137656Y191300D01*
X137804Y191469D01*
X137909Y191659D01*
X137983Y191849D01*
X138036Y192029D01*
X138068Y192187D01*
X138078Y192251D01*
Y192314D01*
X138089Y192367D01*
Y192399D01*
Y192420D01*
Y192430D01*
X138068Y192652D01*
X138015Y192853D01*
X137952Y193033D01*
X137867Y193181D01*
X137782Y193307D01*
X137719Y193402D01*
X137666Y193455D01*
X137645Y193476D01*
X137465Y193624D01*
X137275Y193730D01*
X137085Y193815D01*
X136905Y193867D01*
X136747Y193899D01*
X136673Y193910D01*
X136620D01*
X136567Y193920D01*
D02*
G37*
G36*
X136610Y189884D02*
X136525D01*
X136367Y189873D01*
X136219Y189863D01*
X135933Y189799D01*
X135690Y189704D01*
X135479Y189599D01*
X135394Y189546D01*
X135310Y189493D01*
X135247Y189450D01*
X135194Y189398D01*
X135141Y189366D01*
X135109Y189334D01*
X135099Y189324D01*
X135088Y189313D01*
X134982Y189207D01*
X134898Y189091D01*
X134813Y188975D01*
X134750Y188859D01*
X134644Y188616D01*
X134581Y188394D01*
X134539Y188193D01*
X134528Y188109D01*
X134517Y188035D01*
X134507Y187971D01*
Y187929D01*
Y187897D01*
Y187887D01*
X134517Y187728D01*
X134528Y187580D01*
X134592Y187316D01*
X134687Y187073D01*
X134782Y186872D01*
X134834Y186788D01*
X134887Y186714D01*
X134940Y186651D01*
X134982Y186587D01*
X135014Y186545D01*
X135046Y186513D01*
X135056Y186502D01*
X135067Y186492D01*
X135173Y186397D01*
X135289Y186312D01*
X135405Y186238D01*
X135521Y186175D01*
X135764Y186080D01*
X135986Y186017D01*
X136187Y185974D01*
X136271Y185964D01*
X136346Y185953D01*
X136409Y185942D01*
X136493D01*
X136694Y185953D01*
X136884Y185985D01*
X137064Y186027D01*
X137212Y186069D01*
X137349Y186112D01*
X137444Y186154D01*
X137508Y186185D01*
X137518Y186196D01*
X137529D01*
X137698Y186302D01*
X137846Y186429D01*
X137962Y186545D01*
X138068Y186661D01*
X138142Y186767D01*
X138205Y186862D01*
X138237Y186915D01*
X138247Y186936D01*
X138321Y187115D01*
X138385Y187295D01*
X138427Y187464D01*
X138448Y187612D01*
X138469Y187739D01*
X138480Y187845D01*
Y187908D01*
Y187918D01*
Y187929D01*
X138469Y188088D01*
X138459Y188225D01*
X138395Y188500D01*
X138311Y188743D01*
X138205Y188943D01*
X138152Y189028D01*
X138099Y189102D01*
X138057Y189165D01*
X138015Y189229D01*
X137983Y189271D01*
X137952Y189303D01*
X137941Y189313D01*
X137930Y189324D01*
X137825Y189419D01*
X137709Y189514D01*
X137592Y189588D01*
X137476Y189651D01*
X137244Y189746D01*
X137022Y189810D01*
X136821Y189852D01*
X136736Y189863D01*
X136663Y189873D01*
X136610Y189884D01*
D02*
G37*
G36*
X137543Y40159D02*
X137543Y40148D01*
Y40159D01*
X137543Y40159D01*
D02*
G37*
G36*
X135493Y40391D02*
X135420D01*
X135272Y40380D01*
X135124Y40370D01*
X134859Y40296D01*
X134627Y40201D01*
X134426Y40095D01*
X134268Y39989D01*
X134204Y39937D01*
X134151Y39894D01*
X134109Y39852D01*
X134078Y39820D01*
X134067Y39810D01*
X134056Y39799D01*
X133961Y39683D01*
X133877Y39567D01*
X133803Y39440D01*
X133739Y39303D01*
X133644Y39039D01*
X133581Y38785D01*
X133560Y38669D01*
X133549Y38563D01*
X133539Y38468D01*
X133528Y38383D01*
X133518Y38309D01*
Y38256D01*
Y38225D01*
Y38214D01*
X133528Y38024D01*
X133539Y37845D01*
X133570Y37665D01*
X133602Y37506D01*
X133644Y37358D01*
X133687Y37221D01*
X133739Y37094D01*
X133792Y36989D01*
X133845Y36883D01*
X133898Y36798D01*
X133940Y36724D01*
X133982Y36661D01*
X134014Y36608D01*
X134046Y36576D01*
X134056Y36555D01*
X134067Y36545D01*
X134173Y36439D01*
X134278Y36344D01*
X134384Y36270D01*
X134500Y36196D01*
X134606Y36143D01*
X134722Y36090D01*
X134923Y36016D01*
X135103Y35974D01*
X135176Y35964D01*
X135250Y35953D01*
X135303Y35942D01*
X135377D01*
X135567Y35953D01*
X135758Y35985D01*
X135927Y36038D01*
X136075Y36090D01*
X136201Y36143D01*
X136297Y36196D01*
X136360Y36228D01*
X136370Y36238D01*
X136381D01*
X136550Y36365D01*
X136687Y36502D01*
X136814Y36640D01*
X136920Y36777D01*
X137004Y36904D01*
X137057Y36999D01*
X137078Y37041D01*
X137100Y37073D01*
X137110Y37084D01*
Y37094D01*
X137195Y37306D01*
X137258Y37517D01*
X137300Y37718D01*
X137332Y37897D01*
X137353Y38056D01*
Y38119D01*
X137364Y38172D01*
Y38214D01*
Y38246D01*
Y38267D01*
Y38278D01*
X137353Y38447D01*
X137343Y38616D01*
X137279Y38912D01*
X137184Y39176D01*
X137131Y39292D01*
X137078Y39387D01*
X137036Y39482D01*
X136983Y39567D01*
X136931Y39641D01*
X136888Y39694D01*
X136856Y39736D01*
X136825Y39767D01*
X136814Y39789D01*
X136804Y39799D01*
X136698Y39905D01*
X136582Y40000D01*
X136466Y40074D01*
X136349Y40137D01*
X136117Y40243D01*
X135895Y40317D01*
X135705Y40359D01*
X135620Y40370D01*
X135557Y40380D01*
X135493Y40391D01*
D02*
G37*
G36*
X-145177Y-105052D02*
Y-109448D01*
X-142103D01*
X-145177Y-105052D01*
D02*
G37*
%LPD*%
D10*
X-116250Y-54000D02*
G03*
X-116250Y-54000I-1250J0D01*
G01*
X118750Y204000D02*
G03*
X118750Y204000I-1250J0D01*
G01*
Y-96000D02*
G03*
X118750Y-96000I-1250J0D01*
G01*
X-116250Y86000D02*
G03*
X-116250Y86000I-1250J0D01*
G01*
X118750Y54000D02*
G03*
X118750Y54000I-1250J0D01*
G01*
X-116250Y-204000D02*
G03*
X-116250Y-204000I-1250J0D01*
G01*
D11*
X-110000Y-28250D02*
Y28250D01*
X-152250Y30000D02*
X-127750D01*
X-170000Y-28250D02*
Y28250D01*
X-152250Y-30000D02*
X-127750D01*
X110000Y121750D02*
Y178250D01*
X127750Y120000D02*
X152250D01*
X170000Y121750D02*
Y178250D01*
X127750Y180000D02*
X152250D01*
X110000Y-178250D02*
Y-121750D01*
X127750Y-180000D02*
X152250D01*
X170000Y-178250D02*
Y-121750D01*
X127750Y-120000D02*
X152250D01*
X-152250Y110000D02*
X-127750D01*
X-170000Y111750D02*
Y168250D01*
X-152250Y170000D02*
X-127750D01*
X-110000Y111750D02*
Y168250D01*
X127750Y30000D02*
X152250D01*
X170000Y-28250D02*
Y28250D01*
X127750Y-30000D02*
X152250D01*
X110000Y-28250D02*
Y28250D01*
X-152250Y-180000D02*
X-127750D01*
X-170000Y-178250D02*
Y-121750D01*
X-152250Y-120000D02*
X-127750D01*
X-110000Y-178250D02*
Y-121750D01*
D14*
X17205Y-140000D02*
G03*
X17205Y-140000I-17205J0D01*
G01*
X-25000Y-116632D02*
Y-115000D01*
X25000Y-116632D02*
Y-115000D01*
Y-165000D02*
Y-163368D01*
X25000Y-148890D02*
Y-131110D01*
X-25000Y-115000D02*
X25000D01*
X-16000Y-165000D02*
X25000D01*
X-17635Y-163365D02*
X-16000Y-165000D01*
X-25000Y-148890D02*
Y-131110D01*
M02*
