G04*
G04 #@! TF.GenerationSoftware,Altium Limited,Altium Designer,22.10.1 (41)*
G04*
G04 Layer_Physical_Order=2*
G04 Layer_Color=36540*
%FSLAX44Y44*%
%MOMM*%
G71*
G04*
G04 #@! TF.SameCoordinates,6FA54AF5-B1EA-40D0-AA23-297218595CE5*
G04*
G04*
G04 #@! TF.FilePolarity,Positive*
G04*
G01*
G75*
%ADD13C,0.2540*%
%ADD91C,0.2032*%
%ADD106C,1.0000*%
%ADD109O,1.0500X2.1000*%
%ADD110O,1.0000X2.0000*%
%ADD111C,1.6000*%
%ADD113C,0.6000*%
%ADD114C,0.6600*%
G36*
X224170Y221325D02*
X228236Y220349D01*
X232100Y218748D01*
X235666Y216563D01*
X238847Y213847D01*
X241563Y210666D01*
X243748Y207100D01*
X245349Y203236D01*
X246325Y199170D01*
X246652Y195020D01*
X246633Y195000D01*
X246633D01*
X246890Y193712D01*
X247619Y192619D01*
X247024Y191490D01*
X246890Y191288D01*
X246633Y190000D01*
Y-161000D01*
X56265D01*
X56013Y-159730D01*
X56650Y-159466D01*
X58066Y-158050D01*
X58832Y-156201D01*
Y-154199D01*
X58066Y-152350D01*
X56650Y-150934D01*
X54801Y-150168D01*
X52799D01*
X50950Y-150934D01*
X49534Y-152350D01*
X48768Y-154199D01*
Y-156201D01*
X49534Y-158050D01*
X50950Y-159466D01*
X51587Y-159730D01*
X51335Y-161000D01*
X-142209D01*
X-143183Y-159730D01*
X-142968Y-158926D01*
Y-157074D01*
X-143447Y-155286D01*
X-144373Y-153682D01*
X-145682Y-152373D01*
X-147286Y-151447D01*
X-149074Y-150968D01*
X-150926D01*
X-152714Y-151447D01*
X-154318Y-152373D01*
X-155627Y-153682D01*
X-156553Y-155286D01*
X-157032Y-157074D01*
Y-158926D01*
X-156817Y-159730D01*
X-157791Y-161000D01*
X-246633D01*
Y193739D01*
X-246633Y193746D01*
X-246633Y195000D01*
X-246556Y196238D01*
X-246325Y199170D01*
X-245349Y203236D01*
X-243748Y207100D01*
X-241563Y210666D01*
X-238847Y213847D01*
X-235666Y216563D01*
X-232100Y218748D01*
X-228236Y220349D01*
X-224170Y221325D01*
X-220072Y221647D01*
X-220000Y221633D01*
X220000D01*
X220072Y221647D01*
X224170Y221325D01*
D02*
G37*
%LPC*%
G36*
X-62998Y214281D02*
X-65000D01*
X-66850Y213515D01*
X-68265Y212099D01*
X-69031Y210250D01*
Y208248D01*
X-68265Y206399D01*
X-66850Y204983D01*
X-65000Y204217D01*
X-62998D01*
X-61149Y204983D01*
X-59733Y206399D01*
X-58967Y208248D01*
Y210250D01*
X-59733Y212099D01*
X-61149Y213515D01*
X-62998Y214281D01*
D02*
G37*
G36*
X-101999Y214032D02*
X-104001D01*
X-105850Y213266D01*
X-107266Y211850D01*
X-108032Y210001D01*
Y207999D01*
X-107266Y206150D01*
X-105850Y204734D01*
X-104001Y203968D01*
X-101999D01*
X-100150Y204734D01*
X-98734Y206150D01*
X-97968Y207999D01*
Y210001D01*
X-98734Y211850D01*
X-100150Y213266D01*
X-101999Y214032D01*
D02*
G37*
G36*
X44468Y213142D02*
Y201974D01*
X50803D01*
Y205704D01*
X50544Y207672D01*
X49784Y209507D01*
X48576Y211082D01*
X47000Y212290D01*
X45166Y213050D01*
X44468Y213142D01*
D02*
G37*
G36*
X-41932D02*
Y201974D01*
X-35597D01*
Y205704D01*
X-35856Y207672D01*
X-36616Y209507D01*
X-37824Y211082D01*
X-39399Y212290D01*
X-41234Y213050D01*
X-41932Y213142D01*
D02*
G37*
G36*
X41928D02*
X41230Y213050D01*
X39395Y212290D01*
X37820Y211082D01*
X36612Y209507D01*
X35852Y207672D01*
X35593Y205704D01*
Y201974D01*
X41928D01*
Y213142D01*
D02*
G37*
G36*
X-44472D02*
X-45170Y213050D01*
X-47004Y212290D01*
X-48580Y211082D01*
X-49788Y209507D01*
X-50548Y207672D01*
X-50807Y205704D01*
Y201974D01*
X-44472D01*
Y213142D01*
D02*
G37*
G36*
X-16074Y209032D02*
X-17926D01*
X-19714Y208553D01*
X-21318Y207627D01*
X-22627Y206318D01*
X-23553Y204714D01*
X-24032Y202926D01*
Y201074D01*
X-23553Y199286D01*
X-22627Y197682D01*
X-21318Y196373D01*
X-19714Y195447D01*
X-17926Y194968D01*
X-16074D01*
X-14286Y195447D01*
X-12682Y196373D01*
X-11373Y197682D01*
X-10447Y199286D01*
X-9968Y201074D01*
Y202926D01*
X-10447Y204714D01*
X-11373Y206318D01*
X-12682Y207627D01*
X-14286Y208553D01*
X-16074Y209032D01*
D02*
G37*
G36*
X50803Y199434D02*
X44468D01*
Y188266D01*
X45166Y188358D01*
X47000Y189118D01*
X48576Y190326D01*
X49784Y191901D01*
X50544Y193736D01*
X50803Y195704D01*
Y199434D01*
D02*
G37*
G36*
X-35597D02*
X-41932D01*
Y188266D01*
X-41234Y188358D01*
X-39399Y189118D01*
X-37824Y190326D01*
X-36616Y191901D01*
X-35856Y193736D01*
X-35597Y195704D01*
Y199434D01*
D02*
G37*
G36*
X-44472D02*
X-50807D01*
Y195704D01*
X-50548Y193736D01*
X-49788Y191901D01*
X-48580Y190326D01*
X-47004Y189118D01*
X-45170Y188358D01*
X-44472Y188266D01*
Y199434D01*
D02*
G37*
G36*
X41928D02*
X35593D01*
Y195704D01*
X35852Y193736D01*
X36612Y191901D01*
X37820Y190326D01*
X39395Y189118D01*
X41230Y188358D01*
X41928Y188266D01*
Y199434D01*
D02*
G37*
G36*
X97500Y203533D02*
X95498D01*
X93648Y202767D01*
X92233Y201352D01*
X91467Y199502D01*
Y197500D01*
X92233Y195651D01*
X93648Y194235D01*
X95498Y193469D01*
X97500D01*
X99054Y194113D01*
X99934Y193459D01*
X100078Y193267D01*
X99968Y193001D01*
Y190999D01*
X100734Y189150D01*
X102150Y187734D01*
X103999Y186968D01*
X106001D01*
X107850Y187734D01*
X109266Y189150D01*
X110032Y190999D01*
Y193001D01*
X109266Y194850D01*
X107850Y196266D01*
X106001Y197032D01*
X103999D01*
X102445Y196388D01*
X101565Y197042D01*
X101420Y197234D01*
X101531Y197500D01*
Y199502D01*
X100765Y201352D01*
X99349Y202767D01*
X97500Y203533D01*
D02*
G37*
G36*
X221677Y212032D02*
X218323D01*
X215032Y211378D01*
X211932Y210094D01*
X209143Y208230D01*
X206770Y205857D01*
X204906Y203068D01*
X203622Y199968D01*
X202968Y196677D01*
Y193323D01*
X203622Y190032D01*
X204906Y186932D01*
X206770Y184143D01*
X209143Y181770D01*
X211932Y179906D01*
X215032Y178622D01*
X218323Y177968D01*
X221677D01*
X224968Y178622D01*
X228068Y179906D01*
X230857Y181770D01*
X233230Y184143D01*
X235094Y186932D01*
X236378Y190032D01*
X237032Y193323D01*
Y196677D01*
X236378Y199968D01*
X235094Y203068D01*
X233230Y205857D01*
X230857Y208230D01*
X228068Y210094D01*
X224968Y211378D01*
X221677Y212032D01*
D02*
G37*
G36*
X-218323D02*
X-221677D01*
X-224968Y211378D01*
X-228068Y210094D01*
X-230857Y208230D01*
X-233230Y205857D01*
X-235094Y203068D01*
X-236378Y199968D01*
X-237032Y196677D01*
Y193323D01*
X-236378Y190032D01*
X-235094Y186932D01*
X-233230Y184143D01*
X-230857Y181770D01*
X-228068Y179906D01*
X-224968Y178622D01*
X-221677Y177968D01*
X-218323D01*
X-215032Y178622D01*
X-211932Y179906D01*
X-209143Y181770D01*
X-206770Y184143D01*
X-204906Y186932D01*
X-203622Y190032D01*
X-202968Y193323D01*
Y196677D01*
X-203622Y199968D01*
X-204906Y203068D01*
X-206770Y205857D01*
X-209143Y208230D01*
X-211932Y210094D01*
X-215032Y211378D01*
X-218323Y212032D01*
D02*
G37*
G36*
X55002Y185031D02*
X53000D01*
X51150Y184265D01*
X49735Y182850D01*
X48969Y181000D01*
Y178998D01*
X49735Y177149D01*
X51150Y175733D01*
X53000Y174967D01*
X55002D01*
X56851Y175733D01*
X58267Y177149D01*
X59033Y178998D01*
Y181000D01*
X58267Y182850D01*
X56851Y184265D01*
X55002Y185031D01*
D02*
G37*
G36*
X3499Y175534D02*
X1497D01*
X-352Y174768D01*
X-1768Y173352D01*
X-2534Y171503D01*
Y169501D01*
X-1768Y167652D01*
X-352Y166236D01*
X1497Y165470D01*
X3499D01*
X5348Y166236D01*
X6764Y167652D01*
X7530Y169501D01*
Y171503D01*
X6764Y173352D01*
X5348Y174768D01*
X3499Y175534D01*
D02*
G37*
G36*
X41930Y171844D02*
X41166Y171744D01*
X39271Y170959D01*
X37644Y169710D01*
X36395Y168083D01*
X35610Y166188D01*
X35449Y164958D01*
X34180Y164955D01*
X33376Y166896D01*
X31890Y168382D01*
X29949Y169186D01*
X27847D01*
X25906Y168382D01*
X24420Y166896D01*
X23616Y164955D01*
Y162853D01*
X24420Y160912D01*
X25906Y159426D01*
X27847Y158622D01*
X29949D01*
X31890Y159426D01*
X33376Y160912D01*
X34073Y162595D01*
X35343Y162342D01*
Y160174D01*
X41930D01*
Y171844D01*
D02*
G37*
G36*
X-11999Y183032D02*
X-14001D01*
X-15850Y182266D01*
X-17266Y180850D01*
X-18032Y179001D01*
Y177032D01*
X-20001D01*
X-21850Y176266D01*
X-23266Y174850D01*
X-24032Y173001D01*
Y170999D01*
X-23266Y169150D01*
X-21850Y167734D01*
X-20001Y166968D01*
X-17999D01*
X-17044Y167364D01*
X-16688Y167207D01*
X-15882Y166470D01*
Y164849D01*
X-15116Y162999D01*
X-13700Y161584D01*
X-11851Y160818D01*
X-9849D01*
X-7999Y161584D01*
X-6584Y162999D01*
X-5818Y164849D01*
Y166851D01*
X-6584Y168700D01*
X-7999Y170116D01*
X-9849Y170882D01*
X-11851D01*
X-12806Y170486D01*
X-13161Y170643D01*
X-13968Y171379D01*
Y172968D01*
X-11999D01*
X-10150Y173734D01*
X-8734Y175150D01*
X-7968Y176999D01*
Y179001D01*
X-8734Y180850D01*
X-10150Y182266D01*
X-11999Y183032D01*
D02*
G37*
G36*
X44470Y171844D02*
Y160174D01*
X51057D01*
Y164154D01*
X50789Y166188D01*
X50005Y168083D01*
X48756Y169710D01*
X47129Y170959D01*
X45234Y171744D01*
X44470Y171844D01*
D02*
G37*
G36*
X-44472D02*
X-45236Y171744D01*
X-47131Y170959D01*
X-48758Y169710D01*
X-50006Y168083D01*
X-50792Y166188D01*
X-51059Y164154D01*
Y160174D01*
X-44472D01*
Y171844D01*
D02*
G37*
G36*
X-41932D02*
Y160174D01*
X-35345D01*
Y162337D01*
X-34075Y162590D01*
X-33380Y160912D01*
X-31894Y159426D01*
X-29953Y158622D01*
X-27851D01*
X-25910Y159426D01*
X-24424Y160912D01*
X-23620Y162853D01*
Y164955D01*
X-24424Y166896D01*
X-25910Y168382D01*
X-27851Y169186D01*
X-29953D01*
X-31894Y168382D01*
X-33380Y166896D01*
X-34184Y164955D01*
X-35451Y164962D01*
X-35612Y166188D01*
X-36398Y168083D01*
X-37646Y169710D01*
X-39273Y170959D01*
X-41168Y171744D01*
X-41932Y171844D01*
D02*
G37*
G36*
X-62998Y167781D02*
X-65000D01*
X-66850Y167015D01*
X-68265Y165600D01*
X-69031Y163750D01*
Y161749D01*
X-68265Y159899D01*
X-66850Y158483D01*
X-65000Y157717D01*
X-62998D01*
X-61149Y158483D01*
X-59733Y159899D01*
X-58967Y161749D01*
Y163750D01*
X-59733Y165600D01*
X-61149Y167015D01*
X-62998Y167781D01*
D02*
G37*
G36*
X-158998Y167532D02*
X-161000D01*
X-162850Y166765D01*
X-164265Y165350D01*
X-165031Y163500D01*
Y161499D01*
X-164265Y159649D01*
X-162850Y158234D01*
X-161000Y157468D01*
X-158998D01*
X-157149Y158234D01*
X-155733Y159649D01*
X-154967Y161499D01*
Y163500D01*
X-155733Y165350D01*
X-157149Y166765D01*
X-158998Y167532D01*
D02*
G37*
G36*
X-145999Y166032D02*
X-148001D01*
X-149850Y165266D01*
X-151266Y163850D01*
X-152032Y162001D01*
Y159999D01*
X-151266Y158150D01*
X-149850Y156734D01*
X-148001Y155968D01*
X-145999D01*
X-144150Y156734D01*
X-142734Y158150D01*
X-141968Y159999D01*
Y162001D01*
X-142734Y163850D01*
X-144150Y165266D01*
X-145999Y166032D01*
D02*
G37*
G36*
X-95730Y152966D02*
Y146770D01*
X-89534D01*
X-89974Y148410D01*
X-90967Y150130D01*
X-92370Y151533D01*
X-94090Y152526D01*
X-95730Y152966D01*
D02*
G37*
G36*
X-98270D02*
X-99910Y152526D01*
X-101630Y151533D01*
X-103034Y150130D01*
X-104026Y148410D01*
X-104466Y146770D01*
X-98270D01*
Y152966D01*
D02*
G37*
G36*
X-221999Y156032D02*
X-224001D01*
X-225850Y155266D01*
X-227266Y153850D01*
X-228032Y152001D01*
Y149999D01*
X-227266Y148150D01*
X-225850Y146734D01*
X-224001Y145968D01*
X-221999D01*
X-220150Y146734D01*
X-218734Y148150D01*
X-217968Y149999D01*
Y152001D01*
X-218734Y153850D01*
X-220150Y155266D01*
X-221999Y156032D01*
D02*
G37*
G36*
X-44472Y157634D02*
X-51059D01*
Y153654D01*
X-50792Y151620D01*
X-50006Y149725D01*
X-48758Y148098D01*
X-47131Y146849D01*
X-45236Y146065D01*
X-44472Y145964D01*
Y157634D01*
D02*
G37*
G36*
X51057Y157634D02*
X44470D01*
Y145964D01*
X45234Y146065D01*
X47129Y146849D01*
X48756Y148098D01*
X50005Y149725D01*
X50789Y151620D01*
X51057Y153654D01*
Y157634D01*
D02*
G37*
G36*
X41930D02*
X35343D01*
Y153654D01*
X35610Y151620D01*
X36395Y149725D01*
X37644Y148098D01*
X39271Y146849D01*
X41166Y146065D01*
X41930Y145964D01*
Y157634D01*
D02*
G37*
G36*
X-35345Y157634D02*
X-41932D01*
Y145964D01*
X-41168Y146065D01*
X-39273Y146849D01*
X-37646Y148098D01*
X-36398Y149725D01*
X-35612Y151620D01*
X-35345Y153654D01*
Y157634D01*
D02*
G37*
G36*
X220032Y150732D02*
X199968D01*
Y130668D01*
X220032D01*
Y150732D01*
D02*
G37*
G36*
X122001Y130032D02*
X119999D01*
X118150Y129266D01*
X116734Y127850D01*
X115968Y126001D01*
Y123999D01*
X116734Y122150D01*
X118150Y120734D01*
X119999Y119968D01*
X122001D01*
X123850Y120734D01*
X125266Y122150D01*
X126032Y123999D01*
Y126001D01*
X125266Y127850D01*
X123850Y129266D01*
X122001Y130032D01*
D02*
G37*
G36*
X211388Y125840D02*
X211270D01*
Y116570D01*
X220540D01*
Y116688D01*
X219822Y119368D01*
X218434Y121772D01*
X216472Y123734D01*
X214068Y125122D01*
X211388Y125840D01*
D02*
G37*
G36*
X208730D02*
X208612D01*
X205932Y125122D01*
X203528Y123734D01*
X201566Y121772D01*
X200178Y119368D01*
X199460Y116688D01*
Y116570D01*
X208730D01*
Y125840D01*
D02*
G37*
G36*
X-89534Y144230D02*
X-97000D01*
X-104707D01*
X-105524Y143273D01*
X-106760D01*
X-108610Y142507D01*
X-110025Y141091D01*
X-110791Y139242D01*
Y137240D01*
X-110025Y135390D01*
X-108610Y133975D01*
X-106760Y133209D01*
X-104758D01*
X-104032Y132724D01*
Y132074D01*
X-103553Y130286D01*
X-102696Y128802D01*
X-102952Y127898D01*
X-103104Y127532D01*
X-104032D01*
Y113468D01*
X-89968D01*
Y127532D01*
X-90897D01*
X-91048Y127898D01*
X-91304Y128802D01*
X-90447Y130286D01*
X-89968Y132074D01*
Y133926D01*
X-90447Y135714D01*
X-91373Y137318D01*
X-92171Y138115D01*
X-92341Y139270D01*
X-92087Y139750D01*
X-90967Y140870D01*
X-89974Y142590D01*
X-89534Y144230D01*
D02*
G37*
G36*
X-61999Y121032D02*
X-64001D01*
X-65850Y120266D01*
X-67266Y118850D01*
X-68032Y117001D01*
Y114999D01*
X-67266Y113150D01*
X-65850Y111734D01*
X-64001Y110968D01*
X-61999D01*
X-60150Y111734D01*
X-58734Y113150D01*
X-57968Y114999D01*
Y117001D01*
X-58734Y118850D01*
X-60150Y120266D01*
X-61999Y121032D01*
D02*
G37*
G36*
X-21999Y120032D02*
X-24001D01*
X-25850Y119266D01*
X-27266Y117850D01*
X-28032Y116001D01*
Y113999D01*
X-27266Y112150D01*
X-25850Y110734D01*
X-24001Y109968D01*
X-21999D01*
X-20150Y110734D01*
X-18734Y112150D01*
X-17968Y113999D01*
Y116001D01*
X-18734Y117850D01*
X-20150Y119266D01*
X-21999Y120032D01*
D02*
G37*
G36*
X220540Y114030D02*
X211270D01*
Y104760D01*
X211388D01*
X214068Y105478D01*
X216472Y106866D01*
X218434Y108828D01*
X219822Y111232D01*
X220540Y113912D01*
Y114030D01*
D02*
G37*
G36*
X208730D02*
X199460D01*
Y113912D01*
X200178Y111232D01*
X201566Y108828D01*
X203528Y106866D01*
X205932Y105478D01*
X208612Y104760D01*
X208730D01*
Y114030D01*
D02*
G37*
G36*
X-222371Y114556D02*
X-224372D01*
X-226222Y113789D01*
X-227637Y112374D01*
X-228403Y110524D01*
Y108523D01*
X-227637Y106673D01*
X-226222Y105258D01*
X-224372Y104492D01*
X-222371D01*
X-220521Y105258D01*
X-219106Y106673D01*
X-218340Y108523D01*
Y110524D01*
X-219106Y112374D01*
X-220521Y113789D01*
X-222371Y114556D01*
D02*
G37*
G36*
X18001Y114032D02*
X15999D01*
X14150Y113266D01*
X12734Y111850D01*
X11968Y110001D01*
Y107999D01*
X12734Y106150D01*
X14150Y104734D01*
X15999Y103968D01*
X18001D01*
X19850Y104734D01*
X21266Y106150D01*
X22032Y107999D01*
Y110001D01*
X21266Y111850D01*
X19850Y113266D01*
X18001Y114032D01*
D02*
G37*
G36*
X-42499Y111532D02*
X-44501D01*
X-46350Y110766D01*
X-47766Y109350D01*
X-48532Y107501D01*
Y105499D01*
X-47766Y103650D01*
X-46350Y102234D01*
X-44501Y101468D01*
X-42499D01*
X-40650Y102234D01*
X-39234Y103650D01*
X-38468Y105499D01*
Y107501D01*
X-39234Y109350D01*
X-40650Y110766D01*
X-42499Y111532D01*
D02*
G37*
G36*
X-72608Y100432D02*
X-86672D01*
Y99503D01*
X-87038Y99352D01*
X-87942Y99096D01*
X-89426Y99953D01*
X-91214Y100432D01*
X-93066D01*
X-94854Y99953D01*
X-96458Y99027D01*
X-97767Y97718D01*
X-98693Y96114D01*
X-99172Y94326D01*
Y92474D01*
X-99056Y92041D01*
X-99829Y91033D01*
X-99916D01*
X-101765Y90267D01*
X-103181Y88851D01*
X-103947Y87002D01*
Y85000D01*
X-103181Y83151D01*
X-101765Y81735D01*
X-99916Y80969D01*
X-97914D01*
X-96064Y81735D01*
X-94649Y83151D01*
X-93883Y85000D01*
Y85741D01*
X-93066Y86368D01*
X-91214D01*
X-89426Y86847D01*
X-87942Y87704D01*
X-87038Y87448D01*
X-86672Y87296D01*
Y86368D01*
X-72608D01*
Y100432D01*
D02*
G37*
G36*
X-110518Y91032D02*
X-112520D01*
X-114369Y90266D01*
X-115785Y88850D01*
X-116551Y87001D01*
Y84999D01*
X-115785Y83150D01*
X-114369Y81734D01*
X-112520Y80968D01*
X-110518D01*
X-108668Y81734D01*
X-107253Y83150D01*
X-106487Y84999D01*
Y87001D01*
X-107253Y88850D01*
X-108668Y90266D01*
X-110518Y91032D01*
D02*
G37*
G36*
X43592Y101722D02*
X29528D01*
Y87658D01*
X30457D01*
X30608Y87292D01*
X30864Y86388D01*
X30007Y84904D01*
X29528Y83116D01*
Y81264D01*
X30007Y79476D01*
X30933Y77872D01*
X32242Y76563D01*
X33846Y75637D01*
X35634Y75158D01*
X37486D01*
X39274Y75637D01*
X40878Y76563D01*
X42187Y77872D01*
X43113Y79476D01*
X43592Y81264D01*
Y83116D01*
X43113Y84904D01*
X42256Y86388D01*
X42512Y87292D01*
X42663Y87658D01*
X43592D01*
Y101722D01*
D02*
G37*
G36*
X-30999Y84500D02*
X-33001D01*
X-34850Y83734D01*
X-36266Y82318D01*
X-37032Y80469D01*
Y78467D01*
X-36266Y76618D01*
X-34850Y75202D01*
X-33001Y74436D01*
X-30999D01*
X-29150Y75202D01*
X-27734Y76618D01*
X-26968Y78467D01*
Y80469D01*
X-27734Y82318D01*
X-29150Y83734D01*
X-30999Y84500D01*
D02*
G37*
G36*
X-57999Y84415D02*
X-60001D01*
X-61850Y83649D01*
X-63266Y82233D01*
X-64032Y80384D01*
Y78382D01*
X-63266Y76532D01*
X-61850Y75117D01*
X-60001Y74351D01*
X-57999D01*
X-56150Y75117D01*
X-54734Y76532D01*
X-53968Y78382D01*
Y80384D01*
X-54734Y82233D01*
X-56150Y83649D01*
X-57999Y84415D01*
D02*
G37*
G36*
X-1999Y79032D02*
X-4001D01*
X-5850Y78266D01*
X-7266Y76850D01*
X-8032Y75001D01*
Y72999D01*
X-7266Y71150D01*
X-5850Y69734D01*
X-4001Y68968D01*
X-1999D01*
X-150Y69734D01*
X1266Y71150D01*
X2032Y72999D01*
Y75001D01*
X1266Y76850D01*
X-150Y78266D01*
X-1999Y79032D01*
D02*
G37*
G36*
X-143999Y72032D02*
X-146001D01*
X-147850Y71266D01*
X-149266Y69850D01*
X-150032Y68001D01*
Y65999D01*
X-149266Y64150D01*
X-147850Y62734D01*
X-146001Y61968D01*
X-143999D01*
X-142150Y62734D01*
X-140734Y64150D01*
X-139968Y65999D01*
Y68001D01*
X-140734Y69850D01*
X-142150Y71266D01*
X-143999Y72032D01*
D02*
G37*
G36*
X181001Y69032D02*
X178999D01*
X177150Y68266D01*
X175734Y66850D01*
X174968Y65001D01*
Y62999D01*
X175734Y61150D01*
X177150Y59734D01*
X178999Y58968D01*
X181001D01*
X182850Y59734D01*
X184266Y61150D01*
X185032Y62999D01*
Y65001D01*
X184266Y66850D01*
X182850Y68266D01*
X181001Y69032D01*
D02*
G37*
G36*
X17999Y69030D02*
X15998D01*
X14148Y68264D01*
X12732Y66849D01*
X11966Y64999D01*
Y62997D01*
X12732Y61148D01*
X14148Y59732D01*
X15998Y58966D01*
X17999D01*
X19849Y59732D01*
X21264Y61148D01*
X22030Y62997D01*
Y64999D01*
X21264Y66849D01*
X19849Y68264D01*
X17999Y69030D01*
D02*
G37*
G36*
X-217194Y67275D02*
X-219196D01*
X-221045Y66509D01*
X-222461Y65093D01*
X-223227Y63244D01*
Y61242D01*
X-222461Y59392D01*
X-221045Y57977D01*
X-219196Y57211D01*
X-217194D01*
X-215345Y57977D01*
X-213929Y59392D01*
X-213163Y61242D01*
Y63244D01*
X-213929Y65093D01*
X-215345Y66509D01*
X-217194Y67275D01*
D02*
G37*
G36*
X-121092Y64321D02*
X-123094D01*
X-124943Y63555D01*
X-126359Y62139D01*
X-127125Y60290D01*
Y58288D01*
X-126359Y56439D01*
X-124943Y55023D01*
X-123094Y54257D01*
X-121092D01*
X-119242Y55023D01*
X-117827Y56439D01*
X-117061Y58288D01*
Y60290D01*
X-117827Y62139D01*
X-119242Y63555D01*
X-121092Y64321D01*
D02*
G37*
G36*
X62001Y51032D02*
X59999D01*
X58150Y50266D01*
X56734Y48850D01*
X55968Y47001D01*
Y44999D01*
X56734Y43150D01*
X58150Y41734D01*
X59999Y40968D01*
X62001D01*
X63850Y41734D01*
X65266Y43150D01*
X66032Y44999D01*
Y47001D01*
X65266Y48850D01*
X63850Y50266D01*
X62001Y51032D01*
D02*
G37*
G36*
X-8128Y40432D02*
X-22192D01*
Y39504D01*
X-22558Y39352D01*
X-23462Y39096D01*
X-24946Y39953D01*
X-26734Y40432D01*
X-28586D01*
X-30374Y39953D01*
X-31978Y39027D01*
X-33287Y37718D01*
X-34213Y36114D01*
X-34692Y34326D01*
Y32474D01*
X-34213Y30686D01*
X-33287Y29082D01*
X-31978Y27773D01*
X-30374Y26847D01*
X-28586Y26368D01*
X-26734D01*
X-24946Y26847D01*
X-23462Y27704D01*
X-22558Y27448D01*
X-22192Y27297D01*
Y26368D01*
X-8128D01*
Y40432D01*
D02*
G37*
G36*
X50001Y47032D02*
X47999D01*
X46150Y46266D01*
X44734Y44850D01*
X43968Y43001D01*
Y40999D01*
X44734Y39150D01*
X46150Y37734D01*
X47999Y36968D01*
X50001D01*
X51850Y37734D01*
X53266Y39150D01*
X54032Y40999D01*
Y43001D01*
X53266Y44850D01*
X51850Y46266D01*
X50001Y47032D01*
D02*
G37*
G36*
X105001Y44032D02*
X102999D01*
X101150Y43266D01*
X99734Y41850D01*
X98968Y40001D01*
Y37999D01*
X99734Y36150D01*
X101150Y34734D01*
X102999Y33968D01*
X105001D01*
X106850Y34734D01*
X108266Y36150D01*
X109032Y37999D01*
Y40001D01*
X108266Y41850D01*
X106850Y43266D01*
X105001Y44032D01*
D02*
G37*
G36*
X83001D02*
X80999D01*
X79150Y43266D01*
X77734Y41850D01*
X76968Y40001D01*
Y37999D01*
X77734Y36150D01*
X79150Y34734D01*
X80999Y33968D01*
X83001D01*
X84850Y34734D01*
X86266Y36150D01*
X87032Y37999D01*
Y40001D01*
X86266Y41850D01*
X84850Y43266D01*
X83001Y44032D01*
D02*
G37*
G36*
X-227999Y43032D02*
X-230001D01*
X-231850Y42266D01*
X-233266Y40850D01*
X-234032Y39001D01*
Y36999D01*
X-233266Y35150D01*
X-231850Y33734D01*
X-230001Y32968D01*
X-227999D01*
X-226150Y33734D01*
X-224734Y35150D01*
X-223968Y36999D01*
Y39001D01*
X-224734Y40850D01*
X-226150Y42266D01*
X-227999Y43032D01*
D02*
G37*
G36*
X189926Y45032D02*
X188074D01*
X186286Y44553D01*
X184682Y43627D01*
X183373Y42318D01*
X182447Y40714D01*
X181968Y38926D01*
Y37074D01*
X182447Y35286D01*
X183373Y33682D01*
X184682Y32373D01*
X186286Y31447D01*
X188074Y30968D01*
X189926D01*
X191714Y31447D01*
X193318Y32373D01*
X194627Y33682D01*
X195553Y35286D01*
X196032Y37074D01*
Y38926D01*
X195553Y40714D01*
X194627Y42318D01*
X193318Y43627D01*
X191714Y44553D01*
X189926Y45032D01*
D02*
G37*
G36*
X49001Y35032D02*
X46999D01*
X45150Y34266D01*
X43734Y32850D01*
X42968Y31001D01*
Y28999D01*
X43734Y27150D01*
X45150Y25734D01*
X46999Y24968D01*
X49001D01*
X50850Y25734D01*
X52266Y27150D01*
X53032Y28999D01*
Y31001D01*
X52266Y32850D01*
X50850Y34266D01*
X49001Y35032D01*
D02*
G37*
G36*
X-207999Y34032D02*
X-210001D01*
X-211850Y33266D01*
X-213266Y31850D01*
X-214032Y30001D01*
Y27999D01*
X-213266Y26150D01*
X-211850Y24734D01*
X-210001Y23968D01*
X-207999D01*
X-206150Y24734D01*
X-204734Y26150D01*
X-203968Y27999D01*
Y30001D01*
X-204734Y31850D01*
X-206150Y33266D01*
X-207999Y34032D01*
D02*
G37*
G36*
X-148999Y29032D02*
X-151001D01*
X-152850Y28266D01*
X-154266Y26850D01*
X-155032Y25001D01*
Y22999D01*
X-154266Y21150D01*
X-152850Y19734D01*
X-151001Y18968D01*
X-148999D01*
X-147150Y19734D01*
X-145734Y21150D01*
X-144968Y22999D01*
Y25001D01*
X-145734Y26850D01*
X-147150Y28266D01*
X-148999Y29032D01*
D02*
G37*
G36*
X-53438Y67621D02*
X-64092D01*
X-65369Y67367D01*
X-101000D01*
X-102288Y67110D01*
X-103381Y66381D01*
X-108381Y61381D01*
X-109110Y60288D01*
X-109367Y59000D01*
Y48619D01*
X-109110Y47330D01*
X-108381Y46238D01*
X-103413Y41271D01*
Y39999D01*
X-102647Y38150D01*
X-101232Y36734D01*
X-99382Y35968D01*
X-97380D01*
X-95531Y36734D01*
X-94115Y38150D01*
X-93349Y39999D01*
Y42001D01*
X-94115Y43850D01*
X-95531Y45266D01*
X-97380Y46032D01*
X-98652D01*
X-102633Y50013D01*
Y52192D01*
X-101363Y52718D01*
X-100615Y51969D01*
X-98765Y51203D01*
X-96764D01*
X-94914Y51969D01*
X-94015Y52869D01*
X-75649D01*
X-62131Y39350D01*
X-62657Y38080D01*
X-63001D01*
X-64850Y37314D01*
X-66266Y35898D01*
X-67032Y34049D01*
Y32047D01*
X-67147Y31875D01*
X-68158D01*
X-70008Y31109D01*
X-71423Y29693D01*
X-72189Y27843D01*
Y25842D01*
X-71423Y23992D01*
X-70008Y22577D01*
X-68158Y21811D01*
X-66157D01*
X-64761Y22388D01*
X-64266Y22128D01*
X-63642Y21600D01*
X-63632Y21586D01*
Y20157D01*
X-65198Y18592D01*
X-65871Y17584D01*
X-66108Y16395D01*
Y16020D01*
X-67378Y15494D01*
X-68150Y16267D01*
X-70000Y17033D01*
X-71272D01*
X-76619Y22381D01*
X-77712Y23110D01*
X-79000Y23367D01*
X-82132D01*
X-82385Y24637D01*
X-82150Y24734D01*
X-80734Y26150D01*
X-79968Y27999D01*
Y30001D01*
X-80734Y31850D01*
X-82150Y33266D01*
X-83999Y34032D01*
X-86001D01*
X-87850Y33266D01*
X-89266Y31850D01*
X-89365Y31611D01*
X-90635D01*
X-90734Y31850D01*
X-92150Y33266D01*
X-93999Y34032D01*
X-96001D01*
X-97850Y33266D01*
X-99266Y31850D01*
X-100032Y30001D01*
Y28589D01*
X-101302Y28063D01*
X-130968Y57729D01*
Y59001D01*
X-131734Y60850D01*
X-133150Y62266D01*
X-134999Y63032D01*
X-137001D01*
X-138850Y62266D01*
X-140266Y60850D01*
X-141032Y59001D01*
Y56999D01*
X-140266Y55150D01*
X-139300Y54184D01*
X-140150Y53266D01*
X-141999Y54032D01*
X-144001D01*
X-145850Y53266D01*
X-147266Y51850D01*
X-148032Y50001D01*
Y47999D01*
X-147743Y47302D01*
X-148001Y46032D01*
X-149850Y45266D01*
X-151266Y43850D01*
X-152032Y42001D01*
Y39999D01*
X-151266Y38150D01*
X-149850Y36734D01*
X-148001Y35968D01*
X-145999D01*
X-144150Y36734D01*
X-142734Y38150D01*
X-141968Y39999D01*
Y42001D01*
X-142257Y42698D01*
X-141999Y43968D01*
X-140150Y44734D01*
X-138991Y45892D01*
X-136287D01*
X-103197Y12802D01*
X-102517Y12348D01*
X-102145Y10924D01*
X-102266Y10802D01*
X-103032Y8953D01*
Y6951D01*
X-102266Y5102D01*
X-100850Y3686D01*
X-99001Y2920D01*
X-96999D01*
X-95150Y3686D01*
X-93734Y5102D01*
X-92968Y6951D01*
Y8953D01*
X-93659Y10622D01*
X-93165Y11892D01*
X-85287D01*
X-75198Y1803D01*
X-74189Y1129D01*
X-73000Y892D01*
X-67000D01*
X-65811Y1129D01*
X-64802Y1803D01*
X-60802Y5803D01*
X-60129Y6811D01*
X-59892Y8000D01*
Y10577D01*
X-59034Y10913D01*
X-58622Y10953D01*
X-57294Y9624D01*
X-55444Y8858D01*
X-53443D01*
X-51593Y9624D01*
X-50177Y11040D01*
X-49411Y12889D01*
Y14891D01*
X-50177Y16741D01*
X-51593Y18156D01*
X-52685Y18608D01*
X-53568Y19794D01*
Y21795D01*
X-54335Y23645D01*
X-55750Y25061D01*
X-57600Y25827D01*
X-59601D01*
X-60996Y25249D01*
X-61492Y25509D01*
X-62116Y26037D01*
X-62125Y26051D01*
Y27843D01*
X-62010Y28016D01*
X-60999D01*
X-59150Y28782D01*
X-57734Y30198D01*
X-57222Y31433D01*
X-55851Y31425D01*
X-55283Y30054D01*
X-53868Y28638D01*
X-52018Y27872D01*
X-50016D01*
X-48167Y28638D01*
X-46751Y30054D01*
X-45566Y29596D01*
X-44049Y28968D01*
X-42047D01*
X-40198Y29734D01*
X-38782Y31150D01*
X-38016Y32999D01*
Y35001D01*
X-38782Y36850D01*
X-39726Y37795D01*
X-39413Y39211D01*
X-38150Y39734D01*
X-36734Y41150D01*
X-35968Y42999D01*
Y45001D01*
X-36734Y46850D01*
X-38150Y48266D01*
X-39999Y49032D01*
X-40358D01*
X-45023Y53696D01*
Y59206D01*
X-45279Y60494D01*
X-46009Y61587D01*
X-51057Y66635D01*
X-52149Y67364D01*
X-53438Y67621D01*
D02*
G37*
G36*
X166000Y31033D02*
X163998D01*
X162149Y30267D01*
X160733Y28851D01*
X159967Y27002D01*
Y25000D01*
X160733Y23150D01*
X162149Y21735D01*
X162387Y21636D01*
Y20366D01*
X162150Y20268D01*
X160734Y18852D01*
X159968Y17003D01*
Y15001D01*
X160734Y13151D01*
X162150Y11736D01*
X163999Y10970D01*
X166001D01*
X167850Y11736D01*
X169266Y13151D01*
X170032Y15001D01*
Y17003D01*
X169266Y18852D01*
X167850Y20268D01*
X167612Y20366D01*
Y21636D01*
X167850Y21735D01*
X169265Y23150D01*
X170031Y25000D01*
Y27002D01*
X169265Y28851D01*
X167850Y30267D01*
X166000Y31033D01*
D02*
G37*
G36*
X194001Y20032D02*
X191999D01*
X190150Y19266D01*
X188734Y17850D01*
X187968Y16001D01*
Y13999D01*
X188734Y12150D01*
X190150Y10734D01*
X191999Y9968D01*
X194001D01*
X195850Y10734D01*
X197266Y12150D01*
X198032Y13999D01*
Y16001D01*
X197266Y17850D01*
X195850Y19266D01*
X194001Y20032D01*
D02*
G37*
G36*
X2001Y11032D02*
X-1D01*
X-1850Y10266D01*
X-3266Y8850D01*
X-3337Y8678D01*
X-4583Y8431D01*
X-5015Y8863D01*
X-6865Y9629D01*
X-8867D01*
X-10716Y8863D01*
X-12132Y7448D01*
X-12898Y5598D01*
Y3596D01*
X-12132Y1747D01*
X-10716Y331D01*
X-8867Y-435D01*
X-6865D01*
X-5015Y331D01*
X-3600Y1747D01*
X-3529Y1919D01*
X-2283Y2167D01*
X-1850Y1734D01*
X-1Y968D01*
X2001D01*
X3850Y1734D01*
X5266Y3150D01*
X6032Y4999D01*
Y7001D01*
X5266Y8850D01*
X3850Y10266D01*
X2001Y11032D01*
D02*
G37*
G36*
X52002Y15033D02*
X50000D01*
X48150Y14267D01*
X46735Y12851D01*
X45969Y11002D01*
Y9000D01*
X46735Y7150D01*
X48150Y5735D01*
X50000Y4969D01*
X52002D01*
X53851Y5735D01*
X55267Y7150D01*
X56033Y9000D01*
Y11002D01*
X55267Y12851D01*
X53851Y14267D01*
X52002Y15033D01*
D02*
G37*
G36*
X227001Y7032D02*
X224999D01*
X223150Y6266D01*
X221734Y4850D01*
X220968Y3001D01*
Y999D01*
X221734Y-850D01*
X223150Y-2266D01*
X224999Y-3032D01*
X227001D01*
X228850Y-2266D01*
X230266Y-850D01*
X231032Y999D01*
Y3001D01*
X230266Y4850D01*
X228850Y6266D01*
X227001Y7032D01*
D02*
G37*
G36*
X-148248Y-968D02*
X-150250D01*
X-152099Y-1734D01*
X-153515Y-3150D01*
X-154281Y-4999D01*
Y-7001D01*
X-153515Y-8850D01*
X-152099Y-10266D01*
X-150250Y-11032D01*
X-148248D01*
X-146398Y-10266D01*
X-144983Y-8850D01*
X-144217Y-7001D01*
Y-4999D01*
X-144983Y-3150D01*
X-146398Y-1734D01*
X-148248Y-968D01*
D02*
G37*
G36*
X52002Y-3967D02*
X50000D01*
X48150Y-4733D01*
X46735Y-6149D01*
X45969Y-7998D01*
Y-10000D01*
X46735Y-11850D01*
X48150Y-13265D01*
X50000Y-14031D01*
X52002D01*
X53851Y-13265D01*
X55267Y-11850D01*
X56033Y-10000D01*
Y-7998D01*
X55267Y-6149D01*
X53851Y-4733D01*
X52002Y-3967D01*
D02*
G37*
G36*
X-87999Y-1968D02*
X-90001D01*
X-91850Y-2734D01*
X-93266Y-4150D01*
X-94032Y-5999D01*
Y-8001D01*
X-93266Y-9850D01*
X-92430Y-10687D01*
X-91966Y-11481D01*
X-92430Y-12346D01*
X-93233Y-13150D01*
X-93999Y-14999D01*
Y-17001D01*
X-93233Y-18850D01*
X-91818Y-20266D01*
X-89968Y-21032D01*
X-87966D01*
X-86117Y-20266D01*
X-84701Y-18850D01*
X-83935Y-17001D01*
Y-14999D01*
X-84701Y-13150D01*
X-85538Y-12313D01*
X-86002Y-11519D01*
X-85538Y-10654D01*
X-84734Y-9850D01*
X-83968Y-8001D01*
Y-5999D01*
X-84734Y-4150D01*
X-86150Y-2734D01*
X-87999Y-1968D01*
D02*
G37*
G36*
X-131999Y-11968D02*
X-134001D01*
X-135850Y-12734D01*
X-137266Y-14150D01*
X-138032Y-15999D01*
Y-18001D01*
X-137266Y-19850D01*
X-135850Y-21266D01*
X-134001Y-22032D01*
X-131999D01*
X-130150Y-21266D01*
X-128734Y-19850D01*
X-127968Y-18001D01*
Y-15999D01*
X-128734Y-14150D01*
X-130150Y-12734D01*
X-131999Y-11968D01*
D02*
G37*
G36*
X143001Y-16968D02*
X140999D01*
X139150Y-17734D01*
X137734Y-19150D01*
X136968Y-20999D01*
Y-23001D01*
X137734Y-24850D01*
X139150Y-26266D01*
X140999Y-27032D01*
X143001D01*
X144850Y-26266D01*
X146266Y-24850D01*
X147032Y-23001D01*
Y-20999D01*
X146266Y-19150D01*
X144850Y-17734D01*
X143001Y-16968D01*
D02*
G37*
G36*
X51502Y-23967D02*
X49500D01*
X47650Y-24733D01*
X46235Y-26149D01*
X45469Y-27998D01*
Y-30000D01*
X46235Y-31850D01*
X47650Y-33265D01*
X49500Y-34031D01*
X51502D01*
X53351Y-33265D01*
X54767Y-31850D01*
X55533Y-30000D01*
Y-27998D01*
X54767Y-26149D01*
X53351Y-24733D01*
X51502Y-23967D01*
D02*
G37*
G36*
X63001Y-24904D02*
X60999D01*
X59150Y-25670D01*
X57734Y-27086D01*
X56968Y-28935D01*
Y-30937D01*
X57734Y-32786D01*
X59150Y-34202D01*
X60999Y-34968D01*
X63001D01*
X64850Y-34202D01*
X66266Y-32786D01*
X67032Y-30937D01*
Y-28935D01*
X66266Y-27086D01*
X64850Y-25670D01*
X63001Y-24904D01*
D02*
G37*
G36*
X75002Y-19469D02*
X73000D01*
X71150Y-20235D01*
X69735Y-21650D01*
X68969Y-23500D01*
Y-25502D01*
X69735Y-27351D01*
X71150Y-28767D01*
X71658Y-28977D01*
X71906Y-30223D01*
X71636Y-30492D01*
X70870Y-32342D01*
Y-34344D01*
X71636Y-36193D01*
X73052Y-37609D01*
X74901Y-38375D01*
X76903D01*
X78752Y-37609D01*
X80168Y-36193D01*
X80934Y-34344D01*
Y-32342D01*
X80168Y-30492D01*
X78752Y-29077D01*
X78245Y-28867D01*
X77997Y-27621D01*
X78267Y-27351D01*
X79033Y-25502D01*
Y-23500D01*
X78267Y-21650D01*
X76851Y-20235D01*
X75002Y-19469D01*
D02*
G37*
G36*
X76001Y-41064D02*
X73999D01*
X72150Y-41830D01*
X70734Y-43246D01*
X70593Y-43586D01*
X69850Y-43734D01*
X68001Y-42968D01*
X65999D01*
X64150Y-43734D01*
X62734Y-45150D01*
X61968Y-46999D01*
Y-49001D01*
X62257Y-49698D01*
X61999Y-50968D01*
X60150Y-51734D01*
X58734Y-53150D01*
X58449Y-53839D01*
X57203Y-54087D01*
X56850Y-53734D01*
X55001Y-52968D01*
X52999D01*
X51150Y-53734D01*
X49734Y-55150D01*
X48968Y-56999D01*
Y-59001D01*
X49734Y-60850D01*
X51150Y-62266D01*
X52999Y-63032D01*
X55001D01*
X56850Y-62266D01*
X58266Y-60850D01*
X58551Y-60161D01*
X59797Y-59913D01*
X60150Y-60266D01*
X61999Y-61032D01*
X64001D01*
X65850Y-60266D01*
X67266Y-58850D01*
X68032Y-57001D01*
Y-54999D01*
X67743Y-54302D01*
X68001Y-53032D01*
X69850Y-52266D01*
X71266Y-50850D01*
X71407Y-50510D01*
X72150Y-50362D01*
X73999Y-51128D01*
X76001D01*
X77850Y-50362D01*
X79266Y-48946D01*
X80032Y-47097D01*
Y-45095D01*
X79266Y-43246D01*
X77850Y-41830D01*
X76001Y-41064D01*
D02*
G37*
G36*
X133001Y-33968D02*
X130999D01*
X129150Y-34734D01*
X127734Y-36150D01*
X126968Y-37999D01*
Y-40001D01*
X127734Y-41850D01*
X129150Y-43266D01*
X130999Y-44032D01*
X133001D01*
X134850Y-43266D01*
X136266Y-41850D01*
X137032Y-40001D01*
Y-37999D01*
X136266Y-36150D01*
X134850Y-34734D01*
X133001Y-33968D01*
D02*
G37*
G36*
X209001Y-34968D02*
X206999D01*
X205150Y-35734D01*
X203734Y-37150D01*
X202968Y-38999D01*
Y-41001D01*
X203734Y-42850D01*
X205150Y-44266D01*
X206999Y-45032D01*
X209001D01*
X210850Y-44266D01*
X212266Y-42850D01*
X213032Y-41001D01*
Y-38999D01*
X212266Y-37150D01*
X210850Y-35734D01*
X209001Y-34968D01*
D02*
G37*
G36*
X19001Y-45935D02*
X16999D01*
X15150Y-46701D01*
X13734Y-48117D01*
X13509Y-48661D01*
X12902Y-48782D01*
X11052Y-48016D01*
X9050D01*
X7201Y-48782D01*
X5785Y-50198D01*
X5019Y-52047D01*
Y-54049D01*
X5785Y-55898D01*
X6138Y-56251D01*
X6015Y-56868D01*
X4600Y-58284D01*
X3834Y-60133D01*
Y-62135D01*
X4600Y-63985D01*
X6015Y-65400D01*
X7865Y-66166D01*
X9867D01*
X11716Y-65400D01*
X13132Y-63985D01*
X13898Y-62135D01*
Y-60133D01*
X13132Y-58284D01*
X12779Y-57931D01*
X12902Y-57314D01*
X14317Y-55898D01*
X14543Y-55354D01*
X15150Y-55233D01*
X16999Y-55999D01*
X19001D01*
X20850Y-55233D01*
X22266Y-53818D01*
X23032Y-51968D01*
Y-49966D01*
X22266Y-48117D01*
X20850Y-46701D01*
X19001Y-45935D01*
D02*
G37*
G36*
X-212074Y-35968D02*
X-213926D01*
X-215714Y-36447D01*
X-217318Y-37373D01*
X-218627Y-38682D01*
X-219553Y-40286D01*
X-220032Y-42074D01*
Y-43926D01*
X-219553Y-45714D01*
X-218627Y-47318D01*
X-217318Y-48627D01*
X-215714Y-49553D01*
X-213926Y-50032D01*
X-212074D01*
X-210286Y-49553D01*
X-208682Y-48627D01*
X-207373Y-47318D01*
X-206447Y-45714D01*
X-205968Y-43926D01*
Y-42074D01*
X-206447Y-40286D01*
X-207373Y-38682D01*
X-208682Y-37373D01*
X-210286Y-36447D01*
X-212074Y-35968D01*
D02*
G37*
G36*
X115001Y-50968D02*
X112999D01*
X111150Y-51734D01*
X109734Y-53150D01*
X108968Y-54999D01*
Y-57001D01*
X109734Y-58850D01*
X111150Y-60266D01*
X112999Y-61032D01*
X115001D01*
X116850Y-60266D01*
X118266Y-58850D01*
X119032Y-57001D01*
Y-54999D01*
X118266Y-53150D01*
X116850Y-51734D01*
X115001Y-50968D01*
D02*
G37*
G36*
X-86999Y-53968D02*
X-89001D01*
X-90850Y-54734D01*
X-92266Y-56150D01*
X-93032Y-57999D01*
Y-60001D01*
X-92266Y-61850D01*
X-90850Y-63266D01*
X-89001Y-64032D01*
X-86999D01*
X-85150Y-63266D01*
X-83734Y-61850D01*
X-82968Y-60001D01*
Y-57999D01*
X-83734Y-56150D01*
X-85150Y-54734D01*
X-86999Y-53968D01*
D02*
G37*
G36*
X152001Y-58968D02*
X149999D01*
X148150Y-59734D01*
X146734Y-61150D01*
X145968Y-62999D01*
Y-65001D01*
X146734Y-66850D01*
X148150Y-68266D01*
X149999Y-69032D01*
X152001D01*
X153850Y-68266D01*
X155266Y-66850D01*
X156032Y-65001D01*
Y-62999D01*
X155266Y-61150D01*
X153850Y-59734D01*
X152001Y-58968D01*
D02*
G37*
G36*
X-229500Y-59469D02*
X-231502D01*
X-233351Y-60235D01*
X-234767Y-61650D01*
X-235533Y-63500D01*
Y-65502D01*
X-234767Y-67351D01*
X-233351Y-68767D01*
X-231502Y-69533D01*
X-229500D01*
X-227650Y-68767D01*
X-226235Y-67351D01*
X-225469Y-65502D01*
Y-63500D01*
X-226235Y-61650D01*
X-227650Y-60235D01*
X-229500Y-59469D01*
D02*
G37*
G36*
X99866Y-48811D02*
X97864D01*
X96015Y-49577D01*
X94599Y-50993D01*
X93833Y-52842D01*
Y-54844D01*
X94599Y-56694D01*
X96015Y-58109D01*
X97234Y-58614D01*
X97104Y-59707D01*
X97032Y-59905D01*
X95234Y-60650D01*
X93818Y-62066D01*
X93052Y-63915D01*
Y-65917D01*
X93818Y-67766D01*
X95234Y-69182D01*
X97083Y-69948D01*
X99085D01*
X100934Y-69182D01*
X102350Y-67766D01*
X103116Y-65917D01*
Y-63915D01*
X102350Y-62066D01*
X100934Y-60650D01*
X99716Y-60145D01*
X99845Y-59052D01*
X99917Y-58854D01*
X101716Y-58109D01*
X103131Y-56694D01*
X103897Y-54844D01*
Y-52842D01*
X103131Y-50993D01*
X101716Y-49577D01*
X99866Y-48811D01*
D02*
G37*
G36*
X-25999Y-72968D02*
X-28001D01*
X-29850Y-73734D01*
X-31266Y-75150D01*
X-31884Y-75273D01*
X-32844Y-74313D01*
X-34693Y-73547D01*
X-36695D01*
X-38545Y-74313D01*
X-39960Y-75729D01*
X-40726Y-77578D01*
Y-79580D01*
X-39960Y-81429D01*
X-38545Y-82845D01*
X-36695Y-83611D01*
X-34693D01*
X-32844Y-82845D01*
X-31428Y-81429D01*
X-30810Y-81306D01*
X-29850Y-82266D01*
X-28001Y-83032D01*
X-25999D01*
X-24150Y-82266D01*
X-22734Y-80850D01*
X-21968Y-79001D01*
Y-76999D01*
X-22734Y-75150D01*
X-24150Y-73734D01*
X-25999Y-72968D01*
D02*
G37*
G36*
X150001Y-71968D02*
X147999D01*
X146150Y-72734D01*
X144734Y-74150D01*
X143968Y-75999D01*
Y-78001D01*
X144734Y-79850D01*
X146150Y-81266D01*
X147999Y-82032D01*
X150001D01*
X151850Y-81266D01*
X153266Y-79850D01*
X154032Y-78001D01*
Y-75999D01*
X153266Y-74150D01*
X151850Y-72734D01*
X150001Y-71968D01*
D02*
G37*
G36*
X87001Y-77968D02*
X84999D01*
X83150Y-78734D01*
X81734Y-80150D01*
X80968Y-81999D01*
Y-84001D01*
X81734Y-85850D01*
X83150Y-87266D01*
X84999Y-88032D01*
X87001D01*
X88850Y-87266D01*
X90266Y-85850D01*
X91032Y-84001D01*
Y-81999D01*
X90266Y-80150D01*
X88850Y-78734D01*
X87001Y-77968D01*
D02*
G37*
G36*
X-6990Y-62977D02*
X-8992D01*
X-10841Y-63744D01*
X-12256Y-65159D01*
X-13023Y-67009D01*
Y-69010D01*
X-12256Y-70860D01*
X-11228Y-71889D01*
X-11291Y-72206D01*
X-12706Y-73622D01*
X-13472Y-75471D01*
Y-77473D01*
X-12706Y-79323D01*
X-11291Y-80738D01*
X-9441Y-81504D01*
X-7439D01*
X-5590Y-80738D01*
X-5207Y-80355D01*
X-4266Y-81150D01*
X-5032Y-82999D01*
Y-85001D01*
X-4266Y-86850D01*
X-2850Y-88266D01*
X-1001Y-89032D01*
X1001D01*
X1493Y-88828D01*
X2465Y-89800D01*
X1968Y-90999D01*
Y-93001D01*
X2734Y-94850D01*
X4150Y-96266D01*
X5999Y-97032D01*
X8001D01*
X9850Y-96266D01*
X11266Y-94850D01*
X12032Y-93001D01*
Y-90999D01*
X11266Y-89150D01*
X10208Y-88091D01*
X10322Y-86806D01*
X10409Y-86633D01*
X11448Y-86203D01*
X12864Y-84787D01*
X13630Y-82938D01*
Y-80936D01*
X12864Y-79087D01*
X11448Y-77671D01*
X9599Y-76905D01*
X7597D01*
X5748Y-77671D01*
X4332Y-79087D01*
X4146Y-79536D01*
X2900Y-79784D01*
X2850Y-79734D01*
X1001Y-78968D01*
X-1001D01*
X-2850Y-79734D01*
X-3233Y-80117D01*
X-4174Y-79323D01*
X-3408Y-77473D01*
Y-75471D01*
X-4174Y-73622D01*
X-5203Y-72593D01*
X-5140Y-72275D01*
X-3725Y-70860D01*
X-2959Y-69010D01*
Y-67009D01*
X-3725Y-65159D01*
X-5140Y-63744D01*
X-6990Y-62977D01*
D02*
G37*
G36*
X-196500Y-90969D02*
X-198502D01*
X-200351Y-91735D01*
X-201767Y-93150D01*
X-202533Y-95000D01*
Y-97002D01*
X-201767Y-98851D01*
X-200351Y-100267D01*
X-198502Y-101033D01*
X-196500D01*
X-194650Y-100267D01*
X-193235Y-98851D01*
X-192469Y-97002D01*
Y-95000D01*
X-193235Y-93150D01*
X-194650Y-91735D01*
X-196500Y-90969D01*
D02*
G37*
G36*
X51001Y-95968D02*
X48999D01*
X47150Y-96734D01*
X45734Y-98150D01*
X44968Y-99999D01*
Y-102001D01*
X45734Y-103850D01*
X47150Y-105266D01*
X48999Y-106032D01*
X51001D01*
X52850Y-105266D01*
X54266Y-103850D01*
X55032Y-102001D01*
Y-99999D01*
X54266Y-98150D01*
X52850Y-96734D01*
X51001Y-95968D01*
D02*
G37*
G36*
X31001D02*
X28999D01*
X27150Y-96734D01*
X25734Y-98150D01*
X24968Y-99999D01*
Y-102001D01*
X25734Y-103850D01*
X27150Y-105266D01*
X28999Y-106032D01*
X31001D01*
X32850Y-105266D01*
X34266Y-103850D01*
X35032Y-102001D01*
Y-99999D01*
X34266Y-98150D01*
X32850Y-96734D01*
X31001Y-95968D01*
D02*
G37*
G36*
X98334Y-102922D02*
X96332D01*
X94482Y-103688D01*
X93067Y-105103D01*
X92301Y-106953D01*
Y-108954D01*
X93067Y-110804D01*
X94482Y-112219D01*
X96332Y-112985D01*
X98334D01*
X100183Y-112219D01*
X101599Y-110804D01*
X102365Y-108954D01*
Y-106953D01*
X101599Y-105103D01*
X100183Y-103688D01*
X98334Y-102922D01*
D02*
G37*
G36*
X6001Y-108968D02*
X3999D01*
X2150Y-109734D01*
X734Y-111150D01*
X-32Y-112999D01*
Y-115001D01*
X734Y-116850D01*
X2150Y-118266D01*
X3999Y-119032D01*
X6001D01*
X7850Y-118266D01*
X9266Y-116850D01*
X10032Y-115001D01*
Y-112999D01*
X9266Y-111150D01*
X7850Y-109734D01*
X6001Y-108968D01*
D02*
G37*
G36*
X-229999Y-109968D02*
X-232001D01*
X-233850Y-110734D01*
X-235266Y-112150D01*
X-236032Y-113999D01*
Y-116001D01*
X-235266Y-117850D01*
X-233850Y-119266D01*
X-232001Y-120032D01*
X-229999D01*
X-228150Y-119266D01*
X-226734Y-117850D01*
X-225968Y-116001D01*
Y-113999D01*
X-226734Y-112150D01*
X-228150Y-110734D01*
X-229999Y-109968D01*
D02*
G37*
G36*
X-44000Y-117969D02*
X-46002D01*
X-47851Y-118735D01*
X-49267Y-120150D01*
X-50033Y-122000D01*
Y-124002D01*
X-49267Y-125851D01*
X-47851Y-127267D01*
X-46002Y-128033D01*
X-44000D01*
X-42150Y-127267D01*
X-40735Y-125851D01*
X-39969Y-124002D01*
Y-122000D01*
X-40735Y-120150D01*
X-42150Y-118735D01*
X-44000Y-117969D01*
D02*
G37*
G36*
X143500Y-118969D02*
X141498D01*
X139649Y-119735D01*
X138233Y-121150D01*
X137467Y-123000D01*
Y-125002D01*
X138233Y-126851D01*
X139649Y-128267D01*
X141498Y-129033D01*
X143500D01*
X145350Y-128267D01*
X146765Y-126851D01*
X147531Y-125002D01*
Y-123000D01*
X146765Y-121150D01*
X145350Y-119735D01*
X143500Y-118969D01*
D02*
G37*
G36*
X67001Y-122968D02*
X64999D01*
X63150Y-123734D01*
X61734Y-125150D01*
X60968Y-126999D01*
Y-129001D01*
X61734Y-130850D01*
X63150Y-132266D01*
X64999Y-133032D01*
X67001D01*
X68850Y-132266D01*
X70266Y-130850D01*
X71032Y-129001D01*
Y-126999D01*
X70266Y-125150D01*
X68850Y-123734D01*
X67001Y-122968D01*
D02*
G37*
G36*
X26001Y-129968D02*
X23999D01*
X22150Y-130734D01*
X20734Y-132150D01*
X19968Y-133999D01*
Y-136001D01*
X20734Y-137850D01*
X22150Y-139266D01*
X23999Y-140032D01*
X26001D01*
X27850Y-139266D01*
X29266Y-137850D01*
X30032Y-136001D01*
Y-133999D01*
X29266Y-132150D01*
X27850Y-130734D01*
X26001Y-129968D01*
D02*
G37*
G36*
X107001Y-133968D02*
X104999D01*
X103150Y-134734D01*
X101734Y-136150D01*
X100968Y-137999D01*
Y-140001D01*
X101734Y-141850D01*
X103150Y-143266D01*
X104999Y-144032D01*
X107001D01*
X108850Y-143266D01*
X110266Y-141850D01*
X111032Y-140001D01*
Y-137999D01*
X110266Y-136150D01*
X108850Y-134734D01*
X107001Y-133968D01*
D02*
G37*
G36*
X100001Y-145968D02*
X97999D01*
X96150Y-146734D01*
X94734Y-148150D01*
X93968Y-149999D01*
Y-152001D01*
X94734Y-153850D01*
X96150Y-155266D01*
X97999Y-156032D01*
X100001D01*
X101850Y-155266D01*
X103266Y-153850D01*
X104032Y-152001D01*
Y-149999D01*
X103266Y-148150D01*
X101850Y-146734D01*
X100001Y-145968D01*
D02*
G37*
%LPD*%
D13*
X-106000Y48619D02*
X-98381Y41000D01*
X-106000Y48619D02*
Y59000D01*
X-48390Y52302D02*
X-41000Y44912D01*
X-48390Y52302D02*
Y59206D01*
X-53438Y64254D02*
X-48390Y59206D01*
X-41000Y44000D02*
Y44912D01*
X-74255Y56235D02*
X-51017Y32998D01*
X-64092Y64254D02*
X-53438D01*
X-51017Y32904D02*
Y32998D01*
X-64346Y64000D02*
X-64092Y64254D01*
X-101000Y64000D02*
X-64346D01*
X-136000Y58000D02*
X-98000Y20000D01*
X-97765Y56235D02*
X-74255D01*
X-98000Y20000D02*
X-79000D01*
X-71001Y12001D01*
X-106000Y59000D02*
X-101000Y64000D01*
X161311Y-218158D02*
X154540D01*
X161311Y-211387D01*
Y-209694D01*
X159619Y-208001D01*
X156233D01*
X154540Y-209694D01*
D91*
X-101000Y15000D02*
X-84000D01*
X-135000Y49000D02*
X-101000Y15000D01*
X-84000D02*
X-73000Y4000D01*
X-143000Y49000D02*
X-135000D01*
X-73000Y4000D02*
X-67000D01*
X-63000Y8000D01*
Y16395D01*
X-58600Y20795D01*
D106*
X-97000Y145500D02*
D03*
D109*
X-43202Y158904D02*
D03*
X43200D02*
D03*
D110*
X-43202Y200704D02*
D03*
X43198D02*
D03*
D111*
X210000Y115300D02*
D03*
D113*
X177000Y-155000D02*
D03*
X-29000Y-146000D02*
D03*
X-38000Y-139000D02*
D03*
X-45000Y-147000D02*
D03*
X-37000Y-157000D02*
D03*
X-46438Y-156750D02*
D03*
X-104000Y-157000D02*
D03*
X-92000D02*
D03*
X-77000Y-134000D02*
D03*
Y-122000D02*
D03*
Y-110000D02*
D03*
X-73000Y-86000D02*
D03*
X-55000Y-123000D02*
D03*
Y-136000D02*
D03*
Y-147000D02*
D03*
X-57000Y-157000D02*
D03*
X98000Y111000D02*
D03*
X-3000Y123000D02*
D03*
X2000Y17000D02*
D03*
X-98381Y41000D02*
D03*
X49500Y129000D02*
D03*
X-82500Y-156500D02*
D03*
X-93000Y-146000D02*
D03*
X-82500Y-87500D02*
D03*
X-93000Y-98000D02*
D03*
X4999Y-160999D02*
D03*
X-133999Y-36999D02*
D03*
X-51017Y32904D02*
D03*
X-41000Y44000D02*
D03*
X-70000Y76500D02*
D03*
X-136000Y58000D02*
D03*
X-71001Y12001D02*
D03*
X-58600Y20795D02*
D03*
X-97765Y56235D02*
D03*
X-143000Y49000D02*
D03*
X-11001Y-90001D02*
D03*
X41999Y-95999D02*
D03*
X163000Y54999D02*
D03*
X-11001Y-109001D02*
D03*
X177000Y99000D02*
D03*
X176500Y189750D02*
D03*
X-176500Y100250D02*
D03*
X-178000Y39000D02*
D03*
X-176500Y-39750D02*
D03*
Y-110250D02*
D03*
X162000Y-26001D02*
D03*
X-68000Y97000D02*
D03*
X236100Y-116000D02*
D03*
Y-63000D02*
D03*
X225890Y-38999D02*
D03*
X163000Y-96000D02*
D03*
X85999Y-128999D02*
D03*
X142999Y-103001D02*
D03*
X117000Y-86000D02*
D03*
X142000Y-38000D02*
D03*
X88000Y29000D02*
D03*
X132000Y48000D02*
D03*
X37000Y63000D02*
D03*
X79000Y111000D02*
D03*
X60000D02*
D03*
X172000Y78000D02*
D03*
X214000Y97000D02*
D03*
X194000Y98000D02*
D03*
X182000Y125000D02*
D03*
X106000Y145000D02*
D03*
X65000D02*
D03*
X84000D02*
D03*
X-55000Y128000D02*
D03*
X-84000Y209000D02*
D03*
X-122000D02*
D03*
X-141000D02*
D03*
X-160000D02*
D03*
X-179000D02*
D03*
X-223000Y130000D02*
D03*
X-181000Y86000D02*
D03*
X-165000Y-24000D02*
D03*
X-184000Y-23000D02*
D03*
X-134000Y-75000D02*
D03*
X-119000Y-89000D02*
D03*
X-197001Y-76001D02*
D03*
Y-148001D02*
D03*
X-145250Y134500D02*
D03*
Y122500D02*
D03*
X-133250Y134500D02*
D03*
Y122500D02*
D03*
D114*
X-64500Y-44634D02*
D03*
Y-22634D02*
D03*
Y-33634D02*
D03*
X-20500Y-44634D02*
D03*
Y-22634D02*
D03*
Y-33634D02*
D03*
X-31500Y-55634D02*
D03*
Y-44634D02*
D03*
Y-11634D02*
D03*
Y-22634D02*
D03*
Y-33634D02*
D03*
X-53500Y-55634D02*
D03*
Y-44634D02*
D03*
Y-11634D02*
D03*
Y-22634D02*
D03*
Y-33634D02*
D03*
X-42500Y-55634D02*
D03*
Y-44634D02*
D03*
Y-11634D02*
D03*
Y-22634D02*
D03*
Y-33634D02*
D03*
M02*
