G04*
G04 #@! TF.GenerationSoftware,Altium Limited,Altium Designer,22.10.1 (41)*
G04*
G04 Layer_Physical_Order=4*
G04 Layer_Color=16711680*
%FSLAX44Y44*%
%MOMM*%
G71*
G04*
G04 #@! TF.SameCoordinates,6FA54AF5-B1EA-40D0-AA23-297218595CE5*
G04*
G04*
G04 #@! TF.FilePolarity,Positive*
G04*
G01*
G75*
%ADD13C,0.2540*%
%ADD88C,0.5080*%
%ADD89C,0.7620*%
%ADD90C,1.0160*%
%ADD91C,0.2032*%
%ADD92C,0.3048*%
%ADD96C,0.3810*%
%ADD105R,1.0000X1.0000*%
%ADD106C,1.0000*%
%ADD107R,1.0000X1.0000*%
%ADD108C,0.6500*%
%ADD109O,1.0500X2.1000*%
%ADD110O,1.0000X2.0000*%
%ADD111C,1.6000*%
%ADD112R,1.6000X1.6000*%
%ADD113C,0.6000*%
%ADD114C,0.6600*%
%ADD115R,1.3000X1.5500*%
%ADD116R,1.5000X0.9000*%
G36*
X224170Y221325D02*
X228236Y220349D01*
X232100Y218748D01*
X235666Y216563D01*
X238847Y213847D01*
X241563Y210666D01*
X243748Y207100D01*
X245349Y203236D01*
X246325Y199170D01*
X246652Y195020D01*
X246633Y195000D01*
X246633D01*
X246890Y193712D01*
X247619Y192619D01*
X247024Y191490D01*
X246890Y191288D01*
X246633Y190000D01*
Y-161000D01*
X124673D01*
Y-120032D01*
X126032D01*
Y-100468D01*
X121514D01*
Y-98500D01*
X121209Y-96964D01*
X120338Y-95662D01*
X102098Y-77421D01*
Y-68018D01*
X102350Y-67766D01*
X102950Y-66317D01*
X104289Y-65860D01*
X118726Y-80296D01*
X120238Y-81307D01*
X122022Y-81662D01*
X147105D01*
X147999Y-82032D01*
X150001D01*
X151850Y-81266D01*
X153266Y-79850D01*
X154032Y-78001D01*
Y-75999D01*
X153266Y-74150D01*
X151850Y-72734D01*
X150001Y-71968D01*
X147999D01*
X147105Y-72338D01*
X123953D01*
X113917Y-62302D01*
X114443Y-61032D01*
X115001D01*
X116850Y-60266D01*
X117750Y-59367D01*
X146721D01*
X147247Y-60637D01*
X146734Y-61150D01*
X145968Y-62999D01*
Y-65001D01*
X146734Y-66850D01*
X148150Y-68266D01*
X149999Y-69032D01*
X152001D01*
X153850Y-68266D01*
X155266Y-66850D01*
X156032Y-65001D01*
Y-62999D01*
X155266Y-61150D01*
X154753Y-60637D01*
X155279Y-59367D01*
X192000D01*
X193288Y-59110D01*
X194381Y-58381D01*
X207729Y-45032D01*
X209001D01*
X210850Y-44266D01*
X212266Y-42850D01*
X213032Y-41001D01*
Y-38999D01*
X212266Y-37150D01*
X210850Y-35734D01*
X209001Y-34968D01*
X206999D01*
X205150Y-35734D01*
X203734Y-37150D01*
X202968Y-38999D01*
Y-40271D01*
X190606Y-52633D01*
X117750D01*
X116850Y-51734D01*
X115001Y-50968D01*
X112999D01*
X111150Y-51734D01*
X109734Y-53150D01*
X108968Y-54999D01*
Y-55557D01*
X107698Y-56083D01*
X103502Y-51887D01*
X103131Y-50993D01*
X101716Y-49577D01*
X101076Y-49312D01*
X100778Y-47814D01*
X104181Y-44412D01*
X108968D01*
Y-49532D01*
X126032D01*
Y-41060D01*
X127302Y-40807D01*
X127734Y-41850D01*
X129150Y-43266D01*
X130999Y-44032D01*
X133001D01*
X134850Y-43266D01*
X136266Y-41850D01*
X137032Y-40001D01*
Y-37999D01*
X136266Y-36150D01*
X135367Y-35250D01*
Y-34395D01*
X137476Y-32286D01*
X145081D01*
X146369Y-32029D01*
X147462Y-31300D01*
X183395Y4633D01*
X218605D01*
X220968Y2271D01*
Y999D01*
X221734Y-850D01*
X223150Y-2266D01*
X224999Y-3032D01*
X227001D01*
X228850Y-2266D01*
X230266Y-850D01*
X231032Y999D01*
Y3001D01*
X230266Y4850D01*
X228850Y6266D01*
X227001Y7032D01*
X225729D01*
X222381Y10381D01*
X221288Y11110D01*
X220000Y11367D01*
X198142D01*
X197468Y12637D01*
X198032Y13999D01*
Y16001D01*
X197266Y17850D01*
X195850Y19266D01*
X194425Y19856D01*
X194491Y21204D01*
X195794Y21599D01*
X198863Y23239D01*
X201553Y25447D01*
X203761Y28137D01*
X205401Y31206D01*
X206411Y34537D01*
X206752Y38000D01*
X206411Y41463D01*
X205401Y44794D01*
X203761Y47863D01*
X201553Y50553D01*
X198863Y52761D01*
X195794Y54401D01*
X192463Y55411D01*
X189000Y55753D01*
X185537Y55411D01*
X182206Y54401D01*
X179137Y52761D01*
X176447Y50553D01*
X174239Y47863D01*
X172810Y45189D01*
X171540Y45507D01*
Y50040D01*
X163770D01*
Y39750D01*
X162500D01*
Y38480D01*
X153460D01*
Y29460D01*
X159683D01*
X160459Y28190D01*
X159967Y27002D01*
Y25000D01*
X160733Y23150D01*
X162149Y21735D01*
X162387Y21636D01*
Y20366D01*
X162150Y20268D01*
X160734Y18852D01*
X159968Y17003D01*
Y15001D01*
X160734Y13151D01*
X162150Y11736D01*
X163999Y10970D01*
X166001D01*
X167850Y11736D01*
X169266Y13151D01*
X170032Y15001D01*
Y17003D01*
X169266Y18852D01*
X167850Y20268D01*
X167612Y20366D01*
Y21636D01*
X167850Y21735D01*
X169265Y23150D01*
X170031Y25000D01*
Y27002D01*
X169539Y28190D01*
X170316Y29460D01*
X171540D01*
Y30493D01*
X172810Y30812D01*
X174239Y28137D01*
X176447Y25447D01*
X179137Y23239D01*
X182206Y21599D01*
X185537Y20589D01*
X188629Y20284D01*
X188566Y19014D01*
X179000D01*
X177464Y18709D01*
X176162Y17838D01*
X141355Y-16968D01*
X140999D01*
X139150Y-17734D01*
X137734Y-19150D01*
X136968Y-20999D01*
Y-23001D01*
X137499Y-24282D01*
X136777Y-25552D01*
X136081D01*
X134793Y-25809D01*
X133700Y-26538D01*
X129619Y-30619D01*
X128890Y-31712D01*
X128633Y-33000D01*
Y-35250D01*
X127734Y-36150D01*
X127302Y-37193D01*
X126032Y-36940D01*
Y-29968D01*
X124673D01*
Y29968D01*
X126032D01*
Y49532D01*
X108968D01*
Y43014D01*
X107102D01*
X106850Y43266D01*
X105001Y44032D01*
X102999D01*
X101150Y43266D01*
X99734Y41850D01*
X99284Y40764D01*
X98014Y41017D01*
Y45337D01*
X106663Y53986D01*
X144000D01*
X145536Y54291D01*
X146838Y55162D01*
X151663Y59986D01*
X176898D01*
X177150Y59734D01*
X178999Y58968D01*
X181001D01*
X182850Y59734D01*
X184266Y61150D01*
X185032Y62999D01*
Y65001D01*
X184266Y66850D01*
X182850Y68266D01*
X181001Y69032D01*
X178999D01*
X177150Y68266D01*
X176898Y68014D01*
X150000D01*
X148464Y67709D01*
X147162Y66838D01*
X142337Y62014D01*
X105000D01*
X103464Y61709D01*
X102162Y60838D01*
X91162Y49838D01*
X90291Y48536D01*
X89986Y47000D01*
Y36000D01*
X90291Y34464D01*
X91162Y33162D01*
X97986Y26337D01*
Y-29177D01*
X81302Y-45861D01*
X80032Y-45335D01*
Y-45095D01*
X79266Y-43246D01*
X78559Y-42538D01*
Y-37689D01*
X78752Y-37609D01*
X80168Y-36193D01*
X80934Y-34344D01*
Y-32342D01*
X80168Y-30492D01*
X78752Y-29077D01*
X78245Y-28867D01*
X77997Y-27621D01*
X78267Y-27351D01*
X79033Y-25502D01*
Y-23500D01*
X78267Y-21650D01*
X76851Y-20235D01*
X75002Y-19469D01*
X73000D01*
X71150Y-20235D01*
X69735Y-21650D01*
X68969Y-23500D01*
Y-25502D01*
X69735Y-27351D01*
X71150Y-28767D01*
X71658Y-28977D01*
X71906Y-30223D01*
X71636Y-30492D01*
X70870Y-32342D01*
Y-34344D01*
X71636Y-36193D01*
X72343Y-36900D01*
Y-41750D01*
X72150Y-41830D01*
X70734Y-43246D01*
X70593Y-43586D01*
X69850Y-43734D01*
X68001Y-42968D01*
X65999D01*
X64150Y-43734D01*
X62734Y-45150D01*
X61968Y-46999D01*
Y-49001D01*
X62257Y-49698D01*
X61999Y-50968D01*
X60150Y-51734D01*
X59932Y-51952D01*
X58662Y-51426D01*
Y-39931D01*
X64065Y-34527D01*
X64850Y-34202D01*
X66266Y-32786D01*
X67032Y-30937D01*
Y-28935D01*
X66266Y-27086D01*
X64850Y-25670D01*
X63001Y-24904D01*
X60999D01*
X59150Y-25670D01*
X57734Y-27086D01*
X57318Y-28089D01*
X56706Y-28701D01*
X55533Y-28215D01*
Y-27998D01*
X54767Y-26149D01*
X53351Y-24733D01*
X51502Y-23967D01*
X49500D01*
X47650Y-24733D01*
X46235Y-26149D01*
X45469Y-27998D01*
Y-30000D01*
X46235Y-31850D01*
X47650Y-33265D01*
X49500Y-34031D01*
X49626D01*
X50305Y-35301D01*
X49693Y-36216D01*
X49338Y-38000D01*
Y-56105D01*
X48968Y-56999D01*
Y-59001D01*
X49734Y-60850D01*
X50247Y-61363D01*
X49721Y-62633D01*
X22558D01*
X22032Y-61363D01*
X26246Y-57150D01*
X26919Y-56141D01*
X27156Y-54952D01*
Y-47301D01*
X26919Y-46111D01*
X26246Y-45103D01*
X-29892Y11035D01*
Y17556D01*
X-28719Y18042D01*
X-26838Y16162D01*
X-25536Y15291D01*
X-24000Y14986D01*
X-13663D01*
X-9442Y10766D01*
X-9740Y9268D01*
X-10716Y8863D01*
X-12132Y7448D01*
X-12898Y5598D01*
Y3596D01*
X-12132Y1747D01*
X-10716Y331D01*
X-8867Y-435D01*
X-8511D01*
X-4107Y-4838D01*
X-2804Y-5709D01*
X-1268Y-6014D01*
X16000D01*
X17536Y-5709D01*
X18838Y-4838D01*
X40663Y16986D01*
X64000D01*
X65536Y17291D01*
X66838Y18162D01*
X82645Y33968D01*
X83001D01*
X84850Y34734D01*
X86266Y36150D01*
X87032Y37999D01*
Y40001D01*
X86266Y41850D01*
X84850Y43266D01*
X83001Y44032D01*
X80999D01*
X79150Y43266D01*
X77734Y41850D01*
X76968Y40001D01*
Y39645D01*
X62337Y25014D01*
X51926D01*
X51400Y26284D01*
X52266Y27150D01*
X53032Y28999D01*
Y31001D01*
X52266Y32850D01*
X50850Y34266D01*
X50005Y34616D01*
X49707Y36114D01*
X50956Y37364D01*
X51850Y37734D01*
X53266Y39150D01*
X54032Y40999D01*
Y43001D01*
X53266Y44850D01*
X51850Y46266D01*
X50001Y47032D01*
X47999D01*
X46150Y46266D01*
X44734Y44850D01*
X44364Y43956D01*
X38469Y38061D01*
X-8128D01*
Y40432D01*
X-10498D01*
Y71160D01*
X-10853Y72944D01*
X-11864Y74456D01*
X-20172Y82764D01*
X-21684Y83775D01*
X-23468Y84130D01*
X-30105D01*
X-30999Y84500D01*
X-33001D01*
X-34850Y83734D01*
X-36266Y82318D01*
X-37032Y80469D01*
Y78467D01*
X-36266Y76618D01*
X-34850Y75202D01*
X-33001Y74436D01*
X-30999D01*
X-30105Y74806D01*
X-25399D01*
X-19822Y69229D01*
Y40432D01*
X-22192D01*
Y39504D01*
X-22558Y39352D01*
X-23462Y39096D01*
X-24946Y39953D01*
X-26734Y40432D01*
X-28586D01*
X-30374Y39953D01*
X-31050Y39563D01*
X-31724Y40049D01*
X-32052Y40451D01*
X-31844Y41495D01*
Y66399D01*
X-32081Y67588D01*
X-32754Y68596D01*
X-38828Y74670D01*
Y85777D01*
X-35254Y89351D01*
X-34581Y90359D01*
X-34344Y91548D01*
Y136169D01*
X-34581Y137358D01*
X-35254Y138366D01*
X-41730Y144842D01*
X-41322Y146044D01*
X-41168Y146065D01*
X-39273Y146849D01*
X-37646Y148098D01*
X-36398Y149725D01*
X-35612Y151620D01*
X-35345Y153654D01*
Y157634D01*
X-43202D01*
X-51059D01*
Y155830D01*
X-52232Y155344D01*
X-58307Y161419D01*
X-58043Y162749D01*
X-58496Y165029D01*
X-59787Y166961D01*
X-76788Y183962D01*
X-78720Y185253D01*
X-81000Y185707D01*
X-108968D01*
Y189532D01*
X-126032D01*
Y169968D01*
X-124673D01*
Y110032D01*
X-126032D01*
Y90468D01*
X-121009D01*
X-120827Y90235D01*
X-121103Y88522D01*
X-121257Y88419D01*
X-131663Y78014D01*
X-206438D01*
X-207974Y77709D01*
X-209276Y76838D01*
X-218840Y67275D01*
X-219196D01*
X-221045Y66509D01*
X-222461Y65093D01*
X-223227Y63244D01*
Y61242D01*
X-222461Y59392D01*
X-221045Y57977D01*
X-219196Y57211D01*
X-218178D01*
X-217652Y55941D01*
X-230956Y42636D01*
X-231850Y42266D01*
X-233266Y40850D01*
X-234032Y39001D01*
Y36999D01*
X-233266Y35150D01*
X-231850Y33734D01*
X-230001Y32968D01*
X-227999D01*
X-226150Y33734D01*
X-224734Y35150D01*
X-224364Y36044D01*
X-198069Y62338D01*
X-146895D01*
X-146001Y61968D01*
X-143999D01*
X-142150Y62734D01*
X-140734Y64150D01*
X-139968Y65999D01*
Y68001D01*
X-140264Y68716D01*
X-139416Y69986D01*
X-130000D01*
X-128464Y70291D01*
X-127867Y70690D01*
X-127058Y69704D01*
X-131523Y65238D01*
X-132253Y64146D01*
X-132433Y63239D01*
X-132464Y63198D01*
X-133350Y62639D01*
X-133779Y62527D01*
X-134999Y63032D01*
X-137001D01*
X-138850Y62266D01*
X-140266Y60850D01*
X-141032Y59001D01*
Y56999D01*
X-140266Y55150D01*
X-139300Y54184D01*
X-140150Y53266D01*
X-141999Y54032D01*
X-144001D01*
X-145850Y53266D01*
X-147266Y51850D01*
X-148032Y50001D01*
Y47999D01*
X-147743Y47302D01*
X-148001Y46032D01*
X-149850Y45266D01*
X-151266Y43850D01*
X-152032Y42001D01*
Y39999D01*
X-151266Y38150D01*
X-149850Y36734D01*
X-148001Y35968D01*
X-146363D01*
X-144360Y33965D01*
Y26852D01*
X-145630Y26600D01*
X-145734Y26850D01*
X-147150Y28266D01*
X-148999Y29032D01*
X-151001D01*
X-152850Y28266D01*
X-153750Y27367D01*
X-202605D01*
X-203968Y28729D01*
Y30001D01*
X-204734Y31850D01*
X-206150Y33266D01*
X-207999Y34032D01*
X-210001D01*
X-211850Y33266D01*
X-213266Y31850D01*
X-214032Y30001D01*
Y27999D01*
X-213266Y26150D01*
X-211850Y24734D01*
X-210001Y23968D01*
X-208729D01*
X-206381Y21619D01*
X-205288Y20890D01*
X-204000Y20633D01*
X-153750D01*
X-152850Y19734D01*
X-151001Y18968D01*
X-148999D01*
X-147150Y19734D01*
X-145734Y21150D01*
X-145630Y21400D01*
X-144360Y21148D01*
Y-1976D01*
X-145630Y-2502D01*
X-146398Y-1734D01*
X-148248Y-968D01*
X-150250D01*
X-152099Y-1734D01*
X-153515Y-3150D01*
X-154281Y-4999D01*
Y-7001D01*
X-153515Y-8850D01*
X-152099Y-10266D01*
X-150250Y-11032D01*
X-148248D01*
X-146398Y-10266D01*
X-145630Y-9498D01*
X-144360Y-10024D01*
Y-17300D01*
X-144124Y-18490D01*
X-143450Y-19498D01*
X-137703Y-25245D01*
X-136694Y-25919D01*
X-135505Y-26156D01*
X-130495D01*
X-129306Y-25919D01*
X-128297Y-25245D01*
X-125943Y-22891D01*
X-124673Y-23417D01*
Y-29968D01*
X-126032D01*
Y-49532D01*
X-125040D01*
Y-51895D01*
X-129971Y-56827D01*
X-199997D01*
X-200452Y-55557D01*
X-200447Y-55553D01*
X-198239Y-52863D01*
X-196599Y-49794D01*
X-195589Y-46463D01*
X-195247Y-43000D01*
X-195589Y-39537D01*
X-196599Y-36206D01*
X-198239Y-33137D01*
X-200447Y-30447D01*
X-203137Y-28239D01*
X-206206Y-26599D01*
X-209537Y-25589D01*
X-213000Y-25247D01*
X-216463Y-25589D01*
X-219794Y-26599D01*
X-222863Y-28239D01*
X-225553Y-30447D01*
X-227761Y-33137D01*
X-229401Y-36206D01*
X-230411Y-39537D01*
X-230753Y-43000D01*
X-230411Y-46463D01*
X-229401Y-49794D01*
X-227761Y-52863D01*
X-225553Y-55553D01*
X-222863Y-57761D01*
X-219794Y-59401D01*
X-216463Y-60411D01*
X-214988Y-60557D01*
X-215051Y-61827D01*
X-223030D01*
X-225429Y-59429D01*
X-226914Y-58288D01*
X-228644Y-57572D01*
X-230501Y-57327D01*
X-232357Y-57572D01*
X-234088Y-58288D01*
X-235573Y-59429D01*
X-236713Y-60914D01*
X-237430Y-62644D01*
X-237674Y-64501D01*
X-237430Y-66357D01*
X-236713Y-68088D01*
X-235573Y-69573D01*
X-231074Y-74072D01*
X-229588Y-75212D01*
X-227858Y-75929D01*
X-226002Y-76173D01*
X-206000D01*
X-204143Y-75929D01*
X-202413Y-75212D01*
X-200928Y-74072D01*
X-198029Y-71173D01*
X-127000D01*
X-125143Y-70929D01*
X-123413Y-70212D01*
X-121928Y-69072D01*
X-112794Y-59939D01*
X-111654Y-58453D01*
X-110937Y-56723D01*
X-110693Y-54866D01*
Y-49532D01*
X-108968D01*
Y-43117D01*
X-93645D01*
X-70560Y-66201D01*
X-71046Y-67374D01*
X-89000D01*
X-89000Y-67374D01*
X-90387Y-67650D01*
X-91564Y-68436D01*
X-91564Y-68436D01*
X-120064Y-96936D01*
X-120850Y-98112D01*
X-121126Y-99500D01*
X-121890Y-100468D01*
X-126032D01*
Y-120032D01*
X-124673D01*
Y-124827D01*
X-211029D01*
X-225928Y-109928D01*
X-227413Y-108788D01*
X-229143Y-108071D01*
X-231000Y-107827D01*
X-232857Y-108071D01*
X-234587Y-108788D01*
X-236072Y-109928D01*
X-237212Y-111413D01*
X-237929Y-113143D01*
X-238173Y-115000D01*
X-237929Y-116857D01*
X-237212Y-118587D01*
X-236072Y-120072D01*
X-219072Y-137072D01*
X-217587Y-138212D01*
X-215857Y-138929D01*
X-214000Y-139173D01*
X-152051D01*
X-151988Y-140443D01*
X-153463Y-140589D01*
X-156794Y-141599D01*
X-159863Y-143239D01*
X-162553Y-145447D01*
X-164761Y-148137D01*
X-166401Y-151206D01*
X-167411Y-154537D01*
X-167752Y-158000D01*
X-167550Y-160059D01*
X-168403Y-161000D01*
X-246633D01*
Y193739D01*
X-246633Y193746D01*
X-246633Y195000D01*
X-246556Y196238D01*
X-246325Y199170D01*
X-245349Y203236D01*
X-243748Y207100D01*
X-241563Y210666D01*
X-238847Y213847D01*
X-235666Y216563D01*
X-232100Y218748D01*
X-228236Y220349D01*
X-224170Y221325D01*
X-220072Y221647D01*
X-220000Y221633D01*
X220000D01*
X220072Y221647D01*
X224170Y221325D01*
D02*
G37*
G36*
X-68211Y158538D02*
X-66279Y157246D01*
X-63999Y156793D01*
X-62724Y157046D01*
X-40560Y134882D01*
Y112103D01*
X-41830Y111255D01*
X-42499Y111532D01*
X-43771D01*
X-50619Y118381D01*
X-51712Y119110D01*
X-53000Y119367D01*
X-59250D01*
X-60150Y120266D01*
X-61999Y121032D01*
X-64001D01*
X-65850Y120266D01*
X-67266Y118850D01*
X-68032Y117001D01*
Y115223D01*
X-68653Y114788D01*
X-69205Y114600D01*
X-74892Y120287D01*
Y143000D01*
X-75129Y144189D01*
X-75802Y145197D01*
X-87802Y157198D01*
X-88811Y157871D01*
X-90000Y158108D01*
X-100000D01*
X-101189Y157871D01*
X-102198Y157198D01*
X-107957Y151438D01*
X-108630Y150430D01*
X-108867Y149241D01*
Y143356D01*
X-109057Y143229D01*
X-110327Y143908D01*
Y169968D01*
X-108968D01*
Y173794D01*
X-83467D01*
X-68211Y158538D01*
D02*
G37*
G36*
X-81108Y141713D02*
Y119000D01*
X-80871Y117811D01*
X-80197Y116803D01*
X-49108Y85713D01*
Y50287D01*
X-49363Y50032D01*
X-51001D01*
X-51627Y49773D01*
X-51968Y50001D01*
X-52734Y51850D01*
X-53196Y52312D01*
X-53198Y53686D01*
X-53054Y53830D01*
X-51782Y55102D01*
X-51016Y56951D01*
Y58953D01*
X-51782Y60802D01*
X-53198Y62218D01*
X-55047Y62984D01*
X-57049D01*
X-58898Y62218D01*
X-59798Y61319D01*
X-81558D01*
X-85619Y65381D01*
X-86712Y66110D01*
X-88000Y66367D01*
X-118382D01*
X-119248Y66194D01*
X-119874Y67365D01*
X-118335Y68904D01*
X-112729D01*
X-111441Y69160D01*
X-110349Y69890D01*
X-102836Y77403D01*
X-102106Y78495D01*
X-101850Y79783D01*
Y80396D01*
X-100580Y81244D01*
X-99916Y80969D01*
X-99237D01*
X-95429Y77162D01*
X-94127Y76291D01*
X-92591Y75986D01*
X-83000D01*
X-81464Y76291D01*
X-80162Y77162D01*
X-76900Y80423D01*
X-66309D01*
X-63865Y77978D01*
X-63266Y76532D01*
X-61850Y75117D01*
X-60001Y74351D01*
X-57999D01*
X-56150Y75117D01*
X-54734Y76532D01*
X-53968Y78382D01*
Y80384D01*
X-54734Y82233D01*
X-56150Y83649D01*
X-57999Y84415D01*
X-58948D01*
X-61808Y87275D01*
X-63111Y88146D01*
X-64647Y88451D01*
X-72608D01*
Y100432D01*
X-86672D01*
Y99503D01*
X-87038Y99352D01*
X-87942Y99096D01*
X-89426Y99953D01*
X-91214Y100432D01*
X-93066D01*
X-94854Y99953D01*
X-96458Y99027D01*
X-97284Y99955D01*
X-84619Y112619D01*
X-83890Y113712D01*
X-83633Y115000D01*
Y131000D01*
X-83890Y132288D01*
X-84619Y133381D01*
X-87297Y136059D01*
X-88390Y136788D01*
X-89678Y137045D01*
X-91215D01*
X-91373Y137318D01*
X-92171Y138115D01*
X-92341Y139270D01*
X-92087Y139750D01*
X-90967Y140870D01*
X-89974Y142590D01*
X-89534Y144230D01*
X-97000D01*
Y146770D01*
X-89534D01*
X-89974Y148410D01*
X-90483Y149292D01*
X-89466Y150071D01*
X-81108Y141713D01*
D02*
G37*
G36*
X43263Y28287D02*
X43734Y27150D01*
X44600Y26284D01*
X44074Y25014D01*
X39000D01*
X37464Y24709D01*
X36162Y23838D01*
X14337Y2014D01*
X5790D01*
X5322Y3284D01*
X6032Y4999D01*
Y7001D01*
X5266Y8850D01*
X3850Y10266D01*
X2001Y11032D01*
X1645D01*
X-9162Y21838D01*
X-10464Y22709D01*
X-12000Y23014D01*
X-22337D01*
X-23986Y24663D01*
Y26623D01*
X-23462Y26999D01*
X-22192Y26368D01*
Y26368D01*
X-8128D01*
Y28738D01*
X40400D01*
X41699Y28997D01*
X42312Y28998D01*
X43263Y28287D01*
D02*
G37*
G36*
X-45566Y29596D02*
X-44049Y28968D01*
X-42047D01*
X-41378Y29245D01*
X-40108Y28397D01*
Y25000D01*
X-39871Y23811D01*
X-39197Y22803D01*
X-36108Y19713D01*
Y9747D01*
X-35871Y8558D01*
X-35198Y7550D01*
X-32929Y5281D01*
X-33415Y4108D01*
X-81000D01*
X-82189Y3871D01*
X-83197Y3198D01*
X-88363Y-1968D01*
X-90001D01*
X-91850Y-2734D01*
X-93266Y-4150D01*
X-93622Y-5010D01*
X-94892Y-4757D01*
Y3943D01*
X-93734Y5102D01*
X-92968Y6951D01*
Y8953D01*
X-93734Y10802D01*
X-95150Y12218D01*
X-96999Y12984D01*
X-99001D01*
X-100850Y12218D01*
X-102266Y10802D01*
X-103032Y8953D01*
Y6951D01*
X-102266Y5102D01*
X-101108Y3943D01*
Y-6967D01*
X-100871Y-8156D01*
X-100197Y-9165D01*
X-93999Y-15363D01*
Y-17001D01*
X-93233Y-18850D01*
X-91818Y-20266D01*
X-89968Y-21032D01*
X-87966D01*
X-86117Y-20266D01*
X-84701Y-18850D01*
X-83935Y-17001D01*
Y-14999D01*
X-84701Y-13150D01*
X-85538Y-12313D01*
X-86002Y-11519D01*
X-85538Y-10654D01*
X-84734Y-9850D01*
X-83968Y-8001D01*
Y-6363D01*
X-79713Y-2108D01*
X-31287D01*
X14228Y-47623D01*
X13734Y-48117D01*
X13509Y-48661D01*
X12902Y-48782D01*
X11052Y-48016D01*
X9780D01*
X5614Y-43849D01*
X4522Y-43120D01*
X3233Y-42863D01*
X-9230D01*
X-10518Y-43120D01*
X-11611Y-43849D01*
X-29395Y-61633D01*
X-65606D01*
X-89869Y-37369D01*
X-90962Y-36640D01*
X-92250Y-36383D01*
X-108968D01*
Y-29968D01*
X-110327D01*
Y29070D01*
X-110005Y29392D01*
X-108406Y29371D01*
X-108108Y29054D01*
Y27000D01*
X-107871Y25811D01*
X-107198Y24802D01*
X-103149Y20754D01*
X-102141Y20081D01*
X-100952Y19844D01*
X-81048D01*
X-79859Y20081D01*
X-78850Y20754D01*
X-75870Y23735D01*
X-71166D01*
X-70008Y22577D01*
X-68158Y21811D01*
X-66157D01*
X-64761Y22388D01*
X-64266Y22128D01*
X-63642Y21600D01*
X-63632Y21586D01*
Y19794D01*
X-62866Y17944D01*
X-61451Y16529D01*
X-60359Y16077D01*
X-59475Y14891D01*
Y12889D01*
X-58709Y11040D01*
X-57294Y9624D01*
X-55444Y8858D01*
X-53443D01*
X-51593Y9624D01*
X-50177Y11040D01*
X-49411Y12889D01*
Y14891D01*
X-49619Y15393D01*
X-48820Y16193D01*
X-48146Y17201D01*
X-47909Y18390D01*
Y28895D01*
X-46751Y30054D01*
X-45566Y29596D01*
D02*
G37*
G36*
X-29850Y-82266D02*
X-28001Y-83032D01*
X-26363D01*
X-24677Y-84718D01*
X-23669Y-85391D01*
X-22480Y-85628D01*
X-9804D01*
X-9234Y-86198D01*
X-8226Y-86871D01*
X-7037Y-87108D01*
X-4009D01*
X-2850Y-88266D01*
X-1001Y-89032D01*
X1001D01*
X1493Y-88828D01*
X2465Y-89800D01*
X1968Y-90999D01*
Y-93001D01*
X2678Y-94716D01*
X2210Y-95986D01*
X-24337D01*
X-32101Y-88222D01*
Y-82102D01*
X-31428Y-81429D01*
X-30810Y-81306D01*
X-29850Y-82266D01*
D02*
G37*
G36*
X-40029Y-75896D02*
X-40726Y-77578D01*
Y-79580D01*
X-40129Y-81021D01*
Y-89885D01*
X-39824Y-91421D01*
X-38954Y-92723D01*
X-28838Y-102838D01*
X-27536Y-103709D01*
X-26000Y-104014D01*
X18000D01*
X19536Y-103709D01*
X20838Y-102838D01*
X23712Y-99965D01*
X24968Y-100505D01*
Y-102001D01*
X25734Y-103850D01*
X26633Y-104750D01*
Y-110732D01*
X26890Y-112020D01*
X27619Y-113112D01*
X30302Y-115795D01*
X29816Y-116968D01*
X16392D01*
X9212Y-109788D01*
X7279Y-108497D01*
X5000Y-108043D01*
X2721Y-108497D01*
X788Y-109788D01*
X-503Y-111721D01*
X-957Y-114000D01*
X-503Y-116279D01*
X788Y-118212D01*
X10288Y-127712D01*
X10288Y-127712D01*
X12220Y-129003D01*
X13898Y-129337D01*
X14061Y-129716D01*
X13224Y-130986D01*
X11663D01*
X1338Y-120662D01*
X36Y-119791D01*
X-1500Y-119486D01*
X-14968D01*
Y-116968D01*
X-34032D01*
Y-130032D01*
X-14968D01*
Y-127514D01*
X-3163D01*
X7162Y-137838D01*
X8464Y-138709D01*
X10000Y-139014D01*
X21898D01*
X22150Y-139266D01*
X23999Y-140032D01*
X26001D01*
X27850Y-139266D01*
X29266Y-137850D01*
X30032Y-136001D01*
Y-133999D01*
X29266Y-132150D01*
X28418Y-131302D01*
X28944Y-130032D01*
X34032D01*
Y-121184D01*
X35205Y-120698D01*
X50433Y-135926D01*
Y-151450D01*
X49534Y-152350D01*
X48768Y-154199D01*
Y-156201D01*
X49534Y-158050D01*
X50950Y-159466D01*
X51587Y-159730D01*
X51335Y-161000D01*
X34032D01*
Y-149968D01*
X14968D01*
Y-161000D01*
X-14460D01*
Y-157770D01*
X-24500D01*
X-34540D01*
Y-161000D01*
X-110327D01*
Y-132000D01*
Y-120032D01*
X-108968D01*
Y-100468D01*
X-111681D01*
X-112167Y-99295D01*
X-87498Y-74626D01*
X-40517D01*
X-40029Y-75896D01*
D02*
G37*
G36*
X85338Y-71135D02*
Y-77069D01*
X84044Y-78364D01*
X83150Y-78734D01*
X81734Y-80150D01*
X80968Y-81999D01*
Y-84001D01*
X81734Y-85850D01*
X83150Y-87266D01*
X84999Y-88032D01*
X87001D01*
X88850Y-87266D01*
X90266Y-85850D01*
X90636Y-84956D01*
X93296Y-82296D01*
X93632Y-81794D01*
X94935Y-81698D01*
X95160Y-81794D01*
X95246Y-81923D01*
X112521Y-99198D01*
X111995Y-100468D01*
X108968D01*
Y-100780D01*
X97333D01*
X95476Y-101025D01*
X93746Y-101741D01*
X92261Y-102881D01*
X91121Y-104367D01*
X90404Y-106097D01*
X90160Y-107954D01*
X90404Y-109810D01*
X91121Y-111540D01*
X92261Y-113026D01*
X93746Y-114166D01*
X95476Y-114882D01*
X97333Y-115127D01*
X108968D01*
Y-120032D01*
X110327D01*
Y-134414D01*
X109057Y-134940D01*
X108850Y-134734D01*
X107001Y-133968D01*
X104999D01*
X103150Y-134734D01*
X102898Y-134986D01*
X68852D01*
X67901Y-134034D01*
X68198Y-132536D01*
X68850Y-132266D01*
X70266Y-130850D01*
X71032Y-129001D01*
Y-126999D01*
X70266Y-125150D01*
X68850Y-123734D01*
X67001Y-122968D01*
X64999D01*
X63150Y-123734D01*
X61734Y-125150D01*
X61464Y-125801D01*
X59966Y-126100D01*
X54014Y-120148D01*
Y-104102D01*
X54266Y-103850D01*
X55032Y-102001D01*
Y-99999D01*
X54266Y-98150D01*
X52850Y-96734D01*
X51001Y-95968D01*
X48999D01*
X47150Y-96734D01*
X45734Y-98150D01*
X44968Y-99999D01*
Y-102001D01*
X45734Y-103850D01*
X45986Y-104102D01*
Y-120160D01*
X44716Y-120687D01*
X33367Y-109337D01*
Y-104750D01*
X34266Y-103850D01*
X35032Y-102001D01*
Y-99999D01*
X34266Y-98150D01*
X32850Y-96734D01*
X31001Y-95968D01*
X29505D01*
X28965Y-94712D01*
X40663Y-83014D01*
X70000D01*
X71536Y-82709D01*
X72838Y-81838D01*
X84068Y-70608D01*
X85338Y-71135D01*
D02*
G37*
%LPC*%
G36*
X-17000Y219753D02*
X-20463Y219411D01*
X-23794Y218401D01*
X-26863Y216761D01*
X-29553Y214553D01*
X-31761Y211863D01*
X-33401Y208794D01*
X-34334Y205720D01*
X-35597Y205704D01*
X-35856Y207672D01*
X-36616Y209507D01*
X-37824Y211082D01*
X-39399Y212290D01*
X-41234Y213050D01*
X-41932Y213142D01*
Y200704D01*
Y188266D01*
X-41234Y188358D01*
X-39399Y189118D01*
X-37824Y190326D01*
X-36616Y191901D01*
X-35856Y193736D01*
X-35597Y195704D01*
Y198070D01*
X-34327Y198258D01*
X-33401Y195206D01*
X-31761Y192137D01*
X-29553Y189447D01*
X-26863Y187239D01*
X-23794Y185599D01*
X-20463Y184589D01*
X-17000Y184248D01*
X-13537Y184589D01*
X-10206Y185599D01*
X-7137Y187239D01*
X-4447Y189447D01*
X-2239Y192137D01*
X-599Y195206D01*
X411Y198537D01*
X752Y202000D01*
X411Y205463D01*
X-599Y208794D01*
X-2239Y211863D01*
X-4447Y214553D01*
X-7137Y216761D01*
X-10206Y218401D01*
X-13537Y219411D01*
X-17000Y219753D01*
D02*
G37*
G36*
X-62998Y214281D02*
X-65000D01*
X-66850Y213515D01*
X-68265Y212099D01*
X-69031Y210250D01*
Y208248D01*
X-68265Y206399D01*
X-66850Y204983D01*
X-65000Y204217D01*
X-62998D01*
X-61149Y204983D01*
X-59733Y206399D01*
X-58967Y208248D01*
Y210250D01*
X-59733Y212099D01*
X-61149Y213515D01*
X-62998Y214281D01*
D02*
G37*
G36*
X44468Y213142D02*
Y201974D01*
X50803D01*
Y205704D01*
X50544Y207672D01*
X49784Y209507D01*
X48576Y211082D01*
X47000Y212290D01*
X45166Y213050D01*
X44468Y213142D01*
D02*
G37*
G36*
X41928D02*
X41230Y213050D01*
X39395Y212290D01*
X37820Y211082D01*
X36612Y209507D01*
X35852Y207672D01*
X35593Y205704D01*
Y201974D01*
X41928D01*
Y213142D01*
D02*
G37*
G36*
X-44472D02*
X-45170Y213050D01*
X-47004Y212290D01*
X-48580Y211082D01*
X-49788Y209507D01*
X-50548Y207672D01*
X-50807Y205704D01*
Y201974D01*
X-44472D01*
Y213142D01*
D02*
G37*
G36*
X171540Y200040D02*
X163770D01*
Y191020D01*
X171540D01*
Y200040D01*
D02*
G37*
G36*
X161230D02*
X153460D01*
Y191020D01*
X161230D01*
Y200040D01*
D02*
G37*
G36*
X50803Y199434D02*
X44468D01*
Y188266D01*
X45166Y188358D01*
X47000Y189118D01*
X48576Y190326D01*
X49784Y191901D01*
X50544Y193736D01*
X50803Y195704D01*
Y199434D01*
D02*
G37*
G36*
X41928D02*
X35593D01*
Y195704D01*
X35852Y193736D01*
X36612Y191901D01*
X37820Y190326D01*
X39395Y189118D01*
X41230Y188358D01*
X41928Y188266D01*
Y199434D01*
D02*
G37*
G36*
X-44472D02*
X-50807D01*
Y195704D01*
X-50548Y193736D01*
X-49788Y191901D01*
X-48580Y190326D01*
X-47004Y189118D01*
X-45170Y188358D01*
X-44472Y188266D01*
Y199434D01*
D02*
G37*
G36*
X-153460Y190040D02*
X-161230D01*
Y181020D01*
X-153460D01*
Y190040D01*
D02*
G37*
G36*
X-163770D02*
X-171540D01*
Y181020D01*
X-163770D01*
Y190040D01*
D02*
G37*
G36*
X171540Y188480D02*
X163770D01*
Y179460D01*
X171540D01*
Y188480D01*
D02*
G37*
G36*
X161230D02*
X153460D01*
Y179460D01*
X161230D01*
Y188480D01*
D02*
G37*
G36*
X221677Y212032D02*
X218323D01*
X215032Y211378D01*
X211932Y210094D01*
X209143Y208230D01*
X206770Y205857D01*
X204906Y203068D01*
X203622Y199968D01*
X202968Y196677D01*
Y193323D01*
X203622Y190032D01*
X204906Y186932D01*
X206770Y184143D01*
X209143Y181770D01*
X211932Y179906D01*
X215032Y178622D01*
X218323Y177968D01*
X221677D01*
X224968Y178622D01*
X228068Y179906D01*
X230857Y181770D01*
X233230Y184143D01*
X235094Y186932D01*
X236378Y190032D01*
X237032Y193323D01*
Y196677D01*
X236378Y199968D01*
X235094Y203068D01*
X233230Y205857D01*
X230857Y208230D01*
X228068Y210094D01*
X224968Y211378D01*
X221677Y212032D01*
D02*
G37*
G36*
X-218323D02*
X-221677D01*
X-224968Y211378D01*
X-228068Y210094D01*
X-230857Y208230D01*
X-233230Y205857D01*
X-235094Y203068D01*
X-236378Y199968D01*
X-237032Y196677D01*
Y193323D01*
X-236378Y190032D01*
X-235094Y186932D01*
X-233230Y184143D01*
X-230857Y181770D01*
X-228068Y179906D01*
X-224968Y178622D01*
X-221677Y177968D01*
X-218323D01*
X-215032Y178622D01*
X-211932Y179906D01*
X-209143Y181770D01*
X-206770Y184143D01*
X-204906Y186932D01*
X-203622Y190032D01*
X-202968Y193323D01*
Y196677D01*
X-203622Y199968D01*
X-204906Y203068D01*
X-206770Y205857D01*
X-209143Y208230D01*
X-211932Y210094D01*
X-215032Y211378D01*
X-218323Y212032D01*
D02*
G37*
G36*
X55002Y185031D02*
X53000D01*
X51150Y184265D01*
X49735Y182850D01*
X48969Y181000D01*
Y178998D01*
X49735Y177149D01*
X51150Y175733D01*
X53000Y174967D01*
X55002D01*
X56851Y175733D01*
X58267Y177149D01*
X59033Y178998D01*
Y181000D01*
X58267Y182850D01*
X56851Y184265D01*
X55002Y185031D01*
D02*
G37*
G36*
X-153460Y178480D02*
X-161230D01*
Y169460D01*
X-153460D01*
Y178480D01*
D02*
G37*
G36*
X-163770D02*
X-171540D01*
Y169460D01*
X-163770D01*
Y178480D01*
D02*
G37*
G36*
X41930Y171844D02*
X41166Y171744D01*
X39271Y170959D01*
X37644Y169710D01*
X36395Y168083D01*
X35610Y166188D01*
X35449Y164958D01*
X34180Y164955D01*
X33376Y166896D01*
X31890Y168382D01*
X29949Y169186D01*
X27847D01*
X25906Y168382D01*
X24420Y166896D01*
X23616Y164955D01*
Y162853D01*
X24420Y160912D01*
X25906Y159426D01*
X27847Y158622D01*
X29949D01*
X31890Y159426D01*
X33376Y160912D01*
X34073Y162595D01*
X35343Y162342D01*
Y160174D01*
X41930D01*
Y171844D01*
D02*
G37*
G36*
X-11999Y183032D02*
X-14001D01*
X-15850Y182266D01*
X-17266Y180850D01*
X-18032Y179001D01*
Y177032D01*
X-20001D01*
X-21850Y176266D01*
X-23266Y174850D01*
X-24032Y173001D01*
Y170999D01*
X-23266Y169150D01*
X-21850Y167734D01*
X-20001Y166968D01*
X-17999D01*
X-17044Y167364D01*
X-16688Y167207D01*
X-15882Y166470D01*
Y164849D01*
X-15116Y162999D01*
X-13700Y161584D01*
X-11851Y160818D01*
X-9849D01*
X-7999Y161584D01*
X-6950Y162633D01*
X-2631D01*
X-1342Y162890D01*
X-250Y163619D01*
X1601Y165470D01*
X3499D01*
X5348Y166236D01*
X6764Y167652D01*
X7530Y169501D01*
Y171503D01*
X6764Y173352D01*
X5348Y174768D01*
X3499Y175534D01*
X1497D01*
X-352Y174768D01*
X-1768Y173352D01*
X-2534Y171503D01*
Y170858D01*
X-4025Y169367D01*
X-7250D01*
X-7999Y170116D01*
X-9849Y170882D01*
X-11851D01*
X-12806Y170486D01*
X-13161Y170643D01*
X-13968Y171379D01*
Y172968D01*
X-11999D01*
X-10150Y173734D01*
X-8734Y175150D01*
X-7968Y176999D01*
Y179001D01*
X-8734Y180850D01*
X-10150Y182266D01*
X-11999Y183032D01*
D02*
G37*
G36*
X44470Y171844D02*
Y160174D01*
X51057D01*
Y164154D01*
X50789Y166188D01*
X50005Y168083D01*
X48756Y169710D01*
X47129Y170959D01*
X45234Y171744D01*
X44470Y171844D01*
D02*
G37*
G36*
X-44472D02*
X-45236Y171744D01*
X-47131Y170959D01*
X-48758Y169710D01*
X-50006Y168083D01*
X-50792Y166188D01*
X-51059Y164154D01*
Y160174D01*
X-44472D01*
Y171844D01*
D02*
G37*
G36*
X-41932D02*
Y160174D01*
X-35345D01*
Y162337D01*
X-34075Y162590D01*
X-33380Y160912D01*
X-31894Y159426D01*
X-29953Y158622D01*
X-27851D01*
X-25910Y159426D01*
X-24424Y160912D01*
X-23620Y162853D01*
Y164955D01*
X-24424Y166896D01*
X-25910Y168382D01*
X-27851Y169186D01*
X-29953D01*
X-31894Y168382D01*
X-33380Y166896D01*
X-34184Y164955D01*
X-35451Y164962D01*
X-35612Y166188D01*
X-36398Y168083D01*
X-37646Y169710D01*
X-39273Y170959D01*
X-41168Y171744D01*
X-41932Y171844D01*
D02*
G37*
G36*
X-158998Y167532D02*
X-161000D01*
X-162850Y166765D01*
X-164265Y165350D01*
X-165031Y163500D01*
Y161499D01*
X-164265Y159649D01*
X-162850Y158234D01*
X-161000Y157468D01*
X-158998D01*
X-157149Y158234D01*
X-155733Y159649D01*
X-154967Y161499D01*
Y163500D01*
X-155733Y165350D01*
X-157149Y166765D01*
X-158998Y167532D01*
D02*
G37*
G36*
X-101999Y214032D02*
X-104001D01*
X-105850Y213266D01*
X-107266Y211850D01*
X-108032Y210001D01*
Y209645D01*
X-114663Y203014D01*
X-129000D01*
X-130536Y202709D01*
X-131838Y201838D01*
X-149838Y183838D01*
X-150709Y182536D01*
X-151014Y181000D01*
Y164102D01*
X-151266Y163850D01*
X-152032Y162001D01*
Y159999D01*
X-151266Y158150D01*
X-149850Y156734D01*
X-148001Y155968D01*
X-145999D01*
X-144150Y156734D01*
X-142734Y158150D01*
X-141968Y159999D01*
Y162001D01*
X-142734Y163850D01*
X-142986Y164102D01*
Y179337D01*
X-127337Y194986D01*
X-113000D01*
X-111464Y195291D01*
X-110162Y196162D01*
X-102355Y203968D01*
X-101999D01*
X-100150Y204734D01*
X-98734Y206150D01*
X-97968Y207999D01*
Y210001D01*
X-98734Y211850D01*
X-100150Y213266D01*
X-101999Y214032D01*
D02*
G37*
G36*
X-221999Y156032D02*
X-224001D01*
X-225850Y155266D01*
X-227266Y153850D01*
X-228032Y152001D01*
Y149999D01*
X-227266Y148150D01*
X-225850Y146734D01*
X-224001Y145968D01*
X-221999D01*
X-220150Y146734D01*
X-218734Y148150D01*
X-217968Y149999D01*
Y152001D01*
X-218734Y153850D01*
X-220150Y155266D01*
X-221999Y156032D01*
D02*
G37*
G36*
X51057Y157634D02*
X44470D01*
Y145964D01*
X45234Y146065D01*
X47129Y146849D01*
X48756Y148098D01*
X50005Y149725D01*
X50789Y151620D01*
X51057Y153654D01*
Y157634D01*
D02*
G37*
G36*
X41930D02*
X35343D01*
Y153654D01*
X35610Y151620D01*
X36395Y149725D01*
X37644Y148098D01*
X39271Y146849D01*
X41166Y146065D01*
X41930Y145964D01*
Y157634D01*
D02*
G37*
G36*
X220032Y150732D02*
X199968D01*
Y130668D01*
X220032D01*
Y150732D01*
D02*
G37*
G36*
X211388Y125840D02*
X211270D01*
Y116570D01*
X220540D01*
Y116688D01*
X219822Y119368D01*
X218434Y121772D01*
X216472Y123734D01*
X214068Y125122D01*
X211388Y125840D01*
D02*
G37*
G36*
X208730D02*
X208612D01*
X205932Y125122D01*
X203528Y123734D01*
X201566Y121772D01*
X200178Y119368D01*
X199460Y116688D01*
Y116570D01*
X208730D01*
Y125840D01*
D02*
G37*
G36*
X171540Y120540D02*
X163770D01*
Y111520D01*
X171540D01*
Y120540D01*
D02*
G37*
G36*
X161230D02*
X153460D01*
Y111520D01*
X161230D01*
Y120540D01*
D02*
G37*
G36*
X220540Y114030D02*
X211270D01*
Y104760D01*
X211388D01*
X214068Y105478D01*
X216472Y106866D01*
X218434Y108828D01*
X219822Y111232D01*
X220540Y113912D01*
Y114030D01*
D02*
G37*
G36*
X208730D02*
X199460D01*
Y113912D01*
X200178Y111232D01*
X201566Y108828D01*
X203528Y106866D01*
X205932Y105478D01*
X208612Y104760D01*
X208730D01*
Y114030D01*
D02*
G37*
G36*
X-222371Y114556D02*
X-224372D01*
X-226222Y113789D01*
X-227637Y112374D01*
X-228403Y110524D01*
Y108523D01*
X-227637Y106673D01*
X-226222Y105258D01*
X-224372Y104492D01*
X-222371D01*
X-220521Y105258D01*
X-219106Y106673D01*
X-218340Y108523D01*
Y110524D01*
X-219106Y112374D01*
X-220521Y113789D01*
X-222371Y114556D01*
D02*
G37*
G36*
X-21999Y120032D02*
X-24001D01*
X-25850Y119266D01*
X-27266Y117850D01*
X-28032Y116001D01*
Y113999D01*
X-27266Y112150D01*
X-25850Y110734D01*
X-24001Y109968D01*
X-21999D01*
X-20150Y110734D01*
X-19250Y111633D01*
X9606D01*
X11968Y109271D01*
Y107999D01*
X12734Y106150D01*
X14150Y104734D01*
X15999Y103968D01*
X18001D01*
X19850Y104734D01*
X21266Y106150D01*
X22032Y107999D01*
Y110001D01*
X21266Y111850D01*
X19850Y113266D01*
X18001Y114032D01*
X16729D01*
X13381Y117381D01*
X12288Y118110D01*
X11000Y118367D01*
X-19250D01*
X-20150Y119266D01*
X-21999Y120032D01*
D02*
G37*
G36*
X-153460Y110540D02*
X-161230D01*
Y101520D01*
X-153460D01*
Y110540D01*
D02*
G37*
G36*
X-163770D02*
X-171540D01*
Y101520D01*
X-163770D01*
Y110540D01*
D02*
G37*
G36*
X171540Y108980D02*
X163770D01*
Y99960D01*
X171540D01*
Y108980D01*
D02*
G37*
G36*
X161230D02*
X153460D01*
Y99960D01*
X161230D01*
Y108980D01*
D02*
G37*
G36*
X-153460Y98980D02*
X-161230D01*
Y89960D01*
X-153460D01*
Y98980D01*
D02*
G37*
G36*
X-163770D02*
X-171540D01*
Y89960D01*
X-163770D01*
Y98980D01*
D02*
G37*
G36*
X97500Y203533D02*
X95498D01*
X93648Y202767D01*
X92233Y201352D01*
X91467Y199502D01*
Y197500D01*
X92233Y195651D01*
X93648Y194235D01*
X95498Y193469D01*
X97500D01*
X99054Y194113D01*
X99934Y193459D01*
X100078Y193267D01*
X99968Y193001D01*
Y190999D01*
X100734Y189150D01*
X102150Y187734D01*
X103999Y186968D01*
X106001D01*
X107698Y187671D01*
X108968Y187192D01*
Y179968D01*
X110327D01*
Y145171D01*
X100661Y135506D01*
X99521Y134020D01*
X98805Y132290D01*
X98560Y130433D01*
Y122016D01*
X98805Y120160D01*
X99521Y118430D01*
X100661Y116944D01*
X108968Y108637D01*
Y100468D01*
X113486D01*
Y91163D01*
X98337Y76014D01*
X42125D01*
X41599Y77284D01*
X42187Y77872D01*
X43113Y79476D01*
X43592Y81264D01*
Y83116D01*
X43113Y84904D01*
X42256Y86388D01*
X42512Y87292D01*
X42663Y87658D01*
X43592D01*
Y101722D01*
X29528D01*
Y87658D01*
X30457D01*
X30608Y87292D01*
X30864Y86388D01*
X30007Y84904D01*
X29528Y83116D01*
Y81264D01*
X30007Y79476D01*
X30933Y77872D01*
X31521Y77284D01*
X30995Y76014D01*
X25000D01*
X23464Y75709D01*
X22162Y74838D01*
X16353Y69030D01*
X15998D01*
X14148Y68264D01*
X12732Y66849D01*
X11966Y64999D01*
Y62997D01*
X12732Y61148D01*
X14148Y59732D01*
X15998Y58966D01*
X17999D01*
X19849Y59732D01*
X21264Y61148D01*
X22030Y62997D01*
Y63354D01*
X26663Y67986D01*
X100000D01*
X101536Y68291D01*
X102838Y69162D01*
X120338Y86662D01*
X121209Y87964D01*
X121514Y89500D01*
Y100468D01*
X126032D01*
Y120032D01*
X124944D01*
X124418Y121302D01*
X125266Y122150D01*
X126032Y123999D01*
Y126001D01*
X125266Y127850D01*
X123850Y129266D01*
X122001Y130032D01*
X119999D01*
X118150Y129266D01*
X116734Y127850D01*
X115968Y126001D01*
Y123999D01*
X116164Y123527D01*
X115087Y122808D01*
X112907Y124988D01*
Y127462D01*
X122572Y137127D01*
X123712Y138613D01*
X124429Y140343D01*
X124673Y142199D01*
Y179968D01*
X126032D01*
Y199532D01*
X108968D01*
Y196808D01*
X107698Y196329D01*
X106001Y197032D01*
X103999D01*
X102445Y196388D01*
X101565Y197042D01*
X101420Y197234D01*
X101531Y197500D01*
Y199502D01*
X100765Y201352D01*
X99349Y202767D01*
X97500Y203533D01*
D02*
G37*
G36*
X-1999Y79032D02*
X-4001D01*
X-5850Y78266D01*
X-7266Y76850D01*
X-8032Y75001D01*
Y72999D01*
X-7266Y71150D01*
X-5850Y69734D01*
X-4001Y68968D01*
X-1999D01*
X-150Y69734D01*
X1266Y71150D01*
X2032Y72999D01*
Y75001D01*
X1266Y76850D01*
X-150Y78266D01*
X-1999Y79032D01*
D02*
G37*
G36*
X-153460Y50040D02*
X-161230D01*
Y41020D01*
X-153460D01*
Y50040D01*
D02*
G37*
G36*
X161230Y50040D02*
X153460D01*
Y41020D01*
X161230D01*
Y50040D01*
D02*
G37*
G36*
X-163770Y50040D02*
X-171540D01*
Y41020D01*
X-163770D01*
Y50040D01*
D02*
G37*
G36*
X62001Y51032D02*
X59999D01*
X58150Y50266D01*
X56734Y48850D01*
X55968Y47001D01*
Y44999D01*
X56734Y43150D01*
X58150Y41734D01*
X59999Y40968D01*
X62001D01*
X63850Y41734D01*
X65266Y43150D01*
X66032Y44999D01*
Y47001D01*
X65266Y48850D01*
X63850Y50266D01*
X62001Y51032D01*
D02*
G37*
G36*
X-153460Y38480D02*
X-161230D01*
Y29460D01*
X-153460D01*
Y38480D01*
D02*
G37*
G36*
X-163770D02*
X-171540D01*
Y29460D01*
X-163770D01*
Y38480D01*
D02*
G37*
G36*
X52002Y15033D02*
X50000D01*
X48150Y14267D01*
X46735Y12851D01*
X45969Y11002D01*
Y9000D01*
X46735Y7150D01*
X48150Y5735D01*
X50000Y4969D01*
X52002D01*
X53851Y5735D01*
X55267Y7150D01*
X56033Y9000D01*
Y11002D01*
X55267Y12851D01*
X53851Y14267D01*
X52002Y15033D01*
D02*
G37*
G36*
Y-3967D02*
X50000D01*
X48150Y-4733D01*
X46735Y-6149D01*
X45969Y-7998D01*
Y-10000D01*
X46735Y-11850D01*
X48150Y-13265D01*
X50000Y-14031D01*
X52002D01*
X53851Y-13265D01*
X55267Y-11850D01*
X56033Y-10000D01*
Y-7998D01*
X55267Y-6149D01*
X53851Y-4733D01*
X52002Y-3967D01*
D02*
G37*
G36*
X171540Y-29460D02*
X163770D01*
Y-38480D01*
X171540D01*
Y-29460D01*
D02*
G37*
G36*
X161230D02*
X153460D01*
Y-38480D01*
X161230D01*
Y-29460D01*
D02*
G37*
G36*
X-153460Y-29460D02*
X-161230D01*
Y-38480D01*
X-153460D01*
Y-29460D01*
D02*
G37*
G36*
X-163770D02*
X-171540D01*
Y-38480D01*
X-163770D01*
Y-29460D01*
D02*
G37*
G36*
X171540Y-41020D02*
X163770D01*
Y-50040D01*
X171540D01*
Y-41020D01*
D02*
G37*
G36*
X161230D02*
X153460D01*
Y-50040D01*
X161230D01*
Y-41020D01*
D02*
G37*
G36*
X-153460Y-41020D02*
X-161230D01*
Y-50040D01*
X-153460D01*
Y-41020D01*
D02*
G37*
G36*
X-163770D02*
X-171540D01*
Y-50040D01*
X-163770D01*
Y-41020D01*
D02*
G37*
G36*
X-86999Y-53968D02*
X-89001D01*
X-90850Y-54734D01*
X-92266Y-56150D01*
X-93032Y-57999D01*
Y-60001D01*
X-92266Y-61850D01*
X-90850Y-63266D01*
X-89001Y-64032D01*
X-86999D01*
X-85150Y-63266D01*
X-83734Y-61850D01*
X-82968Y-60001D01*
Y-57999D01*
X-83734Y-56150D01*
X-85150Y-54734D01*
X-86999Y-53968D01*
D02*
G37*
G36*
X-196500Y-90969D02*
X-198502D01*
X-200351Y-91735D01*
X-201767Y-93150D01*
X-202533Y-95000D01*
Y-97002D01*
X-201767Y-98851D01*
X-200351Y-100267D01*
X-198502Y-101033D01*
X-196500D01*
X-194650Y-100267D01*
X-193235Y-98851D01*
X-192469Y-97002D01*
Y-95000D01*
X-193235Y-93150D01*
X-194650Y-91735D01*
X-196500Y-90969D01*
D02*
G37*
G36*
X-153460Y-99960D02*
X-161230D01*
Y-108980D01*
X-153460D01*
Y-99960D01*
D02*
G37*
G36*
X171540D02*
X163770D01*
Y-108980D01*
X171540D01*
Y-99960D01*
D02*
G37*
G36*
X161230D02*
X153460D01*
Y-108980D01*
X161230D01*
Y-99960D01*
D02*
G37*
G36*
X-163770D02*
X-171540D01*
Y-108980D01*
X-163770D01*
Y-99960D01*
D02*
G37*
G36*
X171540Y-111520D02*
X163770D01*
Y-120540D01*
X171540D01*
Y-111520D01*
D02*
G37*
G36*
X161230D02*
X153460D01*
Y-120540D01*
X161230D01*
Y-111520D01*
D02*
G37*
G36*
X-153460D02*
X-161230D01*
Y-120540D01*
X-153460D01*
Y-111520D01*
D02*
G37*
G36*
X-163770D02*
X-171540D01*
Y-120540D01*
X-163770D01*
Y-111520D01*
D02*
G37*
G36*
X143500Y-118969D02*
X141498D01*
X139649Y-119735D01*
X138233Y-121150D01*
X137467Y-123000D01*
Y-125002D01*
X138233Y-126851D01*
X139649Y-128267D01*
X141498Y-129033D01*
X143500D01*
X145350Y-128267D01*
X146765Y-126851D01*
X147531Y-125002D01*
Y-123000D01*
X146765Y-121150D01*
X145350Y-119735D01*
X143500Y-118969D01*
D02*
G37*
G36*
X-70000Y17033D02*
X-72002D01*
X-73851Y16267D01*
X-75267Y14851D01*
X-76033Y13002D01*
Y11000D01*
X-75267Y9150D01*
X-73851Y7735D01*
X-72002Y6969D01*
X-70000D01*
X-68150Y7735D01*
X-66735Y9150D01*
X-65969Y11000D01*
Y13002D01*
X-66735Y14851D01*
X-68150Y16267D01*
X-70000Y17033D01*
D02*
G37*
G36*
X-44000Y-117969D02*
X-46002D01*
X-47851Y-118735D01*
X-49267Y-120150D01*
X-50033Y-122000D01*
Y-124002D01*
X-49267Y-125851D01*
X-47851Y-127267D01*
X-46002Y-128033D01*
X-44000D01*
X-42150Y-127267D01*
X-40735Y-125851D01*
X-39969Y-124002D01*
Y-122000D01*
X-40735Y-120150D01*
X-42150Y-118735D01*
X-44000Y-117969D01*
D02*
G37*
G36*
X-14460Y-149460D02*
X-23230D01*
Y-155230D01*
X-14460D01*
Y-149460D01*
D02*
G37*
G36*
X-25770D02*
X-34540D01*
Y-155230D01*
X-25770D01*
Y-149460D01*
D02*
G37*
%LPD*%
D13*
X-2631Y166000D02*
X1871Y170502D01*
X2498D01*
X-10699Y166000D02*
X-2631D01*
X7000Y-92000D02*
X14636D01*
X30000Y-110732D02*
Y-101000D01*
X11000Y115000D02*
X17000Y109000D01*
X-10850Y165850D02*
X-10699Y166000D01*
X-23000Y115000D02*
X11000D01*
X114000Y-56000D02*
X192000D01*
X132000Y-39000D02*
Y-33000D01*
X136081Y-28919D02*
X145081D01*
X132000Y-33000D02*
X136081Y-28919D01*
X-82952Y57952D02*
X-56048D01*
X-88000Y63000D02*
X-82952Y57952D01*
X-92250Y-39750D02*
X-67000Y-65000D01*
X-117500Y-39750D02*
X-92250D01*
X-67000Y-65000D02*
X-28000D01*
X-9230Y-46230D02*
X3233D01*
X-28000Y-65000D02*
X-9230Y-46230D01*
X-7990Y-68010D02*
X-1000Y-75000D01*
X12000D01*
X-7991Y-68010D02*
X-7990D01*
X67000Y-48000D02*
X72000Y-53000D01*
X63662Y-62338D02*
Y-56662D01*
X63000Y-56000D02*
X63662Y-56662D01*
X60000Y-66000D02*
X63662Y-62338D01*
X21000Y-66000D02*
X60000D01*
X72000Y-65000D02*
Y-53000D01*
X65000Y-72000D02*
X72000Y-65000D01*
X34636Y-72000D02*
X65000D01*
X14636Y-92000D02*
X34636Y-72000D01*
X12000Y-75000D02*
X21000Y-66000D01*
X30000Y-110732D02*
X53800Y-134532D01*
Y-155200D02*
Y-134532D01*
X-204000Y24000D02*
X-150000D01*
X-209000Y29000D02*
X-204000Y24000D01*
X-119729Y72271D02*
X-112729D01*
X-129142Y62858D02*
X-119729Y72271D01*
X-129142Y52858D02*
Y62858D01*
X-122093Y59289D02*
X-118382Y63000D01*
X-112729Y72271D02*
X-105217Y79783D01*
Y96783D01*
X-118382Y63000D02*
X-88000D01*
X-133000Y49000D02*
X-129142Y52858D01*
X-133000Y-17000D02*
Y49000D01*
X-105217Y96783D02*
X-87000Y115000D01*
X3233Y-46230D02*
X10051Y-53048D01*
X-96322Y133678D02*
X-89678D01*
X-87000Y115000D02*
Y131000D01*
X-89678Y133678D02*
X-87000Y131000D01*
X-97000Y133000D02*
X-96322Y133678D01*
X-63000Y116000D02*
X-53000D01*
X-43500Y106500D01*
X192000Y-56000D02*
X208000Y-40000D01*
X220000Y8000D02*
X226000Y2000D01*
X182000Y8000D02*
X220000D01*
X145081Y-28919D02*
X182000Y8000D01*
X179060Y-218363D02*
Y-208207D01*
X184139Y-213285D01*
X177367D01*
D88*
X98865Y-53843D02*
X122022Y-77000D01*
X149000D01*
X54000Y-58000D02*
Y-38000D01*
X62000Y-30000D02*
Y-29936D01*
X54000Y-38000D02*
X62000Y-30000D01*
X-32000Y79468D02*
X-23468D01*
X-15160Y71160D01*
Y33400D02*
Y71160D01*
X-229000Y38000D02*
X-200000Y67000D01*
X-145000D01*
X-15160Y33400D02*
X40400D01*
X49000Y42000D01*
X90000Y-79000D02*
Y-52000D01*
X102250Y-39750D01*
X117500D01*
X86000Y-83000D02*
X90000Y-79000D01*
D89*
X162000Y-189250D02*
Y-170000D01*
X162500D02*
Y-110250D01*
X162000Y-189250D02*
X162500Y-189750D01*
X-37000Y-157000D02*
X-25000D01*
X-24500Y-156500D02*
X-24000Y-156000D01*
X-25000Y-157000D02*
X-24500Y-156500D01*
X14500Y-123500D02*
X24500D01*
X5000Y-114000D02*
X14500Y-123500D01*
X-117500Y179750D02*
X-81000D01*
X-63999Y162749D01*
X163000Y42000D02*
Y54999D01*
X162000Y107000D02*
X170000Y99000D01*
X177000D01*
X162500Y189750D02*
X176500D01*
X-162500Y179750D02*
X-160000Y182250D01*
Y209000D01*
X-176500Y100250D02*
X-162500D01*
X-178000Y39000D02*
X-164000D01*
X-176500Y-39750D02*
X-162500D01*
X-176500Y-110250D02*
X-162500D01*
X162000Y-39000D02*
Y-26001D01*
X163000Y-110000D02*
Y-96000D01*
D90*
X-163750Y-191000D02*
X-162500Y-189750D01*
X-174000Y-191000D02*
X-163750D01*
X-180000Y-185000D02*
Y-154000D01*
Y-185000D02*
X-174000Y-191000D01*
X-162500Y-189750D02*
Y-188500D01*
X-163920Y-187080D02*
X-162500Y-188500D01*
X117500Y-110250D02*
Y-109420D01*
Y-189750D02*
Y-110250D01*
X116080Y112920D02*
X117500Y111500D01*
X105734Y130433D02*
X117500Y142199D01*
X105734Y122016D02*
X114830Y112920D01*
X117500Y110250D02*
Y111500D01*
X114830Y112920D02*
X116080D01*
X105734Y122016D02*
Y130433D01*
X117500Y142199D02*
Y189750D01*
X-117500Y100250D02*
Y179750D01*
X97333Y-107954D02*
X116080D01*
X117500Y-109374D01*
X-206000Y-69000D02*
X-201000Y-64000D01*
X-226002Y-69000D02*
X-206000D01*
X-201000Y-64000D02*
X-127000D01*
X-117866Y-40116D02*
X-117500Y-39750D01*
X-127000Y-64000D02*
X-117866Y-54866D01*
Y-40116D01*
X-230501Y-64501D02*
X-226002Y-69000D01*
X-117500Y-132000D02*
Y-110250D01*
Y-189750D02*
Y-132000D01*
X-214000D02*
X-117500D01*
X-231000Y-115000D02*
X-214000Y-132000D01*
X-117500Y-39750D02*
Y39750D01*
X117500Y-39750D02*
Y39750D01*
D91*
X-50000Y45000D02*
X-46000Y49000D01*
Y87000D01*
X-78000Y119000D02*
X-46000Y87000D01*
X-41936Y87064D02*
X-37452Y91548D01*
X-41936Y73383D02*
X-34952Y66399D01*
X-41936Y73383D02*
Y87064D01*
X-7037Y-84000D02*
X0D01*
X-8517Y-82520D02*
X-7037Y-84000D01*
X-51017Y18390D02*
Y32904D01*
X-37000Y39447D02*
X-34952Y41495D01*
X-48000Y38952D02*
X-43048Y34000D01*
X-34952Y41495D02*
Y66399D01*
X-95000Y29000D02*
X-84904Y39096D01*
X-37000Y25000D02*
Y39447D01*
X-84904Y39096D02*
X-59495D01*
X-59351Y38952D02*
X-48000D01*
X-59495Y39096D02*
X-59351Y38952D01*
X-37000Y25000D02*
X-33000Y21000D01*
Y9747D02*
Y21000D01*
Y9747D02*
X24048Y-47301D01*
X-54443Y14964D02*
X-51017Y18390D01*
X-54443Y13890D02*
Y14964D01*
X-8534Y-60000D02*
X-4000D01*
X-15000Y-66466D02*
X-8534Y-60000D01*
X-15000Y-69912D02*
Y-66466D01*
X75451Y-33794D02*
X75902Y-33343D01*
X75000Y-46096D02*
X75451Y-45645D01*
Y-33794D01*
X24048Y-54952D02*
Y-47301D01*
X10000Y-69000D02*
X24048Y-54952D01*
X5000Y-69000D02*
X10000D01*
X18000Y-50967D02*
Y-47000D01*
X-81000Y1000D02*
X-30000D01*
X18000Y-47000D01*
X-127048Y48762D02*
X-124810Y51000D01*
X-109000D01*
X-105000Y47000D01*
X-98000Y-6967D02*
Y7952D01*
X-77157Y26843D02*
X-67157D01*
X-100952Y22952D02*
X-81048D01*
X-105000Y27000D02*
X-100952Y22952D01*
X-85000Y29000D02*
X-81000Y33000D01*
X-81048Y22952D02*
X-77157Y26843D01*
X-37452Y91548D02*
Y136169D01*
X-63999Y162716D02*
X-37452Y136169D01*
X-62048Y33000D02*
X-62000Y33048D01*
X-81000Y33000D02*
X-62048D01*
X-89000Y-7000D02*
X-81000Y1000D01*
X-63999Y162716D02*
Y162749D01*
X-4000Y-60000D02*
X5000Y-69000D01*
X-15000Y-69912D02*
X-8440Y-76472D01*
X-27000Y-78000D02*
X-22480Y-82520D01*
X-8517D01*
X-100000Y155000D02*
X-90000D01*
X-105759Y149241D02*
X-100000Y155000D01*
X-105759Y138241D02*
Y149241D01*
X-78000Y119000D02*
Y143000D01*
X-90000Y155000D02*
X-78000Y143000D01*
X-98000Y-6967D02*
X-88967Y-16000D01*
X-105000Y27000D02*
Y47000D01*
X-104000Y121000D02*
X-97500D01*
X-97000Y120500D01*
X-105759Y122759D02*
X-104000Y121000D01*
X-105759Y122759D02*
Y138241D01*
X-147000Y41000D02*
X-141253Y35253D01*
Y-17300D02*
X-135505Y-23048D01*
X-130495D01*
X-126952Y-19505D01*
Y14581D01*
X-127048Y14677D02*
X-126952Y14581D01*
X-127048Y14677D02*
Y48762D01*
X-141253Y-17300D02*
Y35253D01*
D92*
X-10428Y-55428D02*
X3160D01*
X-89000Y-71000D02*
X-26000D01*
X-10428Y-55428D01*
X-117500Y-99500D02*
X-89000Y-71000D01*
X3160Y-55428D02*
X8866Y-61134D01*
X-117500Y-110250D02*
Y-99500D01*
D96*
X117500Y-109374D02*
Y-98500D01*
Y-109420D02*
Y-109374D01*
X-147000Y181000D02*
X-129000Y199000D01*
X-113000D02*
X-103000Y209000D01*
X-129000Y199000D02*
X-113000D01*
X104000Y39000D02*
X114000D01*
X98084Y-79084D02*
Y-64916D01*
X-12000Y19000D02*
X1000Y6000D01*
X-24000Y19000D02*
X-12000D01*
X-7866Y4597D02*
X-1268Y-2000D01*
X16000D01*
X39000Y21000D01*
X82000Y-67000D02*
Y-50840D01*
X102000Y-30840D01*
X70000Y-79000D02*
X82000Y-67000D01*
X18000Y-100000D02*
X39000Y-79000D01*
X70000D01*
X-26000Y-100000D02*
X18000D01*
X-36115Y-89885D02*
X-26000Y-100000D01*
X-1500Y-123500D02*
X10000Y-135000D01*
X-24500Y-123500D02*
X-1500D01*
X10000Y-135000D02*
X25000D01*
X-111938Y85581D02*
X-111519Y86000D01*
X-130000Y74000D02*
X-118419Y85581D01*
X-111938D01*
X-78563Y84437D02*
X-64647D01*
X-59593Y79383D02*
X-59000D01*
X-64647Y84437D02*
X-59593Y79383D01*
X-83000Y80000D02*
X-78563Y84437D01*
X-92591Y80000D02*
X-83000D01*
X-98592Y86001D02*
X-92591Y80000D01*
X-98915Y86001D02*
X-98592D01*
X-206438Y74000D02*
X-130000D01*
X-218195Y62243D02*
X-206438Y74000D01*
X-147000Y161000D02*
Y181000D01*
X67190Y-139000D02*
X106000D01*
X50000Y-121810D02*
X67190Y-139000D01*
X50000Y-121810D02*
Y-101000D01*
X64000Y21000D02*
X82000Y39000D01*
X39000Y21000D02*
X64000D01*
X-36115Y-89885D02*
Y-79000D01*
X94000Y47000D02*
X105000Y58000D01*
X94000Y36000D02*
Y47000D01*
Y36000D02*
X102000Y28000D01*
Y-30840D02*
Y28000D01*
X98084Y-79084D02*
X117500Y-98500D01*
X100000Y72000D02*
X117500Y89500D01*
Y110250D01*
X16998Y63998D02*
X25000Y72000D01*
X100000D01*
X150000Y64000D02*
X180000D01*
X144000Y58000D02*
X150000Y64000D01*
X105000Y58000D02*
X144000D01*
X-28000Y33060D02*
X-27660Y33400D01*
X-28000Y23000D02*
Y33060D01*
Y23000D02*
X-24000Y19000D01*
X179000Y15000D02*
X193000D01*
X142000Y-22000D02*
X179000Y15000D01*
D105*
X-97000Y120500D02*
D03*
X36560Y94690D02*
D03*
D106*
X-97000Y133000D02*
D03*
Y145500D02*
D03*
X-213000Y-43000D02*
D03*
X189000Y38000D02*
D03*
X-17000Y202000D02*
D03*
X-150000Y-158000D02*
D03*
X36560Y82190D02*
D03*
X-27660Y33400D02*
D03*
X-92140Y93400D02*
D03*
D107*
X-15160Y33400D02*
D03*
X-79640Y93400D02*
D03*
D108*
X28898Y163904D02*
D03*
X-28902D02*
D03*
D109*
X-43202Y158904D02*
D03*
X43200D02*
D03*
D110*
X-43202Y200704D02*
D03*
X43198D02*
D03*
D111*
X210000Y115300D02*
D03*
D112*
Y140700D02*
D03*
D113*
X177000Y-155000D02*
D03*
X-29000Y-146000D02*
D03*
X-38000Y-139000D02*
D03*
X-45000Y-147000D02*
D03*
X-37000Y-157000D02*
D03*
X-46438Y-156750D02*
D03*
X-104000Y-157000D02*
D03*
X-92000D02*
D03*
X-77000Y-134000D02*
D03*
Y-122000D02*
D03*
Y-110000D02*
D03*
X-73000Y-86000D02*
D03*
X-55000Y-123000D02*
D03*
Y-136000D02*
D03*
Y-147000D02*
D03*
X-57000Y-157000D02*
D03*
X98000Y111000D02*
D03*
X121000Y125000D02*
D03*
X2498Y170502D02*
D03*
X151000Y-64000D02*
D03*
X104000Y39000D02*
D03*
X98865Y-53843D02*
D03*
X98084Y-64916D02*
D03*
X7000Y-92000D02*
D03*
X0Y-84000D02*
D03*
X30000Y-101000D02*
D03*
X54000Y-58000D02*
D03*
X-3000Y123000D02*
D03*
X17000Y109000D02*
D03*
X-10850Y165850D02*
D03*
X-23000Y115000D02*
D03*
X-13000Y178000D02*
D03*
X-19000Y172000D02*
D03*
X-3000Y74000D02*
D03*
X2000Y17000D02*
D03*
X1000Y6000D02*
D03*
X-7866Y4597D02*
D03*
X114000Y-56000D02*
D03*
X132000Y-39000D02*
D03*
X142499Y-124001D02*
D03*
X-98381Y41000D02*
D03*
X49500Y129000D02*
D03*
X-82500Y-156500D02*
D03*
X-93000Y-146000D02*
D03*
X-82500Y-87500D02*
D03*
X-93000Y-98000D02*
D03*
X4999Y-160999D02*
D03*
X-133999Y-36999D02*
D03*
X-51017Y32904D02*
D03*
X-56048Y57952D02*
D03*
X-50000Y45000D02*
D03*
X-41000Y44000D02*
D03*
X-57000Y49000D02*
D03*
X-7991Y-68010D02*
D03*
X-70000Y76500D02*
D03*
X67000Y-48000D02*
D03*
X63000Y-56000D02*
D03*
X75000Y-46096D02*
D03*
X62000Y-29936D02*
D03*
X75902Y-33343D02*
D03*
X5000Y-114000D02*
D03*
X18000Y-50967D02*
D03*
X-209000Y29000D02*
D03*
X-150000Y24000D02*
D03*
X-122093Y59289D02*
D03*
X-136000Y58000D02*
D03*
X-111519Y86000D02*
D03*
X-98000Y7952D02*
D03*
X-71001Y12001D02*
D03*
X-58600Y20795D02*
D03*
X-54443Y13890D02*
D03*
X-67157Y26843D02*
D03*
X-95000Y29000D02*
D03*
X-85000D02*
D03*
X-97765Y56235D02*
D03*
X-143000Y49000D02*
D03*
X-59000Y79383D02*
D03*
X-32000Y79468D02*
D03*
X-98915Y86001D02*
D03*
X-218195Y62243D02*
D03*
X-43048Y34000D02*
D03*
X-62000Y33048D02*
D03*
X-88000Y-59000D02*
D03*
X-145000Y67000D02*
D03*
X-8440Y-76472D02*
D03*
X8598Y-81937D02*
D03*
X-11001Y-90001D02*
D03*
X10051Y-53048D02*
D03*
X-229000Y38000D02*
D03*
X-89000Y-7000D02*
D03*
X-105759Y138241D02*
D03*
X-147000Y161000D02*
D03*
X-63000Y116000D02*
D03*
X-223000Y151000D02*
D03*
X-63999Y162749D02*
D03*
Y209249D02*
D03*
X-103000Y209000D02*
D03*
X-43500Y106500D02*
D03*
X-147000Y41000D02*
D03*
X-133000Y-17000D02*
D03*
X-88967Y-16000D02*
D03*
X106000Y-139000D02*
D03*
X50000Y-101000D02*
D03*
X61000Y46000D02*
D03*
X48000Y30000D02*
D03*
X49000Y42000D02*
D03*
X82000Y39000D02*
D03*
X-27000Y-78000D02*
D03*
X-35694Y-78579D02*
D03*
X97333Y-107954D02*
D03*
X8866Y-61134D02*
D03*
X41999Y-95999D02*
D03*
X16998Y63998D02*
D03*
X54001Y179999D02*
D03*
X105000Y192000D02*
D03*
X96499Y198501D02*
D03*
X165000Y16002D02*
D03*
X164999Y26001D02*
D03*
X180000Y64000D02*
D03*
X163000Y54999D02*
D03*
X74001Y-24501D02*
D03*
X-11001Y-109001D02*
D03*
X177000Y99000D02*
D03*
X176500Y189750D02*
D03*
X-176500Y100250D02*
D03*
X-178000Y39000D02*
D03*
X-176500Y-39750D02*
D03*
Y-110250D02*
D03*
X162000Y-26001D02*
D03*
X-68000Y97000D02*
D03*
X236100Y-116000D02*
D03*
Y-63000D02*
D03*
X225890Y-38999D02*
D03*
X163000Y-96000D02*
D03*
X85999Y-128999D02*
D03*
X142999Y-103001D02*
D03*
X117000Y-86000D02*
D03*
X142000Y-38000D02*
D03*
X88000Y29000D02*
D03*
X132000Y48000D02*
D03*
X37000Y63000D02*
D03*
X79000Y111000D02*
D03*
X60000D02*
D03*
X172000Y78000D02*
D03*
X214000Y97000D02*
D03*
X194000Y98000D02*
D03*
X182000Y125000D02*
D03*
X106000Y145000D02*
D03*
X65000D02*
D03*
X84000D02*
D03*
X-55000Y128000D02*
D03*
X-84000Y209000D02*
D03*
X-122000D02*
D03*
X-141000D02*
D03*
X-160000D02*
D03*
X-179000D02*
D03*
X-223000Y130000D02*
D03*
X-181000Y86000D02*
D03*
X-165000Y-24000D02*
D03*
X-184000Y-23000D02*
D03*
X-134000Y-75000D02*
D03*
X-119000Y-89000D02*
D03*
X-197001Y-76001D02*
D03*
Y-148001D02*
D03*
X-159999Y162500D02*
D03*
X-223372Y109523D02*
D03*
X-149249Y-6000D02*
D03*
X-197501Y-96001D02*
D03*
X51001Y10001D02*
D03*
Y-8999D02*
D03*
X50501Y-28999D02*
D03*
X-45001Y-123001D02*
D03*
X66000Y-128000D02*
D03*
X99000Y-151000D02*
D03*
X86000Y-83000D02*
D03*
X-230501Y-64501D02*
D03*
X-231000Y-115000D02*
D03*
X25000Y-135000D02*
D03*
X53800Y-155200D02*
D03*
X149000Y-77000D02*
D03*
X208000Y-40000D02*
D03*
X226000Y2000D02*
D03*
X193000Y15000D02*
D03*
X142000Y-22000D02*
D03*
X-145250Y134500D02*
D03*
Y122500D02*
D03*
X-133250Y134500D02*
D03*
Y122500D02*
D03*
D114*
X-64500Y-44634D02*
D03*
Y-22634D02*
D03*
Y-33634D02*
D03*
X-20500Y-44634D02*
D03*
Y-22634D02*
D03*
Y-33634D02*
D03*
X-31500Y-55634D02*
D03*
Y-44634D02*
D03*
Y-11634D02*
D03*
Y-22634D02*
D03*
Y-33634D02*
D03*
X-53500Y-55634D02*
D03*
Y-44634D02*
D03*
Y-11634D02*
D03*
Y-22634D02*
D03*
Y-33634D02*
D03*
X-42500Y-55634D02*
D03*
Y-44634D02*
D03*
Y-11634D02*
D03*
Y-22634D02*
D03*
Y-33634D02*
D03*
D115*
X-117500Y-39750D02*
D03*
Y39750D02*
D03*
X-162500Y-39750D02*
D03*
Y39750D02*
D03*
X117500Y189750D02*
D03*
Y110250D02*
D03*
X162500Y189750D02*
D03*
Y110250D02*
D03*
X117500Y-110250D02*
D03*
Y-189750D02*
D03*
X162500Y-110250D02*
D03*
Y-189750D02*
D03*
X-162500Y179750D02*
D03*
Y100250D02*
D03*
X-117500Y179750D02*
D03*
Y100250D02*
D03*
X162500Y-39750D02*
D03*
Y39750D02*
D03*
X117500Y-39750D02*
D03*
Y39750D02*
D03*
X-162500Y-110250D02*
D03*
Y-189750D02*
D03*
X-117500Y-110250D02*
D03*
Y-189750D02*
D03*
D116*
X-24500Y-156500D02*
D03*
Y-123500D02*
D03*
X24500Y-156500D02*
D03*
Y-123500D02*
D03*
M02*
