G04*
G04 #@! TF.GenerationSoftware,Altium Limited,Altium Designer,22.10.1 (41)*
G04*
G04 Layer_Physical_Order=1*
G04 Layer_Color=255*
%FSLAX44Y44*%
%MOMM*%
G71*
G04*
G04 #@! TF.SameCoordinates,6FA54AF5-B1EA-40D0-AA23-297218595CE5*
G04*
G04*
G04 #@! TF.FilePolarity,Positive*
G04*
G01*
G75*
%ADD13C,0.2540*%
G04:AMPARAMS|DCode=20|XSize=0.2425mm|YSize=0.9853mm|CornerRadius=0.1212mm|HoleSize=0mm|Usage=FLASHONLY|Rotation=90.000|XOffset=0mm|YOffset=0mm|HoleType=Round|Shape=RoundedRectangle|*
%AMROUNDEDRECTD20*
21,1,0.2425,0.7428,0,0,90.0*
21,1,0.0000,0.9853,0,0,90.0*
1,1,0.2425,0.3714,0.0000*
1,1,0.2425,0.3714,0.0000*
1,1,0.2425,-0.3714,0.0000*
1,1,0.2425,-0.3714,0.0000*
%
%ADD20ROUNDEDRECTD20*%
G04:AMPARAMS|DCode=21|XSize=0.9853mm|YSize=0.2425mm|CornerRadius=0.1212mm|HoleSize=0mm|Usage=FLASHONLY|Rotation=90.000|XOffset=0mm|YOffset=0mm|HoleType=Round|Shape=RoundedRectangle|*
%AMROUNDEDRECTD21*
21,1,0.9853,0.0000,0,0,90.0*
21,1,0.7428,0.2425,0,0,90.0*
1,1,0.2425,0.0000,0.3714*
1,1,0.2425,0.0000,-0.3714*
1,1,0.2425,0.0000,-0.3714*
1,1,0.2425,0.0000,0.3714*
%
%ADD21ROUNDEDRECTD21*%
%ADD22R,0.2425X0.9853*%
%ADD23R,1.5000X0.6500*%
%ADD24R,1.2700X1.2700*%
%ADD25R,1.3000X1.5000*%
%ADD26R,1.4000X1.2000*%
%ADD27R,1.5000X1.3000*%
%ADD28R,0.8000X0.6000*%
%ADD29R,1.2700X1.2700*%
%ADD30R,1.5000X1.4000*%
%ADD31R,0.6000X1.1000*%
%ADD32R,0.9000X0.9500*%
%ADD33R,1.2000X1.4000*%
%ADD34R,0.6000X1.2000*%
G04:AMPARAMS|DCode=35|XSize=0.6mm|YSize=1.1mm|CornerRadius=0.15mm|HoleSize=0mm|Usage=FLASHONLY|Rotation=90.000|XOffset=0mm|YOffset=0mm|HoleType=Round|Shape=RoundedRectangle|*
%AMROUNDEDRECTD35*
21,1,0.6000,0.8000,0,0,90.0*
21,1,0.3000,1.1000,0,0,90.0*
1,1,0.3000,0.4000,0.1500*
1,1,0.3000,0.4000,-0.1500*
1,1,0.3000,-0.4000,-0.1500*
1,1,0.3000,-0.4000,0.1500*
%
%ADD35ROUNDEDRECTD35*%
G04:AMPARAMS|DCode=36|XSize=0.6mm|YSize=1.1mm|CornerRadius=0.15mm|HoleSize=0mm|Usage=FLASHONLY|Rotation=0.000|XOffset=0mm|YOffset=0mm|HoleType=Round|Shape=RoundedRectangle|*
%AMROUNDEDRECTD36*
21,1,0.6000,0.8000,0,0,0.0*
21,1,0.3000,1.1000,0,0,0.0*
1,1,0.3000,0.1500,-0.4000*
1,1,0.3000,-0.1500,-0.4000*
1,1,0.3000,-0.1500,0.4000*
1,1,0.3000,0.1500,0.4000*
%
%ADD36ROUNDEDRECTD36*%
%ADD37R,0.9000X1.0000*%
%ADD38R,1.0000X0.9000*%
%ADD39R,1.1000X0.6000*%
%ADD40R,1.5000X2.6000*%
%ADD41O,0.2800X0.7500*%
%ADD42O,0.7500X0.2800*%
%ADD43R,2.8000X2.8000*%
%ADD44R,0.3000X1.1500*%
%ADD45R,0.6000X1.1500*%
%ADD46R,1.0500X0.9500*%
%ADD47R,1.2000X1.2000*%
%ADD48R,0.6000X0.8000*%
%ADD49R,5.5000X5.5000*%
%ADD88C,0.5080*%
%ADD89C,0.7620*%
%ADD90C,1.0160*%
%ADD91C,0.2032*%
%ADD92C,0.3048*%
%ADD93C,0.6350*%
%ADD94C,0.5588*%
%ADD95C,0.8890*%
%ADD96C,0.3810*%
%ADD97R,1.2000X0.7000*%
%ADD98R,1.1976X2.9136*%
%ADD99R,1.0000X1.8000*%
%ADD100R,3.0000X3.2000*%
%ADD101R,1.0000X1.7733*%
%ADD102R,2.9863X2.8733*%
%ADD103R,1.8000X0.7000*%
%ADD104R,6.0000X1.2000*%
%ADD105R,1.0000X1.0000*%
%ADD106C,1.0000*%
%ADD107R,1.0000X1.0000*%
%ADD108C,0.6500*%
%ADD109O,1.0500X2.1000*%
%ADD110O,1.0000X2.0000*%
%ADD111C,1.6000*%
%ADD112R,1.6000X1.6000*%
%ADD113C,0.6000*%
%ADD114C,0.6600*%
G36*
X224170Y221325D02*
X228236Y220349D01*
X232100Y218748D01*
X235666Y216563D01*
X238847Y213847D01*
X241563Y210666D01*
X243748Y207100D01*
X245349Y203236D01*
X246325Y199170D01*
X246652Y195020D01*
X246633Y195000D01*
X246633D01*
X246890Y193712D01*
X247024Y193510D01*
X247619Y192381D01*
X246890Y191288D01*
X246633Y190000D01*
Y-66394D01*
X246140Y-67460D01*
X245363Y-67460D01*
X237370D01*
Y-77000D01*
Y-86540D01*
X245363D01*
X246140Y-86540D01*
X246633Y-87606D01*
Y-119394D01*
X246140Y-120460D01*
X245363Y-120460D01*
X237370D01*
Y-130000D01*
Y-139540D01*
X245363D01*
X246140Y-139540D01*
X246633Y-140606D01*
Y-161000D01*
X165381D01*
Y-147617D01*
X163173D01*
Y-139411D01*
X163553Y-139032D01*
X171972D01*
Y-120968D01*
X152908D01*
Y-129387D01*
X150928Y-131368D01*
X149788Y-132853D01*
X149071Y-134583D01*
X148827Y-136440D01*
Y-147556D01*
X146031D01*
Y-143469D01*
X141014D01*
Y-142000D01*
X140709Y-140464D01*
X139838Y-139162D01*
X136838Y-136162D01*
X135536Y-135291D01*
X134000Y-134986D01*
X110142D01*
X110012Y-134929D01*
X109928Y-134803D01*
X110609Y-133533D01*
X118031D01*
Y-114469D01*
X116548D01*
Y-111383D01*
X117381D01*
Y-94619D01*
X100617D01*
Y-103176D01*
X98948D01*
X98334Y-102922D01*
X96332D01*
X95651Y-103203D01*
X94381Y-102355D01*
Y-86617D01*
X90661D01*
Y-84896D01*
X91032Y-84001D01*
Y-81999D01*
X90266Y-80150D01*
X89919Y-79803D01*
X90445Y-78533D01*
X92031D01*
Y-77367D01*
X100000D01*
X101288Y-77110D01*
X102381Y-76381D01*
X106938Y-71824D01*
X108111Y-72310D01*
Y-76889D01*
X115731D01*
Y-67999D01*
X117001D01*
Y-66729D01*
X125891D01*
Y-59109D01*
X119533D01*
X118685Y-57839D01*
X119032Y-57001D01*
Y-54999D01*
X118266Y-53150D01*
X117383Y-52267D01*
Y-35619D01*
X100619D01*
Y-35928D01*
X97533D01*
Y-34969D01*
X81352D01*
X80934Y-34344D01*
Y-33033D01*
X97533D01*
Y-15969D01*
X78469D01*
Y-19192D01*
X74001D01*
X71969Y-19596D01*
X70247Y-20747D01*
X69096Y-22469D01*
X68692Y-24501D01*
X69096Y-26532D01*
X70247Y-28255D01*
X71310Y-28965D01*
X70924Y-30235D01*
X68657D01*
X68302Y-30306D01*
X67032Y-29352D01*
Y-28935D01*
X66662Y-28041D01*
Y29000D01*
X66307Y30784D01*
X65296Y32296D01*
X58185Y39407D01*
X58428Y39902D01*
X58934Y40455D01*
X61000Y40044D01*
X63280Y40497D01*
X65212Y41788D01*
X66503Y43721D01*
X66957Y46000D01*
Y48968D01*
X69032D01*
Y67032D01*
X68072D01*
Y69617D01*
X68383D01*
Y86381D01*
X51619D01*
Y85173D01*
X43722D01*
X42507Y86388D01*
X43033Y87658D01*
X43592D01*
Y101722D01*
X29528D01*
Y98920D01*
X18038D01*
X16479Y100479D01*
X14883Y101546D01*
X13000Y101920D01*
X11718D01*
X11039Y103190D01*
X11327Y103622D01*
X11601Y105000D01*
Y105633D01*
X13250D01*
X14150Y104734D01*
X15999Y103968D01*
X18001D01*
X19850Y104734D01*
X21266Y106150D01*
X22032Y107999D01*
Y110001D01*
X21266Y111850D01*
X19850Y113266D01*
X18001Y114032D01*
X15999D01*
X14150Y113266D01*
X13250Y112367D01*
X11601D01*
Y113000D01*
X11327Y114378D01*
X10546Y115546D01*
X10367Y115667D01*
Y118000D01*
X10328Y118197D01*
X11370Y119467D01*
X25031D01*
Y138531D01*
X15865D01*
Y145372D01*
X26458D01*
Y144864D01*
X30728D01*
Y153154D01*
X33268D01*
Y144864D01*
X37538D01*
Y146579D01*
X38808Y147205D01*
X39271Y146849D01*
X41166Y146065D01*
X41930Y145964D01*
Y158904D01*
Y171844D01*
X41515Y171789D01*
X40856Y172882D01*
X40847Y172917D01*
X46945Y179015D01*
X48323Y178597D01*
X48498Y177720D01*
X49789Y175787D01*
X51721Y174496D01*
X54001Y174043D01*
X56617D01*
Y170619D01*
X73381D01*
Y170928D01*
X75617D01*
Y170619D01*
X92381D01*
Y170928D01*
X96469D01*
Y169967D01*
X115533D01*
Y170928D01*
X118928D01*
Y168782D01*
X117968D01*
Y155218D01*
X130298D01*
Y146033D01*
X126467D01*
X126467Y129914D01*
Y129844D01*
D01*
X126467Y129753D01*
X126271Y129668D01*
X125212Y129212D01*
X123279Y130503D01*
X121000Y130956D01*
X118721Y130503D01*
X116788Y129212D01*
X115497Y127279D01*
X115044Y125000D01*
X115497Y122721D01*
X116788Y120788D01*
X120597Y116979D01*
X122530Y115688D01*
X124809Y115234D01*
X126467D01*
Y109969D01*
X126928D01*
Y96486D01*
X124802Y94360D01*
X124388Y94405D01*
X123532Y94794D01*
Y102532D01*
X108468D01*
Y92468D01*
X110543D01*
Y83532D01*
X108468D01*
Y73468D01*
X110543D01*
Y67032D01*
X108968D01*
Y48968D01*
X125032D01*
Y67032D01*
X122456D01*
Y73468D01*
X123532D01*
Y78172D01*
X124388Y78560D01*
X124802Y78606D01*
X127744Y75664D01*
X129256Y74653D01*
X131040Y74298D01*
X132468D01*
Y73468D01*
X147532D01*
Y82460D01*
X148040D01*
Y86730D01*
X140000D01*
Y89270D01*
X148040D01*
Y93195D01*
X150617D01*
Y89619D01*
X167381D01*
Y106383D01*
X167072D01*
Y109967D01*
X167533D01*
Y127031D01*
X148469D01*
Y126072D01*
X145531D01*
Y127033D01*
X133885D01*
X133309Y127147D01*
X127833D01*
X127416Y127699D01*
X128049Y128969D01*
X145531D01*
Y146033D01*
X139622D01*
Y172968D01*
X149032D01*
Y175691D01*
X161801D01*
X176691Y160801D01*
Y149532D01*
X174718D01*
Y135968D01*
X189282D01*
Y136416D01*
X199968D01*
Y130668D01*
X220032D01*
Y133527D01*
X224329D01*
X227827Y130028D01*
Y92031D01*
X225469D01*
Y74967D01*
X244533D01*
Y92031D01*
X242174D01*
Y132999D01*
X241930Y134856D01*
X241213Y136586D01*
X240073Y138071D01*
X232372Y145772D01*
X230887Y146912D01*
X229157Y147629D01*
X227300Y147873D01*
X220032D01*
Y150732D01*
X199968D01*
Y149072D01*
X189282D01*
Y149532D01*
X187309D01*
Y163000D01*
X187309Y163000D01*
X186905Y165032D01*
X185754Y166754D01*
X185754Y166754D01*
X167754Y184754D01*
X166032Y185905D01*
X164000Y186309D01*
X164000Y186309D01*
X149032D01*
Y189032D01*
X139622D01*
Y205540D01*
X139532Y205990D01*
Y214032D01*
X129468D01*
Y197968D01*
X130298D01*
Y190192D01*
X130032Y189032D01*
X119968D01*
Y187072D01*
X110956D01*
Y192000D01*
X110503Y194279D01*
X109212Y196212D01*
X107279Y197503D01*
X105000Y197956D01*
X103586Y197675D01*
X102465Y198494D01*
X102427Y198641D01*
X102002Y200781D01*
X100711Y202713D01*
X98778Y204004D01*
X96499Y204458D01*
X91032D01*
Y208032D01*
X74968D01*
Y189968D01*
X77543D01*
Y187383D01*
X75617D01*
Y187072D01*
X73381D01*
Y187383D01*
X57109D01*
X56558Y188629D01*
X57898Y189968D01*
X73032D01*
Y208032D01*
X56968D01*
Y206836D01*
X56000Y206072D01*
X55207Y205914D01*
X54535Y205465D01*
X54535Y205465D01*
X52073Y203003D01*
X50803Y203529D01*
Y205704D01*
X50544Y207672D01*
X49784Y209507D01*
X48576Y211082D01*
X47000Y212290D01*
X45166Y213050D01*
X44468Y213142D01*
Y200704D01*
X43198D01*
Y199434D01*
X35593D01*
Y195704D01*
X35772Y194342D01*
X34975Y193206D01*
X34752Y193072D01*
X-505D01*
X-1158Y194161D01*
X-599Y195206D01*
X411Y198537D01*
X752Y202000D01*
X411Y205463D01*
X-599Y208794D01*
X-2239Y211863D01*
X-4447Y214553D01*
X-7137Y216761D01*
X-10206Y218401D01*
X-13537Y219411D01*
X-17000Y219753D01*
X-20463Y219411D01*
X-23794Y218401D01*
X-26863Y216761D01*
X-29553Y214553D01*
X-31761Y211863D01*
X-33401Y208794D01*
X-34334Y205720D01*
X-35597Y205704D01*
X-35856Y207672D01*
X-36616Y209507D01*
X-37824Y211082D01*
X-39399Y212290D01*
X-41234Y213050D01*
X-41932Y213142D01*
Y200704D01*
X-43202D01*
D01*
X-41932D01*
Y188266D01*
X-41234Y188358D01*
X-39399Y189118D01*
X-37824Y190326D01*
X-36616Y191901D01*
X-35856Y193736D01*
X-35597Y195704D01*
Y198070D01*
X-34327Y198258D01*
X-33401Y195206D01*
X-31761Y192137D01*
X-29553Y189447D01*
X-26863Y187239D01*
X-23794Y185599D01*
X-20463Y184589D01*
X-20010Y184544D01*
X-19582Y183348D01*
X-24465Y178465D01*
X-24914Y177793D01*
X-25072Y177000D01*
X-25072Y177000D01*
Y169203D01*
X-26342Y168561D01*
X-27851Y169186D01*
X-29953D01*
X-31894Y168382D01*
X-33380Y166896D01*
X-34184Y164955D01*
X-35451Y164962D01*
X-35612Y166188D01*
X-36398Y168083D01*
X-37646Y169710D01*
X-39273Y170959D01*
X-41168Y171744D01*
X-41932Y171844D01*
Y158904D01*
Y145964D01*
X-41168Y146065D01*
X-39273Y146849D01*
X-38812Y147204D01*
X-37542Y146577D01*
Y144864D01*
X-33272D01*
Y153154D01*
X-30732D01*
Y144864D01*
X-26462D01*
Y145372D01*
X-20869D01*
Y138533D01*
X-30031D01*
Y120142D01*
X-30756Y119531D01*
X-30764Y119532D01*
X-31313Y119801D01*
X-31459Y119916D01*
Y127731D01*
X-40499D01*
X-49539D01*
Y119637D01*
X-49539Y118961D01*
X-50563Y118367D01*
X-54000D01*
X-55288Y118110D01*
X-56381Y117381D01*
X-56795Y116966D01*
X-58140Y117417D01*
X-58734Y118850D01*
X-60150Y120266D01*
X-61999Y121032D01*
X-62334D01*
X-63061Y121759D01*
Y141894D01*
X-63318Y143182D01*
X-64047Y144274D01*
X-85154Y165381D01*
X-86246Y166110D01*
X-87534Y166367D01*
X-87487Y167617D01*
X-75617D01*
Y169076D01*
X-73531D01*
Y167967D01*
X-69956D01*
Y162749D01*
X-69502Y160470D01*
X-68211Y158538D01*
X-66279Y157246D01*
X-63999Y156793D01*
X-61720Y157246D01*
X-59787Y158538D01*
X-58496Y160470D01*
X-58043Y162749D01*
Y167967D01*
X-54467D01*
Y185031D01*
X-73531D01*
Y183423D01*
X-75617D01*
Y184381D01*
X-92381D01*
Y167637D01*
X-92381Y167617D01*
X-92428Y166367D01*
X-113570D01*
X-113617Y167617D01*
X-113617D01*
Y170543D01*
X-112032D01*
Y168968D01*
X-93968D01*
Y185032D01*
X-112032D01*
Y182456D01*
X-113617D01*
Y184381D01*
X-130381D01*
Y182456D01*
X-132617D01*
Y184381D01*
X-149381D01*
Y182456D01*
X-151617D01*
Y184381D01*
X-168381D01*
Y182456D01*
X-170617D01*
Y184381D01*
X-187381D01*
Y167617D01*
X-182366D01*
Y160533D01*
X-199031D01*
Y141469D01*
X-197673D01*
Y139533D01*
X-199031D01*
Y120469D01*
X-181967D01*
Y132633D01*
X-172787D01*
X-172301Y131460D01*
X-178381Y125381D01*
X-179110Y124288D01*
X-179367Y123000D01*
Y114395D01*
X-180697Y113064D01*
X-181967Y113590D01*
Y118533D01*
X-199031D01*
Y99469D01*
X-181967D01*
Y105634D01*
X-179999D01*
X-178711Y105890D01*
X-177619Y106620D01*
X-173619Y110619D01*
X-172890Y111712D01*
X-172633Y113000D01*
X-172633Y113000D01*
Y121606D01*
X-167313Y126926D01*
X-166345Y126877D01*
X-165349Y126000D01*
X-165083Y124661D01*
X-164324Y123526D01*
Y123474D01*
X-165083Y122339D01*
X-165349Y121000D01*
X-165083Y119661D01*
X-164324Y118526D01*
Y118474D01*
X-165083Y117339D01*
X-165349Y116000D01*
X-165083Y114661D01*
X-164324Y113526D01*
X-163189Y112767D01*
X-161850Y112501D01*
X-157150D01*
X-157060Y112519D01*
X-155790Y111960D01*
X-155231Y110690D01*
X-155249Y110600D01*
Y105900D01*
X-154983Y104561D01*
X-154224Y103426D01*
X-153089Y102667D01*
X-151750Y102401D01*
X-150411Y102667D01*
X-149276Y103426D01*
X-149224D01*
X-148089Y102667D01*
X-147923Y102634D01*
X-147505Y101256D01*
X-149381Y99381D01*
X-150110Y98288D01*
X-150367Y97000D01*
Y95531D01*
X-156033D01*
Y77367D01*
X-157461D01*
Y84729D01*
X-175541D01*
Y77259D01*
X-176288Y77110D01*
X-177381Y76381D01*
X-179394Y74367D01*
X-182468D01*
Y79532D01*
X-201532D01*
Y76021D01*
X-203203D01*
Y76751D01*
X-215267D01*
Y67851D01*
X-216537Y67003D01*
X-217194Y67275D01*
X-219196D01*
X-221045Y66509D01*
X-221321Y66233D01*
X-223403D01*
Y67251D01*
X-235467D01*
Y57187D01*
X-233109D01*
X-232721Y56331D01*
X-232675Y55917D01*
X-244296Y44296D01*
X-245307Y42784D01*
X-245366Y42488D01*
X-246633Y42625D01*
Y193739D01*
X-246633Y193746D01*
X-246633Y195000D01*
X-246556Y196238D01*
X-246325Y199170D01*
X-245349Y203236D01*
X-243748Y207100D01*
X-241563Y210666D01*
X-238847Y213847D01*
X-235666Y216563D01*
X-232100Y218748D01*
X-228236Y220349D01*
X-224170Y221325D01*
X-220072Y221647D01*
X-220000Y221633D01*
X220000D01*
X220072Y221647D01*
X224170Y221325D01*
D02*
G37*
G36*
X64000Y194000D02*
X63000Y193000D01*
X58000D01*
X35000Y170000D01*
X27000D01*
X23000Y166000D01*
X23000Y162000D01*
X26000Y159000D01*
Y158000D01*
X21000D01*
Y160000D01*
X15000Y166000D01*
Y174000D01*
X8000Y181000D01*
X-5000D01*
X-17000Y169000D01*
Y164000D01*
X-21000Y160000D01*
Y156156D01*
X-27000Y150156D01*
X-27000Y158000D01*
X-23000Y162000D01*
Y177000D01*
X-16000Y184000D01*
X-10000D01*
X-3000Y191000D01*
X36000D01*
X39000Y188000D01*
X46000D01*
X53000Y195000D01*
Y201000D01*
X56000Y204000D01*
X64000D01*
Y194000D01*
D02*
G37*
G36*
X-74367Y138605D02*
Y111000D01*
X-74110Y109712D01*
X-73381Y108619D01*
X-68881Y104119D01*
X-67788Y103390D01*
X-66500Y103133D01*
X-64522D01*
X-63737Y101973D01*
X-64024Y101245D01*
X-64806Y100076D01*
X-65119Y98500D01*
Y98270D01*
X-57000D01*
X-48881D01*
Y98500D01*
X-49194Y100076D01*
X-49976Y101245D01*
X-50454Y102454D01*
X-49673Y103622D01*
X-49496Y104509D01*
X-48176Y104639D01*
X-47766Y103650D01*
X-46350Y102234D01*
X-44501Y101468D01*
X-42499D01*
X-40650Y102234D01*
X-40282Y102058D01*
X-40183Y101922D01*
X-39907Y100507D01*
X-40327Y99878D01*
X-40601Y98500D01*
Y95500D01*
X-40327Y94122D01*
X-39546Y92954D01*
X-39444Y92885D01*
Y91615D01*
X-39546Y91546D01*
X-40327Y90378D01*
X-40601Y89000D01*
Y86000D01*
X-40345Y84710D01*
X-40350Y84586D01*
X-41065Y83440D01*
X-48936D01*
X-49650Y84586D01*
X-49655Y84710D01*
X-49399Y86000D01*
Y89000D01*
X-49673Y90378D01*
X-50454Y91546D01*
X-49976Y92754D01*
X-49194Y93924D01*
X-48881Y95500D01*
Y95730D01*
X-57000D01*
X-65119D01*
Y95500D01*
X-64806Y93924D01*
X-64024Y92754D01*
X-63546Y91546D01*
X-64327Y90378D01*
X-64601Y89000D01*
Y86000D01*
X-64327Y84622D01*
X-63546Y83454D01*
X-63375Y83339D01*
X-63266Y82233D01*
X-64032Y80384D01*
Y78382D01*
X-63266Y76532D01*
X-61893Y75159D01*
X-61903Y74934D01*
X-62205Y73889D01*
X-66729D01*
Y64999D01*
X-69269D01*
Y73889D01*
X-76889D01*
Y73889D01*
X-78109D01*
Y73889D01*
X-82859D01*
X-83345Y75062D01*
X-76704Y81704D01*
X-75693Y83216D01*
X-75338Y85000D01*
Y86368D01*
X-72608D01*
Y100432D01*
X-76532D01*
Y138975D01*
X-75262Y139501D01*
X-74367Y138605D01*
D02*
G37*
G36*
X14117Y89454D02*
X16000Y89080D01*
X29528D01*
Y87658D01*
X30190D01*
X30817Y86388D01*
X30348Y85777D01*
X29631Y84047D01*
X29387Y82190D01*
X29631Y80333D01*
X30348Y78603D01*
X31488Y77118D01*
X35679Y72927D01*
X37164Y71787D01*
X38894Y71070D01*
X40751Y70826D01*
X51619D01*
Y69617D01*
X53928D01*
Y67032D01*
X52968D01*
Y48968D01*
X55044D01*
Y46000D01*
X55375Y44334D01*
X54310Y43535D01*
X53600Y44044D01*
X53266Y44850D01*
X51850Y46266D01*
X50001Y47032D01*
X47999D01*
X47159Y46684D01*
X45889Y47533D01*
Y49729D01*
X38269D01*
Y42109D01*
X43517D01*
X43601Y41801D01*
X42629Y40531D01*
X27967D01*
Y21467D01*
X29327D01*
Y18383D01*
X28619D01*
Y1619D01*
X29327D01*
Y-617D01*
X28619D01*
Y-17381D01*
X29327D01*
Y-19467D01*
X27969D01*
Y-36764D01*
X26033D01*
Y-19467D01*
X8969D01*
Y-28026D01*
X-103D01*
X-968Y-26756D01*
X-844Y-26134D01*
X-1096Y-24868D01*
X-1813Y-23795D01*
Y-23473D01*
X-1096Y-22400D01*
X-844Y-21134D01*
X-1096Y-19868D01*
X-1813Y-18795D01*
Y-18473D01*
X-1096Y-17400D01*
X-844Y-16134D01*
X-968Y-15512D01*
X-103Y-14242D01*
X2866D01*
X4055Y-14005D01*
X5063Y-13332D01*
X6841Y-11554D01*
X8111Y-12059D01*
Y-17889D01*
X15731D01*
Y-8999D01*
X17001D01*
Y-7729D01*
X25891D01*
Y-159D01*
X25891Y-109D01*
Y1111D01*
X25891Y1161D01*
Y8731D01*
X8111D01*
Y4505D01*
X6841Y4001D01*
X5976Y4865D01*
X6032Y4999D01*
Y7001D01*
X5266Y8850D01*
X3850Y10266D01*
X2001Y11032D01*
X-1D01*
X-1850Y10266D01*
X-3266Y8850D01*
X-3337Y8678D01*
X-4583Y8431D01*
X-5015Y8863D01*
X-6865Y9629D01*
X-8867D01*
X-9660Y9301D01*
X-11109Y10075D01*
X-11179Y10426D01*
X6286Y27891D01*
X8967D01*
Y21467D01*
X26031D01*
Y40531D01*
X24423D01*
Y42617D01*
X25381D01*
Y59381D01*
X22955D01*
Y63998D01*
X22501Y66278D01*
X21210Y68210D01*
X19278Y69501D01*
X16998Y69955D01*
X14719Y69501D01*
X12787Y68210D01*
X11495Y66278D01*
X11042Y63998D01*
Y59381D01*
X8617D01*
Y42617D01*
X10076D01*
Y40531D01*
X8967D01*
Y34107D01*
X4999D01*
X3810Y33870D01*
X2802Y33197D01*
X-17198Y13197D01*
X-17871Y12189D01*
X-18108Y11000D01*
Y8763D01*
X-19378Y7898D01*
X-20000Y8022D01*
X-20622Y7898D01*
X-21892Y8763D01*
Y16505D01*
X-22129Y17694D01*
X-22803Y18703D01*
X-29361Y25261D01*
X-28703Y26400D01*
X-28586Y26368D01*
X-26734D01*
X-24946Y26847D01*
X-23462Y27704D01*
X-22558Y27448D01*
X-22192Y27297D01*
Y26368D01*
X-8128D01*
Y40432D01*
X-22192D01*
Y39790D01*
X-23379Y39303D01*
X-24293Y39935D01*
Y46660D01*
X-24550Y47948D01*
X-25279Y49041D01*
X-33472Y57234D01*
X-33109Y58111D01*
X-33109D01*
Y65731D01*
X-41999D01*
Y68271D01*
X-33109D01*
Y74364D01*
X-33001Y74436D01*
X-30999D01*
X-30381Y74023D01*
Y58619D01*
X-13617D01*
Y75383D01*
X-17079D01*
Y77282D01*
X-15810Y77961D01*
X-15378Y77673D01*
X-14000Y77399D01*
X-11000D01*
X-9622Y77673D01*
X-8454Y78454D01*
X-8091Y78463D01*
X-7701Y78081D01*
X-7266Y76850D01*
X-8032Y75001D01*
Y72999D01*
X-7266Y71150D01*
X-5850Y69734D01*
X-4001Y68968D01*
X-1999D01*
X-150Y69734D01*
X1266Y71150D01*
X2032Y72999D01*
Y75001D01*
X1266Y76850D01*
X1026Y77091D01*
X1030Y77278D01*
X2273Y78458D01*
X2454Y78454D01*
X3622Y77673D01*
X5000Y77399D01*
X8000D01*
X9378Y77673D01*
X10546Y78454D01*
X11327Y79622D01*
X11601Y81000D01*
Y89000D01*
X11441Y89804D01*
X12311Y90381D01*
X12605Y90464D01*
X14117Y89454D01*
D02*
G37*
G36*
X-120348Y70263D02*
Y67370D01*
X-110308D01*
Y64830D01*
X-120348D01*
Y64818D01*
X-121092Y64321D01*
X-123094D01*
X-124943Y63555D01*
X-126359Y62139D01*
X-127125Y60290D01*
Y58288D01*
X-126359Y56439D01*
X-125459Y55539D01*
Y53302D01*
X-149729Y29032D01*
X-151001D01*
X-152850Y28266D01*
X-153506Y27610D01*
X-154776Y28136D01*
Y33282D01*
X-173840D01*
Y22718D01*
X-170765D01*
Y17383D01*
X-173691D01*
Y14957D01*
X-175927D01*
Y17383D01*
X-191229D01*
X-191755Y18653D01*
X-188704Y21704D01*
X-187693Y23216D01*
X-187338Y25000D01*
Y43468D01*
X-182468D01*
Y60532D01*
X-201532D01*
Y43468D01*
X-196662D01*
Y26931D01*
X-200212Y23380D01*
X-203203D01*
Y23751D01*
X-205457D01*
X-205863Y25021D01*
X-204734Y26150D01*
X-203968Y27999D01*
Y30001D01*
X-204555Y31417D01*
X-203911Y32687D01*
X-203203D01*
Y42751D01*
X-215267D01*
Y32687D01*
X-214089D01*
X-213445Y31417D01*
X-214032Y30001D01*
Y27999D01*
X-213266Y26150D01*
X-212137Y25021D01*
X-212543Y23751D01*
X-215267D01*
Y14655D01*
X-216537Y14129D01*
X-224324Y21917D01*
X-223799Y23187D01*
X-223403D01*
Y33251D01*
X-224515D01*
Y35680D01*
X-223968Y36999D01*
Y39001D01*
X-224734Y40850D01*
X-226150Y42266D01*
X-227999Y43032D01*
X-230001D01*
X-230989Y42623D01*
X-231708Y43699D01*
X-227350Y48057D01*
X-215267D01*
Y47687D01*
X-203203D01*
Y57751D01*
X-213775D01*
X-214301Y59021D01*
X-213929Y59392D01*
X-213163Y61242D01*
Y63244D01*
X-213929Y65093D01*
X-214253Y65417D01*
X-213727Y66687D01*
X-203203D01*
Y66698D01*
X-201532D01*
Y62468D01*
X-182468D01*
Y67633D01*
X-178000D01*
X-176712Y67890D01*
X-175619Y68619D01*
X-175014Y69225D01*
X-173840Y68739D01*
Y60818D01*
X-154776D01*
Y62032D01*
X-153506Y62558D01*
X-148629Y57681D01*
X-149115Y56508D01*
X-154776D01*
Y58682D01*
X-173840D01*
Y48118D01*
X-154776D01*
Y50292D01*
X-148687D01*
X-148032Y49637D01*
Y47999D01*
X-147743Y47302D01*
X-148001Y46032D01*
X-149850Y45266D01*
X-151009Y44108D01*
X-154776D01*
Y45982D01*
X-173840D01*
Y35418D01*
X-154776D01*
Y37892D01*
X-151009D01*
X-149850Y36734D01*
X-148001Y35968D01*
X-145999D01*
X-144150Y36734D01*
X-142734Y38150D01*
X-141968Y39999D01*
Y42001D01*
X-142257Y42698D01*
X-141999Y43968D01*
X-140150Y44734D01*
X-138734Y46150D01*
X-137968Y47999D01*
Y50001D01*
X-138734Y51850D01*
X-139699Y52816D01*
X-138850Y53734D01*
X-137001Y52968D01*
X-134999D01*
X-133150Y53734D01*
X-131734Y55150D01*
X-130968Y56999D01*
Y59001D01*
X-131734Y60850D01*
X-131966Y61083D01*
X-131972Y61300D01*
X-131521Y62434D01*
X-130216Y62693D01*
X-128704Y63704D01*
X-121618Y70789D01*
X-120348Y70263D01*
D02*
G37*
G36*
X-95381Y50633D02*
Y46579D01*
X-96651Y45730D01*
X-97380Y46032D01*
X-99382D01*
X-100289Y45656D01*
X-100776Y45982D01*
Y45982D01*
X-119840D01*
Y35418D01*
X-100776D01*
Y35418D01*
X-99734Y36114D01*
X-99382Y35968D01*
X-97380D01*
X-96597Y36292D01*
X-95381Y36617D01*
X-95381Y36617D01*
X-95381Y36617D01*
X-78617D01*
Y37826D01*
X-76381D01*
Y36617D01*
X-76107D01*
Y33288D01*
X-78828Y30567D01*
X-80270Y30793D01*
X-80308Y30822D01*
X-80734Y31850D01*
X-82150Y33266D01*
X-83999Y34032D01*
X-86001D01*
X-87850Y33266D01*
X-89266Y31850D01*
X-89365Y31611D01*
X-90635D01*
X-90734Y31850D01*
X-92150Y33266D01*
X-93999Y34032D01*
X-96001D01*
X-97850Y33266D01*
X-98521Y32595D01*
X-100776D01*
Y33282D01*
X-119840D01*
Y22718D01*
X-116513D01*
Y14533D01*
X-121031D01*
Y-4531D01*
X-103967D01*
Y5890D01*
X-102697Y6143D01*
X-102266Y5102D01*
X-100850Y3686D01*
X-99001Y2920D01*
X-96999D01*
X-95150Y3686D01*
X-93734Y5102D01*
X-92968Y6951D01*
Y8637D01*
X-82802Y18802D01*
X-82129Y19811D01*
X-81892Y21000D01*
Y24155D01*
X-81512Y24411D01*
X-80242Y23735D01*
Y-2826D01*
X-80848D01*
X-82114Y-3078D01*
X-83187Y-3795D01*
X-83384Y-4090D01*
X-84340Y-4132D01*
X-84865Y-4019D01*
X-86150Y-2734D01*
X-87999Y-1968D01*
X-90001D01*
X-91850Y-2734D01*
X-93266Y-4150D01*
X-94032Y-5999D01*
Y-7467D01*
X-109031D01*
Y-26531D01*
X-96390D01*
X-95604Y-27487D01*
X-96072Y-28617D01*
X-108381D01*
Y-45381D01*
X-107173D01*
Y-47617D01*
X-108381D01*
Y-64381D01*
X-107173D01*
Y-66617D01*
X-108381D01*
Y-83381D01*
X-91617D01*
Y-78366D01*
X-88999D01*
X-87711Y-78110D01*
X-86619Y-77380D01*
X-80874Y-71635D01*
X-73244D01*
Y-75227D01*
X-68367D01*
Y-90968D01*
X-72032D01*
Y-105032D01*
X-69117D01*
Y-106968D01*
X-73032D01*
Y-120032D01*
X-58968D01*
Y-106968D01*
X-62383D01*
Y-105032D01*
X-58968D01*
Y-90968D01*
X-61633D01*
Y-87787D01*
X-60460Y-87301D01*
X-56380Y-91381D01*
X-55287Y-92111D01*
X-53999Y-92367D01*
X-53383D01*
Y-98383D01*
X-52174D01*
Y-100619D01*
X-53383D01*
Y-117383D01*
X-50957D01*
Y-123001D01*
X-50504Y-125280D01*
X-49213Y-127213D01*
X-47280Y-128504D01*
X-45001Y-128957D01*
X-42721Y-128504D01*
X-40789Y-127213D01*
X-39498Y-125280D01*
X-39044Y-123001D01*
Y-117383D01*
X-36619D01*
Y-100619D01*
X-37827D01*
Y-98383D01*
X-36619D01*
Y-83611D01*
X-34939D01*
X-33891Y-84549D01*
Y-88731D01*
X-25001D01*
X-16111D01*
X-16111Y-81111D01*
X-14842Y-81108D01*
X-11042D01*
X-10607Y-81021D01*
X-9441Y-81504D01*
X-7439D01*
X-5590Y-80738D01*
X-5207Y-80355D01*
X-4266Y-81150D01*
X-5032Y-82999D01*
Y-85001D01*
X-4266Y-86850D01*
X-2850Y-88266D01*
X-1001Y-89032D01*
X1001D01*
X1493Y-88828D01*
X2465Y-89800D01*
X1968Y-90999D01*
Y-93001D01*
X2734Y-94850D01*
X4150Y-96266D01*
X5999Y-97032D01*
X7271D01*
X13619Y-103381D01*
X14712Y-104110D01*
X16000Y-104367D01*
X16560D01*
X16969Y-105467D01*
X16969D01*
Y-106827D01*
X5000D01*
X3143Y-107071D01*
X1413Y-107788D01*
X-72Y-108928D01*
X-1212Y-110413D01*
X-1929Y-112143D01*
X-2173Y-114000D01*
Y-118617D01*
X-3383D01*
Y-119826D01*
X-5619D01*
Y-118617D01*
X-15142D01*
X-16111Y-117891D01*
X-16111Y-117347D01*
Y-110271D01*
X-23731D01*
Y-117891D01*
X-23352D01*
X-22383Y-118617D01*
X-22383Y-119161D01*
Y-135381D01*
X-5619D01*
Y-134173D01*
X-3383D01*
Y-135381D01*
X13381D01*
Y-121173D01*
X16969D01*
Y-124531D01*
X34033D01*
Y-105467D01*
X34033Y-105467D01*
X34033D01*
X33919Y-104197D01*
X34266Y-103850D01*
X35032Y-102001D01*
Y-99999D01*
X34266Y-98150D01*
X32850Y-96734D01*
X31001Y-95968D01*
X28999D01*
X27150Y-96734D01*
X26250Y-97633D01*
X17395D01*
X12032Y-92271D01*
Y-91121D01*
X12113Y-90919D01*
X13006Y-90031D01*
X31531D01*
Y-72967D01*
X12467D01*
Y-75981D01*
X8598D01*
X8114Y-76077D01*
X7489Y-74906D01*
X11304Y-71091D01*
X16515D01*
X16816Y-71031D01*
X31531D01*
Y-69423D01*
X33617D01*
Y-70381D01*
X49986D01*
Y-73109D01*
X43269D01*
Y-81999D01*
Y-90889D01*
X49986D01*
Y-95337D01*
X49355Y-95968D01*
X48999D01*
X47150Y-96734D01*
X45734Y-98150D01*
X44968Y-99999D01*
Y-102001D01*
X45734Y-103850D01*
X46081Y-104197D01*
X45555Y-105467D01*
X35969D01*
Y-124531D01*
X37133D01*
X37619Y-125704D01*
X34355Y-128968D01*
X29968D01*
Y-130986D01*
X28102D01*
X27850Y-130734D01*
X26001Y-129968D01*
X23999D01*
X22150Y-130734D01*
X20734Y-132150D01*
X19968Y-133999D01*
Y-136001D01*
X20734Y-137850D01*
X22150Y-139266D01*
X23999Y-140032D01*
X26001D01*
X27850Y-139266D01*
X28102Y-139014D01*
X29968D01*
Y-140986D01*
X28000D01*
X26464Y-141291D01*
X25162Y-142162D01*
X22162Y-145162D01*
X21291Y-146464D01*
X20986Y-148000D01*
Y-149168D01*
X20468D01*
Y-161000D01*
X-61079D01*
Y-153032D01*
X-58968D01*
Y-138968D01*
X-62383D01*
Y-137032D01*
X-58968D01*
Y-123968D01*
X-73032D01*
Y-137032D01*
X-69117D01*
Y-138968D01*
X-72032D01*
Y-153032D01*
X-70402D01*
Y-161000D01*
X-131597D01*
X-132450Y-160059D01*
X-132247Y-158000D01*
X-132589Y-154537D01*
X-133599Y-151206D01*
X-135239Y-148137D01*
X-137447Y-145447D01*
X-140137Y-143239D01*
X-143206Y-141599D01*
X-146537Y-140589D01*
X-150000Y-140247D01*
X-153463Y-140589D01*
X-156794Y-141599D01*
X-159863Y-143239D01*
X-162553Y-145447D01*
X-164761Y-148137D01*
X-166401Y-151206D01*
X-167411Y-154537D01*
X-167752Y-158000D01*
X-167550Y-160059D01*
X-168403Y-161000D01*
X-246633D01*
Y14375D01*
X-245366Y14512D01*
X-245307Y14216D01*
X-244296Y12704D01*
X-234162Y2570D01*
Y531D01*
X-238033D01*
Y-18533D01*
X-220969D01*
Y531D01*
X-224839D01*
Y4501D01*
X-225194Y6285D01*
X-226205Y7797D01*
X-236338Y17931D01*
Y22278D01*
X-235467Y23187D01*
X-235366D01*
X-234096Y22468D01*
Y20435D01*
X-233741Y18651D01*
X-232731Y17138D01*
X-218662Y3069D01*
Y531D01*
X-219033D01*
Y-18533D01*
X-201969D01*
Y531D01*
X-209338D01*
Y5000D01*
X-209693Y6784D01*
X-210704Y8296D01*
X-214825Y12417D01*
X-214298Y13687D01*
X-203203D01*
Y14057D01*
X-198281D01*
X-196497Y14412D01*
X-194985Y15423D01*
X-193961Y16447D01*
X-192691Y15920D01*
Y619D01*
X-175927D01*
Y3044D01*
X-173691D01*
Y619D01*
X-156927D01*
Y2044D01*
X-155205D01*
Y-1974D01*
X-156419Y-2109D01*
X-156475Y-2109D01*
X-164039D01*
Y-9729D01*
X-156419D01*
Y-6407D01*
X-155149Y-6282D01*
X-154752Y-8279D01*
X-153461Y-10212D01*
X-151528Y-11503D01*
X-149249Y-11956D01*
X-146969Y-11503D01*
X-145037Y-10212D01*
X-143746Y-8279D01*
X-143292Y-6000D01*
Y2044D01*
X-140031D01*
Y-4531D01*
X-122967D01*
Y14533D01*
X-140031D01*
Y13957D01*
X-156927D01*
Y17383D01*
X-158852D01*
Y22718D01*
X-154916D01*
X-154266Y21150D01*
X-152850Y19734D01*
X-151001Y18968D01*
X-148999D01*
X-147150Y19734D01*
X-145734Y21150D01*
X-144968Y22999D01*
Y24271D01*
X-120746Y48493D01*
X-119840Y48118D01*
Y48118D01*
X-100776D01*
Y50295D01*
X-99599Y50529D01*
X-98590Y51203D01*
X-98589Y51203D01*
X-96764D01*
X-96437Y51339D01*
X-95381Y50633D01*
D02*
G37*
G36*
X56468Y-103059D02*
Y-103532D01*
X75532D01*
Y-102173D01*
X77617D01*
Y-103381D01*
X92993D01*
X93519Y-104651D01*
X93067Y-105103D01*
X92650Y-106109D01*
X87269D01*
Y-113729D01*
X94889D01*
Y-113531D01*
X95945Y-112825D01*
X96332Y-112985D01*
X98334D01*
X99508Y-112499D01*
X102202D01*
Y-114469D01*
X100967D01*
Y-133533D01*
X102731D01*
X103055Y-134462D01*
X103081Y-134803D01*
X101734Y-136150D01*
X100968Y-137999D01*
Y-140001D01*
X101734Y-141850D01*
X103150Y-143266D01*
X104375Y-143774D01*
X104122Y-145044D01*
X93532D01*
Y-141468D01*
X76468D01*
Y-160131D01*
X75500Y-160682D01*
X74532Y-160131D01*
Y-141468D01*
X57468D01*
Y-142995D01*
X56198Y-143521D01*
X54838Y-142162D01*
X53536Y-141291D01*
X52000Y-140986D01*
X40032D01*
Y-134645D01*
X46838Y-127838D01*
X47709Y-126536D01*
X48014Y-125000D01*
Y-124531D01*
X53033D01*
Y-105467D01*
X53660Y-104457D01*
X54266Y-103850D01*
X55032Y-102001D01*
X55198Y-101975D01*
X56468Y-103059D01*
D02*
G37*
%LPC*%
G36*
X-130889Y204889D02*
X-132109D01*
X-132159Y204889D01*
X-139729D01*
Y195999D01*
Y187109D01*
X-132159D01*
X-132109Y187109D01*
X-130889D01*
X-130839Y187109D01*
X-123269D01*
Y195999D01*
Y204889D01*
X-130839D01*
X-130889Y204889D01*
D02*
G37*
G36*
X-149889D02*
X-151109D01*
X-151159Y204889D01*
X-158729D01*
Y195999D01*
Y187109D01*
X-151159D01*
X-151109Y187109D01*
X-149889D01*
X-149839Y187109D01*
X-142269D01*
Y195999D01*
Y204889D01*
X-149839D01*
X-149889Y204889D01*
D02*
G37*
G36*
X-101999Y214032D02*
X-104001D01*
X-105850Y213266D01*
X-107266Y211850D01*
X-108032Y210001D01*
Y207999D01*
X-107266Y206150D01*
X-107014Y205898D01*
Y203032D01*
X-111839D01*
X-112032Y203032D01*
X-113109Y203497D01*
Y204889D01*
X-120729D01*
Y195999D01*
Y187109D01*
X-113243D01*
X-112032Y186968D01*
X-111898Y186968D01*
X-94101D01*
X-93968Y186968D01*
X-92757Y187109D01*
X-85269D01*
Y195999D01*
Y204889D01*
X-92889D01*
Y203494D01*
X-93968Y203032D01*
X-94159Y203032D01*
X-98986D01*
Y205898D01*
X-98734Y206150D01*
X-97968Y207999D01*
Y210001D01*
X-98734Y211850D01*
X-100150Y213266D01*
X-101999Y214032D01*
D02*
G37*
G36*
X41928Y213142D02*
X41230Y213050D01*
X39395Y212290D01*
X37820Y211082D01*
X36612Y209507D01*
X35852Y207672D01*
X35593Y205704D01*
Y201974D01*
X41928D01*
Y213142D01*
D02*
G37*
G36*
X-44472D02*
X-45170Y213050D01*
X-47004Y212290D01*
X-48580Y211082D01*
X-49788Y209507D01*
X-50548Y207672D01*
X-50807Y205704D01*
Y201974D01*
X-44472D01*
Y213142D01*
D02*
G37*
G36*
X-75109Y204889D02*
X-82729D01*
Y197269D01*
X-75109D01*
Y204889D01*
D02*
G37*
G36*
X-180269D02*
X-187889D01*
Y197269D01*
X-180269D01*
Y204889D01*
D02*
G37*
G36*
X-44472Y199434D02*
X-50807D01*
Y195704D01*
X-50548Y193736D01*
X-49788Y191901D01*
X-48580Y190326D01*
X-47004Y189118D01*
X-45170Y188358D01*
X-44472Y188266D01*
Y199434D01*
D02*
G37*
G36*
X-168889Y204889D02*
X-170109D01*
X-170159Y204889D01*
X-177729D01*
Y195999D01*
Y187109D01*
X-170159D01*
X-170109Y187109D01*
X-168889D01*
X-168839Y187109D01*
X-161269D01*
Y195999D01*
Y204889D01*
X-168839D01*
X-168889Y204889D01*
D02*
G37*
G36*
X-180269Y194729D02*
X-187889D01*
Y187109D01*
X-180269D01*
Y194729D01*
D02*
G37*
G36*
X-75109D02*
X-82729D01*
Y187109D01*
X-75109D01*
Y194729D01*
D02*
G37*
G36*
X-63999Y215205D02*
X-66279Y214752D01*
X-68211Y213461D01*
X-69502Y211528D01*
X-69956Y209249D01*
Y204031D01*
X-73531D01*
Y186967D01*
X-54467D01*
Y204031D01*
X-58043D01*
Y209249D01*
X-58496Y211528D01*
X-59787Y213461D01*
X-61720Y214752D01*
X-63999Y215205D01*
D02*
G37*
G36*
X221677Y212032D02*
X218323D01*
X215032Y211378D01*
X211932Y210094D01*
X209143Y208230D01*
X206770Y205857D01*
X204906Y203068D01*
X203622Y199968D01*
X202968Y196677D01*
Y193323D01*
X203622Y190032D01*
X204906Y186932D01*
X206770Y184143D01*
X209143Y181770D01*
X211932Y179906D01*
X215032Y178622D01*
X218323Y177968D01*
X221677D01*
X224968Y178622D01*
X228068Y179906D01*
X230857Y181770D01*
X233230Y184143D01*
X235094Y186932D01*
X236378Y190032D01*
X237032Y193323D01*
Y196677D01*
X236378Y199968D01*
X235094Y203068D01*
X233230Y205857D01*
X230857Y208230D01*
X228068Y210094D01*
X224968Y211378D01*
X221677Y212032D01*
D02*
G37*
G36*
X-218323D02*
X-221677D01*
X-224968Y211378D01*
X-228068Y210094D01*
X-230857Y208230D01*
X-233230Y205857D01*
X-235094Y203068D01*
X-236378Y199968D01*
X-237032Y196677D01*
Y193323D01*
X-236378Y190032D01*
X-235094Y186932D01*
X-233230Y184143D01*
X-230857Y181770D01*
X-228068Y179906D01*
X-224968Y178622D01*
X-221677Y177968D01*
X-218323D01*
X-215032Y178622D01*
X-211932Y179906D01*
X-209143Y181770D01*
X-206770Y184143D01*
X-204906Y186932D01*
X-203622Y190032D01*
X-202968Y193323D01*
Y196677D01*
X-203622Y199968D01*
X-204906Y203068D01*
X-206770Y205857D01*
X-209143Y208230D01*
X-211932Y210094D01*
X-215032Y211378D01*
X-218323Y212032D01*
D02*
G37*
G36*
X116041Y168539D02*
X107271D01*
Y160769D01*
X116041D01*
Y168539D01*
D02*
G37*
G36*
X104731D02*
X95961D01*
Y160769D01*
X104731D01*
Y168539D01*
D02*
G37*
G36*
X85269Y167891D02*
Y160271D01*
X92889D01*
Y167891D01*
X85269D01*
D02*
G37*
G36*
X63729D02*
X56109D01*
Y160271D01*
X63729D01*
Y167891D01*
D02*
G37*
G36*
X44470Y171844D02*
Y160174D01*
X51057D01*
Y164154D01*
X50789Y166188D01*
X50005Y168083D01*
X48756Y169710D01*
X47129Y170959D01*
X45234Y171744D01*
X44470Y171844D01*
D02*
G37*
G36*
X-44472D02*
X-45236Y171744D01*
X-47131Y170959D01*
X-48758Y169710D01*
X-50006Y168083D01*
X-50792Y166188D01*
X-51059Y164154D01*
Y160174D01*
X-44472D01*
Y171844D01*
D02*
G37*
G36*
X116041Y158229D02*
X107271D01*
Y150459D01*
X116041D01*
Y158229D01*
D02*
G37*
G36*
X104731D02*
X95961D01*
Y150459D01*
X104731D01*
Y158229D01*
D02*
G37*
G36*
X92889Y157731D02*
X85269D01*
Y150111D01*
X92889D01*
Y157731D01*
D02*
G37*
G36*
X63729Y157731D02*
X56109D01*
Y150111D01*
X63729D01*
Y157731D01*
D02*
G37*
G36*
X75109Y167891D02*
X73889D01*
X73839Y167891D01*
X66269D01*
Y159001D01*
Y150111D01*
X73839D01*
X73889Y150111D01*
X75109D01*
X75159Y150111D01*
X82729D01*
Y159001D01*
Y167891D01*
X75159D01*
X75109Y167891D01*
D02*
G37*
G36*
X-44472Y157634D02*
X-51059D01*
Y153654D01*
X-50792Y151620D01*
X-50006Y149725D01*
X-48758Y148098D01*
X-47131Y146849D01*
X-45236Y146065D01*
X-44472Y145964D01*
Y157634D01*
D02*
G37*
G36*
X51057Y157634D02*
X44470D01*
Y145964D01*
X45234Y146065D01*
X47129Y146849D01*
X48756Y148098D01*
X50005Y149725D01*
X50789Y151620D01*
X51057Y153654D01*
Y157634D01*
D02*
G37*
G36*
X-200967Y160533D02*
X-218031D01*
Y156957D01*
X-223000D01*
X-225279Y156503D01*
X-227212Y155212D01*
X-228503Y153279D01*
X-228956Y151000D01*
X-228503Y148721D01*
X-227212Y146788D01*
X-225279Y145497D01*
X-223000Y145044D01*
X-218031D01*
Y141469D01*
X-200967D01*
Y160533D01*
D02*
G37*
G36*
X-200459Y140041D02*
X-208229D01*
Y131271D01*
X-200459D01*
Y140041D01*
D02*
G37*
G36*
X-210769D02*
X-218539D01*
Y131271D01*
X-210769D01*
Y140041D01*
D02*
G37*
G36*
X-31459Y139041D02*
X-39229D01*
Y130271D01*
X-31459D01*
Y139041D01*
D02*
G37*
G36*
X-41769D02*
X-49539D01*
Y130271D01*
X-41769D01*
Y139041D01*
D02*
G37*
G36*
X44539Y139039D02*
X36769D01*
Y130269D01*
X44539D01*
Y139039D01*
D02*
G37*
G36*
X34229D02*
X26459D01*
Y130269D01*
X34229D01*
Y139039D01*
D02*
G37*
G36*
X162532Y168782D02*
X149468D01*
Y155218D01*
X152339D01*
Y146031D01*
X148469D01*
Y128967D01*
X167533D01*
Y146031D01*
X161662D01*
Y155218D01*
X162532D01*
Y168782D01*
D02*
G37*
G36*
X-200459Y128731D02*
X-208229D01*
Y119961D01*
X-200459D01*
Y128731D01*
D02*
G37*
G36*
X-210769D02*
X-218539D01*
Y119961D01*
X-210769D01*
Y128731D01*
D02*
G37*
G36*
X44539Y127729D02*
X36769D01*
Y118959D01*
X44539D01*
Y127729D01*
D02*
G37*
G36*
X34229D02*
X26459D01*
Y118959D01*
X34229D01*
Y127729D01*
D02*
G37*
G36*
X211388Y125840D02*
X211270D01*
Y116570D01*
X220540D01*
Y116688D01*
X219822Y119368D01*
X218434Y121772D01*
X216472Y123734D01*
X214068Y125122D01*
X211388Y125840D01*
D02*
G37*
G36*
X208730D02*
X208612D01*
X205932Y125122D01*
X203528Y123734D01*
X201566Y121772D01*
X200178Y119368D01*
X199460Y116688D01*
Y116570D01*
X208730D01*
Y125840D01*
D02*
G37*
G36*
X189790Y118540D02*
X183270D01*
Y112520D01*
X189790D01*
Y118540D01*
D02*
G37*
G36*
X180730D02*
X174210D01*
Y112520D01*
X180730D01*
Y118540D01*
D02*
G37*
G36*
X89111Y106889D02*
X87891D01*
X87841Y106889D01*
X80271D01*
Y97999D01*
Y89109D01*
X87841D01*
X87891Y89109D01*
X89111D01*
X89161Y89109D01*
X96731D01*
Y97999D01*
Y106889D01*
X89161D01*
X89111Y106889D01*
D02*
G37*
G36*
X220540Y114030D02*
X211270D01*
Y104760D01*
X211388D01*
X214068Y105478D01*
X216472Y106866D01*
X218434Y108828D01*
X219822Y111232D01*
X220540Y113912D01*
Y114030D01*
D02*
G37*
G36*
X208730D02*
X199460D01*
Y113912D01*
X200178Y111232D01*
X201566Y108828D01*
X203528Y106866D01*
X205932Y105478D01*
X208612Y104760D01*
X208730D01*
Y114030D01*
D02*
G37*
G36*
X189790Y109980D02*
X183270D01*
Y103960D01*
X189790D01*
Y109980D01*
D02*
G37*
G36*
X180730D02*
X174210D01*
Y103960D01*
X180730D01*
Y109980D01*
D02*
G37*
G36*
X-200967Y118533D02*
X-218031D01*
Y115480D01*
X-223372D01*
X-225651Y115027D01*
X-227583Y113735D01*
X-228875Y111803D01*
X-229328Y109523D01*
X-228875Y107244D01*
X-227583Y105312D01*
X-225651Y104021D01*
X-223372Y103567D01*
X-218031D01*
Y99469D01*
X-200967D01*
Y118533D01*
D02*
G37*
G36*
X58731Y106889D02*
X51111D01*
Y99269D01*
X58731D01*
Y106889D01*
D02*
G37*
G36*
X99271D02*
Y99269D01*
X106891D01*
Y106889D01*
X99271D01*
D02*
G37*
G36*
X106891Y96729D02*
X99271D01*
Y89109D01*
X106891D01*
Y96729D01*
D02*
G37*
G36*
X70111Y106889D02*
X68891D01*
X68841Y106889D01*
X61271D01*
Y97999D01*
Y89109D01*
X68841D01*
X68891Y89109D01*
X70111D01*
X70161Y89109D01*
X77731D01*
Y97999D01*
Y106889D01*
X70161D01*
X70111Y106889D01*
D02*
G37*
G36*
X58731Y96729D02*
X51111D01*
Y89109D01*
X58731D01*
Y96729D01*
D02*
G37*
G36*
X-157461Y96039D02*
X-165231D01*
Y87269D01*
X-157461D01*
Y96039D01*
D02*
G37*
G36*
X-167771D02*
X-175541D01*
Y87269D01*
X-167771D01*
Y96039D01*
D02*
G37*
G36*
X106383Y86381D02*
X89619D01*
Y86072D01*
X87383D01*
Y86381D01*
X70619D01*
Y69617D01*
X71928D01*
Y67032D01*
X70968D01*
Y48968D01*
X87032D01*
Y49928D01*
X90968D01*
Y48968D01*
X107032D01*
Y67032D01*
X106072D01*
Y69617D01*
X106383D01*
Y86381D01*
D02*
G37*
G36*
X192731Y92889D02*
X185111D01*
Y85269D01*
X192731D01*
Y92889D01*
D02*
G37*
G36*
X215269Y92541D02*
Y84771D01*
X224039D01*
Y92541D01*
X215269D01*
D02*
G37*
G36*
X167889Y86891D02*
X160269D01*
Y79271D01*
X167889D01*
Y86891D01*
D02*
G37*
G36*
X157729D02*
X150109D01*
Y79271D01*
X157729D01*
Y86891D01*
D02*
G37*
G36*
X192731Y82729D02*
X185111D01*
Y75109D01*
X192731D01*
Y82729D01*
D02*
G37*
G36*
X224039Y82231D02*
X215269D01*
Y74461D01*
X224039D01*
Y82231D01*
D02*
G37*
G36*
X202891Y92889D02*
X202833Y92889D01*
X195271D01*
Y83999D01*
Y75109D01*
X202689D01*
X202891Y75109D01*
X203959Y74623D01*
Y74461D01*
X212729D01*
Y83501D01*
Y92541D01*
X204161D01*
X204016Y92541D01*
X202891Y92889D01*
D02*
G37*
G36*
X223531Y73033D02*
X204467D01*
Y70853D01*
X202383D01*
Y72381D01*
X185619D01*
Y68014D01*
X183102D01*
X182850Y68266D01*
X181001Y69032D01*
X178999D01*
X177150Y68266D01*
X175734Y66850D01*
X174968Y65001D01*
Y62999D01*
X175734Y61150D01*
X177150Y59734D01*
X178999Y58968D01*
X181001D01*
X182850Y59734D01*
X183102Y59986D01*
X185619D01*
Y55617D01*
X184557Y55114D01*
X182206Y54401D01*
X179137Y52761D01*
X176447Y50553D01*
X174239Y47863D01*
X172599Y44794D01*
X171589Y41463D01*
X171248Y38000D01*
X171589Y34537D01*
X172599Y31206D01*
X174239Y28137D01*
X176447Y25447D01*
X179137Y23239D01*
X182206Y21599D01*
X185537Y20589D01*
X189000Y20248D01*
X189524Y20299D01*
X189662Y20070D01*
X189949Y19065D01*
X188734Y17850D01*
X187968Y16001D01*
Y13999D01*
X188734Y12150D01*
X190150Y10734D01*
X191999Y9968D01*
X194001D01*
X195850Y10734D01*
X196102Y10986D01*
X200078D01*
Y6969D01*
X216142D01*
Y23033D01*
X201218D01*
X200613Y23033D01*
X200159Y24303D01*
X201553Y25447D01*
X203761Y28137D01*
X205401Y31206D01*
X206411Y34537D01*
X206752Y38000D01*
X206411Y41463D01*
X205401Y44794D01*
X203761Y47863D01*
X201553Y50553D01*
X198863Y52761D01*
X195794Y54401D01*
X196160Y55617D01*
X202383D01*
Y57645D01*
X204467D01*
Y55969D01*
X223531D01*
Y57645D01*
X225469D01*
Y55967D01*
X244533D01*
Y73031D01*
X225469D01*
Y70853D01*
X223531D01*
Y73033D01*
D02*
G37*
G36*
X167889Y76731D02*
X160269D01*
Y69111D01*
X167889D01*
Y76731D01*
D02*
G37*
G36*
X157729D02*
X150109D01*
Y69111D01*
X157729D01*
Y76731D01*
D02*
G37*
G36*
X105001Y44032D02*
X102999D01*
X101150Y43266D01*
X100898Y43014D01*
X85102D01*
X84850Y43266D01*
X83001Y44032D01*
X80999D01*
X79150Y43266D01*
X77734Y41850D01*
X76968Y40001D01*
Y37999D01*
X77734Y36150D01*
X79150Y34734D01*
X80999Y33968D01*
X83001D01*
X84850Y34734D01*
X85102Y34986D01*
X100898D01*
X101150Y34734D01*
X102999Y33968D01*
X105001D01*
X106850Y34734D01*
X108266Y36150D01*
X109032Y37999D01*
Y40001D01*
X108266Y41850D01*
X106850Y43266D01*
X105001Y44032D01*
D02*
G37*
G36*
X140891Y43891D02*
X133271D01*
Y36271D01*
X140891D01*
Y43891D01*
D02*
G37*
G36*
X130731D02*
X123111D01*
Y36271D01*
X130731D01*
Y43891D01*
D02*
G37*
G36*
X140891Y33731D02*
X123111D01*
Y26161D01*
X123111Y26111D01*
Y24891D01*
X123111Y24841D01*
Y17271D01*
X140891D01*
Y24841D01*
X140891Y24891D01*
Y26111D01*
X140891Y26161D01*
Y33731D01*
D02*
G37*
G36*
X86731Y24539D02*
X77961D01*
Y16769D01*
X86731D01*
Y24539D01*
D02*
G37*
G36*
X110271D02*
Y16769D01*
X119041D01*
Y24539D01*
X110271D01*
D02*
G37*
G36*
X140891Y14731D02*
X133271D01*
Y7111D01*
X140891D01*
Y14731D01*
D02*
G37*
G36*
X130731D02*
X123111D01*
Y7111D01*
X130731D01*
Y14731D01*
D02*
G37*
G36*
X119041Y14229D02*
X110271D01*
Y6459D01*
X119041D01*
Y14229D01*
D02*
G37*
G36*
X86731Y14229D02*
X77961D01*
Y6459D01*
X86731D01*
Y14229D01*
D02*
G37*
G36*
X98961Y24539D02*
X98041D01*
X97691Y24539D01*
X89271D01*
Y15499D01*
Y6459D01*
X97691D01*
X98041Y6459D01*
X98961D01*
X99311Y6459D01*
X107731D01*
Y15499D01*
Y24539D01*
X99311D01*
X98961Y24539D01*
D02*
G37*
G36*
X233922Y23033D02*
X217858D01*
Y6969D01*
X222511D01*
X222582Y5699D01*
X221734Y4850D01*
X220968Y3001D01*
Y999D01*
X221734Y-850D01*
X223150Y-2266D01*
X224999Y-3032D01*
X227001D01*
X228850Y-2266D01*
X230266Y-850D01*
X231032Y999D01*
Y3001D01*
X230266Y4850D01*
X229417Y5699D01*
X229489Y6969D01*
X233922D01*
Y23033D01*
D02*
G37*
G36*
X160383Y43383D02*
X143619D01*
Y26619D01*
X143953D01*
Y24383D01*
X143619D01*
Y7619D01*
X143953D01*
Y5533D01*
X142969D01*
Y-7799D01*
X141777Y-8320D01*
X141033Y-7720D01*
Y5533D01*
X123969D01*
Y-9217D01*
X122795Y-9703D01*
X118533Y-5440D01*
Y5031D01*
X99469D01*
Y3672D01*
X97533D01*
Y5031D01*
X78469D01*
Y-12033D01*
X97533D01*
Y-10674D01*
X99469D01*
Y-12033D01*
X111940D01*
X113845Y-13937D01*
X113359Y-15111D01*
X110271D01*
Y-22731D01*
X117891D01*
Y-19643D01*
X119064Y-19157D01*
X121204Y-21296D01*
X122716Y-22307D01*
X124500Y-22661D01*
X126069D01*
X127468Y-24060D01*
Y-32532D01*
X137532D01*
Y-26444D01*
X138802Y-25918D01*
X139150Y-26266D01*
X140999Y-27032D01*
X143001D01*
X144850Y-26266D01*
X145198Y-25918D01*
X146468Y-26444D01*
Y-32532D01*
X156532D01*
Y-17468D01*
X156421D01*
Y-13531D01*
X160033D01*
Y804D01*
X160072Y1000D01*
Y7619D01*
X160383D01*
Y10045D01*
X165000D01*
X167279Y10499D01*
X169212Y11790D01*
X170503Y13722D01*
X170956Y16002D01*
X170503Y18281D01*
X169212Y20213D01*
X168983Y20366D01*
Y21637D01*
X169211Y21789D01*
X170502Y23721D01*
X170956Y26001D01*
X170502Y28280D01*
X169211Y30213D01*
X167279Y31504D01*
X164999Y31957D01*
X160383D01*
Y43383D01*
D02*
G37*
G36*
X107731Y-15111D02*
X100111D01*
Y-22731D01*
X107731D01*
Y-15111D01*
D02*
G37*
G36*
X234430Y-16459D02*
X227160D01*
Y-23729D01*
X234430D01*
Y-16459D01*
D02*
G37*
G36*
X117891Y-25271D02*
X110271D01*
Y-32891D01*
X117891D01*
Y-25271D01*
D02*
G37*
G36*
X107731D02*
X100111D01*
Y-32891D01*
X107731D01*
Y-25271D01*
D02*
G37*
G36*
X234430Y-26269D02*
X227160D01*
Y-33539D01*
X234430D01*
Y-26269D01*
D02*
G37*
G36*
X224620Y-16459D02*
X217350D01*
Y-16818D01*
X216142Y-16967D01*
X216080Y-16967D01*
X200078D01*
Y-33031D01*
X203338D01*
Y-38105D01*
X202968Y-38999D01*
Y-41001D01*
X203734Y-42850D01*
X205150Y-44266D01*
X206999Y-45032D01*
X209001D01*
X210850Y-44266D01*
X212266Y-42850D01*
X213032Y-41001D01*
Y-38999D01*
X212662Y-38105D01*
Y-33031D01*
X216080D01*
X216142Y-33031D01*
X217350Y-33181D01*
Y-33539D01*
X224620D01*
Y-24999D01*
Y-16459D01*
D02*
G37*
G36*
X133001Y-33968D02*
X130999D01*
X129150Y-34734D01*
X127734Y-36150D01*
X126968Y-37999D01*
Y-40001D01*
X127535Y-41368D01*
X127468Y-41468D01*
X127468D01*
Y-56532D01*
X136460D01*
Y-57040D01*
X140730D01*
Y-49000D01*
Y-40960D01*
X137673D01*
X137032Y-40001D01*
Y-37999D01*
X136266Y-36150D01*
X134850Y-34734D01*
X133001Y-33968D01*
D02*
G37*
G36*
X234830Y-67460D02*
X226060D01*
Y-75730D01*
X234830D01*
Y-67460D01*
D02*
G37*
G36*
X125891Y-69269D02*
X118271D01*
Y-76889D01*
X125891D01*
Y-69269D01*
D02*
G37*
G36*
X147540Y-40960D02*
X143270D01*
Y-49000D01*
Y-57040D01*
X146338D01*
Y-58858D01*
X145383Y-59617D01*
X128619D01*
Y-76381D01*
X143968D01*
Y-78001D01*
X144734Y-79850D01*
X146150Y-81266D01*
X147999Y-82032D01*
X150001D01*
X150895Y-81662D01*
X152908D01*
Y-86032D01*
X171972D01*
Y-67968D01*
X155808D01*
X155329Y-66698D01*
X156032Y-65001D01*
Y-62999D01*
X155662Y-62105D01*
Y-56532D01*
X156532D01*
Y-41468D01*
X147540D01*
Y-40960D01*
D02*
G37*
G36*
X234830Y-78270D02*
X226060D01*
Y-86540D01*
X234830D01*
Y-78270D01*
D02*
G37*
G36*
X137889Y-94111D02*
X130269D01*
Y-101731D01*
X137889D01*
Y-94111D01*
D02*
G37*
G36*
X127729D02*
X120109D01*
Y-101731D01*
X127729D01*
Y-94111D01*
D02*
G37*
G36*
X137889Y-104271D02*
X130269D01*
Y-111891D01*
X137889D01*
Y-104271D01*
D02*
G37*
G36*
X127729D02*
X120109D01*
Y-111891D01*
X127729D01*
Y-104271D01*
D02*
G37*
G36*
X234830Y-120460D02*
X226060D01*
Y-128730D01*
X234830D01*
Y-120460D01*
D02*
G37*
G36*
X137031Y-114469D02*
X119967D01*
Y-133533D01*
X137031D01*
Y-129957D01*
X142499D01*
X144779Y-129504D01*
X146711Y-128213D01*
X148002Y-126280D01*
X148456Y-124001D01*
X148002Y-121721D01*
X146711Y-119789D01*
X144779Y-118498D01*
X142499Y-118044D01*
X137031D01*
Y-114469D01*
D02*
G37*
G36*
X234830Y-131270D02*
X226060D01*
Y-139540D01*
X234830D01*
Y-131270D01*
D02*
G37*
G36*
X45889Y59889D02*
X38269D01*
Y52269D01*
X45889D01*
Y59889D01*
D02*
G37*
G36*
X35729D02*
X28109D01*
Y52269D01*
X35729D01*
Y59889D01*
D02*
G37*
G36*
Y49729D02*
X28109D01*
Y42109D01*
X35729D01*
Y49729D01*
D02*
G37*
G36*
X25891Y18891D02*
X18271D01*
Y11271D01*
X25891D01*
Y18891D01*
D02*
G37*
G36*
X15731D02*
X8111D01*
Y11271D01*
X15731D01*
Y18891D01*
D02*
G37*
G36*
X25891Y-10269D02*
X18271D01*
Y-17889D01*
X25891D01*
Y-10269D01*
D02*
G37*
G36*
X-185579Y-2109D02*
X-193199D01*
Y-9729D01*
X-185579D01*
Y-2109D01*
D02*
G37*
G36*
X-110967Y-7467D02*
X-128031D01*
Y-12985D01*
X-129899D01*
X-130150Y-12734D01*
X-131999Y-11968D01*
X-134001D01*
X-135850Y-12734D01*
X-137266Y-14150D01*
X-138032Y-15999D01*
Y-18001D01*
X-137266Y-19850D01*
X-135850Y-21266D01*
X-134001Y-22032D01*
X-131999D01*
X-130150Y-21266D01*
X-129897Y-21013D01*
X-128031D01*
Y-26531D01*
X-110967D01*
Y-7467D01*
D02*
G37*
G36*
X-156419Y-12269D02*
X-164039D01*
Y-19889D01*
X-156419D01*
Y-12269D01*
D02*
G37*
G36*
X-185579D02*
X-193199D01*
Y-19889D01*
X-185579D01*
Y-12269D01*
D02*
G37*
G36*
X-174199Y-2109D02*
X-175419D01*
X-175469Y-2109D01*
X-183039D01*
Y-10999D01*
Y-19889D01*
X-175469D01*
X-175419Y-19889D01*
X-174199D01*
X-174149Y-19889D01*
X-166579D01*
Y-10999D01*
Y-2109D01*
X-174149D01*
X-174199Y-2109D01*
D02*
G37*
G36*
X-111109Y-28109D02*
X-118729D01*
Y-35729D01*
X-111109D01*
Y-28109D01*
D02*
G37*
G36*
X-121269D02*
X-128889D01*
Y-35729D01*
X-121269D01*
Y-28109D01*
D02*
G37*
G36*
X-111109Y-38269D02*
X-128889D01*
Y-45839D01*
X-128889Y-45889D01*
Y-47109D01*
X-128889Y-47159D01*
Y-54729D01*
X-111109D01*
Y-47159D01*
X-111109Y-47109D01*
Y-45889D01*
X-111109Y-45839D01*
Y-38269D01*
D02*
G37*
G36*
X-213000Y-25247D02*
X-216463Y-25589D01*
X-219794Y-26599D01*
X-222863Y-28239D01*
X-225553Y-30447D01*
X-227761Y-33137D01*
X-229401Y-36206D01*
X-230411Y-39537D01*
X-230753Y-43000D01*
X-230411Y-46463D01*
X-229401Y-49794D01*
X-227761Y-52863D01*
X-225553Y-55553D01*
X-222863Y-57761D01*
X-219794Y-59401D01*
X-216463Y-60411D01*
X-213000Y-60753D01*
X-209537Y-60411D01*
X-206206Y-59401D01*
X-203137Y-57761D01*
X-200447Y-55553D01*
X-198239Y-52863D01*
X-196599Y-49794D01*
X-195589Y-46463D01*
X-195247Y-43000D01*
X-195589Y-39537D01*
X-196599Y-36206D01*
X-198239Y-33137D01*
X-200447Y-30447D01*
X-203137Y-28239D01*
X-206206Y-26599D01*
X-209537Y-25589D01*
X-213000Y-25247D01*
D02*
G37*
G36*
X-111109Y-57269D02*
X-128889D01*
Y-64839D01*
X-128889Y-64889D01*
Y-66109D01*
X-128889Y-66159D01*
Y-73729D01*
X-111109D01*
Y-66159D01*
X-111109Y-66109D01*
Y-64889D01*
X-111109Y-64839D01*
Y-57269D01*
D02*
G37*
G36*
X-202111Y-67111D02*
X-209731D01*
Y-74731D01*
X-202111D01*
Y-67111D01*
D02*
G37*
G36*
X-212271D02*
X-219891D01*
Y-74731D01*
X-212271D01*
Y-67111D01*
D02*
G37*
G36*
X-211001Y-76001D02*
D01*
D01*
D01*
D02*
G37*
G36*
X40729Y-73109D02*
X33109D01*
Y-80729D01*
X40729D01*
Y-73109D01*
D02*
G37*
G36*
X-111109Y-76269D02*
X-118729D01*
Y-83889D01*
X-111109D01*
Y-76269D01*
D02*
G37*
G36*
X-121269D02*
X-128889D01*
Y-83889D01*
X-121269D01*
Y-76269D01*
D02*
G37*
G36*
X-202111Y-77271D02*
X-209731D01*
Y-84891D01*
X-202111D01*
Y-77271D01*
D02*
G37*
G36*
X-212271D02*
X-219891D01*
Y-84891D01*
X-212271D01*
Y-77271D01*
D02*
G37*
G36*
X40729Y-83269D02*
X33109D01*
Y-90889D01*
X40729D01*
Y-83269D01*
D02*
G37*
G36*
X-75460Y-90460D02*
X-81230D01*
Y-96730D01*
X-75460D01*
Y-90460D01*
D02*
G37*
G36*
X-83770D02*
X-89540D01*
Y-96730D01*
X-83770D01*
Y-90460D01*
D02*
G37*
G36*
X-230501Y-57327D02*
X-232357Y-57572D01*
X-234088Y-58288D01*
X-235573Y-59429D01*
X-236713Y-60914D01*
X-237430Y-62644D01*
X-237674Y-64501D01*
Y-67619D01*
X-239383D01*
Y-84383D01*
X-237674D01*
Y-86469D01*
X-239033D01*
Y-105533D01*
X-221969D01*
Y-86469D01*
X-223327D01*
Y-84383D01*
X-222619D01*
Y-67619D01*
X-223327D01*
Y-64501D01*
X-223572Y-62644D01*
X-224289Y-60914D01*
X-225429Y-59429D01*
X-226914Y-58288D01*
X-228644Y-57572D01*
X-230501Y-57327D01*
D02*
G37*
G36*
X-75460Y-99270D02*
X-81230D01*
Y-105540D01*
X-75460D01*
Y-99270D01*
D02*
G37*
G36*
X-83770D02*
X-89540D01*
Y-105540D01*
X-83770D01*
Y-99270D01*
D02*
G37*
G36*
X-16111Y-91271D02*
X-25001D01*
X-33891D01*
Y-98841D01*
X-33891Y-98891D01*
Y-100111D01*
X-33891Y-100161D01*
Y-107731D01*
X-25001D01*
X-16111D01*
Y-100161D01*
X-16111Y-100111D01*
Y-98891D01*
X-16111Y-98841D01*
Y-91271D01*
D02*
G37*
G36*
X-26271Y-110271D02*
X-33891D01*
Y-117891D01*
X-26271D01*
Y-110271D01*
D02*
G37*
G36*
X-202969Y-86469D02*
X-220033D01*
Y-105533D01*
X-217457D01*
Y-118469D01*
X-220033D01*
Y-137533D01*
X-202969D01*
Y-118469D01*
X-205544D01*
Y-105533D01*
X-202969D01*
Y-101957D01*
X-197501D01*
X-195221Y-101504D01*
X-193289Y-100213D01*
X-191998Y-98280D01*
X-191544Y-96001D01*
X-191998Y-93721D01*
X-193289Y-91789D01*
X-195221Y-90498D01*
X-197501Y-90044D01*
X-202969D01*
Y-86469D01*
D02*
G37*
G36*
X-75460Y-138460D02*
X-81230D01*
Y-144730D01*
X-75460D01*
Y-138460D01*
D02*
G37*
G36*
X-83770D02*
X-89540D01*
Y-144730D01*
X-83770D01*
Y-138460D01*
D02*
G37*
G36*
X6269Y-138109D02*
Y-145729D01*
X13889D01*
Y-138109D01*
X6269D01*
D02*
G37*
G36*
X-15271Y-138109D02*
X-22891D01*
Y-145729D01*
X-15271D01*
Y-138109D01*
D02*
G37*
G36*
X-202111Y-139111D02*
X-209731D01*
Y-146731D01*
X-202111D01*
Y-139111D01*
D02*
G37*
G36*
X-212271D02*
X-219891D01*
Y-146731D01*
X-212271D01*
Y-139111D01*
D02*
G37*
G36*
X-75460Y-147270D02*
X-81230D01*
Y-153540D01*
X-75460D01*
Y-147270D01*
D02*
G37*
G36*
X-83770D02*
X-89540D01*
Y-153540D01*
X-83770D01*
Y-147270D01*
D02*
G37*
G36*
X13889Y-148269D02*
X6269D01*
Y-155889D01*
X13889D01*
Y-148269D01*
D02*
G37*
G36*
X-15271Y-148269D02*
X-22891D01*
Y-155889D01*
X-15271D01*
Y-148269D01*
D02*
G37*
G36*
X-3891Y-138109D02*
X-5111Y-138109D01*
X-5161Y-138109D01*
X-12731D01*
Y-146999D01*
Y-155889D01*
X-5161D01*
X-5111Y-155889D01*
X-3891Y-155889D01*
X-3841Y-155889D01*
X3729D01*
Y-146999D01*
Y-138109D01*
X-3841D01*
X-3891Y-138109D01*
D02*
G37*
G36*
X-231000Y-107827D02*
X-232857Y-108071D01*
X-234587Y-108788D01*
X-236072Y-109928D01*
X-237212Y-111413D01*
X-237929Y-113143D01*
X-238173Y-115000D01*
Y-118469D01*
X-239033D01*
Y-137533D01*
X-237924D01*
Y-139619D01*
X-239383D01*
Y-156383D01*
X-222619D01*
Y-139619D01*
X-223577D01*
Y-137533D01*
X-221969D01*
Y-118469D01*
X-223827D01*
Y-115000D01*
X-224071Y-113143D01*
X-224788Y-111413D01*
X-225928Y-109928D01*
X-227413Y-108788D01*
X-229143Y-108071D01*
X-231000Y-107827D01*
D02*
G37*
G36*
X-202111Y-149271D02*
X-209731D01*
Y-156891D01*
X-202111D01*
Y-149271D01*
D02*
G37*
G36*
X-212271D02*
X-219891D01*
Y-156891D01*
X-212271D01*
Y-149271D01*
D02*
G37*
G36*
X84729Y-106109D02*
X77109D01*
Y-113729D01*
X84729D01*
Y-106109D01*
D02*
G37*
G36*
X94889Y-116269D02*
X87269D01*
Y-123889D01*
X94889D01*
Y-116269D01*
D02*
G37*
G36*
X84729D02*
X77109D01*
Y-123889D01*
X84729D01*
Y-116269D01*
D02*
G37*
G36*
X75532Y-105468D02*
X56468D01*
Y-122532D01*
X60044D01*
Y-128000D01*
X60497Y-130279D01*
X61788Y-132212D01*
X63721Y-133503D01*
X66000Y-133956D01*
X68280Y-133503D01*
X70212Y-132212D01*
X71503Y-130279D01*
X71957Y-128000D01*
Y-122532D01*
X75532D01*
Y-105468D01*
D02*
G37*
%LPD*%
D13*
X-41001Y-93000D02*
Y-89001D01*
X-53999D02*
X-45001D01*
X-148501Y85999D02*
X-147000Y87500D01*
X2498Y153154D02*
Y170502D01*
Y138502D02*
Y153154D01*
X90168Y-57000D02*
X98084Y-64916D01*
X7000Y-92000D02*
X16000Y-101000D01*
X30000D01*
X6500Y109000D02*
X17000D01*
X-7502Y153154D02*
Y162502D01*
X-10850Y165850D02*
X-7502Y162502D01*
X-54000Y115000D02*
X-23000D01*
X109338Y-56662D02*
X113338D01*
X114000Y-56000D01*
X106000Y-60000D02*
X109338Y-56662D01*
X132250Y-48750D02*
X132500Y-49000D01*
X132000Y-39000D02*
X132250Y-39250D01*
Y-48750D02*
Y-39250D01*
X5000Y120000D02*
Y136000D01*
X2498Y138502D02*
X5000Y136000D01*
Y120000D02*
X7000Y118000D01*
Y112000D02*
Y118000D01*
X-56048Y57952D02*
X-55445Y57349D01*
X-38349D01*
X-27660Y46660D01*
X-8120Y-68139D02*
X-7991Y-68010D01*
X-15000Y-68197D02*
X-14942Y-68139D01*
X-8120D01*
X-15000Y-68268D02*
Y-68197D01*
X75000Y-46096D02*
X75662Y-46758D01*
Y-52662D02*
Y-46758D01*
Y-52662D02*
X80000Y-57000D01*
X90168D01*
X-209235Y37719D02*
X-209000Y37484D01*
Y29000D02*
Y37484D01*
X-122093Y51907D02*
Y59289D01*
X-150000Y24000D02*
X-122093Y51907D01*
X-119000Y93400D02*
X-92140D01*
X-27660Y33400D02*
Y46660D01*
X-65500Y-98000D02*
X-65000Y-97500D01*
X-65750Y-98250D02*
X-65500Y-98000D01*
X-65000Y-97500D02*
Y-68268D01*
X-65750Y-113250D02*
Y-98250D01*
Y-145750D02*
Y-130750D01*
X-138400Y74000D02*
X-119000Y93400D01*
X-175000Y74000D02*
X-138400D01*
X-101427Y131573D02*
X-98427D01*
X-112000Y121000D02*
X-101427Y131573D01*
X-98427D02*
X-97000Y133000D01*
X-119000Y121000D02*
X-112000D01*
X-141750Y157250D02*
X-136000Y163000D01*
X-141750Y148750D02*
Y157250D01*
X-151750Y156250D02*
X-147000Y161000D01*
X-146750Y148750D02*
Y160750D01*
X-147000Y161000D02*
X-146750Y160750D01*
X-133000Y158000D02*
X-89000D01*
X-136700Y154300D02*
X-133000Y158000D01*
X-136700Y148800D02*
Y154300D01*
X-136000Y163000D02*
X-87534D01*
X-66428Y141894D01*
X-89000Y158000D02*
X-71000Y140000D01*
Y111000D02*
Y140000D01*
Y111000D02*
X-66500Y106500D01*
X-63000Y116000D02*
Y116936D01*
X-66428Y120364D02*
X-63000Y116936D01*
X-66428Y120364D02*
Y141894D01*
X-131750Y140000D02*
Y148750D01*
X-136750D02*
X-136700Y148800D01*
X-66500Y106500D02*
X-57000D01*
X-119000Y93400D02*
Y116000D01*
X-192000Y71000D02*
X-178000D01*
X-175000Y74000D01*
X-151750Y148750D02*
Y156250D01*
X-43500Y106500D02*
X-33000D01*
X-99999Y-36999D02*
X-99134Y-36134D01*
X-77134D01*
X-99999Y-55999D02*
X-95134Y-51134D01*
X-77134D01*
X-99999Y-74999D02*
X-88999D01*
X-82268Y-68268D02*
X-70000D01*
X-88999Y-74999D02*
X-82268Y-68268D01*
X-60000Y-83000D02*
Y-68268D01*
Y-83000D02*
X-53999Y-89001D01*
X-54942Y-79058D02*
Y-68326D01*
Y-79058D02*
X-49504Y-84496D01*
X106000Y-68000D02*
Y-60000D01*
X100000Y-74000D02*
X106000Y-68000D01*
X88498Y-74000D02*
X100000D01*
X83499Y-69001D02*
X88498Y-74000D01*
X-10000Y134000D02*
X-2502Y141498D01*
X-12285Y118715D02*
X-10000Y121000D01*
X-2502Y141498D02*
Y153154D01*
X-10000Y121000D02*
Y134000D01*
X-12285Y109215D02*
Y118715D01*
X-2502Y153154D02*
Y165502D01*
X-178999Y151999D02*
Y175999D01*
X-168000Y141000D02*
X-159500D01*
X-178999Y151999D02*
X-168000Y141000D01*
X64499Y-69001D02*
X65000Y-68500D01*
X15366Y-31134D02*
X17501Y-28999D01*
X208000Y-25109D02*
X208110Y-24999D01*
X225890Y15001D02*
X226000Y14891D01*
Y2000D02*
Y14891D01*
X-55000Y-68268D02*
X-54942Y-68326D01*
X-57000Y112000D02*
X-54000Y115000D01*
X-57000Y106500D02*
Y112000D01*
X-14212Y106500D02*
X-12500Y108212D01*
X-33000Y106500D02*
X-14212D01*
X-12500Y108212D02*
Y109000D01*
X-147000Y87500D02*
Y97000D01*
X-141800Y102200D01*
Y108200D02*
X-141750Y108250D01*
X-141800Y102200D02*
Y108200D01*
X-179999Y109001D02*
X-176000Y113000D01*
X-190499Y109001D02*
X-179999D01*
X-176000Y113000D02*
Y123000D01*
X-168000Y131000D01*
X-159500D01*
X-185269Y136000D02*
X-159500D01*
X-190499Y130770D02*
X-185269Y136000D01*
X7498Y153154D02*
Y162502D01*
X7578D02*
X9308Y164232D01*
X-688Y177312D02*
X5319D01*
X9308Y173323D01*
X-4312Y173688D02*
X-688Y177312D01*
X9308Y164232D02*
Y173323D01*
X-4312Y167312D02*
Y173688D01*
Y167312D02*
X-2502Y165502D01*
X-12500Y109000D02*
X-12285Y109215D01*
X-21499Y129001D02*
X-17502Y132998D01*
Y153154D01*
X12498Y133000D02*
Y153154D01*
Y133000D02*
X16499Y128999D01*
X146445Y-218155D02*
X149831D01*
X148138D01*
Y-207999D01*
X146445Y-209691D01*
D20*
X-77134Y-61134D02*
D03*
Y-56134D02*
D03*
Y-51134D02*
D03*
Y-46134D02*
D03*
Y-41134D02*
D03*
Y-36134D02*
D03*
Y-31134D02*
D03*
Y-26134D02*
D03*
Y-21134D02*
D03*
Y-16134D02*
D03*
Y-11134D02*
D03*
Y-6134D02*
D03*
X-7866D02*
D03*
Y-11134D02*
D03*
Y-16134D02*
D03*
Y-21134D02*
D03*
Y-26134D02*
D03*
Y-36134D02*
D03*
Y-41134D02*
D03*
Y-46134D02*
D03*
Y-51134D02*
D03*
Y-56134D02*
D03*
Y-61134D02*
D03*
Y-31134D02*
D03*
D21*
X-65000Y1000D02*
D03*
X-60000D02*
D03*
X-55000D02*
D03*
X-50000D02*
D03*
X-45000D02*
D03*
X-40000D02*
D03*
X-35000D02*
D03*
X-30000D02*
D03*
X-25000D02*
D03*
X-20000D02*
D03*
X-15000D02*
D03*
Y-68268D02*
D03*
X-20000D02*
D03*
X-25000D02*
D03*
X-30000D02*
D03*
X-35000D02*
D03*
X-40000D02*
D03*
X-45000D02*
D03*
X-50000D02*
D03*
X-55000D02*
D03*
X-60000D02*
D03*
X-65000D02*
D03*
X-70000Y1000D02*
D03*
D22*
Y-68268D02*
D03*
D23*
X-164308Y28000D02*
D03*
Y40700D02*
D03*
Y53400D02*
D03*
Y66100D02*
D03*
X-110308D02*
D03*
Y53400D02*
D03*
Y40700D02*
D03*
Y28000D02*
D03*
D24*
X4999Y-126999D02*
D03*
Y-146999D02*
D03*
X156999Y-175999D02*
D03*
Y-155999D02*
D03*
X-159999Y175999D02*
D03*
Y195999D02*
D03*
X85999Y-94999D02*
D03*
Y-114999D02*
D03*
X-86999Y44999D02*
D03*
Y64999D02*
D03*
X-184309Y9001D02*
D03*
Y-10999D02*
D03*
X-165309Y9001D02*
D03*
Y-10999D02*
D03*
X109001Y-44001D02*
D03*
Y-24001D02*
D03*
X-83999Y175999D02*
D03*
Y195999D02*
D03*
X60001Y77999D02*
D03*
Y97999D02*
D03*
X79001Y77999D02*
D03*
Y97999D02*
D03*
X83999Y179001D02*
D03*
Y159001D02*
D03*
X64999Y179001D02*
D03*
Y159001D02*
D03*
X-140999Y175999D02*
D03*
Y195999D02*
D03*
X-121999D02*
D03*
Y175999D02*
D03*
X-14001Y-126999D02*
D03*
Y-146999D02*
D03*
X194001Y63999D02*
D03*
Y83999D02*
D03*
X-178999Y175999D02*
D03*
Y195999D02*
D03*
X-67999Y44999D02*
D03*
Y64999D02*
D03*
X41999Y-61999D02*
D03*
Y-81999D02*
D03*
X98001Y97999D02*
D03*
Y77999D02*
D03*
X158999Y78001D02*
D03*
Y98001D02*
D03*
D25*
X44501Y-114999D02*
D03*
X25501D02*
D03*
X66000Y-151000D02*
D03*
X85000D02*
D03*
X-229501Y-9001D02*
D03*
X-210501D02*
D03*
X-190499Y109001D02*
D03*
X-209499D02*
D03*
X-166501Y85999D02*
D03*
X-147501D02*
D03*
X-190499Y151001D02*
D03*
X-209499D02*
D03*
X-190499Y130001D02*
D03*
X-209499D02*
D03*
X17499Y30999D02*
D03*
X36499D02*
D03*
X-230501Y-96001D02*
D03*
X-211501D02*
D03*
X-230501Y-128001D02*
D03*
X-211501D02*
D03*
X-131499Y5001D02*
D03*
X-112499D02*
D03*
X17501Y-28999D02*
D03*
X36501D02*
D03*
X109499Y-124001D02*
D03*
X128499D02*
D03*
X-119499Y-16999D02*
D03*
X-100499D02*
D03*
X35499Y128999D02*
D03*
X16499D02*
D03*
X64499Y-69001D02*
D03*
X83499D02*
D03*
X-40499Y129001D02*
D03*
X-21499D02*
D03*
X132501Y-3999D02*
D03*
X151501D02*
D03*
X118499Y-153001D02*
D03*
X137499D02*
D03*
D26*
X-103000Y195000D02*
D03*
Y177000D02*
D03*
D27*
X-192000Y52000D02*
D03*
Y71000D02*
D03*
X21999Y-62499D02*
D03*
Y-81499D02*
D03*
X88001Y-24501D02*
D03*
Y-43501D02*
D03*
X135999Y118501D02*
D03*
Y137501D02*
D03*
X158001Y137499D02*
D03*
Y118499D02*
D03*
X66000Y-114000D02*
D03*
Y-95000D02*
D03*
X-63999Y195499D02*
D03*
Y176499D02*
D03*
X235001Y83499D02*
D03*
X213999Y83501D02*
D03*
Y64501D02*
D03*
X235001Y64499D02*
D03*
X109001Y15499D02*
D03*
Y-3501D02*
D03*
X88001Y15499D02*
D03*
Y-3501D02*
D03*
X106001Y178499D02*
D03*
Y159499D02*
D03*
D28*
X-229435Y28219D02*
D03*
X-209235Y18719D02*
D03*
Y37719D02*
D03*
X-229435Y62219D02*
D03*
X-209235Y52719D02*
D03*
Y71719D02*
D03*
D29*
X36999Y50999D02*
D03*
X16999D02*
D03*
X-211001Y-76001D02*
D03*
X-231001D02*
D03*
X128999Y-103001D02*
D03*
X108999D02*
D03*
X37001Y-8999D02*
D03*
X17001D02*
D03*
X37001Y10001D02*
D03*
X17001D02*
D03*
X152001Y16001D02*
D03*
X132001D02*
D03*
X-41999Y67001D02*
D03*
X-21999D02*
D03*
X-231001Y-148001D02*
D03*
X-211001D02*
D03*
X-99999Y-55999D02*
D03*
X-119999D02*
D03*
X-99999Y-74999D02*
D03*
X-119999D02*
D03*
X-99999Y-36999D02*
D03*
X-119999D02*
D03*
X-45001Y-109001D02*
D03*
X-25001D02*
D03*
X-45001Y-90001D02*
D03*
X-25001D02*
D03*
X117001Y-67999D02*
D03*
X137001D02*
D03*
X132001Y35001D02*
D03*
X152001D02*
D03*
D30*
X236100Y-77000D02*
D03*
X162440D02*
D03*
X236100Y-130000D02*
D03*
X162440D02*
D03*
D31*
X132500Y-25000D02*
D03*
X151500D02*
D03*
Y-49000D02*
D03*
X142000D02*
D03*
X132500D02*
D03*
X124000Y171500D02*
D03*
D32*
X156000Y162000D02*
D03*
X124500Y162000D02*
D03*
D33*
X61000Y58000D02*
D03*
X79000D02*
D03*
X99000D02*
D03*
X117000D02*
D03*
X83000Y199000D02*
D03*
X65000D02*
D03*
D34*
X134500Y206000D02*
D03*
X144000Y181000D02*
D03*
X125000D02*
D03*
D35*
X-57000Y106500D02*
D03*
Y97000D02*
D03*
Y87500D02*
D03*
X-33000D02*
D03*
Y97000D02*
D03*
Y106500D02*
D03*
D36*
X-3000Y85000D02*
D03*
X6500D02*
D03*
X-12500D02*
D03*
Y109000D02*
D03*
X6500D02*
D03*
X-3000D02*
D03*
D37*
X-65500Y-98000D02*
D03*
X-82500D02*
D03*
X-65500Y-146000D02*
D03*
X-82500D02*
D03*
D38*
X-66000Y-130500D02*
D03*
Y-113500D02*
D03*
D39*
X116000Y78500D02*
D03*
Y97500D02*
D03*
X140000D02*
D03*
Y88000D02*
D03*
Y78500D02*
D03*
D40*
X17976Y-206254D02*
D03*
X-33024D02*
D03*
D41*
X-151750Y148750D02*
D03*
X-141750D02*
D03*
X-146750D02*
D03*
X-136750D02*
D03*
Y108250D02*
D03*
X-131750D02*
D03*
X-146750D02*
D03*
X-151750D02*
D03*
X-141750D02*
D03*
X-126750Y148750D02*
D03*
X-131750D02*
D03*
X-126750Y108250D02*
D03*
D42*
X-159500Y141000D02*
D03*
Y131000D02*
D03*
Y126000D02*
D03*
Y136000D02*
D03*
Y121000D02*
D03*
Y116000D02*
D03*
X-119000Y141000D02*
D03*
Y131000D02*
D03*
Y126000D02*
D03*
Y136000D02*
D03*
Y121000D02*
D03*
Y116000D02*
D03*
D43*
X-139250Y128500D02*
D03*
D44*
X17498Y153154D02*
D03*
X12498D02*
D03*
X7498D02*
D03*
X-17502D02*
D03*
X-12502D02*
D03*
X-7502D02*
D03*
X2498D02*
D03*
X-2502D02*
D03*
D45*
X-24002D02*
D03*
X23998D02*
D03*
X-32002D02*
D03*
X31998D02*
D03*
D46*
X182000Y142750D02*
D03*
Y111250D02*
D03*
D47*
X208110Y-24999D02*
D03*
X225890D02*
D03*
X225890Y15001D02*
D03*
X208110D02*
D03*
D48*
X35000Y-135000D02*
D03*
X25500Y-155200D02*
D03*
X44500D02*
D03*
D49*
X-42500Y-33634D02*
D03*
D88*
X170001Y-175999D02*
X177000Y-169000D01*
Y-155000D01*
X156999Y-175999D02*
X170001D01*
X-65741Y-203259D02*
Y-147000D01*
Y-203259D02*
X-62000Y-207000D01*
X-40770D01*
X116040Y95000D02*
Y97500D01*
X151040Y-49460D02*
X151500Y-49000D01*
X151000Y-53380D02*
X151040Y-53340D01*
Y-49460D01*
X151000Y-64000D02*
Y-53380D01*
X53562Y-58189D02*
X53751Y-58000D01*
X45809Y-58189D02*
X53562D01*
X53751Y-58000D02*
X54000D01*
X-3000Y109000D02*
Y123000D01*
X-43202Y131704D02*
Y158904D01*
Y131704D02*
X-40499Y129001D01*
X-32462Y156029D02*
X-32002Y155569D01*
X-40698Y156029D02*
X-32462D01*
X-32002Y153154D02*
Y155569D01*
X31998Y153154D02*
Y155569D01*
X32458Y156029D01*
X40696D01*
X43200Y158533D01*
Y158904D01*
X32458Y132040D02*
X35499Y128999D01*
X31998Y153154D02*
X32458Y152694D01*
Y132040D02*
Y152694D01*
X2000Y17000D02*
X6000Y13000D01*
X14002D02*
X17001Y10001D01*
X6000Y13000D02*
X14002D01*
X17001Y-8999D02*
Y10001D01*
X117001Y-67999D02*
X124000Y-61000D01*
X109001Y-24001D02*
X124000Y-39000D01*
Y-61000D02*
Y-39000D01*
X110001Y-3501D02*
X124500Y-18000D01*
X132500Y-25000D02*
Y-22500D01*
X128000Y-18000D02*
X132500Y-22500D01*
X124500Y-18000D02*
X128000D01*
X-67999Y44999D02*
X-64189Y48809D01*
X-57440D01*
X-57249Y49000D01*
X-57000D01*
X-145000Y67000D02*
X-132000D01*
X-122000Y77000D01*
X-88000D01*
X62000Y-29936D02*
Y29000D01*
X-66000Y-113500D02*
X-65750Y-113250D01*
Y-145750D02*
X-65500Y-146000D01*
X-66000Y-130500D02*
X-65750Y-130750D01*
X-88000Y77000D02*
X-80000Y85000D01*
X-229176Y28477D02*
Y37824D01*
X-229000Y38000D01*
X-229435Y28219D02*
X-229176Y28477D01*
X-80000Y93040D02*
X-79640Y93400D01*
X-80000Y85000D02*
Y93040D01*
X41999Y-61999D02*
X45809Y-58189D01*
X49000Y42000D02*
X62000Y29000D01*
X97449Y-107837D02*
X104163D01*
X97333Y-107954D02*
X97449Y-107837D01*
X86000Y-94998D02*
Y-83000D01*
X86000Y-83000D01*
X86000Y-94998D02*
X86000Y-94998D01*
X-229281Y52719D02*
X-209235D01*
X-241000Y41000D02*
X-229281Y52719D01*
X-241000Y16000D02*
Y41000D01*
X-229501Y-9001D02*
Y4501D01*
X-241000Y16000D02*
X-229501Y4501D01*
X-214000Y-5502D02*
X-210501Y-9001D01*
X-214000Y-5502D02*
Y5000D01*
X-229435Y20435D02*
Y28219D01*
Y20435D02*
X-214000Y5000D01*
X-192000Y25000D02*
Y52000D01*
X-198281Y18719D02*
X-192000Y25000D01*
X-209235Y18719D02*
X-198281D01*
X-208875Y71360D02*
X-192360D01*
X-192000Y71000D01*
X-209235Y71719D02*
X-208875Y71360D01*
X149000Y-77000D02*
X162440D01*
X208000Y-40000D02*
Y-25109D01*
X109001Y-3501D02*
X110001D01*
X116000Y97500D02*
X116040D01*
X116500Y58500D02*
X117000Y58000D01*
X134074Y97040D02*
X139540D01*
X128000Y90966D02*
X134074Y97040D01*
X128000Y82000D02*
Y90966D01*
X139540Y97040D02*
X140000Y97500D01*
X131040Y78960D02*
X139540D01*
X128000Y82000D02*
X131040Y78960D01*
X139540D02*
X140000Y78500D01*
X149000Y88000D02*
X158999Y78001D01*
X140000Y88000D02*
X149000D01*
X157000Y138500D02*
X158001Y137499D01*
X156000Y162000D02*
X157000Y161000D01*
Y138500D02*
Y161000D01*
X134960Y138540D02*
Y205540D01*
Y138540D02*
X135999Y137501D01*
X134500Y206000D02*
X134960Y205540D01*
D89*
X-29000Y-146000D02*
X-28001Y-146999D01*
X-14001D01*
X-159999Y176500D02*
X-103500D01*
X-178499D02*
X-159999D01*
X-223372Y109523D02*
X-209371D01*
X-99999Y-59000D02*
X-88000D01*
X-102000D02*
X-99999D01*
X182000Y111000D02*
Y125000D01*
X214000Y83000D02*
Y97000D01*
X98000D02*
Y111000D01*
X158000Y78000D02*
X172000D01*
X88252Y15750D02*
X131750D01*
X60000Y97000D02*
Y111000D01*
X79000Y97000D02*
Y111000D01*
X37000Y49000D02*
Y63000D01*
X-84000Y195000D02*
Y209000D01*
X-122000Y195000D02*
Y209000D01*
X-68000Y64460D02*
X-65459Y67001D01*
X-70000Y62500D02*
Y76500D01*
X-141000Y195000D02*
Y209000D01*
X-160000Y195000D02*
Y209000D01*
X-179000Y195000D02*
Y209000D01*
X-223000Y130000D02*
X-209000D01*
X-184000Y-23000D02*
Y-9000D01*
X-165000Y-24000D02*
Y-10000D01*
X103776Y179000D02*
X105000Y180224D01*
X105999Y179001D02*
X123000D01*
X152000Y26001D02*
X164999D01*
X54001Y179999D02*
X67000D01*
X-223000Y151000D02*
X-209000D01*
X63000Y-66500D02*
X65000Y-68500D01*
X116500Y58500D02*
Y94540D01*
X121000Y125000D02*
X124809Y121191D01*
X133309D01*
X135999Y118501D01*
X-55000Y128000D02*
X-41500D01*
X128499Y-124001D02*
X142499D01*
X39000Y129000D02*
X49500D01*
X-82500Y-156500D02*
Y-146000D01*
X-93000Y-146000D02*
X-82500D01*
Y-98000D02*
Y-87500D01*
X-93000Y-98000D02*
X-82500D01*
X-14001Y-146999D02*
X-14001Y-146999D01*
X4999D01*
Y-160999D02*
Y-146999D01*
X-133999Y-36999D02*
X-119999D01*
Y-55999D02*
Y-36999D01*
Y-74999D02*
Y-55999D01*
X-68000Y63000D02*
Y64460D01*
X-65459Y67001D02*
X-41999D01*
X63000Y-66500D02*
Y-56000D01*
X21561Y-81937D02*
X21999Y-81499D01*
X8598Y-81937D02*
X21561D01*
X-25001Y-90001D02*
X-11001D01*
X36500Y30998D02*
X37498Y30000D01*
X36499Y30999D02*
X36500Y30998D01*
X-63999Y162749D02*
Y176249D01*
Y195749D02*
Y209249D01*
X61000Y58000D02*
X61000Y58000D01*
X61000Y46000D02*
Y58000D01*
X37498Y30000D02*
X48000D01*
X-159999Y175999D02*
Y176500D01*
Y162500D02*
Y175999D01*
X-149249Y8000D02*
X-134189D01*
X-164308D02*
X-149249D01*
X41999Y-95999D02*
Y-81999D01*
X16998Y50999D02*
Y63998D01*
X105000Y180224D02*
Y192000D01*
X93000Y179000D02*
X103776D01*
X83999Y179001D02*
X93000D01*
X83500Y198501D02*
X96499D01*
X152001Y16002D02*
X165000D01*
X-25001Y-109001D02*
X-11001D01*
X-42500Y66500D02*
X-41999Y67001D01*
X236100Y-130000D02*
Y-116000D01*
Y-77000D02*
Y-63000D01*
X225890Y-38999D02*
Y-24999D01*
X85999Y-128999D02*
Y-114999D01*
X128999Y-103001D02*
X142999D01*
X117000Y-86000D02*
Y-67999D01*
X132000Y35001D02*
Y48000D01*
X132001Y16001D02*
Y35001D01*
X88000Y15499D02*
Y29000D01*
X131750Y15750D02*
X132001Y16001D01*
X88001Y15499D02*
X88252Y15750D01*
X194000Y84000D02*
Y98000D01*
X106000Y145000D02*
Y159000D01*
X65000Y145000D02*
Y159000D01*
X84000Y145000D02*
Y159000D01*
X-181000Y86000D02*
X-167000D01*
X-134000Y-75000D02*
X-120000D01*
X-119000Y-89000D02*
Y-75000D01*
X-211001Y-76001D02*
X-197001D01*
X-211001Y-148001D02*
X-197001D01*
X-178999Y175999D02*
X-178499Y176500D01*
X-149249Y-6000D02*
Y8000D01*
X-211501Y-96001D02*
X-197501D01*
X37001Y10001D02*
X51001D01*
X37001Y-8999D02*
X51001D01*
X36501Y-28999D02*
X50501D01*
X-45001Y-123001D02*
Y-109001D01*
X66000Y-128000D02*
Y-114000D01*
X116498Y-151000D02*
X118499Y-153001D01*
X99000Y-151000D02*
X116498D01*
X85000D02*
X99000D01*
X-103500Y176500D02*
X-103000Y177000D01*
X-211501Y-128001D02*
Y-96001D01*
X-165309Y9001D02*
X-164809Y9501D01*
Y26000D01*
X-165309Y9001D02*
X-164308Y8000D01*
X-131499Y5001D02*
Y5310D01*
X-134189Y8000D02*
X-131499Y5310D01*
X-184309Y9001D02*
X-165309D01*
X83500Y179500D02*
Y198500D01*
Y179500D02*
X83999Y179001D01*
X83000Y199000D02*
X83500Y198500D01*
X64999Y179001D02*
X83999D01*
X-120000Y-75000D02*
X-119999Y-74999D01*
D90*
X36500Y-28998D02*
Y30998D01*
X-230501Y-96001D02*
Y-64501D01*
X24500Y-117000D02*
Y-114419D01*
X-45001Y-90001D02*
Y-89001D01*
Y-108001D02*
Y-90001D01*
X156000Y-154729D02*
Y-136440D01*
X160020Y-132420D02*
Y-131920D01*
X161940Y-130000D02*
X162440D01*
X156000Y-136440D02*
X160020Y-132420D01*
Y-131920D02*
X161940Y-130000D01*
X137499Y-153309D02*
X138919Y-154729D01*
X155729D02*
X156999Y-155999D01*
X137499Y-153309D02*
Y-153001D01*
X138919Y-154729D02*
X155729D01*
X5000Y-126999D02*
Y-114000D01*
X24081D02*
X24500Y-114419D01*
X5000Y-114000D02*
X24081D01*
X-99999Y-55999D02*
Y-36999D01*
X-86999Y44999D02*
X-72999D01*
X-99999Y-59000D02*
Y-55999D01*
Y-74999D02*
Y-59000D01*
X109375Y-123877D02*
X109499Y-124001D01*
X109375Y-123877D02*
Y-108377D01*
X98751Y-44001D02*
X98865Y-44115D01*
X85999Y-94999D02*
X86000Y-94998D01*
X85999Y-95000D02*
X85999Y-94999D01*
X16999Y50999D02*
X17249Y50749D01*
Y31249D02*
X17499Y30999D01*
X17249Y31249D02*
Y50749D01*
X-83749Y176249D02*
X-64249D01*
X-63999Y176499D01*
X-83999Y175999D02*
X-83749Y176249D01*
X-231000Y-127502D02*
X-230501Y-128001D01*
X-231000Y-127502D02*
Y-115000D01*
X-230751Y-128251D02*
X-230501Y-128001D01*
X-231001Y-148001D02*
X-230751Y-147751D01*
Y-128251D01*
X-14001Y-126999D02*
X-14001Y-126999D01*
X4999D01*
X41749Y-62249D02*
X41999Y-61999D01*
X21999Y-62499D02*
X22249Y-62249D01*
X41749D01*
X66000Y-95000D02*
X66000Y-95000D01*
X85999D01*
X-190499Y130770D02*
Y151001D01*
Y130001D02*
Y130770D01*
X88001Y-3501D02*
X109001D01*
X36500Y-28998D02*
X36501Y-28999D01*
X36560Y82190D02*
X40751Y77999D01*
X60001D01*
X235001Y83499D02*
Y132999D01*
X227300Y140700D02*
X235001Y132999D01*
X210000Y140700D02*
X227300D01*
D91*
X-72999Y32001D02*
Y44999D01*
X48Y-83952D02*
Y-77952D01*
X10017Y-67983D01*
X0Y-84000D02*
X48Y-83952D01*
X1000Y5447D02*
Y6000D01*
Y5447D02*
X5000Y1447D01*
Y-9000D02*
Y1447D01*
X-7866Y-6134D02*
Y4597D01*
X-110008Y41000D02*
X-98381D01*
X-52843Y26843D02*
X-40000Y14000D01*
X-50048Y45000D02*
X-50000D01*
X-41000Y43447D02*
X-37000Y39447D01*
X-41000Y43447D02*
Y44000D01*
X-67157Y26843D02*
X-52843D01*
X-62000Y33048D02*
X-50048Y45000D01*
X-37000Y28505D02*
Y39447D01*
X54033Y-50967D02*
X57000Y-48000D01*
X1866Y-51134D02*
X9064Y-43936D01*
X6262Y-39872D02*
X55128D01*
X59016Y-35984D01*
X57000Y-48000D02*
X67000D01*
X57064Y-43936D02*
X60952Y-40048D01*
X9064Y-43936D02*
X57064D01*
X0Y-46134D02*
X6262Y-39872D01*
X59016Y-35984D02*
X66016D01*
X60952Y-40048D02*
X84548D01*
X88001Y-43501D01*
X66016Y-35984D02*
X68657Y-33343D01*
X18000Y-50967D02*
X54033D01*
X68657Y-33343D02*
X75902D01*
X-144553Y58000D02*
X-136000D01*
X-98000Y7952D02*
Y8000D01*
X-85000Y21000D01*
X-71000Y12000D02*
X-61106D01*
X-55075Y5969D01*
Y1075D02*
Y5969D01*
Y1075D02*
X-55000Y1000D01*
Y4820D01*
X-45000Y1000D02*
Y13000D01*
X-50000Y1000D02*
Y9447D01*
X-54443Y13890D02*
X-50000Y9447D01*
X-43048Y22935D02*
X-35000Y14887D01*
X-52795Y20795D02*
X-45000Y13000D01*
X-40000Y1000D02*
Y14000D01*
X-43048Y22935D02*
Y34000D01*
X-58600Y20795D02*
X-52795D01*
X-35000Y1000D02*
Y14887D01*
X-77134Y-6134D02*
Y27866D01*
X-72999Y32001D01*
X-85000Y21000D02*
Y29000D01*
X-97952Y56235D02*
X-97765D01*
X-100788Y53400D02*
X-97952Y56235D01*
X-152653Y66100D02*
X-144553Y58000D01*
X-147400Y53400D02*
X-143000Y49000D01*
X-164308Y53400D02*
X-147400D01*
X-110308Y40700D02*
X-110008Y41000D01*
X-110308Y53400D02*
X-100788D01*
X-37000Y28505D02*
X-25000Y16505D01*
Y1000D02*
Y16505D01*
X-164308Y66100D02*
X-152653D01*
X-9514Y-76472D02*
X-8440D01*
X-11042Y-78000D02*
X-9514Y-76472D01*
X-17000Y-78000D02*
X-11042D01*
X10017Y-67983D02*
X16515D01*
X2613Y-56134D02*
X4940Y-53807D01*
X9292D01*
X10051Y-53048D01*
X-89000Y-7000D02*
X-88565D01*
X-119000Y136000D02*
X-118853Y136147D01*
X-93800Y153682D02*
X-79640Y139522D01*
X-105318Y153682D02*
X-93800D01*
X-79640Y93400D02*
Y139522D01*
X-111807Y147193D02*
X-105318Y153682D01*
X-111807Y138000D02*
Y147193D01*
X-118853Y136147D02*
X-113660D01*
X-111807Y138000D01*
X-113107Y126000D02*
X-105759Y133347D01*
Y138241D01*
X-119000Y126000D02*
X-113107D01*
X-112499Y25809D02*
X-110308Y28000D01*
X-164008Y41000D02*
X-147000D01*
X-164308Y40700D02*
X-164008Y41000D01*
X-83833Y-21134D02*
X-77134D01*
X-88967Y-16000D02*
X-83833Y-21134D01*
X-88565Y-7000D02*
X-84506Y-11059D01*
X-77209D02*
X-77134Y-11134D01*
X-84506Y-11059D02*
X-77209D01*
X-15000Y11000D02*
X4999Y30999D01*
X-15000Y1000D02*
Y11000D01*
X4999Y30999D02*
X17499D01*
X16515Y-67983D02*
X21999Y-62499D01*
X-100499Y-17999D02*
X-92364Y-26134D01*
X-100499Y-17999D02*
Y-16999D01*
X-92364Y-26134D02*
X-77134D01*
X-29925Y-75075D02*
Y-68344D01*
Y-75075D02*
X-27000Y-78000D01*
X-30000Y-68268D02*
X-29925Y-68344D01*
X-36115Y-79000D02*
X-35694Y-78579D01*
X-47000Y-79000D02*
X-36115D01*
X-50000Y-76000D02*
X-47000Y-79000D01*
X-50000Y-76000D02*
Y-68268D01*
X-19925Y-75075D02*
X-17000Y-78000D01*
X-19925Y-75075D02*
Y-68344D01*
X-20000Y-68268D02*
X-19925Y-68344D01*
X2866Y-11134D02*
X5000Y-9000D01*
X-7866Y-46134D02*
X0D01*
X-7866Y-51134D02*
X1866D01*
X-7722Y-56134D02*
X2613D01*
X-7866Y-61134D02*
X8866D01*
X-7866Y-11134D02*
X2866D01*
X-7866Y-31134D02*
X15366D01*
D92*
X40190Y163295D02*
X44784D01*
X-41500Y128000D02*
X-40499Y129001D01*
D93*
X-110308Y66100D02*
X-73000D01*
X74001Y-24501D02*
X88001D01*
X234751Y64249D02*
X235001Y64499D01*
X194001Y63999D02*
X194251Y64249D01*
X182000Y142750D02*
X183025Y141725D01*
X208975D01*
X210000Y140700D01*
X182000Y142750D02*
Y163000D01*
X164000Y181000D02*
X182000Y163000D01*
X144000Y181000D02*
X164000D01*
D94*
X-24999Y68001D02*
X-22000Y71000D01*
X-33000Y97000D02*
X13000D01*
X35870Y94000D02*
X36560Y94690D01*
X16000Y94000D02*
X35870D01*
X13000Y97000D02*
X16000Y94000D01*
X-33000Y97000D02*
X-32794Y96794D01*
X-22000Y71000D02*
Y95000D01*
X151500Y-25000D02*
Y-4000D01*
X151501Y-3999D01*
X151500Y-25000D02*
X151500Y-25000D01*
D95*
X194251Y64249D02*
X234751D01*
X98865Y-53843D02*
Y-44115D01*
D96*
X142000Y-49000D02*
Y-38000D01*
Y-52000D02*
Y-49000D01*
X137001Y-67999D02*
X141000Y-64000D01*
X151000D01*
X82000Y39000D02*
X104000D01*
X-3000Y74000D02*
Y85000D01*
X54000Y-97000D02*
Y-58000D01*
X-98915Y86000D02*
X-98915Y86001D01*
X-111518Y86000D02*
X-98915D01*
X-111519Y86000D02*
X-111518Y86000D01*
X-109727Y28581D02*
X-95419D01*
X-95000Y29000D01*
X-110308Y28000D02*
X-109727Y28581D01*
X-59000Y79383D02*
X-58957Y79425D01*
X-32043D01*
X-32000Y79468D01*
X-229435Y62219D02*
X-218219D01*
X-103000Y195000D02*
Y209000D01*
X-112499Y5001D02*
Y25809D01*
X-133000Y-17000D02*
X-132999Y-16999D01*
X-119499D01*
X137000Y-152502D02*
X137499Y-153001D01*
X137000Y-152502D02*
Y-142000D01*
X134000Y-139000D02*
X137000Y-142000D01*
X106000Y-139000D02*
X134000D01*
X50000Y-101000D02*
X54000Y-97000D01*
X194000Y64000D02*
X194001Y63999D01*
X180000Y64000D02*
X194000D01*
X-68000Y97000D02*
X-57000D01*
X25000Y-135000D02*
X35000D01*
X55000Y-148000D02*
X65000D01*
X52000Y-145000D02*
X55000Y-148000D01*
X44500Y-155200D02*
X53800D01*
X25000Y-148000D02*
X28000Y-145000D01*
X52000D01*
X25000Y-154700D02*
Y-148000D01*
Y-154700D02*
X25500Y-155200D01*
X44000Y-115500D02*
X44501Y-114999D01*
X44000Y-125000D02*
Y-115500D01*
X35000Y-135000D02*
Y-134000D01*
X44000Y-125000D01*
X208109Y15000D02*
X208110Y15001D01*
X193000Y15000D02*
X208109D01*
X142000Y-22000D02*
Y-14498D01*
X132501Y-4999D02*
X142000Y-14498D01*
X132501Y-4999D02*
Y-3999D01*
X22903Y154249D02*
X23998Y153154D01*
X-24002D02*
X-22907Y154249D01*
D97*
X100000Y-41500D02*
D03*
D98*
X152012Y15568D02*
D03*
D99*
X61000Y67000D02*
D03*
D100*
X89000Y68000D02*
D03*
D101*
X134000Y104134D02*
D03*
D102*
X150069Y109634D02*
D03*
D103*
X195000Y143500D02*
D03*
D104*
X93000Y179000D02*
D03*
D105*
X-97000Y120500D02*
D03*
X36560Y94690D02*
D03*
D106*
X-97000Y133000D02*
D03*
Y145500D02*
D03*
X-213000Y-43000D02*
D03*
X189000Y38000D02*
D03*
X-17000Y202000D02*
D03*
X-150000Y-158000D02*
D03*
X36560Y82190D02*
D03*
X-27660Y33400D02*
D03*
X-92140Y93400D02*
D03*
D107*
X-15160Y33400D02*
D03*
X-79640Y93400D02*
D03*
D108*
X28898Y163904D02*
D03*
X-28902D02*
D03*
D109*
X-43202Y158904D02*
D03*
X43200D02*
D03*
D110*
X-43202Y200704D02*
D03*
X43198D02*
D03*
D111*
X210000Y115300D02*
D03*
D112*
Y140700D02*
D03*
D113*
X177000Y-155000D02*
D03*
X-29000Y-146000D02*
D03*
X-38000Y-139000D02*
D03*
X-45000Y-147000D02*
D03*
X-37000Y-157000D02*
D03*
X-46438Y-156750D02*
D03*
X-104000Y-157000D02*
D03*
X-92000D02*
D03*
X-77000Y-134000D02*
D03*
Y-122000D02*
D03*
Y-110000D02*
D03*
X-73000Y-86000D02*
D03*
X-55000Y-123000D02*
D03*
Y-136000D02*
D03*
Y-147000D02*
D03*
X-57000Y-157000D02*
D03*
X98000Y111000D02*
D03*
X121000Y125000D02*
D03*
X2498Y170502D02*
D03*
X151000Y-64000D02*
D03*
X104000Y39000D02*
D03*
X98865Y-53843D02*
D03*
X98084Y-64916D02*
D03*
X7000Y-92000D02*
D03*
X0Y-84000D02*
D03*
X30000Y-101000D02*
D03*
X54000Y-58000D02*
D03*
X-3000Y123000D02*
D03*
X17000Y109000D02*
D03*
X-10850Y165850D02*
D03*
X-23000Y115000D02*
D03*
X-13000Y178000D02*
D03*
X-19000Y172000D02*
D03*
X-3000Y74000D02*
D03*
X2000Y17000D02*
D03*
X1000Y6000D02*
D03*
X-7866Y4597D02*
D03*
X114000Y-56000D02*
D03*
X132000Y-39000D02*
D03*
X142499Y-124001D02*
D03*
X-98381Y41000D02*
D03*
X49500Y129000D02*
D03*
X-82500Y-156500D02*
D03*
X-93000Y-146000D02*
D03*
X-82500Y-87500D02*
D03*
X-93000Y-98000D02*
D03*
X4999Y-160999D02*
D03*
X-133999Y-36999D02*
D03*
X-51017Y32904D02*
D03*
X-56048Y57952D02*
D03*
X-50000Y45000D02*
D03*
X-41000Y44000D02*
D03*
X-57000Y49000D02*
D03*
X-7991Y-68010D02*
D03*
X-70000Y76500D02*
D03*
X67000Y-48000D02*
D03*
X63000Y-56000D02*
D03*
X75000Y-46096D02*
D03*
X62000Y-29936D02*
D03*
X75902Y-33343D02*
D03*
X5000Y-114000D02*
D03*
X18000Y-50967D02*
D03*
X-209000Y29000D02*
D03*
X-150000Y24000D02*
D03*
X-122093Y59289D02*
D03*
X-136000Y58000D02*
D03*
X-111519Y86000D02*
D03*
X-98000Y7952D02*
D03*
X-71001Y12001D02*
D03*
X-58600Y20795D02*
D03*
X-54443Y13890D02*
D03*
X-67157Y26843D02*
D03*
X-95000Y29000D02*
D03*
X-85000D02*
D03*
X-97765Y56235D02*
D03*
X-143000Y49000D02*
D03*
X-59000Y79383D02*
D03*
X-32000Y79468D02*
D03*
X-98915Y86001D02*
D03*
X-218195Y62243D02*
D03*
X-43048Y34000D02*
D03*
X-62000Y33048D02*
D03*
X-88000Y-59000D02*
D03*
X-145000Y67000D02*
D03*
X-8440Y-76472D02*
D03*
X8598Y-81937D02*
D03*
X-11001Y-90001D02*
D03*
X10051Y-53048D02*
D03*
X-229000Y38000D02*
D03*
X-89000Y-7000D02*
D03*
X-105759Y138241D02*
D03*
X-147000Y161000D02*
D03*
X-63000Y116000D02*
D03*
X-223000Y151000D02*
D03*
X-63999Y162749D02*
D03*
Y209249D02*
D03*
X-103000Y209000D02*
D03*
X-43500Y106500D02*
D03*
X-147000Y41000D02*
D03*
X-133000Y-17000D02*
D03*
X-88967Y-16000D02*
D03*
X106000Y-139000D02*
D03*
X50000Y-101000D02*
D03*
X61000Y46000D02*
D03*
X48000Y30000D02*
D03*
X49000Y42000D02*
D03*
X82000Y39000D02*
D03*
X-27000Y-78000D02*
D03*
X-35694Y-78579D02*
D03*
X97333Y-107954D02*
D03*
X8866Y-61134D02*
D03*
X41999Y-95999D02*
D03*
X16998Y63998D02*
D03*
X54001Y179999D02*
D03*
X105000Y192000D02*
D03*
X96499Y198501D02*
D03*
X165000Y16002D02*
D03*
X164999Y26001D02*
D03*
X180000Y64000D02*
D03*
X163000Y54999D02*
D03*
X74001Y-24501D02*
D03*
X-11001Y-109001D02*
D03*
X177000Y99000D02*
D03*
X176500Y189750D02*
D03*
X-176500Y100250D02*
D03*
X-178000Y39000D02*
D03*
X-176500Y-39750D02*
D03*
Y-110250D02*
D03*
X162000Y-26001D02*
D03*
X-68000Y97000D02*
D03*
X236100Y-116000D02*
D03*
Y-63000D02*
D03*
X225890Y-38999D02*
D03*
X163000Y-96000D02*
D03*
X85999Y-128999D02*
D03*
X142999Y-103001D02*
D03*
X117000Y-86000D02*
D03*
X142000Y-38000D02*
D03*
X88000Y29000D02*
D03*
X132000Y48000D02*
D03*
X37000Y63000D02*
D03*
X79000Y111000D02*
D03*
X60000D02*
D03*
X172000Y78000D02*
D03*
X214000Y97000D02*
D03*
X194000Y98000D02*
D03*
X182000Y125000D02*
D03*
X106000Y145000D02*
D03*
X65000D02*
D03*
X84000D02*
D03*
X-55000Y128000D02*
D03*
X-84000Y209000D02*
D03*
X-122000D02*
D03*
X-141000D02*
D03*
X-160000D02*
D03*
X-179000D02*
D03*
X-223000Y130000D02*
D03*
X-181000Y86000D02*
D03*
X-165000Y-24000D02*
D03*
X-184000Y-23000D02*
D03*
X-134000Y-75000D02*
D03*
X-119000Y-89000D02*
D03*
X-197001Y-76001D02*
D03*
Y-148001D02*
D03*
X-159999Y162500D02*
D03*
X-223372Y109523D02*
D03*
X-149249Y-6000D02*
D03*
X-197501Y-96001D02*
D03*
X51001Y10001D02*
D03*
Y-8999D02*
D03*
X50501Y-28999D02*
D03*
X-45001Y-123001D02*
D03*
X66000Y-128000D02*
D03*
X99000Y-151000D02*
D03*
X86000Y-83000D02*
D03*
X-230501Y-64501D02*
D03*
X-231000Y-115000D02*
D03*
X25000Y-135000D02*
D03*
X53800Y-155200D02*
D03*
X149000Y-77000D02*
D03*
X208000Y-40000D02*
D03*
X226000Y2000D02*
D03*
X193000Y15000D02*
D03*
X142000Y-22000D02*
D03*
X-145250Y134500D02*
D03*
Y122500D02*
D03*
X-133250Y134500D02*
D03*
Y122500D02*
D03*
D114*
X-64500Y-44634D02*
D03*
Y-22634D02*
D03*
Y-33634D02*
D03*
X-20500Y-44634D02*
D03*
Y-22634D02*
D03*
Y-33634D02*
D03*
X-31500Y-55634D02*
D03*
Y-44634D02*
D03*
Y-11634D02*
D03*
Y-22634D02*
D03*
Y-33634D02*
D03*
X-53500Y-55634D02*
D03*
Y-44634D02*
D03*
Y-11634D02*
D03*
Y-22634D02*
D03*
Y-33634D02*
D03*
X-42500Y-55634D02*
D03*
Y-44634D02*
D03*
Y-11634D02*
D03*
Y-22634D02*
D03*
Y-33634D02*
D03*
M02*
