G04*
G04 #@! TF.GenerationSoftware,Altium Limited,Altium Designer,22.10.1 (41)*
G04*
G04 Layer_Physical_Order=3*
G04 Layer_Color=16440176*
%FSLAX44Y44*%
%MOMM*%
G71*
G04*
G04 #@! TF.SameCoordinates,6FA54AF5-B1EA-40D0-AA23-297218595CE5*
G04*
G04*
G04 #@! TF.FilePolarity,Positive*
G04*
G01*
G75*
%ADD13C,0.2540*%
%ADD90C,1.0160*%
%ADD105R,1.0000X1.0000*%
%ADD106C,1.0000*%
%ADD112R,1.6000X1.6000*%
%ADD113C,0.6000*%
G36*
X224170Y221325D02*
X228236Y220349D01*
X232100Y218748D01*
X235666Y216563D01*
X238847Y213847D01*
X241563Y210666D01*
X243748Y207100D01*
X245349Y203236D01*
X246325Y199170D01*
X246652Y195020D01*
X246633Y195000D01*
X246633D01*
X246890Y193712D01*
X247619Y192619D01*
X247024Y191490D01*
X246890Y191288D01*
X246633Y190000D01*
Y-161000D01*
X56265D01*
X56013Y-159730D01*
X56650Y-159466D01*
X58066Y-158050D01*
X58832Y-156201D01*
Y-154199D01*
X58066Y-152350D01*
X56650Y-150934D01*
X54801Y-150168D01*
X52799D01*
X50950Y-150934D01*
X49534Y-152350D01*
X48768Y-154199D01*
Y-156201D01*
X49534Y-158050D01*
X50950Y-159466D01*
X51587Y-159730D01*
X51335Y-161000D01*
X10031D01*
Y-159998D01*
X9265Y-158149D01*
X7850Y-156733D01*
X6000Y-155967D01*
X3998D01*
X2149Y-156733D01*
X733Y-158149D01*
X-33Y-159998D01*
Y-161000D01*
X-32224D01*
X-32684Y-159730D01*
X-31968Y-158001D01*
Y-155999D01*
X-32734Y-154150D01*
X-34150Y-152734D01*
X-35999Y-151968D01*
X-38001D01*
X-39850Y-152734D01*
X-40862Y-153745D01*
X-41914Y-153869D01*
X-42424Y-153648D01*
X-43056Y-153016D01*
X-42806Y-151538D01*
X-42150Y-151266D01*
X-40734Y-149850D01*
X-39968Y-148001D01*
Y-145999D01*
X-40465Y-144800D01*
X-39492Y-143828D01*
X-39001Y-144032D01*
X-36999D01*
X-35150Y-143266D01*
X-34184Y-142301D01*
X-33266Y-143150D01*
X-33494Y-143700D01*
X-34032Y-144999D01*
Y-147001D01*
X-33266Y-148850D01*
X-31850Y-150266D01*
X-30001Y-151032D01*
X-27999D01*
X-26150Y-150266D01*
X-24734Y-148850D01*
X-23968Y-147001D01*
Y-144999D01*
X-24734Y-143150D01*
X-26150Y-141734D01*
X-27999Y-140968D01*
X-30001D01*
X-31850Y-141734D01*
X-32816Y-142699D01*
X-33734Y-141850D01*
X-33506Y-141300D01*
X-32968Y-140001D01*
Y-137999D01*
X-33734Y-136150D01*
X-35150Y-134734D01*
X-36999Y-133968D01*
X-39001D01*
X-40850Y-134734D01*
X-42266Y-136150D01*
X-43032Y-137999D01*
Y-140001D01*
X-42535Y-141200D01*
X-43507Y-142172D01*
X-43999Y-141968D01*
X-46001D01*
X-47850Y-142734D01*
X-49266Y-144150D01*
X-49365Y-144389D01*
X-50635D01*
X-50734Y-144150D01*
X-52150Y-142734D01*
X-53470Y-142187D01*
Y-140813D01*
X-52150Y-140266D01*
X-50734Y-138850D01*
X-49968Y-137001D01*
Y-134999D01*
X-50734Y-133150D01*
X-52150Y-131734D01*
X-53999Y-130968D01*
X-56001D01*
X-57850Y-131734D01*
X-59266Y-133150D01*
X-60032Y-134999D01*
Y-137001D01*
X-59266Y-138850D01*
X-57850Y-140266D01*
X-56530Y-140813D01*
Y-142187D01*
X-57850Y-142734D01*
X-59266Y-144150D01*
X-60032Y-145999D01*
Y-148001D01*
X-59266Y-149850D01*
X-58322Y-150795D01*
X-58611Y-152221D01*
X-59850Y-152734D01*
X-61266Y-154150D01*
X-62032Y-155999D01*
Y-158001D01*
X-61316Y-159730D01*
X-61776Y-161000D01*
X-78088D01*
X-78614Y-159730D01*
X-78234Y-159350D01*
X-77468Y-157501D01*
Y-155499D01*
X-78234Y-153650D01*
X-79650Y-152234D01*
X-81499Y-151468D01*
X-83501D01*
X-85350Y-152234D01*
X-86670Y-153554D01*
X-86848Y-153653D01*
X-88168Y-153716D01*
X-89150Y-152734D01*
X-90970Y-151980D01*
X-91015Y-151861D01*
X-91193Y-150698D01*
X-90150Y-150266D01*
X-88734Y-148850D01*
X-87968Y-147001D01*
Y-144999D01*
X-88734Y-143150D01*
X-90150Y-141734D01*
X-91999Y-140968D01*
X-94001D01*
X-95850Y-141734D01*
X-97266Y-143150D01*
X-98032Y-144999D01*
Y-147001D01*
X-97266Y-148850D01*
X-95850Y-150266D01*
X-94030Y-151020D01*
X-93985Y-151138D01*
X-93807Y-152302D01*
X-94850Y-152734D01*
X-96266Y-154150D01*
X-97032Y-155999D01*
Y-158001D01*
X-96316Y-159730D01*
X-96776Y-161000D01*
X-99224D01*
X-99684Y-159730D01*
X-98968Y-158001D01*
Y-155999D01*
X-99734Y-154150D01*
X-101150Y-152734D01*
X-102999Y-151968D01*
X-105001D01*
X-106850Y-152734D01*
X-108266Y-154150D01*
X-109032Y-155999D01*
Y-158001D01*
X-108316Y-159730D01*
X-108776Y-161000D01*
X-142209D01*
X-143183Y-159730D01*
X-142968Y-158926D01*
Y-157074D01*
X-143447Y-155286D01*
X-144373Y-153682D01*
X-145682Y-152373D01*
X-147286Y-151447D01*
X-149074Y-150968D01*
X-150926D01*
X-152714Y-151447D01*
X-154318Y-152373D01*
X-155627Y-153682D01*
X-156553Y-155286D01*
X-157032Y-157074D01*
Y-158926D01*
X-156817Y-159730D01*
X-157791Y-161000D01*
X-246633D01*
Y193739D01*
X-246633Y193746D01*
X-246633Y195000D01*
X-246556Y196238D01*
X-246325Y199170D01*
X-245349Y203236D01*
X-243748Y207100D01*
X-241563Y210666D01*
X-238847Y213847D01*
X-235666Y216563D01*
X-232100Y218748D01*
X-228236Y220349D01*
X-224170Y221325D01*
X-220072Y221647D01*
X-220000Y221633D01*
X220000D01*
X220072Y221647D01*
X224170Y221325D01*
D02*
G37*
%LPC*%
G36*
X-82999Y214032D02*
X-85001D01*
X-86850Y213266D01*
X-88266Y211850D01*
X-89032Y210001D01*
Y207999D01*
X-88266Y206150D01*
X-86850Y204734D01*
X-85001Y203968D01*
X-82999D01*
X-81150Y204734D01*
X-79734Y206150D01*
X-78968Y207999D01*
Y210001D01*
X-79734Y211850D01*
X-81150Y213266D01*
X-82999Y214032D01*
D02*
G37*
G36*
X-101999D02*
X-104001D01*
X-105850Y213266D01*
X-107266Y211850D01*
X-108032Y210001D01*
Y207999D01*
X-107266Y206150D01*
X-105850Y204734D01*
X-104001Y203968D01*
X-101999D01*
X-100150Y204734D01*
X-98734Y206150D01*
X-97968Y207999D01*
Y210001D01*
X-98734Y211850D01*
X-100150Y213266D01*
X-101999Y214032D01*
D02*
G37*
G36*
X-120999D02*
X-123001D01*
X-124850Y213266D01*
X-126266Y211850D01*
X-127032Y210001D01*
Y207999D01*
X-126266Y206150D01*
X-124850Y204734D01*
X-123001Y203968D01*
X-120999D01*
X-119150Y204734D01*
X-117734Y206150D01*
X-116968Y207999D01*
Y210001D01*
X-117734Y211850D01*
X-119150Y213266D01*
X-120999Y214032D01*
D02*
G37*
G36*
X-139999D02*
X-142001D01*
X-143850Y213266D01*
X-145266Y211850D01*
X-146032Y210001D01*
Y207999D01*
X-145266Y206150D01*
X-143850Y204734D01*
X-142001Y203968D01*
X-139999D01*
X-138150Y204734D01*
X-136734Y206150D01*
X-135968Y207999D01*
Y210001D01*
X-136734Y211850D01*
X-138150Y213266D01*
X-139999Y214032D01*
D02*
G37*
G36*
X-158999D02*
X-161001D01*
X-162850Y213266D01*
X-164266Y211850D01*
X-165032Y210001D01*
Y207999D01*
X-164266Y206150D01*
X-162850Y204734D01*
X-161001Y203968D01*
X-158999D01*
X-157150Y204734D01*
X-155734Y206150D01*
X-154968Y207999D01*
Y210001D01*
X-155734Y211850D01*
X-157150Y213266D01*
X-158999Y214032D01*
D02*
G37*
G36*
X-177999D02*
X-180001D01*
X-181850Y213266D01*
X-183266Y211850D01*
X-184032Y210001D01*
Y207999D01*
X-183266Y206150D01*
X-181850Y204734D01*
X-180001Y203968D01*
X-177999D01*
X-176150Y204734D01*
X-174734Y206150D01*
X-173968Y207999D01*
Y210001D01*
X-174734Y211850D01*
X-176150Y213266D01*
X-177999Y214032D01*
D02*
G37*
G36*
X43198Y212797D02*
X41362Y212555D01*
X39652Y211847D01*
X38183Y210719D01*
X37056Y209250D01*
X36347Y207540D01*
X36105Y205704D01*
Y195704D01*
X36347Y193868D01*
X37056Y192158D01*
X38183Y190689D01*
X39652Y189562D01*
X40182Y189342D01*
X39930Y188072D01*
X32858D01*
X23465Y197465D01*
X22793Y197914D01*
X22000Y198072D01*
X22000Y198072D01*
X-9878D01*
X-10477Y199110D01*
X-10432Y199342D01*
X-9968Y201074D01*
Y202926D01*
X-10447Y204714D01*
X-11373Y206318D01*
X-12682Y207627D01*
X-14286Y208553D01*
X-16074Y209032D01*
X-17926D01*
X-19714Y208553D01*
X-21318Y207627D01*
X-22627Y206318D01*
X-23553Y204714D01*
X-24032Y202926D01*
Y201074D01*
X-23553Y199286D01*
X-22627Y197682D01*
X-21318Y196373D01*
X-19714Y195447D01*
X-17926Y194968D01*
X-17758D01*
X-17232Y193698D01*
X-21858Y189072D01*
X-38208D01*
X-38639Y190342D01*
X-38187Y190689D01*
X-37060Y192158D01*
X-36351Y193868D01*
X-36109Y195704D01*
Y205704D01*
X-36351Y207540D01*
X-37060Y209250D01*
X-38187Y210719D01*
X-39656Y211847D01*
X-41366Y212555D01*
X-43202Y212797D01*
X-45038Y212555D01*
X-46748Y211847D01*
X-48217Y210719D01*
X-49344Y209250D01*
X-50053Y207540D01*
X-50295Y205704D01*
Y195704D01*
X-50053Y193868D01*
X-49344Y192158D01*
X-48217Y190689D01*
X-47765Y190342D01*
X-48196Y189072D01*
X-202000D01*
X-202000Y189072D01*
X-202703Y188932D01*
X-203046Y189169D01*
X-203705Y189832D01*
X-203622Y190032D01*
X-202968Y193323D01*
Y196677D01*
X-203622Y199968D01*
X-204906Y203068D01*
X-206770Y205857D01*
X-209143Y208230D01*
X-211932Y210094D01*
X-215032Y211378D01*
X-218323Y212032D01*
X-221677D01*
X-224968Y211378D01*
X-228068Y210094D01*
X-230857Y208230D01*
X-233230Y205857D01*
X-235094Y203068D01*
X-236378Y199968D01*
X-237032Y196677D01*
Y193323D01*
X-236378Y190032D01*
X-235094Y186932D01*
X-233230Y184143D01*
X-230857Y181770D01*
X-228068Y179906D01*
X-224968Y178622D01*
X-221677Y177968D01*
X-218323D01*
X-215121Y178605D01*
X-215061Y178561D01*
X-214722Y177208D01*
X-233465Y158465D01*
X-233914Y157793D01*
X-234072Y157000D01*
X-234072Y157000D01*
Y146000D01*
X-233914Y145207D01*
X-233465Y144535D01*
X-233465Y144535D01*
X-229465Y140535D01*
X-228793Y140086D01*
X-228000Y139928D01*
X-228000Y139928D01*
X-194000D01*
X-194000Y139928D01*
X-193207Y140086D01*
X-192535Y140535D01*
X-192535Y140535D01*
X-166142Y166928D01*
X-149156D01*
X-148903Y165658D01*
X-149850Y165266D01*
X-151266Y163850D01*
X-152032Y162001D01*
Y159999D01*
X-151266Y158150D01*
X-149850Y156734D01*
X-148001Y155968D01*
X-145999D01*
X-144150Y156734D01*
X-142734Y158150D01*
X-141968Y159999D01*
Y162001D01*
X-142734Y163850D01*
X-144150Y165266D01*
X-145097Y165658D01*
X-144844Y166928D01*
X-68596D01*
X-68110Y165755D01*
X-68265Y165600D01*
X-69031Y163750D01*
Y161749D01*
X-68265Y159899D01*
X-66850Y158483D01*
X-65000Y157717D01*
X-62998D01*
X-61149Y158483D01*
X-59733Y159899D01*
X-58967Y161749D01*
Y163750D01*
X-59733Y165600D01*
X-59888Y165755D01*
X-59402Y166928D01*
X-51309D01*
X-50704Y166406D01*
X-50696Y166396D01*
X-50335Y165766D01*
X-50547Y164154D01*
Y153654D01*
X-50297Y151753D01*
X-49563Y149982D01*
X-48396Y148460D01*
X-46874Y147293D01*
X-45103Y146559D01*
X-43202Y146309D01*
X-41301Y146559D01*
X-39530Y147293D01*
X-38008Y148460D01*
X-36841Y149982D01*
X-36107Y151753D01*
X-35857Y153654D01*
Y164154D01*
X-36107Y166055D01*
X-36841Y167826D01*
X-38008Y169348D01*
X-38413Y169658D01*
X-37982Y170928D01*
X-28145D01*
X-27352Y171086D01*
X-26360Y170445D01*
X-26240Y169893D01*
X-27296Y168956D01*
X-27851Y169186D01*
X-29953D01*
X-31894Y168382D01*
X-33380Y166896D01*
X-34184Y164955D01*
Y162853D01*
X-33380Y160912D01*
X-31894Y159426D01*
X-29953Y158622D01*
X-27851D01*
X-25910Y159426D01*
X-24424Y160912D01*
X-23620Y162853D01*
Y164955D01*
X-23635Y164991D01*
X-22592Y165792D01*
X-22587Y165788D01*
X-20857Y165071D01*
X-19000Y164827D01*
X-17143Y165071D01*
X-16570Y165309D01*
X-15882Y164849D01*
X-15116Y162999D01*
X-13700Y161584D01*
X-11851Y160818D01*
X-9849D01*
X-7999Y161584D01*
X-6584Y162999D01*
X-5818Y164849D01*
Y166851D01*
X-6584Y168700D01*
X-7999Y170116D01*
X-8667Y170392D01*
X-8965Y171890D01*
X-7928Y172928D01*
X-7928Y172928D01*
X-6029Y174827D01*
X-2090D01*
X-1564Y173557D01*
X-1768Y173352D01*
X-2534Y171503D01*
Y169501D01*
X-1768Y167652D01*
X-352Y166236D01*
X1497Y165470D01*
X3499D01*
X5348Y166236D01*
X6557Y167444D01*
X7536Y167218D01*
X7827Y167055D01*
Y126971D01*
X3302Y122447D01*
X2032Y122973D01*
Y124001D01*
X1266Y125850D01*
X-150Y127266D01*
X-1999Y128032D01*
X-4001D01*
X-5850Y127266D01*
X-7266Y125850D01*
X-8032Y124001D01*
Y121999D01*
X-7266Y120150D01*
X-5850Y118734D01*
X-4001Y117968D01*
X-2973D01*
X-2447Y116698D01*
X-8072Y111072D01*
X-9212Y109587D01*
X-9929Y107857D01*
X-10173Y106000D01*
Y74000D01*
X-9929Y72143D01*
X-9212Y70413D01*
X-8072Y68928D01*
X-6587Y67788D01*
X-4857Y67071D01*
X-3000Y66827D01*
X-1143Y67071D01*
X587Y67788D01*
X2072Y68928D01*
X3212Y70413D01*
X3929Y72143D01*
X4173Y74000D01*
Y103029D01*
X10698Y109553D01*
X11968Y109027D01*
Y107999D01*
X12734Y106150D01*
X14150Y104734D01*
X15999Y103968D01*
X18001D01*
X19850Y104734D01*
X21266Y106150D01*
X22032Y107999D01*
Y110001D01*
X21266Y111850D01*
X19850Y113266D01*
X18001Y114032D01*
X16973D01*
X16447Y115302D01*
X20072Y118928D01*
X21212Y120413D01*
X21929Y122143D01*
X22173Y124000D01*
Y175000D01*
X22006Y176267D01*
X23209Y176861D01*
X28535Y171535D01*
X29207Y171086D01*
X30000Y170928D01*
X30000Y170928D01*
X37980D01*
X38411Y169658D01*
X38006Y169348D01*
X36839Y167826D01*
X36105Y166055D01*
X35855Y164154D01*
Y153654D01*
X36105Y151753D01*
X36839Y149982D01*
X38006Y148460D01*
X38161Y148342D01*
X38070Y147621D01*
X37785Y147029D01*
X37207Y146914D01*
X36535Y146465D01*
X24535Y134465D01*
X24086Y133793D01*
X23928Y133000D01*
X23928Y133000D01*
Y92000D01*
X24086Y91207D01*
X24535Y90535D01*
X24535Y90535D01*
X26535Y88535D01*
X27207Y88086D01*
X28000Y87928D01*
X28000Y87928D01*
X29528D01*
Y87658D01*
X29692D01*
X30277Y86388D01*
X29534Y85100D01*
X29094Y83460D01*
X36560D01*
X44026D01*
X43586Y85100D01*
X42843Y86388D01*
X43428Y87658D01*
X43592D01*
Y87928D01*
X45000D01*
X45000Y87928D01*
X45793Y88086D01*
X46465Y88535D01*
X46465Y88535D01*
X49465Y91535D01*
X49914Y92207D01*
X50072Y93000D01*
X50072Y93000D01*
Y116000D01*
X50072Y116000D01*
X49914Y116793D01*
X49465Y117465D01*
X49465Y117465D01*
X43072Y123858D01*
Y129104D01*
X43105Y129160D01*
X43198Y129211D01*
X44468Y128451D01*
Y127999D01*
X45234Y126150D01*
X46650Y124734D01*
X48499Y123968D01*
X50501D01*
X52350Y124734D01*
X53766Y126150D01*
X54532Y127999D01*
Y130001D01*
X53766Y131850D01*
X52350Y133266D01*
X51403Y133658D01*
X51656Y134928D01*
X53000D01*
X53793Y135086D01*
X54465Y135535D01*
X54528Y135629D01*
X60891Y141992D01*
X62150Y140734D01*
X63999Y139968D01*
X66001D01*
X67850Y140734D01*
X69266Y142150D01*
X70032Y143999D01*
Y146001D01*
X69266Y147850D01*
X67850Y149266D01*
X66001Y150032D01*
X65758D01*
X65232Y151302D01*
X77858Y163928D01*
X112142D01*
X139928Y136142D01*
Y9000D01*
X139928Y9000D01*
X140086Y8207D01*
X140535Y7535D01*
X146535Y1535D01*
X147207Y1086D01*
X148000Y928D01*
X148000Y928D01*
X166000D01*
X166000Y928D01*
X166793Y1086D01*
X167465Y1535D01*
X167465Y1535D01*
X175465Y9535D01*
X175914Y10207D01*
X176072Y11000D01*
X176072Y11000D01*
Y36000D01*
X176072Y36000D01*
X175914Y36793D01*
X175465Y37465D01*
X164136Y48794D01*
X164537Y50189D01*
X165850Y50733D01*
X167266Y52149D01*
X168032Y53998D01*
Y56000D01*
X167266Y57850D01*
X165850Y59265D01*
X164001Y60031D01*
X162757D01*
X162231Y61301D01*
X165465Y64535D01*
X165914Y65207D01*
X166072Y66000D01*
X166072Y66000D01*
Y75844D01*
X167342Y76097D01*
X167734Y75150D01*
X169150Y73734D01*
X170999Y72968D01*
X173001D01*
X174850Y73734D01*
X176266Y75150D01*
X177032Y76999D01*
Y79001D01*
X176266Y80850D01*
X174850Y82266D01*
X173001Y83032D01*
X170999D01*
X169150Y82266D01*
X167734Y80850D01*
X167342Y79903D01*
X166072Y80156D01*
Y184000D01*
X166072Y184000D01*
X165914Y184793D01*
X165465Y185465D01*
X165465Y185465D01*
X158465Y192465D01*
X142465Y208465D01*
X142465Y208465D01*
X141793Y208914D01*
X141000Y209072D01*
X141000Y209072D01*
X66000D01*
X66000Y209072D01*
X65207Y208914D01*
X64535Y208465D01*
X51410Y195340D01*
X50291Y196017D01*
Y205704D01*
X50049Y207540D01*
X49340Y209250D01*
X48213Y210719D01*
X46744Y211847D01*
X45034Y212555D01*
X43198Y212797D01*
D02*
G37*
G36*
X177501Y194782D02*
X175499D01*
X173650Y194016D01*
X172234Y192600D01*
X171468Y190751D01*
Y188749D01*
X172234Y186900D01*
X173650Y185484D01*
X175499Y184718D01*
X177501D01*
X179350Y185484D01*
X180766Y186900D01*
X181532Y188749D01*
Y190751D01*
X180766Y192600D01*
X179350Y194016D01*
X177501Y194782D01*
D02*
G37*
G36*
X221677Y212032D02*
X218323D01*
X215032Y211378D01*
X211932Y210094D01*
X209143Y208230D01*
X206770Y205857D01*
X204906Y203068D01*
X203622Y199968D01*
X202968Y196677D01*
Y193323D01*
X203622Y190032D01*
X204906Y186932D01*
X206770Y184143D01*
X209143Y181770D01*
X211932Y179906D01*
X215032Y178622D01*
X218323Y177968D01*
X221677D01*
X224968Y178622D01*
X228068Y179906D01*
X230857Y181770D01*
X233230Y184143D01*
X235094Y186932D01*
X236378Y190032D01*
X237032Y193323D01*
Y196677D01*
X236378Y199968D01*
X235094Y203068D01*
X233230Y205857D01*
X230857Y208230D01*
X228068Y210094D01*
X224968Y211378D01*
X221677Y212032D01*
D02*
G37*
G36*
X231000Y163072D02*
X231000Y163072D01*
X199000D01*
X199000Y163072D01*
X198207Y162914D01*
X197535Y162465D01*
X197535Y162465D01*
X190535Y155465D01*
X190086Y154793D01*
X189928Y154000D01*
X189928Y154000D01*
Y133000D01*
X189928Y133000D01*
X190086Y132207D01*
X190535Y131535D01*
X196535Y125535D01*
X197207Y125086D01*
X198000Y124928D01*
X198000Y124928D01*
X204072D01*
X204413Y123658D01*
X203840Y123328D01*
X201972Y121460D01*
X200652Y119172D01*
X199968Y116621D01*
Y113979D01*
X200652Y111428D01*
X201972Y109140D01*
X203840Y107272D01*
X206128Y105952D01*
X208679Y105268D01*
X211321D01*
X213872Y105952D01*
X216160Y107272D01*
X217658Y108771D01*
X218928Y108248D01*
Y100984D01*
X217658Y100458D01*
X216850Y101266D01*
X215001Y102032D01*
X212999D01*
X211150Y101266D01*
X209734Y99850D01*
X208968Y98001D01*
Y95999D01*
X209734Y94150D01*
X211150Y92734D01*
X212999Y91968D01*
X215001D01*
X215412Y92139D01*
X216132Y91062D01*
X200535Y75465D01*
X200086Y74793D01*
X199928Y74000D01*
X199928Y74000D01*
Y1858D01*
X154142Y-43928D01*
X145000D01*
X145000Y-43928D01*
X144207Y-44086D01*
X143535Y-44535D01*
X143535Y-44535D01*
X137535Y-50535D01*
X137086Y-51207D01*
X136928Y-52000D01*
X136928Y-52000D01*
Y-63000D01*
X136928Y-63000D01*
X137086Y-63793D01*
X137535Y-64465D01*
X137535Y-64465D01*
X143535Y-70465D01*
X144207Y-70914D01*
X145000Y-71072D01*
X145000Y-71072D01*
X146844D01*
X147097Y-72342D01*
X146150Y-72734D01*
X144734Y-74150D01*
X143968Y-75999D01*
Y-78001D01*
X144734Y-79850D01*
X146150Y-81266D01*
X147999Y-82032D01*
X150001D01*
X151850Y-81266D01*
X153266Y-79850D01*
X154032Y-78001D01*
Y-75999D01*
X153266Y-74150D01*
X151850Y-72734D01*
X150903Y-72342D01*
X151156Y-71072D01*
X175000D01*
X175000Y-71072D01*
X175793Y-70914D01*
X176465Y-70465D01*
X176465Y-70465D01*
X195465Y-51465D01*
X195914Y-50793D01*
X196072Y-50000D01*
X196072Y-50000D01*
Y-25858D01*
X219465Y-2465D01*
X219914Y-1793D01*
X220072Y-1000D01*
X220297Y-701D01*
X221731Y-850D01*
X221757Y-873D01*
X223150Y-2266D01*
X224999Y-3032D01*
X227001D01*
X228850Y-2266D01*
X230266Y-850D01*
X231032Y999D01*
Y3001D01*
X230266Y4850D01*
X228850Y6266D01*
X227001Y7032D01*
X224999D01*
X223150Y6266D01*
X221734Y4850D01*
X221342Y3903D01*
X220072Y4156D01*
Y20142D01*
X243465Y43535D01*
X243914Y44207D01*
X244072Y45000D01*
X244072Y45000D01*
Y150000D01*
X244072Y150000D01*
X243914Y150793D01*
X243465Y151465D01*
X243465Y151465D01*
X232465Y162465D01*
X231793Y162914D01*
X231000Y163072D01*
D02*
G37*
G36*
X29949Y169186D02*
X27847D01*
X25906Y168382D01*
X24420Y166896D01*
X23616Y164955D01*
Y162853D01*
X24420Y160912D01*
X25906Y159426D01*
X27847Y158622D01*
X29949D01*
X31890Y159426D01*
X33376Y160912D01*
X34180Y162853D01*
Y164955D01*
X33376Y166896D01*
X31890Y168382D01*
X29949Y169186D01*
D02*
G37*
G36*
X107001Y150032D02*
X104999D01*
X103150Y149266D01*
X101734Y147850D01*
X100968Y146001D01*
Y143999D01*
X101734Y142150D01*
X103150Y140734D01*
X104999Y139968D01*
X107001D01*
X108850Y140734D01*
X110266Y142150D01*
X111032Y143999D01*
Y146001D01*
X110266Y147850D01*
X108850Y149266D01*
X107001Y150032D01*
D02*
G37*
G36*
X85001D02*
X82999D01*
X81150Y149266D01*
X79734Y147850D01*
X78968Y146001D01*
Y143999D01*
X79734Y142150D01*
X81150Y140734D01*
X82999Y139968D01*
X85001D01*
X86850Y140734D01*
X88266Y142150D01*
X89032Y143999D01*
Y146001D01*
X88266Y147850D01*
X86850Y149266D01*
X85001Y150032D01*
D02*
G37*
G36*
X-132249Y139532D02*
X-134251D01*
X-136100Y138766D01*
X-137516Y137350D01*
X-138282Y135501D01*
Y133499D01*
X-137516Y131650D01*
X-136100Y130234D01*
X-134251Y129468D01*
X-132249D01*
X-130400Y130234D01*
X-128984Y131650D01*
X-128218Y133499D01*
Y135501D01*
X-128984Y137350D01*
X-130400Y138766D01*
X-132249Y139532D01*
D02*
G37*
G36*
X-144249D02*
X-146251D01*
X-148100Y138766D01*
X-149516Y137350D01*
X-150282Y135501D01*
Y133499D01*
X-149516Y131650D01*
X-148100Y130234D01*
X-146251Y129468D01*
X-144249D01*
X-142400Y130234D01*
X-140984Y131650D01*
X-140218Y133499D01*
Y135501D01*
X-140984Y137350D01*
X-142400Y138766D01*
X-144249Y139532D01*
D02*
G37*
G36*
X-221999Y135032D02*
X-224001D01*
X-225850Y134266D01*
X-227266Y132850D01*
X-228032Y131001D01*
Y128999D01*
X-227266Y127150D01*
X-225850Y125734D01*
X-224001Y124968D01*
X-221999D01*
X-220150Y125734D01*
X-218734Y127150D01*
X-217968Y128999D01*
Y131001D01*
X-218734Y132850D01*
X-220150Y134266D01*
X-221999Y135032D01*
D02*
G37*
G36*
X-53999Y133032D02*
X-56001D01*
X-57850Y132266D01*
X-59266Y130850D01*
X-60032Y129001D01*
Y126999D01*
X-59266Y125150D01*
X-57850Y123734D01*
X-56001Y122968D01*
X-53999D01*
X-52150Y123734D01*
X-50734Y125150D01*
X-49968Y126999D01*
Y129001D01*
X-50734Y130850D01*
X-52150Y132266D01*
X-53999Y133032D01*
D02*
G37*
G36*
X183001Y130032D02*
X180999D01*
X179150Y129266D01*
X177734Y127850D01*
X176968Y126001D01*
Y123999D01*
X177734Y122150D01*
X179150Y120734D01*
X180999Y119968D01*
X183001D01*
X184850Y120734D01*
X186266Y122150D01*
X187032Y123999D01*
Y126001D01*
X186266Y127850D01*
X184850Y129266D01*
X183001Y130032D01*
D02*
G37*
G36*
X-132249Y127532D02*
X-134251D01*
X-136100Y126766D01*
X-137516Y125350D01*
X-138282Y123501D01*
Y121499D01*
X-137516Y119650D01*
X-136100Y118234D01*
X-134251Y117468D01*
X-132249D01*
X-130400Y118234D01*
X-128984Y119650D01*
X-128218Y121499D01*
Y123501D01*
X-128984Y125350D01*
X-130400Y126766D01*
X-132249Y127532D01*
D02*
G37*
G36*
X-144249D02*
X-146251D01*
X-148100Y126766D01*
X-149516Y125350D01*
X-150282Y123501D01*
Y121499D01*
X-149516Y119650D01*
X-148100Y118234D01*
X-146251Y117468D01*
X-144249D01*
X-142400Y118234D01*
X-140984Y119650D01*
X-140218Y121499D01*
Y123501D01*
X-140984Y125350D01*
X-142400Y126766D01*
X-144249Y127532D01*
D02*
G37*
G36*
X-96074Y152532D02*
X-97926D01*
X-99714Y152053D01*
X-101318Y151127D01*
X-102627Y149818D01*
X-103553Y148214D01*
X-104032Y146426D01*
Y144574D01*
X-103963Y144318D01*
X-104290Y143889D01*
X-104998Y143273D01*
X-106760D01*
X-108610Y142507D01*
X-110025Y141091D01*
X-110791Y139242D01*
Y137240D01*
X-110025Y135390D01*
X-108610Y133975D01*
X-106760Y133209D01*
X-104758D01*
X-104032Y132724D01*
Y132074D01*
X-103553Y130286D01*
X-102696Y128802D01*
X-102952Y127898D01*
X-103104Y127532D01*
X-104032D01*
Y113468D01*
X-89968D01*
Y127532D01*
X-90897D01*
X-91048Y127898D01*
X-91304Y128802D01*
X-90447Y130286D01*
X-89968Y132074D01*
Y133926D01*
X-90447Y135714D01*
X-91373Y137318D01*
X-92542Y138487D01*
X-92619Y139250D01*
X-92542Y140013D01*
X-91373Y141182D01*
X-90447Y142786D01*
X-89968Y144574D01*
Y146426D01*
X-90447Y148214D01*
X-91373Y149818D01*
X-92682Y151127D01*
X-94286Y152053D01*
X-96074Y152532D01*
D02*
G37*
G36*
X-61999Y121032D02*
X-64001D01*
X-65850Y120266D01*
X-67266Y118850D01*
X-68032Y117001D01*
Y114999D01*
X-67266Y113150D01*
X-65850Y111734D01*
X-64001Y110968D01*
X-61999D01*
X-60150Y111734D01*
X-58734Y113150D01*
X-57968Y114999D01*
Y117001D01*
X-58734Y118850D01*
X-60150Y120266D01*
X-61999Y121032D01*
D02*
G37*
G36*
X-21999Y120032D02*
X-24001D01*
X-25850Y119266D01*
X-27266Y117850D01*
X-28032Y116001D01*
Y113999D01*
X-27266Y112150D01*
X-25850Y110734D01*
X-24001Y109968D01*
X-21999D01*
X-20150Y110734D01*
X-18734Y112150D01*
X-17968Y113999D01*
Y116001D01*
X-18734Y117850D01*
X-20150Y119266D01*
X-21999Y120032D01*
D02*
G37*
G36*
X99001Y116032D02*
X96999D01*
X95150Y115266D01*
X93734Y113850D01*
X92968Y112001D01*
Y109999D01*
X93734Y108150D01*
X95150Y106734D01*
X96999Y105968D01*
X99001D01*
X100850Y106734D01*
X102266Y108150D01*
X103032Y109999D01*
Y112001D01*
X102266Y113850D01*
X100850Y115266D01*
X99001Y116032D01*
D02*
G37*
G36*
X80001D02*
X77999D01*
X76150Y115266D01*
X74734Y113850D01*
X73968Y112001D01*
Y109999D01*
X74734Y108150D01*
X76150Y106734D01*
X77999Y105968D01*
X80001D01*
X81850Y106734D01*
X83266Y108150D01*
X84032Y109999D01*
Y112001D01*
X83266Y113850D01*
X81850Y115266D01*
X80001Y116032D01*
D02*
G37*
G36*
X61001D02*
X58999D01*
X57150Y115266D01*
X55734Y113850D01*
X54968Y112001D01*
Y109999D01*
X55734Y108150D01*
X57150Y106734D01*
X58999Y105968D01*
X61001D01*
X62850Y106734D01*
X64266Y108150D01*
X65032Y109999D01*
Y112001D01*
X64266Y113850D01*
X62850Y115266D01*
X61001Y116032D01*
D02*
G37*
G36*
X-42499Y111532D02*
X-44501D01*
X-46350Y110766D01*
X-47766Y109350D01*
X-48532Y107501D01*
Y105499D01*
X-47766Y103650D01*
X-46350Y102234D01*
X-44501Y101468D01*
X-42499D01*
X-40650Y102234D01*
X-39234Y103650D01*
X-38468Y105499D01*
Y107501D01*
X-39234Y109350D01*
X-40650Y110766D01*
X-42499Y111532D01*
D02*
G37*
G36*
X-66999Y102032D02*
X-69001D01*
X-70850Y101266D01*
X-71439Y100677D01*
X-72608Y100432D01*
X-72608Y100432D01*
X-72608Y100432D01*
X-86672D01*
Y99503D01*
X-87038Y99352D01*
X-87942Y99096D01*
X-89426Y99953D01*
X-91214Y100432D01*
X-93066D01*
X-94854Y99953D01*
X-96458Y99027D01*
X-97767Y97718D01*
X-98693Y96114D01*
X-99172Y94326D01*
Y92474D01*
X-99056Y92041D01*
X-99829Y91033D01*
X-99916D01*
X-101765Y90267D01*
X-103181Y88851D01*
X-103947Y87002D01*
Y85000D01*
X-103181Y83151D01*
X-101765Y81735D01*
X-99916Y80969D01*
X-97914D01*
X-96064Y81735D01*
X-94649Y83151D01*
X-93883Y85000D01*
Y85741D01*
X-93066Y86368D01*
X-91214D01*
X-89426Y86847D01*
X-87942Y87704D01*
X-87038Y87448D01*
X-86672Y87296D01*
Y86368D01*
X-72608D01*
Y92696D01*
X-71338Y93222D01*
X-70850Y92734D01*
X-69001Y91968D01*
X-66999D01*
X-65150Y92734D01*
X-63734Y94150D01*
X-62968Y95999D01*
Y98001D01*
X-63734Y99850D01*
X-65150Y101266D01*
X-66999Y102032D01*
D02*
G37*
G36*
X-175499Y105282D02*
X-177501D01*
X-179350Y104516D01*
X-180766Y103100D01*
X-181532Y101251D01*
Y99249D01*
X-180766Y97400D01*
X-179350Y95984D01*
X-177501Y95218D01*
X-175499D01*
X-173650Y95984D01*
X-172234Y97400D01*
X-171468Y99249D01*
Y101251D01*
X-172234Y103100D01*
X-173650Y104516D01*
X-175499Y105282D01*
D02*
G37*
G36*
X178001Y104032D02*
X175999D01*
X174150Y103266D01*
X172734Y101850D01*
X171968Y100001D01*
Y97999D01*
X172734Y96150D01*
X174150Y94734D01*
X175999Y93968D01*
X178001D01*
X179850Y94734D01*
X181266Y96150D01*
X182032Y97999D01*
Y100001D01*
X181266Y101850D01*
X179850Y103266D01*
X178001Y104032D01*
D02*
G37*
G36*
X195001Y103032D02*
X192999D01*
X191150Y102266D01*
X189734Y100850D01*
X188968Y99001D01*
Y96999D01*
X189734Y95150D01*
X191150Y93734D01*
X192999Y92968D01*
X195001D01*
X196850Y93734D01*
X198266Y95150D01*
X199032Y96999D01*
Y99001D01*
X198266Y100850D01*
X196850Y102266D01*
X195001Y103032D01*
D02*
G37*
G36*
X-110518Y91032D02*
X-112520D01*
X-114369Y90266D01*
X-115785Y88850D01*
X-116551Y87001D01*
Y84999D01*
X-115785Y83150D01*
X-114369Y81734D01*
X-112520Y80968D01*
X-110518D01*
X-108668Y81734D01*
X-107253Y83150D01*
X-106487Y84999D01*
Y87001D01*
X-107253Y88850D01*
X-108668Y90266D01*
X-110518Y91032D01*
D02*
G37*
G36*
X-179999D02*
X-182001D01*
X-183850Y90266D01*
X-185266Y88850D01*
X-186032Y87001D01*
Y84999D01*
X-185266Y83150D01*
X-183850Y81734D01*
X-182001Y80968D01*
X-179999D01*
X-178150Y81734D01*
X-176734Y83150D01*
X-175968Y84999D01*
Y87001D01*
X-176734Y88850D01*
X-178150Y90266D01*
X-179999Y91032D01*
D02*
G37*
G36*
X-57999Y84415D02*
X-60001D01*
X-61850Y83649D01*
X-63266Y82233D01*
X-64032Y80384D01*
Y79026D01*
X-64032Y78382D01*
X-65205Y78074D01*
X-65432Y78622D01*
X-65734Y79350D01*
X-67150Y80766D01*
X-68999Y81532D01*
X-71001D01*
X-72850Y80766D01*
X-74266Y79350D01*
X-75032Y77501D01*
Y75499D01*
X-74266Y73650D01*
X-72850Y72234D01*
X-71001Y71468D01*
X-68999D01*
X-67150Y72234D01*
X-65734Y73650D01*
X-64968Y75499D01*
Y76857D01*
X-64968Y77501D01*
X-63795Y77809D01*
X-63568Y77261D01*
X-63266Y76532D01*
X-61850Y75117D01*
X-60001Y74351D01*
X-57999D01*
X-56150Y75117D01*
X-54734Y76532D01*
X-53968Y78382D01*
Y80384D01*
X-54734Y82233D01*
X-56150Y83649D01*
X-57999Y84415D01*
D02*
G37*
G36*
X44026Y80920D02*
X37830D01*
Y74724D01*
X39470Y75164D01*
X41190Y76157D01*
X42593Y77560D01*
X43586Y79280D01*
X44026Y80920D01*
D02*
G37*
G36*
X35290D02*
X29094D01*
X29534Y79280D01*
X30526Y77560D01*
X31930Y76157D01*
X33650Y75164D01*
X35290Y74724D01*
Y80920D01*
D02*
G37*
G36*
X-30999Y84500D02*
X-33001D01*
X-34850Y83734D01*
X-36266Y82318D01*
X-37032Y80469D01*
Y78467D01*
X-36266Y76618D01*
X-34850Y75202D01*
X-33001Y74436D01*
X-30999D01*
X-29150Y75202D01*
X-27734Y76618D01*
X-26968Y78467D01*
Y80469D01*
X-27734Y82318D01*
X-29150Y83734D01*
X-30999Y84500D01*
D02*
G37*
G36*
X-143999Y72032D02*
X-146001D01*
X-147850Y71266D01*
X-149266Y69850D01*
X-150032Y68001D01*
Y65999D01*
X-149266Y64150D01*
X-147850Y62734D01*
X-146001Y61968D01*
X-143999D01*
X-142150Y62734D01*
X-140734Y64150D01*
X-139968Y65999D01*
Y68001D01*
X-140734Y69850D01*
X-142150Y71266D01*
X-143999Y72032D01*
D02*
G37*
G36*
X181001Y69032D02*
X178999D01*
X177150Y68266D01*
X175734Y66850D01*
X174968Y65001D01*
Y62999D01*
X175734Y61150D01*
X177150Y59734D01*
X178999Y58968D01*
X181001D01*
X182850Y59734D01*
X184266Y61150D01*
X185032Y62999D01*
Y65001D01*
X184266Y66850D01*
X182850Y68266D01*
X181001Y69032D01*
D02*
G37*
G36*
X17999Y69030D02*
X15998D01*
X14148Y68264D01*
X12732Y66849D01*
X11966Y64999D01*
Y62997D01*
X12732Y61148D01*
X14148Y59732D01*
X15998Y58966D01*
X17999D01*
X19849Y59732D01*
X21264Y61148D01*
X22030Y62997D01*
Y64999D01*
X21264Y66849D01*
X19849Y68264D01*
X17999Y69030D01*
D02*
G37*
G36*
X38001Y68032D02*
X35999D01*
X34150Y67266D01*
X32734Y65850D01*
X31968Y64001D01*
Y61999D01*
X32734Y60150D01*
X34150Y58734D01*
X35999Y57968D01*
X38001D01*
X39850Y58734D01*
X41266Y60150D01*
X42032Y61999D01*
Y64001D01*
X41266Y65850D01*
X39850Y67266D01*
X38001Y68032D01*
D02*
G37*
G36*
X-217194Y67275D02*
X-219196D01*
X-221045Y66509D01*
X-222461Y65093D01*
X-223227Y63244D01*
Y61242D01*
X-222461Y59392D01*
X-221045Y57977D01*
X-219196Y57211D01*
X-217194D01*
X-215345Y57977D01*
X-213929Y59392D01*
X-213163Y61242D01*
Y63244D01*
X-213929Y65093D01*
X-215345Y66509D01*
X-217194Y67275D01*
D02*
G37*
G36*
X-121092Y64321D02*
X-123094D01*
X-124943Y63555D01*
X-126359Y62139D01*
X-127125Y60290D01*
Y58288D01*
X-126359Y56439D01*
X-124943Y55023D01*
X-123094Y54257D01*
X-121092D01*
X-119242Y55023D01*
X-117827Y56439D01*
X-117061Y58288D01*
Y60290D01*
X-117827Y62139D01*
X-119242Y63555D01*
X-121092Y64321D01*
D02*
G37*
G36*
X-134999Y63032D02*
X-137001D01*
X-138850Y62266D01*
X-140266Y60850D01*
X-141032Y59001D01*
Y56999D01*
X-140266Y55150D01*
X-139300Y54184D01*
X-140150Y53266D01*
X-140700Y53494D01*
X-141999Y54032D01*
X-144001D01*
X-145850Y53266D01*
X-147266Y51850D01*
X-148032Y50001D01*
Y47999D01*
X-147743Y47302D01*
X-148001Y46032D01*
X-149850Y45266D01*
X-151266Y43850D01*
X-152032Y42001D01*
Y39999D01*
X-151266Y38150D01*
X-149850Y36734D01*
X-148001Y35968D01*
X-145999D01*
X-144150Y36734D01*
X-142734Y38150D01*
X-141968Y39999D01*
Y42001D01*
X-142257Y42698D01*
X-141999Y43968D01*
X-140150Y44734D01*
X-138734Y46150D01*
X-137968Y47999D01*
Y50001D01*
X-138734Y51850D01*
X-139699Y52816D01*
X-138850Y53734D01*
X-138300Y53506D01*
X-137001Y52968D01*
X-134999D01*
X-133150Y53734D01*
X-131734Y55150D01*
X-130968Y56999D01*
Y59001D01*
X-131734Y60850D01*
X-133150Y62266D01*
X-134999Y63032D01*
D02*
G37*
G36*
X-55047Y62984D02*
X-57049D01*
X-58898Y62218D01*
X-60314Y60802D01*
X-61080Y58953D01*
Y56951D01*
X-60314Y55102D01*
X-58898Y53686D01*
X-57049Y52920D01*
X-55047D01*
X-53198Y53686D01*
X-51782Y55102D01*
X-51016Y56951D01*
Y58953D01*
X-51782Y60802D01*
X-53198Y62218D01*
X-55047Y62984D01*
D02*
G37*
G36*
X-96764Y61267D02*
X-98765D01*
X-100615Y60501D01*
X-102030Y59086D01*
X-102796Y57236D01*
Y55234D01*
X-102030Y53385D01*
X-100615Y51969D01*
X-98765Y51203D01*
X-96764D01*
X-94914Y51969D01*
X-93499Y53385D01*
X-92733Y55234D01*
Y57236D01*
X-93499Y59086D01*
X-94914Y60501D01*
X-96764Y61267D01*
D02*
G37*
G36*
X133001Y53032D02*
X130999D01*
X129150Y52266D01*
X127734Y50850D01*
X126968Y49001D01*
Y46999D01*
X127734Y45150D01*
X129150Y43734D01*
X130999Y42968D01*
X133001D01*
X134850Y43734D01*
X136266Y45150D01*
X137032Y46999D01*
Y49001D01*
X136266Y50850D01*
X134850Y52266D01*
X133001Y53032D01*
D02*
G37*
G36*
X121000Y132173D02*
X119143Y131929D01*
X117413Y131212D01*
X115928Y130072D01*
X114788Y128587D01*
X114071Y126857D01*
X113827Y125000D01*
Y99592D01*
X111928Y97693D01*
X110788Y96208D01*
X110071Y94478D01*
X109827Y92621D01*
Y41401D01*
X108557Y41149D01*
X108266Y41850D01*
X106850Y43266D01*
X105001Y44032D01*
X102999D01*
X101150Y43266D01*
X99734Y41850D01*
X98968Y40001D01*
Y37999D01*
X99734Y36150D01*
X101150Y34734D01*
X102999Y33968D01*
X105001D01*
X106850Y34734D01*
X108266Y36150D01*
X108557Y36851D01*
X109827Y36599D01*
Y-14029D01*
X81928Y-41928D01*
X80788Y-43413D01*
X80749Y-43507D01*
X79374D01*
X79266Y-43246D01*
X77850Y-41830D01*
X76001Y-41064D01*
X73999D01*
X72150Y-41830D01*
X70734Y-43246D01*
X69259Y-43489D01*
X68001Y-42968D01*
X65999D01*
X64150Y-43734D01*
X62734Y-45150D01*
X61968Y-46999D01*
Y-49001D01*
X62257Y-49698D01*
X61999Y-50968D01*
X60150Y-51734D01*
X58734Y-53150D01*
X58449Y-53839D01*
X57203Y-54087D01*
X56850Y-53734D01*
X55001Y-52968D01*
X52999D01*
X51150Y-53734D01*
X49734Y-55150D01*
X48968Y-56999D01*
Y-59001D01*
X49734Y-60850D01*
X51150Y-62266D01*
X52999Y-63032D01*
X55001D01*
X56850Y-62266D01*
X58266Y-60850D01*
X58551Y-60161D01*
X59797Y-59913D01*
X60150Y-60266D01*
X61999Y-61032D01*
X64001D01*
X65850Y-60266D01*
X67266Y-58850D01*
X68032Y-57001D01*
Y-54999D01*
X67743Y-54302D01*
X68001Y-53032D01*
X69850Y-52266D01*
X71054Y-51062D01*
X72150Y-50362D01*
X73999Y-51128D01*
X76001D01*
X77850Y-50362D01*
X78557Y-49656D01*
X79827Y-50182D01*
Y-54029D01*
X65029Y-68827D01*
X37000D01*
X35143Y-69071D01*
X33413Y-69788D01*
X31928Y-70928D01*
X12953Y-89903D01*
X11454Y-89605D01*
X11266Y-89150D01*
X9850Y-87734D01*
X8001Y-86968D01*
X5999D01*
X5508Y-87172D01*
X4536Y-86200D01*
X5032Y-85001D01*
Y-82999D01*
X4266Y-81150D01*
X2850Y-79734D01*
X1001Y-78968D01*
X-1001D01*
X-2850Y-79734D01*
X-3233Y-80117D01*
X-4174Y-79323D01*
X-3408Y-77473D01*
Y-75471D01*
X-4174Y-73622D01*
X-5203Y-72593D01*
X-5140Y-72275D01*
X-3725Y-70860D01*
X-2959Y-69010D01*
Y-67009D01*
X-3725Y-65159D01*
X-5140Y-63744D01*
X-6990Y-62977D01*
X-8992D01*
X-10841Y-63744D01*
X-12256Y-65159D01*
X-13023Y-67009D01*
Y-69010D01*
X-12256Y-70860D01*
X-11228Y-71889D01*
X-11291Y-72206D01*
X-12706Y-73622D01*
X-13472Y-75471D01*
Y-77473D01*
X-12706Y-79323D01*
X-11291Y-80738D01*
X-9441Y-81504D01*
X-7439D01*
X-5590Y-80738D01*
X-5207Y-80355D01*
X-4266Y-81150D01*
X-5032Y-82999D01*
Y-85001D01*
X-4266Y-86850D01*
X-2850Y-88266D01*
X-1001Y-89032D01*
X1001D01*
X1493Y-88828D01*
X2465Y-89800D01*
X1968Y-90999D01*
Y-93001D01*
X2734Y-94850D01*
X4150Y-96266D01*
X5999Y-97032D01*
X8001D01*
X8669Y-96755D01*
X9939Y-97604D01*
Y-98917D01*
X-72Y-108928D01*
X-1212Y-110413D01*
X-1929Y-112143D01*
X-2173Y-114000D01*
X-1929Y-115857D01*
X-1212Y-117587D01*
X-72Y-119072D01*
X1413Y-120212D01*
X3143Y-120929D01*
X5000Y-121173D01*
X6857Y-120929D01*
X8587Y-120212D01*
X10072Y-119072D01*
X22184Y-106960D01*
X23324Y-105475D01*
X23621Y-104758D01*
X24041Y-103745D01*
X24107Y-103241D01*
X25411Y-103070D01*
X25734Y-103850D01*
X27150Y-105266D01*
X28999Y-106032D01*
X31001D01*
X32850Y-105266D01*
X34266Y-103850D01*
X35032Y-102001D01*
Y-99999D01*
X34266Y-98150D01*
X32850Y-96734D01*
X31001Y-95968D01*
X28999D01*
X28954Y-95987D01*
X28235Y-94910D01*
X39971Y-83173D01*
X68000D01*
X69857Y-82929D01*
X71587Y-82212D01*
X73072Y-81072D01*
X92072Y-62072D01*
X93212Y-60587D01*
X93929Y-58857D01*
X94050Y-57940D01*
X95391Y-57485D01*
X96015Y-58109D01*
X97234Y-58614D01*
X97104Y-59707D01*
X97032Y-59905D01*
X95234Y-60650D01*
X93818Y-62066D01*
X93052Y-63915D01*
Y-65917D01*
X93818Y-67766D01*
X95234Y-69182D01*
X97083Y-69948D01*
X99085D01*
X100934Y-69182D01*
X102350Y-67766D01*
X103116Y-65917D01*
Y-63915D01*
X102350Y-62066D01*
X100934Y-60650D01*
X99716Y-60145D01*
X99845Y-59052D01*
X99917Y-58854D01*
X101716Y-58109D01*
X103131Y-56694D01*
X103897Y-54844D01*
Y-52842D01*
X103131Y-50993D01*
X101716Y-49577D01*
X99866Y-48811D01*
X97864D01*
X96610Y-49331D01*
X95891Y-48254D01*
X122072Y-22072D01*
X123212Y-20587D01*
X123929Y-18857D01*
X124173Y-17000D01*
Y89650D01*
X126072Y91549D01*
X127212Y93034D01*
X127929Y94764D01*
X128173Y96621D01*
Y125000D01*
X127929Y126857D01*
X127212Y128587D01*
X126072Y130072D01*
X124587Y131212D01*
X122857Y131929D01*
X121000Y132173D01*
D02*
G37*
G36*
X-8128Y40432D02*
X-22192D01*
Y39504D01*
X-22558Y39352D01*
X-23462Y39096D01*
X-24946Y39953D01*
X-26734Y40432D01*
X-28586D01*
X-30374Y39953D01*
X-31978Y39027D01*
X-33287Y37718D01*
X-34213Y36114D01*
X-34692Y34326D01*
Y32474D01*
X-34213Y30686D01*
X-33287Y29082D01*
X-31978Y27773D01*
X-30374Y26847D01*
X-28586Y26368D01*
X-26734D01*
X-24946Y26847D01*
X-23462Y27704D01*
X-22558Y27448D01*
X-22192Y27297D01*
Y26368D01*
X-8128D01*
Y40432D01*
D02*
G37*
G36*
X50001Y47032D02*
X47999D01*
X46150Y46266D01*
X44734Y44850D01*
X43968Y43001D01*
Y40999D01*
X44734Y39150D01*
X46150Y37734D01*
X47999Y36968D01*
X50001D01*
X51850Y37734D01*
X53266Y39150D01*
X54032Y40999D01*
Y43001D01*
X53266Y44850D01*
X51850Y46266D01*
X50001Y47032D01*
D02*
G37*
G36*
X-48999Y50032D02*
X-51001D01*
X-52850Y49266D01*
X-54266Y47850D01*
X-55032Y46001D01*
Y43999D01*
X-54266Y42150D01*
X-52850Y40734D01*
X-51001Y39968D01*
X-48999D01*
X-47150Y40734D01*
X-46668Y41216D01*
X-45266Y41150D01*
X-44322Y40205D01*
X-44635Y38789D01*
X-45898Y38266D01*
X-47314Y36850D01*
X-48499Y37308D01*
X-50016Y37936D01*
X-52018D01*
X-53868Y37170D01*
X-55283Y35754D01*
X-55795Y34519D01*
X-57166Y34527D01*
X-57734Y35898D01*
X-59150Y37314D01*
X-60999Y38080D01*
X-63001D01*
X-64850Y37314D01*
X-66266Y35898D01*
X-67032Y34049D01*
Y32047D01*
X-67147Y31875D01*
X-68158D01*
X-70008Y31109D01*
X-71423Y29693D01*
X-72189Y27843D01*
Y25842D01*
X-71423Y23992D01*
X-70008Y22577D01*
X-68158Y21811D01*
X-66157D01*
X-64761Y22388D01*
X-64266Y22128D01*
X-63642Y21600D01*
X-63632Y21586D01*
Y19794D01*
X-62866Y17944D01*
X-61451Y16529D01*
X-60359Y16077D01*
X-59475Y14891D01*
Y12889D01*
X-58709Y11040D01*
X-57294Y9624D01*
X-55444Y8858D01*
X-53443D01*
X-51593Y9624D01*
X-50177Y11040D01*
X-49411Y12889D01*
Y14891D01*
X-50177Y16741D01*
X-51593Y18156D01*
X-52685Y18608D01*
X-53568Y19794D01*
Y21795D01*
X-54335Y23645D01*
X-55750Y25061D01*
X-57600Y25827D01*
X-59601D01*
X-60996Y25249D01*
X-61492Y25509D01*
X-62116Y26037D01*
X-62125Y26051D01*
Y27843D01*
X-62010Y28016D01*
X-60999D01*
X-59150Y28782D01*
X-57734Y30198D01*
X-57222Y31433D01*
X-55851Y31425D01*
X-55283Y30054D01*
X-53868Y28638D01*
X-52018Y27872D01*
X-50016D01*
X-48167Y28638D01*
X-46751Y30054D01*
X-45566Y29596D01*
X-44049Y28968D01*
X-42047D01*
X-40198Y29734D01*
X-38782Y31150D01*
X-38016Y32999D01*
Y35001D01*
X-38782Y36850D01*
X-39726Y37795D01*
X-39413Y39211D01*
X-38150Y39734D01*
X-36734Y41150D01*
X-35968Y42999D01*
Y45001D01*
X-36734Y46850D01*
X-38150Y48266D01*
X-39999Y49032D01*
X-42001D01*
X-43850Y48266D01*
X-44332Y47784D01*
X-45734Y47850D01*
X-47150Y49266D01*
X-48999Y50032D01*
D02*
G37*
G36*
X-97380Y46032D02*
X-99382D01*
X-101232Y45266D01*
X-102647Y43850D01*
X-103413Y42001D01*
Y39999D01*
X-102647Y38150D01*
X-101232Y36734D01*
X-99382Y35968D01*
X-97380D01*
X-95531Y36734D01*
X-94115Y38150D01*
X-93349Y39999D01*
Y42001D01*
X-94115Y43850D01*
X-95531Y45266D01*
X-97380Y46032D01*
D02*
G37*
G36*
X83001Y44032D02*
X80999D01*
X79150Y43266D01*
X77734Y41850D01*
X76968Y40001D01*
Y37999D01*
X77734Y36150D01*
X79150Y34734D01*
X80999Y33968D01*
X83001D01*
X84850Y34734D01*
X86266Y36150D01*
X87032Y37999D01*
Y40001D01*
X86266Y41850D01*
X84850Y43266D01*
X83001Y44032D01*
D02*
G37*
G36*
X-176999D02*
X-179001D01*
X-180850Y43266D01*
X-182266Y41850D01*
X-183032Y40001D01*
Y37999D01*
X-182266Y36150D01*
X-180850Y34734D01*
X-179001Y33968D01*
X-176999D01*
X-175150Y34734D01*
X-173734Y36150D01*
X-172968Y37999D01*
Y40001D01*
X-173734Y41850D01*
X-175150Y43266D01*
X-176999Y44032D01*
D02*
G37*
G36*
X-227999Y43032D02*
X-230001D01*
X-231850Y42266D01*
X-233266Y40850D01*
X-234032Y39001D01*
Y36999D01*
X-233266Y35150D01*
X-231850Y33734D01*
X-230001Y32968D01*
X-227999D01*
X-226150Y33734D01*
X-224734Y35150D01*
X-223968Y36999D01*
Y39001D01*
X-224734Y40850D01*
X-226150Y42266D01*
X-227999Y43032D01*
D02*
G37*
G36*
X-83999Y34032D02*
X-86001D01*
X-87850Y33266D01*
X-89266Y31850D01*
X-89365Y31611D01*
X-90635D01*
X-90734Y31850D01*
X-92150Y33266D01*
X-93999Y34032D01*
X-96001D01*
X-97850Y33266D01*
X-99266Y31850D01*
X-100032Y30001D01*
Y27999D01*
X-99266Y26150D01*
X-97850Y24734D01*
X-96001Y23968D01*
X-93999D01*
X-92150Y24734D01*
X-90734Y26150D01*
X-90635Y26389D01*
X-89365D01*
X-89266Y26150D01*
X-87850Y24734D01*
X-86001Y23968D01*
X-83999D01*
X-82150Y24734D01*
X-80734Y26150D01*
X-79968Y27999D01*
Y30001D01*
X-80734Y31850D01*
X-82150Y33266D01*
X-83999Y34032D01*
D02*
G37*
G36*
X189926Y45032D02*
X188074D01*
X186286Y44553D01*
X184682Y43627D01*
X183373Y42318D01*
X182447Y40714D01*
X181968Y38926D01*
Y37074D01*
X182447Y35286D01*
X183373Y33682D01*
X184682Y32373D01*
X186286Y31447D01*
X188074Y30968D01*
X189926D01*
X191714Y31447D01*
X193318Y32373D01*
X194627Y33682D01*
X195553Y35286D01*
X196032Y37074D01*
Y38926D01*
X195553Y40714D01*
X194627Y42318D01*
X193318Y43627D01*
X191714Y44553D01*
X189926Y45032D01*
D02*
G37*
G36*
X89001Y34032D02*
X86999D01*
X85150Y33266D01*
X83734Y31850D01*
X82968Y30001D01*
Y27999D01*
X83734Y26150D01*
X85150Y24734D01*
X86999Y23968D01*
X89001D01*
X90850Y24734D01*
X92266Y26150D01*
X93032Y27999D01*
Y30001D01*
X92266Y31850D01*
X90850Y33266D01*
X89001Y34032D01*
D02*
G37*
G36*
X-207999D02*
X-210001D01*
X-211850Y33266D01*
X-213266Y31850D01*
X-214032Y30001D01*
Y27999D01*
X-213266Y26150D01*
X-211850Y24734D01*
X-210001Y23968D01*
X-207999D01*
X-206150Y24734D01*
X-204734Y26150D01*
X-203968Y27999D01*
Y30001D01*
X-204734Y31850D01*
X-206150Y33266D01*
X-207999Y34032D01*
D02*
G37*
G36*
X-148999Y29032D02*
X-151001D01*
X-152850Y28266D01*
X-154266Y26850D01*
X-155032Y25001D01*
Y22999D01*
X-154266Y21150D01*
X-152850Y19734D01*
X-151001Y18968D01*
X-148999D01*
X-147150Y19734D01*
X-145734Y21150D01*
X-144968Y22999D01*
Y25001D01*
X-145734Y26850D01*
X-147150Y28266D01*
X-148999Y29032D01*
D02*
G37*
G36*
X194001Y20032D02*
X191999D01*
X190150Y19266D01*
X188734Y17850D01*
X187968Y16001D01*
Y13999D01*
X188734Y12150D01*
X190150Y10734D01*
X191999Y9968D01*
X194001D01*
X195850Y10734D01*
X197266Y12150D01*
X198032Y13999D01*
Y16001D01*
X197266Y17850D01*
X195850Y19266D01*
X194001Y20032D01*
D02*
G37*
G36*
X3001Y22032D02*
X999D01*
X-850Y21266D01*
X-2266Y19850D01*
X-3032Y18001D01*
Y15999D01*
X-2266Y14150D01*
X-850Y12734D01*
X193Y12302D01*
X15Y11138D01*
X-30Y11020D01*
X-1850Y10266D01*
X-3266Y8850D01*
X-3337Y8678D01*
X-4583Y8431D01*
X-5015Y8863D01*
X-6865Y9629D01*
X-8867D01*
X-10716Y8863D01*
X-12132Y7448D01*
X-12898Y5598D01*
Y3596D01*
X-12132Y1747D01*
X-10716Y331D01*
X-8867Y-435D01*
X-6865D01*
X-5015Y331D01*
X-3600Y1747D01*
X-3529Y1919D01*
X-2283Y2167D01*
X-1850Y1734D01*
X-1Y968D01*
X2001D01*
X3850Y1734D01*
X5266Y3150D01*
X6032Y4999D01*
Y7001D01*
X5266Y8850D01*
X3850Y10266D01*
X2807Y10698D01*
X2985Y11861D01*
X3030Y11980D01*
X4850Y12734D01*
X6266Y14150D01*
X7032Y15999D01*
Y18001D01*
X6266Y19850D01*
X4850Y21266D01*
X3001Y22032D01*
D02*
G37*
G36*
X-70000Y17033D02*
X-72002D01*
X-73851Y16267D01*
X-75267Y14851D01*
X-76033Y13002D01*
Y11000D01*
X-75267Y9150D01*
X-73851Y7735D01*
X-72002Y6969D01*
X-70000D01*
X-68150Y7735D01*
X-66735Y9150D01*
X-65969Y11000D01*
Y13002D01*
X-66735Y14851D01*
X-68150Y16267D01*
X-70000Y17033D01*
D02*
G37*
G36*
X-96999Y12984D02*
X-99001D01*
X-100850Y12218D01*
X-102266Y10802D01*
X-103032Y8953D01*
Y6951D01*
X-102266Y5102D01*
X-100850Y3686D01*
X-99001Y2920D01*
X-96999D01*
X-95150Y3686D01*
X-93734Y5102D01*
X-92968Y6951D01*
Y8953D01*
X-93734Y10802D01*
X-95150Y12218D01*
X-96999Y12984D01*
D02*
G37*
G36*
X-30439Y-6302D02*
X-32561D01*
X-34520Y-7114D01*
X-36020Y-8614D01*
X-36313Y-9320D01*
X-37687D01*
X-37980Y-8614D01*
X-39480Y-7114D01*
X-41439Y-6302D01*
X-43561D01*
X-45520Y-7114D01*
X-47020Y-8614D01*
X-47313Y-9320D01*
X-48687D01*
X-48980Y-8614D01*
X-50480Y-7114D01*
X-52439Y-6302D01*
X-54561D01*
X-56520Y-7114D01*
X-58020Y-8614D01*
X-58832Y-10574D01*
Y-12695D01*
X-58020Y-14655D01*
X-56520Y-16154D01*
X-55814Y-16447D01*
Y-17822D01*
X-56520Y-18114D01*
X-58020Y-19614D01*
X-58313Y-20320D01*
X-59687D01*
X-59980Y-19614D01*
X-61480Y-18114D01*
X-63439Y-17302D01*
X-65561D01*
X-67520Y-18114D01*
X-69020Y-19614D01*
X-69832Y-21574D01*
Y-23695D01*
X-69020Y-25654D01*
X-67520Y-27154D01*
X-66814Y-27447D01*
Y-28821D01*
X-67520Y-29114D01*
X-69020Y-30614D01*
X-69832Y-32574D01*
Y-34695D01*
X-69020Y-36655D01*
X-67520Y-38154D01*
X-66814Y-38447D01*
Y-39822D01*
X-67520Y-40114D01*
X-69020Y-41614D01*
X-69832Y-43574D01*
Y-45695D01*
X-69020Y-47655D01*
X-67520Y-49154D01*
X-65561Y-49966D01*
X-63439D01*
X-61480Y-49154D01*
X-59980Y-47655D01*
X-59687Y-46948D01*
X-58313D01*
X-58020Y-47655D01*
X-56520Y-49154D01*
X-55814Y-49447D01*
Y-50821D01*
X-56520Y-51114D01*
X-58020Y-52614D01*
X-58832Y-54574D01*
Y-56695D01*
X-58020Y-58654D01*
X-56520Y-60154D01*
X-54561Y-60966D01*
X-52439D01*
X-50480Y-60154D01*
X-48980Y-58654D01*
X-48687Y-57949D01*
X-47313D01*
X-47020Y-58654D01*
X-45520Y-60154D01*
X-43561Y-60966D01*
X-41439D01*
X-39480Y-60154D01*
X-37980Y-58654D01*
X-37687Y-57949D01*
X-36313D01*
X-36020Y-58654D01*
X-34520Y-60154D01*
X-32561Y-60966D01*
X-30439D01*
X-28480Y-60154D01*
X-26980Y-58654D01*
X-26168Y-56695D01*
Y-54574D01*
X-26980Y-52614D01*
X-28480Y-51114D01*
X-29186Y-50821D01*
Y-49447D01*
X-28480Y-49154D01*
X-26980Y-47655D01*
X-26687Y-46948D01*
X-25313D01*
X-25020Y-47655D01*
X-23520Y-49154D01*
X-21561Y-49966D01*
X-19439D01*
X-17480Y-49154D01*
X-15980Y-47655D01*
X-15168Y-45695D01*
Y-43574D01*
X-15980Y-41614D01*
X-17480Y-40114D01*
X-18186Y-39822D01*
Y-38447D01*
X-17480Y-38154D01*
X-15980Y-36655D01*
X-15168Y-34695D01*
Y-32574D01*
X-15980Y-30614D01*
X-17480Y-29114D01*
X-18186Y-28821D01*
Y-27447D01*
X-17480Y-27154D01*
X-15980Y-25654D01*
X-15168Y-23695D01*
Y-21574D01*
X-15980Y-19614D01*
X-17480Y-18114D01*
X-19439Y-17302D01*
X-21561D01*
X-23520Y-18114D01*
X-25020Y-19614D01*
X-25313Y-20320D01*
X-26687D01*
X-26980Y-19614D01*
X-28480Y-18114D01*
X-29186Y-17822D01*
Y-16447D01*
X-28480Y-16154D01*
X-26980Y-14655D01*
X-26168Y-12695D01*
Y-10574D01*
X-26980Y-8614D01*
X-28480Y-7114D01*
X-30439Y-6302D01*
D02*
G37*
G36*
X-87999Y-1968D02*
X-90001D01*
X-91850Y-2734D01*
X-93266Y-4150D01*
X-94032Y-5999D01*
Y-8001D01*
X-93266Y-9850D01*
X-92430Y-10687D01*
X-91966Y-11481D01*
X-92430Y-12346D01*
X-93233Y-13150D01*
X-93999Y-14999D01*
Y-17001D01*
X-93233Y-18850D01*
X-91818Y-20266D01*
X-89968Y-21032D01*
X-87966D01*
X-86117Y-20266D01*
X-84701Y-18850D01*
X-83935Y-17001D01*
Y-14999D01*
X-84701Y-13150D01*
X-85538Y-12313D01*
X-86002Y-11519D01*
X-85538Y-10654D01*
X-84734Y-9850D01*
X-83968Y-8001D01*
Y-5999D01*
X-84734Y-4150D01*
X-86150Y-2734D01*
X-87999Y-1968D01*
D02*
G37*
G36*
X-131999Y-11968D02*
X-134001D01*
X-135850Y-12734D01*
X-137266Y-14150D01*
X-138032Y-15999D01*
Y-18001D01*
X-137266Y-19850D01*
X-135850Y-21266D01*
X-134001Y-22032D01*
X-131999D01*
X-130150Y-21266D01*
X-128734Y-19850D01*
X-127968Y-18001D01*
Y-15999D01*
X-128734Y-14150D01*
X-130150Y-12734D01*
X-131999Y-11968D01*
D02*
G37*
G36*
X143001Y-16968D02*
X140999D01*
X139150Y-17734D01*
X137734Y-19150D01*
X136968Y-20999D01*
Y-23001D01*
X137734Y-24850D01*
X139150Y-26266D01*
X140999Y-27032D01*
X143001D01*
X144850Y-26266D01*
X146266Y-24850D01*
X147032Y-23001D01*
Y-20999D01*
X146266Y-19150D01*
X144850Y-17734D01*
X143001Y-16968D01*
D02*
G37*
G36*
X-182999Y-17968D02*
X-185001D01*
X-186850Y-18734D01*
X-188266Y-20150D01*
X-189032Y-21999D01*
Y-24001D01*
X-188266Y-25850D01*
X-186850Y-27266D01*
X-185001Y-28032D01*
X-182999D01*
X-181150Y-27266D01*
X-179734Y-25850D01*
X-178968Y-24001D01*
Y-21999D01*
X-179734Y-20150D01*
X-181150Y-18734D01*
X-182999Y-17968D01*
D02*
G37*
G36*
X-163999Y-18968D02*
X-166001D01*
X-167850Y-19734D01*
X-169266Y-21150D01*
X-170032Y-22999D01*
Y-25001D01*
X-169266Y-26850D01*
X-167850Y-28266D01*
X-166001Y-29032D01*
X-163999D01*
X-162150Y-28266D01*
X-160734Y-26850D01*
X-159968Y-25001D01*
Y-22999D01*
X-160734Y-21150D01*
X-162150Y-19734D01*
X-163999Y-18968D01*
D02*
G37*
G36*
X163001Y-20969D02*
X160999D01*
X159150Y-21735D01*
X157734Y-23150D01*
X156968Y-25000D01*
Y-27002D01*
X157734Y-28851D01*
X159150Y-30267D01*
X160999Y-31033D01*
X163001D01*
X164850Y-30267D01*
X166266Y-28851D01*
X167032Y-27002D01*
Y-25000D01*
X166266Y-23150D01*
X164850Y-21735D01*
X163001Y-20969D01*
D02*
G37*
G36*
X63001Y-24904D02*
X60999D01*
X59150Y-25670D01*
X57734Y-27086D01*
X56968Y-28935D01*
Y-30937D01*
X57734Y-32786D01*
X59150Y-34202D01*
X60999Y-34968D01*
X63001D01*
X64850Y-34202D01*
X66266Y-32786D01*
X67032Y-30937D01*
Y-28935D01*
X66266Y-27086D01*
X64850Y-25670D01*
X63001Y-24904D01*
D02*
G37*
G36*
X143001Y-32968D02*
X140999D01*
X139150Y-33734D01*
X137734Y-35150D01*
X137480Y-35763D01*
X137055Y-35898D01*
X136039Y-35923D01*
X134850Y-34734D01*
X133001Y-33968D01*
X130999D01*
X129150Y-34734D01*
X127734Y-36150D01*
X126968Y-37999D01*
Y-40001D01*
X127734Y-41850D01*
X129150Y-43266D01*
X130999Y-44032D01*
X133001D01*
X134850Y-43266D01*
X136266Y-41850D01*
X136520Y-41238D01*
X136945Y-41102D01*
X137961Y-41077D01*
X139150Y-42266D01*
X140999Y-43032D01*
X143001D01*
X144850Y-42266D01*
X146266Y-40850D01*
X147032Y-39001D01*
Y-36999D01*
X146266Y-35150D01*
X144850Y-33734D01*
X143001Y-32968D01*
D02*
G37*
G36*
X76903Y-28311D02*
X74901D01*
X73052Y-29077D01*
X71636Y-30492D01*
X70870Y-32342D01*
Y-34344D01*
X71636Y-36193D01*
X73052Y-37609D01*
X74901Y-38375D01*
X76903D01*
X78752Y-37609D01*
X80168Y-36193D01*
X80934Y-34344D01*
Y-32342D01*
X80168Y-30492D01*
X78752Y-29077D01*
X76903Y-28311D01*
D02*
G37*
G36*
X-132998Y-31967D02*
X-135000D01*
X-136850Y-32733D01*
X-138265Y-34149D01*
X-139031Y-35998D01*
Y-38000D01*
X-138265Y-39850D01*
X-136850Y-41265D01*
X-135000Y-42031D01*
X-132998D01*
X-131149Y-41265D01*
X-129733Y-39850D01*
X-128967Y-38000D01*
Y-35998D01*
X-129733Y-34149D01*
X-131149Y-32733D01*
X-132998Y-31967D01*
D02*
G37*
G36*
X226891Y-33967D02*
X224889D01*
X223040Y-34733D01*
X221624Y-36149D01*
X220858Y-37998D01*
Y-40000D01*
X221624Y-41850D01*
X223040Y-43265D01*
X224889Y-44031D01*
X226891D01*
X228740Y-43265D01*
X230156Y-41850D01*
X230922Y-40000D01*
Y-37998D01*
X230156Y-36149D01*
X228740Y-34733D01*
X226891Y-33967D01*
D02*
G37*
G36*
X-175499Y-34718D02*
X-177501D01*
X-179350Y-35484D01*
X-180766Y-36900D01*
X-181532Y-38749D01*
Y-40751D01*
X-180766Y-42600D01*
X-179350Y-44016D01*
X-177501Y-44782D01*
X-175499D01*
X-173650Y-44016D01*
X-172234Y-42600D01*
X-171468Y-40751D01*
Y-38749D01*
X-172234Y-36900D01*
X-173650Y-35484D01*
X-175499Y-34718D01*
D02*
G37*
G36*
X209001Y-34968D02*
X206999D01*
X205150Y-35734D01*
X203734Y-37150D01*
X202968Y-38999D01*
Y-41001D01*
X203734Y-42850D01*
X205150Y-44266D01*
X206999Y-45032D01*
X209001D01*
X210850Y-44266D01*
X212266Y-42850D01*
X213032Y-41001D01*
Y-38999D01*
X212266Y-37150D01*
X210850Y-35734D01*
X209001Y-34968D01*
D02*
G37*
G36*
X19001Y-45935D02*
X16999D01*
X15150Y-46701D01*
X13734Y-48117D01*
X13509Y-48661D01*
X12902Y-48782D01*
X11052Y-48016D01*
X9050D01*
X7201Y-48782D01*
X5785Y-50198D01*
X5019Y-52047D01*
Y-54049D01*
X5785Y-55898D01*
X6138Y-56251D01*
X6015Y-56868D01*
X4600Y-58284D01*
X3834Y-60133D01*
Y-62135D01*
X4600Y-63985D01*
X6015Y-65400D01*
X7865Y-66166D01*
X9867D01*
X11716Y-65400D01*
X13132Y-63985D01*
X13898Y-62135D01*
Y-60133D01*
X13132Y-58284D01*
X12779Y-57931D01*
X12902Y-57314D01*
X14317Y-55898D01*
X14543Y-55354D01*
X15150Y-55233D01*
X16999Y-55999D01*
X19001D01*
X20850Y-55233D01*
X22266Y-53818D01*
X23032Y-51968D01*
Y-49966D01*
X22266Y-48117D01*
X20850Y-46701D01*
X19001Y-45935D01*
D02*
G37*
G36*
X-212074Y-35968D02*
X-213926D01*
X-215714Y-36447D01*
X-217318Y-37373D01*
X-218627Y-38682D01*
X-219553Y-40286D01*
X-220032Y-42074D01*
Y-43926D01*
X-219553Y-45714D01*
X-218627Y-47318D01*
X-217318Y-48627D01*
X-215714Y-49553D01*
X-213926Y-50032D01*
X-212074D01*
X-210286Y-49553D01*
X-208682Y-48627D01*
X-207373Y-47318D01*
X-206447Y-45714D01*
X-205968Y-43926D01*
Y-42074D01*
X-206447Y-40286D01*
X-207373Y-38682D01*
X-208682Y-37373D01*
X-210286Y-36447D01*
X-212074Y-35968D01*
D02*
G37*
G36*
X115001Y-50968D02*
X112999D01*
X111150Y-51734D01*
X109734Y-53150D01*
X108968Y-54999D01*
Y-57001D01*
X109734Y-58850D01*
X111150Y-60266D01*
X112999Y-61032D01*
X115001D01*
X116850Y-60266D01*
X118266Y-58850D01*
X119032Y-57001D01*
Y-54999D01*
X118266Y-53150D01*
X116850Y-51734D01*
X115001Y-50968D01*
D02*
G37*
G36*
X237101Y-57968D02*
X235099D01*
X233250Y-58734D01*
X231834Y-60150D01*
X231068Y-61999D01*
Y-64001D01*
X231834Y-65850D01*
X233250Y-67266D01*
X235099Y-68032D01*
X237101D01*
X238950Y-67266D01*
X240366Y-65850D01*
X241132Y-64001D01*
Y-61999D01*
X240366Y-60150D01*
X238950Y-58734D01*
X237101Y-57968D01*
D02*
G37*
G36*
X-229500Y-59469D02*
X-231502D01*
X-233351Y-60235D01*
X-234767Y-61650D01*
X-235533Y-63500D01*
Y-65502D01*
X-234767Y-67351D01*
X-233351Y-68767D01*
X-231502Y-69533D01*
X-229500D01*
X-227650Y-68767D01*
X-226235Y-67351D01*
X-225469Y-65502D01*
Y-63500D01*
X-226235Y-61650D01*
X-227650Y-60235D01*
X-229500Y-59469D01*
D02*
G37*
G36*
X-25999Y-72968D02*
X-28001D01*
X-29850Y-73734D01*
X-31266Y-75150D01*
X-31884Y-75273D01*
X-32844Y-74313D01*
X-34693Y-73547D01*
X-36695D01*
X-38545Y-74313D01*
X-39960Y-75729D01*
X-40726Y-77578D01*
Y-79580D01*
X-39960Y-81429D01*
X-38545Y-82845D01*
X-36695Y-83611D01*
X-34693D01*
X-32844Y-82845D01*
X-31428Y-81429D01*
X-30810Y-81306D01*
X-29850Y-82266D01*
X-28001Y-83032D01*
X-25999D01*
X-24150Y-82266D01*
X-22734Y-80850D01*
X-21968Y-79001D01*
Y-76999D01*
X-22734Y-75150D01*
X-24150Y-73734D01*
X-25999Y-72968D01*
D02*
G37*
G36*
X-132999Y-69968D02*
X-135001D01*
X-136850Y-70734D01*
X-138266Y-72150D01*
X-139032Y-73999D01*
Y-76001D01*
X-138266Y-77850D01*
X-136850Y-79266D01*
X-135001Y-80032D01*
X-132999D01*
X-131150Y-79266D01*
X-129734Y-77850D01*
X-128968Y-76001D01*
Y-73999D01*
X-129734Y-72150D01*
X-131150Y-70734D01*
X-132999Y-69968D01*
D02*
G37*
G36*
X-196000Y-70969D02*
X-198002D01*
X-199851Y-71735D01*
X-201267Y-73150D01*
X-202033Y-75000D01*
Y-77002D01*
X-201267Y-78851D01*
X-199851Y-80267D01*
X-198002Y-81033D01*
X-196000D01*
X-194150Y-80267D01*
X-192735Y-78851D01*
X-191969Y-77002D01*
Y-75000D01*
X-192735Y-73150D01*
X-194150Y-71735D01*
X-196000Y-70969D01*
D02*
G37*
G36*
X-71999Y-80968D02*
X-74001D01*
X-75850Y-81734D01*
X-77266Y-83150D01*
X-77463Y-83625D01*
X-78961Y-83923D01*
X-79650Y-83234D01*
X-81499Y-82468D01*
X-83501D01*
X-85350Y-83234D01*
X-86766Y-84650D01*
X-87532Y-86499D01*
Y-88501D01*
X-86766Y-90350D01*
X-85350Y-91766D01*
X-83501Y-92532D01*
X-81499D01*
X-79650Y-91766D01*
X-78234Y-90350D01*
X-78037Y-89875D01*
X-76539Y-89577D01*
X-75850Y-90266D01*
X-74001Y-91032D01*
X-71999D01*
X-70150Y-90266D01*
X-68734Y-88850D01*
X-67968Y-87001D01*
Y-84999D01*
X-68734Y-83150D01*
X-70150Y-81734D01*
X-71999Y-80968D01*
D02*
G37*
G36*
X87001Y-77968D02*
X84999D01*
X83150Y-78734D01*
X81734Y-80150D01*
X80968Y-81999D01*
Y-84001D01*
X81734Y-85850D01*
X83150Y-87266D01*
X84999Y-88032D01*
X87001D01*
X88850Y-87266D01*
X90266Y-85850D01*
X91032Y-84001D01*
Y-81999D01*
X90266Y-80150D01*
X88850Y-78734D01*
X87001Y-77968D01*
D02*
G37*
G36*
X118001Y-80968D02*
X115999D01*
X114150Y-81734D01*
X112734Y-83150D01*
X111968Y-84999D01*
Y-87001D01*
X112734Y-88850D01*
X114150Y-90266D01*
X115999Y-91032D01*
X118001D01*
X119850Y-90266D01*
X121266Y-88850D01*
X122032Y-87001D01*
Y-84999D01*
X121266Y-83150D01*
X119850Y-81734D01*
X118001Y-80968D01*
D02*
G37*
G36*
X-117999Y-83968D02*
X-120001D01*
X-121850Y-84734D01*
X-123266Y-86150D01*
X-124032Y-87999D01*
Y-90001D01*
X-123266Y-91850D01*
X-121850Y-93266D01*
X-120001Y-94032D01*
X-117999D01*
X-116150Y-93266D01*
X-114734Y-91850D01*
X-113968Y-90001D01*
Y-87999D01*
X-114734Y-86150D01*
X-116150Y-84734D01*
X-117999Y-83968D01*
D02*
G37*
G36*
X-10000Y-84969D02*
X-12002D01*
X-13851Y-85735D01*
X-15267Y-87150D01*
X-16033Y-89000D01*
Y-91002D01*
X-15267Y-92851D01*
X-13851Y-94267D01*
X-12002Y-95033D01*
X-10000D01*
X-8151Y-94267D01*
X-6735Y-92851D01*
X-5969Y-91002D01*
Y-89000D01*
X-6735Y-87150D01*
X-8151Y-85735D01*
X-10000Y-84969D01*
D02*
G37*
G36*
X164001Y-90968D02*
X161999D01*
X160150Y-91734D01*
X158734Y-93150D01*
X157968Y-94999D01*
Y-97001D01*
X158734Y-98850D01*
X160150Y-100266D01*
X161999Y-101032D01*
X164001D01*
X165850Y-100266D01*
X167266Y-98850D01*
X168032Y-97001D01*
Y-94999D01*
X167266Y-93150D01*
X165850Y-91734D01*
X164001Y-90968D01*
D02*
G37*
G36*
X-91999Y-92968D02*
X-94001D01*
X-95850Y-93734D01*
X-97266Y-95150D01*
X-98032Y-96999D01*
Y-99001D01*
X-97266Y-100850D01*
X-95850Y-102266D01*
X-94001Y-103032D01*
X-91999D01*
X-90150Y-102266D01*
X-88734Y-100850D01*
X-87968Y-99001D01*
Y-96999D01*
X-88734Y-95150D01*
X-90150Y-93734D01*
X-91999Y-92968D01*
D02*
G37*
G36*
X43000Y-90967D02*
X40998D01*
X39149Y-91733D01*
X37733Y-93149D01*
X36967Y-94998D01*
Y-97000D01*
X37733Y-98850D01*
X39149Y-100265D01*
X40998Y-101031D01*
X43000D01*
X43698Y-100742D01*
X44968Y-101591D01*
Y-102001D01*
X45734Y-103850D01*
X47150Y-105266D01*
X48999Y-106032D01*
X51001D01*
X52850Y-105266D01*
X54266Y-103850D01*
X55032Y-102001D01*
Y-99999D01*
X54266Y-98150D01*
X52850Y-96734D01*
X51001Y-95968D01*
X48999D01*
X48301Y-96257D01*
X47031Y-95408D01*
Y-94998D01*
X46265Y-93149D01*
X44850Y-91733D01*
X43000Y-90967D01*
D02*
G37*
G36*
X144000Y-97969D02*
X141998D01*
X140149Y-98735D01*
X138733Y-100150D01*
X137967Y-102000D01*
Y-104002D01*
X138733Y-105851D01*
X140149Y-107267D01*
X141998Y-108033D01*
X144000D01*
X145850Y-107267D01*
X147265Y-105851D01*
X148031Y-104002D01*
Y-102000D01*
X147265Y-100150D01*
X145850Y-98735D01*
X144000Y-97969D01*
D02*
G37*
G36*
X98334Y-102922D02*
X96332D01*
X94482Y-103688D01*
X93067Y-105103D01*
X92301Y-106953D01*
Y-108954D01*
X93067Y-110804D01*
X94482Y-112219D01*
X96332Y-112985D01*
X98334D01*
X100183Y-112219D01*
X101599Y-110804D01*
X102365Y-108954D01*
Y-106953D01*
X101599Y-105103D01*
X100183Y-103688D01*
X98334Y-102922D01*
D02*
G37*
G36*
X-10000Y-103969D02*
X-12002D01*
X-13851Y-104735D01*
X-15267Y-106150D01*
X-16033Y-108000D01*
Y-110002D01*
X-15267Y-111851D01*
X-13851Y-113267D01*
X-12002Y-114033D01*
X-10000D01*
X-8151Y-113267D01*
X-6735Y-111851D01*
X-5969Y-110002D01*
Y-108000D01*
X-6735Y-106150D01*
X-8151Y-104735D01*
X-10000Y-103969D01*
D02*
G37*
G36*
X-75999Y-104968D02*
X-78001D01*
X-79850Y-105734D01*
X-81266Y-107150D01*
X-82032Y-108999D01*
Y-111001D01*
X-81266Y-112850D01*
X-79850Y-114266D01*
X-78001Y-115032D01*
X-75999D01*
X-74150Y-114266D01*
X-72734Y-112850D01*
X-71968Y-111001D01*
Y-108999D01*
X-72734Y-107150D01*
X-74150Y-105734D01*
X-75999Y-104968D01*
D02*
G37*
G36*
X-175499Y-105218D02*
X-177501D01*
X-179350Y-105984D01*
X-180766Y-107400D01*
X-181532Y-109249D01*
Y-111251D01*
X-180766Y-113100D01*
X-179350Y-114516D01*
X-177501Y-115282D01*
X-175499D01*
X-173650Y-114516D01*
X-172234Y-113100D01*
X-171468Y-111251D01*
Y-109249D01*
X-172234Y-107400D01*
X-173650Y-105984D01*
X-175499Y-105218D01*
D02*
G37*
G36*
X-229999Y-109968D02*
X-232001D01*
X-233850Y-110734D01*
X-235266Y-112150D01*
X-236032Y-113999D01*
Y-116001D01*
X-235266Y-117850D01*
X-233850Y-119266D01*
X-232001Y-120032D01*
X-229999D01*
X-228150Y-119266D01*
X-226734Y-117850D01*
X-225968Y-116001D01*
Y-113999D01*
X-226734Y-112150D01*
X-228150Y-110734D01*
X-229999Y-109968D01*
D02*
G37*
G36*
X237101Y-110968D02*
X235099D01*
X233250Y-111734D01*
X231834Y-113150D01*
X231068Y-114999D01*
Y-117001D01*
X231834Y-118850D01*
X233250Y-120266D01*
X235099Y-121032D01*
X237101D01*
X238950Y-120266D01*
X240366Y-118850D01*
X241132Y-117001D01*
Y-114999D01*
X240366Y-113150D01*
X238950Y-111734D01*
X237101Y-110968D01*
D02*
G37*
G36*
X-75999Y-116968D02*
X-78001D01*
X-79850Y-117734D01*
X-81266Y-119150D01*
X-82032Y-120999D01*
Y-123001D01*
X-81266Y-124850D01*
X-79850Y-126266D01*
X-78001Y-127032D01*
X-75999D01*
X-74150Y-126266D01*
X-72734Y-124850D01*
X-71968Y-123001D01*
Y-120999D01*
X-72734Y-119150D01*
X-74150Y-117734D01*
X-75999Y-116968D01*
D02*
G37*
G36*
X-53999Y-117968D02*
X-56001D01*
X-57850Y-118734D01*
X-59266Y-120150D01*
X-60032Y-121999D01*
Y-124001D01*
X-59266Y-125850D01*
X-57850Y-127266D01*
X-56001Y-128032D01*
X-53999D01*
X-52150Y-127266D01*
X-50734Y-125850D01*
X-49968Y-124001D01*
Y-121999D01*
X-50734Y-120150D01*
X-52150Y-118734D01*
X-53999Y-117968D01*
D02*
G37*
G36*
X87000Y-123967D02*
X84998D01*
X83149Y-124733D01*
X81733Y-126149D01*
X80967Y-127998D01*
Y-130000D01*
X81733Y-131849D01*
X83149Y-133265D01*
X84998Y-134031D01*
X87000D01*
X88850Y-133265D01*
X90265Y-131849D01*
X91031Y-130000D01*
Y-127998D01*
X90265Y-126149D01*
X88850Y-124733D01*
X87000Y-123967D01*
D02*
G37*
G36*
X-75999Y-128968D02*
X-78001D01*
X-79850Y-129734D01*
X-81266Y-131150D01*
X-82032Y-132999D01*
Y-135001D01*
X-81266Y-136850D01*
X-79850Y-138266D01*
X-78001Y-139032D01*
X-75999D01*
X-74150Y-138266D01*
X-72734Y-136850D01*
X-71968Y-135001D01*
Y-132999D01*
X-72734Y-131150D01*
X-74150Y-129734D01*
X-75999Y-128968D01*
D02*
G37*
G36*
X26001Y-129968D02*
X23999D01*
X22150Y-130734D01*
X20734Y-132150D01*
X19968Y-133999D01*
Y-136001D01*
X20734Y-137850D01*
X22150Y-139266D01*
X23999Y-140032D01*
X26001D01*
X27850Y-139266D01*
X29266Y-137850D01*
X30032Y-136001D01*
Y-133999D01*
X29266Y-132150D01*
X27850Y-130734D01*
X26001Y-129968D01*
D02*
G37*
G36*
X107001Y-133968D02*
X104999D01*
X103150Y-134734D01*
X101734Y-136150D01*
X100968Y-137999D01*
Y-140001D01*
X101734Y-141850D01*
X103150Y-143266D01*
X104999Y-144032D01*
X107001D01*
X108850Y-143266D01*
X110266Y-141850D01*
X111032Y-140001D01*
Y-137999D01*
X110266Y-136150D01*
X108850Y-134734D01*
X107001Y-133968D01*
D02*
G37*
G36*
X-196000Y-142969D02*
X-198002D01*
X-199851Y-143735D01*
X-201267Y-145150D01*
X-202033Y-147000D01*
Y-149002D01*
X-201267Y-150851D01*
X-199851Y-152267D01*
X-198002Y-153033D01*
X-196000D01*
X-194150Y-152267D01*
X-192735Y-150851D01*
X-191969Y-149002D01*
Y-147000D01*
X-192735Y-145150D01*
X-194150Y-143735D01*
X-196000Y-142969D01*
D02*
G37*
%LPD*%
G36*
X157000Y191000D02*
X164000Y184000D01*
Y66000D01*
X157000Y59000D01*
Y53000D01*
X174000Y36000D01*
Y11000D01*
X166000Y3000D01*
X148000D01*
X142000Y9000D01*
Y137000D01*
X113000Y166000D01*
X77000D01*
X59968Y148968D01*
Y143999D01*
X53000Y137031D01*
Y137000D01*
X47000D01*
X41000Y131000D01*
Y123000D01*
X48000Y116000D01*
Y93000D01*
X45000Y90000D01*
X28000D01*
X26000Y92000D01*
Y133000D01*
X38000Y145000D01*
X47000D01*
X51741Y149741D01*
Y166000D01*
X44741Y173000D01*
X30000D01*
X13000Y190000D01*
X-11145D01*
X-28145Y173000D01*
X-47000D01*
X-51000Y169000D01*
X-167000D01*
X-194000Y142000D01*
X-228000D01*
X-232000Y146000D01*
Y157000D01*
X-202000Y187000D01*
X-21000D01*
X-12000Y196000D01*
X22000D01*
X32000Y186000D01*
X45000D01*
X66000Y207000D01*
X141000D01*
X157000Y191000D01*
D02*
G37*
G36*
X242000Y150000D02*
Y45000D01*
X218000Y21000D01*
Y-1000D01*
X194000Y-25000D01*
Y-50000D01*
X175000Y-69000D01*
X145000D01*
X139000Y-63000D01*
Y-52000D01*
X145000Y-46000D01*
X155000D01*
X202000Y1000D01*
Y74000D01*
X221000Y93000D01*
Y125000D01*
X219000Y127000D01*
X198000D01*
X192000Y133000D01*
Y154000D01*
X199000Y161000D01*
X231000D01*
X242000Y150000D01*
D02*
G37*
D13*
X166245Y-209900D02*
X167937Y-208207D01*
X171323D01*
X173016Y-209900D01*
Y-211592D01*
X171323Y-213285D01*
X169630D01*
X171323D01*
X173016Y-214978D01*
Y-216671D01*
X171323Y-218363D01*
X167937D01*
X166245Y-216671D01*
D90*
X117000Y92621D02*
X121000Y96621D01*
Y125000D01*
X-13000Y178000D02*
X-9000Y182000D01*
X8000D01*
X-19000Y172000D02*
X-13000Y178000D01*
X8000Y182000D02*
X15000Y175000D01*
Y124000D02*
Y175000D01*
X117000Y-17000D02*
Y92621D01*
X87000Y-47000D02*
X117000Y-17000D01*
X68000Y-76000D02*
X87000Y-57000D01*
Y-47000D01*
X37000Y-76000D02*
X68000D01*
X17112Y-95888D02*
X37000Y-76000D01*
X5000Y-114000D02*
X17112Y-101888D01*
Y-95888D01*
X-3000Y74000D02*
Y106000D01*
X15000Y124000D01*
D105*
X36560Y94690D02*
D03*
D106*
Y82190D02*
D03*
D112*
X210000Y140700D02*
D03*
D113*
X177000Y-155000D02*
D03*
X121000Y125000D02*
D03*
X151000Y-64000D02*
D03*
X-13000Y178000D02*
D03*
X-19000Y172000D02*
D03*
X-3000Y74000D02*
D03*
X142499Y-124001D02*
D03*
X-57000Y49000D02*
D03*
X5000Y-114000D02*
D03*
X-88000Y-59000D02*
D03*
X8598Y-81937D02*
D03*
X-223000Y151000D02*
D03*
X-63999Y209249D02*
D03*
X61000Y46000D02*
D03*
X48000Y30000D02*
D03*
X54001Y179999D02*
D03*
X105000Y192000D02*
D03*
X96499Y198501D02*
D03*
X165000Y16002D02*
D03*
X164999Y26001D02*
D03*
X74001Y-24501D02*
D03*
X-159999Y162500D02*
D03*
X-223372Y109523D02*
D03*
X-149249Y-6000D02*
D03*
X-197501Y-96001D02*
D03*
X51001Y10001D02*
D03*
Y-8999D02*
D03*
X50501Y-28999D02*
D03*
X-45001Y-123001D02*
D03*
X66000Y-128000D02*
D03*
X99000Y-151000D02*
D03*
M02*
